<svg width="1024" height="1400" viewBox="0 0 1024 1400" fill="none" xmlns="http://www.w3.org/2000/svg">
<g clip-path="url(#clip0)">
<path d="M1656.46 2144.47L1640.79 2016.96C1640.2 2012.46 1641.05 2007.88 1643.22 2003.88C1645.38 1999.88 1648.75 1996.67 1652.85 1994.69L1726.49 1762.49C1725.4 1759.37 1725.03 1756.04 1725.38 1752.75C1725.38 1752.75 1762.44 1454.84 1760.35 1450.75L1685.86 1344.91L1743.33 1177.88L1953.5 972.16L2559.34 628.754C2560.13 625.229 2561.78 621.952 2564.14 619.213L2627.75 543.767C2630.15 541.001 2633.19 538.859 2636.6 537.526L3220.33 318.384C3222.1 317.802 3223.77 316.95 3225.28 315.857L3341.59 234.968C3343.46 234.01 3372.65 169.488 3440.78 218.662C3559.38 304.337 3744.68 526.897 3737.49 538.086L3615.8 726.744C3614.37 728.919 3613.35 731.334 3612.78 733.873L3591.69 826.042C3591.08 828.944 3591.06 831.937 3591.63 834.845C3592.2 837.753 3593.35 840.517 3595 842.974C3596.66 845.431 3598.79 847.532 3601.27 849.151C3603.76 850.771 3606.54 851.876 3609.46 852.403L3658.16 860.6C3662.4 861.376 3666.77 860.858 3670.71 859.112C3674.66 857.367 3677.98 854.476 3680.26 850.816L3811.06 645.903C3812.27 644.047 3813.72 642.365 3815.38 640.902L3961.57 517.046C3965.23 514.008 3969.78 512.236 3974.53 511.995C3979.28 511.754 3983.98 513.057 3987.92 515.708C3991.87 518.36 3994.85 522.217 3996.41 526.704C3997.98 531.191 3998.05 536.065 3996.61 540.597L3774.62 1221.2C3773.23 1225.73 3773.3 1230.57 3774.82 1235.06L3784.56 1264.23C3785.82 1268 3786.03 1272.05 3785.17 1275.94C3784.31 1279.83 3782.41 1283.41 3779.68 1286.31C3776.94 1289.2 3773.47 1291.3 3769.63 1292.39C3765.8 1293.47 3761.74 1293.49 3757.9 1292.45L3594.5 1247.06C3589.02 1245.51 3584.37 1241.89 3581.53 1236.96C3578.69 1232.03 3577.89 1226.18 3579.3 1220.67L3648.5 937.264C3649.35 934.063 3649.45 930.711 3648.79 927.468C3648.13 924.225 3646.74 921.176 3644.71 918.557C3642.69 915.939 3640.09 913.82 3637.12 912.365C3634.15 910.909 3630.88 910.155 3627.56 910.162L3601.7 909.628C3596.83 909.612 3592.08 911.185 3588.18 914.108C3584.28 917.031 3581.44 921.145 3580.08 925.825L3541.91 1065.38L3541.41 1066.92L3475.54 1254.13C3474.52 1257.07 3472.88 1259.76 3470.72 1262.01C3468.57 1264.26 3465.96 1266.02 3463.06 1267.16L3121.5 1403.84C3118.09 1405.09 3115.11 1407.29 3112.9 1410.17L3062.01 1470.09C3059.05 1473.59 3057.25 1477.93 3056.87 1482.49C3056.49 1487.05 3057.54 1491.62 3059.88 1495.56C3062.22 1499.49 3065.74 1502.6 3069.93 1504.44C3074.12 1506.28 3078.79 1506.77 3083.28 1505.84L3332.2 1454.71L3335.37 1454.17L3498.32 1444.81C3501.55 1444.61 3504.78 1445.13 3507.78 1446.32C3510.79 1447.52 3513.49 1449.36 3515.7 1451.72C3517.91 1454.07 3519.57 1456.89 3520.57 1459.96C3521.56 1463.03 3521.87 1466.29 3521.47 1469.49L3513.5 1531.77C3513 1535.31 3511.67 1538.68 3509.61 1541.6C3507.55 1544.52 3504.82 1546.91 3501.64 1548.56L3390.28 1605.45C3388.04 1606.53 3385.65 1607.24 3383.19 1607.57L3376.18 1608.57C3373.68 1608.98 3371.26 1609.79 3369 1610.95L3308.39 1643.41C3303.48 1645.82 3299.65 1649.98 3297.66 1655.07C3295.68 1660.16 3295.67 1665.81 3297.65 1670.9C3299.63 1675.99 3303.44 1680.15 3308.35 1682.56C3313.25 1684.97 3318.88 1685.45 3324.13 1683.91L3553.05 1626.89C3554.67 1626.28 3556.21 1625.49 3557.66 1624.54L3714.03 1542.94C3740.74 1545.41 3767.56 1546.48 3794.38 1546.15C3820.24 1535.86 3845.07 1523.17 3868.56 1508.25C3873.25 1508.69 3877.98 1507.97 3882.33 1506.16C3839.42 1535.81 3800.43 1563.46 3757.51 1593.11L3755.98 1593.9L3606.92 1723.08C3605.48 1724.04 3603.94 1724.83 3602.32 1725.43L3465.88 1795.13C3463.18 1796.53 3460.79 1798.47 3458.88 1800.83C3456.96 1803.2 3455.56 1805.94 3454.75 1808.87C3453.95 1811.8 3453.76 1814.87 3454.2 1817.88C3454.64 1820.89 3455.7 1823.77 3457.32 1826.35L3597.57 2048.72C3598.76 2050.64 3600.28 2052.34 3602.07 2053.73L3709.75 2144.98C3711.99 2146.84 3793.61 2212.75 3787.13 2226.58C3769.88 2263.96 3646.05 2272.02 3646.05 2272.02C3643.34 2275.97 3639.38 2278.89 3634.81 2280.34L3456.07 2338.35C3453.22 2339.16 3450.55 2340.53 3448.22 2342.36L3243.3 2561.72C3187.11 2646.99 3124.84 2728.11 3056.98 2804.45C2984.32 2883.22 2899.14 2937.05 2892.36 2935.14L2721.43 2890.16C2716.68 2888.85 2712.51 2886 2709.56 2882.07C2706.62 2878.13 2705.07 2873.32 2705.15 2868.4L2706.95 2783.51C2707.03 2780.24 2706.38 2777 2705.05 2774.01C2703.72 2771.02 2701.74 2768.37 2699.26 2766.25C2696.77 2764.12 2693.84 2762.58 2690.68 2761.73C2687.52 2760.88 2684.21 2760.74 2680.99 2761.33L2209.08 2852.06C2203.86 2853.13 2198.42 2852.23 2193.82 2849.54C2193.82 2849.54 1623.97 2826 1618.5 2817.83C1618.5 2817.83 1485.36 2702 1493.33 2576.16C1503.67 2393.05 1657.74 2176.03 1656.46 2144.47Z" fill="#293135" stroke="#2D7D9A" stroke-miterlimit="10"/>
<path d="M384.67 2756.98C343.455 2742.81 318.523 2096.21 390.392 1930.85C393.554 1923.69 394.445 1915.74 392.948 1908.07C375.156 1794.09 402.77 1366.13 388.026 1279.59C376.395 1210.79 364.286 1143.02 351.701 1076.29C349.945 1066.5 351.814 1056.41 356.961 1047.89C362.107 1039.37 370.179 1033.01 379.668 1030L616.005 957.6C621.785 955.808 627.094 952.753 631.548 948.657C636.002 944.562 639.49 939.528 641.758 933.922L712.444 759.932C714.312 755.533 716.882 751.464 720.053 747.884L854.479 599.323C859.801 593.413 863.27 586.072 864.455 578.212C865.639 570.352 864.487 562.32 861.142 555.114C833.523 496.416 821.833 469.742 753.973 337.316C752.073 333.636 750.714 329.7 749.939 325.631C723.166 139.844 715.445 -48.2087 726.897 -235.602C727.386 -242.748 725.973 -249.895 722.8 -256.314C719.628 -262.734 714.811 -268.198 708.837 -272.15C702.864 -276.103 695.948 -278.403 688.792 -278.817C681.637 -279.232 674.497 -277.745 668.1 -274.508L656.503 -268.584C651.46 -265.98 645.921 -264.477 640.255 -264.175C634.589 -263.873 628.924 -264.777 623.637 -266.83L313.145 -385.063C310.733 -385.983 308.231 -386.649 305.68 -387.048C248.657 -397.222 -428.829 -516.126 -632.286 -591.529C-638.128 -593.682 -643.396 -597.151 -647.679 -601.667C-651.962 -606.183 -655.146 -611.625 -656.985 -617.57L-672.551 -668.251C-675.054 -676.492 -680.119 -683.72 -687.012 -688.887C-693.904 -694.055 -702.267 -696.893 -710.887 -696.991L-838.389 -697.795C-845.956 -697.785 -853.369 -699.919 -859.767 -703.949C-866.165 -707.98 -871.286 -713.742 -874.536 -720.566C-933.069 -843.152 -978.152 -1133.9 -940.294 -1290.91C-938.896 -1296.63 -936.289 -1301.99 -932.65 -1306.63C-929.01 -1311.26 -924.421 -1315.07 -919.191 -1317.79L-816.865 -1370.06C-812.113 -1372.49 -807.884 -1375.82 -804.421 -1379.87C-800.957 -1383.93 -798.326 -1388.62 -796.677 -1393.69L-714.137 -1647.62C-711.946 -1654.46 -711.606 -1661.77 -713.152 -1668.79C-714.697 -1675.81 -718.074 -1682.29 -722.938 -1687.58L-769.748 -1737.12C-774.032 -1741.76 -777.168 -1747.34 -778.909 -1753.42C-780.65 -1759.49 -780.946 -1765.89 -779.773 -1772.1C-778.601 -1778.31 -775.993 -1784.16 -772.157 -1789.19C-768.321 -1794.22 -763.363 -1798.28 -757.679 -1801.06C-632.817 -1861.83 -422.542 -1906.53 -297.664 -1902.02C-287.906 -1901.68 -278.606 -1897.82 -271.484 -1891.15C-264.362 -1884.49 -259.901 -1875.46 -258.925 -1865.76C-256.145 -1839.69 -253.706 -1813.44 -250.756 -1787.46C-250.002 -1780.35 -247.381 -1773.57 -243.158 -1767.8C-238.935 -1762.03 -233.261 -1757.49 -226.709 -1754.62C-220.158 -1751.75 -212.963 -1750.67 -205.852 -1751.47C-198.742 -1752.28 -191.97 -1754.95 -186.222 -1759.21L-142.135 -1792.04C-134.405 -1798.22 -124.696 -1801.38 -114.815 -1800.93C-104.935 -1800.49 -95.5575 -1796.47 -88.4282 -1789.63C-83.6955 -1785.08 -77.9228 -1781.75 -71.6101 -1779.93C-65.2972 -1778.12 -58.6349 -1777.87 -52.2012 -1779.21C-45.7674 -1780.55 -39.7562 -1783.44 -34.6887 -1787.62C-29.6213 -1791.81 -25.6505 -1797.16 -23.1208 -1803.23L142.387 -2194.89C143.244 -2197.07 144.348 -2199.15 145.676 -2201.08L366.956 -2546.71C370.568 -2552.7 372.57 -2559.52 372.768 -2566.51C372.967 -2573.49 371.355 -2580.41 368.088 -2586.59L264.552 -2789.28C262.923 -2792.59 260.79 -2795.63 258.228 -2798.29C177.84 -2881.15 285.749 -3237.8 342.212 -3349.55C346.722 -3358.46 354.374 -3365.38 363.69 -3368.99C373.006 -3372.6 383.327 -3372.64 392.658 -3369.09L509.467 -3324.81C516.058 -3322.24 523.217 -3321.48 530.206 -3322.59C537.195 -3323.71 543.762 -3326.67 549.231 -3331.16C613.461 -3382.65 832.201 -3555.6 921.917 -3589.61C930.271 -3592.69 939.398 -3592.94 947.906 -3590.35C956.415 -3587.76 963.837 -3582.45 969.042 -3575.24C1015.98 -3509.45 1063.07 -3443.65 1110.3 -3377.86C1114.96 -3371.34 1121.47 -3366.36 1128.99 -3363.57C1211.78 -3332.84 1713.87 -3144.75 1824.01 -3046.16C1829.7 -3041.08 1836.69 -3037.68 1844.2 -3036.36C1851.72 -3035.04 1859.46 -3035.84 1866.54 -3038.68C1970.84 -3076.35 2078.56 -3103.75 2188.17 -3120.5C2195.29 -3121.28 2202.08 -3123.94 2207.84 -3128.2C2213.6 -3132.46 2218.12 -3138.17 2220.94 -3144.76L2243.13 -3196.04C2245.59 -3201.82 2249.37 -3206.95 2254.16 -3211.02C2258.95 -3215.08 2264.63 -3217.98 2270.74 -3219.47C2276.84 -3220.97 2283.21 -3221.02 2289.34 -3219.62C2295.47 -3218.22 2301.18 -3215.41 2306.03 -3211.41C2374.03 -3155.74 2466.22 -3053.99 2504.85 -2977.94C2507.26 -2973.22 2510.58 -2969.03 2514.62 -2965.6C2518.66 -2962.17 2523.34 -2959.57 2528.39 -2957.96L2764.31 -2881.31C2773.63 -2878.24 2781.53 -2871.9 2786.55 -2863.46L2886.98 -2695.06L3018.36 -2437.87C3021.08 -2432.75 3022.65 -2427.1 3022.94 -2421.31L3027.4 -2326.29C3027.75 -2318.48 3030.35 -2310.93 3034.9 -2304.57C3039.45 -2298.2 3045.75 -2293.29 3053.03 -2290.42L3175.17 -2242.85C3181.54 -2240.37 3187.17 -2236.32 3191.53 -2231.07C3195.9 -2225.82 3198.86 -2219.54 3200.13 -2212.84C3201.41 -2206.13 3200.97 -2199.21 3198.84 -2192.72C3196.71 -2186.22 3192.97 -2180.38 3187.96 -2175.72C3151.68 -2141.51 3091.84 -2107.94 3051.53 -2106.03C3043.83 -2105.71 3036.38 -2103.2 3030.06 -2098.79C3023.74 -2094.38 3018.81 -2088.26 3015.85 -2081.15L2946.29 -1916.75C2943.89 -1911.05 2940.24 -1905.96 2935.62 -1901.85C2844.89 -1823.93 2616.31 -1818.85 2509.24 -1760.72C2503.94 -1757.76 2499.38 -1753.66 2495.88 -1748.71C2492.38 -1743.77 2490.03 -1738.1 2489 -1732.13L2439.16 -1438.2C2437.92 -1430.8 2438.77 -1423.21 2441.6 -1416.27C2444.43 -1409.32 2449.13 -1403.3 2455.18 -1398.87C2461.23 -1394.44 2468.4 -1391.78 2475.88 -1391.17C2483.36 -1390.56 2490.86 -1392.04 2497.56 -1395.44L2797.71 -1548.77C2803.29 -1551.71 2808.1 -1555.9 2811.78 -1561.02C2815.45 -1566.14 2817.89 -1572.05 2818.88 -1578.27C2819.88 -1584.49 2819.41 -1590.85 2817.52 -1596.85C2815.63 -1602.86 2812.36 -1608.34 2807.98 -1612.86L2747.45 -1675.37C2743.18 -1679.81 2739.98 -1685.17 2738.09 -1691.04C2736.21 -1696.91 2735.69 -1703.14 2736.57 -1709.24C2737.45 -1715.35 2739.72 -1721.17 2743.19 -1726.27C2746.66 -1731.37 2751.26 -1735.62 2756.62 -1738.68L2805.11 -1766.24C2811.35 -1770.36 2818.6 -1772.68 2826.06 -1772.92C2833.53 -1773.17 2840.91 -1771.35 2847.4 -1767.66L3021.37 -1654C3025.81 -1651.12 3030.77 -1649.13 3035.97 -1648.14L3215.2 -1614.27C3222.11 -1612.93 3228.56 -1609.82 3233.9 -1605.25C3239.25 -1600.68 3243.33 -1594.81 3245.73 -1588.2C3280.93 -1491.06 3219.26 -1261.12 3156.53 -1204.59C3151.85 -1200.26 3148.24 -1194.9 3145.99 -1188.94C3143.73 -1182.98 3142.89 -1176.58 3143.54 -1170.24L3179.34 -788.632C3179.71 -783.853 3179.26 -779.044 3178 -774.417L3162.04 -714.294C3160.51 -708.561 3157.73 -703.234 3153.91 -698.688C3150.09 -694.142 3145.32 -690.488 3139.94 -687.983C3134.55 -685.478 3128.68 -684.183 3122.75 -684.191C3116.81 -684.198 3110.95 -685.507 3105.57 -688.025L3032.43 -722.18C3026.65 -724.862 3021.59 -728.867 3017.65 -733.87C3013.71 -738.873 3011.01 -744.734 3009.76 -750.978C2998.16 -809.48 2973.15 -936.308 2962.27 -990.882C2960.75 -998.602 2957.01 -1005.71 2951.5 -1011.33C2946 -1016.95 2938.96 -1020.84 2931.27 -1022.51L2867.28 -1036.64C2859.34 -1038.4 2851.06 -1037.76 2843.49 -1034.8L2815.5 -1023.51C2810.27 -1021.4 2805.54 -1018.24 2801.6 -1014.21C2797.66 -1010.17 2794.6 -1005.37 2792.63 -1000.1C2790.65 -994.822 2789.79 -989.195 2790.1 -983.574C2790.42 -977.953 2791.9 -972.461 2794.46 -967.446L2805.42 -945.986C2810.15 -936.76 2811.17 -926.071 2808.25 -916.114C2805.34 -906.158 2798.72 -897.69 2789.76 -892.453L2576.36 -768.411C2573.76 -766.93 2571.36 -765.126 2569.21 -763.041C2513.92 -718.358 2456.17 -676.811 2396.23 -638.598C2388.79 -633.864 2383.1 -626.827 2380.03 -618.563C2376.96 -610.298 2376.68 -601.261 2379.23 -592.828C2381.78 -584.396 2387.03 -577.033 2394.16 -571.863C2401.3 -566.693 2409.93 -564 2418.75 -564.196L2897.2 -567.622L3386.69 -559.941C3394.02 -559.825 3401.18 -557.736 3407.42 -553.893C3413.66 -550.05 3418.75 -544.596 3422.14 -538.105L3528.72 -329.456C3530.16 -326.64 3531.93 -324.012 3534.01 -321.633L3848.83 45.4536C3852.72 50.1141 3855.51 55.5839 3857.01 61.4638L3858.16 65.8172C3860.2 73.2458 3860.07 81.1049 3857.78 88.4657C3855.49 95.8269 3851.15 102.382 3845.25 107.357C3839.36 112.332 3832.17 115.52 3824.52 116.542C3816.88 117.565 3809.1 116.381 3802.12 113.13C3767.31 97.1909 3732.58 80.9952 3697.95 64.9695C3695.22 63.6804 3692.63 62.128 3690.2 60.3346C3645.48 25.8342 3600.85 -8.49549 3556.3 -43.083C3550.29 -47.7236 3543.09 -50.5808 3535.52 -51.3294C3527.96 -52.078 3520.33 -50.6884 3513.51 -47.3175C3506.69 -43.9467 3500.96 -38.7311 3496.96 -32.2646C3492.96 -25.7982 3490.86 -18.341 3490.89 -10.7428L3491.14 8.67711C3491.09 14.6052 3492.38 20.4656 3494.9 25.8306C3497.42 31.196 3501.1 35.9306 3505.69 39.6877L3715.93 213.423C3720.65 217.192 3726.14 219.886 3732.01 221.318L3923.25 269.026C3929.9 270.744 3936.87 270.75 3943.52 269.044C3950.17 267.337 3956.28 263.973 3961.28 259.267L4016.36 209.653C4020.49 206.047 4025.22 203.195 4030.33 201.227L4387.41 87.3381L4414.93 112.583C4417.15 111.451 4427.28 105.198 4446.31 96.5539C4449.72 94.8116 4444.49 72.7847 4447.9 71.0424C4464.95 62.3308 4496.8 51.0028 4496.8 51.0028L4518.57 64.5791L4569.48 48.4569L4597.54 66.7675C4604.79 67.1401 4612.01 65.5986 4618.48 62.2984L4684.65 28.4972C4689.79 25.8818 4695.42 24.3881 4701.18 24.1164C4706.93 23.8452 4712.68 24.8015 4718.03 26.9216C4723.39 29.042 4728.23 32.2776 4732.24 36.4136C4736.24 40.5503 4739.32 45.4922 4741.26 50.9106L4873.02 419.155C4874.83 424.236 4875.6 429.628 4875.3 435.014C4874.99 440.4 4873.62 445.673 4871.25 450.523C4868.88 455.373 4865.56 459.703 4861.5 463.26C4857.44 466.816 4852.71 469.528 4847.59 471.236L4718.72 513.652C4711.8 516.025 4705.65 520.229 4700.93 525.818C4696.21 531.406 4693.1 538.169 4691.92 545.383L4679.82 615.995C4678.26 625.799 4673.13 634.686 4665.43 640.959C4657.72 647.233 4647.98 650.452 4638.05 650.002C4539.46 645.169 4367.34 600.795 4277.49 533.509C4274.28 530.969 4271.41 528.034 4268.94 524.774C4227.08 466.12 4185.19 407.409 4143.27 348.641C4137.32 340.234 4128.37 334.423 4118.26 332.399C4108.15 330.376 4097.64 332.293 4088.9 337.759L3766.5 536.805C3760.89 540.227 3754.53 542.224 3747.97 542.621L3573.81 553.622C3564.07 554.27 3554.43 551.374 3546.67 545.468C3538.91 539.562 3533.56 531.047 3531.6 521.495L3495.59 346.597C3494.09 340.306 3491.1 334.467 3486.89 329.565L3416.8 239.511C3410.25 231.191 3400.7 225.763 3390.2 224.388C3379.69 223.013 3369.06 225.8 3360.57 232.153L3081.43 443.467C3077.07 446.879 3072.09 449.422 3066.77 450.959L2661.37 550.658C2655.78 552.222 2650.56 554.888 2646.02 558.499L2593.19 600.306C2588.59 603.832 2584.81 608.293 2582.07 613.392C2579.34 618.492 2577.72 624.114 2577.33 629.884L2568.32 870.731C2568.12 876.43 2566.72 882.024 2564.21 887.147C2561.7 892.271 2558.14 896.81 2553.76 900.467C2549.37 904.124 2544.27 906.817 2538.78 908.371C2533.29 909.925 2527.53 910.305 2521.88 909.486C2372.72 888.174 2114.69 935.791 1992.93 998.42C1988.04 1000.96 1983.72 1004.47 1980.24 1008.74C1976.76 1013.01 1974.19 1017.94 1972.69 1023.23C1971.18 1028.53 1970.78 1034.07 1971.49 1039.53C1972.21 1044.98 1974.04 1050.23 1976.86 1054.95L1981.56 1064.15C1984.63 1069.29 1986.51 1075.04 1987.08 1081C1987.65 1086.96 1986.88 1092.97 1984.84 1098.6C1982.79 1104.23 1979.52 1109.33 1975.26 1113.54C1971 1117.76 1965.86 1120.97 1960.2 1122.95L1768.44 1190.84C1763.4 1192.61 1758.76 1195.37 1754.79 1198.94C1750.82 1202.52 1747.6 1206.84 1745.32 1211.67C1716.37 1274.56 1736.22 1441.82 1781.85 1493.68C1785.93 1498.05 1788.98 1503.27 1790.78 1508.97C1792.57 1514.67 1793.07 1520.7 1792.22 1526.62L1761.88 1723.17C1760.73 1730.48 1761.65 1737.97 1764.53 1744.79L1793.23 1809.81C1795.92 1816.4 1796.83 1823.58 1795.87 1830.63C1794.9 1837.68 1792.1 1844.36 1787.73 1849.99L1672.32 1999.15C1667.84 2004.92 1665.01 2011.81 1664.13 2019.06C1663.26 2026.32 1664.37 2033.67 1667.35 2040.34L1745.24 2216.83C1749.41 2226.16 1749.88 2236.72 1746.56 2246.39C1743.23 2256.06 1736.37 2264.11 1727.34 2268.93L1698.86 2283.47C1693.05 2286.6 1686.58 2288.27 1679.98 2288.34C1673.39 2288.42 1666.88 2286.89 1661.01 2283.91L1526.71 2215.06C1520.19 2211.72 1512.87 2210.23 1505.55 2210.75C1498.24 2211.27 1491.2 2213.78 1485.21 2218L1268.45 2371.68C1262.47 2375.79 1255.53 2378.29 1248.3 2378.97C1195.94 2384.23 964.055 2403.46 806.213 2430.83C798.782 2432.09 791.847 2435.4 786.186 2440.38C780.525 2445.36 776.361 2451.81 774.161 2459.01L731.288 2599.47C730.357 2602.71 728.969 2605.81 727.167 2608.66L645.198 2742.88C640.641 2750.43 633.698 2756.24 625.467 2759.4L521.512 2800.91C511.782 2804.81 500.928 2804.81 491.201 2800.93L384.67 2756.98Z" fill="#293135" stroke="#2D7D9A" stroke-opacity="0.38" stroke-miterlimit="10"/>
<path d="M925 981.38C920.526 981.38 916.153 982.707 912.433 985.192C908.713 987.678 905.814 991.21 904.102 995.344C902.39 999.477 901.942 1004.02 902.815 1008.41C903.687 1012.8 905.842 1016.83 909.005 1019.99C912.169 1023.16 916.199 1025.31 920.587 1026.19C924.975 1027.06 929.523 1026.61 933.656 1024.9C937.789 1023.19 941.322 1020.29 943.808 1016.57C946.293 1012.85 947.62 1008.47 947.62 1004C947.62 998.001 945.237 992.247 940.995 988.005C936.753 983.763 930.999 981.38 925 981.38ZM926.41 999.76C926.606 999.743 926.803 999.768 926.989 999.831C927.175 999.895 927.345 999.997 927.49 1000.13C927.635 1000.26 927.75 1000.42 927.829 1000.6C927.908 1000.78 927.949 1000.98 927.949 1001.17C927.949 1001.37 927.908 1001.57 927.829 1001.75C927.75 1001.93 927.635 1002.09 927.49 1002.22C927.345 1002.35 927.175 1002.45 926.989 1002.52C926.803 1002.58 926.606 1002.61 926.41 1002.59H919.46C919.393 1003.06 919.356 1003.53 919.35 1004C919.356 1004.47 919.393 1004.94 919.46 1005.41H925C925.355 1005.44 925.685 1005.6 925.926 1005.86C926.167 1006.13 926.301 1006.47 926.301 1006.82C926.301 1007.18 926.167 1007.52 925.926 1007.79C925.685 1008.05 925.355 1008.21 925 1008.24H920.33C920.839 1009.45 921.68 1010.49 922.756 1011.24C923.833 1011.99 925.099 1012.42 926.41 1012.48C927.644 1012.48 928.848 1012.11 929.86 1011.4C930.169 1011.19 930.549 1011.11 930.917 1011.18C931.284 1011.25 931.609 1011.46 931.82 1011.77C932.031 1012.08 932.11 1012.46 932.041 1012.83C931.971 1013.19 931.759 1013.52 931.45 1013.73C929.979 1014.75 928.237 1015.3 926.45 1015.31C922.31 1015.31 918.77 1012.38 917.29 1008.24H915.1C914.745 1008.21 914.415 1008.05 914.174 1007.79C913.933 1007.52 913.799 1007.18 913.799 1006.82C913.799 1006.47 913.933 1006.13 914.174 1005.86C914.415 1005.6 914.745 1005.44 915.1 1005.41H916.64C916.575 1004.94 916.535 1004.47 916.52 1004C916.535 1003.53 916.575 1003.06 916.64 1002.59H915.1C914.745 1002.56 914.415 1002.4 914.174 1002.14C913.933 1001.87 913.799 1001.53 913.799 1001.17C913.799 1000.82 913.933 1000.48 914.174 1000.21C914.415 999.952 914.745 999.79 915.1 999.76H917.25C918.73 995.62 922.25 992.69 926.41 992.69C928.197 992.704 929.939 993.254 931.41 994.27C931.719 994.481 931.931 994.806 932.001 995.173C932.07 995.541 931.991 995.921 931.78 996.23C931.569 996.539 931.244 996.751 930.877 996.821C930.509 996.89 930.129 996.811 929.82 996.6C928.808 995.894 927.604 995.517 926.37 995.52C925.059 995.58 923.793 996.01 922.716 996.76C921.64 997.511 920.799 998.551 920.29 999.76H926.41Z" fill="#2D7D9A"/>
<path d="M874 748.38C869.526 748.38 865.153 749.707 861.433 752.192C857.713 754.678 854.814 758.21 853.102 762.344C851.39 766.477 850.942 771.025 851.815 775.413C852.687 779.801 854.842 783.831 858.005 786.995C861.169 790.158 865.199 792.312 869.587 793.185C873.975 794.058 878.523 793.61 882.656 791.898C886.789 790.186 890.322 787.287 892.808 783.567C895.293 779.847 896.62 775.474 896.62 771C896.62 765.001 894.237 759.247 889.995 755.005C885.753 750.763 879.999 748.38 874 748.38ZM875.41 766.76C875.606 766.743 875.803 766.768 875.989 766.831C876.175 766.895 876.345 766.997 876.49 767.13C876.635 767.263 876.75 767.424 876.829 767.604C876.908 767.784 876.949 767.978 876.949 768.175C876.949 768.371 876.908 768.566 876.829 768.746C876.75 768.926 876.635 769.087 876.49 769.22C876.345 769.353 876.175 769.455 875.989 769.518C875.803 769.582 875.606 769.606 875.41 769.59H868.46C868.393 770.057 868.356 770.528 868.35 771C868.356 771.472 868.393 771.943 868.46 772.41H874C874.355 772.44 874.685 772.602 874.926 772.864C875.167 773.126 875.301 773.469 875.301 773.825C875.301 774.181 875.167 774.524 874.926 774.786C874.685 775.048 874.355 775.21 874 775.24H869.33C869.839 776.449 870.68 777.489 871.756 778.24C872.833 778.99 874.099 779.42 875.41 779.48C876.644 779.483 877.848 779.106 878.86 778.4C879.169 778.189 879.549 778.11 879.917 778.179C880.284 778.248 880.609 778.461 880.82 778.77C881.031 779.079 881.11 779.459 881.041 779.827C880.971 780.194 880.759 780.519 880.45 780.73C878.979 781.746 877.237 782.296 875.45 782.31C871.31 782.31 867.77 779.38 866.29 775.24H864.1C863.745 775.21 863.415 775.048 863.174 774.786C862.933 774.524 862.799 774.181 862.799 773.825C862.799 773.469 862.933 773.126 863.174 772.864C863.415 772.602 863.745 772.44 864.1 772.41H865.64C865.575 771.942 865.535 771.472 865.52 771C865.535 770.528 865.575 770.057 865.64 769.59H864.1C863.745 769.56 863.415 769.398 863.174 769.136C862.933 768.874 862.799 768.531 862.799 768.175C862.799 767.819 862.933 767.476 863.174 767.214C863.415 766.952 863.745 766.79 864.1 766.76H866.25C867.73 762.62 871.25 759.69 875.41 759.69C877.197 759.704 878.939 760.254 880.41 761.27C880.719 761.481 880.931 761.806 881.001 762.173C881.07 762.541 880.991 762.921 880.78 763.23C880.569 763.539 880.244 763.751 879.877 763.821C879.509 763.89 879.129 763.811 878.82 763.6C877.808 762.894 876.604 762.517 875.37 762.52C874.059 762.58 872.793 763.01 871.716 763.76C870.64 764.511 869.799 765.551 869.29 766.76H875.41Z" fill="#2D7D9A"/>
<path d="M926 452.38C921.526 452.38 917.153 453.707 913.433 456.192C909.713 458.678 906.814 462.21 905.102 466.344C903.39 470.477 902.942 475.025 903.815 479.413C904.687 483.801 906.842 487.831 910.005 490.995C913.169 494.158 917.199 496.312 921.587 497.185C925.975 498.058 930.523 497.61 934.656 495.898C938.789 494.186 942.322 491.287 944.808 487.567C947.293 483.847 948.62 479.474 948.62 475C948.62 469.001 946.237 463.247 941.995 459.005C937.753 454.763 931.999 452.38 926 452.38ZM927.41 470.76C927.606 470.743 927.803 470.768 927.989 470.831C928.175 470.895 928.345 470.997 928.49 471.13C928.635 471.263 928.75 471.424 928.829 471.604C928.908 471.784 928.949 471.978 928.949 472.175C928.949 472.371 928.908 472.566 928.829 472.746C928.75 472.926 928.635 473.087 928.49 473.22C928.345 473.353 928.175 473.455 927.989 473.518C927.803 473.582 927.606 473.606 927.41 473.59H920.46C920.393 474.057 920.356 474.528 920.35 475C920.356 475.472 920.393 475.943 920.46 476.41H926C926.355 476.44 926.685 476.602 926.926 476.864C927.167 477.126 927.301 477.469 927.301 477.825C927.301 478.181 927.167 478.524 926.926 478.786C926.685 479.048 926.355 479.21 926 479.24H921.33C921.839 480.449 922.68 481.489 923.756 482.24C924.833 482.99 926.099 483.42 927.41 483.48C928.644 483.483 929.848 483.106 930.86 482.4C931.169 482.189 931.549 482.11 931.917 482.179C932.284 482.248 932.609 482.461 932.82 482.77C933.031 483.079 933.11 483.459 933.041 483.827C932.971 484.194 932.759 484.519 932.45 484.73C930.979 485.746 929.237 486.296 927.45 486.31C923.31 486.31 919.77 483.38 918.29 479.24H916.1C915.745 479.21 915.415 479.048 915.174 478.786C914.933 478.524 914.799 478.181 914.799 477.825C914.799 477.469 914.933 477.126 915.174 476.864C915.415 476.602 915.745 476.44 916.1 476.41H917.64C917.575 475.942 917.535 475.472 917.52 475C917.535 474.528 917.575 474.057 917.64 473.59H916.1C915.745 473.56 915.415 473.398 915.174 473.136C914.933 472.874 914.799 472.531 914.799 472.175C914.799 471.819 914.933 471.476 915.174 471.214C915.415 470.952 915.745 470.79 916.1 470.76H918.25C919.73 466.62 923.25 463.69 927.41 463.69C929.197 463.704 930.939 464.254 932.41 465.27C932.719 465.481 932.931 465.806 933.001 466.173C933.07 466.541 932.991 466.921 932.78 467.23C932.569 467.539 932.244 467.751 931.877 467.821C931.509 467.89 931.129 467.811 930.82 467.6C929.808 466.894 928.604 466.517 927.37 466.52C926.059 466.58 924.793 467.01 923.716 467.76C922.64 468.511 921.799 469.551 921.29 470.76H927.41Z" fill="#2D7D9A"/>
<path d="M850 175.38C845.526 175.38 841.153 176.707 837.433 179.192C833.713 181.678 830.814 185.21 829.102 189.344C827.39 193.477 826.942 198.025 827.815 202.413C828.687 206.801 830.842 210.831 834.005 213.995C837.169 217.158 841.199 219.312 845.587 220.185C849.975 221.058 854.523 220.61 858.656 218.898C862.789 217.186 866.322 214.287 868.808 210.567C871.293 206.847 872.62 202.474 872.62 198C872.62 192.001 870.237 186.247 865.995 182.005C861.753 177.763 855.999 175.38 850 175.38ZM851.41 193.76C851.606 193.743 851.803 193.768 851.989 193.831C852.175 193.895 852.345 193.997 852.49 194.13C852.635 194.263 852.75 194.424 852.829 194.604C852.908 194.784 852.949 194.978 852.949 195.175C852.949 195.371 852.908 195.566 852.829 195.746C852.75 195.926 852.635 196.087 852.49 196.22C852.345 196.353 852.175 196.455 851.989 196.518C851.803 196.582 851.606 196.606 851.41 196.59H844.46C844.393 197.057 844.356 197.528 844.35 198C844.356 198.472 844.393 198.943 844.46 199.41H850C850.355 199.44 850.685 199.602 850.926 199.864C851.167 200.126 851.301 200.469 851.301 200.825C851.301 201.181 851.167 201.524 850.926 201.786C850.685 202.048 850.355 202.21 850 202.24H845.33C845.839 203.449 846.68 204.489 847.756 205.24C848.833 205.99 850.099 206.42 851.41 206.48C852.644 206.483 853.848 206.106 854.86 205.4C855.169 205.189 855.549 205.11 855.917 205.179C856.284 205.248 856.609 205.461 856.82 205.77C857.031 206.079 857.11 206.459 857.041 206.827C856.971 207.194 856.759 207.519 856.45 207.73C854.979 208.746 853.237 209.296 851.45 209.31C847.31 209.31 843.77 206.38 842.29 202.24H840.1C839.745 202.21 839.415 202.048 839.174 201.786C838.933 201.524 838.799 201.181 838.799 200.825C838.799 200.469 838.933 200.126 839.174 199.864C839.415 199.602 839.745 199.44 840.1 199.41H841.64C841.575 198.942 841.535 198.472 841.52 198C841.535 197.528 841.575 197.057 841.64 196.59H840.1C839.745 196.56 839.415 196.398 839.174 196.136C838.933 195.874 838.799 195.531 838.799 195.175C838.799 194.819 838.933 194.476 839.174 194.214C839.415 193.952 839.745 193.79 840.1 193.76H842.25C843.73 189.62 847.25 186.69 851.41 186.69C853.197 186.704 854.939 187.254 856.41 188.27C856.719 188.481 856.931 188.806 857.001 189.173C857.07 189.541 856.991 189.921 856.78 190.23C856.569 190.539 856.244 190.751 855.877 190.821C855.509 190.89 855.129 190.811 854.82 190.6C853.808 189.894 852.604 189.517 851.37 189.52C850.059 189.58 848.793 190.01 847.716 190.76C846.64 191.511 845.799 192.551 845.29 193.76H851.41Z" fill="#2D7D9A"/>
<path d="M714 1005.38C709.526 1005.38 705.153 1006.71 701.433 1009.19C697.713 1011.68 694.814 1015.21 693.102 1019.34C691.39 1023.48 690.942 1028.02 691.815 1032.41C692.687 1036.8 694.842 1040.83 698.005 1043.99C701.169 1047.16 705.199 1049.31 709.587 1050.19C713.975 1051.06 718.523 1050.61 722.656 1048.9C726.789 1047.19 730.322 1044.29 732.808 1040.57C735.293 1036.85 736.62 1032.47 736.62 1028C736.62 1022 734.237 1016.25 729.995 1012.01C725.753 1007.76 719.999 1005.38 714 1005.38ZM715.41 1023.76C715.606 1023.74 715.803 1023.77 715.989 1023.83C716.175 1023.9 716.345 1024 716.49 1024.13C716.635 1024.26 716.75 1024.42 716.829 1024.6C716.908 1024.78 716.949 1024.98 716.949 1025.17C716.949 1025.37 716.908 1025.57 716.829 1025.75C716.75 1025.93 716.635 1026.09 716.49 1026.22C716.345 1026.35 716.175 1026.45 715.989 1026.52C715.803 1026.58 715.606 1026.61 715.41 1026.59H708.46C708.393 1027.06 708.356 1027.53 708.35 1028C708.356 1028.47 708.393 1028.94 708.46 1029.41H714C714.355 1029.44 714.685 1029.6 714.926 1029.86C715.167 1030.13 715.301 1030.47 715.301 1030.82C715.301 1031.18 715.167 1031.52 714.926 1031.79C714.685 1032.05 714.355 1032.21 714 1032.24H709.33C709.839 1033.45 710.68 1034.49 711.756 1035.24C712.833 1035.99 714.099 1036.42 715.41 1036.48C716.644 1036.48 717.848 1036.11 718.86 1035.4C719.169 1035.19 719.549 1035.11 719.917 1035.18C720.284 1035.25 720.609 1035.46 720.82 1035.77C721.031 1036.08 721.11 1036.46 721.041 1036.83C720.971 1037.19 720.759 1037.52 720.45 1037.73C718.979 1038.75 717.237 1039.3 715.45 1039.31C711.31 1039.31 707.77 1036.38 706.29 1032.24H704.1C703.745 1032.21 703.415 1032.05 703.174 1031.79C702.933 1031.52 702.799 1031.18 702.799 1030.82C702.799 1030.47 702.933 1030.13 703.174 1029.86C703.415 1029.6 703.745 1029.44 704.1 1029.41H705.64C705.575 1028.94 705.535 1028.47 705.52 1028C705.535 1027.53 705.575 1027.06 705.64 1026.59H704.1C703.745 1026.56 703.415 1026.4 703.174 1026.14C702.933 1025.87 702.799 1025.53 702.799 1025.17C702.799 1024.82 702.933 1024.48 703.174 1024.21C703.415 1023.95 703.745 1023.79 704.1 1023.76H706.25C707.73 1019.62 711.25 1016.69 715.41 1016.69C717.197 1016.7 718.939 1017.25 720.41 1018.27C720.719 1018.48 720.931 1018.81 721.001 1019.17C721.07 1019.54 720.991 1019.92 720.78 1020.23C720.569 1020.54 720.244 1020.75 719.877 1020.82C719.509 1020.89 719.129 1020.81 718.82 1020.6C717.808 1019.89 716.604 1019.52 715.37 1019.52C714.059 1019.58 712.793 1020.01 711.716 1020.76C710.64 1021.51 709.799 1022.55 709.29 1023.76H715.41Z" fill="#2D7D9A"/>
<path d="M472 1077.38C467.526 1077.38 463.153 1078.71 459.433 1081.19C455.713 1083.68 452.814 1087.21 451.102 1091.34C449.39 1095.48 448.942 1100.02 449.815 1104.41C450.687 1108.8 452.842 1112.83 456.005 1115.99C459.169 1119.16 463.199 1121.31 467.587 1122.19C471.975 1123.06 476.523 1122.61 480.656 1120.9C484.789 1119.19 488.322 1116.29 490.808 1112.57C493.293 1108.85 494.62 1104.47 494.62 1100C494.62 1094 492.237 1088.25 487.995 1084.01C483.753 1079.76 477.999 1077.38 472 1077.38V1077.38ZM473.41 1095.76C473.606 1095.74 473.803 1095.77 473.989 1095.83C474.175 1095.9 474.345 1096 474.49 1096.13C474.635 1096.26 474.75 1096.42 474.829 1096.6C474.908 1096.78 474.949 1096.98 474.949 1097.17C474.949 1097.37 474.908 1097.57 474.829 1097.75C474.75 1097.93 474.635 1098.09 474.49 1098.22C474.345 1098.35 474.175 1098.45 473.989 1098.52C473.803 1098.58 473.606 1098.61 473.41 1098.59H466.46C466.393 1099.06 466.356 1099.53 466.35 1100C466.356 1100.47 466.393 1100.94 466.46 1101.41H472C472.355 1101.44 472.685 1101.6 472.926 1101.86C473.167 1102.13 473.301 1102.47 473.301 1102.82C473.301 1103.18 473.167 1103.52 472.926 1103.79C472.685 1104.05 472.355 1104.21 472 1104.24H467.33C467.839 1105.45 468.68 1106.49 469.756 1107.24C470.833 1107.99 472.099 1108.42 473.41 1108.48C474.644 1108.48 475.848 1108.11 476.86 1107.4C477.169 1107.19 477.549 1107.11 477.917 1107.18C478.284 1107.25 478.609 1107.46 478.82 1107.77C479.031 1108.08 479.11 1108.46 479.041 1108.83C478.971 1109.19 478.759 1109.52 478.45 1109.73C476.979 1110.75 475.237 1111.3 473.45 1111.31C469.31 1111.31 465.77 1108.38 464.29 1104.24H462.1C461.745 1104.21 461.415 1104.05 461.174 1103.79C460.933 1103.52 460.799 1103.18 460.799 1102.82C460.799 1102.47 460.933 1102.13 461.174 1101.86C461.415 1101.6 461.745 1101.44 462.1 1101.41H463.64C463.575 1100.94 463.535 1100.47 463.52 1100C463.535 1099.53 463.575 1099.06 463.64 1098.59H462.1C461.745 1098.56 461.415 1098.4 461.174 1098.14C460.933 1097.87 460.799 1097.53 460.799 1097.17C460.799 1096.82 460.933 1096.48 461.174 1096.21C461.415 1095.95 461.745 1095.79 462.1 1095.76H464.25C465.73 1091.62 469.25 1088.69 473.41 1088.69C475.197 1088.7 476.939 1089.25 478.41 1090.27C478.719 1090.48 478.931 1090.81 479.001 1091.17C479.07 1091.54 478.991 1091.92 478.78 1092.23C478.569 1092.54 478.244 1092.75 477.877 1092.82C477.509 1092.89 477.129 1092.81 476.82 1092.6C475.808 1091.89 474.604 1091.52 473.37 1091.52C472.059 1091.58 470.793 1092.01 469.716 1092.76C468.64 1093.51 467.799 1094.55 467.29 1095.76H473.41Z" fill="#2D7D9A"/>
<path d="M876 1189.38C871.526 1189.38 867.153 1190.71 863.433 1193.19C859.713 1195.68 856.814 1199.21 855.102 1203.34C853.39 1207.48 852.942 1212.02 853.815 1216.41C854.687 1220.8 856.842 1224.83 860.005 1227.99C863.169 1231.16 867.199 1233.31 871.587 1234.19C875.975 1235.06 880.523 1234.61 884.656 1232.9C888.789 1231.19 892.322 1228.29 894.808 1224.57C897.293 1220.85 898.62 1216.47 898.62 1212C898.62 1206 896.237 1200.25 891.995 1196.01C887.753 1191.76 881.999 1189.38 876 1189.38V1189.38ZM877.41 1207.76C877.606 1207.74 877.803 1207.77 877.989 1207.83C878.175 1207.9 878.345 1208 878.49 1208.13C878.635 1208.26 878.75 1208.42 878.829 1208.6C878.908 1208.78 878.949 1208.98 878.949 1209.17C878.949 1209.37 878.908 1209.57 878.829 1209.75C878.75 1209.93 878.635 1210.09 878.49 1210.22C878.345 1210.35 878.175 1210.45 877.989 1210.52C877.803 1210.58 877.606 1210.61 877.41 1210.59H870.46C870.393 1211.06 870.356 1211.53 870.35 1212C870.356 1212.47 870.393 1212.94 870.46 1213.41H876C876.355 1213.44 876.685 1213.6 876.926 1213.86C877.167 1214.13 877.301 1214.47 877.301 1214.82C877.301 1215.18 877.167 1215.52 876.926 1215.79C876.685 1216.05 876.355 1216.21 876 1216.24H871.33C871.839 1217.45 872.68 1218.49 873.756 1219.24C874.833 1219.99 876.099 1220.42 877.41 1220.48C878.644 1220.48 879.848 1220.11 880.86 1219.4C881.169 1219.19 881.549 1219.11 881.917 1219.18C882.284 1219.25 882.609 1219.46 882.82 1219.77C883.031 1220.08 883.11 1220.46 883.041 1220.83C882.971 1221.19 882.759 1221.52 882.45 1221.73C880.979 1222.75 879.237 1223.3 877.45 1223.31C873.31 1223.31 869.77 1220.38 868.29 1216.24H866.1C865.745 1216.21 865.415 1216.05 865.174 1215.79C864.933 1215.52 864.799 1215.18 864.799 1214.82C864.799 1214.47 864.933 1214.13 865.174 1213.86C865.415 1213.6 865.745 1213.44 866.1 1213.41H867.64C867.575 1212.94 867.535 1212.47 867.52 1212C867.535 1211.53 867.575 1211.06 867.64 1210.59H866.1C865.745 1210.56 865.415 1210.4 865.174 1210.14C864.933 1209.87 864.799 1209.53 864.799 1209.17C864.799 1208.82 864.933 1208.48 865.174 1208.21C865.415 1207.95 865.745 1207.79 866.1 1207.76H868.25C869.73 1203.62 873.25 1200.69 877.41 1200.69C879.197 1200.7 880.939 1201.25 882.41 1202.27C882.719 1202.48 882.931 1202.81 883.001 1203.17C883.07 1203.54 882.991 1203.92 882.78 1204.23C882.569 1204.54 882.244 1204.75 881.877 1204.82C881.509 1204.89 881.129 1204.81 880.82 1204.6C879.808 1203.89 878.604 1203.52 877.37 1203.52C876.059 1203.58 874.793 1204.01 873.716 1204.76C872.64 1205.51 871.799 1206.55 871.29 1207.76H877.41Z" fill="#2D7D9A"/>
</g>
<defs>
<clipPath id="clip0">
<rect width="1024" height="1400" fill="white"/>
</clipPath>
</defs>
</svg>
