<svg width="1024" height="1400" viewBox="0 0 1024 1400" fill="none" xmlns="http://www.w3.org/2000/svg">
<g clip-path="url(#clip0)">
<path d="M1657.46 1115.47L1641.79 987.962C1641.2 983.456 1642.05 978.88 1644.22 974.882C1646.38 970.884 1649.75 967.668 1653.85 965.692L1727.49 733.495C1726.4 730.369 1726.03 727.042 1726.38 723.751C1726.38 723.751 1763.44 425.836 1761.35 421.748L1686.86 315.906L1744.33 148.882L1954.5 -56.8398L2560.34 -400.246C2561.13 -403.771 2562.78 -407.048 2565.14 -409.787L2628.75 -485.233C2631.15 -487.999 2634.19 -490.141 2637.6 -491.474L3221.33 -710.616C3223.1 -711.198 3224.77 -712.05 3226.28 -713.143L3342.59 -794.032C3344.46 -794.99 3373.65 -859.512 3441.78 -810.338C3560.38 -724.663 3745.68 -502.103 3738.49 -490.914L3616.8 -302.256C3615.37 -300.081 3614.35 -297.666 3613.78 -295.127L3592.69 -202.958C3592.08 -200.056 3592.06 -197.063 3592.63 -194.155C3593.2 -191.247 3594.35 -188.483 3596 -186.026C3597.66 -183.569 3599.79 -181.468 3602.27 -179.849C3604.76 -178.229 3607.54 -177.124 3610.46 -176.597L3659.16 -168.4C3663.4 -167.624 3667.77 -168.142 3671.71 -169.888C3675.66 -171.633 3678.98 -174.524 3681.26 -178.184L3812.06 -383.097C3813.27 -384.953 3814.72 -386.635 3816.38 -388.098L3962.57 -511.954C3966.23 -514.992 3970.78 -516.764 3975.53 -517.005C3980.28 -517.246 3984.98 -515.943 3988.92 -513.292C3992.87 -510.64 3995.85 -506.783 3997.41 -502.296C3998.98 -497.809 3999.05 -492.935 3997.61 -488.403L3775.62 192.198C3774.23 196.726 3774.3 201.574 3775.82 206.057L3785.56 235.229C3786.82 239.004 3787.03 243.051 3786.17 246.939C3785.31 250.827 3783.41 254.41 3780.68 257.306C3777.94 260.203 3774.47 262.304 3770.63 263.386C3766.8 264.468 3762.74 264.491 3758.9 263.451L3595.5 218.056C3590.02 216.512 3585.37 212.888 3582.53 207.959C3579.69 203.03 3578.89 197.184 3580.3 191.671L3649.5 -91.7357C3650.35 -94.9373 3650.45 -98.2888 3649.79 -101.532C3649.13 -104.775 3647.74 -107.824 3645.71 -110.443C3643.69 -113.061 3641.09 -115.18 3638.12 -116.635C3635.15 -118.091 3631.88 -118.845 3628.56 -118.838L3602.7 -119.372C3597.83 -119.388 3593.08 -117.815 3589.18 -114.892C3585.28 -111.969 3582.44 -107.855 3581.08 -103.175L3542.91 36.3791L3542.41 37.9238L3476.54 225.131C3475.52 228.073 3473.88 230.759 3471.72 233.009C3469.57 235.258 3466.96 237.017 3464.06 238.165L3122.5 374.842C3119.09 376.094 3116.11 378.287 3113.9 381.166L3063.01 441.094C3060.05 444.592 3058.25 448.925 3057.87 453.489C3057.49 458.053 3058.54 462.621 3060.88 466.555C3063.22 470.49 3066.74 473.595 3070.93 475.438C3075.12 477.281 3079.79 477.769 3084.28 476.835L3333.2 425.709L3336.37 425.166L3499.32 415.807C3502.55 415.612 3505.78 416.131 3508.78 417.325C3511.79 418.519 3514.49 420.36 3516.7 422.717C3518.91 425.073 3520.57 427.888 3521.57 430.96C3522.56 434.033 3522.87 437.288 3522.47 440.494L3514.5 502.768C3514 506.308 3512.67 509.679 3510.61 512.601C3508.55 515.522 3505.82 517.909 3502.64 519.561L3391.28 576.448C3389.04 577.526 3386.65 578.241 3384.19 578.566L3377.18 579.571C3374.68 579.985 3372.26 580.786 3370 581.947L3309.39 614.414C3304.48 616.824 3300.65 620.984 3298.66 626.074C3296.68 631.164 3296.67 636.811 3298.65 641.901C3300.63 646.991 3304.44 651.151 3309.35 653.56C3314.25 655.969 3319.88 656.451 3325.13 654.911L3554.05 597.892C3555.67 597.278 3557.21 596.489 3558.66 595.54L3715.03 513.943C3741.74 516.407 3768.56 517.476 3795.38 517.145C3821.24 506.86 3846.07 494.173 3869.56 479.249C3874.25 479.69 3878.98 478.971 3883.33 477.155C3840.42 506.809 3801.43 534.458 3758.51 564.112L3756.98 564.896L3607.92 694.083C3606.48 695.04 3604.94 695.829 3603.32 696.435L3466.88 766.128C3464.18 767.526 3461.79 769.469 3459.88 771.835C3457.96 774.2 3456.56 776.936 3455.75 779.87C3454.95 782.804 3454.76 785.871 3455.2 788.88C3455.64 791.889 3456.7 794.773 3458.32 797.35L3598.57 1019.72C3599.76 1021.64 3601.28 1023.34 3603.07 1024.73L3710.75 1115.98C3712.99 1117.84 3794.61 1183.75 3788.13 1197.58C3770.88 1234.96 3647.05 1243.02 3647.05 1243.02C3644.34 1246.97 3640.38 1249.89 3635.81 1251.34L3457.07 1309.35C3454.22 1310.16 3451.55 1311.53 3449.22 1313.36L3244.3 1532.72C3188.11 1617.99 3125.84 1699.11 3057.98 1775.45C2985.32 1854.22 2900.14 1908.05 2893.36 1906.14L2722.43 1861.16C2717.68 1859.85 2713.51 1857 2710.56 1853.07C2707.62 1849.13 2706.07 1844.32 2706.15 1839.4L2707.95 1754.51C2708.03 1751.24 2707.38 1748 2706.05 1745.01C2704.72 1742.02 2702.74 1739.37 2700.26 1737.25C2697.77 1735.12 2694.84 1733.58 2691.68 1732.73C2688.52 1731.88 2685.21 1731.74 2681.99 1732.33L2210.08 1823.06C2204.86 1824.13 2199.42 1823.23 2194.82 1820.54C2194.82 1820.54 1624.97 1797 1619.5 1788.83C1619.5 1788.83 1486.36 1673 1494.33 1547.16C1504.67 1364.05 1658.74 1147.03 1657.46 1115.47Z" fill="#293135" stroke="#2D7D9A" stroke-miterlimit="10"/>
<path d="M367.297 1727.7L247.734 2040.91C245.242 2047.3 244.513 2054.24 245.622 2061C246.731 2067.76 249.638 2074.1 254.039 2079.35L400.086 2255.39C404.785 2260.58 408.027 2266.93 409.483 2273.78L450.779 2551.64C452.048 2559.68 450.723 2567.91 446.993 2575.14C443.264 2582.38 437.326 2588.24 430.041 2591.88L216.179 2701.12C208.077 2705.07 201.627 2711.76 197.966 2719.99C194.305 2728.23 193.668 2737.48 196.165 2746.14L230.906 2870.14C233.227 2878.85 232.485 2888.1 228.806 2896.34L165.479 3038C161.649 3046.44 161.009 3055.98 163.679 3064.84C166.349 3073.71 172.147 3081.3 179.998 3086.21L375.836 3140.81C394.222 3175.81 410.608 3211.82 424.917 3248.68C441.166 3289.98 454.918 3332.23 466.1 3375.19L363.246 3594.82C361.248 3604.5 363.077 3614.57 368.348 3622.93C373.619 3631.29 381.924 3637.28 391.523 3639.65L556.354 3682.38C561.254 3683.6 566.348 3683.85 571.344 3683.1L800.055 3652.18C806.865 3651.16 813.822 3651.99 820.195 3654.59C826.567 3657.19 832.118 3661.45 836.265 3666.94C840.411 3672.43 842.998 3678.94 843.754 3685.77C844.511 3692.61 843.408 3699.53 840.562 3705.8L750.52 3910.93L719.148 3991.39C716.24 4000 716.49 4009.35 719.852 4017.79C723.215 4026.22 729.471 4033.18 737.502 4037.42L808.202 4076.48C813.607 4079.46 819.655 4081.08 825.828 4081.22C832.002 4081.36 838.119 4080 843.657 4077.27L920.844 4039.77C924.574 4037.9 928.584 4036.65 932.716 4036.07L1505.53 3959.74C1513.44 3958.66 1521.48 3960.07 1528.54 3963.78C1535.6 3967.48 1541.33 3973.31 1544.91 3980.43L1570.06 4029.65C1573.99 4037.72 1580.63 4044.15 1588.83 4047.82C1597.03 4051.48 1606.27 4052.15 1614.91 4049.69L1748.28 4012.71C1751.26 4011.72 1754.08 4010.29 1756.63 4008.44L2115.22 3806.16C2121.28 3802.84 2128.13 3801.22 2135.03 3801.47C2141.94 3801.72 2148.65 3803.84 2154.44 3807.59L2524.18 4030.44C2532.51 4035.54 2542.48 4037.26 2552.05 4035.25C2561.62 4033.23 2570.06 4027.64 2575.64 4019.62L2658.09 3903.19C2662.62 3896.97 2668.82 3892.17 2675.96 3889.33L2808.71 3839.35C2817.58 3835.89 2827.43 3835.85 2836.32 3839.25C2845.21 3842.65 2852.52 3849.24 2856.8 3857.74L3039.51 4215.42C3042.4 4221.15 3046.67 4226.07 3051.95 4229.71C3057.24 4233.36 3063.35 4235.62 3069.74 4236.28L3270.95 4257.2C3279.24 4258.03 3287.58 4256.25 3294.8 4252.11L3620.57 4057.56C3627.02 4053.76 3632.21 4048.15 3635.5 4041.42C3638.8 4034.7 3640.05 4027.17 3639.1 4019.75L3616.81 3836.34C3616.48 3833.85 3615.94 3831.4 3615.21 3829L3458.21 3348.21C3455.11 3338.91 3455.7 3328.77 3459.87 3319.88L3521.56 3188.07C3524.95 3180.89 3526.02 3172.83 3524.63 3165.02L3498.44 3008.09C3497.65 3003.23 3495.93 2998.57 3493.37 2994.36L3445.2 2915.23C3444.12 2913.39 3442.87 2911.66 3441.48 2910.05L3317.95 2765.89C3315.93 2763.63 3314.21 2761.11 3312.84 2758.41L3223.14 2582.8C3220.35 2577.4 3218.89 2571.4 3218.89 2565.32C3218.88 2559.23 3220.33 2553.23 3223.11 2547.81L3302.42 2391.54C3303.3 2389.85 3304.06 2388.1 3304.69 2386.3L3329.18 2312.58C3330.87 2307.65 3331.54 2302.44 3331.14 2297.25C3330.75 2292.06 3329.3 2287.01 3326.88 2282.4L3298.43 2226.7C3295.9 2221.96 3294.41 2216.73 3294.04 2211.37C3293.67 2206.01 3294.44 2200.63 3296.29 2195.58L3311.79 2153.51C3313.63 2148.49 3314.4 2143.15 3314.05 2137.81C3313.7 2132.48 3312.23 2127.29 3309.74 2122.56L3227.52 1961.6C3225.35 1957.42 3222.41 1953.67 3218.87 1950.56L3057.16 1806.58C3050.67 1800.88 3046.31 1793.15 3044.78 1784.65C3043.25 1776.15 3044.64 1767.38 3048.73 1759.77L3067.62 1723.92C3071.38 1717.13 3072.99 1709.37 3072.23 1701.65C3071.47 1693.93 3068.38 1686.63 3063.38 1680.71C3058.37 1674.79 3051.68 1670.53 3044.19 1668.5C3036.71 1666.46 3028.78 1666.75 3021.45 1669.33L3018.38 1670.9C3012.58 1672.78 3007.31 1676.01 3003.01 1680.34C2998.72 1684.66 2995.51 1689.95 2993.67 1695.76L2950.56 1828.6C2948.92 1833.79 2946.2 1838.57 2942.56 1842.63C2938.93 1846.68 2934.47 1849.92 2929.49 1852.12C2924.51 1854.32 2919.12 1855.43 2913.67 1855.38C2908.23 1855.34 2902.86 1854.13 2897.92 1851.84L2733.17 1776.86C2725.46 1773.4 2719.11 1767.49 2715.12 1760.06C2711.13 1752.62 2709.71 1744.06 2711.09 1735.73C2712.18 1729.68 2711.79 1723.45 2709.96 1717.58C2708.13 1711.71 2704.91 1706.37 2700.57 1702.01C2696.23 1697.65 2690.91 1694.4 2685.04 1692.54C2679.18 1690.67 2672.95 1690.25 2666.89 1691.3L2388.66 1740.64C2382.71 1741.79 2376.56 1741.47 2370.76 1739.69L1989.4 1624.59C1983 1622.63 1976.21 1622.39 1969.68 1623.87C1963.16 1625.36 1957.14 1628.52 1952.22 1633.06L1809.59 1763.04C1803.14 1769.04 1794.81 1772.63 1786.02 1773.21C1777.22 1773.79 1768.5 1771.32 1761.33 1766.22L1519.01 1597.91C1514.37 1594.75 1510.48 1590.61 1507.62 1585.78C1504.76 1580.95 1503 1575.55 1502.47 1569.96C1501.93 1564.37 1502.63 1558.73 1504.52 1553.44C1506.41 1548.15 1509.44 1543.34 1513.4 1539.35L1678.65 1369.04C1682.78 1364.83 1685.89 1359.74 1687.73 1354.14C1689.57 1348.54 1690.1 1342.6 1689.26 1336.77L1677.08 1248.92C1675.66 1239.48 1670.88 1230.86 1663.61 1224.66L1573.77 1148.99C1568.08 1144.17 1561.09 1141.11 1553.67 1140.21C1546.25 1139.3 1538.73 1140.58 1532.03 1143.9L1102.02 1354.54C1096.9 1357.09 1091.27 1358.46 1085.55 1358.56C1079.84 1358.66 1074.17 1357.47 1068.97 1355.09L989.389 1318.86C984.105 1316.4 978.326 1315.18 972.495 1315.29C966.664 1315.41 960.935 1316.85 955.744 1319.51L747.51 1425.88C739.728 1429.9 733.511 1436.4 729.849 1444.35L609.31 1711.03C605.731 1718.95 599.559 1725.43 591.809 1729.39C584.059 1733.35 575.194 1734.55 566.674 1732.81L410.254 1703.18C401.354 1701.53 392.156 1703.09 384.292 1707.58C376.428 1712.07 370.407 1719.2 367.297 1727.7Z" fill="#293135" stroke="#2D7D9A" stroke-opacity="0.38" stroke-miterlimit="10"/>
<path d="M385.67 1727.98C344.455 1713.81 319.523 1067.21 391.392 901.849C394.554 894.692 395.445 886.741 393.948 879.067C376.156 765.093 403.77 337.127 389.026 250.589C377.395 181.792 365.286 114.024 352.701 47.2887C350.945 37.5014 352.814 27.4062 357.961 18.8883C363.107 10.3706 371.179 4.013 380.668 1.00265L617.005 -71.3996C622.785 -73.1922 628.094 -76.2469 632.548 -80.3425C637.002 -84.4379 640.49 -89.4715 642.758 -95.0781L713.444 -269.068C715.312 -273.467 717.882 -277.536 721.053 -281.116L855.479 -429.677C860.801 -435.587 864.27 -442.928 865.455 -450.788C866.639 -458.648 865.487 -466.68 862.142 -473.886C834.523 -532.584 822.833 -559.258 754.973 -691.684C753.073 -695.364 751.714 -699.3 750.939 -703.369C724.166 -889.156 716.445 -1077.21 727.897 -1264.6C728.386 -1271.75 726.973 -1278.89 723.8 -1285.31C720.628 -1291.73 715.811 -1297.2 709.837 -1301.15C703.864 -1305.1 696.948 -1307.4 689.792 -1307.82C682.637 -1308.23 675.497 -1306.74 669.1 -1303.51L657.503 -1297.58C652.46 -1294.98 646.921 -1293.48 641.255 -1293.18C635.589 -1292.87 629.924 -1293.78 624.637 -1295.83L314.145 -1414.06C311.733 -1414.98 309.231 -1415.65 306.68 -1416.05C249.657 -1426.22 -427.829 -1545.13 -631.286 -1620.53C-637.128 -1622.68 -642.396 -1626.15 -646.679 -1630.67C-650.962 -1635.18 -654.146 -1640.62 -655.985 -1646.57L-671.551 -1697.25C-674.054 -1705.49 -679.119 -1712.72 -686.012 -1717.89C-692.904 -1723.05 -701.267 -1725.89 -709.887 -1725.99L-837.389 -1726.8C-844.956 -1726.78 -852.369 -1728.92 -858.767 -1732.95C-865.165 -1736.98 -870.286 -1742.74 -873.536 -1749.57C-932.069 -1872.15 -977.152 -2162.9 -939.294 -2319.91C-937.896 -2325.63 -935.289 -2330.99 -931.65 -2335.63C-928.01 -2340.26 -923.421 -2344.07 -918.191 -2346.79L-815.865 -2399.06C-811.113 -2401.49 -806.884 -2404.82 -803.421 -2408.87C-799.957 -2412.93 -797.326 -2417.62 -795.677 -2422.69L-713.137 -2676.62C-710.946 -2683.46 -710.606 -2690.77 -712.152 -2697.79C-713.697 -2704.81 -717.074 -2711.29 -721.938 -2716.58L-768.748 -2766.12C-773.032 -2770.76 -776.168 -2776.34 -777.909 -2782.42C-779.65 -2788.49 -779.946 -2794.89 -778.773 -2801.1C-777.601 -2807.31 -774.993 -2813.16 -771.157 -2818.19C-767.321 -2823.22 -762.363 -2827.28 -756.679 -2830.06C-631.817 -2890.83 -421.542 -2935.53 -296.664 -2931.02C-286.906 -2930.68 -277.606 -2926.82 -270.484 -2920.15C-263.362 -2913.49 -258.901 -2904.46 -257.925 -2894.76C-255.145 -2868.69 -252.706 -2842.44 -249.756 -2816.46C-249.002 -2809.35 -246.381 -2802.57 -242.158 -2796.8C-237.935 -2791.03 -232.261 -2786.49 -225.709 -2783.62C-219.158 -2780.75 -211.963 -2779.67 -204.852 -2780.47C-197.742 -2781.28 -190.97 -2783.95 -185.222 -2788.21L-141.135 -2821.04C-133.405 -2827.22 -123.696 -2830.38 -113.815 -2829.93C-103.935 -2829.49 -94.5575 -2825.47 -87.4282 -2818.63C-82.6955 -2814.08 -76.9228 -2810.75 -70.6101 -2808.93C-64.2972 -2807.12 -57.6349 -2806.87 -51.2012 -2808.21C-44.7674 -2809.55 -38.7562 -2812.44 -33.6887 -2816.62C-28.6213 -2820.81 -24.6505 -2826.16 -22.1208 -2832.23L143.387 -3223.89C144.244 -3226.07 145.348 -3228.15 146.676 -3230.08L367.956 -3575.71C371.568 -3581.7 373.57 -3588.52 373.768 -3595.51C373.967 -3602.49 372.355 -3609.41 369.088 -3615.59L265.552 -3818.28C263.923 -3821.59 261.79 -3824.63 259.228 -3827.29C178.84 -3910.15 286.749 -4266.8 343.212 -4378.55C347.722 -4387.46 355.374 -4394.38 364.69 -4397.99C374.006 -4401.6 384.327 -4401.64 393.658 -4398.09L510.467 -4353.81C517.058 -4351.24 524.217 -4350.48 531.206 -4351.59C538.195 -4352.71 544.762 -4355.67 550.231 -4360.16C614.461 -4411.65 833.201 -4584.6 922.917 -4618.61C931.271 -4621.69 940.398 -4621.94 948.906 -4619.35C957.415 -4616.76 964.837 -4611.45 970.042 -4604.24C1016.98 -4538.45 1064.07 -4472.65 1111.3 -4406.86C1115.96 -4400.34 1122.47 -4395.36 1129.99 -4392.57C1212.78 -4361.84 1714.87 -4173.75 1825.01 -4075.16C1830.7 -4070.08 1837.69 -4066.68 1845.2 -4065.36C1852.72 -4064.04 1860.46 -4064.84 1867.54 -4067.68C1971.84 -4105.35 2079.56 -4132.75 2189.17 -4149.5C2196.29 -4150.28 2203.08 -4152.94 2208.84 -4157.2C2214.6 -4161.46 2219.12 -4167.17 2221.94 -4173.76L2244.13 -4225.04C2246.59 -4230.82 2250.37 -4235.95 2255.16 -4240.02C2259.95 -4244.08 2265.63 -4246.98 2271.74 -4248.47C2277.84 -4249.97 2284.21 -4250.02 2290.34 -4248.62C2296.47 -4247.22 2302.18 -4244.41 2307.03 -4240.41C2375.03 -4184.74 2467.22 -4082.99 2505.85 -4006.94C2508.26 -4002.22 2511.58 -3998.03 2515.62 -3994.6C2519.66 -3991.17 2524.34 -3988.57 2529.39 -3986.96L2765.31 -3910.31C2774.63 -3907.24 2782.53 -3900.9 2787.55 -3892.46L2887.98 -3724.06L3019.36 -3466.87C3022.08 -3461.75 3023.65 -3456.1 3023.94 -3450.31L3028.4 -3355.29C3028.75 -3347.48 3031.35 -3339.93 3035.9 -3333.57C3040.45 -3327.2 3046.75 -3322.29 3054.03 -3319.42L3176.17 -3271.85C3182.54 -3269.37 3188.17 -3265.32 3192.53 -3260.07C3196.9 -3254.82 3199.86 -3248.54 3201.13 -3241.84C3202.41 -3235.13 3201.97 -3228.21 3199.84 -3221.72C3197.71 -3215.22 3193.97 -3209.38 3188.96 -3204.72C3152.68 -3170.51 3092.84 -3136.94 3052.53 -3135.03C3044.83 -3134.71 3037.38 -3132.2 3031.06 -3127.79C3024.74 -3123.38 3019.81 -3117.26 3016.85 -3110.15L2947.29 -2945.75C2944.89 -2940.05 2941.24 -2934.96 2936.62 -2930.85C2845.89 -2852.93 2617.31 -2847.85 2510.24 -2789.72C2504.94 -2786.76 2500.38 -2782.66 2496.88 -2777.71C2493.38 -2772.77 2491.03 -2767.1 2490 -2761.13L2440.16 -2467.2C2438.92 -2459.8 2439.77 -2452.21 2442.6 -2445.27C2445.43 -2438.32 2450.13 -2432.3 2456.18 -2427.87C2462.23 -2423.44 2469.4 -2420.78 2476.88 -2420.17C2484.36 -2419.56 2491.86 -2421.04 2498.56 -2424.44L2798.71 -2577.77C2804.29 -2580.71 2809.1 -2584.9 2812.78 -2590.02C2816.45 -2595.14 2818.89 -2601.05 2819.88 -2607.27C2820.88 -2613.49 2820.41 -2619.85 2818.52 -2625.85C2816.63 -2631.86 2813.36 -2637.34 2808.98 -2641.86L2748.45 -2704.37C2744.18 -2708.81 2740.98 -2714.17 2739.09 -2720.04C2737.21 -2725.91 2736.69 -2732.14 2737.57 -2738.24C2738.45 -2744.35 2740.72 -2750.17 2744.19 -2755.27C2747.66 -2760.37 2752.26 -2764.62 2757.62 -2767.68L2806.11 -2795.24C2812.35 -2799.36 2819.6 -2801.68 2827.06 -2801.92C2834.53 -2802.17 2841.91 -2800.35 2848.4 -2796.66L3022.37 -2683C3026.81 -2680.12 3031.77 -2678.13 3036.97 -2677.14L3216.2 -2643.27C3223.11 -2641.93 3229.56 -2638.82 3234.9 -2634.25C3240.25 -2629.68 3244.33 -2623.81 3246.73 -2617.2C3281.93 -2520.06 3220.26 -2290.12 3157.53 -2233.59C3152.85 -2229.26 3149.24 -2223.9 3146.99 -2217.94C3144.73 -2211.98 3143.89 -2205.58 3144.54 -2199.24L3180.34 -1817.63C3180.71 -1812.85 3180.26 -1808.04 3179 -1803.42L3163.04 -1743.29C3161.51 -1737.56 3158.73 -1732.23 3154.91 -1727.69C3151.09 -1723.14 3146.32 -1719.49 3140.94 -1716.98C3135.55 -1714.48 3129.68 -1713.18 3123.75 -1713.19C3117.81 -1713.2 3111.95 -1714.51 3106.57 -1717.02L3033.43 -1751.18C3027.65 -1753.86 3022.59 -1757.87 3018.65 -1762.87C3014.71 -1767.87 3012.01 -1773.73 3010.76 -1779.98C2999.16 -1838.48 2974.15 -1965.31 2963.27 -2019.88C2961.75 -2027.6 2958.01 -2034.71 2952.5 -2040.33C2947 -2045.95 2939.96 -2049.84 2932.27 -2051.51L2868.28 -2065.64C2860.34 -2067.4 2852.06 -2066.76 2844.49 -2063.8L2816.5 -2052.51C2811.27 -2050.4 2806.54 -2047.24 2802.6 -2043.21C2798.66 -2039.17 2795.6 -2034.37 2793.63 -2029.1C2791.65 -2023.82 2790.79 -2018.2 2791.1 -2012.57C2791.42 -2006.95 2792.9 -2001.46 2795.46 -1996.45L2806.42 -1974.99C2811.15 -1965.76 2812.17 -1955.07 2809.25 -1945.11C2806.34 -1935.16 2799.72 -1926.69 2790.76 -1921.45L2577.36 -1797.41C2574.76 -1795.93 2572.36 -1794.13 2570.21 -1792.04C2514.92 -1747.36 2457.17 -1705.81 2397.23 -1667.6C2389.79 -1662.86 2384.1 -1655.83 2381.03 -1647.56C2377.96 -1639.3 2377.68 -1630.26 2380.23 -1621.83C2382.78 -1613.4 2388.03 -1606.03 2395.16 -1600.86C2402.3 -1595.69 2410.93 -1593 2419.75 -1593.2L2898.2 -1596.62L3387.69 -1588.94C3395.02 -1588.83 3402.18 -1586.74 3408.42 -1582.89C3414.66 -1579.05 3419.75 -1573.6 3423.14 -1567.1L3529.72 -1358.46C3531.16 -1355.64 3532.93 -1353.01 3535.01 -1350.63L3849.83 -983.546C3853.72 -978.886 3856.51 -973.416 3858.01 -967.536L3859.16 -963.183C3861.2 -955.754 3861.07 -947.895 3858.78 -940.534C3856.49 -933.173 3852.15 -926.618 3846.25 -921.643C3840.36 -916.668 3833.17 -913.48 3825.52 -912.458C3817.88 -911.435 3810.1 -912.619 3803.12 -915.87C3768.31 -931.809 3733.58 -948.005 3698.95 -964.03C3696.22 -965.32 3693.63 -966.872 3691.2 -968.665C3646.48 -1003.17 3601.85 -1037.5 3557.3 -1072.08C3551.29 -1076.72 3544.09 -1079.58 3536.52 -1080.33C3528.96 -1081.08 3521.33 -1079.69 3514.51 -1076.32C3507.69 -1072.95 3501.96 -1067.73 3497.96 -1061.26C3493.96 -1054.8 3491.86 -1047.34 3491.89 -1039.74L3492.14 -1020.32C3492.09 -1014.39 3493.38 -1008.53 3495.9 -1003.17C3498.42 -997.804 3502.1 -993.069 3506.69 -989.312L3716.93 -815.577C3721.65 -811.808 3727.14 -809.114 3733.01 -807.682L3924.25 -759.974C3930.9 -758.256 3937.87 -758.25 3944.52 -759.956C3951.17 -761.663 3957.28 -765.027 3962.28 -769.733L4017.36 -819.347C4021.49 -822.953 4026.22 -825.805 4031.33 -827.773L4388.41 -941.662L4415.93 -916.417C4418.15 -917.549 4428.28 -923.802 4447.31 -932.446C4450.72 -934.188 4445.49 -956.215 4448.9 -957.958C4465.95 -966.669 4497.8 -977.997 4497.8 -977.997L4519.57 -964.421L4570.48 -980.543L4598.54 -962.232C4605.79 -961.86 4613.01 -963.401 4619.48 -966.702L4685.65 -1000.5C4690.79 -1003.12 4696.42 -1004.61 4702.18 -1004.88C4707.93 -1005.15 4713.68 -1004.2 4719.03 -1002.08C4724.39 -999.958 4729.23 -996.722 4733.24 -992.586C4737.24 -988.45 4740.32 -983.508 4742.26 -978.089L4874.02 -609.845C4875.83 -604.764 4876.6 -599.372 4876.3 -593.986C4875.99 -588.6 4874.62 -583.327 4872.25 -578.477C4869.88 -573.627 4866.56 -569.297 4862.5 -565.74C4858.44 -562.184 4853.71 -559.472 4848.59 -557.764L4719.72 -515.348C4712.8 -512.975 4706.65 -508.771 4701.93 -503.182C4697.21 -497.594 4694.1 -490.831 4692.92 -483.617L4680.82 -413.005C4679.26 -403.201 4674.13 -394.314 4666.43 -388.041C4658.72 -381.767 4648.98 -378.548 4639.05 -378.998C4540.46 -383.831 4368.34 -428.205 4278.49 -495.491C4275.28 -498.031 4272.41 -500.966 4269.94 -504.226C4228.08 -562.88 4186.19 -621.591 4144.27 -680.359C4138.32 -688.766 4129.37 -694.577 4119.26 -696.601C4109.15 -698.624 4098.64 -696.707 4089.9 -691.241L3767.5 -492.195C3761.89 -488.773 3755.53 -486.776 3748.97 -486.379L3574.81 -475.378C3565.07 -474.73 3555.43 -477.626 3547.67 -483.532C3539.91 -489.438 3534.56 -497.953 3532.6 -507.505L3496.59 -682.403C3495.09 -688.694 3492.1 -694.533 3487.89 -699.435L3417.8 -789.489C3411.25 -797.809 3401.7 -803.237 3391.2 -804.612C3380.69 -805.987 3370.06 -803.2 3361.57 -796.847L3082.43 -585.533C3078.07 -582.121 3073.09 -579.578 3067.77 -578.041L2662.37 -478.342C2656.78 -476.778 2651.56 -474.112 2647.02 -470.501L2594.19 -428.694C2589.59 -425.168 2585.81 -420.707 2583.07 -415.608C2580.34 -410.508 2578.72 -404.886 2578.33 -399.116L2569.32 -158.269C2569.12 -152.57 2567.72 -146.976 2565.21 -141.853C2562.7 -136.729 2559.14 -132.19 2554.76 -128.533C2550.37 -124.876 2545.27 -122.183 2539.78 -120.629C2534.29 -119.075 2528.53 -118.695 2522.88 -119.514C2373.72 -140.826 2115.69 -93.2094 1993.93 -30.5804C1989.04 -28.0394 1984.72 -24.5276 1981.24 -20.2605C1977.76 -15.9937 1975.19 -11.0615 1973.69 -5.76718C1972.18 -0.472953 1971.78 5.07168 1972.49 10.5259C1973.21 15.9802 1975.04 21.2289 1977.86 25.9501L1982.56 35.1477C1985.63 40.2854 1987.51 46.042 1988.08 52.0003C1988.65 57.9586 1987.88 63.9702 1985.84 69.5987C1983.79 75.2269 1980.52 80.3321 1976.26 84.5444C1972 88.7562 1966.86 91.9693 1961.2 93.9514L1769.44 161.839C1764.4 163.613 1759.76 166.368 1755.79 169.944C1751.82 173.519 1748.6 177.845 1746.32 182.671C1717.37 245.565 1737.22 412.824 1782.85 464.685C1786.93 469.048 1789.98 474.271 1791.78 479.97C1793.57 485.669 1794.07 491.699 1793.22 497.616L1762.88 694.167C1761.73 701.483 1762.65 708.972 1765.53 715.789L1794.23 780.81C1796.92 787.396 1797.83 794.576 1796.87 801.628C1795.9 808.68 1793.1 815.357 1788.73 820.987L1673.32 970.145C1668.84 975.923 1666.01 982.807 1665.13 990.063C1664.26 997.319 1665.37 1004.67 1668.35 1011.34L1746.24 1187.83C1750.41 1197.16 1750.88 1207.72 1747.56 1217.39C1744.23 1227.06 1737.37 1235.11 1728.34 1239.93L1699.86 1254.47C1694.05 1257.6 1687.58 1259.27 1680.98 1259.34C1674.39 1259.42 1667.88 1257.89 1662.01 1254.91L1527.71 1186.06C1521.19 1182.72 1513.87 1181.23 1506.55 1181.75C1499.24 1182.27 1492.2 1184.78 1486.21 1189L1269.45 1342.68C1263.47 1346.79 1256.53 1349.29 1249.3 1349.97C1196.94 1355.23 965.055 1374.46 807.213 1401.83C799.782 1403.09 792.847 1406.4 787.186 1411.38C781.525 1416.36 777.361 1422.81 775.161 1430.01L732.288 1570.47C731.357 1573.71 729.969 1576.81 728.167 1579.66L646.198 1713.88C641.641 1721.43 634.698 1727.24 626.467 1730.4L522.512 1771.91C512.782 1775.81 501.928 1775.81 492.201 1771.93L385.67 1727.98Z" fill="#293135" stroke="#2D7D9A" stroke-opacity="0.38" stroke-miterlimit="10"/>
<path d="M904 513.3C903.8 513.5 903.6 513.7 903.4 513.9C897.2 515.9 890.8 517.9 884.6 519.7C883.2 520.1 881.8 520.5 880.4 521.1C880.2 521.1 879.8 521.1 879.6 521.1C875.2 519.5 871 518.1 866.6 516.7C866.2 516.7 866.2 516.7 866 516.9C865.2 517.7 864.8 518.7 864.6 519.7C864.2 520.7 864.2 521.5 864 522.5C864 522.7 864 522.9 864.2 522.9C865.6 523.9 865.6 526.1 864.2 527.1C864 527.3 864 527.3 864 527.5C864.4 529.7 864.6 531.9 864.8 534.1C864.8 534.9 865 535.5 865 536.3C865 536.7 864.8 537.1 864.4 537.1C863 537.1 861.8 537.1 860.4 537.1C860 537.1 859.8 536.7 859.8 536.3C860 534.5 860.2 532.7 860.6 530.9C860.8 529.7 860.8 528.7 861 527.5C861 527.3 861 527.3 860.8 527.1C859.4 526.1 859.4 523.7 861 522.9C861.2 522.7 861.2 522.7 861.2 522.5C861.2 521.1 861.6 519.7 862 518.5C862.4 517.5 862.8 516.7 863.2 516.1C863.4 515.9 863.4 515.9 863.2 515.7C861 515.1 858.8 514.3 856.6 513.7C856.4 513.7 856.2 513.5 856 513.1C856 512.7 856.2 512.5 856.6 512.3C858.2 511.7 860 511.3 861.8 510.7C867.6 508.9 873.6 507.1 879.4 505.1C879.6 505.1 879.6 504.9 879.8 504.9C880 504.9 880.2 504.9 880.2 504.9C880.8 504.9 881.4 505.3 882 505.3C885.6 506.5 889.4 507.7 893 508.7C895.4 509.5 897.8 510.3 900.2 510.9C901.2 511.3 902.2 511.5 903.2 511.9C903.4 511.9 903.6 512.1 903.8 512.5C904 512.9 904 513.1 904 513.3Z" fill="#2D7D9A"/>
<path d="M880.6 504.9C880.6 505.1 880.6 505.1 880.6 504.9C880.4 504.9 880.2 504.9 880 504.9C880.2 504.9 880.4 504.9 880.6 504.9Z" fill="#2D7D9A"/>
<path d="M893.2 519.7C893.2 520.3 893.2 520.9 893.4 521.5C893.4 522.9 893.6 524.3 893.6 525.7C893.8 526.9 893.2 527.9 892.2 528.7C891 529.5 889.8 530.1 888.4 530.5C885.4 531.5 882.2 531.7 879 531.5C876.8 531.5 874.6 531.1 872.4 530.5C870.8 530.1 869.4 529.5 868.2 528.5C867.6 527.9 867.2 527.5 867 526.5C867 526.1 867 525.9 867 525.5C867.2 523.5 867.2 521.7 867.4 519.7C867.4 519.5 867.4 519.5 867.6 519.5C871.6 520.7 875.4 521.9 879.4 523.1C880.2 523.3 880.8 523.3 881.6 523.1C885.4 521.9 889.2 520.7 893.2 519.5C893 519.9 893.2 519.7 893.2 519.7Z" fill="#2D7D9A"/>
<path d="M808 866.3C807.8 866.5 807.6 866.7 807.4 866.9C801.2 868.9 794.8 870.9 788.6 872.7C787.2 873.1 785.8 873.5 784.4 874.1C784.2 874.1 783.8 874.1 783.6 874.1C779.2 872.5 775 871.1 770.6 869.7C770.2 869.7 770.2 869.7 770 869.9C769.2 870.7 768.8 871.7 768.6 872.7C768.2 873.7 768.2 874.5 768 875.5C768 875.7 768 875.9 768.2 875.9C769.6 876.9 769.6 879.1 768.2 880.1C768 880.3 768 880.3 768 880.5C768.4 882.7 768.6 884.9 768.8 887.1C768.8 887.9 769 888.5 769 889.3C769 889.7 768.8 890.1 768.4 890.1C767 890.1 765.8 890.1 764.4 890.1C764 890.1 763.8 889.7 763.8 889.3C764 887.5 764.2 885.7 764.6 883.9C764.8 882.7 764.8 881.7 765 880.5C765 880.3 765 880.3 764.8 880.1C763.4 879.1 763.4 876.7 765 875.9C765.2 875.7 765.2 875.7 765.2 875.5C765.2 874.1 765.6 872.7 766 871.5C766.4 870.5 766.8 869.7 767.2 869.1C767.4 868.9 767.4 868.9 767.2 868.7C765 868.1 762.8 867.3 760.6 866.7C760.4 866.7 760.2 866.5 760 866.1C760 865.7 760.2 865.5 760.6 865.3C762.2 864.7 764 864.3 765.8 863.7C771.6 861.9 777.6 860.1 783.4 858.1C783.6 858.1 783.6 857.9 783.8 857.9C784 857.9 784.2 857.9 784.2 857.9C784.8 857.9 785.4 858.3 786 858.3C789.6 859.5 793.4 860.7 797 861.7C799.4 862.5 801.8 863.3 804.2 863.9C805.2 864.3 806.2 864.5 807.2 864.9C807.4 864.9 807.6 865.1 807.8 865.5C808 865.9 808 866.1 808 866.3Z" fill="#2D7D9A"/>
<path d="M784.6 857.9C784.6 858.1 784.6 858.1 784.6 857.9C784.4 857.9 784.2 857.9 784 857.9C784.2 857.9 784.4 857.9 784.6 857.9Z" fill="#2D7D9A"/>
<path d="M797.2 872.7C797.2 873.3 797.2 873.9 797.4 874.5C797.4 875.9 797.6 877.3 797.6 878.7C797.8 879.9 797.2 880.9 796.2 881.7C795 882.5 793.8 883.1 792.4 883.5C789.4 884.5 786.2 884.7 783 884.5C780.8 884.5 778.6 884.1 776.4 883.5C774.8 883.1 773.4 882.5 772.2 881.5C771.6 880.9 771.2 880.5 771 879.5C771 879.1 771 878.9 771 878.5C771.2 876.5 771.2 874.7 771.4 872.7C771.4 872.5 771.4 872.5 771.6 872.5C775.6 873.7 779.4 874.9 783.4 876.1C784.2 876.3 784.8 876.3 785.6 876.1C789.4 874.9 793.2 873.7 797.2 872.5C797 872.9 797.2 872.7 797.2 872.7Z" fill="#2D7D9A"/>
<path d="M588 627.3C587.8 627.5 587.6 627.7 587.4 627.9C581.2 629.9 574.8 631.9 568.6 633.7C567.2 634.1 565.8 634.5 564.4 635.1C564.2 635.1 563.8 635.1 563.6 635.1C559.2 633.5 555 632.1 550.6 630.7C550.2 630.7 550.2 630.7 550 630.9C549.2 631.7 548.8 632.7 548.6 633.7C548.2 634.7 548.2 635.5 548 636.5C548 636.7 548 636.9 548.2 636.9C549.6 637.9 549.6 640.1 548.2 641.1C548 641.3 548 641.3 548 641.5C548.4 643.7 548.6 645.9 548.8 648.1C548.8 648.9 549 649.5 549 650.3C549 650.7 548.8 651.1 548.4 651.1C547 651.1 545.8 651.1 544.4 651.1C544 651.1 543.8 650.7 543.8 650.3C544 648.5 544.2 646.7 544.6 644.9C544.8 643.7 544.8 642.7 545 641.5C545 641.3 545 641.3 544.8 641.1C543.4 640.1 543.4 637.7 545 636.9C545.2 636.7 545.2 636.7 545.2 636.5C545.2 635.1 545.6 633.7 546 632.5C546.4 631.5 546.8 630.7 547.2 630.1C547.4 629.9 547.4 629.9 547.2 629.7C545 629.1 542.8 628.3 540.6 627.7C540.4 627.7 540.2 627.5 540 627.1C540 626.7 540.2 626.5 540.6 626.3C542.2 625.7 544 625.3 545.8 624.7C551.6 622.9 557.6 621.1 563.4 619.1C563.6 619.1 563.6 618.9 563.8 618.9C564 618.9 564.2 618.9 564.2 618.9C564.8 618.9 565.4 619.3 566 619.3C569.6 620.5 573.4 621.7 577 622.7C579.4 623.5 581.8 624.3 584.2 624.9C585.2 625.3 586.2 625.5 587.2 625.9C587.4 625.9 587.6 626.1 587.8 626.5C588 626.9 588 627.1 588 627.3Z" fill="#2D7D9A"/>
<path d="M564.6 618.9C564.6 619.1 564.6 619.1 564.6 618.9C564.4 618.9 564.2 618.9 564 618.9C564.2 618.9 564.4 618.9 564.6 618.9Z" fill="#2D7D9A"/>
<path d="M577.2 633.7C577.2 634.3 577.2 634.9 577.4 635.5C577.4 636.9 577.6 638.3 577.6 639.7C577.8 640.9 577.2 641.9 576.2 642.7C575 643.5 573.8 644.1 572.4 644.5C569.4 645.5 566.2 645.7 563 645.5C560.8 645.5 558.6 645.1 556.4 644.5C554.8 644.1 553.4 643.5 552.2 642.5C551.6 641.9 551.2 641.5 551 640.5C551 640.1 551 639.9 551 639.5C551.2 637.5 551.2 635.7 551.4 633.7C551.4 633.5 551.4 633.5 551.6 633.5C555.6 634.7 559.4 635.9 563.4 637.1C564.2 637.3 564.8 637.3 565.6 637.1C569.4 635.9 573.2 634.7 577.2 633.5C577 633.9 577.2 633.7 577.2 633.7Z" fill="#2D7D9A"/>
<path d="M465 1112.3C464.8 1112.5 464.6 1112.7 464.4 1112.9C458.2 1114.9 451.8 1116.9 445.6 1118.7C444.2 1119.1 442.8 1119.5 441.4 1120.1C441.2 1120.1 440.8 1120.1 440.6 1120.1C436.2 1118.5 432 1117.1 427.6 1115.7C427.2 1115.7 427.2 1115.7 427 1115.9C426.2 1116.7 425.8 1117.7 425.6 1118.7C425.2 1119.7 425.2 1120.5 425 1121.5C425 1121.7 425 1121.9 425.2 1121.9C426.6 1122.9 426.6 1125.1 425.2 1126.1C425 1126.3 425 1126.3 425 1126.5C425.4 1128.7 425.6 1130.9 425.8 1133.1C425.8 1133.9 426 1134.5 426 1135.3C426 1135.7 425.8 1136.1 425.4 1136.1C424 1136.1 422.8 1136.1 421.4 1136.1C421 1136.1 420.8 1135.7 420.8 1135.3C421 1133.5 421.2 1131.7 421.6 1129.9C421.8 1128.7 421.8 1127.7 422 1126.5C422 1126.3 422 1126.3 421.8 1126.1C420.4 1125.1 420.4 1122.7 422 1121.9C422.2 1121.7 422.2 1121.7 422.2 1121.5C422.2 1120.1 422.6 1118.7 423 1117.5C423.4 1116.5 423.8 1115.7 424.2 1115.1C424.4 1114.9 424.4 1114.9 424.2 1114.7C422 1114.1 419.8 1113.3 417.6 1112.7C417.4 1112.7 417.2 1112.5 417 1112.1C417 1111.7 417.2 1111.5 417.6 1111.3C419.2 1110.7 421 1110.3 422.8 1109.7C428.6 1107.9 434.6 1106.1 440.4 1104.1C440.6 1104.1 440.6 1103.9 440.8 1103.9C441 1103.9 441.2 1103.9 441.2 1103.9C441.8 1103.9 442.4 1104.3 443 1104.3C446.6 1105.5 450.4 1106.7 454 1107.7C456.4 1108.5 458.8 1109.3 461.2 1109.9C462.2 1110.3 463.2 1110.5 464.2 1110.9C464.4 1110.9 464.6 1111.1 464.8 1111.5C465 1111.9 465 1112.1 465 1112.3Z" fill="#2D7D9A"/>
<path d="M441.6 1103.9C441.6 1104.1 441.6 1104.1 441.6 1103.9C441.4 1103.9 441.2 1103.9 441 1103.9C441.2 1103.9 441.4 1103.9 441.6 1103.9Z" fill="#2D7D9A"/>
<path d="M454.2 1118.7C454.2 1119.3 454.2 1119.9 454.4 1120.5C454.4 1121.9 454.6 1123.3 454.6 1124.7C454.8 1125.9 454.2 1126.9 453.2 1127.7C452 1128.5 450.8 1129.1 449.4 1129.5C446.4 1130.5 443.2 1130.7 440 1130.5C437.8 1130.5 435.6 1130.1 433.4 1129.5C431.8 1129.1 430.4 1128.5 429.2 1127.5C428.6 1126.9 428.2 1126.5 428 1125.5C428 1125.1 428 1124.9 428 1124.5C428.2 1122.5 428.2 1120.7 428.4 1118.7C428.4 1118.5 428.4 1118.5 428.6 1118.5C432.6 1119.7 436.4 1120.9 440.4 1122.1C441.2 1122.3 441.8 1122.3 442.6 1122.1C446.4 1120.9 450.2 1119.7 454.2 1118.5C454 1118.9 454.2 1118.7 454.2 1118.7Z" fill="#2D7D9A"/>
<path d="M696 375.3C695.8 375.5 695.6 375.7 695.4 375.9C689.2 377.9 682.8 379.9 676.6 381.7C675.2 382.1 673.8 382.5 672.4 383.1C672.2 383.1 671.8 383.1 671.6 383.1C667.2 381.5 663 380.1 658.6 378.7C658.2 378.7 658.2 378.7 658 378.9C657.2 379.7 656.8 380.7 656.6 381.7C656.2 382.7 656.2 383.5 656 384.5C656 384.7 656 384.9 656.2 384.9C657.6 385.9 657.6 388.1 656.2 389.1C656 389.3 656 389.3 656 389.5C656.4 391.7 656.6 393.9 656.8 396.1C656.8 396.9 657 397.5 657 398.3C657 398.7 656.8 399.1 656.4 399.1C655 399.1 653.8 399.1 652.4 399.1C652 399.1 651.8 398.7 651.8 398.3C652 396.5 652.2 394.7 652.6 392.9C652.8 391.7 652.8 390.7 653 389.5C653 389.3 653 389.3 652.8 389.1C651.4 388.1 651.4 385.7 653 384.9C653.2 384.7 653.2 384.7 653.2 384.5C653.2 383.1 653.6 381.7 654 380.5C654.4 379.5 654.8 378.7 655.2 378.1C655.4 377.9 655.4 377.9 655.2 377.7C653 377.1 650.8 376.3 648.6 375.7C648.4 375.7 648.2 375.5 648 375.1C648 374.7 648.2 374.5 648.6 374.3C650.2 373.7 652 373.3 653.8 372.7C659.6 370.9 665.6 369.1 671.4 367.1C671.6 367.1 671.6 366.9 671.8 366.9C672 366.9 672.2 366.9 672.2 366.9C672.8 366.9 673.4 367.3 674 367.3C677.6 368.5 681.4 369.7 685 370.7C687.4 371.5 689.8 372.3 692.2 372.9C693.2 373.3 694.2 373.5 695.2 373.9C695.4 373.9 695.6 374.1 695.8 374.5C696 374.9 696 375.1 696 375.3Z" fill="#2D7D9A"/>
<path d="M672.6 366.9C672.6 367.1 672.6 367.1 672.6 366.9C672.4 366.9 672.2 366.9 672 366.9C672.2 366.9 672.4 366.9 672.6 366.9Z" fill="#2D7D9A"/>
<path d="M685.2 381.7C685.2 382.3 685.2 382.9 685.4 383.5C685.4 384.9 685.6 386.3 685.6 387.7C685.8 388.9 685.2 389.9 684.2 390.7C683 391.5 681.8 392.1 680.4 392.5C677.4 393.5 674.2 393.7 671 393.5C668.8 393.5 666.6 393.1 664.4 392.5C662.8 392.1 661.4 391.5 660.2 390.5C659.6 389.9 659.2 389.5 659 388.5C659 388.1 659 387.9 659 387.5C659.2 385.5 659.2 383.7 659.4 381.7C659.4 381.5 659.4 381.5 659.6 381.5C663.6 382.7 667.4 383.9 671.4 385.1C672.2 385.3 672.8 385.3 673.6 385.1C677.4 383.9 681.2 382.7 685.2 381.5C685 381.9 685.2 381.7 685.2 381.7Z" fill="#2D7D9A"/>
<path d="M672 1246.3C671.8 1246.5 671.6 1246.7 671.4 1246.9C665.2 1248.9 658.8 1250.9 652.6 1252.7C651.2 1253.1 649.8 1253.5 648.4 1254.1C648.2 1254.1 647.8 1254.1 647.6 1254.1C643.2 1252.5 639 1251.1 634.6 1249.7C634.2 1249.7 634.2 1249.7 634 1249.9C633.2 1250.7 632.8 1251.7 632.6 1252.7C632.2 1253.7 632.2 1254.5 632 1255.5C632 1255.7 632 1255.9 632.2 1255.9C633.6 1256.9 633.6 1259.1 632.2 1260.1C632 1260.3 632 1260.3 632 1260.5C632.4 1262.7 632.6 1264.9 632.8 1267.1C632.8 1267.9 633 1268.5 633 1269.3C633 1269.7 632.8 1270.1 632.4 1270.1C631 1270.1 629.8 1270.1 628.4 1270.1C628 1270.1 627.8 1269.7 627.8 1269.3C628 1267.5 628.2 1265.7 628.6 1263.9C628.8 1262.7 628.8 1261.7 629 1260.5C629 1260.3 629 1260.3 628.8 1260.1C627.4 1259.1 627.4 1256.7 629 1255.9C629.2 1255.7 629.2 1255.7 629.2 1255.5C629.2 1254.1 629.6 1252.7 630 1251.5C630.4 1250.5 630.8 1249.7 631.2 1249.1C631.4 1248.9 631.4 1248.9 631.2 1248.7C629 1248.1 626.8 1247.3 624.6 1246.7C624.4 1246.7 624.2 1246.5 624 1246.1C624 1245.7 624.2 1245.5 624.6 1245.3C626.2 1244.7 628 1244.3 629.8 1243.7C635.6 1241.9 641.6 1240.1 647.4 1238.1C647.6 1238.1 647.6 1237.9 647.8 1237.9C648 1237.9 648.2 1237.9 648.2 1237.9C648.8 1237.9 649.4 1238.3 650 1238.3C653.6 1239.5 657.4 1240.7 661 1241.7C663.4 1242.5 665.8 1243.3 668.2 1243.9C669.2 1244.3 670.2 1244.5 671.2 1244.9C671.4 1244.9 671.6 1245.1 671.8 1245.5C672 1245.9 672 1246.1 672 1246.3Z" fill="#2D7D9A"/>
<path d="M648.6 1237.9C648.6 1238.1 648.6 1238.1 648.6 1237.9C648.4 1237.9 648.2 1237.9 648 1237.9C648.2 1237.9 648.4 1237.9 648.6 1237.9Z" fill="#2D7D9A"/>
<path d="M661.2 1252.7C661.2 1253.3 661.2 1253.9 661.4 1254.5C661.4 1255.9 661.6 1257.3 661.6 1258.7C661.8 1259.9 661.2 1260.9 660.2 1261.7C659 1262.5 657.8 1263.1 656.4 1263.5C653.4 1264.5 650.2 1264.7 647 1264.5C644.8 1264.5 642.6 1264.1 640.4 1263.5C638.8 1263.1 637.4 1262.5 636.2 1261.5C635.6 1260.9 635.2 1260.5 635 1259.5C635 1259.1 635 1258.9 635 1258.5C635.2 1256.5 635.2 1254.7 635.4 1252.7C635.4 1252.5 635.4 1252.5 635.6 1252.5C639.6 1253.7 643.4 1254.9 647.4 1256.1C648.2 1256.3 648.8 1256.3 649.6 1256.1C653.4 1254.9 657.2 1253.7 661.2 1252.5C661 1252.9 661.2 1252.7 661.2 1252.7Z" fill="#2D7D9A"/>
<g clip-path="url(#clip1)">
<path d="M981.41 1174.25C981.21 1174.45 981.01 1174.65 980.81 1174.85C974.61 1176.85 968.21 1178.85 962.01 1180.65C960.61 1181.05 959.21 1181.45 957.81 1182.05C957.61 1182.05 957.21 1182.05 957.01 1182.05C952.61 1180.45 948.41 1179.05 944.01 1177.65C943.61 1177.65 943.61 1177.65 943.41 1177.85C942.61 1178.65 942.21 1179.65 942.01 1180.65C941.61 1181.65 941.61 1182.45 941.41 1183.45C941.41 1183.65 941.41 1183.85 941.61 1183.85C943.01 1184.85 943.01 1187.05 941.61 1188.05C941.41 1188.25 941.41 1188.25 941.41 1188.45C941.81 1190.65 942.01 1192.85 942.21 1195.05C942.21 1195.85 942.41 1196.45 942.41 1197.25C942.41 1197.65 942.21 1198.05 941.81 1198.05C940.41 1198.05 939.21 1198.05 937.81 1198.05C937.41 1198.05 937.21 1197.65 937.21 1197.25C937.41 1195.45 937.61 1193.65 938.01 1191.85C938.21 1190.65 938.21 1189.65 938.41 1188.45C938.41 1188.25 938.41 1188.25 938.21 1188.05C936.81 1187.05 936.81 1184.65 938.41 1183.85C938.61 1183.65 938.61 1183.65 938.61 1183.45C938.61 1182.05 939.01 1180.65 939.41 1179.45C939.81 1178.45 940.21 1177.65 940.61 1177.05C940.81 1176.85 940.81 1176.85 940.61 1176.65C938.41 1176.05 936.21 1175.25 934.01 1174.65C933.81 1174.65 933.61 1174.45 933.41 1174.05C933.41 1173.65 933.61 1173.45 934.01 1173.25C935.61 1172.65 937.41 1172.25 939.21 1171.65C945.01 1169.85 951.01 1168.05 956.81 1166.05C957.01 1166.05 957.01 1165.85 957.21 1165.85C957.41 1165.85 957.61 1165.85 957.61 1165.85C958.21 1165.85 958.81 1166.25 959.41 1166.25C963.01 1167.45 966.81 1168.65 970.41 1169.65C972.81 1170.45 975.21 1171.25 977.61 1171.85C978.61 1172.25 979.61 1172.45 980.61 1172.85C980.81 1172.85 981.01 1173.05 981.21 1173.45C981.41 1173.85 981.41 1174.05 981.41 1174.25Z" fill="#2D7D9A"/>
<path d="M958.01 1165.85C958.01 1166.05 958.01 1166.05 958.01 1165.85C957.81 1165.85 957.61 1165.85 957.41 1165.85C957.61 1165.85 957.81 1165.85 958.01 1165.85Z" fill="#2D7D9A"/>
<path d="M970.61 1180.65C970.61 1181.25 970.61 1181.85 970.81 1182.45C970.81 1183.85 971.01 1185.25 971.01 1186.65C971.21 1187.85 970.61 1188.85 969.61 1189.65C968.41 1190.45 967.21 1191.05 965.81 1191.45C962.81 1192.45 959.61 1192.65 956.41 1192.45C954.21 1192.45 952.01 1192.05 949.81 1191.45C948.21 1191.05 946.81 1190.45 945.61 1189.45C945.01 1188.85 944.61 1188.45 944.41 1187.45C944.41 1187.05 944.41 1186.85 944.41 1186.45C944.61 1184.45 944.61 1182.65 944.81 1180.65C944.81 1180.45 944.81 1180.45 945.01 1180.45C949.01 1181.65 952.81 1182.85 956.81 1184.05C957.61 1184.25 958.21 1184.25 959.01 1184.05C962.81 1182.85 966.61 1181.65 970.61 1180.45C970.41 1180.85 970.61 1180.65 970.61 1180.65Z" fill="#2D7D9A"/>
</g>
<path d="M968 286.3C967.8 286.5 967.6 286.7 967.4 286.9C961.2 288.9 954.8 290.9 948.6 292.7C947.2 293.1 945.8 293.5 944.4 294.1C944.2 294.1 943.8 294.1 943.6 294.1C939.2 292.5 935 291.1 930.6 289.7C930.2 289.7 930.2 289.7 930 289.9C929.2 290.7 928.8 291.7 928.6 292.7C928.2 293.7 928.2 294.5 928 295.5C928 295.7 928 295.9 928.2 295.9C929.6 296.9 929.6 299.1 928.2 300.1C928 300.3 928 300.3 928 300.5C928.4 302.7 928.6 304.9 928.8 307.1C928.8 307.9 929 308.5 929 309.3C929 309.7 928.8 310.1 928.4 310.1C927 310.1 925.8 310.1 924.4 310.1C924 310.1 923.8 309.7 923.8 309.3C924 307.5 924.2 305.7 924.6 303.9C924.8 302.7 924.8 301.7 925 300.5C925 300.3 925 300.3 924.8 300.1C923.4 299.1 923.4 296.7 925 295.9C925.2 295.7 925.2 295.7 925.2 295.5C925.2 294.1 925.6 292.7 926 291.5C926.4 290.5 926.8 289.7 927.2 289.1C927.4 288.9 927.4 288.9 927.2 288.7C925 288.1 922.8 287.3 920.6 286.7C920.4 286.7 920.2 286.5 920 286.1C920 285.7 920.2 285.5 920.6 285.3C922.2 284.7 924 284.3 925.8 283.7C931.6 281.9 937.6 280.1 943.4 278.1C943.6 278.1 943.6 277.9 943.8 277.9C944 277.9 944.2 277.9 944.2 277.9C944.8 277.9 945.4 278.3 946 278.3C949.6 279.5 953.4 280.7 957 281.7C959.4 282.5 961.8 283.3 964.2 283.9C965.2 284.3 966.2 284.5 967.2 284.9C967.4 284.9 967.6 285.1 967.8 285.5C968 285.9 968 286.1 968 286.3Z" fill="#2D7D9A"/>
<path d="M944.6 277.9C944.6 278.1 944.6 278.1 944.6 277.9C944.4 277.9 944.2 277.9 944 277.9C944.2 277.9 944.4 277.9 944.6 277.9Z" fill="#2D7D9A"/>
<path d="M957.2 292.7C957.2 293.3 957.2 293.9 957.4 294.5C957.4 295.9 957.6 297.3 957.6 298.7C957.8 299.9 957.2 300.9 956.2 301.7C955 302.5 953.8 303.1 952.4 303.5C949.4 304.5 946.2 304.7 943 304.5C940.8 304.5 938.6 304.1 936.4 303.5C934.8 303.1 933.4 302.5 932.2 301.5C931.6 300.9 931.2 300.5 931 299.5C931 299.1 931 298.9 931 298.5C931.2 296.5 931.2 294.7 931.4 292.7C931.4 292.5 931.4 292.5 931.6 292.5C935.6 293.7 939.4 294.9 943.4 296.1C944.2 296.3 944.8 296.3 945.6 296.1C949.4 294.9 953.2 293.7 957.2 292.5C957 292.9 957.2 292.7 957.2 292.7Z" fill="#2D7D9A"/>
<path d="M697 1018.3C696.8 1018.5 696.6 1018.7 696.4 1018.9C690.2 1020.9 683.8 1022.9 677.6 1024.7C676.2 1025.1 674.8 1025.5 673.4 1026.1C673.2 1026.1 672.8 1026.1 672.6 1026.1C668.2 1024.5 664 1023.1 659.6 1021.7C659.2 1021.7 659.2 1021.7 659 1021.9C658.2 1022.7 657.8 1023.7 657.6 1024.7C657.2 1025.7 657.2 1026.5 657 1027.5C657 1027.7 657 1027.9 657.2 1027.9C658.6 1028.9 658.6 1031.1 657.2 1032.1C657 1032.3 657 1032.3 657 1032.5C657.4 1034.7 657.6 1036.9 657.8 1039.1C657.8 1039.9 658 1040.5 658 1041.3C658 1041.7 657.8 1042.1 657.4 1042.1C656 1042.1 654.8 1042.1 653.4 1042.1C653 1042.1 652.8 1041.7 652.8 1041.3C653 1039.5 653.2 1037.7 653.6 1035.9C653.8 1034.7 653.8 1033.7 654 1032.5C654 1032.3 654 1032.3 653.8 1032.1C652.4 1031.1 652.4 1028.7 654 1027.9C654.2 1027.7 654.2 1027.7 654.2 1027.5C654.2 1026.1 654.6 1024.7 655 1023.5C655.4 1022.5 655.8 1021.7 656.2 1021.1C656.4 1020.9 656.4 1020.9 656.2 1020.7C654 1020.1 651.8 1019.3 649.6 1018.7C649.4 1018.7 649.2 1018.5 649 1018.1C649 1017.7 649.2 1017.5 649.6 1017.3C651.2 1016.7 653 1016.3 654.8 1015.7C660.6 1013.9 666.6 1012.1 672.4 1010.1C672.6 1010.1 672.6 1009.9 672.8 1009.9C673 1009.9 673.2 1009.9 673.2 1009.9C673.8 1009.9 674.4 1010.3 675 1010.3C678.6 1011.5 682.4 1012.7 686 1013.7C688.4 1014.5 690.8 1015.3 693.2 1015.9C694.2 1016.3 695.2 1016.5 696.2 1016.9C696.4 1016.9 696.6 1017.1 696.8 1017.5C697 1017.9 697 1018.1 697 1018.3Z" fill="#2D7D9A"/>
<path d="M673.6 1009.9C673.6 1010.1 673.6 1010.1 673.6 1009.9C673.4 1009.9 673.2 1009.9 673 1009.9C673.2 1009.9 673.4 1009.9 673.6 1009.9Z" fill="#2D7D9A"/>
<path d="M686.2 1024.7C686.2 1025.3 686.2 1025.9 686.4 1026.5C686.4 1027.9 686.6 1029.3 686.6 1030.7C686.8 1031.9 686.2 1032.9 685.2 1033.7C684 1034.5 682.8 1035.1 681.4 1035.5C678.4 1036.5 675.2 1036.7 672 1036.5C669.8 1036.5 667.6 1036.1 665.4 1035.5C663.8 1035.1 662.4 1034.5 661.2 1033.5C660.6 1032.9 660.2 1032.5 660 1031.5C660 1031.1 660 1030.9 660 1030.5C660.2 1028.5 660.2 1026.7 660.4 1024.7C660.4 1024.5 660.4 1024.5 660.6 1024.5C664.6 1025.7 668.4 1026.9 672.4 1028.1C673.2 1028.3 673.8 1028.3 674.6 1028.1C678.4 1026.9 682.2 1025.7 686.2 1024.5C686 1024.9 686.2 1024.7 686.2 1024.7Z" fill="#2D7D9A"/>
<path d="M795 736.3C794.8 736.5 794.6 736.7 794.4 736.9C788.2 738.9 781.8 740.9 775.6 742.7C774.2 743.1 772.8 743.5 771.4 744.1C771.2 744.1 770.8 744.1 770.6 744.1C766.2 742.5 762 741.1 757.6 739.7C757.2 739.7 757.2 739.7 757 739.9C756.2 740.7 755.8 741.7 755.6 742.7C755.2 743.7 755.2 744.5 755 745.5C755 745.7 755 745.9 755.2 745.9C756.6 746.9 756.6 749.1 755.2 750.1C755 750.3 755 750.3 755 750.5C755.4 752.7 755.6 754.9 755.8 757.1C755.8 757.9 756 758.5 756 759.3C756 759.7 755.8 760.1 755.4 760.1C754 760.1 752.8 760.1 751.4 760.1C751 760.1 750.8 759.7 750.8 759.3C751 757.5 751.2 755.7 751.6 753.9C751.8 752.7 751.8 751.7 752 750.5C752 750.3 752 750.3 751.8 750.1C750.4 749.1 750.4 746.7 752 745.9C752.2 745.7 752.2 745.7 752.2 745.5C752.2 744.1 752.6 742.7 753 741.5C753.4 740.5 753.8 739.7 754.2 739.1C754.4 738.9 754.4 738.9 754.2 738.7C752 738.1 749.8 737.3 747.6 736.7C747.4 736.7 747.2 736.5 747 736.1C747 735.7 747.2 735.5 747.6 735.3C749.2 734.7 751 734.3 752.8 733.7C758.6 731.9 764.6 730.1 770.4 728.1C770.6 728.1 770.6 727.9 770.8 727.9C771 727.9 771.2 727.9 771.2 727.9C771.8 727.9 772.4 728.3 773 728.3C776.6 729.5 780.4 730.7 784 731.7C786.4 732.5 788.8 733.3 791.2 733.9C792.2 734.3 793.2 734.5 794.2 734.9C794.4 734.9 794.6 735.1 794.8 735.5C795 735.9 795 736.1 795 736.3Z" fill="#2D7D9A"/>
<path d="M771.6 727.9C771.6 728.1 771.6 728.1 771.6 727.9C771.4 727.9 771.2 727.9 771 727.9C771.2 727.9 771.4 727.9 771.6 727.9Z" fill="#2D7D9A"/>
<path d="M784.2 742.7C784.2 743.3 784.2 743.9 784.4 744.5C784.4 745.9 784.6 747.3 784.6 748.7C784.8 749.9 784.2 750.9 783.2 751.7C782 752.5 780.8 753.1 779.4 753.5C776.4 754.5 773.2 754.7 770 754.5C767.8 754.5 765.6 754.1 763.4 753.5C761.8 753.1 760.4 752.5 759.2 751.5C758.6 750.9 758.2 750.5 758 749.5C758 749.1 758 748.9 758 748.5C758.2 746.5 758.2 744.7 758.4 742.7C758.4 742.5 758.4 742.5 758.6 742.5C762.6 743.7 766.4 744.9 770.4 746.1C771.2 746.3 771.8 746.3 772.6 746.1C776.4 744.9 780.2 743.7 784.2 742.5C784 742.9 784.2 742.7 784.2 742.7Z" fill="#2D7D9A"/>
</g>
<defs>
<clipPath id="clip0">
<rect width="1024" height="1400" fill="white"/>
</clipPath>
<clipPath id="clip1">
<rect x="933.41" y="1157.95" width="48" height="48" fill="white"/>
</clipPath>
</defs>
</svg>
