<svg width="1024" height="1400" viewBox="0 0 1024 1400" fill="none" xmlns="http://www.w3.org/2000/svg">
<g clip-path="url(#clip0)">
<path d="M384.67 5437.98C343.455 5423.81 318.523 4777.21 390.392 4611.85C393.554 4604.69 394.445 4596.74 392.948 4589.07C375.156 4475.09 402.77 4047.13 388.026 3960.59C376.395 3891.79 364.286 3824.02 351.701 3757.29C349.945 3747.5 351.814 3737.41 356.961 3728.89C362.107 3720.37 370.179 3714.01 379.668 3711L616.005 3638.6C621.785 3636.81 627.094 3633.75 631.548 3629.66C636.002 3625.56 639.49 3620.53 641.758 3614.92L712.444 3440.93C714.312 3436.53 716.882 3432.46 720.053 3428.88L854.479 3280.32C859.801 3274.41 863.27 3267.07 864.455 3259.21C865.639 3251.35 864.487 3243.32 861.142 3236.11C833.523 3177.42 821.833 3150.74 753.973 3018.32C752.073 3014.64 750.714 3010.7 749.939 3006.63C723.166 2820.84 715.445 2632.79 726.897 2445.4C727.386 2438.25 725.973 2431.11 722.8 2424.69C719.628 2418.27 714.811 2412.8 708.837 2408.85C702.864 2404.9 695.948 2402.6 688.792 2402.18C681.637 2401.77 674.497 2403.26 668.1 2406.49L656.503 2412.42C651.46 2415.02 645.921 2416.52 640.255 2416.82C634.589 2417.13 628.924 2416.22 623.637 2414.17L313.145 2295.94C310.733 2295.02 308.231 2294.35 305.68 2293.95C248.657 2283.78 -428.829 2164.87 -632.286 2089.47C-638.128 2087.32 -643.396 2083.85 -647.679 2079.33C-651.962 2074.82 -655.146 2069.38 -656.985 2063.43L-672.551 2012.75C-675.054 2004.51 -680.119 1997.28 -687.012 1992.11C-693.904 1986.95 -702.267 1984.11 -710.887 1984.01L-838.389 1983.2C-845.956 1983.22 -853.369 1981.08 -859.767 1977.05C-866.165 1973.02 -871.286 1967.26 -874.536 1960.43C-933.069 1837.85 -978.152 1547.1 -940.294 1390.09C-938.896 1384.37 -936.289 1379.01 -932.65 1374.37C-929.01 1369.74 -924.421 1365.93 -919.191 1363.21L-816.865 1310.94C-812.113 1308.51 -807.884 1305.18 -804.421 1301.13C-800.957 1297.07 -798.326 1292.38 -796.677 1287.31L-714.137 1033.38C-711.946 1026.54 -711.606 1019.23 -713.152 1012.21C-714.697 1005.19 -718.074 998.712 -722.938 993.422L-769.748 943.882C-774.032 939.238 -777.168 933.657 -778.909 927.584C-780.65 921.511 -780.946 915.114 -779.773 908.903C-778.601 902.692 -775.993 896.84 -772.157 891.812C-768.321 886.784 -763.363 882.72 -757.679 879.945C-632.817 819.17 -422.542 774.47 -297.664 778.977C-287.906 779.318 -278.606 783.18 -271.484 789.847C-264.362 796.514 -259.901 805.536 -258.925 815.243C-256.145 841.313 -253.706 867.558 -250.756 893.541C-250.002 900.65 -247.381 907.432 -243.158 913.199C-238.935 918.967 -233.261 923.514 -226.709 926.382C-220.158 929.249 -212.963 930.334 -205.852 929.527C-198.742 928.72 -191.97 926.049 -186.222 921.786L-142.135 888.956C-134.405 882.782 -124.696 879.624 -114.815 880.069C-104.935 880.514 -95.5575 884.532 -88.4282 891.375C-83.6955 895.925 -77.9228 899.251 -71.6101 901.066C-65.2972 902.881 -58.6349 903.129 -52.2012 901.789C-45.7674 900.449 -39.7562 897.561 -34.6887 893.376C-29.6213 889.192 -25.6505 883.836 -23.1208 877.774L142.387 486.11C143.244 483.929 144.348 481.852 145.676 479.92L366.956 134.292C370.568 128.301 372.57 121.482 372.768 114.494C372.967 107.507 371.355 100.588 368.088 94.4105L264.552 -108.277C262.923 -111.589 260.79 -114.629 258.228 -117.288C177.84 -200.146 285.749 -556.803 342.212 -668.547C346.722 -677.457 354.374 -684.385 363.69 -687.993C373.006 -691.602 383.327 -691.635 392.658 -688.087L509.467 -643.807C516.058 -641.24 523.217 -640.476 530.206 -641.592C537.195 -642.709 543.762 -645.666 549.231 -650.159C613.461 -701.653 832.201 -874.599 921.917 -908.615C930.271 -911.687 939.398 -911.945 947.906 -909.35C956.415 -906.755 963.837 -901.45 969.042 -894.243C1015.98 -828.448 1063.07 -762.655 1110.3 -696.863C1114.96 -690.34 1121.47 -685.364 1128.99 -682.574C1211.78 -651.844 1713.87 -463.746 1824.01 -365.16C1829.7 -360.078 1836.69 -356.685 1844.2 -355.362C1851.72 -354.04 1859.46 -354.842 1866.54 -357.677C1970.84 -395.347 2078.56 -422.751 2188.17 -439.499C2195.29 -440.279 2202.08 -442.936 2207.84 -447.198C2213.6 -451.46 2218.12 -457.175 2220.94 -463.755L2243.13 -515.037C2245.59 -520.818 2249.37 -525.947 2254.16 -530.016C2258.95 -534.084 2264.63 -536.98 2270.74 -538.473C2276.84 -539.966 2283.21 -540.015 2289.34 -538.616C2295.47 -537.216 2301.18 -534.408 2306.03 -530.413C2374.03 -474.735 2466.22 -372.991 2504.85 -296.939C2507.26 -292.221 2510.58 -288.027 2514.62 -284.598C2518.66 -281.17 2523.34 -278.574 2528.39 -276.961L2764.31 -200.315C2773.63 -197.237 2781.53 -190.899 2786.55 -182.464L2886.98 -14.0586L3018.36 243.133C3021.08 248.248 3022.65 253.9 3022.94 259.689L3027.4 354.706C3027.75 362.522 3030.35 370.069 3034.9 376.434C3039.45 382.799 3045.75 387.711 3053.03 390.578L3175.17 438.146C3181.54 440.629 3187.17 444.685 3191.53 449.935C3195.9 455.184 3198.86 461.456 3200.13 468.163C3201.41 474.87 3200.97 481.793 3198.84 488.284C3196.71 494.776 3192.97 500.624 3187.96 505.28C3151.68 539.492 3091.84 573.065 3051.53 574.973C3043.83 575.291 3036.38 577.803 3030.06 582.212C3023.74 586.62 3018.81 592.742 3015.85 599.855L2946.29 764.251C2943.89 769.951 2940.24 775.042 2935.62 779.15C2844.89 857.068 2616.31 862.149 2509.24 920.281C2503.94 923.236 2499.38 927.339 2495.88 932.286C2492.38 937.234 2490.03 942.9 2489 948.871L2439.16 1242.8C2437.92 1250.2 2438.77 1257.79 2441.6 1264.73C2444.43 1271.68 2449.13 1277.7 2455.18 1282.13C2461.23 1286.56 2468.4 1289.22 2475.88 1289.83C2483.36 1290.44 2490.86 1288.96 2497.56 1285.56L2797.71 1132.23C2803.29 1129.29 2808.1 1125.1 2811.78 1119.98C2815.45 1114.86 2817.89 1108.95 2818.88 1102.73C2819.88 1096.51 2819.41 1090.15 2817.52 1084.15C2815.63 1078.14 2812.36 1072.66 2807.98 1068.14L2747.45 1005.63C2743.18 1001.19 2739.98 995.826 2738.09 989.956C2736.21 984.086 2735.69 977.862 2736.57 971.758C2737.45 965.654 2739.72 959.83 2743.19 954.729C2746.66 949.628 2751.26 945.384 2756.62 942.321L2805.11 914.756C2811.35 910.637 2818.6 908.325 2826.06 908.075C2833.53 907.826 2840.91 909.649 2847.4 913.343L3021.37 1027C3025.81 1029.88 3030.77 1031.87 3035.97 1032.86L3215.2 1066.73C3222.11 1068.07 3228.56 1071.18 3233.9 1075.75C3239.25 1080.32 3243.33 1086.19 3245.73 1092.8C3280.93 1189.94 3219.26 1419.88 3156.53 1476.41C3151.85 1480.74 3148.24 1486.1 3145.99 1492.06C3143.73 1498.02 3142.89 1504.42 3143.54 1510.76L3179.34 1892.37C3179.71 1897.15 3179.26 1901.96 3178 1906.58L3162.04 1966.71C3160.51 1972.44 3157.73 1977.77 3153.91 1982.31C3150.09 1986.86 3145.32 1990.51 3139.94 1993.02C3134.55 1995.52 3128.68 1996.82 3122.75 1996.81C3116.81 1996.8 3110.95 1995.49 3105.57 1992.98L3032.43 1958.82C3026.65 1956.14 3021.59 1952.13 3017.65 1947.13C3013.71 1942.13 3011.01 1936.27 3009.76 1930.02C2998.16 1871.52 2973.15 1744.69 2962.27 1690.12C2960.75 1682.4 2957.01 1675.29 2951.5 1669.67C2946 1664.05 2938.96 1660.16 2931.27 1658.49L2867.28 1644.36C2859.34 1642.6 2851.06 1643.24 2843.49 1646.2L2815.5 1657.49C2810.27 1659.6 2805.54 1662.76 2801.6 1666.79C2797.66 1670.83 2794.6 1675.63 2792.63 1680.9C2790.65 1686.18 2789.79 1691.8 2790.1 1697.43C2790.42 1703.05 2791.9 1708.54 2794.46 1713.55L2805.42 1735.01C2810.15 1744.24 2811.17 1754.93 2808.25 1764.89C2805.34 1774.84 2798.72 1783.31 2789.76 1788.55L2576.36 1912.59C2573.76 1914.07 2571.36 1915.87 2569.21 1917.96C2513.92 1962.64 2456.17 2004.19 2396.23 2042.4C2388.79 2047.14 2383.1 2054.17 2380.03 2062.44C2376.96 2070.7 2376.68 2079.74 2379.23 2088.17C2381.78 2096.6 2387.03 2103.97 2394.16 2109.14C2401.3 2114.31 2409.93 2117 2418.75 2116.8L2897.2 2113.38L3386.69 2121.06C3394.02 2121.17 3401.18 2123.26 3407.42 2127.11C3413.66 2130.95 3418.75 2136.4 3422.14 2142.9L3528.72 2351.54C3530.16 2354.36 3531.93 2356.99 3534.01 2359.37L3848.83 2726.45C3852.72 2731.11 3855.51 2736.58 3857.01 2742.46L3858.16 2746.82C3860.2 2754.25 3860.07 2762.1 3857.78 2769.47C3855.49 2776.83 3851.15 2783.38 3845.25 2788.36C3839.36 2793.33 3832.17 2796.52 3824.52 2797.54C3816.88 2798.57 3809.1 2797.38 3802.12 2794.13C3767.31 2778.19 3732.58 2762 3697.95 2745.97C3695.22 2744.68 3692.63 2743.13 3690.2 2741.33C3645.48 2706.83 3600.85 2672.5 3556.3 2637.92C3550.29 2633.28 3543.09 2630.42 3535.52 2629.67C3527.96 2628.92 3520.33 2630.31 3513.51 2633.68C3506.69 2637.05 3500.96 2642.27 3496.96 2648.74C3492.96 2655.2 3490.86 2662.66 3490.89 2670.26L3491.14 2689.68C3491.09 2695.61 3492.38 2701.47 3494.9 2706.83C3497.42 2712.2 3501.1 2716.93 3505.69 2720.69L3715.93 2894.42C3720.65 2898.19 3726.14 2900.89 3732.01 2902.32L3923.25 2950.03C3929.9 2951.74 3936.87 2951.75 3943.52 2950.04C3950.17 2948.34 3956.28 2944.97 3961.28 2940.27L4016.36 2890.65C4020.49 2887.05 4025.22 2884.2 4030.33 2882.23L4387.41 2768.34L4414.93 2793.58C4417.15 2792.45 4427.28 2786.2 4446.31 2777.55C4449.72 2775.81 4444.49 2753.78 4447.9 2752.04C4464.95 2743.33 4496.8 2732 4496.8 2732L4518.57 2745.58L4569.48 2729.46L4597.54 2747.77C4604.79 2748.14 4612.01 2746.6 4618.48 2743.3L4684.65 2709.5C4689.79 2706.88 4695.42 2705.39 4701.18 2705.12C4706.93 2704.85 4712.68 2705.8 4718.03 2707.92C4723.39 2710.04 4728.23 2713.28 4732.24 2717.41C4736.24 2721.55 4739.32 2726.49 4741.26 2731.91L4873.02 3100.15C4874.83 3105.24 4875.6 3110.63 4875.3 3116.01C4874.99 3121.4 4873.62 3126.67 4871.25 3131.52C4868.88 3136.37 4865.56 3140.7 4861.5 3144.26C4857.44 3147.82 4852.71 3150.53 4847.59 3152.24L4718.72 3194.65C4711.8 3197.02 4705.65 3201.23 4700.93 3206.82C4696.21 3212.41 4693.1 3219.17 4691.92 3226.38L4679.82 3296.99C4678.26 3306.8 4673.13 3315.69 4665.43 3321.96C4657.72 3328.23 4647.98 3331.45 4638.05 3331C4539.46 3326.17 4367.34 3281.79 4277.49 3214.51C4274.28 3211.97 4271.41 3209.03 4268.94 3205.77C4227.08 3147.12 4185.19 3088.41 4143.27 3029.64C4137.32 3021.23 4128.37 3015.42 4118.26 3013.4C4108.15 3011.38 4097.64 3013.29 4088.9 3018.76L3766.5 3217.8C3760.89 3221.23 3754.53 3223.22 3747.97 3223.62L3573.81 3234.62C3564.07 3235.27 3554.43 3232.37 3546.67 3226.47C3538.91 3220.56 3533.56 3212.05 3531.6 3202.5L3495.59 3027.6C3494.09 3021.31 3491.1 3015.47 3486.89 3010.57L3416.8 2920.51C3410.25 2912.19 3400.7 2906.76 3390.2 2905.39C3379.69 2904.01 3369.06 2906.8 3360.57 2913.15L3081.43 3124.47C3077.07 3127.88 3072.09 3130.42 3066.77 3131.96L2661.37 3231.66C2655.78 3233.22 2650.56 3235.89 2646.02 3239.5L2593.19 3281.31C2588.59 3284.83 2584.81 3289.29 2582.07 3294.39C2579.34 3299.49 2577.72 3305.11 2577.33 3310.88L2568.32 3551.73C2568.12 3557.43 2566.72 3563.02 2564.21 3568.15C2561.7 3573.27 2558.14 3577.81 2553.76 3581.47C2549.37 3585.12 2544.27 3587.82 2538.78 3589.37C2533.29 3590.93 2527.53 3591.31 2521.88 3590.49C2372.72 3569.17 2114.69 3616.79 1992.93 3679.42C1988.04 3681.96 1983.72 3685.47 1980.24 3689.74C1976.76 3694.01 1974.19 3698.94 1972.69 3704.23C1971.18 3709.53 1970.78 3715.07 1971.49 3720.53C1972.21 3725.98 1974.04 3731.23 1976.86 3735.95L1981.56 3745.15C1984.63 3750.29 1986.51 3756.04 1987.08 3762C1987.65 3767.96 1986.88 3773.97 1984.84 3779.6C1982.79 3785.23 1979.52 3790.33 1975.26 3794.54C1971 3798.76 1965.86 3801.97 1960.2 3803.95L1768.44 3871.84C1763.4 3873.61 1758.76 3876.37 1754.79 3879.94C1750.82 3883.52 1747.6 3887.84 1745.32 3892.67C1716.37 3955.56 1736.22 4122.82 1781.85 4174.68C1785.93 4179.05 1788.98 4184.27 1790.78 4189.97C1792.57 4195.67 1793.07 4201.7 1792.22 4207.62L1761.88 4404.17C1760.73 4411.48 1761.65 4418.97 1764.53 4425.79L1793.23 4490.81C1795.92 4497.4 1796.83 4504.58 1795.87 4511.63C1794.9 4518.68 1792.1 4525.36 1787.73 4530.99L1672.32 4680.15C1667.84 4685.92 1665.01 4692.81 1664.13 4700.06C1663.26 4707.32 1664.37 4714.67 1667.35 4721.34L1745.24 4897.83C1749.41 4907.16 1749.88 4917.72 1746.56 4927.39C1743.23 4937.06 1736.37 4945.11 1727.34 4949.93L1698.86 4964.47C1693.05 4967.6 1686.58 4969.27 1679.98 4969.34C1673.39 4969.42 1666.88 4967.89 1661.01 4964.91L1526.71 4896.06C1520.19 4892.72 1512.87 4891.23 1505.55 4891.75C1498.24 4892.27 1491.2 4894.78 1485.21 4899L1268.45 5052.68C1262.47 5056.79 1255.53 5059.29 1248.3 5059.97C1195.94 5065.23 964.055 5084.46 806.213 5111.83C798.782 5113.09 791.847 5116.4 786.186 5121.38C780.525 5126.36 776.361 5132.81 774.161 5140.01L731.288 5280.47C730.357 5283.71 728.969 5286.81 727.167 5289.66L645.198 5423.88C640.641 5431.43 633.698 5437.24 625.467 5440.4L521.512 5481.91C511.782 5485.81 500.928 5485.81 491.201 5481.93L384.67 5437.98Z" fill="#293135" stroke="#2D7D9A" stroke-opacity="0.38" stroke-miterlimit="10"/>
<path d="M58.602 1185.5L67 1156.41L75.398 1185.5H58.602Z" fill="#2D7D9A" stroke="#2D7D9A" stroke-width="3"/>
<line x1="67.5" y1="1187" x2="67.5" y2="1195" stroke="#2D7D9A" stroke-width="3"/>
<path d="M465.602 863.5L474 834.408L482.398 863.5H465.602Z" fill="#2D7D9A" stroke="#2D7D9A" stroke-width="3"/>
<line x1="474.5" y1="865" x2="474.5" y2="873" stroke="#2D7D9A" stroke-width="3"/>
<path d="M238.602 1137.5L247 1108.41L255.398 1137.5H238.602Z" fill="#2D7D9A" stroke="#2D7D9A" stroke-width="3"/>
<line x1="247.5" y1="1139" x2="247.5" y2="1147" stroke="#2D7D9A" stroke-width="3"/>
<path d="M740.602 877.5L749 848.408L757.398 877.5H740.602Z" fill="#2D7D9A" stroke="#2D7D9A" stroke-width="3"/>
<line x1="749.5" y1="879" x2="749.5" y2="887" stroke="#2D7D9A" stroke-width="3"/>
<path d="M666.602 997.5L675 968.408L683.398 997.5H666.602Z" fill="#2D7D9A" stroke="#2D7D9A" stroke-width="3"/>
<line x1="675.5" y1="999" x2="675.5" y2="1007" stroke="#2D7D9A" stroke-width="3"/>
<path d="M956.602 416.5L965 387.408L973.398 416.5H956.602Z" fill="#2D7D9A" stroke="#2D7D9A" stroke-width="3"/>
<line x1="965.5" y1="418" x2="965.5" y2="426" stroke="#2D7D9A" stroke-width="3"/>
<path d="M861.602 1137.5L870 1108.41L878.398 1137.5H861.602Z" fill="#2D7D9A" stroke="#2D7D9A" stroke-width="3"/>
<line x1="870.5" y1="1139" x2="870.5" y2="1147" stroke="#2D7D9A" stroke-width="3"/>
<path d="M728.602 464.5L737 435.408L745.398 464.5H728.602Z" fill="#2D7D9A" stroke="#2D7D9A" stroke-width="3"/>
<line x1="737.5" y1="466" x2="737.5" y2="474" stroke="#2D7D9A" stroke-width="3"/>
<path d="M1021.6 815.5L1030 786.408L1038.4 815.5H1021.6Z" fill="#2D7D9A" stroke="#2D7D9A" stroke-width="3"/>
<path d="M704.602 712.5L713 683.408L721.398 712.5H704.602Z" fill="#2D7D9A" stroke="#2D7D9A" stroke-width="3"/>
<line x1="713.5" y1="714" x2="713.5" y2="722" stroke="#2D7D9A" stroke-width="3"/>
<path d="M932.602 968.5L941 939.408L949.398 968.5H932.602Z" fill="#2D7D9A" stroke="#2D7D9A" stroke-width="3"/>
<line x1="941.5" y1="970" x2="941.5" y2="978" stroke="#2D7D9A" stroke-width="3"/>
<path d="M299.602 992.5L308 963.408L316.398 992.5H299.602Z" fill="#2D7D9A" stroke="#2D7D9A" stroke-width="3"/>
<line y1="-1.5" x2="8" y2="-0.5" transform="matrix(0 1 1 0 310 993)" stroke="#2D7D9A" stroke-width="3"/>
<path d="M787.602 580.5L796 551.408L804.398 580.5H787.602Z" fill="#2D7D9A" stroke="#2D7D9A" stroke-width="3"/>
<line x1="796.5" y1="582" x2="796.5" y2="590" stroke="#2D7D9A" stroke-width="3"/>
<path d="M680.602 1191.5L689 1162.41L697.398 1191.5H680.602Z" fill="#2D7D9A" stroke="#2D7D9A" stroke-width="3"/>
<line x1="689.5" y1="1193" x2="689.5" y2="1201" stroke="#2D7D9A" stroke-width="3"/>
<path d="M491.602 1049.5L500 1020.41L508.398 1049.5H491.602Z" fill="#2D7D9A" stroke="#2D7D9A" stroke-width="3"/>
<line x1="500.5" y1="1051" x2="500.5" y2="1059" stroke="#2D7D9A" stroke-width="3"/>
</g>
<defs>
<clipPath id="clip0">
<rect width="1024" height="1400" fill="white"/>
</clipPath>
</defs>
</svg>
