<svg width="1024" height="1400" viewBox="0 0 1024 1400" fill="none" xmlns="http://www.w3.org/2000/svg">
<g clip-path="url(#clip0)">
<path d="M1654.46 -284.526L1638.79 -412.038C1638.2 -416.544 1639.05 -421.12 1641.22 -425.118C1643.38 -429.116 1646.75 -432.332 1650.85 -434.308L1724.49 -666.505C1723.4 -669.631 1723.03 -672.958 1723.38 -676.249C1723.38 -676.249 1760.44 -974.164 1758.35 -978.252L1683.86 -1084.09L1741.33 -1251.12L1951.5 -1456.84L2557.34 -1800.25C2558.13 -1803.77 2559.78 -1807.05 2562.14 -1809.79L2625.75 -1885.23C2628.15 -1888 2631.19 -1890.14 2634.6 -1891.47L3218.33 -2110.62C3220.1 -2111.2 3221.77 -2112.05 3223.28 -2113.14L3339.59 -2194.03C3341.46 -2194.99 3370.65 -2259.51 3438.78 -2210.34C3557.38 -2124.66 3742.68 -1902.1 3735.49 -1890.91L3613.8 -1702.26C3612.37 -1700.08 3611.35 -1697.67 3610.78 -1695.13L3589.69 -1602.96C3589.08 -1600.06 3589.06 -1597.06 3589.63 -1594.16C3590.2 -1591.25 3591.35 -1588.48 3593 -1586.03C3594.66 -1583.57 3596.79 -1581.47 3599.27 -1579.85C3601.76 -1578.23 3604.54 -1577.12 3607.46 -1576.6L3656.16 -1568.4C3660.4 -1567.62 3664.77 -1568.14 3668.71 -1569.89C3672.66 -1571.63 3675.98 -1574.52 3678.26 -1578.18L3809.06 -1783.1C3810.27 -1784.95 3811.72 -1786.63 3813.38 -1788.1L3959.57 -1911.95C3963.23 -1914.99 3967.78 -1916.76 3972.53 -1917.01C3977.28 -1917.25 3981.98 -1915.94 3985.92 -1913.29C3989.87 -1910.64 3992.85 -1906.78 3994.41 -1902.3C3995.98 -1897.81 3996.05 -1892.94 3994.61 -1888.4L3772.62 -1207.8C3771.23 -1203.27 3771.3 -1198.43 3772.82 -1193.94L3782.56 -1164.77C3783.82 -1161 3784.03 -1156.95 3783.17 -1153.06C3782.31 -1149.17 3780.41 -1145.59 3777.68 -1142.69C3774.94 -1139.8 3771.47 -1137.7 3767.63 -1136.61C3763.8 -1135.53 3759.74 -1135.51 3755.9 -1136.55L3592.5 -1181.94C3587.02 -1183.49 3582.37 -1187.11 3579.53 -1192.04C3576.69 -1196.97 3575.89 -1202.82 3577.3 -1208.33L3646.5 -1491.74C3647.35 -1494.94 3647.45 -1498.29 3646.79 -1501.53C3646.13 -1504.78 3644.74 -1507.82 3642.71 -1510.44C3640.69 -1513.06 3638.09 -1515.18 3635.12 -1516.64C3632.15 -1518.09 3628.88 -1518.84 3625.56 -1518.84L3599.7 -1519.37C3594.83 -1519.39 3590.08 -1517.82 3586.18 -1514.89C3582.28 -1511.97 3579.44 -1507.86 3578.08 -1503.18L3539.91 -1363.62L3539.41 -1362.08L3473.54 -1174.87C3472.52 -1171.93 3470.88 -1169.24 3468.72 -1166.99C3466.57 -1164.74 3463.96 -1162.98 3461.06 -1161.84L3119.5 -1025.16C3116.09 -1023.91 3113.11 -1021.71 3110.9 -1018.83L3060.01 -958.906C3057.05 -955.408 3055.25 -951.075 3054.87 -946.511C3054.49 -941.947 3055.54 -937.379 3057.88 -933.445C3060.22 -929.51 3063.74 -926.405 3067.93 -924.562C3072.12 -922.719 3076.79 -922.231 3081.28 -923.165L3330.2 -974.291L3333.37 -974.834L3496.32 -984.193C3499.55 -984.388 3502.78 -983.869 3505.78 -982.675C3508.79 -981.481 3511.49 -979.64 3513.7 -977.283C3515.91 -974.927 3517.57 -972.112 3518.57 -969.04C3519.56 -965.967 3519.87 -962.712 3519.47 -959.506L3511.5 -897.232C3511 -893.692 3509.67 -890.321 3507.61 -887.399C3505.55 -884.478 3502.82 -882.091 3499.64 -880.439L3388.28 -823.552C3386.04 -822.474 3383.65 -821.759 3381.19 -821.434L3374.18 -820.429C3371.68 -820.015 3369.26 -819.214 3367 -818.053L3306.39 -785.586C3301.48 -783.176 3297.65 -779.016 3295.66 -773.926C3293.68 -768.836 3293.67 -763.189 3295.65 -758.099C3297.63 -753.009 3301.44 -748.849 3306.35 -746.44C3311.25 -744.031 3316.88 -743.549 3322.13 -745.089L3551.05 -802.108C3552.67 -802.722 3554.21 -803.511 3555.66 -804.46L3712.03 -886.057C3738.74 -883.593 3765.56 -882.524 3792.38 -882.855C3818.24 -893.14 3843.07 -905.827 3866.56 -920.751C3871.25 -920.31 3875.98 -921.029 3880.33 -922.845C3837.42 -893.191 3798.43 -865.542 3755.51 -835.888L3753.98 -835.104L3604.92 -705.917C3603.48 -704.96 3601.94 -704.171 3600.32 -703.565L3463.88 -633.872C3461.18 -632.474 3458.79 -630.531 3456.88 -628.165C3454.96 -625.8 3453.56 -623.064 3452.75 -620.13C3451.95 -617.196 3451.76 -614.129 3452.2 -611.12C3452.64 -608.111 3453.7 -605.227 3455.32 -602.65L3595.57 -380.277C3596.76 -378.355 3598.28 -376.66 3600.07 -375.27L3707.75 -284.02C3709.99 -282.158 3791.61 -216.252 3785.13 -202.418C3767.88 -165.042 3644.05 -156.981 3644.05 -156.981C3641.34 -153.034 3637.38 -150.106 3632.81 -148.665L3454.07 -90.6487C3451.22 -89.8351 3448.55 -88.4739 3446.22 -86.6413L3241.3 132.722C3185.11 217.992 3122.84 299.11 3054.98 375.445C2982.32 454.225 2897.14 508.049 2890.36 506.143L2719.43 461.16C2714.68 459.851 2710.51 457.004 2707.56 453.066C2704.62 449.128 2703.07 444.323 2703.15 439.405L2704.95 354.513C2705.03 351.244 2704.38 347.998 2703.05 345.011C2701.72 342.025 2699.74 339.372 2697.26 337.248C2694.77 335.124 2691.84 333.58 2688.68 332.73C2685.52 331.88 2682.21 331.745 2678.99 332.333L2207.08 423.057C2201.86 424.128 2196.42 423.233 2191.82 420.544C2191.82 420.544 1621.97 396.998 1616.5 388.834C1616.5 388.834 1483.36 273.003 1491.33 147.158C1501.67 -35.9489 1655.74 -252.966 1654.46 -284.526Z" fill="#293135" stroke="#2D7D9A" stroke-miterlimit="10"/>
<path d="M364.297 327.695L244.734 640.909C242.242 647.298 241.513 654.236 242.622 660.999C243.731 667.762 246.638 674.101 251.039 679.353L397.086 855.386C401.785 860.582 405.027 866.927 406.483 873.781L447.779 1151.64C449.048 1159.68 447.723 1167.91 443.993 1175.14C440.264 1182.38 434.326 1188.24 427.041 1191.88L213.179 1301.12C205.077 1305.07 198.627 1311.76 194.966 1319.99C191.305 1328.23 190.668 1337.48 193.165 1346.14L227.906 1470.14C230.227 1478.85 229.485 1488.1 225.806 1496.34L162.479 1638C158.649 1646.44 158.009 1655.98 160.679 1664.84C163.349 1673.71 169.147 1681.3 176.998 1686.21L372.836 1740.81C391.222 1775.81 407.608 1811.82 421.917 1848.68C438.166 1889.98 451.918 1932.23 463.1 1975.19L360.246 2194.82C358.248 2204.5 360.077 2214.57 365.348 2222.93C370.619 2231.29 378.924 2237.28 388.523 2239.65L553.354 2282.38C558.254 2283.6 563.348 2283.85 568.344 2283.1L797.055 2252.18C803.865 2251.16 810.822 2251.99 817.195 2254.59C823.567 2257.19 829.118 2261.45 833.265 2266.94C837.411 2272.43 839.998 2278.94 840.754 2285.77C841.511 2292.61 840.408 2299.53 837.562 2305.8L747.52 2510.93L716.148 2591.39C713.24 2600 713.49 2609.35 716.852 2617.79C720.215 2626.22 726.471 2633.18 734.502 2637.42L805.202 2676.48C810.607 2679.46 816.655 2681.08 822.828 2681.22C829.002 2681.36 835.119 2680 840.657 2677.27L917.844 2639.77C921.574 2637.9 925.584 2636.65 929.716 2636.07L1502.53 2559.74C1510.44 2558.66 1518.48 2560.07 1525.54 2563.78C1532.6 2567.48 1538.33 2573.31 1541.91 2580.43L1567.06 2629.65C1570.99 2637.72 1577.63 2644.15 1585.83 2647.82C1594.03 2651.48 1603.27 2652.15 1611.91 2649.69L1745.28 2612.71C1748.26 2611.72 1751.08 2610.29 1753.63 2608.44L2112.22 2406.16C2118.28 2402.84 2125.13 2401.22 2132.03 2401.47C2138.94 2401.72 2145.65 2403.84 2151.44 2407.59L2521.18 2630.44C2529.51 2635.54 2539.48 2637.26 2549.05 2635.25C2558.62 2633.23 2567.06 2627.64 2572.64 2619.62L2655.09 2503.19C2659.62 2496.97 2665.82 2492.17 2672.96 2489.33L2805.71 2439.35C2814.58 2435.89 2824.43 2435.85 2833.32 2439.25C2842.21 2442.65 2849.52 2449.24 2853.8 2457.74L3036.51 2815.42C3039.4 2821.15 3043.67 2826.07 3048.95 2829.71C3054.24 2833.36 3060.35 2835.62 3066.74 2836.28L3267.95 2857.2C3276.24 2858.03 3284.58 2856.25 3291.8 2852.11L3617.57 2657.56C3624.02 2653.76 3629.21 2648.15 3632.5 2641.42C3635.8 2634.7 3637.05 2627.17 3636.1 2619.75L3613.81 2436.34C3613.48 2433.85 3612.94 2431.4 3612.21 2429L3455.21 1948.21C3452.11 1938.91 3452.7 1928.77 3456.87 1919.88L3518.56 1788.07C3521.95 1780.89 3523.02 1772.83 3521.63 1765.02L3495.44 1608.09C3494.65 1603.23 3492.93 1598.57 3490.37 1594.36L3442.2 1515.23C3441.12 1513.39 3439.87 1511.66 3438.48 1510.05L3314.95 1365.89C3312.93 1363.63 3311.21 1361.11 3309.84 1358.41L3220.14 1182.8C3217.35 1177.4 3215.89 1171.4 3215.89 1165.32C3215.88 1159.23 3217.33 1153.23 3220.11 1147.81L3299.42 991.539C3300.3 989.848 3301.06 988.097 3301.69 986.299L3326.18 912.579C3327.87 907.655 3328.54 902.438 3328.14 897.249C3327.75 892.059 3326.3 887.006 3323.88 882.398L3295.43 826.702C3292.9 821.957 3291.41 816.733 3291.04 811.37C3290.67 806.008 3291.44 800.627 3293.29 795.578L3308.79 753.512C3310.63 748.493 3311.4 743.146 3311.05 737.814C3310.7 732.483 3309.23 727.286 3306.74 722.557L3224.52 561.6C3222.35 557.417 3219.41 553.673 3215.87 550.557L3054.16 406.581C3047.67 400.88 3043.31 393.151 3041.78 384.652C3040.25 376.154 3041.64 367.385 3045.73 359.772L3064.62 323.921C3068.38 317.133 3069.99 309.365 3069.23 301.648C3068.47 293.931 3065.38 286.629 3060.38 280.709C3055.37 274.789 3048.68 270.53 3041.19 268.497C3033.71 266.465 3025.78 266.754 3018.45 269.327L3015.38 270.895C3009.58 272.776 3004.31 276.014 3000.01 280.34C2995.72 284.665 2992.51 289.952 2990.67 295.762L2947.56 428.602C2945.92 433.792 2943.2 438.574 2939.56 442.629C2935.93 446.684 2931.47 449.919 2926.49 452.118C2921.51 454.317 2916.12 455.431 2910.67 455.383C2905.23 455.335 2899.86 454.128 2894.92 451.841L2730.17 376.855C2722.46 373.401 2716.11 367.495 2712.12 360.056C2708.13 352.618 2706.71 344.065 2708.09 335.731C2709.18 329.677 2708.79 323.451 2706.96 317.581C2705.13 311.711 2701.91 306.37 2697.57 302.011C2693.23 297.651 2687.91 294.401 2682.04 292.537C2676.18 290.673 2669.95 290.249 2663.89 291.302L2385.66 340.643C2379.71 341.792 2373.56 341.466 2367.76 339.694L1986.4 224.589C1980 222.634 1973.21 222.387 1966.68 223.873C1960.16 225.358 1954.14 228.525 1949.22 233.057L1806.59 363.041C1800.14 369.039 1791.81 372.63 1783.02 373.209C1774.22 373.788 1765.5 371.32 1758.33 366.22L1516.01 197.911C1511.37 194.753 1507.48 190.612 1504.62 185.781C1501.76 180.951 1500 175.55 1499.47 169.961C1498.93 164.373 1499.63 158.733 1501.52 153.444C1503.41 148.154 1506.44 143.344 1510.4 139.354L1675.65 -30.9638C1679.78 -35.1659 1682.89 -40.2642 1684.73 -45.8609C1686.57 -51.4577 1687.1 -57.4019 1686.26 -63.2312L1674.08 -151.075C1672.66 -160.524 1667.88 -169.141 1660.61 -175.337L1570.77 -251.008C1565.08 -255.835 1558.09 -258.889 1550.67 -259.795C1543.25 -260.7 1535.73 -259.416 1529.03 -256.102L1099.02 -45.4642C1093.9 -42.9109 1088.27 -41.5355 1082.55 -41.4389C1076.84 -41.3423 1071.17 -42.527 1065.97 -44.906L986.389 -81.1411C981.105 -83.6002 975.326 -84.82 969.495 -84.7076C963.664 -84.595 957.935 -83.1528 952.744 -80.4915L744.51 25.8779C736.728 29.8964 730.511 36.3976 726.849 44.3485L606.31 311.027C602.731 318.954 596.559 325.431 588.809 329.389C581.059 333.348 572.194 334.553 563.674 332.806L407.254 303.176C398.354 301.532 389.156 303.094 381.292 307.583C373.428 312.071 367.407 319.197 364.297 327.695Z" fill="#293135" stroke="#2D7D9A" stroke-opacity="0.38" stroke-miterlimit="10"/>
<path d="M382.67 327.981C341.455 313.812 316.523 -332.792 388.392 -498.151C391.554 -505.308 392.445 -513.259 390.948 -520.933C373.156 -634.907 400.77 -1062.87 386.026 -1149.41C374.395 -1218.21 362.286 -1285.98 349.701 -1352.71C347.945 -1362.5 349.814 -1372.59 354.961 -1381.11C360.107 -1389.63 368.179 -1395.99 377.668 -1399L614.005 -1471.4C619.785 -1473.19 625.094 -1476.25 629.548 -1480.34C634.002 -1484.44 637.49 -1489.47 639.758 -1495.08L710.444 -1669.07C712.312 -1673.47 714.882 -1677.54 718.053 -1681.12L852.479 -1829.68C857.801 -1835.59 861.27 -1842.93 862.455 -1850.79C863.639 -1858.65 862.487 -1866.68 859.142 -1873.89C831.523 -1932.58 819.833 -1959.26 751.973 -2091.68C750.073 -2095.36 748.714 -2099.3 747.939 -2103.37C721.166 -2289.16 713.445 -2477.21 724.897 -2664.6C725.386 -2671.75 723.973 -2678.89 720.8 -2685.31C717.628 -2691.73 712.811 -2697.2 706.837 -2701.15C700.864 -2705.1 693.948 -2707.4 686.792 -2707.82C679.637 -2708.23 672.497 -2706.74 666.1 -2703.51L654.503 -2697.58C649.46 -2694.98 643.921 -2693.48 638.255 -2693.18C632.589 -2692.87 626.924 -2693.78 621.637 -2695.83L311.145 -2814.06C308.733 -2814.98 306.231 -2815.65 303.68 -2816.05C246.657 -2826.22 -430.829 -2945.13 -634.286 -3020.53C-640.128 -3022.68 -645.396 -3026.15 -649.679 -3030.67C-653.962 -3035.18 -657.146 -3040.62 -658.985 -3046.57L-674.551 -3097.25C-677.054 -3105.49 -682.119 -3112.72 -689.012 -3117.89C-695.904 -3123.05 -704.267 -3125.89 -712.887 -3125.99L-840.389 -3126.8C-847.956 -3126.78 -855.369 -3128.92 -861.767 -3132.95C-868.165 -3136.98 -873.286 -3142.74 -876.536 -3149.57C-935.069 -3272.15 -980.152 -3562.9 -942.294 -3719.91C-940.896 -3725.63 -938.289 -3730.99 -934.65 -3735.63C-931.01 -3740.26 -926.421 -3744.07 -921.191 -3746.79L-818.865 -3799.06C-814.113 -3801.49 -809.884 -3804.82 -806.421 -3808.87C-802.957 -3812.93 -800.326 -3817.62 -798.677 -3822.69L-716.137 -4076.62C-713.946 -4083.46 -713.606 -4090.77 -715.152 -4097.79C-716.697 -4104.81 -720.074 -4111.29 -724.938 -4116.58L-771.748 -4166.12C-776.032 -4170.76 -779.168 -4176.34 -780.909 -4182.42C-782.65 -4188.49 -782.946 -4194.89 -781.773 -4201.1C-780.601 -4207.31 -777.993 -4213.16 -774.157 -4218.19C-770.321 -4223.22 -765.363 -4227.28 -759.679 -4230.06C-634.817 -4290.83 -424.542 -4335.53 -299.664 -4331.02C-289.906 -4330.68 -280.606 -4326.82 -273.484 -4320.15C-266.362 -4313.49 -261.901 -4304.46 -260.925 -4294.76C-258.145 -4268.69 -255.706 -4242.44 -252.756 -4216.46C-252.002 -4209.35 -249.381 -4202.57 -245.158 -4196.8C-240.935 -4191.03 -235.261 -4186.49 -228.709 -4183.62C-222.158 -4180.75 -214.963 -4179.67 -207.852 -4180.47C-200.742 -4181.28 -193.97 -4183.95 -188.222 -4188.21L-144.135 -4221.04C-136.405 -4227.22 -126.696 -4230.38 -116.815 -4229.93C-106.935 -4229.49 -97.5575 -4225.47 -90.4282 -4218.63C-85.6955 -4214.08 -79.9228 -4210.75 -73.6101 -4208.93C-67.2972 -4207.12 -60.6349 -4206.87 -54.2012 -4208.21C-47.7674 -4209.55 -41.7562 -4212.44 -36.6887 -4216.62C-31.6213 -4220.81 -27.6505 -4226.16 -25.1208 -4232.23L140.387 -4623.89C141.244 -4626.07 142.348 -4628.15 143.676 -4630.08L364.956 -4975.71C368.568 -4981.7 370.57 -4988.52 370.768 -4995.51C370.967 -5002.49 369.355 -5009.41 366.088 -5015.59L262.552 -5218.28C260.923 -5221.59 258.79 -5224.63 256.228 -5227.29C175.84 -5310.15 283.749 -5666.8 340.212 -5778.55C344.722 -5787.46 352.374 -5794.38 361.69 -5797.99C371.006 -5801.6 381.327 -5801.64 390.658 -5798.09L507.467 -5753.81C514.058 -5751.24 521.217 -5750.48 528.206 -5751.59C535.195 -5752.71 541.762 -5755.67 547.231 -5760.16C611.461 -5811.65 830.201 -5984.6 919.917 -6018.61C928.271 -6021.69 937.398 -6021.94 945.906 -6019.35C954.415 -6016.76 961.837 -6011.45 967.042 -6004.24C1013.98 -5938.45 1061.07 -5872.65 1108.3 -5806.86C1112.96 -5800.34 1119.47 -5795.36 1126.99 -5792.57C1209.78 -5761.84 1711.87 -5573.75 1822.01 -5475.16C1827.7 -5470.08 1834.69 -5466.68 1842.2 -5465.36C1849.72 -5464.04 1857.46 -5464.84 1864.54 -5467.68C1968.84 -5505.35 2076.56 -5532.75 2186.17 -5549.5C2193.29 -5550.28 2200.08 -5552.94 2205.84 -5557.2C2211.6 -5561.46 2216.12 -5567.17 2218.94 -5573.76L2241.13 -5625.04C2243.59 -5630.82 2247.37 -5635.95 2252.16 -5640.02C2256.95 -5644.08 2262.63 -5646.98 2268.74 -5648.47C2274.84 -5649.97 2281.21 -5650.02 2287.34 -5648.62C2293.47 -5647.22 2299.18 -5644.41 2304.03 -5640.41C2372.03 -5584.74 2464.22 -5482.99 2502.85 -5406.94C2505.26 -5402.22 2508.58 -5398.03 2512.62 -5394.6C2516.66 -5391.17 2521.34 -5388.57 2526.39 -5386.96L2762.31 -5310.31C2771.63 -5307.24 2779.53 -5300.9 2784.55 -5292.46L2884.98 -5124.06L3016.36 -4866.87C3019.08 -4861.75 3020.65 -4856.1 3020.94 -4850.31L3025.4 -4755.29C3025.75 -4747.48 3028.35 -4739.93 3032.9 -4733.57C3037.45 -4727.2 3043.75 -4722.29 3051.03 -4719.42L3173.17 -4671.85C3179.54 -4669.37 3185.17 -4665.32 3189.53 -4660.07C3193.9 -4654.82 3196.86 -4648.54 3198.13 -4641.84C3199.41 -4635.13 3198.97 -4628.21 3196.84 -4621.72C3194.71 -4615.22 3190.97 -4609.38 3185.96 -4604.72C3149.68 -4570.51 3089.84 -4536.94 3049.53 -4535.03C3041.83 -4534.71 3034.38 -4532.2 3028.06 -4527.79C3021.74 -4523.38 3016.81 -4517.26 3013.85 -4510.15L2944.29 -4345.75C2941.89 -4340.05 2938.24 -4334.96 2933.62 -4330.85C2842.89 -4252.93 2614.31 -4247.85 2507.24 -4189.72C2501.94 -4186.76 2497.38 -4182.66 2493.88 -4177.71C2490.38 -4172.77 2488.03 -4167.1 2487 -4161.13L2437.16 -3867.2C2435.92 -3859.8 2436.77 -3852.21 2439.6 -3845.27C2442.43 -3838.32 2447.13 -3832.3 2453.18 -3827.87C2459.23 -3823.44 2466.4 -3820.78 2473.88 -3820.17C2481.36 -3819.56 2488.86 -3821.04 2495.56 -3824.44L2795.71 -3977.77C2801.29 -3980.71 2806.1 -3984.9 2809.78 -3990.02C2813.45 -3995.14 2815.89 -4001.05 2816.88 -4007.27C2817.88 -4013.49 2817.41 -4019.85 2815.52 -4025.85C2813.63 -4031.86 2810.36 -4037.34 2805.98 -4041.86L2745.45 -4104.37C2741.18 -4108.81 2737.98 -4114.17 2736.09 -4120.04C2734.21 -4125.91 2733.69 -4132.14 2734.57 -4138.24C2735.45 -4144.35 2737.72 -4150.17 2741.19 -4155.27C2744.66 -4160.37 2749.26 -4164.62 2754.62 -4167.68L2803.11 -4195.24C2809.35 -4199.36 2816.6 -4201.68 2824.06 -4201.92C2831.53 -4202.17 2838.91 -4200.35 2845.4 -4196.66L3019.37 -4083C3023.81 -4080.12 3028.77 -4078.13 3033.97 -4077.14L3213.2 -4043.27C3220.11 -4041.93 3226.56 -4038.82 3231.9 -4034.25C3237.25 -4029.68 3241.33 -4023.81 3243.73 -4017.2C3278.93 -3920.06 3217.26 -3690.12 3154.53 -3633.59C3149.85 -3629.26 3146.24 -3623.9 3143.99 -3617.94C3141.73 -3611.98 3140.89 -3605.58 3141.54 -3599.24L3177.34 -3217.63C3177.71 -3212.85 3177.26 -3208.04 3176 -3203.42L3160.04 -3143.29C3158.51 -3137.56 3155.73 -3132.23 3151.91 -3127.69C3148.09 -3123.14 3143.32 -3119.49 3137.94 -3116.98C3132.55 -3114.48 3126.68 -3113.18 3120.75 -3113.19C3114.81 -3113.2 3108.95 -3114.51 3103.57 -3117.02L3030.43 -3151.18C3024.65 -3153.86 3019.59 -3157.87 3015.65 -3162.87C3011.71 -3167.87 3009.01 -3173.73 3007.76 -3179.98C2996.16 -3238.48 2971.15 -3365.31 2960.27 -3419.88C2958.75 -3427.6 2955.01 -3434.71 2949.5 -3440.33C2944 -3445.95 2936.96 -3449.84 2929.27 -3451.51L2865.28 -3465.64C2857.34 -3467.4 2849.06 -3466.76 2841.49 -3463.8L2813.5 -3452.51C2808.27 -3450.4 2803.54 -3447.24 2799.6 -3443.21C2795.66 -3439.17 2792.6 -3434.37 2790.63 -3429.1C2788.65 -3423.82 2787.79 -3418.2 2788.1 -3412.57C2788.42 -3406.95 2789.9 -3401.46 2792.46 -3396.45L2803.42 -3374.99C2808.15 -3365.76 2809.17 -3355.07 2806.25 -3345.11C2803.34 -3335.16 2796.72 -3326.69 2787.76 -3321.45L2574.36 -3197.41C2571.76 -3195.93 2569.36 -3194.13 2567.21 -3192.04C2511.92 -3147.36 2454.17 -3105.81 2394.23 -3067.6C2386.79 -3062.86 2381.1 -3055.83 2378.03 -3047.56C2374.96 -3039.3 2374.68 -3030.26 2377.23 -3021.83C2379.78 -3013.4 2385.03 -3006.03 2392.16 -3000.86C2399.3 -2995.69 2407.93 -2993 2416.75 -2993.2L2895.2 -2996.62L3384.69 -2988.94C3392.02 -2988.83 3399.18 -2986.74 3405.42 -2982.89C3411.66 -2979.05 3416.75 -2973.6 3420.14 -2967.1L3526.72 -2758.46C3528.16 -2755.64 3529.93 -2753.01 3532.01 -2750.63L3846.83 -2383.55C3850.72 -2378.89 3853.51 -2373.42 3855.01 -2367.54L3856.16 -2363.18C3858.2 -2355.75 3858.07 -2347.9 3855.78 -2340.53C3853.49 -2333.17 3849.15 -2326.62 3843.25 -2321.64C3837.36 -2316.67 3830.17 -2313.48 3822.52 -2312.46C3814.88 -2311.43 3807.1 -2312.62 3800.12 -2315.87C3765.31 -2331.81 3730.58 -2348 3695.95 -2364.03C3693.22 -2365.32 3690.63 -2366.87 3688.2 -2368.67C3643.48 -2403.17 3598.85 -2437.5 3554.3 -2472.08C3548.29 -2476.72 3541.09 -2479.58 3533.52 -2480.33C3525.96 -2481.08 3518.33 -2479.69 3511.51 -2476.32C3504.69 -2472.95 3498.96 -2467.73 3494.96 -2461.26C3490.96 -2454.8 3488.86 -2447.34 3488.89 -2439.74L3489.14 -2420.32C3489.09 -2414.39 3490.38 -2408.53 3492.9 -2403.17C3495.42 -2397.8 3499.1 -2393.07 3503.69 -2389.31L3713.93 -2215.58C3718.65 -2211.81 3724.14 -2209.11 3730.01 -2207.68L3921.25 -2159.97C3927.9 -2158.26 3934.87 -2158.25 3941.52 -2159.96C3948.17 -2161.66 3954.28 -2165.03 3959.28 -2169.73L4014.36 -2219.35C4018.49 -2222.95 4023.22 -2225.8 4028.33 -2227.77L4385.41 -2341.66L4412.93 -2316.42C4415.15 -2317.55 4425.28 -2323.8 4444.31 -2332.45C4447.72 -2334.19 4442.49 -2356.22 4445.9 -2357.96C4462.95 -2366.67 4494.8 -2378 4494.8 -2378L4516.57 -2364.42L4567.48 -2380.54L4595.54 -2362.23C4602.79 -2361.86 4610.01 -2363.4 4616.48 -2366.7L4682.65 -2400.5C4687.79 -2403.12 4693.42 -2404.61 4699.18 -2404.88C4704.93 -2405.15 4710.68 -2404.2 4716.03 -2402.08C4721.39 -2399.96 4726.23 -2396.72 4730.24 -2392.59C4734.24 -2388.45 4737.32 -2383.51 4739.26 -2378.09L4871.02 -2009.85C4872.83 -2004.76 4873.6 -1999.37 4873.3 -1993.99C4872.99 -1988.6 4871.62 -1983.33 4869.25 -1978.48C4866.88 -1973.63 4863.56 -1969.3 4859.5 -1965.74C4855.44 -1962.18 4850.71 -1959.47 4845.59 -1957.76L4716.72 -1915.35C4709.8 -1912.98 4703.65 -1908.77 4698.93 -1903.18C4694.21 -1897.59 4691.1 -1890.83 4689.92 -1883.62L4677.82 -1813.01C4676.26 -1803.2 4671.13 -1794.31 4663.43 -1788.04C4655.72 -1781.77 4645.98 -1778.55 4636.05 -1779C4537.46 -1783.83 4365.34 -1828.21 4275.49 -1895.49C4272.28 -1898.03 4269.41 -1900.97 4266.94 -1904.23C4225.08 -1962.88 4183.19 -2021.59 4141.27 -2080.36C4135.32 -2088.77 4126.37 -2094.58 4116.26 -2096.6C4106.15 -2098.62 4095.64 -2096.71 4086.9 -2091.24L3764.5 -1892.2C3758.89 -1888.77 3752.53 -1886.78 3745.97 -1886.38L3571.81 -1875.38C3562.07 -1874.73 3552.43 -1877.63 3544.67 -1883.53C3536.91 -1889.44 3531.56 -1897.95 3529.6 -1907.5L3493.59 -2082.4C3492.09 -2088.69 3489.1 -2094.53 3484.89 -2099.43L3414.8 -2189.49C3408.25 -2197.81 3398.7 -2203.24 3388.2 -2204.61C3377.69 -2205.99 3367.06 -2203.2 3358.57 -2196.85L3079.43 -1985.53C3075.07 -1982.12 3070.09 -1979.58 3064.77 -1978.04L2659.37 -1878.34C2653.78 -1876.78 2648.56 -1874.11 2644.02 -1870.5L2591.19 -1828.69C2586.59 -1825.17 2582.81 -1820.71 2580.07 -1815.61C2577.34 -1810.51 2575.72 -1804.89 2575.33 -1799.12L2566.32 -1558.27C2566.12 -1552.57 2564.72 -1546.98 2562.21 -1541.85C2559.7 -1536.73 2556.14 -1532.19 2551.76 -1528.53C2547.37 -1524.88 2542.27 -1522.18 2536.78 -1520.63C2531.29 -1519.07 2525.53 -1518.69 2519.88 -1519.51C2370.72 -1540.83 2112.69 -1493.21 1990.93 -1430.58C1986.04 -1428.04 1981.72 -1424.53 1978.24 -1420.26C1974.76 -1415.99 1972.19 -1411.06 1970.69 -1405.77C1969.18 -1400.47 1968.78 -1394.93 1969.49 -1389.47C1970.21 -1384.02 1972.04 -1378.77 1974.86 -1374.05L1979.56 -1364.85C1982.63 -1359.71 1984.51 -1353.96 1985.08 -1348C1985.65 -1342.04 1984.88 -1336.03 1982.84 -1330.4C1980.79 -1324.77 1977.52 -1319.67 1973.26 -1315.46C1969 -1311.24 1963.86 -1308.03 1958.2 -1306.05L1766.44 -1238.16C1761.4 -1236.39 1756.76 -1233.63 1752.79 -1230.06C1748.82 -1226.48 1745.6 -1222.16 1743.32 -1217.33C1714.37 -1154.44 1734.22 -987.176 1779.85 -935.315C1783.93 -930.952 1786.98 -925.729 1788.78 -920.03C1790.57 -914.331 1791.07 -908.301 1790.22 -902.384L1759.88 -705.833C1758.73 -698.517 1759.65 -691.028 1762.53 -684.211L1791.23 -619.19C1793.92 -612.604 1794.83 -605.424 1793.87 -598.372C1792.9 -591.32 1790.1 -584.643 1785.73 -579.013L1670.32 -429.855C1665.84 -424.077 1663.01 -417.193 1662.13 -409.937C1661.26 -402.681 1662.37 -395.326 1665.35 -388.656L1743.24 -212.172C1747.41 -202.844 1747.88 -192.279 1744.56 -182.61C1741.23 -172.941 1734.37 -164.887 1725.34 -160.074L1696.86 -145.525C1691.05 -142.403 1684.58 -140.733 1677.98 -140.658C1671.39 -140.582 1664.88 -142.105 1659.01 -145.095L1524.71 -213.942C1518.19 -217.28 1510.87 -218.77 1503.55 -218.25C1496.24 -217.731 1489.2 -215.222 1483.21 -210.996L1266.45 -57.3202C1260.47 -53.2134 1253.53 -50.7054 1246.3 -50.0345C1193.94 -44.7656 962.055 -25.5366 804.213 1.82891C796.782 3.09249 789.847 6.39899 784.186 11.377C778.525 16.3551 774.361 22.8081 772.161 30.0141L729.288 170.467C728.357 173.71 726.969 176.805 725.167 179.659L643.198 313.881C638.641 321.426 631.698 327.24 623.467 330.403L519.512 371.907C509.782 375.805 498.928 375.812 489.201 371.927L382.67 327.981Z" fill="#293135" stroke="#2D7D9A" stroke-opacity="0.38" stroke-miterlimit="10"/>
<path d="M909.36 502.01H896.08V488.72H880.09V502.01H866.81V517.99H880.09V531.28H896.08V517.99H909.36V502.01Z" fill="#2D7D9A"/>
<path d="M767.36 858.01H754.08V844.72H738.09V858.01H724.81V873.99H738.09V887.28H754.08V873.99H767.36V858.01Z" fill="#2D7D9A"/>
<path d="M833.36 724.01H820.08V710.72H804.09V724.01H790.81V739.99H804.09V753.28H820.08V739.99H833.36V724.01Z" fill="#2D7D9A"/>
<path d="M881.36 989.346H868.08V976.056H852.09V989.346H838.81V1005.33H852.09V1018.62H868.08V1005.33H881.36V989.346Z" fill="#2D7D9A"/>
<path d="M954.133 1269.67H940.853V1256.38H924.863V1269.67H911.583V1285.65H924.863V1298.94H940.853V1285.65H954.133V1269.67Z" fill="#2D7D9A"/>
<path d="M632.36 547.01H619.08V533.72H603.09V547.01H589.81V562.99H603.09V576.28H619.08V562.99H632.36V547.01Z" fill="#2D7D9A"/>
<path d="M557.36 1013.01H544.08V999.72H528.09V1013.01H514.81V1028.99H528.09V1042.28H544.08V1028.99H557.36V1013.01Z" fill="#2D7D9A"/>
<path d="M743.555 1092.67H730.275V1079.38H714.285V1092.67H701.005V1108.65H714.285V1121.94H730.275V1108.65H743.555V1092.67Z" fill="#2D7D9A"/>
<path d="M481.36 1317.67H468.08V1304.38H452.09V1317.67H438.81V1333.65H452.09V1346.94H468.08V1333.65H481.36V1317.67Z" fill="#2D7D9A"/>
</g>
<defs>
<clipPath id="clip0">
<rect width="1024" height="1400" fill="white"/>
</clipPath>
</defs>
</svg>
