<svg width="1024" height="1400" viewBox="0 0 1024 1400" fill="none" xmlns="http://www.w3.org/2000/svg">
<g clip-path="url(#clip0)">
<path d="M1654.46 3544.47L1638.79 3416.96C1638.2 3412.46 1639.05 3407.88 1641.22 3403.88C1643.38 3399.88 1646.75 3396.67 1650.85 3394.69L1724.49 3162.49C1723.4 3159.37 1723.03 3156.04 1723.38 3152.75C1723.38 3152.75 1760.44 2854.84 1758.35 2850.75L1683.86 2744.91L1741.33 2577.88L1951.5 2372.16L2557.34 2028.75C2558.13 2025.23 2559.78 2021.95 2562.14 2019.21L2625.75 1943.77C2628.15 1941 2631.19 1938.86 2634.6 1937.53L3218.33 1718.38C3220.1 1717.8 3221.77 1716.95 3223.28 1715.86L3339.59 1634.97C3341.46 1634.01 3370.65 1569.49 3438.78 1618.66C3557.38 1704.34 3742.68 1926.9 3735.49 1938.09L3613.8 2126.74C3612.37 2128.92 3611.35 2131.33 3610.78 2133.87L3589.69 2226.04C3589.08 2228.94 3589.06 2231.94 3589.63 2234.84C3590.2 2237.75 3591.35 2240.52 3593 2242.97C3594.66 2245.43 3596.79 2247.53 3599.27 2249.15C3601.76 2250.77 3604.54 2251.88 3607.46 2252.4L3656.16 2260.6C3660.4 2261.38 3664.77 2260.86 3668.71 2259.11C3672.66 2257.37 3675.98 2254.48 3678.26 2250.82L3809.06 2045.9C3810.27 2044.05 3811.72 2042.37 3813.38 2040.9L3959.57 1917.05C3963.23 1914.01 3967.78 1912.24 3972.53 1911.99C3977.28 1911.75 3981.98 1913.06 3985.92 1915.71C3989.87 1918.36 3992.85 1922.22 3994.41 1926.7C3995.98 1931.19 3996.05 1936.06 3994.61 1940.6L3772.62 2621.2C3771.23 2625.73 3771.3 2630.57 3772.82 2635.06L3782.56 2664.23C3783.82 2668 3784.03 2672.05 3783.17 2675.94C3782.31 2679.83 3780.41 2683.41 3777.68 2686.31C3774.94 2689.2 3771.47 2691.3 3767.63 2692.39C3763.8 2693.47 3759.74 2693.49 3755.9 2692.45L3592.5 2647.06C3587.02 2645.51 3582.37 2641.89 3579.53 2636.96C3576.69 2632.03 3575.89 2626.18 3577.3 2620.67L3646.5 2337.26C3647.35 2334.06 3647.45 2330.71 3646.79 2327.47C3646.13 2324.22 3644.74 2321.18 3642.71 2318.56C3640.69 2315.94 3638.09 2313.82 3635.12 2312.36C3632.15 2310.91 3628.88 2310.16 3625.56 2310.16L3599.7 2309.63C3594.83 2309.61 3590.08 2311.18 3586.18 2314.11C3582.28 2317.03 3579.44 2321.14 3578.08 2325.82L3539.91 2465.38L3539.41 2466.92L3473.54 2654.13C3472.52 2657.07 3470.88 2659.76 3468.72 2662.01C3466.57 2664.26 3463.96 2666.02 3461.06 2667.16L3119.5 2803.84C3116.09 2805.09 3113.11 2807.29 3110.9 2810.17L3060.01 2870.09C3057.05 2873.59 3055.25 2877.93 3054.87 2882.49C3054.49 2887.05 3055.54 2891.62 3057.88 2895.56C3060.22 2899.49 3063.74 2902.6 3067.93 2904.44C3072.12 2906.28 3076.79 2906.77 3081.28 2905.84L3330.2 2854.71L3333.37 2854.17L3496.32 2844.81C3499.55 2844.61 3502.78 2845.13 3505.78 2846.32C3508.79 2847.52 3511.49 2849.36 3513.7 2851.72C3515.91 2854.07 3517.57 2856.89 3518.57 2859.96C3519.56 2863.03 3519.87 2866.29 3519.47 2869.49L3511.5 2931.77C3511 2935.31 3509.67 2938.68 3507.61 2941.6C3505.55 2944.52 3502.82 2946.91 3499.64 2948.56L3388.28 3005.45C3386.04 3006.53 3383.65 3007.24 3381.19 3007.57L3374.18 3008.57C3371.68 3008.98 3369.26 3009.79 3367 3010.95L3306.39 3043.41C3301.48 3045.82 3297.65 3049.98 3295.66 3055.07C3293.68 3060.16 3293.67 3065.81 3295.65 3070.9C3297.63 3075.99 3301.44 3080.15 3306.35 3082.56C3311.25 3084.97 3316.88 3085.45 3322.13 3083.91L3551.05 3026.89C3552.67 3026.28 3554.21 3025.49 3555.66 3024.54L3712.03 2942.94C3738.74 2945.41 3765.56 2946.48 3792.38 2946.15C3818.24 2935.86 3843.07 2923.17 3866.56 2908.25C3871.25 2908.69 3875.98 2907.97 3880.33 2906.16C3837.42 2935.81 3798.43 2963.46 3755.51 2993.11L3753.98 2993.9L3604.92 3123.08C3603.48 3124.04 3601.94 3124.83 3600.32 3125.43L3463.88 3195.13C3461.18 3196.53 3458.79 3198.47 3456.88 3200.83C3454.96 3203.2 3453.56 3205.94 3452.75 3208.87C3451.95 3211.8 3451.76 3214.87 3452.2 3217.88C3452.64 3220.89 3453.7 3223.77 3455.32 3226.35L3595.57 3448.72C3596.76 3450.64 3598.28 3452.34 3600.07 3453.73L3707.75 3544.98C3709.99 3546.84 3791.61 3612.75 3785.13 3626.58C3767.88 3663.96 3644.05 3672.02 3644.05 3672.02C3641.34 3675.97 3637.38 3678.89 3632.81 3680.34L3454.07 3738.35C3451.22 3739.16 3448.55 3740.53 3446.22 3742.36L3241.3 3961.72C3185.11 4046.99 3122.84 4128.11 3054.98 4204.45C2982.32 4283.22 2897.14 4337.05 2890.36 4335.14L2719.43 4290.16C2714.68 4288.85 2710.51 4286 2707.56 4282.07C2704.62 4278.13 2703.07 4273.32 2703.15 4268.4L2704.95 4183.51C2705.03 4180.24 2704.38 4177 2703.05 4174.01C2701.72 4171.02 2699.74 4168.37 2697.26 4166.25C2694.77 4164.12 2691.84 4162.58 2688.68 4161.73C2685.52 4160.88 2682.21 4160.74 2678.99 4161.33L2207.08 4252.06C2201.86 4253.13 2196.42 4252.23 2191.82 4249.54C2191.82 4249.54 1621.97 4226 1616.5 4217.83C1616.5 4217.83 1483.36 4102 1491.33 3976.16C1501.67 3793.05 1655.74 3576.03 1654.46 3544.47Z" fill="#293135" stroke="#2D7D9A" stroke-miterlimit="10"/>
<path d="M382.67 4156.98C341.455 4142.81 316.523 3496.21 388.392 3330.85C391.554 3323.69 392.445 3315.74 390.948 3308.07C373.156 3194.09 400.77 2766.13 386.026 2679.59C374.395 2610.79 362.286 2543.02 349.701 2476.29C347.945 2466.5 349.814 2456.41 354.961 2447.89C360.107 2439.37 368.179 2433.01 377.668 2430L614.005 2357.6C619.785 2355.81 625.094 2352.75 629.548 2348.66C634.002 2344.56 637.49 2339.53 639.758 2333.92L710.444 2159.93C712.312 2155.53 714.882 2151.46 718.053 2147.88L852.479 1999.32C857.801 1993.41 861.27 1986.07 862.455 1978.21C863.639 1970.35 862.487 1962.32 859.142 1955.11C831.523 1896.42 819.833 1869.74 751.973 1737.32C750.073 1733.64 748.714 1729.7 747.939 1725.63C721.166 1539.84 713.445 1351.79 724.897 1164.4C725.386 1157.25 723.973 1150.11 720.8 1143.69C717.628 1137.27 712.811 1131.8 706.837 1127.85C700.864 1123.9 693.948 1121.6 686.792 1121.18C679.637 1120.77 672.497 1122.26 666.1 1125.49L654.503 1131.42C649.46 1134.02 643.921 1135.52 638.255 1135.82C632.589 1136.13 626.924 1135.22 621.637 1133.17L311.145 1014.94C308.733 1014.02 306.231 1013.35 303.68 1012.95C246.657 1002.78 -430.829 883.874 -634.286 808.471C-640.128 806.318 -645.396 802.849 -649.679 798.333C-653.962 793.817 -657.146 788.375 -658.985 782.43L-674.551 731.749C-677.054 723.508 -682.119 716.28 -689.012 711.113C-695.904 705.945 -704.267 703.107 -712.887 703.009L-840.389 702.205C-847.956 702.215 -855.369 700.081 -861.767 696.051C-868.165 692.02 -873.286 686.258 -876.536 679.434C-935.069 556.848 -980.152 266.099 -942.294 109.094C-940.896 103.37 -938.289 98.0099 -934.65 93.3726C-931.01 88.7354 -926.421 84.928 -921.191 82.2062L-818.865 29.9362C-814.113 27.5142 -809.884 24.181 -806.421 20.1268C-802.957 16.0727 -800.326 11.3772 -798.677 6.30856L-716.137 -247.616C-713.946 -254.465 -713.606 -261.769 -715.152 -268.787C-716.697 -275.805 -720.074 -282.288 -724.938 -287.578L-771.748 -337.118C-776.032 -341.762 -779.168 -347.343 -780.909 -353.416C-782.65 -359.489 -782.946 -365.886 -781.773 -372.097C-780.601 -378.308 -777.993 -384.16 -774.157 -389.188C-770.321 -394.216 -765.363 -398.28 -759.679 -401.055C-634.817 -461.83 -424.542 -506.53 -299.664 -502.023C-289.906 -501.682 -280.606 -497.82 -273.484 -491.153C-266.362 -484.486 -261.901 -475.464 -260.925 -465.757C-258.145 -439.687 -255.706 -413.442 -252.756 -387.459C-252.002 -380.35 -249.381 -373.568 -245.158 -367.801C-240.935 -362.033 -235.261 -357.486 -228.709 -354.618C-222.158 -351.751 -214.963 -350.666 -207.852 -351.473C-200.742 -352.28 -193.97 -354.951 -188.222 -359.214L-144.135 -392.044C-136.405 -398.218 -126.696 -401.376 -116.815 -400.931C-106.935 -400.486 -97.5575 -396.468 -90.4282 -389.625C-85.6955 -385.075 -79.9228 -381.749 -73.6101 -379.934C-67.2972 -378.119 -60.6349 -377.871 -54.2012 -379.211C-47.7674 -380.551 -41.7562 -383.439 -36.6887 -387.624C-31.6213 -391.808 -27.6505 -397.164 -25.1208 -403.226L140.387 -794.89C141.244 -797.071 142.348 -799.148 143.676 -801.08L364.956 -1146.71C368.568 -1152.7 370.57 -1159.52 370.768 -1166.51C370.967 -1173.49 369.355 -1180.41 366.088 -1186.59L262.552 -1389.28C260.923 -1392.59 258.79 -1395.63 256.228 -1398.29C175.84 -1481.15 283.749 -1837.8 340.212 -1949.55C344.722 -1958.46 352.374 -1965.38 361.69 -1968.99C371.006 -1972.6 381.327 -1972.64 390.658 -1969.09L507.467 -1924.81C514.058 -1922.24 521.217 -1921.48 528.206 -1922.59C535.195 -1923.71 541.762 -1926.67 547.231 -1931.16C611.461 -1982.65 830.201 -2155.6 919.917 -2189.61C928.271 -2192.69 937.398 -2192.94 945.906 -2190.35C954.415 -2187.76 961.837 -2182.45 967.042 -2175.24C1013.98 -2109.45 1061.07 -2043.65 1108.3 -1977.86C1112.96 -1971.34 1119.47 -1966.36 1126.99 -1963.57C1209.78 -1932.84 1711.87 -1744.75 1822.01 -1646.16C1827.7 -1641.08 1834.69 -1637.68 1842.2 -1636.36C1849.72 -1635.04 1857.46 -1635.84 1864.54 -1638.68C1968.84 -1676.35 2076.56 -1703.75 2186.17 -1720.5C2193.29 -1721.28 2200.08 -1723.94 2205.84 -1728.2C2211.6 -1732.46 2216.12 -1738.17 2218.94 -1744.76L2241.13 -1796.04C2243.59 -1801.82 2247.37 -1806.95 2252.16 -1811.02C2256.95 -1815.08 2262.63 -1817.98 2268.74 -1819.47C2274.84 -1820.97 2281.21 -1821.02 2287.34 -1819.62C2293.47 -1818.22 2299.18 -1815.41 2304.03 -1811.41C2372.03 -1755.74 2464.22 -1653.99 2502.85 -1577.94C2505.26 -1573.22 2508.58 -1569.03 2512.62 -1565.6C2516.66 -1562.17 2521.34 -1559.57 2526.39 -1557.96L2762.31 -1481.31C2771.63 -1478.24 2779.53 -1471.9 2784.55 -1463.46L2884.98 -1295.06L3016.36 -1037.87C3019.08 -1032.75 3020.65 -1027.1 3020.94 -1021.31L3025.4 -926.294C3025.75 -918.478 3028.35 -910.931 3032.9 -904.566C3037.45 -898.201 3043.75 -893.289 3051.03 -890.422L3173.17 -842.854C3179.54 -840.371 3185.17 -836.315 3189.53 -831.065C3193.9 -825.816 3196.86 -819.544 3198.13 -812.837C3199.41 -806.13 3198.97 -799.207 3196.84 -792.716C3194.71 -786.224 3190.97 -780.376 3185.96 -775.72C3149.68 -741.508 3089.84 -707.935 3049.53 -706.027C3041.83 -705.709 3034.38 -703.197 3028.06 -698.788C3021.74 -694.38 3016.81 -688.258 3013.85 -681.145L2944.29 -516.749C2941.89 -511.049 2938.24 -505.958 2933.62 -501.85C2842.89 -423.932 2614.31 -418.851 2507.24 -360.719C2501.94 -357.764 2497.38 -353.661 2493.88 -348.714C2490.38 -343.766 2488.03 -338.1 2487 -332.129L2437.16 -38.204C2435.92 -30.8045 2436.77 -23.2111 2439.6 -16.2674C2442.43 -9.32403 2447.13 -3.30247 2453.18 1.12807C2459.23 5.55882 2466.4 8.22492 2473.88 8.83001C2481.36 9.43509 2488.86 7.95548 2495.56 4.55582L2795.71 -148.769C2801.29 -151.709 2806.1 -155.904 2809.78 -161.024C2813.45 -166.144 2815.89 -172.048 2816.88 -178.266C2817.88 -184.485 2817.41 -190.849 2815.52 -196.854C2813.63 -202.859 2810.36 -208.339 2805.98 -212.862L2745.45 -275.367C2741.18 -279.812 2737.98 -285.174 2736.09 -291.044C2734.21 -296.914 2733.69 -303.138 2734.57 -309.242C2735.45 -315.346 2737.72 -321.17 2741.19 -326.271C2744.66 -331.372 2749.26 -335.616 2754.62 -338.679L2803.11 -366.244C2809.35 -370.363 2816.6 -372.675 2824.06 -372.925C2831.53 -373.174 2838.91 -371.351 2845.4 -367.657L3019.37 -253.996C3023.81 -251.119 3028.77 -249.13 3033.97 -248.14L3213.2 -214.269C3220.11 -212.928 3226.56 -209.821 3231.9 -205.252C3237.25 -200.683 3241.33 -194.807 3243.73 -188.195C3278.93 -91.0643 3217.26 138.885 3154.53 195.413C3149.85 199.745 3146.24 205.101 3143.99 211.061C3141.73 217.02 3140.89 223.42 3141.54 229.756L3177.34 611.368C3177.71 616.147 3177.26 620.956 3176 625.583L3160.04 685.706C3158.51 691.439 3155.73 696.766 3151.91 701.312C3148.09 705.858 3143.32 709.512 3137.94 712.017C3132.55 714.522 3126.68 715.817 3120.75 715.809C3114.81 715.802 3108.95 714.493 3103.57 711.975L3030.43 677.82C3024.65 675.138 3019.59 671.133 3015.65 666.13C3011.71 661.127 3009.01 655.266 3007.76 649.022C2996.16 590.52 2971.15 463.692 2960.27 409.118C2958.75 401.398 2955.01 394.291 2949.5 388.671C2944 383.051 2936.96 379.164 2929.27 377.488L2865.28 363.355C2857.34 361.598 2849.06 362.24 2841.49 365.198L2813.5 376.491C2808.27 378.595 2803.54 381.764 2799.6 385.795C2795.66 389.826 2792.6 394.631 2790.63 399.905C2788.65 405.178 2787.79 410.805 2788.1 416.426C2788.42 422.047 2789.9 427.539 2792.46 432.554L2803.42 454.014C2808.15 463.24 2809.17 473.929 2806.25 483.886C2803.34 493.842 2796.72 502.31 2787.76 507.547L2574.36 631.589C2571.76 633.07 2569.36 634.874 2567.21 636.959C2511.92 681.642 2454.17 723.189 2394.23 761.402C2386.79 766.136 2381.1 773.173 2378.03 781.437C2374.96 789.702 2374.68 798.739 2377.23 807.172C2379.78 815.604 2385.03 822.967 2392.16 828.137C2399.3 833.307 2407.93 836 2416.75 835.804L2895.2 832.378L3384.69 840.059C3392.02 840.175 3399.18 842.264 3405.42 846.107C3411.66 849.95 3416.75 855.404 3420.14 861.895L3526.72 1070.54C3528.16 1073.36 3529.93 1075.99 3532.01 1078.37L3846.83 1445.45C3850.72 1450.11 3853.51 1455.58 3855.01 1461.46L3856.16 1465.82C3858.2 1473.25 3858.07 1481.1 3855.78 1488.47C3853.49 1495.83 3849.15 1502.38 3843.25 1507.36C3837.36 1512.33 3830.17 1515.52 3822.52 1516.54C3814.88 1517.57 3807.1 1516.38 3800.12 1513.13C3765.31 1497.19 3730.58 1481 3695.95 1464.97C3693.22 1463.68 3690.63 1462.13 3688.2 1460.33C3643.48 1425.83 3598.85 1391.5 3554.3 1356.92C3548.29 1352.28 3541.09 1349.42 3533.52 1348.67C3525.96 1347.92 3518.33 1349.31 3511.51 1352.68C3504.69 1356.05 3498.96 1361.27 3494.96 1367.74C3490.96 1374.2 3488.86 1381.66 3488.89 1389.26L3489.14 1408.68C3489.09 1414.61 3490.38 1420.47 3492.9 1425.83C3495.42 1431.2 3499.1 1435.93 3503.69 1439.69L3713.93 1613.42C3718.65 1617.19 3724.14 1619.89 3730.01 1621.32L3921.25 1669.03C3927.9 1670.74 3934.87 1670.75 3941.52 1669.04C3948.17 1667.34 3954.28 1663.97 3959.28 1659.27L4014.36 1609.65C4018.49 1606.05 4023.22 1603.2 4028.33 1601.23L4385.41 1487.34L4412.93 1512.58C4415.15 1511.45 4425.28 1505.2 4444.31 1496.55C4447.72 1494.81 4442.49 1472.78 4445.9 1471.04C4462.95 1462.33 4494.8 1451 4494.8 1451L4516.57 1464.58L4567.48 1448.46L4595.54 1466.77C4602.79 1467.14 4610.01 1465.6 4616.48 1462.3L4682.65 1428.5C4687.79 1425.88 4693.42 1424.39 4699.18 1424.12C4704.93 1423.85 4710.68 1424.8 4716.03 1426.92C4721.39 1429.04 4726.23 1432.28 4730.24 1436.41C4734.24 1440.55 4737.32 1445.49 4739.26 1450.91L4871.02 1819.15C4872.83 1824.24 4873.6 1829.63 4873.3 1835.01C4872.99 1840.4 4871.62 1845.67 4869.25 1850.52C4866.88 1855.37 4863.56 1859.7 4859.5 1863.26C4855.44 1866.82 4850.71 1869.53 4845.59 1871.24L4716.72 1913.65C4709.8 1916.02 4703.65 1920.23 4698.93 1925.82C4694.21 1931.41 4691.1 1938.17 4689.92 1945.38L4677.82 2015.99C4676.26 2025.8 4671.13 2034.69 4663.43 2040.96C4655.72 2047.23 4645.98 2050.45 4636.05 2050C4537.46 2045.17 4365.34 2000.79 4275.49 1933.51C4272.28 1930.97 4269.41 1928.03 4266.94 1924.77C4225.08 1866.12 4183.19 1807.41 4141.27 1748.64C4135.32 1740.23 4126.37 1734.42 4116.26 1732.4C4106.15 1730.38 4095.64 1732.29 4086.9 1737.76L3764.5 1936.8C3758.89 1940.23 3752.53 1942.22 3745.97 1942.62L3571.81 1953.62C3562.07 1954.27 3552.43 1951.37 3544.67 1945.47C3536.91 1939.56 3531.56 1931.05 3529.6 1921.5L3493.59 1746.6C3492.09 1740.31 3489.1 1734.47 3484.89 1729.57L3414.8 1639.51C3408.25 1631.19 3398.7 1625.76 3388.2 1624.39C3377.69 1623.01 3367.06 1625.8 3358.57 1632.15L3079.43 1843.47C3075.07 1846.88 3070.09 1849.42 3064.77 1850.96L2659.37 1950.66C2653.78 1952.22 2648.56 1954.89 2644.02 1958.5L2591.19 2000.31C2586.59 2003.83 2582.81 2008.29 2580.07 2013.39C2577.34 2018.49 2575.72 2024.11 2575.33 2029.88L2566.32 2270.73C2566.12 2276.43 2564.72 2282.02 2562.21 2287.15C2559.7 2292.27 2556.14 2296.81 2551.76 2300.47C2547.37 2304.12 2542.27 2306.82 2536.78 2308.37C2531.29 2309.93 2525.53 2310.31 2519.88 2309.49C2370.72 2288.17 2112.69 2335.79 1990.93 2398.42C1986.04 2400.96 1981.72 2404.47 1978.24 2408.74C1974.76 2413.01 1972.19 2417.94 1970.69 2423.23C1969.18 2428.53 1968.78 2434.07 1969.49 2439.53C1970.21 2444.98 1972.04 2450.23 1974.86 2454.95L1979.56 2464.15C1982.63 2469.29 1984.51 2475.04 1985.08 2481C1985.65 2486.96 1984.88 2492.97 1982.84 2498.6C1980.79 2504.23 1977.52 2509.33 1973.26 2513.54C1969 2517.76 1963.86 2520.97 1958.2 2522.95L1766.44 2590.84C1761.4 2592.61 1756.76 2595.37 1752.79 2598.94C1748.82 2602.52 1745.6 2606.84 1743.32 2611.67C1714.37 2674.56 1734.22 2841.82 1779.85 2893.68C1783.93 2898.05 1786.98 2903.27 1788.78 2908.97C1790.57 2914.67 1791.07 2920.7 1790.22 2926.62L1759.88 3123.17C1758.73 3130.48 1759.65 3137.97 1762.53 3144.79L1791.23 3209.81C1793.92 3216.4 1794.83 3223.58 1793.87 3230.63C1792.9 3237.68 1790.1 3244.36 1785.73 3249.99L1670.32 3399.15C1665.84 3404.92 1663.01 3411.81 1662.13 3419.06C1661.26 3426.32 1662.37 3433.67 1665.35 3440.34L1743.24 3616.83C1747.41 3626.16 1747.88 3636.72 1744.56 3646.39C1741.23 3656.06 1734.37 3664.11 1725.34 3668.93L1696.86 3683.47C1691.05 3686.6 1684.58 3688.27 1677.98 3688.34C1671.39 3688.42 1664.88 3686.89 1659.01 3683.91L1524.71 3615.06C1518.19 3611.72 1510.87 3610.23 1503.55 3610.75C1496.24 3611.27 1489.2 3613.78 1483.21 3618L1266.45 3771.68C1260.47 3775.79 1253.53 3778.29 1246.3 3778.97C1193.94 3784.23 962.055 3803.46 804.213 3830.83C796.782 3832.09 789.847 3835.4 784.186 3840.38C778.525 3845.36 774.361 3851.81 772.161 3859.01L729.288 3999.47C728.357 4002.71 726.969 4005.81 725.167 4008.66L643.198 4142.88C638.641 4150.43 631.698 4156.24 623.467 4159.4L519.512 4200.91C509.782 4204.81 498.928 4204.81 489.201 4200.93L382.67 4156.98Z" fill="#293135" stroke="#2D7D9A" stroke-opacity="0.38" stroke-miterlimit="10"/>
<path d="M749.33 676.315V666.315H757.33V676.315C757.33 676.846 757.541 677.354 757.916 677.729C758.291 678.105 758.8 678.315 759.33 678.315H765.33C765.861 678.315 766.369 678.105 766.744 677.729C767.119 677.354 767.33 676.846 767.33 676.315V662.315H770.73C770.931 662.313 771.126 662.25 771.291 662.135C771.455 662.02 771.581 661.858 771.653 661.67C771.724 661.482 771.737 661.277 771.69 661.082C771.643 660.887 771.539 660.71 771.39 660.575L754.67 645.515C754.303 645.184 753.825 645 753.33 645C752.835 645 752.358 645.184 751.99 645.515L735.33 660.575C735.184 660.707 735.081 660.878 735.032 661.068C734.983 661.258 734.991 661.458 735.055 661.644C735.119 661.829 735.236 661.992 735.391 662.111C735.547 662.231 735.734 662.302 735.93 662.315H739.33V676.315C739.33 676.846 739.541 677.354 739.916 677.729C740.291 678.105 740.8 678.315 741.33 678.315H747.33C747.861 678.315 748.369 678.105 748.744 677.729C749.119 677.354 749.33 676.846 749.33 676.315Z" fill="#2D7D9A"/>
<path d="M873.33 495.315V485.315H881.33V495.315C881.33 495.846 881.541 496.354 881.916 496.729C882.291 497.105 882.8 497.315 883.33 497.315H889.33C889.861 497.315 890.369 497.105 890.744 496.729C891.119 496.354 891.33 495.846 891.33 495.315V481.315H894.73C894.931 481.313 895.126 481.25 895.291 481.135C895.455 481.02 895.581 480.858 895.653 480.67C895.724 480.482 895.737 480.277 895.69 480.082C895.643 479.887 895.539 479.71 895.39 479.575L878.67 464.515C878.303 464.184 877.825 464 877.33 464C876.835 464 876.358 464.184 875.99 464.515L859.33 479.575C859.184 479.707 859.081 479.878 859.032 480.068C858.983 480.258 858.991 480.458 859.055 480.644C859.119 480.829 859.236 480.992 859.391 481.111C859.547 481.231 859.734 481.302 859.93 481.315H863.33V495.315C863.33 495.846 863.541 496.354 863.916 496.729C864.291 497.105 864.8 497.315 865.33 497.315H871.33C871.861 497.315 872.369 497.105 872.744 496.729C873.119 496.354 873.33 495.846 873.33 495.315Z" fill="#2D7D9A"/>
<path d="M957.33 709.315V699.315H965.33V709.315C965.33 709.846 965.541 710.354 965.916 710.729C966.291 711.105 966.8 711.315 967.33 711.315H973.33C973.861 711.315 974.369 711.105 974.744 710.729C975.119 710.354 975.33 709.846 975.33 709.315V695.315H978.73C978.931 695.313 979.126 695.25 979.291 695.135C979.455 695.02 979.581 694.858 979.653 694.67C979.724 694.482 979.737 694.277 979.69 694.082C979.643 693.887 979.539 693.71 979.39 693.575L962.67 678.515C962.303 678.184 961.825 678 961.33 678C960.835 678 960.358 678.184 959.99 678.515L943.33 693.575C943.184 693.707 943.081 693.878 943.032 694.068C942.983 694.258 942.991 694.458 943.055 694.644C943.119 694.829 943.236 694.992 943.391 695.111C943.547 695.231 943.734 695.302 943.93 695.315H947.33V709.315C947.33 709.846 947.541 710.354 947.916 710.729C948.291 711.105 948.8 711.315 949.33 711.315H955.33C955.861 711.315 956.369 711.105 956.744 710.729C957.119 710.354 957.33 709.846 957.33 709.315Z" fill="#2D7D9A"/>
<path d="M606.33 914.315V904.315H614.33V914.315C614.33 914.846 614.541 915.354 614.916 915.729C615.291 916.105 615.8 916.315 616.33 916.315H622.33C622.861 916.315 623.369 916.105 623.744 915.729C624.119 915.354 624.33 914.846 624.33 914.315V900.315H627.73C627.931 900.313 628.126 900.25 628.291 900.135C628.455 900.02 628.581 899.858 628.653 899.67C628.724 899.482 628.737 899.277 628.69 899.082C628.643 898.887 628.539 898.71 628.39 898.575L611.67 883.515C611.303 883.184 610.825 883 610.33 883C609.835 883 609.358 883.184 608.99 883.515L592.33 898.575C592.184 898.707 592.081 898.878 592.032 899.068C591.983 899.258 591.991 899.458 592.055 899.644C592.119 899.829 592.236 899.992 592.391 900.111C592.547 900.231 592.734 900.302 592.93 900.315H596.33V914.315C596.33 914.846 596.541 915.354 596.916 915.729C597.291 916.105 597.8 916.315 598.33 916.315H604.33C604.861 916.315 605.369 916.105 605.744 915.729C606.119 915.354 606.33 914.846 606.33 914.315Z" fill="#2D7D9A"/>
<path d="M407.33 988.315V978.315H415.33V988.315C415.33 988.846 415.541 989.354 415.916 989.729C416.291 990.105 416.8 990.315 417.33 990.315H423.33C423.861 990.315 424.369 990.105 424.744 989.729C425.119 989.354 425.33 988.846 425.33 988.315V974.315H428.73C428.931 974.313 429.126 974.25 429.291 974.135C429.455 974.02 429.581 973.858 429.653 973.67C429.724 973.482 429.737 973.277 429.69 973.082C429.643 972.887 429.539 972.71 429.39 972.575L412.67 957.515C412.303 957.184 411.825 957 411.33 957C410.835 957 410.358 957.184 409.99 957.515L393.33 972.575C393.184 972.707 393.081 972.878 393.032 973.068C392.983 973.258 392.991 973.458 393.055 973.644C393.119 973.829 393.236 973.992 393.391 974.111C393.547 974.231 393.734 974.302 393.93 974.315H397.33V988.315C397.33 988.846 397.541 989.354 397.916 989.729C398.291 990.105 398.8 990.315 399.33 990.315H405.33C405.861 990.315 406.369 990.105 406.744 989.729C407.119 989.354 407.33 988.846 407.33 988.315Z" fill="#2D7D9A"/>
<path d="M793.33 898.315V888.315H801.33V898.315C801.33 898.846 801.541 899.354 801.916 899.729C802.291 900.105 802.8 900.315 803.33 900.315H809.33C809.861 900.315 810.369 900.105 810.744 899.729C811.119 899.354 811.33 898.846 811.33 898.315V884.315H814.73C814.931 884.313 815.126 884.25 815.291 884.135C815.455 884.02 815.581 883.858 815.653 883.67C815.724 883.482 815.737 883.277 815.69 883.082C815.643 882.887 815.539 882.71 815.39 882.575L798.67 867.515C798.303 867.184 797.825 867 797.33 867C796.835 867 796.358 867.184 795.99 867.515L779.33 882.575C779.184 882.707 779.081 882.878 779.032 883.068C778.983 883.258 778.991 883.458 779.055 883.644C779.119 883.829 779.236 883.992 779.391 884.111C779.547 884.231 779.734 884.302 779.93 884.315H783.33V898.315C783.33 898.846 783.541 899.354 783.916 899.729C784.291 900.105 784.8 900.315 785.33 900.315H791.33C791.861 900.315 792.369 900.105 792.744 899.729C793.119 899.354 793.33 898.846 793.33 898.315Z" fill="#2D7D9A"/>
<path d="M693.33 1088.32V1078.32H701.33V1088.32C701.33 1088.85 701.541 1089.35 701.916 1089.73C702.291 1090.1 702.8 1090.32 703.33 1090.32H709.33C709.861 1090.32 710.369 1090.1 710.744 1089.73C711.119 1089.35 711.33 1088.85 711.33 1088.32V1074.32H714.73C714.931 1074.31 715.126 1074.25 715.291 1074.13C715.455 1074.02 715.581 1073.86 715.653 1073.67C715.724 1073.48 715.737 1073.28 715.69 1073.08C715.643 1072.89 715.539 1072.71 715.39 1072.58L698.67 1057.52C698.303 1057.18 697.825 1057 697.33 1057C696.835 1057 696.358 1057.18 695.99 1057.52L679.33 1072.58C679.184 1072.71 679.081 1072.88 679.032 1073.07C678.983 1073.26 678.991 1073.46 679.055 1073.64C679.119 1073.83 679.236 1073.99 679.391 1074.11C679.547 1074.23 679.734 1074.3 679.93 1074.32H683.33V1088.32C683.33 1088.85 683.541 1089.35 683.916 1089.73C684.291 1090.1 684.8 1090.32 685.33 1090.32H691.33C691.861 1090.32 692.369 1090.1 692.744 1089.73C693.119 1089.35 693.33 1088.85 693.33 1088.32Z" fill="#2D7D9A"/>
<path d="M811.33 1339.32V1329.32H819.33V1339.32C819.33 1339.85 819.541 1340.35 819.916 1340.73C820.291 1341.1 820.8 1341.32 821.33 1341.32H827.33C827.861 1341.32 828.369 1341.1 828.744 1340.73C829.119 1340.35 829.33 1339.85 829.33 1339.32V1325.32H832.73C832.931 1325.31 833.126 1325.25 833.291 1325.13C833.455 1325.02 833.581 1324.86 833.653 1324.67C833.724 1324.48 833.737 1324.28 833.69 1324.08C833.643 1323.89 833.539 1323.71 833.39 1323.58L816.67 1308.52C816.303 1308.18 815.825 1308 815.33 1308C814.835 1308 814.358 1308.18 813.99 1308.52L797.33 1323.58C797.184 1323.71 797.081 1323.88 797.032 1324.07C796.983 1324.26 796.991 1324.46 797.055 1324.64C797.119 1324.83 797.236 1324.99 797.391 1325.11C797.547 1325.23 797.734 1325.3 797.93 1325.32H801.33V1339.32C801.33 1339.85 801.541 1340.35 801.916 1340.73C802.291 1341.1 802.8 1341.32 803.33 1341.32H809.33C809.861 1341.32 810.369 1341.1 810.744 1340.73C811.119 1340.35 811.33 1339.85 811.33 1339.32Z" fill="#2D7D9A"/>
<path d="M712.33 424.315V414.315H720.33V424.315C720.33 424.846 720.541 425.354 720.916 425.729C721.291 426.105 721.8 426.315 722.33 426.315H728.33C728.861 426.315 729.369 426.105 729.744 425.729C730.119 425.354 730.33 424.846 730.33 424.315V410.315H733.73C733.931 410.313 734.126 410.25 734.291 410.135C734.455 410.02 734.581 409.858 734.653 409.67C734.724 409.482 734.737 409.277 734.69 409.082C734.643 408.887 734.539 408.71 734.39 408.575L717.67 393.515C717.303 393.184 716.825 393 716.33 393C715.835 393 715.358 393.184 714.99 393.515L698.33 408.575C698.184 408.707 698.081 408.878 698.032 409.068C697.983 409.258 697.991 409.458 698.055 409.644C698.119 409.829 698.236 409.992 698.391 410.111C698.547 410.231 698.734 410.302 698.93 410.315H702.33V424.315C702.33 424.846 702.541 425.354 702.916 425.729C703.291 426.105 703.8 426.315 704.33 426.315H710.33C710.861 426.315 711.369 426.105 711.744 425.729C712.119 425.354 712.33 424.846 712.33 424.315Z" fill="#2D7D9A"/>
<path d="M956.33 327.315V317.315H964.33V327.315C964.33 327.846 964.541 328.354 964.916 328.729C965.291 329.105 965.8 329.315 966.33 329.315H972.33C972.861 329.315 973.369 329.105 973.744 328.729C974.119 328.354 974.33 327.846 974.33 327.315V313.315H977.73C977.931 313.313 978.126 313.25 978.291 313.135C978.455 313.02 978.581 312.858 978.653 312.67C978.724 312.482 978.737 312.277 978.69 312.082C978.643 311.887 978.539 311.71 978.39 311.575L961.67 296.515C961.303 296.184 960.825 296 960.33 296C959.835 296 959.358 296.184 958.99 296.515L942.33 311.575C942.184 311.707 942.081 311.878 942.032 312.068C941.983 312.258 941.991 312.458 942.055 312.644C942.119 312.829 942.236 312.992 942.391 313.111C942.547 313.231 942.734 313.302 942.93 313.315H946.33V327.315C946.33 327.846 946.541 328.354 946.916 328.729C947.291 329.105 947.8 329.315 948.33 329.315H954.33C954.861 329.315 955.369 329.105 955.744 328.729C956.119 328.354 956.33 327.846 956.33 327.315Z" fill="#2D7D9A"/>
<path d="M938.33 1175.32V1165.32H946.33V1175.32C946.33 1175.85 946.541 1176.35 946.916 1176.73C947.291 1177.1 947.8 1177.32 948.33 1177.32H954.33C954.861 1177.32 955.369 1177.1 955.744 1176.73C956.119 1176.35 956.33 1175.85 956.33 1175.32V1161.32H959.73C959.931 1161.31 960.126 1161.25 960.291 1161.13C960.455 1161.02 960.581 1160.86 960.653 1160.67C960.724 1160.48 960.737 1160.28 960.69 1160.08C960.643 1159.89 960.539 1159.71 960.39 1159.58L943.67 1144.52C943.303 1144.18 942.825 1144 942.33 1144C941.835 1144 941.358 1144.18 940.99 1144.52L924.33 1159.58C924.184 1159.71 924.081 1159.88 924.032 1160.07C923.983 1160.26 923.991 1160.46 924.055 1160.64C924.119 1160.83 924.236 1160.99 924.391 1161.11C924.547 1161.23 924.734 1161.3 924.93 1161.32H928.33V1175.32C928.33 1175.85 928.541 1176.35 928.916 1176.73C929.291 1177.1 929.8 1177.32 930.33 1177.32H936.33C936.861 1177.32 937.369 1177.1 937.744 1176.73C938.119 1176.35 938.33 1175.85 938.33 1175.32Z" fill="#2D7D9A"/>
</g>
<defs>
<clipPath id="clip0">
<rect width="1024" height="1400" fill="white"/>
</clipPath>
</defs>
</svg>
