<svg width="1024" height="1400" viewBox="0 0 1024 1400" fill="none" xmlns="http://www.w3.org/2000/svg">
<g clip-path="url(#clip0)">
<path d="M385.67 6804.98C344.455 6790.81 319.523 6144.21 391.392 5978.85C394.554 5971.69 395.445 5963.74 393.948 5956.07C376.156 5842.09 403.77 5414.13 389.026 5327.59C377.395 5258.79 365.286 5191.02 352.701 5124.29C350.945 5114.5 352.814 5104.41 357.961 5095.89C363.107 5087.37 371.179 5081.01 380.668 5078L617.005 5005.6C622.785 5003.81 628.094 5000.75 632.548 4996.66C637.002 4992.56 640.49 4987.53 642.758 4981.92L713.444 4807.93C715.312 4803.53 717.882 4799.46 721.053 4795.88L855.479 4647.32C860.801 4641.41 864.27 4634.07 865.455 4626.21C866.639 4618.35 865.487 4610.32 862.142 4603.11C834.523 4544.42 822.833 4517.74 754.973 4385.32C753.073 4381.64 751.714 4377.7 750.939 4373.63C724.166 4187.84 716.445 3999.79 727.897 3812.4C728.386 3805.25 726.973 3798.11 723.8 3791.69C720.628 3785.27 715.811 3779.8 709.837 3775.85C703.864 3771.9 696.948 3769.6 689.792 3769.18C682.637 3768.77 675.497 3770.26 669.1 3773.49L657.503 3779.42C652.46 3782.02 646.921 3783.52 641.255 3783.82C635.589 3784.13 629.924 3783.22 624.637 3781.17L314.145 3662.94C311.733 3662.02 309.231 3661.35 306.68 3660.95C249.657 3650.78 -427.829 3531.87 -631.286 3456.47C-637.128 3454.32 -642.396 3450.85 -646.679 3446.33C-650.962 3441.82 -654.146 3436.38 -655.985 3430.43L-671.551 3379.75C-674.054 3371.51 -679.119 3364.28 -686.012 3359.11C-692.904 3353.95 -701.267 3351.11 -709.887 3351.01L-837.389 3350.2C-844.956 3350.22 -852.369 3348.08 -858.767 3344.05C-865.165 3340.02 -870.286 3334.26 -873.536 3327.43C-932.069 3204.85 -977.152 2914.1 -939.294 2757.09C-937.896 2751.37 -935.289 2746.01 -931.65 2741.37C-928.01 2736.74 -923.421 2732.93 -918.191 2730.21L-815.865 2677.94C-811.113 2675.51 -806.884 2672.18 -803.421 2668.13C-799.957 2664.07 -797.326 2659.38 -795.677 2654.31L-713.137 2400.38C-710.946 2393.54 -710.606 2386.23 -712.152 2379.21C-713.697 2372.19 -717.074 2365.71 -721.938 2360.42L-768.748 2310.88C-773.032 2306.24 -776.168 2300.66 -777.909 2294.58C-779.65 2288.51 -779.946 2282.11 -778.773 2275.9C-777.601 2269.69 -774.993 2263.84 -771.157 2258.81C-767.321 2253.78 -762.363 2249.72 -756.679 2246.94C-631.817 2186.17 -421.542 2141.47 -296.664 2145.98C-286.906 2146.32 -277.606 2150.18 -270.484 2156.85C-263.362 2163.51 -258.901 2172.54 -257.925 2182.24C-255.145 2208.31 -252.706 2234.56 -249.756 2260.54C-249.002 2267.65 -246.381 2274.43 -242.158 2280.2C-237.935 2285.97 -232.261 2290.51 -225.709 2293.38C-219.158 2296.25 -211.963 2297.33 -204.852 2296.53C-197.742 2295.72 -190.97 2293.05 -185.222 2288.79L-141.135 2255.96C-133.405 2249.78 -123.696 2246.62 -113.815 2247.07C-103.935 2247.51 -94.5575 2251.53 -87.4282 2258.37C-82.6955 2262.92 -76.9228 2266.25 -70.6101 2268.07C-64.2972 2269.88 -57.6349 2270.13 -51.2012 2268.79C-44.7674 2267.45 -38.7562 2264.56 -33.6887 2260.38C-28.6213 2256.19 -24.6505 2250.84 -22.1208 2244.77L143.387 1853.11C144.244 1850.93 145.348 1848.85 146.676 1846.92L367.956 1501.29C371.568 1495.3 373.57 1488.48 373.768 1481.49C373.967 1474.51 372.355 1467.59 369.088 1461.41L265.552 1258.72C263.923 1255.41 261.79 1252.37 259.228 1249.71C178.84 1166.85 286.749 810.197 343.212 698.453C347.722 689.543 355.374 682.615 364.69 679.007C374.006 675.398 384.327 675.365 393.658 678.913L510.467 723.193C517.058 725.76 524.217 726.524 531.206 725.408C538.195 724.291 544.762 721.334 550.231 716.841C614.461 665.347 833.201 492.401 922.917 458.385C931.271 455.313 940.398 455.055 948.906 457.65C957.415 460.245 964.837 465.55 970.042 472.757C1016.98 538.552 1064.07 604.345 1111.3 670.137C1115.96 676.66 1122.47 681.636 1129.99 684.426C1212.78 715.156 1714.87 903.254 1825.01 1001.84C1830.7 1006.92 1837.69 1010.32 1845.2 1011.64C1852.72 1012.96 1860.46 1012.16 1867.54 1009.32C1971.84 971.653 2079.56 944.249 2189.17 927.501C2196.29 926.721 2203.08 924.064 2208.84 919.802C2214.6 915.54 2219.12 909.825 2221.94 903.245L2244.13 851.963C2246.59 846.182 2250.37 841.053 2255.16 836.984C2259.95 832.916 2265.63 830.02 2271.74 828.527C2277.84 827.034 2284.21 826.985 2290.34 828.384C2296.47 829.784 2302.18 832.592 2307.03 836.587C2375.03 892.265 2467.22 994.009 2505.85 1070.06C2508.26 1074.78 2511.58 1078.97 2515.62 1082.4C2519.66 1085.83 2524.34 1088.43 2529.39 1090.04L2765.31 1166.69C2774.63 1169.76 2782.53 1176.1 2787.55 1184.54L2887.98 1352.94L3019.36 1610.13C3022.08 1615.25 3023.65 1620.9 3023.94 1626.69L3028.4 1721.71C3028.75 1729.52 3031.35 1737.07 3035.9 1743.43C3040.45 1749.8 3046.75 1754.71 3054.03 1757.58L3176.17 1805.15C3182.54 1807.63 3188.17 1811.68 3192.53 1816.93C3196.9 1822.18 3199.86 1828.46 3201.13 1835.16C3202.41 1841.87 3201.97 1848.79 3199.84 1855.28C3197.71 1861.78 3193.97 1867.62 3188.96 1872.28C3152.68 1906.49 3092.84 1940.06 3052.53 1941.97C3044.83 1942.29 3037.38 1944.8 3031.06 1949.21C3024.74 1953.62 3019.81 1959.74 3016.85 1966.85L2947.29 2131.25C2944.89 2136.95 2941.24 2142.04 2936.62 2146.15C2845.89 2224.07 2617.31 2229.15 2510.24 2287.28C2504.94 2290.24 2500.38 2294.34 2496.88 2299.29C2493.38 2304.23 2491.03 2309.9 2490 2315.87L2440.16 2609.8C2438.92 2617.2 2439.77 2624.79 2442.6 2631.73C2445.43 2638.68 2450.13 2644.7 2456.18 2649.13C2462.23 2653.56 2469.4 2656.22 2476.88 2656.83C2484.36 2657.44 2491.86 2655.96 2498.56 2652.56L2798.71 2499.23C2804.29 2496.29 2809.1 2492.1 2812.78 2486.98C2816.45 2481.86 2818.89 2475.95 2819.88 2469.73C2820.88 2463.51 2820.41 2457.15 2818.52 2451.15C2816.63 2445.14 2813.36 2439.66 2808.98 2435.14L2748.45 2372.63C2744.18 2368.19 2740.98 2362.83 2739.09 2356.96C2737.21 2351.09 2736.69 2344.86 2737.57 2338.76C2738.45 2332.65 2740.72 2326.83 2744.19 2321.73C2747.66 2316.63 2752.26 2312.38 2757.62 2309.32L2806.11 2281.76C2812.35 2277.64 2819.6 2275.32 2827.06 2275.08C2834.53 2274.83 2841.91 2276.65 2848.4 2280.34L3022.37 2394C3026.81 2396.88 3031.77 2398.87 3036.97 2399.86L3216.2 2433.73C3223.11 2435.07 3229.56 2438.18 3234.9 2442.75C3240.25 2447.32 3244.33 2453.19 3246.73 2459.8C3281.93 2556.94 3220.26 2786.88 3157.53 2843.41C3152.85 2847.74 3149.24 2853.1 3146.99 2859.06C3144.73 2865.02 3143.89 2871.42 3144.54 2877.76L3180.34 3259.37C3180.71 3264.15 3180.26 3268.96 3179 3273.58L3163.04 3333.71C3161.51 3339.44 3158.73 3344.77 3154.91 3349.31C3151.09 3353.86 3146.32 3357.51 3140.94 3360.02C3135.55 3362.52 3129.68 3363.82 3123.75 3363.81C3117.81 3363.8 3111.95 3362.49 3106.57 3359.98L3033.43 3325.82C3027.65 3323.14 3022.59 3319.13 3018.65 3314.13C3014.71 3309.13 3012.01 3303.27 3010.76 3297.02C2999.16 3238.52 2974.15 3111.69 2963.27 3057.12C2961.75 3049.4 2958.01 3042.29 2952.5 3036.67C2947 3031.05 2939.96 3027.16 2932.27 3025.49L2868.28 3011.36C2860.34 3009.6 2852.06 3010.24 2844.49 3013.2L2816.5 3024.49C2811.27 3026.6 2806.54 3029.76 2802.6 3033.79C2798.66 3037.83 2795.6 3042.63 2793.63 3047.9C2791.65 3053.18 2790.79 3058.8 2791.1 3064.43C2791.42 3070.05 2792.9 3075.54 2795.46 3080.55L2806.42 3102.01C2811.15 3111.24 2812.17 3121.93 2809.25 3131.89C2806.34 3141.84 2799.72 3150.31 2790.76 3155.55L2577.36 3279.59C2574.76 3281.07 2572.36 3282.87 2570.21 3284.96C2514.92 3329.64 2457.17 3371.19 2397.23 3409.4C2389.79 3414.14 2384.1 3421.17 2381.03 3429.44C2377.96 3437.7 2377.68 3446.74 2380.23 3455.17C2382.78 3463.6 2388.03 3470.97 2395.16 3476.14C2402.3 3481.31 2410.93 3484 2419.75 3483.8L2898.2 3480.38L3387.69 3488.06C3395.02 3488.17 3402.18 3490.26 3408.42 3494.11C3414.66 3497.95 3419.75 3503.4 3423.14 3509.9L3529.72 3718.54C3531.16 3721.36 3532.93 3723.99 3535.01 3726.37L3849.83 4093.45C3853.72 4098.11 3856.51 4103.58 3858.01 4109.46L3859.16 4113.82C3861.2 4121.25 3861.07 4129.1 3858.78 4136.47C3856.49 4143.83 3852.15 4150.38 3846.25 4155.36C3840.36 4160.33 3833.17 4163.52 3825.52 4164.54C3817.88 4165.57 3810.1 4164.38 3803.12 4161.13C3768.31 4145.19 3733.58 4129 3698.95 4112.97C3696.22 4111.68 3693.63 4110.13 3691.2 4108.33C3646.48 4073.83 3601.85 4039.5 3557.3 4004.92C3551.29 4000.28 3544.09 3997.42 3536.52 3996.67C3528.96 3995.92 3521.33 3997.31 3514.51 4000.68C3507.69 4004.05 3501.96 4009.27 3497.96 4015.74C3493.96 4022.2 3491.86 4029.66 3491.89 4037.26L3492.14 4056.68C3492.09 4062.61 3493.38 4068.47 3495.9 4073.83C3498.42 4079.2 3502.1 4083.93 3506.69 4087.69L3716.93 4261.42C3721.65 4265.19 3727.14 4267.89 3733.01 4269.32L3924.25 4317.03C3930.9 4318.74 3937.87 4318.75 3944.52 4317.04C3951.17 4315.34 3957.28 4311.97 3962.28 4307.27L4017.36 4257.65C4021.49 4254.05 4026.22 4251.2 4031.33 4249.23L4388.41 4135.34L4415.93 4160.58C4418.15 4159.45 4428.28 4153.2 4447.31 4144.55C4450.72 4142.81 4445.49 4120.78 4448.9 4119.04C4465.95 4110.33 4497.8 4099 4497.8 4099L4519.57 4112.58L4570.48 4096.46L4598.54 4114.77C4605.79 4115.14 4613.01 4113.6 4619.48 4110.3L4685.65 4076.5C4690.79 4073.88 4696.42 4072.39 4702.18 4072.12C4707.93 4071.85 4713.68 4072.8 4719.03 4074.92C4724.39 4077.04 4729.23 4080.28 4733.24 4084.41C4737.24 4088.55 4740.32 4093.49 4742.26 4098.91L4874.02 4467.15C4875.83 4472.24 4876.6 4477.63 4876.3 4483.01C4875.99 4488.4 4874.62 4493.67 4872.25 4498.52C4869.88 4503.37 4866.56 4507.7 4862.5 4511.26C4858.44 4514.82 4853.71 4517.53 4848.59 4519.24L4719.72 4561.65C4712.8 4564.02 4706.65 4568.23 4701.93 4573.82C4697.21 4579.41 4694.1 4586.17 4692.92 4593.38L4680.82 4663.99C4679.26 4673.8 4674.13 4682.69 4666.43 4688.96C4658.72 4695.23 4648.98 4698.45 4639.05 4698C4540.46 4693.17 4368.34 4648.79 4278.49 4581.51C4275.28 4578.97 4272.41 4576.03 4269.94 4572.77C4228.08 4514.12 4186.19 4455.41 4144.27 4396.64C4138.32 4388.23 4129.37 4382.42 4119.26 4380.4C4109.15 4378.38 4098.64 4380.29 4089.9 4385.76L3767.5 4584.8C3761.89 4588.23 3755.53 4590.22 3748.97 4590.62L3574.81 4601.62C3565.07 4602.27 3555.43 4599.37 3547.67 4593.47C3539.91 4587.56 3534.56 4579.05 3532.6 4569.5L3496.59 4394.6C3495.09 4388.31 3492.1 4382.47 3487.89 4377.57L3417.8 4287.51C3411.25 4279.19 3401.7 4273.76 3391.2 4272.39C3380.69 4271.01 3370.06 4273.8 3361.57 4280.15L3082.43 4491.47C3078.07 4494.88 3073.09 4497.42 3067.77 4498.96L2662.37 4598.66C2656.78 4600.22 2651.56 4602.89 2647.02 4606.5L2594.19 4648.31C2589.59 4651.83 2585.81 4656.29 2583.07 4661.39C2580.34 4666.49 2578.72 4672.11 2578.33 4677.88L2569.32 4918.73C2569.12 4924.43 2567.72 4930.02 2565.21 4935.15C2562.7 4940.27 2559.14 4944.81 2554.76 4948.47C2550.37 4952.12 2545.27 4954.82 2539.78 4956.37C2534.29 4957.93 2528.53 4958.31 2522.88 4957.49C2373.72 4936.17 2115.69 4983.79 1993.93 5046.42C1989.04 5048.96 1984.72 5052.47 1981.24 5056.74C1977.76 5061.01 1975.19 5065.94 1973.69 5071.23C1972.18 5076.53 1971.78 5082.07 1972.49 5087.53C1973.21 5092.98 1975.04 5098.23 1977.86 5102.95L1982.56 5112.15C1985.63 5117.29 1987.51 5123.04 1988.08 5129C1988.65 5134.96 1987.88 5140.97 1985.84 5146.6C1983.79 5152.23 1980.52 5157.33 1976.26 5161.54C1972 5165.76 1966.86 5168.97 1961.2 5170.95L1769.44 5238.84C1764.4 5240.61 1759.76 5243.37 1755.79 5246.94C1751.82 5250.52 1748.6 5254.84 1746.32 5259.67C1717.37 5322.56 1737.22 5489.82 1782.85 5541.68C1786.93 5546.05 1789.98 5551.27 1791.78 5556.97C1793.57 5562.67 1794.07 5568.7 1793.22 5574.62L1762.88 5771.17C1761.73 5778.48 1762.65 5785.97 1765.53 5792.79L1794.23 5857.81C1796.92 5864.4 1797.83 5871.58 1796.87 5878.63C1795.9 5885.68 1793.1 5892.36 1788.73 5897.99L1673.32 6047.15C1668.84 6052.92 1666.01 6059.81 1665.13 6067.06C1664.26 6074.32 1665.37 6081.67 1668.35 6088.34L1746.24 6264.83C1750.41 6274.16 1750.88 6284.72 1747.56 6294.39C1744.23 6304.06 1737.37 6312.11 1728.34 6316.93L1699.86 6331.47C1694.05 6334.6 1687.58 6336.27 1680.98 6336.34C1674.39 6336.42 1667.88 6334.89 1662.01 6331.91L1527.71 6263.06C1521.19 6259.72 1513.87 6258.23 1506.55 6258.75C1499.24 6259.27 1492.2 6261.78 1486.21 6266L1269.45 6419.68C1263.47 6423.79 1256.53 6426.29 1249.3 6426.97C1196.94 6432.23 965.055 6451.46 807.213 6478.83C799.782 6480.09 792.847 6483.4 787.186 6488.38C781.525 6493.36 777.361 6499.81 775.161 6507.01L732.288 6647.47C731.357 6650.71 729.969 6653.81 728.167 6656.66L646.198 6790.88C641.641 6798.43 634.698 6804.24 626.467 6807.4L522.512 6848.91C512.782 6852.81 501.928 6852.81 492.201 6848.93L385.67 6804.98Z" fill="#293135" stroke="#2D7D9A" stroke-opacity="0.38" stroke-miterlimit="10"/>
<g clip-path="url(#clip1)">
<path d="M460.221 938.74H466.291M449.571 956.6C449.571 958.07 449.135 959.506 448.319 960.728C447.502 961.95 446.342 962.902 444.984 963.464C443.627 964.027 442.133 964.174 440.691 963.887C439.25 963.601 437.926 962.893 436.887 961.854C435.848 960.815 435.14 959.491 434.854 958.05C434.567 956.608 434.714 955.114 435.277 953.757C435.839 952.399 436.791 951.239 438.013 950.422C439.235 949.606 440.671 949.17 442.141 949.17C444.111 949.17 446.001 949.953 447.395 951.346C448.788 952.74 449.571 954.629 449.571 956.6V956.6ZM471.861 949.17C470.391 949.168 468.954 949.602 467.73 950.417C466.507 951.233 465.553 952.392 464.989 953.75C464.425 955.107 464.277 956.601 464.562 958.043C464.848 959.485 465.555 960.81 466.594 961.85C467.632 962.89 468.956 963.599 470.398 963.886C471.839 964.174 473.334 964.027 474.692 963.465C476.05 962.903 477.211 961.951 478.028 960.729C478.845 959.507 479.281 958.07 479.281 956.6C479.281 954.631 478.5 952.743 477.108 951.35C475.717 949.957 473.83 949.173 471.861 949.17ZM442.141 956.6H456.001H442.141ZM449.571 943.73H464.431H449.571ZM442.141 956.6L449.571 943.74L442.141 956.6ZM471.861 956.6L461.641 938.88L471.861 956.6ZM446.741 938.75L456.491 955.82L446.741 938.75ZM456.001 956.6L464.451 943.74L456.001 956.6ZM443.541 938.74H449.481H443.541Z" stroke="#2D7D9A" stroke-width="3" stroke-linecap="round" stroke-linejoin="round"/>
</g>
<path d="M412.22 834.74H418.29M401.57 852.6C401.57 854.07 401.134 855.506 400.318 856.728C399.501 857.95 398.341 858.902 396.983 859.464C395.626 860.027 394.132 860.174 392.69 859.887C391.249 859.601 389.925 858.893 388.886 857.854C387.847 856.815 387.139 855.491 386.853 854.05C386.566 852.608 386.713 851.114 387.276 849.757C387.838 848.399 388.79 847.239 390.012 846.422C391.234 845.606 392.67 845.17 394.14 845.17C396.111 845.17 398 845.953 399.394 847.346C400.787 848.74 401.57 850.629 401.57 852.6V852.6ZM423.86 845.17C422.39 845.168 420.953 845.602 419.729 846.417C418.506 847.233 417.552 848.392 416.988 849.75C416.425 851.107 416.276 852.601 416.562 854.043C416.847 855.485 417.554 856.81 418.593 857.85C419.631 858.89 420.955 859.599 422.397 859.886C423.838 860.174 425.333 860.027 426.691 859.465C428.049 858.903 429.21 857.951 430.027 856.729C430.844 855.507 431.28 854.07 431.28 852.6C431.28 850.631 430.499 848.743 429.107 847.35C427.716 845.957 425.829 845.173 423.86 845.17ZM394.14 852.6H408H394.14ZM401.57 839.73H416.43H401.57ZM394.14 852.6L401.57 839.74L394.14 852.6ZM423.86 852.6L413.64 834.88L423.86 852.6ZM398.74 834.75L408.49 851.82L398.74 834.75ZM408 852.6L416.45 839.74L408 852.6ZM395.54 834.74H401.48H395.54Z" stroke="#2D7D9A" stroke-width="3" stroke-linecap="round" stroke-linejoin="round"/>
<path d="M906.22 603.74H912.29M895.57 621.6C895.57 623.07 895.134 624.506 894.318 625.728C893.501 626.95 892.341 627.902 890.983 628.464C889.626 629.027 888.132 629.174 886.69 628.887C885.249 628.601 883.925 627.893 882.886 626.854C881.847 625.815 881.139 624.491 880.853 623.05C880.566 621.608 880.713 620.114 881.276 618.757C881.838 617.399 882.79 616.239 884.012 615.422C885.234 614.606 886.67 614.17 888.14 614.17C890.111 614.17 892 614.953 893.394 616.346C894.787 617.74 895.57 619.629 895.57 621.6V621.6ZM917.86 614.17C916.39 614.168 914.953 614.602 913.729 615.417C912.506 616.233 911.552 617.392 910.988 618.75C910.425 620.107 910.276 621.601 910.562 623.043C910.847 624.485 911.554 625.81 912.593 626.85C913.631 627.89 914.955 628.599 916.397 628.886C917.838 629.174 919.333 629.027 920.691 628.465C922.049 627.903 923.21 626.951 924.027 625.729C924.844 624.507 925.28 623.07 925.28 621.6C925.28 619.631 924.499 617.743 923.107 616.35C921.716 614.957 919.829 614.173 917.86 614.17ZM888.14 621.6H902H888.14ZM895.57 608.73H910.43H895.57ZM888.14 621.6L895.57 608.74L888.14 621.6ZM917.86 621.6L907.64 603.88L917.86 621.6ZM892.74 603.75L902.49 620.82L892.74 603.75ZM902 621.6L910.45 608.74L902 621.6ZM889.54 603.74H895.48H889.54Z" stroke="#2D7D9A" stroke-width="3" stroke-linecap="round" stroke-linejoin="round"/>
<path d="M599.22 1159.74H605.29M588.57 1177.6C588.57 1179.07 588.134 1180.51 587.318 1181.73C586.501 1182.95 585.341 1183.9 583.983 1184.46C582.626 1185.03 581.132 1185.17 579.69 1184.89C578.249 1184.6 576.925 1183.89 575.886 1182.85C574.847 1181.81 574.139 1180.49 573.853 1179.05C573.566 1177.61 573.713 1176.11 574.276 1174.76C574.838 1173.4 575.79 1172.24 577.012 1171.42C578.234 1170.61 579.67 1170.17 581.14 1170.17C583.111 1170.17 585 1170.95 586.394 1172.35C587.787 1173.74 588.57 1175.63 588.57 1177.6V1177.6ZM610.86 1170.17C609.39 1170.17 607.953 1170.6 606.729 1171.42C605.506 1172.23 604.552 1173.39 603.988 1174.75C603.425 1176.11 603.276 1177.6 603.562 1179.04C603.847 1180.49 604.554 1181.81 605.593 1182.85C606.631 1183.89 607.955 1184.6 609.397 1184.89C610.838 1185.17 612.333 1185.03 613.691 1184.47C615.049 1183.9 616.21 1182.95 617.027 1181.73C617.844 1180.51 618.28 1179.07 618.28 1177.6C618.28 1175.63 617.499 1173.74 616.107 1172.35C614.716 1170.96 612.829 1170.17 610.86 1170.17ZM581.14 1177.6H595H581.14ZM588.57 1164.73H603.43H588.57ZM581.14 1177.6L588.57 1164.74L581.14 1177.6ZM610.86 1177.6L600.64 1159.88L610.86 1177.6ZM585.74 1159.75L595.49 1176.82L585.74 1159.75ZM595 1177.6L603.45 1164.74L595 1177.6ZM582.54 1159.74H588.48H582.54Z" stroke="#2D7D9A" stroke-width="3" stroke-linecap="round" stroke-linejoin="round"/>
<path d="M852.22 801.74H858.29M841.57 819.6C841.57 821.07 841.134 822.506 840.318 823.728C839.501 824.95 838.341 825.902 836.983 826.464C835.626 827.027 834.132 827.174 832.69 826.887C831.249 826.601 829.925 825.893 828.886 824.854C827.847 823.815 827.139 822.491 826.853 821.05C826.566 819.608 826.713 818.114 827.276 816.757C827.838 815.399 828.79 814.239 830.012 813.422C831.234 812.606 832.67 812.17 834.14 812.17C836.111 812.17 838 812.953 839.394 814.346C840.787 815.74 841.57 817.629 841.57 819.6V819.6ZM863.86 812.17C862.39 812.168 860.953 812.602 859.729 813.417C858.506 814.233 857.552 815.392 856.988 816.75C856.425 818.107 856.276 819.601 856.562 821.043C856.847 822.485 857.554 823.81 858.593 824.85C859.631 825.89 860.955 826.599 862.397 826.886C863.838 827.174 865.333 827.027 866.691 826.465C868.049 825.903 869.21 824.951 870.027 823.729C870.844 822.507 871.28 821.07 871.28 819.6C871.28 817.631 870.499 815.743 869.107 814.35C867.716 812.957 865.829 812.173 863.86 812.17ZM834.14 819.6H848H834.14ZM841.57 806.73H856.43H841.57ZM834.14 819.6L841.57 806.74L834.14 819.6ZM863.86 819.6L853.64 801.88L863.86 819.6ZM838.74 801.75L848.49 818.82L838.74 801.75ZM848 819.6L856.45 806.74L848 819.6ZM835.54 801.74H841.48H835.54Z" stroke="#2D7D9A" stroke-width="3" stroke-linecap="round" stroke-linejoin="round"/>
<path d="M769.22 1056.74H775.29M758.57 1074.6C758.57 1076.07 758.134 1077.51 757.318 1078.73C756.501 1079.95 755.341 1080.9 753.983 1081.46C752.626 1082.03 751.132 1082.17 749.69 1081.89C748.249 1081.6 746.925 1080.89 745.886 1079.85C744.847 1078.81 744.139 1077.49 743.853 1076.05C743.566 1074.61 743.713 1073.11 744.276 1071.76C744.838 1070.4 745.79 1069.24 747.012 1068.42C748.234 1067.61 749.67 1067.17 751.14 1067.17C753.111 1067.17 755 1067.95 756.394 1069.35C757.787 1070.74 758.57 1072.63 758.57 1074.6V1074.6ZM780.86 1067.17C779.39 1067.17 777.953 1067.6 776.729 1068.42C775.506 1069.23 774.552 1070.39 773.988 1071.75C773.425 1073.11 773.276 1074.6 773.562 1076.04C773.847 1077.49 774.554 1078.81 775.593 1079.85C776.631 1080.89 777.955 1081.6 779.397 1081.89C780.838 1082.17 782.333 1082.03 783.691 1081.47C785.049 1080.9 786.21 1079.95 787.027 1078.73C787.844 1077.51 788.28 1076.07 788.28 1074.6C788.28 1072.63 787.499 1070.74 786.107 1069.35C784.716 1067.96 782.829 1067.17 780.86 1067.17ZM751.14 1074.6H765H751.14ZM758.57 1061.73H773.43H758.57ZM751.14 1074.6L758.57 1061.74L751.14 1074.6ZM780.86 1074.6L770.64 1056.88L780.86 1074.6ZM755.74 1056.75L765.49 1073.82L755.74 1056.75ZM765 1074.6L773.45 1061.74L765 1074.6ZM752.54 1056.74H758.48H752.54Z" stroke="#2D7D9A" stroke-width="3" stroke-linecap="round" stroke-linejoin="round"/>
<path d="M683.841 934C683.633 933.413 683.248 932.906 682.74 932.547C682.231 932.189 681.623 931.998 681.001 932H659.001C658.378 931.998 657.771 932.189 657.262 932.547C656.753 932.906 656.368 933.413 656.161 934L652.221 945.36C652.076 945.785 652.002 946.231 652.001 946.68V961C652.001 961.796 652.317 962.559 652.879 963.121C653.442 963.684 654.205 964 655.001 964C655.796 964 656.559 963.684 657.122 963.121C657.685 962.559 658.001 961.796 658.001 961V960H682.001V961C682.001 961.796 682.317 962.559 682.879 963.121C683.442 963.684 684.205 964 685.001 964C685.796 964 686.559 963.684 687.122 963.121C687.685 962.559 688.001 961.796 688.001 961V946.68C687.998 946.231 687.923 945.786 687.781 945.36L683.841 934ZM659.001 954C658.407 954 657.827 953.824 657.334 953.494C656.841 953.165 656.456 952.696 656.229 952.148C656.002 951.6 655.943 950.997 656.058 950.415C656.174 949.833 656.46 949.298 656.879 948.879C657.299 948.459 657.834 948.173 658.415 948.058C658.997 947.942 659.601 948.001 660.149 948.228C660.697 948.455 661.165 948.84 661.495 949.333C661.825 949.827 662.001 950.407 662.001 951C662.001 951.796 661.685 952.559 661.122 953.121C660.559 953.684 659.796 954 659.001 954ZM681.001 954C680.407 954 679.827 953.824 679.334 953.494C678.841 953.165 678.456 952.696 678.229 952.148C678.002 951.6 677.943 950.997 678.058 950.415C678.174 949.833 678.46 949.298 678.879 948.879C679.299 948.459 679.834 948.173 680.415 948.058C680.997 947.942 681.601 948.001 682.149 948.228C682.697 948.455 683.165 948.84 683.495 949.333C683.825 949.827 684.001 950.407 684.001 951C684.001 951.796 683.685 952.559 683.122 953.121C682.559 953.684 681.796 954 681.001 954ZM656.001 944L658.541 936.36C658.675 935.963 658.931 935.618 659.271 935.374C659.612 935.13 660.021 934.999 660.441 935H679.561C679.98 934.999 680.389 935.13 680.73 935.374C681.071 935.618 681.327 935.963 681.461 936.36L684.001 944H656.001Z" fill="#2D7D9A"/>
<path d="M530.841 1306C530.634 1305.41 530.249 1304.91 529.74 1304.55C529.231 1304.19 528.623 1304 528.001 1304H506.001C505.379 1304 504.771 1304.19 504.262 1304.55C503.753 1304.91 503.368 1305.41 503.161 1306L499.221 1317.36C499.077 1317.79 499.002 1318.23 499.001 1318.68V1333C499.001 1333.8 499.317 1334.56 499.88 1335.12C500.442 1335.68 501.205 1336 502.001 1336C502.797 1336 503.56 1335.68 504.122 1335.12C504.685 1334.56 505.001 1333.8 505.001 1333V1332H529.001V1333C529.001 1333.8 529.317 1334.56 529.88 1335.12C530.442 1335.68 531.205 1336 532.001 1336C532.797 1336 533.56 1335.68 534.122 1335.12C534.685 1334.56 535.001 1333.8 535.001 1333V1318.68C534.998 1318.23 534.924 1317.79 534.781 1317.36L530.841 1306ZM506.001 1326C505.408 1326 504.828 1325.82 504.334 1325.49C503.841 1325.16 503.456 1324.7 503.229 1324.15C503.002 1323.6 502.943 1323 503.059 1322.41C503.174 1321.83 503.46 1321.3 503.88 1320.88C504.299 1320.46 504.834 1320.17 505.416 1320.06C505.998 1319.94 506.601 1320 507.149 1320.23C507.697 1320.46 508.166 1320.84 508.495 1321.33C508.825 1321.83 509.001 1322.41 509.001 1323C509.001 1323.8 508.685 1324.56 508.122 1325.12C507.56 1325.68 506.797 1326 506.001 1326ZM528.001 1326C527.408 1326 526.828 1325.82 526.334 1325.49C525.841 1325.16 525.456 1324.7 525.229 1324.15C525.002 1323.6 524.943 1323 525.059 1322.41C525.174 1321.83 525.46 1321.3 525.88 1320.88C526.299 1320.46 526.834 1320.17 527.416 1320.06C527.998 1319.94 528.601 1320 529.149 1320.23C529.697 1320.46 530.166 1320.84 530.495 1321.33C530.825 1321.83 531.001 1322.41 531.001 1323C531.001 1323.8 530.685 1324.56 530.122 1325.12C529.56 1325.68 528.797 1326 528.001 1326ZM503.001 1316L505.541 1308.36C505.675 1307.96 505.931 1307.62 506.272 1307.37C506.613 1307.13 507.022 1307 507.441 1307H526.561C526.98 1307 527.389 1307.13 527.73 1307.37C528.071 1307.62 528.327 1307.96 528.461 1308.36L531.001 1316H503.001Z" fill="#2D7D9A"/>
<path d="M585.84 793C585.633 792.413 585.248 791.906 584.739 791.547C584.23 791.189 583.622 790.998 583 791H561C560.378 790.998 559.77 791.189 559.261 791.547C558.752 791.906 558.367 792.413 558.16 793L554.22 804.36C554.076 804.785 554.001 805.231 554 805.68V820C554 820.796 554.316 821.559 554.879 822.121C555.441 822.684 556.204 823 557 823C557.796 823 558.559 822.684 559.121 822.121C559.684 821.559 560 820.796 560 820V819H584V820C584 820.796 584.316 821.559 584.879 822.121C585.441 822.684 586.204 823 587 823C587.796 823 588.559 822.684 589.121 822.121C589.684 821.559 590 820.796 590 820V805.68C589.997 805.231 589.923 804.786 589.78 804.36L585.84 793ZM561 813C560.407 813 559.827 812.824 559.333 812.494C558.84 812.165 558.455 811.696 558.228 811.148C558.001 810.6 557.942 809.997 558.058 809.415C558.173 808.833 558.459 808.298 558.879 807.879C559.298 807.459 559.833 807.173 560.415 807.058C560.997 806.942 561.6 807.001 562.148 807.228C562.696 807.455 563.165 807.84 563.494 808.333C563.824 808.827 564 809.407 564 810C564 810.796 563.684 811.559 563.121 812.121C562.559 812.684 561.796 813 561 813ZM583 813C582.407 813 581.827 812.824 581.333 812.494C580.84 812.165 580.455 811.696 580.228 811.148C580.001 810.6 579.942 809.997 580.058 809.415C580.173 808.833 580.459 808.298 580.879 807.879C581.298 807.459 581.833 807.173 582.415 807.058C582.997 806.942 583.6 807.001 584.148 807.228C584.696 807.455 585.165 807.84 585.494 808.333C585.824 808.827 586 809.407 586 810C586 810.796 585.684 811.559 585.121 812.121C584.559 812.684 583.796 813 583 813ZM558 803L560.54 795.36C560.674 794.963 560.93 794.618 561.271 794.374C561.612 794.13 562.021 793.999 562.44 794H581.56C581.979 793.999 582.388 794.13 582.729 794.374C583.07 794.618 583.326 794.963 583.46 795.36L586 803H558Z" fill="#2D7D9A"/>
<path d="M392.84 1096C392.633 1095.41 392.248 1094.91 391.739 1094.55C391.23 1094.19 390.622 1094 390 1094H368C367.378 1094 366.77 1094.19 366.261 1094.55C365.752 1094.91 365.367 1095.41 365.16 1096L361.22 1107.36C361.076 1107.79 361.001 1108.23 361 1108.68V1123C361 1123.8 361.316 1124.56 361.879 1125.12C362.441 1125.68 363.204 1126 364 1126C364.796 1126 365.559 1125.68 366.121 1125.12C366.684 1124.56 367 1123.8 367 1123V1122H391V1123C391 1123.8 391.316 1124.56 391.879 1125.12C392.441 1125.68 393.204 1126 394 1126C394.796 1126 395.559 1125.68 396.121 1125.12C396.684 1124.56 397 1123.8 397 1123V1108.68C396.997 1108.23 396.923 1107.79 396.78 1107.36L392.84 1096ZM368 1116C367.407 1116 366.827 1115.82 366.333 1115.49C365.84 1115.16 365.455 1114.7 365.228 1114.15C365.001 1113.6 364.942 1113 365.058 1112.41C365.173 1111.83 365.459 1111.3 365.879 1110.88C366.298 1110.46 366.833 1110.17 367.415 1110.06C367.997 1109.94 368.6 1110 369.148 1110.23C369.696 1110.46 370.165 1110.84 370.494 1111.33C370.824 1111.83 371 1112.41 371 1113C371 1113.8 370.684 1114.56 370.121 1115.12C369.559 1115.68 368.796 1116 368 1116ZM390 1116C389.407 1116 388.827 1115.82 388.333 1115.49C387.84 1115.16 387.455 1114.7 387.228 1114.15C387.001 1113.6 386.942 1113 387.058 1112.41C387.173 1111.83 387.459 1111.3 387.879 1110.88C388.298 1110.46 388.833 1110.17 389.415 1110.06C389.997 1109.94 390.6 1110 391.148 1110.23C391.696 1110.46 392.165 1110.84 392.494 1111.33C392.824 1111.83 393 1112.41 393 1113C393 1113.8 392.684 1114.56 392.121 1115.12C391.559 1115.68 390.796 1116 390 1116ZM365 1106L367.54 1098.36C367.674 1097.96 367.93 1097.62 368.271 1097.37C368.612 1097.13 369.021 1097 369.44 1097H388.56C388.979 1097 389.388 1097.13 389.729 1097.37C390.07 1097.62 390.326 1097.96 390.46 1098.36L393 1106H365Z" fill="#2D7D9A"/>
<path d="M936.84 1209C936.633 1208.41 936.248 1207.91 935.739 1207.55C935.23 1207.19 934.622 1207 934 1207H912C911.378 1207 910.77 1207.19 910.261 1207.55C909.752 1207.91 909.367 1208.41 909.16 1209L905.22 1220.36C905.076 1220.79 905.001 1221.23 905 1221.68V1236C905 1236.8 905.316 1237.56 905.879 1238.12C906.441 1238.68 907.204 1239 908 1239C908.796 1239 909.559 1238.68 910.121 1238.12C910.684 1237.56 911 1236.8 911 1236V1235H935V1236C935 1236.8 935.316 1237.56 935.879 1238.12C936.441 1238.68 937.204 1239 938 1239C938.796 1239 939.559 1238.68 940.121 1238.12C940.684 1237.56 941 1236.8 941 1236V1221.68C940.997 1221.23 940.923 1220.79 940.78 1220.36L936.84 1209ZM912 1229C911.407 1229 910.827 1228.82 910.333 1228.49C909.84 1228.16 909.455 1227.7 909.228 1227.15C909.001 1226.6 908.942 1226 909.058 1225.41C909.173 1224.83 909.459 1224.3 909.879 1223.88C910.298 1223.46 910.833 1223.17 911.415 1223.06C911.997 1222.94 912.6 1223 913.148 1223.23C913.696 1223.46 914.165 1223.84 914.494 1224.33C914.824 1224.83 915 1225.41 915 1226C915 1226.8 914.684 1227.56 914.121 1228.12C913.559 1228.68 912.796 1229 912 1229ZM934 1229C933.407 1229 932.827 1228.82 932.333 1228.49C931.84 1228.16 931.455 1227.7 931.228 1227.15C931.001 1226.6 930.942 1226 931.058 1225.41C931.173 1224.83 931.459 1224.3 931.879 1223.88C932.298 1223.46 932.833 1223.17 933.415 1223.06C933.997 1222.94 934.6 1223 935.148 1223.23C935.696 1223.46 936.165 1223.84 936.494 1224.33C936.824 1224.83 937 1225.41 937 1226C937 1226.8 936.684 1227.56 936.121 1228.12C935.559 1228.68 934.796 1229 934 1229ZM909 1219L911.54 1211.36C911.674 1210.96 911.93 1210.62 912.271 1210.37C912.612 1210.13 913.021 1210 913.44 1210H932.56C932.979 1210 933.388 1210.13 933.729 1210.37C934.07 1210.62 934.326 1210.96 934.46 1211.36L937 1219H909Z" fill="#2D7D9A"/>
<path d="M918.841 955C918.634 954.413 918.249 953.906 917.74 953.547C917.231 953.189 916.623 952.998 916.001 953H894.001C893.379 952.998 892.771 953.189 892.262 953.547C891.753 953.906 891.368 954.413 891.161 955L887.221 966.36C887.077 966.785 887.002 967.231 887.001 967.68V982C887.001 982.796 887.317 983.559 887.88 984.121C888.442 984.684 889.205 985 890.001 985C890.797 985 891.56 984.684 892.122 984.121C892.685 983.559 893.001 982.796 893.001 982V981H917.001V982C917.001 982.796 917.317 983.559 917.88 984.121C918.442 984.684 919.205 985 920.001 985C920.797 985 921.56 984.684 922.122 984.121C922.685 983.559 923.001 982.796 923.001 982V967.68C922.998 967.231 922.924 966.786 922.781 966.36L918.841 955ZM894.001 975C893.408 975 892.828 974.824 892.334 974.494C891.841 974.165 891.456 973.696 891.229 973.148C891.002 972.6 890.943 971.997 891.059 971.415C891.174 970.833 891.46 970.298 891.88 969.879C892.299 969.459 892.834 969.173 893.416 969.058C893.998 968.942 894.601 969.001 895.149 969.228C895.697 969.455 896.166 969.84 896.495 970.333C896.825 970.827 897.001 971.407 897.001 972C897.001 972.796 896.685 973.559 896.122 974.121C895.56 974.684 894.797 975 894.001 975ZM916.001 975C915.408 975 914.828 974.824 914.334 974.494C913.841 974.165 913.456 973.696 913.229 973.148C913.002 972.6 912.943 971.997 913.059 971.415C913.174 970.833 913.46 970.298 913.88 969.879C914.299 969.459 914.834 969.173 915.416 969.058C915.998 968.942 916.601 969.001 917.149 969.228C917.697 969.455 918.166 969.84 918.495 970.333C918.825 970.827 919.001 971.407 919.001 972C919.001 972.796 918.685 973.559 918.122 974.121C917.56 974.684 916.797 975 916.001 975ZM891.001 965L893.541 957.36C893.675 956.963 893.931 956.618 894.272 956.374C894.613 956.13 895.022 955.999 895.441 956H914.561C914.98 955.999 915.389 956.13 915.73 956.374C916.071 956.618 916.327 956.963 916.461 957.36L919.001 965H891.001Z" fill="#2D7D9A"/>
</g>
<defs>
<clipPath id="clip0">
<rect width="1024" height="1400" fill="white"/>
</clipPath>
<clipPath id="clip1">
<rect x="433.001" y="928" width="48" height="48" fill="white"/>
</clipPath>
</defs>
</svg>
