<?xml version="1.0" encoding="utf-8"?>
<!-- Generator: Adobe Illustrator 22.0.1, SVG Export Plug-In . SVG Version: 6.00 Build 0)  -->
<svg version="1.1"
	 id="svg4619" inkscape:version="0.92.3 (2405546, 2018-03-11)" sodipodi:docname="bicycle-w-15.svg" xmlns:cc="http://creativecommons.org/ns#" xmlns:dc="http://purl.org/dc/elements/1.1/" xmlns:inkscape="http://www.inkscape.org/namespaces/inkscape" xmlns:rdf="http://www.w3.org/1999/02/22-rdf-syntax-ns#" xmlns:sodipodi="http://sodipodi.sourceforge.net/DTD/sodipodi-0.dtd" xmlns:svg="http://www.w3.org/2000/svg"
	 xmlns="http://www.w3.org/2000/svg" xmlns:xlink="http://www.w3.org/1999/xlink" x="0px" y="0px" viewBox="0 0 15 15"
	 style="enable-background:new 0 0 15 15;" xml:space="preserve">
<style type="text/css">
	.st0{opacity:0.9;fill:#086FB8;enable-background:new    ;}
	.st1{fill:#FFFFFF;}
</style>
<sodipodi:namedview  bordercolor="#666666" borderopacity="1" gridtolerance="10" guidetolerance="10" id="namedview3364" inkscape:current-layer="svg4619" inkscape:cx="4.6281545" inkscape:cy="10.703675" inkscape:document-units="px" inkscape:object-nodes="true" inkscape:object-paths="true" inkscape:pageopacity="0" inkscape:pageshadow="2" inkscape:snap-bbox="true" inkscape:snap-intersection-paths="true" inkscape:snap-smooth-nodes="true" inkscape:window-height="755" inkscape:window-maximized="1" inkscape:window-width="1280" inkscape:window-x="0" inkscape:window-y="23" inkscape:zoom="128" objecttolerance="10" pagecolor="#ffffff" showgrid="true">
	<inkscape:grid  color="#ff0000" empspacing="2" id="grid3368" opacity="0.1254902" spacingx="0.5" spacingy="0.5" type="xygrid">
		</inkscape:grid>
</sodipodi:namedview>
<path id="path8564-5-6-4" inkscape:connector-curvature="0" class="st0" d="M7.5,0C11.6,0,15,3.4,15,7.5S11.6,15,7.5,15
	S0,11.6,0,7.5S3.4,0,7.5,0z"/>
<path id="path4668" inkscape:connector-curvature="0" sodipodi:nodetypes="ccccccccccccsssscccsssscccccsccccsssscssscccccc" class="st1" d="
	M7.5,2.5c-0.6,0-0.6,0.9,0,0.9h1.4v1.1L6.3,6.7L5.5,4.3h0.2c0.6,0,0.6-0.9,0-0.9H3.9c-0.6,0-0.6,0.9,0,0.9h0.6l0.8,2.1
	C4.9,6.3,4.4,6.1,3.9,6.1c-1.7,0-3.2,1.4-3.2,3.2s1.4,3.1,3.2,3.1S7.1,11,7.1,9.3c0-0.6-0.2-1.2-0.5-1.6l2.5-2.1l0.4,1
	C8.6,7.1,7.9,8.1,7.9,9.3c0,1.7,1.4,3.1,3.2,3.1s3.1-1.4,3.1-3.1s-1.4-3.2-3.1-3.2c-0.3,0-0.5,0-0.7,0.1L9.8,4.7V3
	c0-0.2-0.2-0.5-0.4-0.5H7.5z M3.9,7c0.5,0,1,0.2,1.4,0.5L3.6,9C3.2,9.3,3.7,10,4.2,9.6l1.7-1.4C6,8.6,6.2,8.9,6.2,9.3
	c0,1.2-1,2.3-2.3,2.3s-2.3-1-2.3-2.3S2.7,7,3.9,7L3.9,7z M11.1,7c1.2,0,2.3,1,2.3,2.3s-1,2.3-2.3,2.3s-2.3-1-2.3-2.3
	c0-0.8,0.4-1.5,1-1.9l0.8,2c0.2,0.6,1.1,0.2,0.8-0.3l-0.8-2C10.8,7.1,11,7,11.1,7L11.1,7z"/>
</svg>
