<?xml version="1.0" encoding="utf-8"?>
<!-- Generator: Adobe Illustrator 22.0.1, SVG Export Plug-In . SVG Version: 6.00 Build 0)  -->
<svg version="1.1"
	 id="svg4619" inkscape:version="0.92.3 (2405546, 2018-03-11)" sodipodi:docname="bus-w-15.svg" xmlns:cc="http://creativecommons.org/ns#" xmlns:dc="http://purl.org/dc/elements/1.1/" xmlns:inkscape="http://www.inkscape.org/namespaces/inkscape" xmlns:rdf="http://www.w3.org/1999/02/22-rdf-syntax-ns#" xmlns:sodipodi="http://sodipodi.sourceforge.net/DTD/sodipodi-0.dtd" xmlns:svg="http://www.w3.org/2000/svg"
	 xmlns="http://www.w3.org/2000/svg" xmlns:xlink="http://www.w3.org/1999/xlink" x="0px" y="0px" viewBox="0 0 15 15"
	 style="enable-background:new 0 0 15 15;" xml:space="preserve">
<style type="text/css">
	.st0{opacity:0.9;fill:#F6EFF7;enable-background:new    ;}
</style>
<sodipodi:namedview  bordercolor="#666666" borderopacity="1" gridtolerance="10" guidetolerance="10" id="namedview4666" inkscape:current-layer="svg4619" inkscape:cx="7.5" inkscape:cy="7.5" inkscape:pageopacity="0" inkscape:pageshadow="2" inkscape:window-height="480" inkscape:window-maximized="1" inkscape:window-width="725" inkscape:window-x="0" inkscape:window-y="0" inkscape:zoom="37.466667" objecttolerance="10" pagecolor="#ffffff" showgrid="false">
	</sodipodi:namedview>
<path id="path8564-5-6-4" inkscape:connector-curvature="0" class="st0" d="M7.5,0C11.6,0,15,3.4,15,7.5S11.6,15,7.5,15
	S0,11.6,0,7.5S3.4,0,7.5,0z"/>
<path id="path8043" d="M4.9,1.6c-1,0-2.3,0.6-2.3,2.1v4.1v2.9c0,0,0,0.8,0.8,0.8v0.8c0,0,0,0.8,0.8,0.8s0.8-0.8,0.8-0.8v-0.8h5.3
	v0.8c0,0,0,0.8,0.8,0.8s0.8-0.8,0.8-0.8v-0.8c0,0,0.8,0,0.8-0.8v-7c0-1.5-0.9-2.1-2-2.1H4.9z M5.1,2.7h4.9c0.1,0,0.2,0.1,0.2,0.2
	c0,0.1-0.1,0.2-0.2,0.2H5.1C5,3.1,4.9,3,4.9,2.9C4.9,2.8,5,2.7,5.1,2.7z M4.1,3.8h6.8c0.8,0,0.8,0.7,0.8,0.7v2.3c0,0,0,0.8-0.8,0.8
	H4.1c-0.8,0-0.8-0.8-0.8-0.8V4.6C3.4,4.6,3.4,3.8,4.1,3.8z M4.1,9.1c0.4,0,0.8,0.3,0.8,0.8c0,0.4-0.3,0.8-0.8,0.8s-0.8-0.3-0.8-0.8
	C3.4,9.4,3.7,9.1,4.1,9.1z M10.9,9.1c0.4,0,0.8,0.3,0.8,0.8c0,0.4-0.3,0.8-0.8,0.8s-0.8-0.3-0.8-0.8C10.1,9.4,10.5,9.1,10.9,9.1z"/>
</svg>
