<?xml version="1.0" encoding="UTF-8" standalone="no"?>
<!-- Generator: Adobe Illustrator 19.2.1, SVG Export Plug-In . SVG Version: 6.00 Build 0)  -->

<svg
   xmlns:dc="http://purl.org/dc/elements/1.1/"
   xmlns:cc="http://creativecommons.org/ns#"
   xmlns:rdf="http://www.w3.org/1999/02/22-rdf-syntax-ns#"
   xmlns:svg="http://www.w3.org/2000/svg"
   xmlns="http://www.w3.org/2000/svg"
   xmlns:sodipodi="http://sodipodi.sourceforge.net/DTD/sodipodi-0.dtd"
   xmlns:inkscape="http://www.inkscape.org/namespaces/inkscape"
   version="1.1"
   id="svg4619"
   inkscape:version="0.92.3 (2405546, 2018-03-11)"
   sodipodi:docname="bus-w-15.svg"
   x="0px"
   y="0px"
   width="15px"
   height="15px"
   viewBox="0 0 15 15"
   style="enable-background:new 0 0 15 15;"
   xml:space="preserve"><metadata
   id="metadata4670"><rdf:RDF><cc:Work
       rdf:about=""><dc:format>image/svg+xml</dc:format><dc:type
         rdf:resource="http://purl.org/dc/dcmitype/StillImage" /><dc:title></dc:title></cc:Work></rdf:RDF></metadata><defs
   id="defs4668" /><sodipodi:namedview
   pagecolor="#ffffff"
   bordercolor="#666666"
   borderopacity="1"
   objecttolerance="10"
   gridtolerance="10"
   guidetolerance="10"
   inkscape:pageopacity="0"
   inkscape:pageshadow="2"
   inkscape:window-width="725"
   inkscape:window-height="480"
   id="namedview4666"
   showgrid="false"
   inkscape:zoom="37.466667"
   inkscape:cx="7.5"
   inkscape:cy="7.5"
   inkscape:window-x="0"
   inkscape:window-y="0"
   inkscape:window-maximized="1"
   inkscape:current-layer="svg4619" />
<path
   id="path8043"
   d="M4,0C2.6364,0,1,0.7433,1,2.7461v5.4531V12c0,0,0,1,1,1v1c0,0,0,1,1,1s1-1,1-1v-1h7v1c0,0,0,1,1,1s1-1,1-1v-1  c0,0,1,0,1-1V2.7461C14,0.7006,12.764,0,11.4004,0H4z M4.25,1.5h6.5C10.8885,1.5,11,1.6115,11,1.75S10.8885,2,10.75,2h-6.5  C4.1115,2,4,1.8885,4,1.75S4.1115,1.5,4.25,1.5z M3,3h9c1,0,1,0.9668,1,0.9668V7c0,0,0,1-1,1H3C2,8,2,7,2,7V4C2,4,2,3,3,3z M3,10  c0.5523,0,1,0.4477,1,1s-0.4477,1-1,1s-1-0.4477-1-1S2.4477,10,3,10z M12,10c0.5523,0,1,0.4477,1,1s-0.4477,1-1,1s-1-0.4477-1-1  S11.4477,10,12,10z"
   style="fill:#ffffff;fill-opacity:1" />
</svg>