<?xml version="1.0" encoding="UTF-8" standalone="no"?>
<!-- Generator: Adobe Illustrator 19.2.1, SVG Export Plug-In . SVG Version: 6.00 Build 0)  -->

<svg
   xmlns:dc="http://purl.org/dc/elements/1.1/"
   xmlns:cc="http://creativecommons.org/ns#"
   xmlns:rdf="http://www.w3.org/1999/02/22-rdf-syntax-ns#"
   xmlns:svg="http://www.w3.org/2000/svg"
   xmlns="http://www.w3.org/2000/svg"
   xmlns:sodipodi="http://sodipodi.sourceforge.net/DTD/sodipodi-0.dtd"
   xmlns:inkscape="http://www.inkscape.org/namespaces/inkscape"
   version="1.1"
   id="Layer_1"
   x="0px"
   y="0px"
   width="15px"
   height="15px"
   viewBox="0 0 15 15"
   style="enable-background:new 0 0 15 15;"
   xml:space="preserve"
   sodipodi:docname="car-w-15.svg"
   inkscape:version="0.92.3 (2405546, 2018-03-11)"><metadata
   id="metadata4696"><rdf:RDF><cc:Work
       rdf:about=""><dc:format>image/svg+xml</dc:format><dc:type
         rdf:resource="http://purl.org/dc/dcmitype/StillImage" /><dc:title /></cc:Work></rdf:RDF></metadata><defs
   id="defs4694" /><sodipodi:namedview
   pagecolor="#ffffff"
   bordercolor="#ffffff"
   borderopacity="1"
   objecttolerance="10"
   gridtolerance="10"
   guidetolerance="10"
   inkscape:pageopacity="0"
   inkscape:pageshadow="2"
   inkscape:window-width="1920"
   inkscape:window-height="1001"
   id="namedview4692"
   showgrid="false"
   inkscape:zoom="15.733333"
   inkscape:cx="7.5"
   inkscape:cy="7.5"
   inkscape:window-x="-9"
   inkscape:window-y="1116"
   inkscape:window-maximized="1"
   inkscape:current-layer="Layer_1" />
<path
   d="M14,7c-0.004-0.6904-0.4787-1.2889-1.15-1.45l-1.39-3.24l0,0l0,0l0,0C11.3833,2.1233,11.2019,2.001,11,2H4  C3.8124,2.0034,3.6425,2.1115,3.56,2.28l0,0l0,0l0,0L2.15,5.54C1.475,5.702,0.9994,6.3059,1,7v3.5h1v1c0,0.5523,0.4477,1,1,1  s1-0.4477,1-1v-1h7v1c0,0.5523,0.4477,1,1,1s1-0.4477,1-1v-1h1V7z M4.3,3h6.4l1.05,2.5h-8.5L4.3,3z M3,9C2.4477,9,2,8.5523,2,8  s0.4477-1,1-1s1,0.4477,1,1S3.5523,9,3,9z M12,9c-0.5523,0-1-0.4477-1-1s0.4477-1,1-1s1,0.4477,1,1S12.5523,9,12,9z"
   id="path4689"
   style="fill:#ffffff;fill-opacity:1" />
</svg>