<?xml version="1.0" encoding="UTF-8" standalone="no"?>
<!-- Generator: Adobe Illustrator 19.2.1, SVG Export Plug-In . SVG Version: 6.00 Build 0)  -->

<svg
   xmlns:dc="http://purl.org/dc/elements/1.1/"
   xmlns:cc="http://creativecommons.org/ns#"
   xmlns:rdf="http://www.w3.org/1999/02/22-rdf-syntax-ns#"
   xmlns:svg="http://www.w3.org/2000/svg"
   xmlns="http://www.w3.org/2000/svg"
   xmlns:sodipodi="http://sodipodi.sourceforge.net/DTD/sodipodi-0.dtd"
   xmlns:inkscape="http://www.inkscape.org/namespaces/inkscape"
   version="1.1"
   id="Layer_1"
   x="0px"
   y="0px"
   width="15px"
   height="15px"
   viewBox="0 0 15 15"
   style="enable-background:new 0 0 15 15;"
   xml:space="preserve"
   sodipodi:docname="parking-garage-w-15.svg"
   inkscape:version="0.92.3 (2405546, 2018-03-11)"><metadata
   id="metadata4748"><rdf:RDF><cc:Work
       rdf:about=""><dc:format>image/svg+xml</dc:format><dc:type
         rdf:resource="http://purl.org/dc/dcmitype/StillImage" /><dc:title></dc:title></cc:Work></rdf:RDF></metadata><defs
   id="defs4746" /><sodipodi:namedview
   pagecolor="#ffffff"
   bordercolor="#666666"
   borderopacity="1"
   objecttolerance="10"
   gridtolerance="10"
   guidetolerance="10"
   inkscape:pageopacity="0"
   inkscape:pageshadow="2"
   inkscape:window-width="725"
   inkscape:window-height="480"
   id="namedview4744"
   showgrid="false"
   inkscape:zoom="15.733333"
   inkscape:cx="7.5"
   inkscape:cy="7.5"
   inkscape:window-x="0"
   inkscape:window-y="0"
   inkscape:window-maximized="1"
   inkscape:current-layer="Layer_1" />
<path
   style="fill:#ffffff;fill-opacity:1"
   d="M10.5,10.14c-0.6637,0.4788-1.4732,0.7121-2.29,0.66h-1.9V14h-1.9V5h3.92  c0.7801-0.0414,1.5484,0.2041,2.16,0.69c0.5779,0.5595,0.875,1.3483,0.81,2.15C11.4042,8.6892,11.1088,9.5388,10.5,10.14z M9,6.9  C8.711,6.6881,8.3579,6.5822,8,6.6H6.31v2.65H8c0.3612,0.0191,0.717-0.0947,1-0.32c0.2559-0.2675,0.3867-0.6308,0.36-1  C9.4072,7.5493,9.274,7.1684,9,6.9z M14.41,4.21c0.114-0.2486,0.007-0.5427-0.24-0.66L7.5,0.45l-6.71,3.1  C0.5387,3.666,0.429,3.9637,0.545,4.215C0.661,4.4663,0.9587,4.576,1.21,4.46l0,0L7.5,1.55l6.29,2.9  c0.2486,0.114,0.5427,0.007,0.66-0.24H14.41z"
   id="path4741" />
</svg>