<?xml version="1.0" encoding="utf-8"?>
<!-- Generator: Adobe Illustrator 22.0.1, SVG Export Plug-In . SVG Version: 6.00 Build 0)  -->
<svg version="1.1"
	 id="svg4619" inkscape:version="0.92.3 (2405546, 2018-03-11)" sodipodi:docname="rail-light-15-b.svg" xmlns:cc="http://creativecommons.org/ns#" xmlns:dc="http://purl.org/dc/elements/1.1/" xmlns:inkscape="http://www.inkscape.org/namespaces/inkscape" xmlns:rdf="http://www.w3.org/1999/02/22-rdf-syntax-ns#" xmlns:sodipodi="http://sodipodi.sourceforge.net/DTD/sodipodi-0.dtd" xmlns:svg="http://www.w3.org/2000/svg"
	 xmlns="http://www.w3.org/2000/svg" xmlns:xlink="http://www.w3.org/1999/xlink" x="0px" y="0px" viewBox="0 0 15 15"
	 style="enable-background:new 0 0 15 15;" xml:space="preserve">
<style type="text/css">
	.st0{fill:#4BAF56;}
</style>
<sodipodi:namedview  bordercolor="#666666" borderopacity="1" gridtolerance="10" guidetolerance="10" id="namedview4520" inkscape:current-layer="svg4619" inkscape:cx="7.5" inkscape:cy="7.5" inkscape:pageopacity="0" inkscape:pageshadow="2" inkscape:window-height="821" inkscape:window-maximized="0" inkscape:window-width="1458" inkscape:window-x="196" inkscape:window-y="927" inkscape:zoom="28.261569" objecttolerance="10" pagecolor="#ffffff" showgrid="false">
	</sodipodi:namedview>
<path id="path14245" class="st0" d="M5.5,0C5,0,5,0.5,5,0.5v1C5,1.8,5.2,2,5.5,2S6,1.8,6,1.5V1h1v2H6c0,0-2,0-2,2v3c0,3,3,3,3,3h1
	c0,0,3,0,3-3V5c0-2-2-2-2-2H8V1h1v0.5C9,1.8,9.2,2,9.5,2S10,1.8,10,1.5v-1C10,0,9.5,0,9.5,0H5.5z M7.5,4l2,0.8L10,6.5
	C10.1,7,9.5,7,9.5,7h-4c0,0-0.6,0-0.5-0.5l0.5-1.7L7.5,4z M7.5,8C7.8,8,8,8.2,8,8.5S7.8,9,7.5,9S7,8.8,7,8.5S7.2,8,7.5,8z M4.1,12
	L3,15h1.5l0.4-1h5.2l0.4,1H12l-1.1-3H9.4l0.4,1H5.2l0.4-1H4.1z"/>
</svg>
