<?xml version="1.0" encoding="utf-8"?>
<!-- Generator: Adobe Illustrator 22.0.1, SVG Export Plug-In . SVG Version: 6.00 Build 0)  -->
<svg version="1.1"
	 id="svg4619" inkscape:version="0.92.3 (2405546, 2018-03-11)" sodipodi:docname="rail-light-w-15.svg" xmlns:cc="http://creativecommons.org/ns#" xmlns:dc="http://purl.org/dc/elements/1.1/" xmlns:inkscape="http://www.inkscape.org/namespaces/inkscape" xmlns:rdf="http://www.w3.org/1999/02/22-rdf-syntax-ns#" xmlns:sodipodi="http://sodipodi.sourceforge.net/DTD/sodipodi-0.dtd" xmlns:svg="http://www.w3.org/2000/svg"
	 xmlns="http://www.w3.org/2000/svg" xmlns:xlink="http://www.w3.org/1999/xlink" x="0px" y="0px" viewBox="0 0 15 15"
	 style="enable-background:new 0 0 15 15;" xml:space="preserve">
<style type="text/css">
	.st0{opacity:0.9;fill:#4BAF56;enable-background:new    ;}
	.st1{fill:#FFFFFF;}
</style>
<sodipodi:namedview  bordercolor="#666666" borderopacity="1" gridtolerance="10" guidetolerance="10" id="namedview3723" inkscape:current-layer="svg4619" inkscape:cx="3.2235702" inkscape:cy="7.5" inkscape:pageopacity="0" inkscape:pageshadow="2" inkscape:window-height="906" inkscape:window-maximized="0" inkscape:window-width="1537" inkscape:window-x="179" inkscape:window-y="69" inkscape:zoom="38.466667" objecttolerance="10" pagecolor="#ffffff" showgrid="false">
	</sodipodi:namedview>
<path id="path8564-5-6-4" inkscape:connector-curvature="0" class="st0" d="M7.5,0C11.6,0,15,3.4,15,7.5S11.6,15,7.5,15
	S0,11.6,0,7.5S3.4,0,7.5,0z"/>
<path id="path14245" class="st1" d="M6,1.9c-0.4,0-0.4,0.4-0.4,0.4V3c0,0.2,0.2,0.4,0.4,0.4S6.4,3.2,6.4,3V2.6h0.8v1.5H6.4
	c0,0-1.5,0-1.5,1.5v2.2C4.9,10,7.1,10,7.1,10h0.8c0,0,2.2,0,2.2-2.2V5.6c0-1.5-1.5-1.5-1.5-1.5H7.9V2.6h0.8V3c0,0.2,0.2,0.4,0.4,0.4
	S9.4,3.2,9.4,3V2.2C9.4,1.9,9,1.9,9,1.9H6z M7.5,4.9L9,5.5l0.3,1.3C9.5,7.1,9,7.1,9,7.1H6c0,0-0.5,0-0.4-0.4L6,5.5L7.5,4.9z
	 M7.5,7.9c0.2,0,0.4,0.2,0.4,0.4S7.7,8.6,7.5,8.6S7.1,8.5,7.1,8.2S7.3,7.9,7.5,7.9z M5,10.9l-0.8,2.2h1.1l0.3-0.8h3.9l0.3,0.8h1.1
	L10,10.9H8.9l0.3,0.8H5.8l0.3-0.8H5z"/>
</svg>
