<?xml version="1.0" encoding="UTF-8" standalone="no"?>
<!-- Generator: Adobe Illustrator 19.2.1, SVG Export Plug-In . SVG Version: 6.00 Build 0)  -->

<svg
   xmlns:dc="http://purl.org/dc/elements/1.1/"
   xmlns:cc="http://creativecommons.org/ns#"
   xmlns:rdf="http://www.w3.org/1999/02/22-rdf-syntax-ns#"
   xmlns:svg="http://www.w3.org/2000/svg"
   xmlns="http://www.w3.org/2000/svg"
   xmlns:sodipodi="http://sodipodi.sourceforge.net/DTD/sodipodi-0.dtd"
   xmlns:inkscape="http://www.inkscape.org/namespaces/inkscape"
   version="1.1"
   id="svg4619"
   inkscape:version="0.92.3 (2405546, 2018-03-11)"
   sodipodi:docname="rail-metro-w-15.svg"
   x="0px"
   y="0px"
   width="15px"
   height="15px"
   viewBox="0 0 15 15"
   style="enable-background:new 0 0 15 15;"
   xml:space="preserve"><metadata
   id="metadata4800"><rdf:RDF><cc:Work
       rdf:about=""><dc:format>image/svg+xml</dc:format><dc:type
         rdf:resource="http://purl.org/dc/dcmitype/StillImage" /><dc:title></dc:title></cc:Work></rdf:RDF></metadata><defs
   id="defs4798" /><sodipodi:namedview
   pagecolor="#ffffff"
   bordercolor="#666666"
   borderopacity="1"
   objecttolerance="10"
   gridtolerance="10"
   guidetolerance="10"
   inkscape:pageopacity="0"
   inkscape:pageshadow="2"
   inkscape:window-width="725"
   inkscape:window-height="480"
   id="namedview4796"
   showgrid="false"
   inkscape:zoom="33.6"
   inkscape:cx="7.5"
   inkscape:cy="7.5"
   inkscape:window-x="0"
   inkscape:window-y="0"
   inkscape:window-maximized="1"
   inkscape:current-layer="svg4619" />
<path
   id="path5258"
   d="M5.5,0c0,0-0.75,0-1,1L3,6.5V10c0,1,1,1,1,1h7c0,0,1,0,1-1V6.5L10.5,1c-0.2727-1-1-1-1-1H5.5z M6.5,1.5h2  c0,0,0.5357,0,0.75,1L10,6c0.2146,1.0017-1,1-1,1H6c0,0-1.2146,0.0017-1-1l0.75-3.5C5.9643,1.5,6.5,1.5,6.5,1.5z M5,8  c0.5523,0,1,0.4477,1,1s-0.4477,1-1,1S4,9.5523,4,9S4.4477,8,5,8z M6.75,8h1.5C8.3885,8,8.5,8.1115,8.5,8.25S8.3885,8.5,8.25,8.5  h-1.5C6.6115,8.5,6.5,8.3885,6.5,8.25S6.6115,8,6.75,8z M10,8c0.5523,0,1,0.4477,1,1s-0.4477,1-1,1S9,9.5523,9,9S9.4477,8,10,8z   M4.125,12L3,15h1.5l0.375-1h5.25l0.375,1H12l-1.125-3h-1.5l0.375,1h-4.5l0.375-1H4.125z"
   style="fill:#ffffff;fill-opacity:1" />
</svg>