<svg id="Layer_1" data-name="Layer 1" xmlns="http://www.w3.org/2000/svg" width="24" height="24" viewBox="0 0 24 24"><title>Icon_rail</title><path d="M16.92,1.5H7.72A3.93,3.93,0,0,0,3.78,5.44V16A3.93,3.93,0,0,0,7.72,19.9l-1,1A.93.93,0,0,0,8,22.22l2.33-2.32h3.94l2.33,2.32a.93.93,0,0,0,1.31-1.31l-1-1A3.93,3.93,0,0,0,20.86,16V5.44A3.93,3.93,0,0,0,16.92,1.5ZM7.72,17.27A1.32,1.32,0,1,1,9,16,1.31,1.31,0,0,1,7.72,17.27Zm9.2,0A1.32,1.32,0,1,1,18.23,16,1.32,1.32,0,0,1,16.92,17.27Zm1.31-4.6a.65.65,0,0,1-.65.66H7.06a.64.64,0,0,1-.65-.66V4.79a.64.64,0,0,1,.65-.66H17.58a.65.65,0,0,1,.65.66v7.88Z" fill="#fff"/></svg>