<svg id="Layer_1" data-name="Layer 1" xmlns="http://www.w3.org/2000/svg" width="48" height="48" viewBox="0 0 48 48"><title>Icons_environment_blue</title><path d="M47,.92C27-1.38,9.58,4.91,3,17.34a26.29,26.29,0,0,0-3,12v.12a21.27,21.27,0,0,0,3.44,9.42,90.43,90.43,0,0,1,9.27-13.32,39.77,39.77,0,0,1,3.82-3.77,22.66,22.66,0,0,1,4.69-3.38,18.56,18.56,0,0,1,6.62-1.92A20.47,20.47,0,0,0,23.07,19h0a38.45,38.45,0,0,0-3.92,3.69A53.38,53.38,0,0,0,11,35.18a48.86,48.86,0,0,0-2.91,8.49c1.31.91,7.82,5.2,15.78,3.47,6.92-1.51,10.77-6.62,12.61-9.06A28.06,28.06,0,0,0,42,25.39a195.82,195.82,0,0,1,5.95-23A1.11,1.11,0,0,0,47,.92Z" fill="#6fd1f6"/></svg>