<svg width="48" height="48" viewBox="0 0 48 48" fill="none" xmlns="http://www.w3.org/2000/svg">
<path d="M27.2209 10.7402H33.2909M16.5709 28.6002C16.5709 30.0698 16.1352 31.5063 15.3188 32.7281C14.5023 33.95 13.3419 34.9023 11.9843 35.4647C10.6266 36.027 9.1327 36.1742 7.69142 35.8875C6.25014 35.6008 4.92624 34.8931 3.88714 33.854C2.84803 32.8149 2.14039 31.491 1.85371 30.0498C1.56702 28.6085 1.71416 27.1146 2.27652 25.7569C2.83888 24.3992 3.7912 23.2388 5.01305 22.4224C6.23491 21.606 7.67143 21.1702 9.14094 21.1702C11.1115 21.1702 13.0013 21.953 14.3947 23.3464C15.7881 24.7398 16.5709 26.6297 16.5709 28.6002V28.6002ZM38.8609 21.1702C37.391 21.1683 35.9535 21.6023 34.7303 22.4176C33.5072 23.2328 32.5533 24.3925 31.9894 25.75C31.4255 27.1074 31.2769 28.6017 31.5625 30.0436C31.848 31.4856 32.5549 32.8104 33.5936 33.8505C34.6323 34.8906 35.9562 35.5992 37.3977 35.8867C38.8393 36.1742 40.3337 36.0277 41.692 35.4656C43.0502 34.9035 44.2112 33.9512 45.0281 32.7292C45.8449 31.5071 46.2809 30.0702 46.2809 28.6002C46.2809 26.6314 45.4995 24.7431 44.1083 23.35C42.7171 21.9569 40.8298 21.1729 38.8609 21.1702ZM9.14094 28.6002H23.0009H9.14094ZM16.5709 15.7302H31.4309H16.5709ZM9.14094 28.6002L16.5709 15.7402L9.14094 28.6002ZM38.8609 28.6002L28.6409 10.8802L38.8609 28.6002ZM13.7409 10.7502L23.4909 27.8202L13.7409 10.7502ZM23.0009 28.6002L31.4509 15.7402L23.0009 28.6002ZM10.5409 10.7402H16.4809H10.5409Z" stroke="white" stroke-width="3" stroke-linecap="round" stroke-linejoin="round"/>
</svg>
