<svg id="Layer_1" data-name="Layer 1" xmlns="http://www.w3.org/2000/svg" width="24" height="24" viewBox="0 0 24 24"><title>Icon_air quality</title><path d="M19.34,7.16l-.8-.8a.42.42,0,0,1,0-.6.43.43,0,0,1,.6,0l1.52,1.53a.42.42,0,0,1,0,.6L19.14,9.41a.42.42,0,0,1-.6,0,.41.41,0,0,1,0-.59l.8-.81H15.65a.43.43,0,0,1,0-.85Z" fill="#6fd1f6"/><path d="M21.23,11.59l-.8-.8a.42.42,0,1,1,.6-.6l1.53,1.53a.44.44,0,0,1,0,.6L21,13.84a.42.42,0,0,1-.6,0,.42.42,0,0,1,0-.59l.8-.81H15.65a.42.42,0,0,1,0-.84Z" fill="#6fd1f6"/><path d="M19.34,16.23l-.8-.8a.42.42,0,0,1,0-.6.43.43,0,0,1,.6,0l1.52,1.53a.42.42,0,0,1,0,.6l-1.52,1.53a.43.43,0,0,1-.6,0,.42.42,0,0,1,0-.6l.8-.81H15.65a.43.43,0,0,1,0-.85Z" fill="#6fd1f6"/><path d="M5,7a1.72,1.72,0,0,0-1.19.53,1.64,1.64,0,0,0-.32,1.65h-2a.55.55,0,0,0-.54.54.54.54,0,0,0,.54.54H5A1.63,1.63,0,0,0,5,7Zm0,2.2a.57.57,0,1,1,.57-.57A.57.57,0,0,1,5,9.18Z" fill="#6fd1f6"/><path d="M8.34,9.49a1.66,1.66,0,0,0-1.41.74,1.63,1.63,0,0,0-.13,1.42H1.45a.54.54,0,0,0,0,1.08H8.39a1.62,1.62,0,0,0-.05-3.24Zm0,2.17a.57.57,0,0,1-.57-.56.58.58,0,0,1,.57-.57.57.57,0,0,1,.56.57A.56.56,0,0,1,8.34,11.66Z" fill="#6fd1f6"/><path d="M10,15.66A1.62,1.62,0,0,0,8.39,14H1.45a.54.54,0,1,0,0,1.07H6.8a1.65,1.65,0,0,0,.13,1.43,1.71,1.71,0,0,0,1.41.74A1.64,1.64,0,0,0,10,15.66Zm-1.06,0a.56.56,0,0,1-.56.57.57.57,0,1,1,0-1.13A.56.56,0,0,1,8.9,15.65Z" fill="#6fd1f6"/><path d="M11.26,4.52v15a.15.15,0,0,0,.13.06.2.2,0,0,0,.14-.06v-15a.16.16,0,0,0-.14-.08A.14.14,0,0,0,11.26,4.52Z" fill="#6fd1f6"/><path d="M12.47,4.52v15a.2.2,0,0,0,.14.06.15.15,0,0,0,.13-.06v-15a.13.13,0,0,0-.13-.08A.16.16,0,0,0,12.47,4.52Z" fill="#6fd1f6"/></svg>