<svg id="Layer_1" data-name="Layer 1" xmlns="http://www.w3.org/2000/svg" width="24" height="24" viewBox="0 0 24 24"><title>Queries_Icon_24px</title><path d="M-2.08-1.86H28V28.2H-2.08Z" fill="none"/><path d="M17.34,15.68h-1L16,15.34a8.16,8.16,0,1,0-.88.88l.34.35v1l5.33,5.32A1.32,1.32,0,1,0,22.65,21Zm-7.51,0A5.64,5.64,0,1,1,15.46,10,5.63,5.63,0,0,1,9.83,15.68Z" fill="#6fd1f6"/><rect x="7.65" y="10.7" width="2.19" height="0.42" transform="translate(-4.61 15.05) rotate(-68.47)" fill="#6fd1f6"/><rect x="14.33" y="6.92" width="2.98" height="0.42" transform="translate(-1.02 11.31) rotate(-38.22)" fill="#6fd1f6"/><rect x="16.96" y="3.68" width="2.66" height="0.42" transform="translate(10.93 21.08) rotate(-78.83)" fill="#6fd1f6"/><rect x="10.28" y="8.57" width="2.98" height="0.42" transform="translate(-1.15 1.8) rotate(-8.33)" fill="#6fd1f6"/><rect x="4.35" y="12.88" width="3.13" height="0.42" transform="translate(-2.93 1.77) rotate(-13.69)" fill="#6fd1f6"/><circle cx="8.07" cy="12.52" r="0.84" fill="none" stroke="#6fd1f6" stroke-miterlimit="10" stroke-width="0.5"/><circle cx="13.88" cy="8.47" r="0.84" fill="none" stroke="#6fd1f6" stroke-miterlimit="10" stroke-width="0.5"/><circle cx="17.48" cy="5.73" r="0.84" fill="none" stroke="#6fd1f6" stroke-miterlimit="10" stroke-width="0.5"/><circle cx="18.58" cy="1.93" r="0.84" fill="none" stroke="#6fd1f6" stroke-miterlimit="10" stroke-width="0.5"/><circle cx="9.44" cy="9.14" r="0.84" fill="none" stroke="#6fd1f6" stroke-miterlimit="10" stroke-width="0.5"/></svg>