<svg id="Layer_1" data-name="Layer 1" xmlns="http://www.w3.org/2000/svg" width="24" height="24" viewBox="0 0 24 24"><title>Themes_Icon_24px</title><rect x="0.97" y="15.68" width="9.78" height="7.33" rx="1.22" fill="#6fd1f6"/><rect x="13.19" y="1.01" width="9.78" height="7.33" rx="1.22" fill="#6fd1f6"/><path d="M9.58,1H2.14A1.16,1.16,0,0,0,1,2.17v9.91a1.16,1.16,0,0,0,1.16,1.16H9.58a1.16,1.16,0,0,0,1.16-1.16V2.17A1.16,1.16,0,0,0,9.58,1ZM10,5.85,7.29,8.56a.48.48,0,0,1-.68,0L5,7,2.44,9.54a.5.5,0,0,1-.68,0,.49.49,0,0,1,0-.69L4.67,5.93a.49.49,0,0,1,.69,0L7,7.53,9.32,5.16a.49.49,0,0,1,.69.69Z" fill="#6fd1f6"/><path d="M21.84,10.78H14.32a1.13,1.13,0,0,0-1.13,1.13v10A1.14,1.14,0,0,0,14.32,23h7.52A1.13,1.13,0,0,0,23,21.89v-10A1.12,1.12,0,0,0,21.84,10.78Zm-5,9.1c0,.41-.2.75-.44.75h-.06c-.24,0-.43-.34-.43-.75V16.15c0-.41.19-.75.43-.75h.06c.24,0,.44.34.44.75Zm1.68,0c0,.41-.2.75-.44.75s-.43-.34-.43-.75v-6c0-.41.19-.74.43-.74s.44.33.44.74Zm1.74,0c0,.41-.19.75-.43.75s-.44-.34-.44-.75v-1.7c0-.41.2-.75.44-.75s.43.34.43.75Z" fill="#6fd1f6"/></svg>