<?xml version="1.0" encoding="iso-8859-1"?>
<!-- Generator: Adobe Illustrator 19.0.0, SVG Export Plug-In . SVG Version: 6.00 Build 0)  -->
<svg version="1.1" id="Layer_1" xmlns="http://www.w3.org/2000/svg" xmlns:xlink="http://www.w3.org/1999/xlink" x="0px" y="0px"
	 viewBox="0 0 512 512" style="enable-background:new 0 0 512 512;" xml:space="preserve">
<g>
	<g>
		<g>
			<path d="M502.747,160.381c-0.032,0-0.063,0.005-0.095,0.005H120.289c-5.11,0-9.253,4.142-9.253,9.253s4.143,9.253,9.253,9.253
				h373.205v55.518H18.506v-55.518h64.771c5.11,0,9.253-4.142,9.253-9.253s-4.143-9.253-9.253-9.253H18.506v-27.759
				c0-15.306,12.452-27.759,27.759-27.759h419.47c15.306,0,27.759,12.453,27.759,27.759c0,5.111,4.142,9.253,9.253,9.253
				s9.253-4.142,9.253-9.253c0-25.511-20.754-46.265-46.265-46.265H46.265C20.754,86.361,0,107.115,0,132.627v246.747
				c0,25.511,20.754,46.265,46.265,46.265h419.47c25.511,0,46.265-20.754,46.265-46.265V169.639v-0.005
				C512,164.523,507.858,160.381,502.747,160.381z M493.494,379.373c0,15.306-12.453,27.759-27.759,27.759H46.265
				c-15.307,0-27.759-12.453-27.759-27.759V252.916h474.988V379.373z"/>
			<path d="M95.614,376.289c8.799,0,17.334-2.495,24.675-7.13c7.342,4.635,15.876,7.13,24.675,7.13
				c25.511,0,46.265-20.754,46.265-46.265s-20.754-46.265-46.265-46.265c-8.799,0-17.333,2.495-24.675,7.13
				c-7.341-4.635-15.876-7.13-24.675-7.13c-25.511,0-46.265,20.754-46.265,46.265S70.103,376.289,95.614,376.289z M95.614,302.265
				c6.837,0,13.409,2.512,18.502,7.072c3.514,3.144,8.83,3.144,12.344,0c5.094-4.56,11.666-7.072,18.504-7.072
				c15.307,0,27.759,12.453,27.759,27.759s-12.452,27.759-27.759,27.759c-6.837,0-13.408-2.512-18.504-7.072
				c-1.757-1.572-3.964-2.359-6.171-2.359s-4.416,0.787-6.172,2.359c-5.093,4.56-11.665,7.072-18.502,7.072
				c-15.307,0-27.759-12.453-27.759-27.759S80.307,302.265,95.614,302.265z"/>
			<path d="M243.663,314.602H441.06c5.111,0,9.253-4.142,9.253-9.253c0-5.111-4.142-9.253-9.253-9.253H243.663
				c-5.11,0-9.253,4.142-9.253,9.253C234.41,310.461,238.553,314.602,243.663,314.602z"/>
			<path d="M416.386,333.108h-74.024c-5.111,0-9.253,4.142-9.253,9.253s4.142,9.253,9.253,9.253h74.024
				c5.111,0,9.253-4.142,9.253-9.253S421.497,333.108,416.386,333.108z"/>
			<path d="M243.663,351.614h61.687c5.111,0,9.253-4.142,9.253-9.253s-4.142-9.253-9.253-9.253h-61.687
				c-5.11,0-9.253,4.142-9.253,9.253S238.553,351.614,243.663,351.614z"/>
		</g>
	</g>
</g>
<g>
</g>
<g>
</g>
<g>
</g>
<g>
</g>
<g>
</g>
<g>
</g>
<g>
</g>
<g>
</g>
<g>
</g>
<g>
</g>
<g>
</g>
<g>
</g>
<g>
</g>
<g>
</g>
<g>
</g>
</svg>
