<?xml version="1.0" encoding="utf-8"?>
<!-- Generator: Adobe Illustrator 22.0.1, SVG Export Plug-In . SVG Version: 6.00 Build 0)  -->
<svg version="1.1" id="Layer_1" xmlns="http://www.w3.org/2000/svg" xmlns:xlink="http://www.w3.org/1999/xlink" x="0px" y="0px"
	 viewBox="0 0 512 512" style="enable-background:new 0 0 512 512;" xml:space="preserve">
<style type="text/css">
	.st0{fill:#FFFFFF;}
</style>
<g>
	<g>
		<g>
			<path class="st0" d="M502.7,160.4C502.7,160.4,502.7,160.4,502.7,160.4l-382.5,0c-5.1,0-9.3,4.1-9.3,9.3s4.1,9.3,9.3,9.3h373.2
				v55.5h-475v-55.5h64.8c5.1,0,9.3-4.1,9.3-9.3s-4.1-9.3-9.3-9.3H18.5v-27.8c0-15.3,12.5-27.8,27.8-27.8h419.5
				c15.3,0,27.8,12.5,27.8,27.8c0,5.1,4.1,9.3,9.3,9.3s9.3-4.1,9.3-9.3c0-25.5-20.8-46.3-46.3-46.3H46.3C20.8,86.4,0,107.1,0,132.6
				v246.7c0,25.5,20.8,46.3,46.3,46.3h419.5c25.5,0,46.3-20.8,46.3-46.3V169.6v0C512,164.5,507.9,160.4,502.7,160.4z M493.5,379.4
				c0,15.3-12.5,27.8-27.8,27.8H46.3c-15.3,0-27.8-12.5-27.8-27.8V252.9h475L493.5,379.4L493.5,379.4z"/>
			<path class="st0" d="M95.6,376.3c8.8,0,17.3-2.5,24.7-7.1c7.3,4.6,15.9,7.1,24.7,7.1c25.5,0,46.3-20.8,46.3-46.3
				s-20.8-46.3-46.3-46.3c-8.8,0-17.3,2.5-24.7,7.1c-7.3-4.6-15.9-7.1-24.7-7.1c-25.5,0-46.3,20.8-46.3,46.3S70.1,376.3,95.6,376.3z
				 M95.6,302.3c6.8,0,13.4,2.5,18.5,7.1c3.5,3.1,8.8,3.1,12.3,0c5.1-4.6,11.7-7.1,18.5-7.1c15.3,0,27.8,12.5,27.8,27.8
				s-12.5,27.8-27.8,27.8c-6.8,0-13.4-2.5-18.5-7.1c-1.8-1.6-4-2.4-6.2-2.4s-4.4,0.8-6.2,2.4c-5.1,4.6-11.7,7.1-18.5,7.1
				c-15.3,0-27.8-12.5-27.8-27.8S80.3,302.3,95.6,302.3z"/>
			<path class="st0" d="M243.7,314.6h197.4c5.1,0,9.3-4.1,9.3-9.3s-4.1-9.3-9.3-9.3H243.7c-5.1,0-9.3,4.1-9.3,9.3
				C234.4,310.5,238.6,314.6,243.7,314.6z"/>
			<path class="st0" d="M416.4,333.1h-74c-5.1,0-9.3,4.1-9.3,9.3s4.1,9.3,9.3,9.3h74c5.1,0,9.3-4.1,9.3-9.3S421.5,333.1,416.4,333.1
				z"/>
			<path class="st0" d="M243.7,351.6h61.7c5.1,0,9.3-4.1,9.3-9.3s-4.1-9.3-9.3-9.3h-61.7c-5.1,0-9.3,4.1-9.3,9.3
				S238.6,351.6,243.7,351.6z"/>
		</g>
	</g>
</g>
</svg>
