<?xml version="1.0" encoding="UTF-8" standalone="no"?>
<!-- Generator: Adobe Illustrator 16.0.0, SVG Export Plug-In . SVG Version: 6.00 Build 0)  -->

<svg
   xmlns:dc="http://purl.org/dc/elements/1.1/"
   xmlns:cc="http://creativecommons.org/ns#"
   xmlns:rdf="http://www.w3.org/1999/02/22-rdf-syntax-ns#"
   xmlns:svg="http://www.w3.org/2000/svg"
   xmlns="http://www.w3.org/2000/svg"
   xmlns:sodipodi="http://sodipodi.sourceforge.net/DTD/sodipodi-0.dtd"
   xmlns:inkscape="http://www.inkscape.org/namespaces/inkscape"
   version="1.1"
   id="Capa_1"
   x="0px"
   y="0px"
   width="97.16px"
   height="97.16px"
   viewBox="0 0 97.16 97.16"
   style="enable-background:new 0 0 97.16 97.16;"
   xml:space="preserve"
   sodipodi:docname="clock-circular-outline-w.svg"
   inkscape:version="0.92.3 (2405546, 2018-03-11)"><metadata
   id="metadata4898"><rdf:RDF><cc:Work
       rdf:about=""><dc:format>image/svg+xml</dc:format><dc:type
         rdf:resource="http://purl.org/dc/dcmitype/StillImage" /><dc:title></dc:title></cc:Work></rdf:RDF></metadata><defs
   id="defs4896" /><sodipodi:namedview
   pagecolor="#ffffff"
   bordercolor="#666666"
   borderopacity="1"
   objecttolerance="10"
   gridtolerance="10"
   guidetolerance="10"
   inkscape:pageopacity="0"
   inkscape:pageshadow="2"
   inkscape:window-width="725"
   inkscape:window-height="480"
   id="namedview4894"
   showgrid="false"
   inkscape:zoom="2.428983"
   inkscape:cx="48.580002"
   inkscape:cy="48.580002"
   inkscape:window-x="0"
   inkscape:window-y="0"
   inkscape:window-maximized="1"
   inkscape:current-layer="Capa_1" />
<g
   id="g4861"
   style="fill:#ffffff;fill-opacity:1">
	<g
   id="g4859"
   style="fill:#ffffff;fill-opacity:1">
		<path
   d="M48.58,0C21.793,0,0,21.793,0,48.58s21.793,48.58,48.58,48.58s48.58-21.793,48.58-48.58S75.367,0,48.58,0z M48.58,86.823    c-21.087,0-38.244-17.155-38.244-38.243S27.493,10.337,48.58,10.337S86.824,27.492,86.824,48.58S69.667,86.823,48.58,86.823z"
   id="path4855"
   style="fill:#ffffff;fill-opacity:1" />
		<path
   d="M73.898,47.08H52.066V20.83c0-2.209-1.791-4-4-4c-2.209,0-4,1.791-4,4v30.25c0,2.209,1.791,4,4,4h25.832    c2.209,0,4-1.791,4-4S76.107,47.08,73.898,47.08z"
   id="path4857"
   style="fill:#ffffff;fill-opacity:1" />
	</g>
</g>
<g
   id="g4863">
</g>
<g
   id="g4865">
</g>
<g
   id="g4867">
</g>
<g
   id="g4869">
</g>
<g
   id="g4871">
</g>
<g
   id="g4873">
</g>
<g
   id="g4875">
</g>
<g
   id="g4877">
</g>
<g
   id="g4879">
</g>
<g
   id="g4881">
</g>
<g
   id="g4883">
</g>
<g
   id="g4885">
</g>
<g
   id="g4887">
</g>
<g
   id="g4889">
</g>
<g
   id="g4891">
</g>
</svg>