<?xml version="1.0" encoding="utf-8"?>
<!-- Generator: Adobe Illustrator 22.1.0, SVG Export Plug-In . SVG Version: 6.00 Build 0)  -->
<svg version="1.1" id="Layer_1" xmlns="http://www.w3.org/2000/svg" xmlns:xlink="http://www.w3.org/1999/xlink" x="0px" y="0px"
	 viewBox="0 0 8 8" style="enable-background:new 0 0 8 8;" xml:space="preserve">
<style type="text/css">
	.st0{fill:none;stroke:#FFFFFF;stroke-width:0.5;stroke-miterlimit:10;}
</style>
<path class="st0" d="M2.8,0.4c1.3,0,2.3,1,2.3,2.3c0,0.6-0.2,1.3-0.6,1.7l0,0L4.4,4.5C4,4.9,3.4,5.1,2.8,5.1c-1.3,0-2.3-1-2.3-2.3
	S1.5,0.4,2.8,0.4L2.8,0.4z M7.2,7.4L4.4,4.9c-0.1-0.1-0.1-0.2,0-0.3l0,0c0.1-0.1,0.2-0.1,0.3,0l2.8,2.5c0.1,0.1,0.1,0.2,0,0.3l0,0
	C7.3,7.5,7.3,7.5,7.2,7.4z"/>
</svg>
