<svg width="360" height="540" viewBox="0 0 360 540" fill="none" xmlns="http://www.w3.org/2000/svg">
<g clip-path="url(#clip0)">
<path d="M124.906 -370.511L83.8958 -248.835C83.0406 -246.352 82.8047 -243.702 83.2127 -241.163C83.6207 -238.623 84.6576 -236.288 86.215 -234.399L137.902 -171.085C139.563 -169.226 140.717 -166.895 141.247 -164.33L156.512 -59.8908C156.98 -56.8732 156.539 -53.7187 155.253 -50.8853C153.966 -48.052 151.902 -45.6871 149.359 -44.1341L74.7185 2.39799C71.8902 4.09113 69.6489 6.77985 68.3893 9.99099C67.1297 13.2021 66.9326 16.7298 67.8326 19.9528L80.3616 66.1727C81.1998 69.4232 80.9663 72.9494 79.7004 76.1629L57.9098 131.416C56.5916 134.708 56.3948 138.341 57.3558 141.641C58.3167 144.941 60.3704 147.684 63.1357 149.362L131.926 165.419C138.47 178.261 144.315 191.535 149.435 205.178C155.248 220.463 160.188 236.164 164.229 252.196L128.808 337.969C128.136 341.689 128.805 345.468 130.676 348.513C132.547 351.558 135.475 353.634 138.846 354.305L196.736 366.598C198.457 366.946 200.243 366.918 201.992 366.514L282.059 349.344C284.443 348.795 286.884 348.946 289.124 349.78C291.365 350.615 293.323 352.102 294.792 354.086C296.26 356.069 297.186 358.476 297.47 361.052C297.755 363.628 297.388 366.279 296.408 368.724L265.436 448.694L254.671 479.965C253.676 483.3 253.79 486.844 254.993 489.964C256.195 493.083 258.408 495.575 261.234 496.994L286.124 510.13C288.027 511.132 290.151 511.605 292.315 511.511C294.479 511.416 296.619 510.756 298.552 509.586L325.497 493.525C326.798 492.727 328.2 492.157 329.647 491.839L530.181 449.26C532.95 448.66 535.774 449.004 538.259 450.243C540.745 451.483 542.767 453.556 544.043 456.172L552.996 474.25C554.396 477.219 556.744 479.501 559.629 480.696C562.513 481.891 565.751 481.923 568.774 480.786L615.408 463.585C616.452 463.14 617.436 462.526 618.324 461.767L743.42 376.494C745.536 375.09 747.931 374.313 750.353 374.245C752.774 374.177 755.13 374.82 757.172 376.107L887.388 451.863C890.323 453.599 893.823 454.014 897.17 453.023C900.517 452.032 903.459 449.71 905.392 446.533L933.958 400.399C935.526 397.934 937.684 395.964 940.181 394.719L986.56 372.6C989.661 371.074 993.112 370.826 996.238 371.905C999.365 372.983 1001.94 375.31 1003.47 378.431L1068.52 509.791C1069.55 511.898 1071.06 513.66 1072.92 514.918C1074.79 516.175 1076.94 516.886 1079.18 516.986L1149.76 520.139C1152.66 520.259 1155.58 519.385 1158.1 517.639L1271.72 436.085C1273.96 434.487 1275.77 432.235 1276.9 429.607C1278.04 426.978 1278.45 424.089 1278.1 421.297L1269.77 352.242C1269.64 351.306 1269.45 350.387 1269.18 349.494L1212.79 170.82C1211.68 167.363 1211.86 163.501 1213.29 160.03L1234.54 108.554C1235.71 105.749 1236.06 102.668 1235.55 99.7382L1225.92 40.8202C1225.63 38.9947 1225.01 37.2673 1224.1 35.7324L1207 6.85526C1206.61 6.18469 1206.17 5.55607 1205.68 4.97666L1161.98 -46.7775C1161.26 -47.5882 1160.65 -48.5016 1160.16 -49.4949L1128.22 -113.986C1127.23 -115.972 1126.7 -118.212 1126.68 -120.521C1126.67 -122.83 1127.16 -125.141 1128.12 -127.262L1155.46 -188.437C1155.77 -189.1 1156.03 -189.782 1156.24 -190.479L1164.62 -219.031C1165.2 -220.939 1165.42 -222.934 1165.26 -224.894C1165.11 -226.853 1164.59 -228.736 1163.73 -230.427L1153.6 -250.881C1152.7 -252.621 1152.16 -254.568 1152.01 -256.594C1151.87 -258.62 1152.12 -260.679 1152.76 -262.639L1158.07 -278.967C1158.7 -280.915 1158.96 -282.962 1158.82 -284.976C1158.68 -286.991 1158.15 -288.928 1157.26 -290.662L1127.99 -349.774C1127.22 -351.31 1126.18 -352.661 1124.93 -353.759L1067.84 -404.538C1065.55 -406.547 1064 -409.375 1063.44 -412.563C1062.88 -415.751 1063.34 -419.111 1064.75 -422.097L1071.27 -436.148C1072.57 -438.812 1073.11 -441.798 1072.82 -444.707C1072.54 -447.617 1071.43 -450.314 1069.66 -452.441C1067.89 -454.568 1065.53 -456.025 1062.9 -456.618C1060.27 -457.211 1057.5 -456.913 1054.94 -455.763L1053.87 -455.095C1051.84 -454.243 1050 -452.889 1048.51 -451.146C1047.01 -449.403 1045.9 -447.321 1045.27 -445.073L1030.55 -393.648C1029.99 -391.641 1029.04 -389.761 1027.78 -388.137C1026.52 -386.512 1024.97 -385.178 1023.23 -384.226C1021.49 -383.273 1019.6 -382.722 1017.69 -382.611C1015.78 -382.499 1013.9 -382.83 1012.16 -383.58L954.209 -408.112C951.497 -409.239 949.256 -411.329 947.835 -414.057C946.414 -416.784 945.893 -419.995 946.353 -423.19C946.717 -425.512 946.564 -427.865 945.905 -430.049C945.247 -432.232 944.103 -434.182 942.571 -435.733C941.038 -437.284 939.162 -438.39 937.102 -438.958C935.042 -439.526 932.858 -439.539 930.735 -438.995L833.367 -413.66C831.283 -413.082 829.128 -413.06 827.09 -413.594L693.106 -448.197C690.86 -448.787 688.477 -448.719 686.195 -448C683.913 -447.282 681.812 -445.937 680.1 -444.1L630.485 -391.394C628.24 -388.965 625.331 -387.404 622.252 -386.975C619.172 -386.547 616.108 -387.276 613.578 -389.04L528.176 -447.135C526.54 -448.222 525.165 -449.701 524.149 -451.466C523.133 -453.23 522.501 -455.238 522.297 -457.345C522.094 -459.453 522.324 -461.609 522.971 -463.661C523.618 -465.713 524.667 -467.61 526.042 -469.218L583.47 -537.765C584.907 -539.457 585.982 -541.466 586.611 -543.633C587.24 -545.8 587.407 -548.068 587.098 -550.259L582.577 -583.298C582.055 -586.849 580.354 -590.005 577.787 -592.182L546.088 -618.756C544.077 -620.451 541.62 -621.444 539.018 -621.611C536.416 -621.778 533.783 -621.113 531.444 -619.696L381.339 -529.556C379.552 -528.466 377.584 -527.81 375.58 -527.637C373.576 -527.465 371.587 -527.779 369.758 -528.558L341.764 -540.414C339.905 -541.221 337.876 -541.546 335.833 -541.365C333.79 -541.184 331.786 -540.5 329.974 -539.367L257.298 -494.06C254.582 -492.35 252.422 -489.736 251.161 -486.632L209.676 -382.589C208.445 -379.496 206.3 -376.892 203.595 -375.206C200.89 -373.52 197.787 -372.852 194.796 -373.312L139.891 -380.835C136.767 -381.247 133.548 -380.435 130.805 -378.545C128.061 -376.655 125.972 -373.809 124.906 -370.511V-370.511Z" fill="#293135" stroke="#2D7D9A" stroke-opacity="0.38" stroke-miterlimit="10"/>
<g clip-path="url(#clip1)">
<path d="M222.001 260.461C221.651 260.067 221.223 259.767 220.749 259.586C221.084 259.334 221.337 258.971 221.47 258.55C221.603 258.129 221.61 257.673 221.49 257.247C221.37 256.822 221.129 256.45 220.802 256.185C220.475 255.921 220.08 255.778 219.673 255.778C219.267 255.778 218.872 255.921 218.545 256.185C218.218 256.45 217.977 256.822 217.857 257.247C217.737 257.673 217.744 258.129 217.877 258.55C218.01 258.971 218.263 259.334 218.598 259.586C217.951 259.831 217.39 260.292 216.993 260.904C216.596 261.516 216.382 262.248 216.383 262.999H216.914C216.914 262.599 216.986 262.203 217.125 261.833C217.265 261.464 217.469 261.128 217.727 260.845C217.985 260.562 218.291 260.337 218.628 260.184C218.965 260.031 219.326 259.952 219.691 259.952C220.056 259.952 220.417 260.031 220.754 260.184C221.091 260.337 221.397 260.562 221.655 260.845C221.913 261.128 222.117 261.464 222.257 261.833C222.397 262.203 222.468 262.599 222.468 262.999H222.982C222.979 262.526 222.891 262.059 222.722 261.623C222.554 261.187 222.309 260.793 222.001 260.461V260.461ZM219.673 259.405C219.4 259.405 219.132 259.316 218.904 259.149C218.676 258.983 218.498 258.746 218.392 258.468C218.287 258.191 218.258 257.886 218.31 257.591C218.362 257.296 218.493 257.024 218.685 256.81C218.878 256.597 219.124 256.45 219.392 256.389C219.66 256.328 219.939 256.356 220.193 256.468C220.447 256.58 220.665 256.773 220.82 257.021C220.974 257.269 221.059 257.561 221.062 257.862C221.062 258.268 220.916 258.657 220.656 258.946C220.397 259.235 220.043 259.4 219.673 259.405V259.405Z" fill="#2D7D9A"/>
<path d="M217.167 263.143C216.814 262.758 216.386 262.465 215.916 262.286C216.25 262.033 216.502 261.669 216.634 261.248C216.767 260.826 216.773 260.37 216.652 259.944C216.531 259.518 216.289 259.146 215.962 258.882C215.635 258.618 215.239 258.476 214.833 258.476C214.427 258.476 214.031 258.618 213.704 258.882C213.376 259.146 213.135 259.518 213.014 259.944C212.893 260.37 212.899 260.826 213.031 261.248C213.164 261.669 213.416 262.033 213.75 262.286C213.28 262.467 212.853 262.763 212.502 263.15C212.195 263.485 211.951 263.882 211.785 264.321C211.619 264.759 211.534 265.229 211.535 265.704H212.063C212.049 265.295 212.111 264.887 212.245 264.505C212.378 264.123 212.581 263.774 212.84 263.479C213.099 263.185 213.409 262.951 213.752 262.791C214.096 262.631 214.465 262.548 214.838 262.548C215.211 262.548 215.58 262.631 215.924 262.791C216.267 262.951 216.578 263.185 216.837 263.479C217.096 263.774 217.298 264.123 217.431 264.505C217.565 264.887 217.627 265.295 217.614 265.704H218.13C218.132 265.228 218.048 264.757 217.883 264.317C217.717 263.878 217.474 263.478 217.167 263.143V263.143ZM214.84 262.082C214.564 262.086 214.294 262 214.064 261.835C213.833 261.67 213.652 261.433 213.544 261.155C213.437 260.877 213.407 260.57 213.458 260.273C213.51 259.976 213.641 259.703 213.834 259.488C214.028 259.273 214.275 259.126 214.545 259.066C214.815 259.005 215.095 259.034 215.35 259.149C215.604 259.264 215.822 259.459 215.976 259.71C216.129 259.961 216.211 260.256 216.211 260.558C216.207 260.958 216.061 261.339 215.805 261.624C215.55 261.908 215.204 262.072 214.84 262.082Z" fill="#2D7D9A"/>
<path d="M226.839 263.143C226.485 262.758 226.058 262.465 225.587 262.286C225.923 262.034 226.176 261.67 226.309 261.249C226.443 260.827 226.45 260.37 226.33 259.943C226.209 259.517 225.968 259.144 225.64 258.879C225.313 258.615 224.916 258.472 224.51 258.472C224.103 258.472 223.707 258.615 223.379 258.879C223.052 259.144 222.81 259.517 222.69 259.943C222.569 260.37 222.576 260.827 222.71 261.249C222.843 261.67 223.097 262.034 223.432 262.286C222.964 262.466 222.538 262.758 222.188 263.143C221.88 263.477 221.637 263.875 221.471 264.313C221.305 264.751 221.22 265.222 221.221 265.696H221.738C221.738 265.296 221.809 264.9 221.949 264.53C222.088 264.16 222.293 263.824 222.551 263.542C222.809 263.259 223.115 263.034 223.452 262.881C223.789 262.728 224.15 262.649 224.515 262.649C224.88 262.649 225.241 262.728 225.578 262.881C225.915 263.034 226.221 263.259 226.479 263.542C226.737 263.824 226.941 264.16 227.081 264.53C227.22 264.9 227.292 265.296 227.292 265.696H227.813C227.812 265.221 227.726 264.751 227.559 264.312C227.391 263.874 227.147 263.477 226.839 263.143V263.143ZM224.511 262.082C224.237 262.078 223.971 261.986 223.745 261.816C223.519 261.646 223.343 261.407 223.241 261.128C223.139 260.85 223.114 260.544 223.169 260.25C223.225 259.955 223.358 259.686 223.553 259.474C223.748 259.263 223.996 259.12 224.264 259.063C224.533 259.006 224.812 259.037 225.064 259.153C225.317 259.269 225.533 259.464 225.685 259.714C225.837 259.964 225.918 260.258 225.918 260.558C225.913 260.964 225.763 261.352 225.5 261.637C225.236 261.922 224.881 262.082 224.511 262.082V262.082Z" fill="#2D7D9A"/>
</g>
<g clip-path="url(#clip2)">
<path d="M321.845 139.347C321.495 138.953 321.066 138.653 320.593 138.472C320.928 138.22 321.18 137.857 321.314 137.436C321.447 137.015 321.454 136.558 321.334 136.133C321.214 135.707 320.972 135.335 320.646 135.071C320.319 134.807 319.923 134.664 319.517 134.664C319.111 134.664 318.716 134.807 318.389 135.071C318.062 135.335 317.821 135.707 317.701 136.133C317.58 136.558 317.587 137.015 317.721 137.436C317.854 137.857 318.107 138.22 318.441 138.472C317.794 138.717 317.233 139.178 316.836 139.79C316.439 140.402 316.226 141.134 316.227 141.885H316.757C316.757 141.485 316.829 141.089 316.969 140.719C317.108 140.349 317.313 140.013 317.571 139.731C317.829 139.448 318.135 139.223 318.472 139.07C318.809 138.917 319.17 138.838 319.535 138.838C319.899 138.838 320.261 138.917 320.598 139.07C320.935 139.223 321.241 139.448 321.499 139.731C321.757 140.013 321.961 140.349 322.101 140.719C322.24 141.089 322.312 141.485 322.312 141.885H322.825C322.823 141.412 322.734 140.944 322.566 140.509C322.398 140.073 322.152 139.678 321.845 139.347V139.347ZM319.517 138.29C319.243 138.29 318.976 138.201 318.748 138.035C318.52 137.868 318.342 137.631 318.236 137.354C318.13 137.077 318.102 136.772 318.154 136.477C318.206 136.182 318.337 135.91 318.529 135.696C318.722 135.482 318.967 135.336 319.236 135.275C319.504 135.214 319.783 135.241 320.037 135.354C320.291 135.466 320.509 135.658 320.663 135.906C320.818 136.154 320.902 136.447 320.906 136.747C320.906 137.153 320.76 137.543 320.5 137.832C320.24 138.12 319.887 138.285 319.517 138.29V138.29Z" fill="#2D7D9A"/>
<path d="M317.011 142.028C316.658 141.643 316.23 141.351 315.759 141.172C316.094 140.919 316.345 140.555 316.478 140.133C316.61 139.712 316.617 139.255 316.496 138.83C316.375 138.404 316.133 138.032 315.806 137.768C315.479 137.504 315.083 137.361 314.677 137.361C314.27 137.361 313.875 137.504 313.547 137.768C313.22 138.032 312.978 138.404 312.857 138.83C312.737 139.255 312.743 139.712 312.875 140.133C313.008 140.555 313.259 140.919 313.594 141.172C313.124 141.353 312.697 141.648 312.346 142.036C312.038 142.37 311.795 142.768 311.629 143.206C311.463 143.645 311.378 144.115 311.379 144.59H311.906C311.893 144.181 311.955 143.773 312.088 143.391C312.222 143.008 312.424 142.66 312.683 142.365C312.942 142.071 313.253 141.836 313.596 141.676C313.94 141.516 314.309 141.434 314.682 141.434C315.055 141.434 315.424 141.516 315.767 141.676C316.111 141.836 316.421 142.071 316.68 142.365C316.939 142.66 317.142 143.008 317.275 143.391C317.409 143.773 317.471 144.181 317.457 144.59H317.974C317.976 144.114 317.892 143.643 317.727 143.203C317.561 142.763 317.318 142.364 317.011 142.028V142.028ZM314.684 140.968C314.408 140.972 314.138 140.885 313.907 140.72C313.677 140.555 313.496 140.319 313.388 140.041C313.28 139.763 313.25 139.456 313.302 139.159C313.354 138.862 313.484 138.589 313.678 138.374C313.871 138.159 314.119 138.012 314.389 137.951C314.658 137.891 314.939 137.92 315.193 138.035C315.448 138.149 315.666 138.345 315.819 138.596C315.973 138.847 316.055 139.142 316.055 139.444C316.05 139.843 315.905 140.225 315.649 140.509C315.394 140.793 315.047 140.958 314.684 140.968Z" fill="#2D7D9A"/>
<path d="M326.682 142.028C326.329 141.643 325.901 141.351 325.431 141.172C325.766 140.92 326.019 140.556 326.153 140.135C326.287 139.713 326.294 139.256 326.173 138.829C326.053 138.403 325.811 138.03 325.484 137.765C325.156 137.5 324.76 137.357 324.353 137.357C323.946 137.357 323.55 137.5 323.223 137.765C322.895 138.03 322.654 138.403 322.533 138.829C322.413 139.256 322.42 139.713 322.554 140.135C322.687 140.556 322.94 140.92 323.276 141.172C322.808 141.351 322.382 141.644 322.031 142.028C321.724 142.363 321.48 142.76 321.314 143.199C321.148 143.637 321.063 144.107 321.064 144.582H321.581C321.581 144.182 321.653 143.786 321.793 143.416C321.932 143.046 322.137 142.71 322.395 142.427C322.653 142.144 322.959 141.92 323.296 141.767C323.633 141.614 323.994 141.535 324.359 141.535C324.723 141.535 325.084 141.614 325.421 141.767C325.758 141.92 326.065 142.144 326.322 142.427C326.58 142.71 326.785 143.046 326.925 143.416C327.064 143.786 327.136 144.182 327.136 144.582H327.656C327.656 144.107 327.569 143.637 327.402 143.198C327.235 142.76 326.99 142.362 326.682 142.028V142.028ZM324.355 140.968C324.081 140.964 323.814 140.871 323.588 140.702C323.362 140.532 323.187 140.293 323.085 140.014C322.982 139.735 322.957 139.43 323.013 139.135C323.068 138.841 323.202 138.571 323.397 138.36C323.592 138.149 323.839 138.006 324.108 137.949C324.377 137.891 324.655 137.923 324.908 138.039C325.161 138.154 325.377 138.35 325.528 138.6C325.68 138.85 325.761 139.144 325.761 139.444C325.757 139.85 325.607 140.238 325.343 140.523C325.08 140.808 324.725 140.968 324.355 140.968V140.968Z" fill="#2D7D9A"/>
</g>
<g clip-path="url(#clip3)">
<path d="M295.829 458.718C295.479 458.324 295.051 458.024 294.577 457.843C294.912 457.591 295.165 457.228 295.298 456.807C295.431 456.386 295.438 455.93 295.318 455.504C295.198 455.078 294.957 454.706 294.63 454.442C294.303 454.178 293.908 454.035 293.502 454.035C293.096 454.035 292.7 454.178 292.373 454.442C292.046 454.706 291.805 455.078 291.685 455.504C291.565 455.93 291.572 456.386 291.705 456.807C291.838 457.228 292.091 457.591 292.426 457.843C291.779 458.088 291.218 458.549 290.821 459.161C290.424 459.773 290.211 460.505 290.211 461.256H290.742C290.742 460.856 290.814 460.46 290.953 460.09C291.093 459.72 291.297 459.385 291.555 459.102C291.813 458.819 292.119 458.594 292.456 458.441C292.793 458.288 293.154 458.209 293.519 458.209C293.884 458.209 294.245 458.288 294.582 458.441C294.919 458.594 295.225 458.819 295.483 459.102C295.741 459.385 295.945 459.72 296.085 460.09C296.225 460.46 296.296 460.856 296.296 461.256H296.81C296.807 460.783 296.719 460.315 296.55 459.88C296.382 459.444 296.137 459.049 295.829 458.718V458.718ZM293.502 457.661C293.228 457.661 292.96 457.573 292.732 457.406C292.504 457.239 292.326 457.003 292.22 456.725C292.115 456.448 292.086 456.143 292.138 455.848C292.191 455.553 292.321 455.281 292.514 455.067C292.706 454.854 292.952 454.707 293.22 454.646C293.488 454.585 293.767 454.612 294.021 454.725C294.275 454.837 294.493 455.029 294.648 455.277C294.802 455.525 294.887 455.818 294.89 456.119C294.89 456.524 294.745 456.914 294.485 457.203C294.225 457.492 293.871 457.656 293.502 457.661V457.661Z" fill="#2D7D9A"/>
<path d="M290.995 461.399C290.642 461.014 290.214 460.722 289.744 460.543C290.078 460.29 290.33 459.926 290.462 459.505C290.595 459.083 290.601 458.626 290.48 458.201C290.359 457.775 290.117 457.403 289.79 457.139C289.463 456.875 289.067 456.732 288.661 456.732C288.255 456.732 287.859 456.875 287.532 457.139C287.204 457.403 286.963 457.775 286.842 458.201C286.721 458.626 286.727 459.083 286.86 459.505C286.992 459.926 287.244 460.29 287.578 460.543C287.108 460.724 286.681 461.02 286.33 461.407C286.023 461.741 285.779 462.139 285.613 462.577C285.447 463.016 285.362 463.486 285.363 463.961H285.891C285.877 463.552 285.939 463.144 286.073 462.762C286.206 462.38 286.409 462.031 286.668 461.736C286.927 461.442 287.237 461.208 287.581 461.048C287.924 460.888 288.293 460.805 288.666 460.805C289.039 460.805 289.408 460.888 289.752 461.048C290.095 461.208 290.406 461.442 290.665 461.736C290.924 462.031 291.126 462.38 291.26 462.762C291.393 463.144 291.455 463.552 291.442 463.961H291.959C291.96 463.485 291.876 463.014 291.711 462.574C291.546 462.135 291.302 461.735 290.995 461.399V461.399ZM288.668 460.339C288.393 460.343 288.122 460.257 287.892 460.091C287.661 459.926 287.48 459.69 287.373 459.412C287.265 459.134 287.235 458.827 287.286 458.53C287.338 458.233 287.469 457.96 287.662 457.745C287.856 457.53 288.103 457.383 288.373 457.322C288.643 457.262 288.923 457.291 289.178 457.406C289.432 457.521 289.65 457.716 289.804 457.967C289.957 458.218 290.039 458.513 290.039 458.815C290.035 459.214 289.889 459.596 289.634 459.88C289.378 460.165 289.032 460.329 288.668 460.339Z" fill="#2D7D9A"/>
<path d="M300.667 461.4C300.314 461.015 299.886 460.722 299.415 460.543C299.751 460.291 300.004 459.927 300.137 459.506C300.271 459.084 300.278 458.627 300.158 458.2C300.037 457.774 299.796 457.401 299.468 457.136C299.141 456.871 298.745 456.729 298.338 456.729C297.931 456.729 297.535 456.871 297.207 457.136C296.88 457.401 296.638 457.774 296.518 458.2C296.397 458.627 296.404 459.084 296.538 459.506C296.672 459.927 296.925 460.291 297.26 460.543C296.792 460.723 296.367 461.015 296.016 461.4C295.708 461.734 295.465 462.132 295.299 462.57C295.133 463.008 295.048 463.478 295.049 463.953H295.566C295.566 463.553 295.637 463.157 295.777 462.787C295.917 462.417 296.121 462.081 296.379 461.798C296.637 461.515 296.943 461.291 297.28 461.138C297.617 460.985 297.978 460.906 298.343 460.906C298.708 460.906 299.069 460.985 299.406 461.138C299.743 461.291 300.049 461.515 300.307 461.798C300.565 462.081 300.769 462.417 300.909 462.787C301.048 463.157 301.12 463.553 301.12 463.953H301.641C301.64 463.478 301.554 463.008 301.387 462.569C301.22 462.131 300.975 461.733 300.667 461.4V461.4ZM298.339 460.339C298.066 460.335 297.799 460.242 297.573 460.073C297.347 459.903 297.172 459.664 297.069 459.385C296.967 459.106 296.942 458.801 296.997 458.506C297.053 458.212 297.186 457.942 297.381 457.731C297.576 457.52 297.824 457.377 298.093 457.32C298.361 457.262 298.64 457.294 298.892 457.41C299.145 457.525 299.361 457.721 299.513 457.971C299.665 458.221 299.746 458.515 299.746 458.815C299.741 459.221 299.591 459.609 299.328 459.894C299.064 460.179 298.709 460.339 298.339 460.339V460.339Z" fill="#2D7D9A"/>
</g>
<g clip-path="url(#clip4)">
<path d="M259.97 208.004C259.62 207.61 259.191 207.31 258.718 207.129C259.053 206.877 259.305 206.514 259.439 206.093C259.572 205.672 259.579 205.216 259.459 204.79C259.339 204.365 259.097 203.992 258.771 203.728C258.444 203.464 258.048 203.321 257.642 203.321C257.236 203.321 256.841 203.464 256.514 203.728C256.187 203.992 255.946 204.365 255.826 204.79C255.705 205.216 255.712 205.672 255.846 206.093C255.979 206.514 256.232 206.877 256.566 207.129C255.919 207.374 255.358 207.835 254.961 208.447C254.564 209.059 254.351 209.791 254.352 210.542H254.882C254.882 210.142 254.954 209.746 255.094 209.376C255.233 209.007 255.438 208.671 255.696 208.388C255.954 208.105 256.26 207.88 256.597 207.727C256.934 207.574 257.295 207.495 257.66 207.495C258.024 207.495 258.386 207.574 258.723 207.727C259.06 207.88 259.366 208.105 259.624 208.388C259.882 208.671 260.086 209.007 260.226 209.376C260.365 209.746 260.437 210.142 260.437 210.542H260.95C260.948 210.069 260.859 209.601 260.691 209.166C260.523 208.73 260.277 208.336 259.97 208.004V208.004ZM257.642 206.948C257.368 206.948 257.101 206.859 256.873 206.692C256.645 206.525 256.467 206.289 256.361 206.011C256.255 205.734 256.227 205.429 256.279 205.134C256.331 204.839 256.462 204.567 256.654 204.353C256.847 204.14 257.092 203.993 257.361 203.932C257.629 203.871 257.908 203.899 258.162 204.011C258.416 204.123 258.634 204.316 258.788 204.564C258.943 204.812 259.027 205.104 259.031 205.405C259.031 205.811 258.885 206.2 258.625 206.489C258.365 206.778 258.012 206.942 257.642 206.948V206.948Z" fill="#2D7D9A"/>
<path d="M255.136 210.686C254.783 210.301 254.355 210.008 253.884 209.829C254.219 209.576 254.47 209.212 254.603 208.791C254.735 208.369 254.742 207.912 254.621 207.487C254.5 207.061 254.258 206.689 253.931 206.425C253.604 206.161 253.208 206.019 252.802 206.019C252.395 206.019 252 206.161 251.672 206.425C251.345 206.689 251.103 207.061 250.982 207.487C250.862 207.912 250.868 208.369 251 208.791C251.133 209.212 251.384 209.576 251.719 209.829C251.249 210.01 250.822 210.306 250.471 210.693C250.163 211.027 249.92 211.425 249.754 211.864C249.588 212.302 249.503 212.772 249.504 213.247H250.031C250.018 212.838 250.08 212.43 250.213 212.048C250.347 211.666 250.549 211.317 250.808 211.022C251.067 210.728 251.378 210.494 251.721 210.334C252.065 210.174 252.434 210.091 252.807 210.091C253.18 210.091 253.549 210.174 253.892 210.334C254.236 210.494 254.546 210.728 254.805 211.022C255.064 211.317 255.267 211.666 255.4 212.048C255.534 212.43 255.596 212.838 255.582 213.247H256.099C256.101 212.771 256.017 212.3 255.852 211.86C255.686 211.421 255.443 211.021 255.136 210.686V210.686ZM252.809 209.625C252.533 209.629 252.263 209.543 252.032 209.378C251.802 209.213 251.621 208.976 251.513 208.698C251.405 208.42 251.375 208.113 251.427 207.816C251.479 207.519 251.609 207.246 251.803 207.031C251.996 206.816 252.244 206.669 252.514 206.609C252.783 206.548 253.064 206.577 253.318 206.692C253.573 206.807 253.791 207.002 253.944 207.253C254.098 207.504 254.18 207.799 254.18 208.101C254.175 208.501 254.03 208.882 253.774 209.167C253.519 209.451 253.172 209.615 252.809 209.625Z" fill="#2D7D9A"/>
<path d="M264.807 210.686C264.454 210.301 264.026 210.008 263.556 209.829C263.891 209.577 264.144 209.213 264.278 208.792C264.412 208.37 264.419 207.913 264.298 207.486C264.178 207.06 263.936 206.687 263.609 206.422C263.281 206.158 262.885 206.015 262.478 206.015C262.071 206.015 261.675 206.158 261.348 206.422C261.02 206.687 260.779 207.06 260.658 207.486C260.538 207.913 260.545 208.37 260.679 208.792C260.812 209.213 261.065 209.577 261.401 209.829C260.933 210.009 260.507 210.301 260.156 210.686C259.849 211.02 259.605 211.418 259.439 211.856C259.273 212.294 259.188 212.764 259.189 213.239H259.706C259.706 212.839 259.778 212.443 259.918 212.073C260.057 211.703 260.262 211.367 260.52 211.084C260.778 210.802 261.084 210.577 261.421 210.424C261.758 210.271 262.119 210.192 262.484 210.192C262.848 210.192 263.209 210.271 263.546 210.424C263.883 210.577 264.19 210.802 264.447 211.084C264.705 211.367 264.91 211.703 265.05 212.073C265.189 212.443 265.261 212.839 265.261 213.239H265.781C265.781 212.764 265.694 212.294 265.527 211.855C265.36 211.417 265.115 211.02 264.807 210.686V210.686ZM262.48 209.625C262.206 209.621 261.939 209.529 261.713 209.359C261.487 209.189 261.312 208.95 261.21 208.671C261.107 208.393 261.082 208.087 261.138 207.793C261.193 207.498 261.327 207.229 261.522 207.017C261.717 206.806 261.964 206.663 262.233 206.606C262.502 206.549 262.78 206.58 263.033 206.696C263.286 206.812 263.502 207.007 263.653 207.257C263.805 207.507 263.886 207.801 263.886 208.101C263.882 208.507 263.732 208.895 263.468 209.18C263.205 209.465 262.85 209.625 262.48 209.625V209.625Z" fill="#2D7D9A"/>
</g>
<g clip-path="url(#clip5)">
<path d="M205.126 314.076C204.776 313.681 204.348 313.382 203.874 313.2C204.209 312.948 204.462 312.585 204.595 312.164C204.728 311.744 204.735 311.287 204.615 310.861C204.495 310.436 204.254 310.064 203.927 309.799C203.6 309.535 203.205 309.393 202.798 309.393C202.392 309.393 201.997 309.535 201.67 309.799C201.343 310.064 201.102 310.436 200.982 310.861C200.862 311.287 200.869 311.744 201.002 312.164C201.135 312.585 201.388 312.948 201.723 313.2C201.076 313.446 200.515 313.906 200.118 314.518C199.721 315.13 199.507 315.863 199.508 316.614H200.039C200.039 316.214 200.111 315.817 200.25 315.448C200.39 315.078 200.594 314.742 200.852 314.459C201.11 314.176 201.416 313.952 201.753 313.799C202.09 313.645 202.451 313.567 202.816 313.567C203.181 313.567 203.542 313.645 203.879 313.799C204.216 313.952 204.522 314.176 204.78 314.459C205.038 314.742 205.242 315.078 205.382 315.448C205.522 315.817 205.593 316.214 205.593 316.614H206.107C206.104 316.141 206.016 315.673 205.847 315.237C205.679 314.802 205.434 314.407 205.126 314.076V314.076ZM202.798 313.019C202.525 313.019 202.257 312.93 202.029 312.763C201.801 312.597 201.623 312.36 201.517 312.083C201.412 311.805 201.383 311.5 201.435 311.205C201.487 310.91 201.618 310.639 201.81 310.425C202.003 310.211 202.249 310.064 202.517 310.003C202.785 309.942 203.064 309.97 203.318 310.082C203.572 310.195 203.79 310.387 203.945 310.635C204.099 310.883 204.184 311.176 204.187 311.476C204.187 311.882 204.041 312.271 203.781 312.56C203.522 312.849 203.168 313.014 202.798 313.019V313.019Z" fill="#2D7D9A"/>
<path d="M200.292 316.757C199.939 316.372 199.511 316.079 199.041 315.901C199.375 315.647 199.627 315.283 199.759 314.862C199.892 314.441 199.898 313.984 199.777 313.558C199.656 313.133 199.414 312.761 199.087 312.496C198.76 312.232 198.364 312.09 197.958 312.09C197.552 312.09 197.156 312.232 196.829 312.496C196.501 312.761 196.26 313.133 196.139 313.558C196.018 313.984 196.024 314.441 196.156 314.862C196.289 315.283 196.541 315.647 196.875 315.901C196.405 316.082 195.978 316.377 195.627 316.765C195.32 317.099 195.076 317.497 194.91 317.935C194.744 318.373 194.659 318.843 194.66 319.318H195.188C195.174 318.909 195.236 318.501 195.37 318.119C195.503 317.737 195.706 317.388 195.965 317.094C196.224 316.799 196.534 316.565 196.877 316.405C197.221 316.245 197.59 316.163 197.963 316.163C198.336 316.163 198.705 316.245 199.049 316.405C199.392 316.565 199.703 316.799 199.962 317.094C200.221 317.388 200.423 317.737 200.556 318.119C200.69 318.501 200.752 318.909 200.739 319.318H201.255C201.257 318.842 201.173 318.371 201.008 317.932C200.842 317.492 200.599 317.093 200.292 316.757V316.757ZM197.965 315.696C197.689 315.7 197.419 315.614 197.189 315.449C196.958 315.284 196.777 315.047 196.669 314.769C196.562 314.491 196.532 314.184 196.583 313.887C196.635 313.591 196.766 313.317 196.959 313.102C197.153 312.887 197.4 312.74 197.67 312.68C197.94 312.62 198.22 312.649 198.475 312.763C198.729 312.878 198.947 313.073 199.101 313.324C199.254 313.575 199.336 313.87 199.336 314.173C199.332 314.572 199.186 314.954 198.93 315.238C198.675 315.522 198.329 315.686 197.965 315.696Z" fill="#2D7D9A"/>
<path d="M209.964 316.757C209.61 316.372 209.183 316.079 208.712 315.901C209.048 315.648 209.301 315.285 209.434 314.863C209.568 314.441 209.575 313.984 209.455 313.558C209.334 313.131 209.093 312.758 208.765 312.494C208.438 312.229 208.041 312.086 207.635 312.086C207.228 312.086 206.832 312.229 206.504 312.494C206.177 312.758 205.935 313.131 205.815 313.558C205.694 313.984 205.701 314.441 205.835 314.863C205.968 315.285 206.222 315.648 206.557 315.901C206.089 316.08 205.663 316.373 205.313 316.757C205.005 317.091 204.762 317.489 204.596 317.927C204.43 318.366 204.345 318.836 204.346 319.31H204.863C204.863 318.91 204.934 318.514 205.074 318.144C205.213 317.775 205.418 317.439 205.676 317.156C205.934 316.873 206.24 316.648 206.577 316.495C206.914 316.342 207.275 316.263 207.64 316.263C208.005 316.263 208.366 316.342 208.703 316.495C209.04 316.648 209.346 316.873 209.604 317.156C209.862 317.439 210.066 317.775 210.206 318.144C210.345 318.514 210.417 318.91 210.417 319.31H210.938C210.937 318.835 210.851 318.365 210.684 317.927C210.516 317.488 210.272 317.091 209.964 316.757V316.757ZM207.636 315.696C207.362 315.692 207.096 315.6 206.87 315.43C206.644 315.26 206.468 315.021 206.366 314.743C206.264 314.464 206.239 314.158 206.294 313.864C206.35 313.57 206.483 313.3 206.678 313.089C206.873 312.878 207.121 312.734 207.389 312.677C207.658 312.62 207.937 312.651 208.189 312.767C208.442 312.883 208.658 313.078 208.81 313.328C208.962 313.578 209.043 313.872 209.043 314.173C209.038 314.579 208.888 314.966 208.625 315.251C208.361 315.536 208.006 315.696 207.636 315.696V315.696Z" fill="#2D7D9A"/>
</g>
<g clip-path="url(#clip6)">
<path d="M285.985 297.49C285.635 297.095 285.207 296.796 284.734 296.614C285.068 296.362 285.321 295.999 285.454 295.578C285.588 295.158 285.595 294.701 285.474 294.276C285.354 293.85 285.113 293.478 284.786 293.214C284.459 292.949 284.064 292.807 283.658 292.807C283.252 292.807 282.856 292.949 282.529 293.214C282.203 293.478 281.961 293.85 281.841 294.276C281.721 294.701 281.728 295.158 281.861 295.578C281.995 295.999 282.247 296.362 282.582 296.614C281.935 296.86 281.374 297.321 280.977 297.932C280.58 298.544 280.367 299.277 280.367 300.028H280.898C280.898 299.628 280.97 299.231 281.109 298.862C281.249 298.492 281.454 298.156 281.712 297.873C281.969 297.59 282.276 297.366 282.613 297.213C282.95 297.059 283.311 296.981 283.675 296.981C284.04 296.981 284.401 297.059 284.738 297.213C285.075 297.366 285.381 297.59 285.639 297.873C285.897 298.156 286.102 298.492 286.241 298.862C286.381 299.231 286.453 299.628 286.453 300.028H286.966C286.963 299.555 286.875 299.087 286.707 298.651C286.538 298.216 286.293 297.821 285.985 297.49V297.49ZM283.658 296.433C283.384 296.433 283.116 296.344 282.888 296.177C282.66 296.011 282.482 295.774 282.377 295.497C282.271 295.219 282.243 294.914 282.295 294.619C282.347 294.324 282.477 294.053 282.67 293.839C282.862 293.625 283.108 293.478 283.376 293.417C283.644 293.356 283.923 293.384 284.177 293.496C284.431 293.609 284.649 293.801 284.804 294.049C284.959 294.297 285.043 294.59 285.046 294.89C285.047 295.296 284.901 295.685 284.641 295.974C284.381 296.263 284.028 296.428 283.658 296.433V296.433Z" fill="#2D7D9A"/>
<path d="M281.152 300.171C280.798 299.786 280.371 299.493 279.9 299.315C280.234 299.061 280.486 298.697 280.619 298.276C280.751 297.855 280.757 297.398 280.636 296.972C280.515 296.547 280.274 296.175 279.946 295.911C279.619 295.646 279.223 295.504 278.817 295.504C278.411 295.504 278.015 295.646 277.688 295.911C277.361 296.175 277.119 296.547 276.998 296.972C276.877 297.398 276.883 297.855 277.016 298.276C277.148 298.697 277.4 299.061 277.734 299.315C277.264 299.496 276.838 299.791 276.486 300.179C276.179 300.513 275.935 300.911 275.769 301.349C275.603 301.787 275.519 302.257 275.52 302.732H276.047C276.034 302.323 276.096 301.915 276.229 301.533C276.363 301.151 276.565 300.802 276.824 300.508C277.083 300.213 277.393 299.979 277.737 299.819C278.08 299.659 278.449 299.577 278.822 299.577C279.196 299.577 279.565 299.659 279.908 299.819C280.251 299.979 280.562 300.213 280.821 300.508C281.08 300.802 281.282 301.151 281.416 301.533C281.549 301.915 281.611 302.323 281.598 302.732H282.115C282.117 302.257 282.032 301.785 281.867 301.346C281.702 300.906 281.459 300.507 281.152 300.171V300.171ZM278.824 299.11C278.549 299.114 278.279 299.028 278.048 298.863C277.817 298.698 277.637 298.461 277.529 298.183C277.421 297.905 277.391 297.598 277.443 297.301C277.494 297.005 277.625 296.731 277.818 296.516C278.012 296.301 278.259 296.154 278.529 296.094C278.799 296.034 279.079 296.063 279.334 296.177C279.589 296.292 279.807 296.487 279.96 296.738C280.113 296.989 280.195 297.285 280.195 297.587C280.191 297.986 280.046 298.368 279.79 298.652C279.534 298.936 279.188 299.1 278.824 299.11Z" fill="#2D7D9A"/>
<path d="M290.823 300.171C290.47 299.786 290.042 299.493 289.571 299.315C289.907 299.062 290.16 298.699 290.294 298.277C290.427 297.856 290.434 297.398 290.314 296.972C290.194 296.545 289.952 296.173 289.624 295.908C289.297 295.643 288.901 295.5 288.494 295.5C288.087 295.5 287.691 295.643 287.363 295.908C287.036 296.173 286.794 296.545 286.674 296.972C286.553 297.398 286.561 297.856 286.694 298.277C286.828 298.699 287.081 299.062 287.416 299.315C286.948 299.494 286.523 299.787 286.172 300.171C285.865 300.505 285.621 300.903 285.455 301.341C285.289 301.78 285.204 302.25 285.205 302.724H285.722C285.722 302.324 285.794 301.928 285.933 301.558C286.073 301.189 286.277 300.853 286.535 300.57C286.793 300.287 287.099 300.062 287.436 299.909C287.773 299.756 288.134 299.677 288.499 299.677C288.864 299.677 289.225 299.756 289.562 299.909C289.899 300.062 290.205 300.287 290.463 300.57C290.721 300.853 290.926 301.189 291.065 301.558C291.205 301.928 291.277 302.324 291.277 302.724H291.797C291.796 302.249 291.71 301.779 291.543 301.341C291.376 300.903 291.131 300.505 290.823 300.171V300.171ZM288.496 299.11C288.222 299.107 287.955 299.014 287.729 298.844C287.503 298.675 287.328 298.435 287.225 298.157C287.123 297.878 287.098 297.572 287.153 297.278C287.209 296.984 287.343 296.714 287.538 296.503C287.732 296.292 287.98 296.148 288.249 296.091C288.518 296.034 288.796 296.065 289.049 296.181C289.301 296.297 289.517 296.492 289.669 296.742C289.821 296.992 289.902 297.286 289.902 297.587C289.897 297.993 289.747 298.38 289.484 298.665C289.221 298.95 288.866 299.11 288.496 299.11V299.11Z" fill="#2D7D9A"/>
</g>
<g clip-path="url(#clip7)">
<path d="M331.337 316.207C330.987 315.812 330.559 315.512 330.085 315.331C330.42 315.079 330.673 314.716 330.806 314.295C330.939 313.874 330.946 313.418 330.826 312.992C330.706 312.567 330.465 312.195 330.138 311.93C329.811 311.666 329.415 311.523 329.009 311.523C328.603 311.523 328.208 311.666 327.881 311.93C327.554 312.195 327.313 312.567 327.193 312.992C327.072 313.418 327.08 313.874 327.213 314.295C327.346 314.716 327.599 315.079 327.934 315.331C327.287 315.577 326.726 316.037 326.329 316.649C325.932 317.261 325.718 317.994 325.719 318.745H326.25C326.25 318.344 326.321 317.948 326.461 317.578C326.601 317.209 326.805 316.873 327.063 316.59C327.321 316.307 327.627 316.083 327.964 315.929C328.301 315.776 328.662 315.697 329.027 315.697C329.392 315.697 329.753 315.776 330.09 315.929C330.427 316.083 330.733 316.307 330.991 316.59C331.249 316.873 331.453 317.209 331.593 317.578C331.732 317.948 331.804 318.344 331.804 318.745H332.318C332.315 318.271 332.227 317.804 332.058 317.368C331.89 316.932 331.645 316.538 331.337 316.207V316.207ZM329.009 315.15C328.735 315.15 328.468 315.061 328.24 314.894C328.012 314.728 327.834 314.491 327.728 314.214C327.623 313.936 327.594 313.631 327.646 313.336C327.698 313.041 327.829 312.769 328.021 312.556C328.214 312.342 328.46 312.195 328.728 312.134C328.996 312.073 329.275 312.101 329.529 312.213C329.783 312.325 330.001 312.518 330.156 312.766C330.31 313.014 330.395 313.306 330.398 313.607C330.398 314.013 330.252 314.402 329.992 314.691C329.732 314.98 329.379 315.145 329.009 315.15V315.15Z" fill="#2D7D9A"/>
<path d="M326.503 318.888C326.15 318.503 325.722 318.21 325.252 318.031C325.586 317.778 325.838 317.414 325.97 316.993C326.103 316.571 326.109 316.115 325.988 315.689C325.867 315.264 325.625 314.892 325.298 314.627C324.971 314.363 324.575 314.221 324.169 314.221C323.762 314.221 323.367 314.363 323.04 314.627C322.712 314.892 322.471 315.264 322.35 315.689C322.229 316.115 322.235 316.571 322.367 316.993C322.5 317.414 322.752 317.778 323.086 318.031C322.616 318.212 322.189 318.508 321.838 318.895C321.531 319.23 321.287 319.627 321.121 320.066C320.955 320.504 320.87 320.974 320.871 321.449H321.398C321.385 321.04 321.447 320.632 321.581 320.25C321.714 319.868 321.916 319.519 322.176 319.225C322.435 318.93 322.745 318.696 323.088 318.536C323.432 318.376 323.801 318.293 324.174 318.293C324.547 318.293 324.916 318.376 325.26 318.536C325.603 318.696 325.913 318.93 326.173 319.225C326.432 319.519 326.634 319.868 326.767 320.25C326.901 320.632 326.963 321.04 326.95 321.449H327.466C327.468 320.973 327.384 320.502 327.219 320.062C327.053 319.623 326.81 319.224 326.503 318.888V318.888ZM324.176 317.827C323.9 317.831 323.63 317.745 323.4 317.58C323.169 317.415 322.988 317.178 322.88 316.9C322.773 316.622 322.743 316.315 322.794 316.018C322.846 315.721 322.977 315.448 323.17 315.233C323.364 315.018 323.611 314.871 323.881 314.811C324.151 314.75 324.431 314.779 324.685 314.894C324.94 315.009 325.158 315.204 325.312 315.455C325.465 315.706 325.547 316.001 325.547 316.303C325.542 316.703 325.397 317.085 325.141 317.369C324.886 317.653 324.54 317.817 324.176 317.827Z" fill="#2D7D9A"/>
<path d="M336.175 318.888C335.821 318.503 335.394 318.21 334.923 318.032C335.259 317.779 335.512 317.416 335.645 316.994C335.779 316.572 335.786 316.115 335.666 315.689C335.545 315.262 335.304 314.889 334.976 314.624C334.649 314.36 334.252 314.217 333.846 314.217C333.439 314.217 333.043 314.36 332.715 314.624C332.388 314.889 332.146 315.262 332.025 315.689C331.905 316.115 331.912 316.572 332.046 316.994C332.179 317.416 332.432 317.779 332.768 318.032C332.3 318.211 331.874 318.503 331.523 318.888C331.216 319.222 330.972 319.62 330.807 320.058C330.641 320.496 330.556 320.967 330.557 321.441H331.073C331.073 321.041 331.145 320.645 331.285 320.275C331.424 319.905 331.629 319.57 331.887 319.287C332.145 319.004 332.451 318.779 332.788 318.626C333.125 318.473 333.486 318.394 333.851 318.394C334.216 318.394 334.577 318.473 334.914 318.626C335.251 318.779 335.557 319.004 335.815 319.287C336.073 319.57 336.277 319.905 336.417 320.275C336.556 320.645 336.628 321.041 336.628 321.441H337.148C337.148 320.966 337.062 320.496 336.895 320.058C336.727 319.619 336.483 319.222 336.175 318.888V318.888ZM333.847 317.827C333.573 317.823 333.307 317.731 333.081 317.561C332.855 317.391 332.679 317.152 332.577 316.873C332.474 316.595 332.449 316.289 332.505 315.995C332.561 315.7 332.694 315.431 332.889 315.22C333.084 315.008 333.331 314.865 333.6 314.808C333.869 314.751 334.148 314.782 334.4 314.898C334.653 315.014 334.869 315.209 335.021 315.459C335.172 315.709 335.254 316.003 335.254 316.304C335.249 316.709 335.099 317.097 334.835 317.382C334.572 317.667 334.217 317.827 333.847 317.827V317.827Z" fill="#2D7D9A"/>
</g>
<g clip-path="url(#clip8)">
<path d="M195.282 120.833C194.932 120.438 194.504 120.138 194.03 119.957C194.365 119.705 194.618 119.342 194.751 118.921C194.885 118.5 194.892 118.044 194.771 117.618C194.651 117.193 194.41 116.821 194.083 116.556C193.756 116.292 193.361 116.149 192.955 116.149C192.549 116.149 192.153 116.292 191.826 116.556C191.499 116.821 191.258 117.193 191.138 117.618C191.018 118.044 191.025 118.5 191.158 118.921C191.291 119.342 191.544 119.705 191.879 119.957C191.232 120.203 190.671 120.663 190.274 121.275C189.877 121.887 189.664 122.619 189.664 123.371H190.195C190.195 122.97 190.267 122.574 190.406 122.204C190.546 121.835 190.75 121.499 191.008 121.216C191.266 120.933 191.572 120.708 191.909 120.555C192.246 120.402 192.608 120.323 192.972 120.323C193.337 120.323 193.698 120.402 194.035 120.555C194.372 120.708 194.678 120.933 194.936 121.216C195.194 121.499 195.399 121.835 195.538 122.204C195.678 122.574 195.75 122.97 195.75 123.371H196.263C196.26 122.897 196.172 122.43 196.004 121.994C195.835 121.558 195.59 121.164 195.282 120.833V120.833ZM192.955 119.776C192.681 119.776 192.413 119.687 192.185 119.52C191.957 119.354 191.779 119.117 191.673 118.84C191.568 118.562 191.539 118.257 191.592 117.962C191.644 117.667 191.774 117.395 191.967 117.182C192.159 116.968 192.405 116.821 192.673 116.76C192.941 116.699 193.22 116.727 193.474 116.839C193.728 116.951 193.946 117.144 194.101 117.392C194.256 117.64 194.34 117.932 194.343 118.233C194.343 118.639 194.198 119.028 193.938 119.317C193.678 119.606 193.325 119.771 192.955 119.776V119.776Z" fill="#2D7D9A"/>
<path d="M190.448 123.514C190.095 123.129 189.667 122.836 189.197 122.657C189.531 122.404 189.783 122.04 189.915 121.619C190.048 121.197 190.054 120.741 189.933 120.315C189.812 119.889 189.571 119.517 189.243 119.253C188.916 118.989 188.52 118.847 188.114 118.847C187.708 118.847 187.312 118.989 186.985 119.253C186.658 119.517 186.416 119.889 186.295 120.315C186.174 120.741 186.18 121.197 186.313 121.619C186.445 122.04 186.697 122.404 187.031 122.657C186.561 122.838 186.134 123.134 185.783 123.521C185.476 123.856 185.232 124.253 185.066 124.692C184.9 125.13 184.815 125.6 184.816 126.075H185.344C185.33 125.666 185.392 125.258 185.526 124.876C185.659 124.494 185.862 124.145 186.121 123.851C186.38 123.556 186.69 123.322 187.034 123.162C187.377 123.002 187.746 122.919 188.119 122.919C188.492 122.919 188.862 123.002 189.205 123.162C189.548 123.322 189.859 123.556 190.118 123.851C190.377 124.145 190.579 124.494 190.713 124.876C190.846 125.258 190.908 125.666 190.895 126.075H191.412C191.414 125.599 191.329 125.128 191.164 124.688C190.999 124.249 190.755 123.85 190.448 123.514V123.514ZM188.121 122.453C187.846 122.457 187.576 122.371 187.345 122.206C187.114 122.041 186.933 121.804 186.826 121.526C186.718 121.248 186.688 120.941 186.739 120.644C186.791 120.347 186.922 120.074 187.115 119.859C187.309 119.644 187.556 119.497 187.826 119.437C188.096 119.376 188.376 119.405 188.631 119.52C188.886 119.635 189.104 119.83 189.257 120.081C189.41 120.332 189.492 120.627 189.492 120.929C189.488 121.329 189.342 121.711 189.087 121.995C188.831 122.279 188.485 122.443 188.121 122.453Z" fill="#2D7D9A"/>
<path d="M200.12 123.514C199.767 123.129 199.339 122.836 198.868 122.658C199.204 122.405 199.457 122.042 199.591 121.62C199.724 121.198 199.731 120.741 199.611 120.315C199.49 119.888 199.249 119.515 198.921 119.25C198.594 118.986 198.198 118.843 197.791 118.843C197.384 118.843 196.988 118.986 196.66 119.25C196.333 119.515 196.091 119.888 195.971 120.315C195.85 120.741 195.857 121.198 195.991 121.62C196.125 122.042 196.378 122.405 196.713 122.658C196.245 122.837 195.82 123.129 195.469 123.514C195.161 123.848 194.918 124.246 194.752 124.684C194.586 125.122 194.501 125.593 194.502 126.067H195.019C195.019 125.667 195.091 125.271 195.23 124.901C195.37 124.531 195.574 124.196 195.832 123.913C196.09 123.63 196.396 123.405 196.733 123.252C197.07 123.099 197.431 123.02 197.796 123.02C198.161 123.02 198.522 123.099 198.859 123.252C199.196 123.405 199.502 123.63 199.76 123.913C200.018 124.196 200.222 124.531 200.362 124.901C200.502 125.271 200.573 125.667 200.573 126.067H201.094C201.093 125.592 201.007 125.122 200.84 124.684C200.673 124.245 200.428 123.848 200.12 123.514V123.514ZM197.793 122.453C197.519 122.449 197.252 122.357 197.026 122.187C196.8 122.017 196.625 121.778 196.522 121.499C196.42 121.221 196.395 120.915 196.45 120.621C196.506 120.326 196.64 120.057 196.834 119.846C197.029 119.634 197.277 119.491 197.546 119.434C197.815 119.377 198.093 119.408 198.346 119.524C198.598 119.64 198.814 119.835 198.966 120.085C199.118 120.335 199.199 120.629 199.199 120.93C199.194 121.335 199.044 121.723 198.781 122.008C198.518 122.293 198.163 122.453 197.793 122.453V122.453Z" fill="#2D7D9A"/>
</g>
<g clip-path="url(#clip9)">
<path d="M195.634 181.39C195.284 180.996 194.855 180.696 194.382 180.515C194.717 180.263 194.969 179.9 195.103 179.479C195.236 179.058 195.243 178.601 195.123 178.176C195.003 177.75 194.761 177.378 194.435 177.114C194.108 176.85 193.712 176.707 193.306 176.707C192.9 176.707 192.505 176.85 192.178 177.114C191.851 177.378 191.61 177.75 191.49 178.176C191.369 178.601 191.376 179.058 191.51 179.479C191.643 179.9 191.896 180.263 192.23 180.515C191.584 180.76 191.022 181.221 190.625 181.833C190.228 182.445 190.015 183.177 190.016 183.928H190.546C190.546 183.528 190.618 183.132 190.758 182.762C190.897 182.392 191.102 182.056 191.36 181.774C191.618 181.491 191.924 181.266 192.261 181.113C192.598 180.96 192.959 180.881 193.324 180.881C193.689 180.881 194.05 180.96 194.387 181.113C194.724 181.266 195.03 181.491 195.288 181.774C195.546 182.056 195.75 182.392 195.89 182.762C196.029 183.132 196.101 183.528 196.101 183.928H196.614C196.612 183.455 196.523 182.987 196.355 182.552C196.187 182.116 195.942 181.721 195.634 181.39V181.39ZM193.306 180.333C193.032 180.333 192.765 180.244 192.537 180.078C192.309 179.911 192.131 179.674 192.025 179.397C191.919 179.12 191.891 178.815 191.943 178.52C191.995 178.225 192.126 177.953 192.318 177.739C192.511 177.525 192.757 177.379 193.025 177.318C193.293 177.257 193.572 177.284 193.826 177.397C194.08 177.509 194.298 177.701 194.452 177.949C194.607 178.197 194.691 178.49 194.695 178.79C194.695 179.196 194.549 179.586 194.289 179.875C194.029 180.163 193.676 180.328 193.306 180.333V180.333Z" fill="#2D7D9A"/>
<path d="M190.8 184.071C190.447 183.686 190.019 183.394 189.548 183.215C189.883 182.962 190.135 182.598 190.267 182.176C190.399 181.755 190.406 181.298 190.285 180.873C190.164 180.447 189.922 180.075 189.595 179.811C189.268 179.547 188.872 179.404 188.466 179.404C188.059 179.404 187.664 179.547 187.336 179.811C187.009 180.075 186.767 180.447 186.647 180.873C186.526 181.298 186.532 181.755 186.664 182.176C186.797 182.598 187.049 182.962 187.383 183.215C186.913 183.396 186.486 183.691 186.135 184.079C185.828 184.413 185.584 184.811 185.418 185.249C185.252 185.688 185.167 186.158 185.168 186.633H185.695C185.682 186.223 185.744 185.816 185.878 185.434C186.011 185.051 186.213 184.703 186.472 184.408C186.731 184.114 187.042 183.879 187.385 183.719C187.729 183.559 188.098 183.477 188.471 183.477C188.844 183.477 189.213 183.559 189.557 183.719C189.9 183.879 190.21 184.114 190.469 184.408C190.728 184.703 190.931 185.051 191.064 185.434C191.198 185.816 191.26 186.223 191.246 186.633H191.763C191.765 186.157 191.681 185.686 191.516 185.246C191.35 184.806 191.107 184.407 190.8 184.071V184.071ZM188.473 183.011C188.197 183.014 187.927 182.928 187.696 182.763C187.466 182.598 187.285 182.362 187.177 182.084C187.069 181.806 187.039 181.499 187.091 181.202C187.143 180.905 187.273 180.632 187.467 180.417C187.66 180.202 187.908 180.055 188.178 179.994C188.447 179.934 188.728 179.963 188.982 180.078C189.237 180.192 189.455 180.388 189.608 180.639C189.762 180.89 189.844 181.185 189.844 181.487C189.839 181.886 189.694 182.268 189.438 182.552C189.183 182.836 188.836 183.001 188.473 183.011Z" fill="#2D7D9A"/>
<path d="M200.471 184.071C200.118 183.686 199.69 183.394 199.22 183.215C199.555 182.963 199.809 182.599 199.942 182.178C200.076 181.756 200.083 181.298 199.962 180.872C199.842 180.446 199.6 180.073 199.273 179.808C198.945 179.543 198.549 179.4 198.142 179.4C197.736 179.4 197.339 179.543 197.012 179.808C196.684 180.073 196.443 180.446 196.322 180.872C196.202 181.298 196.209 181.756 196.343 182.178C196.476 182.599 196.729 182.963 197.065 183.215C196.597 183.394 196.171 183.687 195.82 184.071C195.513 184.406 195.269 184.803 195.103 185.242C194.937 185.68 194.852 186.15 194.854 186.625H195.37C195.37 186.225 195.442 185.828 195.582 185.459C195.721 185.089 195.926 184.753 196.184 184.47C196.442 184.187 196.748 183.963 197.085 183.81C197.422 183.657 197.783 183.578 198.148 183.578C198.512 183.578 198.874 183.657 199.211 183.81C199.547 183.963 199.854 184.187 200.112 184.47C200.369 184.753 200.574 185.089 200.714 185.459C200.853 185.828 200.925 186.225 200.925 186.625H201.445C201.445 186.15 201.359 185.679 201.191 185.241C201.024 184.803 200.78 184.405 200.471 184.071V184.071ZM198.144 183.011C197.87 183.007 197.604 182.914 197.377 182.745C197.151 182.575 196.976 182.336 196.874 182.057C196.771 181.778 196.746 181.473 196.802 181.178C196.857 180.884 196.991 180.614 197.186 180.403C197.381 180.192 197.628 180.049 197.897 179.992C198.166 179.934 198.444 179.966 198.697 180.082C198.95 180.197 199.166 180.393 199.318 180.643C199.469 180.893 199.55 181.187 199.55 181.487C199.546 181.893 199.396 182.28 199.132 182.566C198.869 182.851 198.514 183.011 198.144 183.011V183.011Z" fill="#2D7D9A"/>
</g>
<g clip-path="url(#clip10)">
<path d="M324.745 398.301C324.395 397.907 323.967 397.607 323.493 397.426C323.828 397.174 324.081 396.811 324.214 396.39C324.347 395.969 324.354 395.513 324.234 395.087C324.114 394.661 323.873 394.289 323.546 394.025C323.219 393.761 322.824 393.618 322.418 393.618C322.012 393.618 321.616 393.761 321.289 394.025C320.962 394.289 320.721 394.661 320.601 395.087C320.481 395.513 320.488 395.969 320.621 396.39C320.754 396.811 321.007 397.174 321.342 397.426C320.695 397.671 320.134 398.132 319.737 398.744C319.34 399.356 319.127 400.088 319.127 400.839H319.658C319.658 400.439 319.73 400.043 319.869 399.673C320.009 399.304 320.213 398.968 320.471 398.685C320.729 398.402 321.035 398.177 321.372 398.024C321.709 397.871 322.07 397.792 322.435 397.792C322.8 397.792 323.161 397.871 323.498 398.024C323.835 398.177 324.141 398.402 324.399 398.685C324.657 398.968 324.862 399.304 325.001 399.673C325.141 400.043 325.213 400.439 325.213 400.839H325.726C325.723 400.366 325.635 399.898 325.466 399.463C325.298 399.027 325.053 398.632 324.745 398.301V398.301ZM322.418 397.244C322.144 397.244 321.876 397.156 321.648 396.989C321.42 396.822 321.242 396.586 321.136 396.308C321.031 396.031 321.002 395.726 321.054 395.431C321.107 395.136 321.237 394.864 321.43 394.65C321.622 394.437 321.868 394.29 322.136 394.229C322.404 394.168 322.683 394.195 322.937 394.308C323.191 394.42 323.409 394.612 323.564 394.86C323.718 395.108 323.803 395.401 323.806 395.702C323.806 396.107 323.661 396.497 323.401 396.786C323.141 397.075 322.787 397.239 322.418 397.244V397.244Z" fill="#2D7D9A"/>
<path d="M319.911 400.983C319.558 400.597 319.13 400.305 318.66 400.126C318.994 399.873 319.246 399.509 319.378 399.088C319.511 398.666 319.517 398.209 319.396 397.784C319.275 397.358 319.033 396.986 318.706 396.722C318.379 396.458 317.983 396.315 317.577 396.315C317.171 396.315 316.775 396.458 316.448 396.722C316.12 396.986 315.879 397.358 315.758 397.784C315.637 398.209 315.643 398.666 315.776 399.088C315.908 399.509 316.16 399.873 316.494 400.126C316.024 400.307 315.597 400.603 315.246 400.99C314.939 401.324 314.695 401.722 314.529 402.16C314.363 402.599 314.278 403.069 314.279 403.544H314.807C314.793 403.135 314.855 402.727 314.989 402.345C315.122 401.963 315.325 401.614 315.584 401.319C315.843 401.025 316.153 400.791 316.497 400.631C316.84 400.471 317.209 400.388 317.582 400.388C317.955 400.388 318.324 400.471 318.668 400.631C319.011 400.791 319.322 401.025 319.581 401.319C319.84 401.614 320.042 401.963 320.176 402.345C320.309 402.727 320.371 403.135 320.358 403.544H320.875C320.876 403.068 320.792 402.597 320.627 402.157C320.462 401.718 320.218 401.318 319.911 400.983V400.983ZM317.584 399.922C317.309 399.926 317.038 399.84 316.808 399.674C316.577 399.509 316.396 399.273 316.289 398.995C316.181 398.717 316.151 398.41 316.202 398.113C316.254 397.816 316.385 397.543 316.578 397.328C316.772 397.113 317.019 396.966 317.289 396.905C317.559 396.845 317.839 396.874 318.094 396.989C318.348 397.104 318.566 397.299 318.72 397.55C318.873 397.801 318.955 398.096 318.955 398.398C318.951 398.797 318.805 399.179 318.55 399.463C318.294 399.748 317.948 399.912 317.584 399.922Z" fill="#2D7D9A"/>
<path d="M329.583 400.983C329.23 400.598 328.802 400.305 328.331 400.126C328.667 399.874 328.92 399.51 329.053 399.089C329.187 398.667 329.194 398.21 329.074 397.783C328.953 397.357 328.712 396.984 328.384 396.719C328.057 396.454 327.661 396.312 327.254 396.312C326.847 396.312 326.451 396.454 326.123 396.719C325.796 396.984 325.554 397.357 325.434 397.783C325.313 398.21 325.32 398.667 325.454 399.089C325.588 399.51 325.841 399.874 326.176 400.126C325.708 400.306 325.283 400.598 324.932 400.983C324.624 401.317 324.381 401.715 324.215 402.153C324.049 402.591 323.964 403.061 323.965 403.536H324.482C324.482 403.136 324.553 402.74 324.693 402.37C324.833 402 325.037 401.664 325.295 401.381C325.553 401.098 325.859 400.874 326.196 400.721C326.533 400.568 326.894 400.489 327.259 400.489C327.624 400.489 327.985 400.568 328.322 400.721C328.659 400.874 328.965 401.098 329.223 401.381C329.481 401.664 329.685 402 329.825 402.37C329.964 402.74 330.036 403.136 330.036 403.536H330.557C330.556 403.061 330.47 402.591 330.303 402.152C330.136 401.714 329.891 401.316 329.583 400.983V400.983ZM327.255 399.922C326.982 399.918 326.715 399.825 326.489 399.656C326.263 399.486 326.088 399.247 325.985 398.968C325.883 398.689 325.858 398.384 325.913 398.089C325.969 397.795 326.102 397.525 326.297 397.314C326.492 397.103 326.74 396.96 327.009 396.903C327.277 396.845 327.556 396.877 327.808 396.993C328.061 397.108 328.277 397.304 328.429 397.554C328.581 397.804 328.662 398.098 328.662 398.398C328.657 398.804 328.507 399.192 328.244 399.477C327.98 399.762 327.625 399.922 327.255 399.922V399.922Z" fill="#2D7D9A"/>
</g>
<g clip-path="url(#clip11)">
<path d="M333.446 222.275C333.096 221.881 332.668 221.581 332.195 221.399C332.529 221.147 332.782 220.784 332.915 220.364C333.049 219.943 333.056 219.486 332.935 219.061C332.815 218.635 332.574 218.263 332.247 217.999C331.92 217.734 331.525 217.592 331.119 217.592C330.713 217.592 330.317 217.734 329.99 217.999C329.664 218.263 329.422 218.635 329.302 219.061C329.182 219.486 329.189 219.943 329.322 220.364C329.456 220.784 329.708 221.147 330.043 221.399C329.396 221.645 328.835 222.106 328.438 222.718C328.041 223.329 327.828 224.062 327.828 224.813H328.359C328.359 224.413 328.431 224.017 328.57 223.647C328.71 223.277 328.915 222.941 329.172 222.658C329.43 222.375 329.737 222.151 330.073 221.998C330.41 221.845 330.772 221.766 331.136 221.766C331.501 221.766 331.862 221.845 332.199 221.998C332.536 222.151 332.842 222.375 333.1 222.658C333.358 222.941 333.563 223.277 333.702 223.647C333.842 224.017 333.914 224.413 333.914 224.813H334.427C334.424 224.34 334.336 223.872 334.168 223.436C333.999 223.001 333.754 222.606 333.446 222.275V222.275ZM331.119 221.218C330.845 221.218 330.577 221.129 330.349 220.963C330.121 220.796 329.943 220.559 329.838 220.282C329.732 220.005 329.703 219.699 329.756 219.404C329.808 219.109 329.938 218.838 330.131 218.624C330.323 218.41 330.569 218.264 330.837 218.203C331.105 218.142 331.384 218.169 331.638 218.281C331.892 218.394 332.11 218.586 332.265 218.834C332.42 219.082 332.504 219.375 332.507 219.675C332.507 220.081 332.362 220.471 332.102 220.759C331.842 221.048 331.489 221.213 331.119 221.218V221.218Z" fill="#2D7D9A"/>
<path d="M328.613 224.956C328.259 224.571 327.831 224.278 327.361 224.1C327.695 223.847 327.947 223.483 328.079 223.061C328.212 222.64 328.218 222.183 328.097 221.757C327.976 221.332 327.735 220.96 327.407 220.696C327.08 220.432 326.684 220.289 326.278 220.289C325.872 220.289 325.476 220.432 325.149 220.696C324.822 220.96 324.58 221.332 324.459 221.757C324.338 222.183 324.344 222.64 324.477 223.061C324.609 223.483 324.861 223.847 325.195 224.1C324.725 224.281 324.299 224.576 323.947 224.964C323.64 225.298 323.396 225.696 323.23 226.134C323.064 226.572 322.979 227.043 322.98 227.517H323.508C323.495 227.108 323.557 226.7 323.69 226.318C323.824 225.936 324.026 225.587 324.285 225.293C324.544 224.998 324.854 224.764 325.198 224.604C325.541 224.444 325.91 224.362 326.283 224.362C326.656 224.362 327.026 224.444 327.369 224.604C327.712 224.764 328.023 224.998 328.282 225.293C328.541 225.587 328.743 225.936 328.877 226.318C329.01 226.7 329.072 227.108 329.059 227.517H329.576C329.578 227.042 329.493 226.57 329.328 226.131C329.163 225.691 328.92 225.292 328.613 224.956V224.956ZM326.285 223.895C326.01 223.899 325.74 223.813 325.509 223.648C325.278 223.483 325.098 223.246 324.99 222.968C324.882 222.69 324.852 222.383 324.903 222.087C324.955 221.79 325.086 221.517 325.279 221.302C325.473 221.087 325.72 220.939 325.99 220.879C326.26 220.819 326.54 220.848 326.795 220.963C327.05 221.077 327.268 221.272 327.421 221.523C327.574 221.774 327.656 222.07 327.656 222.372C327.652 222.771 327.506 223.153 327.251 223.437C326.995 223.721 326.649 223.885 326.285 223.895Z" fill="#2D7D9A"/>
<path d="M338.284 224.956C337.931 224.571 337.503 224.278 337.032 224.1C337.368 223.848 337.621 223.484 337.755 223.062C337.888 222.641 337.895 222.183 337.775 221.757C337.655 221.331 337.413 220.958 337.085 220.693C336.758 220.428 336.362 220.285 335.955 220.285C335.548 220.285 335.152 220.428 334.824 220.693C334.497 220.958 334.255 221.331 334.135 221.757C334.014 222.183 334.021 222.641 334.155 223.062C334.289 223.484 334.542 223.848 334.877 224.1C334.409 224.279 333.984 224.572 333.633 224.956C333.326 225.29 333.082 225.688 332.916 226.126C332.75 226.565 332.665 227.035 332.666 227.51H333.183C333.183 227.109 333.255 226.713 333.394 226.344C333.534 225.974 333.738 225.638 333.996 225.355C334.254 225.072 334.56 224.848 334.897 224.694C335.234 224.541 335.595 224.462 335.96 224.462C336.325 224.462 336.686 224.541 337.023 224.694C337.36 224.848 337.666 225.072 337.924 225.355C338.182 225.638 338.387 225.974 338.526 226.344C338.666 226.713 338.738 227.109 338.738 227.51H339.258C339.257 227.035 339.171 226.564 339.004 226.126C338.837 225.688 338.592 225.29 338.284 224.956V224.956ZM335.957 223.895C335.683 223.892 335.416 223.799 335.19 223.629C334.964 223.46 334.789 223.22 334.686 222.942C334.584 222.663 334.559 222.357 334.614 222.063C334.67 221.769 334.804 221.499 334.998 221.288C335.193 221.077 335.441 220.934 335.71 220.876C335.979 220.819 336.257 220.85 336.51 220.966C336.762 221.082 336.978 221.277 337.13 221.528C337.282 221.778 337.363 222.071 337.363 222.372C337.358 222.778 337.208 223.165 336.945 223.45C336.682 223.736 336.327 223.896 335.957 223.895V223.895Z" fill="#2D7D9A"/>
</g>
</g>
<defs>
<clipPath id="clip0">
<rect width="360" height="540" fill="white"/>
</clipPath>
<clipPath id="clip1">
<rect x="210.938" y="251.486" width="16.875" height="18.5143" fill="white"/>
</clipPath>
<clipPath id="clip2">
<rect x="310.781" y="130.372" width="16.875" height="18.5143" fill="white"/>
</clipPath>
<clipPath id="clip3">
<rect x="284.766" y="449.743" width="16.875" height="18.5143" fill="white"/>
</clipPath>
<clipPath id="clip4">
<rect x="248.906" y="199.029" width="16.875" height="18.5143" fill="white"/>
</clipPath>
<clipPath id="clip5">
<rect x="194.062" y="305.101" width="16.875" height="18.5143" fill="white"/>
</clipPath>
<clipPath id="clip6">
<rect x="274.922" y="288.515" width="16.875" height="18.5143" fill="white"/>
</clipPath>
<clipPath id="clip7">
<rect x="320.273" y="307.231" width="16.875" height="18.5143" fill="white"/>
</clipPath>
<clipPath id="clip8">
<rect x="184.219" y="111.857" width="16.875" height="18.5143" fill="white"/>
</clipPath>
<clipPath id="clip9">
<rect x="184.57" y="172.415" width="16.875" height="18.5143" fill="white"/>
</clipPath>
<clipPath id="clip10">
<rect x="313.682" y="389.326" width="16.875" height="18.5143" fill="white"/>
</clipPath>
<clipPath id="clip11">
<rect x="322.383" y="213.3" width="16.875" height="18.5143" fill="white"/>
</clipPath>
</defs>
</svg>
