<svg width="360" height="540" viewBox="0 0 360 540" fill="none" xmlns="http://www.w3.org/2000/svg">
<g clip-path="url(#clip0)">
<path d="M582.926 449.955L577.073 402.525C576.855 400.85 577.142 399.118 577.891 397.574C578.641 396.031 579.816 394.755 581.249 393.928L606.475 305.391C606.086 304.244 605.944 303.005 606.06 301.765C606.06 301.765 618.261 189.389 617.517 187.902L591.067 149.837L610.794 86.0558L684.037 4.53904L895.853 -136.946C896.122 -138.283 896.692 -139.545 897.514 -140.621L919.645 -170.231C920.481 -171.318 921.542 -172.185 922.737 -172.756L1127.13 -267.226C1127.75 -267.482 1128.33 -267.836 1128.86 -268.278L1169.48 -301.044C1170.14 -301.443 1180.21 -326.23 1204.27 -309.257C1246.15 -279.682 1311.83 -200.249 1309.34 -195.906L1267.12 -122.658C1266.62 -121.813 1266.27 -120.887 1266.08 -119.924L1258.92 -84.9528C1258.72 -83.853 1258.72 -82.7315 1258.93 -81.6543C1259.13 -80.5771 1259.54 -79.566 1260.13 -78.6808C1260.72 -77.7955 1261.48 -77.054 1262.35 -76.5001C1263.23 -75.9462 1264.21 -75.5911 1265.23 -75.4556L1282.36 -73.4187C1283.85 -73.2179 1285.38 -73.505 1286.76 -74.2424C1288.14 -74.9798 1289.3 -76.1332 1290.09 -77.5524L1335.47 -157.082C1335.89 -157.803 1336.39 -158.464 1336.97 -159.047L1387.97 -208.542C1389.25 -209.757 1390.84 -210.517 1392.51 -210.709C1394.17 -210.9 1395.83 -210.511 1397.22 -209.602C1398.61 -208.692 1399.67 -207.311 1400.23 -205.663C1400.79 -204.016 1400.83 -202.192 1400.34 -200.464L1324.24 59.1793C1323.76 60.9047 1323.8 62.7192 1324.35 64.3662L1327.85 75.0866C1328.3 76.4738 1328.39 77.9851 1328.1 79.4596C1327.8 80.9341 1327.15 82.3166 1326.19 83.4596C1325.24 84.6025 1324.03 85.4631 1322.68 85.9498C1321.34 86.4365 1319.92 86.5311 1318.56 86.2233L1261.06 72.6867C1259.13 72.2246 1257.49 70.9661 1256.48 69.18C1255.46 67.3938 1255.17 65.2213 1255.65 63.1261L1279.18 -44.4978C1279.47 -45.7149 1279.49 -46.9723 1279.25 -48.1732C1279.01 -49.3741 1278.51 -50.4865 1277.8 -51.4244C1277.08 -52.3623 1276.16 -53.1006 1275.11 -53.5827C1274.06 -54.0649 1272.91 -54.2779 1271.75 -54.2052L1262.67 -53.8563C1260.95 -53.7588 1259.29 -53.0691 1257.93 -51.8914C1256.57 -50.7138 1255.58 -49.1126 1255.12 -47.3308L1242.1 5.75192L1241.92 6.34111L1219.3 77.8612C1218.95 78.9844 1218.38 80.0257 1217.63 80.9139C1216.88 81.8022 1215.97 82.5165 1214.96 83.0079L1095.38 141.45C1094.19 141.992 1093.15 142.876 1092.38 144.002L1074.67 167.529C1073.64 168.902 1073.02 170.563 1072.9 172.281C1072.78 173.998 1073.16 175.687 1074 177.111C1074.83 178.535 1076.07 179.624 1077.55 180.225C1079.03 180.826 1080.67 180.91 1082.24 180.465L1169.51 156.033L1170.62 155.762L1227.82 148.799C1228.96 148.658 1230.09 148.783 1231.15 149.167C1232.21 149.55 1233.16 150.183 1233.94 151.018C1234.73 151.854 1235.32 152.873 1235.68 154.003C1236.04 155.133 1236.15 156.345 1236.02 157.555L1233.39 181.05C1233.23 182.386 1232.77 183.678 1232.05 184.816C1231.34 185.954 1230.38 186.905 1229.27 187.592L1190.32 211.263C1189.54 211.714 1188.7 212.032 1187.84 212.207L1185.38 212.732C1184.5 212.94 1183.65 213.292 1182.86 213.774L1161.67 227.221C1159.95 228.228 1158.62 229.868 1157.93 231.816C1157.25 233.765 1157.26 235.881 1157.97 237.745C1158.68 239.609 1160.03 241.087 1161.76 241.885C1163.49 242.684 1165.47 242.745 1167.3 242.056L1247.54 215.841C1248.11 215.577 1248.65 215.249 1249.15 214.862L1303.84 180.981C1313.23 181.337 1322.65 181.168 1332.07 180.475C1341.12 176.074 1349.81 170.795 1358.01 164.707C1359.66 164.772 1361.32 164.403 1362.84 163.63C1347.85 175.648 1334.24 186.832 1319.25 198.85L1318.71 199.176L1266.72 250.728C1266.22 251.118 1265.68 251.446 1265.11 251.707L1217.39 280.707C1216.44 281.288 1215.61 282.067 1214.94 282.993C1214.28 283.92 1213.79 284.974 1213.52 286.09C1213.24 287.206 1213.18 288.36 1213.35 289.477C1213.51 290.595 1213.89 291.653 1214.46 292.584L1264.33 372.902C1264.75 373.596 1265.29 374.199 1265.92 374.682L1303.98 406.577C1304.77 407.226 1333.62 430.181 1331.38 435.5C1325.42 449.866 1281.96 455.513 1281.96 455.513C1281.02 457.049 1279.64 458.23 1278.04 458.866L1215.42 484.39C1214.43 484.755 1213.49 485.322 1212.68 486.058L1141.32 572.573C1121.82 605.705 1100.17 637.41 1076.55 667.443C1051.25 698.493 1021.48 720.462 1019.09 719.892L958.946 706.669C957.276 706.279 955.803 705.302 954.758 703.889C953.713 702.477 953.155 700.71 953.172 698.866L953.57 667.03C953.591 665.803 953.355 664.601 952.879 663.511C952.404 662.42 951.701 661.469 950.823 660.726C949.944 659.983 948.911 659.467 947.799 659.215C946.688 658.964 945.525 658.984 944.396 659.273L778.921 703.268C777.089 703.78 775.178 703.56 773.555 702.651C773.555 702.651 573.375 705.923 571.435 702.981C571.435 702.981 524.363 662.419 526.818 615.112C529.947 546.307 583.463 461.749 582.926 449.955Z" fill="#293135" stroke="#2D7D9A" stroke-miterlimit="10"/>
<path d="M125.961 709.489L84.9505 831.165C84.0953 833.648 83.8594 836.298 84.2674 838.837C84.6754 841.377 85.7123 843.712 87.2697 845.601L138.956 908.915C140.618 910.774 141.772 913.105 142.302 915.67L157.567 1020.11C158.035 1023.13 157.594 1026.28 156.307 1029.11C155.021 1031.95 152.957 1034.31 150.414 1035.87L75.7732 1082.4C72.9449 1084.09 70.7036 1086.78 69.444 1089.99C68.1845 1093.2 67.9873 1096.73 68.8873 1099.95L81.4163 1146.17C82.2545 1149.42 82.021 1152.95 80.7551 1156.16L58.9645 1211.42C57.6464 1214.71 57.4495 1218.34 58.4105 1221.64C59.3714 1224.94 61.4251 1227.68 64.1904 1229.36L132.981 1245.42C139.525 1258.26 145.37 1271.53 150.49 1285.18C156.302 1300.46 161.243 1316.16 165.284 1332.2L129.863 1417.97C129.19 1421.69 129.86 1425.47 131.731 1428.51C133.602 1431.56 136.53 1433.63 139.901 1434.31L197.791 1446.6C199.511 1446.95 201.297 1446.92 203.046 1446.51L283.114 1429.34C285.498 1428.8 287.938 1428.95 290.179 1429.78C292.42 1430.61 294.378 1432.1 295.846 1434.09C297.315 1436.07 298.24 1438.48 298.525 1441.05C298.809 1443.63 298.443 1446.28 297.463 1448.72L266.491 1528.69L255.725 1559.97C254.731 1563.3 254.845 1566.84 256.048 1569.96C257.25 1573.08 259.462 1575.58 262.289 1576.99L287.179 1590.13C289.082 1591.13 291.205 1591.61 293.37 1591.51C295.534 1591.42 297.674 1590.76 299.607 1589.59L326.551 1573.53C327.853 1572.73 329.255 1572.16 330.702 1571.84L531.236 1529.26C534.005 1528.66 536.829 1529 539.314 1530.24C541.799 1531.48 543.822 1533.56 545.098 1536.17L554.051 1554.25C555.451 1557.22 557.799 1559.5 560.683 1560.7C563.568 1561.89 566.806 1561.92 569.829 1560.79L616.463 1543.58C617.507 1543.14 618.491 1542.53 619.379 1541.77L744.475 1456.49C746.591 1455.09 748.986 1454.31 751.407 1454.24C753.829 1454.18 756.185 1454.82 758.227 1456.11L888.443 1531.86C891.378 1533.6 894.877 1534.01 898.225 1533.02C901.572 1532.03 904.514 1529.71 906.447 1526.53L935.013 1480.4C936.581 1477.93 938.739 1475.96 941.236 1474.72L987.615 1452.6C990.716 1451.07 994.167 1450.83 997.293 1451.9C1000.42 1452.98 1003 1455.31 1004.52 1458.43L1069.58 1589.79C1070.6 1591.9 1072.12 1593.66 1073.98 1594.92C1075.84 1596.17 1077.99 1596.89 1080.23 1596.99L1150.81 1600.14C1153.72 1600.26 1156.63 1599.38 1159.15 1597.64L1272.77 1516.08C1275.02 1514.49 1276.82 1512.23 1277.96 1509.61C1279.09 1506.98 1279.51 1504.09 1279.16 1501.3L1270.82 1432.24C1270.7 1431.31 1270.5 1430.39 1270.24 1429.49L1213.85 1250.82C1212.73 1247.36 1212.91 1243.5 1214.35 1240.03L1235.59 1188.55C1236.76 1185.75 1237.11 1182.67 1236.6 1179.74L1226.98 1120.82C1226.69 1118.99 1226.07 1117.27 1225.16 1115.73L1208.05 1086.86C1207.67 1086.18 1207.23 1085.56 1206.73 1084.98L1163.03 1033.22C1162.32 1032.41 1161.71 1031.5 1161.22 1030.51L1129.28 966.014C1128.29 964.028 1127.76 961.788 1127.74 959.479C1127.72 957.17 1128.21 954.859 1129.17 952.738L1156.52 891.563C1156.82 890.9 1157.08 890.218 1157.3 889.521L1165.67 860.969C1166.25 859.061 1166.47 857.066 1166.32 855.106C1166.16 853.147 1165.64 851.264 1164.78 849.573L1154.65 829.119C1153.75 827.379 1153.21 825.432 1153.07 823.406C1152.93 821.38 1153.18 819.321 1153.81 817.361L1159.13 801.033C1159.76 799.085 1160.01 797.038 1159.87 795.024C1159.73 793.009 1159.2 791.072 1158.32 789.338L1129.05 730.226C1128.27 728.69 1127.23 727.339 1125.98 726.241L1068.9 675.462C1066.61 673.454 1065.06 670.625 1064.49 667.437C1063.93 664.249 1064.4 660.889 1065.81 657.903L1072.33 643.852C1073.62 641.188 1074.17 638.202 1073.88 635.293C1073.59 632.383 1072.49 629.686 1070.72 627.559C1068.95 625.432 1066.59 623.975 1063.96 623.382C1061.33 622.789 1058.55 623.087 1055.99 624.237L1054.92 624.905C1052.89 625.757 1051.05 627.111 1049.56 628.854C1048.07 630.597 1046.96 632.679 1046.33 634.927L1031.6 686.352C1031.04 688.359 1030.1 690.239 1028.84 691.863C1027.57 693.488 1026.02 694.822 1024.28 695.774C1022.54 696.727 1020.66 697.278 1018.75 697.389C1016.84 697.501 1014.95 697.17 1013.22 696.42L955.264 671.888C952.552 670.761 950.311 668.671 948.89 665.943C947.469 663.216 946.947 660.005 947.407 656.81C947.772 654.488 947.618 652.135 946.96 649.951C946.302 647.768 945.158 645.818 943.625 644.267C942.093 642.716 940.217 641.61 938.157 641.042C936.097 640.474 933.913 640.461 931.79 641.005L834.422 666.34C832.338 666.918 830.182 666.94 828.145 666.406L694.161 631.803C691.914 631.213 689.532 631.281 687.25 632C684.968 632.718 682.867 634.063 681.155 635.9L631.54 688.606C629.294 691.036 626.386 692.596 623.306 693.025C620.226 693.454 617.163 692.724 614.633 690.96L529.231 632.865C527.595 631.778 526.22 630.299 525.204 628.534C524.188 626.77 523.556 624.762 523.352 622.655C523.148 620.547 523.378 618.391 524.025 616.339C524.673 614.287 525.721 612.39 527.097 610.782L584.525 542.235C585.962 540.543 587.037 538.534 587.666 536.367C588.295 534.2 588.462 531.932 588.153 529.741L583.632 496.702C583.11 493.151 581.409 489.995 578.842 487.818L547.142 461.244C545.132 459.549 542.674 458.556 540.073 458.389C537.471 458.222 534.838 458.887 532.499 460.304L382.393 550.444C380.606 551.535 378.639 552.19 376.635 552.363C374.631 552.535 372.642 552.221 370.813 551.442L342.819 539.586C340.96 538.779 338.931 538.454 336.888 538.635C334.845 538.816 332.841 539.5 331.029 540.633L258.353 585.94C255.637 587.65 253.477 590.264 252.216 593.368L210.731 697.411C209.499 700.504 207.354 703.108 204.65 704.794C201.945 706.48 198.842 707.148 195.85 706.688L140.946 699.165C137.822 698.753 134.603 699.565 131.859 701.455C129.116 703.345 127.026 706.191 125.961 709.489V709.489Z" fill="#293135" stroke="#2D7D9A" stroke-opacity="0.38" stroke-miterlimit="10"/>
<path d="M145.819 669.36C131.334 664.958 120.678 420.272 145.373 355.849C146.46 353.06 146.749 350.023 146.201 347.147C139.628 304.333 148.036 141.342 142.612 108.864C138.332 83.0415 133.888 57.6214 129.279 32.6038C128.635 28.9327 129.26 25.0591 131.038 21.7066C132.817 18.354 135.626 15.7517 138.943 14.3857L221.55 -18.66C223.57 -19.4765 225.421 -20.7606 226.97 -22.4193C228.519 -24.078 229.726 -26.0698 230.504 -28.2501L254.759 -95.9186C255.401 -97.6317 256.289 -99.2359 257.39 -100.668L304.057 -160.197C305.905 -162.564 307.099 -165.431 307.49 -168.44C307.882 -171.45 307.455 -174.469 306.261 -177.124C296.408 -198.738 292.233 -208.58 268.059 -257.21C267.382 -258.561 266.894 -260.022 266.611 -261.547C256.677 -331.389 253.413 -402.54 256.871 -473.895C257.021 -476.617 256.504 -479.294 255.374 -481.654C254.243 -484.015 252.538 -485.973 250.433 -487.332C248.328 -488.69 245.898 -489.399 243.389 -489.387C240.88 -489.376 238.383 -488.643 236.151 -487.264L232.104 -484.743C230.345 -483.636 228.408 -482.935 226.423 -482.687C224.439 -482.438 222.451 -482.648 220.592 -483.301L111.433 -520.818C110.585 -521.11 109.706 -521.303 108.811 -521.395C88.7975 -523.907 -148.972 -553.011 -220.495 -576.809C-222.549 -577.487 -224.405 -578.679 -225.919 -580.291C-227.434 -581.903 -228.566 -583.892 -229.228 -586.103L-234.833 -604.96C-235.735 -608.027 -237.531 -610.649 -239.962 -612.447C-242.393 -614.244 -245.332 -615.123 -248.353 -614.957L-293.037 -612.251C-295.689 -612.068 -298.293 -612.703 -300.547 -614.08C-302.801 -615.458 -304.612 -617.523 -305.772 -620.035C-326.648 -665.153 -343.309 -774.377 -330.508 -834.828C-330.035 -837.032 -329.137 -839.127 -327.876 -840.972C-326.614 -842.817 -325.017 -844.37 -323.192 -845.526L-287.488 -867.77C-285.83 -868.801 -284.358 -870.165 -283.156 -871.785C-281.955 -873.404 -281.046 -875.248 -280.484 -877.209L-252.312 -975.479C-251.564 -978.129 -251.467 -980.908 -252.029 -983.533C-252.592 -986.159 -253.794 -988.538 -255.515 -990.43L-272.066 -1008.12C-273.581 -1009.78 -274.696 -1011.82 -275.324 -1014.08C-275.952 -1016.35 -276.075 -1018.76 -275.683 -1021.15C-275.29 -1023.53 -274.394 -1025.81 -273.064 -1027.81C-271.735 -1029.81 -270.01 -1031.47 -268.026 -1032.65C-224.45 -1058.66 -150.894 -1080.58 -107.118 -1081.82C-103.698 -1081.92 -100.427 -1080.67 -97.9118 -1078.31C-95.3962 -1075.95 -93.8059 -1072.64 -93.4352 -1068.98C-92.3836 -1059.15 -91.4511 -1049.26 -90.34 -1039.47C-90.0549 -1036.79 -89.1162 -1034.28 -87.6193 -1032.19C-86.1224 -1030.1 -84.1203 -1028.51 -81.8159 -1027.58C-79.5116 -1026.65 -76.9868 -1026.4 -74.4975 -1026.88C-72.0083 -1027.35 -69.643 -1028.53 -67.6414 -1030.28L-52.2887 -1043.77C-49.5981 -1046.3 -46.2051 -1047.73 -42.7414 -1047.79C-39.2777 -1047.85 -35.9794 -1046.55 -33.4607 -1044.12C-31.7887 -1042.51 -29.7559 -1041.38 -27.5382 -1040.85C-25.3206 -1040.31 -22.9851 -1040.37 -20.7345 -1041.03C-18.4838 -1041.69 -16.3858 -1042.93 -14.6224 -1044.63C-12.859 -1046.34 -11.4834 -1048.47 -10.6149 -1050.83L46.2234 -1203.3C46.5174 -1204.15 46.898 -1204.97 47.3578 -1205.73L123.877 -1342.06C125.125 -1344.42 125.807 -1347.05 125.856 -1349.71C125.904 -1352.36 125.319 -1354.95 124.156 -1357.22L87.2717 -1431.66C86.6908 -1432.87 85.9342 -1433.98 85.0289 -1434.93C56.6119 -1464.46 93.3692 -1602.3 112.825 -1646.02C114.379 -1649.5 117.04 -1652.31 120.294 -1653.9C123.548 -1655.49 127.164 -1655.75 130.445 -1654.62L171.511 -1640.58C173.828 -1639.76 176.339 -1639.64 178.785 -1640.23C181.231 -1640.82 183.523 -1642.1 185.427 -1643.93C207.782 -1664.98 283.924 -1735.75 315.263 -1750.77C318.182 -1752.14 321.379 -1752.45 324.369 -1751.67C327.358 -1750.88 329.975 -1749.04 331.82 -1746.43C348.466 -1722.58 365.161 -1698.74 381.906 -1674.9C383.56 -1672.53 385.857 -1670.8 388.501 -1669.92C417.605 -1660.22 594.114 -1600.72 633.004 -1565.93C635.011 -1564.14 637.472 -1563.01 640.109 -1562.69C642.747 -1562.37 645.456 -1562.85 647.931 -1564.09C684.369 -1580.85 722.038 -1593.79 760.399 -1602.73C762.892 -1603.19 765.263 -1604.36 767.268 -1606.11C769.273 -1607.87 770.841 -1610.14 771.811 -1612.7L779.435 -1632.68C780.28 -1634.93 781.589 -1636.97 783.256 -1638.62C784.924 -1640.28 786.904 -1641.51 789.04 -1642.22C791.176 -1642.93 793.408 -1643.1 795.559 -1642.72C797.709 -1642.33 799.72 -1641.4 801.43 -1640C825.428 -1620.48 858.036 -1584.07 871.8 -1556.13C872.658 -1554.4 873.834 -1552.88 875.26 -1551.68C876.686 -1550.47 878.333 -1549.6 880.108 -1549.11L963.01 -1525.61C966.287 -1524.66 969.073 -1522.44 970.855 -1519.36L1006.55 -1457.85L1053.35 -1363.39C1054.32 -1361.52 1054.89 -1359.41 1055.01 -1357.22L1056.85 -1321.28C1057 -1318.33 1057.93 -1315.53 1059.55 -1313.22C1061.16 -1310.91 1063.38 -1309.2 1065.94 -1308.28L1108.89 -1293.12C1111.12 -1292.33 1113.11 -1290.92 1114.65 -1289.04C1116.2 -1287.15 1117.25 -1284.84 1117.72 -1282.33C1118.19 -1279.81 1118.05 -1277.17 1117.33 -1274.66C1116.6 -1272.15 1115.31 -1269.84 1113.57 -1267.96C1100.95 -1254.12 1080.08 -1239.98 1065.96 -1238.3C1063.27 -1238 1060.66 -1236.87 1058.46 -1235.05C1056.26 -1233.23 1054.55 -1230.79 1053.53 -1228.02L1029.64 -1164.02C1028.82 -1161.8 1027.56 -1159.78 1025.95 -1158.11C994.385 -1126.41 914.297 -1119.09 876.947 -1094.51C875.101 -1093.26 873.513 -1091.6 872.301 -1089.64C871.089 -1087.68 870.282 -1085.47 869.941 -1083.18L853.344 -970.513C852.935 -967.677 853.254 -964.817 854.266 -962.25C855.278 -959.683 856.944 -957.51 859.077 -955.972C861.211 -954.434 863.729 -953.592 866.353 -953.539C868.976 -953.486 871.601 -954.225 873.937 -955.672L978.668 -1020.92C980.614 -1022.17 982.289 -1023.87 983.562 -1025.9C984.834 -1027.93 985.669 -1030.23 986 -1032.61C986.33 -1034.99 986.148 -1037.4 985.467 -1039.63C984.786 -1041.86 983.626 -1043.86 982.077 -1045.48L960.68 -1067.76C959.169 -1069.34 958.031 -1071.3 957.353 -1073.48C956.675 -1075.66 956.474 -1078.01 956.765 -1080.35C957.057 -1082.69 957.833 -1084.95 959.035 -1086.97C960.237 -1088.98 961.834 -1090.7 963.703 -1091.99L980.616 -1103.59C982.789 -1105.3 985.323 -1106.35 987.938 -1106.62C990.554 -1106.89 993.147 -1106.37 995.431 -1105.13L1056.73 -1066.12C1058.3 -1065.13 1060.04 -1064.5 1061.87 -1064.24L1124.78 -1055.63C1127.2 -1055.28 1129.47 -1054.26 1131.36 -1052.65C1133.25 -1051.04 1134.69 -1048.91 1135.55 -1046.46C1148.18 -1010.44 1127.25 -921.762 1105.43 -898.837C1103.81 -897.084 1102.56 -894.967 1101.79 -892.653C1101.01 -890.339 1100.74 -887.892 1100.98 -885.503L1114.66 -741.593C1114.8 -739.788 1114.66 -737.954 1114.23 -736.169L1108.82 -712.986C1108.3 -710.775 1107.34 -708.689 1106.02 -706.874C1104.69 -705.059 1103.03 -703.56 1101.15 -702.483C1099.27 -701.406 1097.22 -700.776 1095.14 -700.638C1093.06 -700.501 1091 -700.859 1089.11 -701.687L1063.37 -712.916C1061.34 -713.797 1059.56 -715.197 1058.16 -717.001C1056.77 -718.806 1055.8 -720.965 1055.35 -723.304C1051.1 -745.222 1041.97 -792.741 1037.99 -813.185C1037.44 -816.078 1036.1 -818.686 1034.16 -820.687C1032.21 -822.689 1029.73 -823.997 1027.03 -824.452L1004.57 -828.301C1001.78 -828.78 998.881 -828.341 996.236 -827.04L986.459 -822.095C984.633 -821.174 982.984 -819.86 981.616 -818.238C980.248 -816.616 979.191 -814.721 978.513 -812.674C977.835 -810.627 977.551 -808.472 977.678 -806.347C977.806 -804.223 978.342 -802.174 979.253 -800.332L983.158 -792.451C984.844 -789.063 985.231 -785.032 984.239 -781.186C983.248 -777.341 980.954 -773.973 977.828 -771.774L903.413 -719.682C902.506 -719.059 901.669 -718.317 900.923 -717.476C881.682 -699.221 861.566 -682.097 840.673 -666.186C838.079 -664.214 836.106 -661.411 835.054 -658.203C834.003 -654.996 833.932 -651.561 834.852 -648.423C835.771 -645.285 837.631 -642.615 840.147 -640.823C842.663 -639.03 845.697 -638.213 848.787 -638.495L1016.44 -651.094L1188 -659.741C1190.57 -659.87 1193.09 -659.246 1195.29 -657.936C1197.48 -656.625 1199.28 -654.677 1200.49 -652.295L1238.46 -575.665C1238.97 -574.631 1239.6 -573.676 1240.34 -572.823L1351.75 -441.011C1353.13 -439.335 1354.12 -437.326 1354.66 -435.131L1355.08 -433.507C1355.82 -430.737 1355.79 -427.753 1355.01 -424.907C1354.23 -422.061 1352.73 -419.471 1350.68 -417.445C1348.63 -415.419 1346.12 -414.04 1343.44 -413.471C1340.77 -412.903 1338.04 -413.168 1335.58 -414.237C1323.33 -419.46 1311.12 -424.784 1298.93 -430.045C1297.97 -430.47 1297.06 -430.997 1296.21 -431.62C1280.43 -443.651 1264.69 -455.619 1248.98 -467.687C1246.85 -469.306 1244.32 -470.219 1241.67 -470.325C1239.01 -470.43 1236.35 -469.723 1233.97 -468.283C1231.59 -466.843 1229.59 -464.729 1228.21 -462.182C1226.83 -459.635 1226.11 -456.756 1226.15 -453.875L1226.29 -446.514C1226.29 -444.265 1226.76 -442.072 1227.66 -440.096C1228.56 -438.12 1229.86 -436.411 1231.48 -435.095L1305.68 -374.157C1307.34 -372.839 1309.27 -371.946 1311.33 -371.542L1378.49 -357.961C1380.83 -357.467 1383.27 -357.629 1385.6 -358.433C1387.92 -359.238 1390.05 -360.658 1391.79 -362.561L1410.95 -382.682C1412.38 -384.147 1414.03 -385.341 1415.82 -386.209L1540.61 -437.843L1550.33 -428.916C1551.11 -429.398 1554.64 -432.01 1561.28 -435.738C1562.47 -436.479 1560.57 -444.711 1561.76 -445.453C1567.71 -449.16 1578.84 -454.209 1578.84 -454.209L1586.51 -449.573L1604.3 -456.891L1614.19 -450.608C1616.73 -450.638 1619.26 -451.393 1621.51 -452.798L1644.6 -467.182C1646.4 -468.296 1648.37 -468.995 1650.38 -469.234C1652.4 -469.473 1654.41 -469.246 1656.3 -468.569C1658.18 -467.891 1659.89 -466.778 1661.3 -465.303C1662.72 -463.829 1663.81 -462.027 1664.51 -460.017L1711.77 -323.444C1712.42 -321.559 1712.71 -319.532 1712.62 -317.481C1712.53 -315.431 1712.06 -313.398 1711.25 -311.503C1710.43 -309.607 1709.28 -307.886 1707.87 -306.441C1706.46 -304.996 1704.81 -303.856 1703.02 -303.087L1657.98 -283.954C1655.56 -282.891 1653.42 -281.151 1651.78 -278.919C1650.15 -276.688 1649.08 -274.049 1648.68 -271.285L1644.65 -244.214C1644.13 -240.458 1642.36 -236.966 1639.68 -234.404C1637 -231.843 1633.6 -230.391 1630.12 -230.328C1595.55 -229.832 1535.1 -242.6 1503.42 -266.001C1502.28 -266.889 1501.27 -267.935 1500.39 -269.113C1485.55 -290.373 1470.7 -311.655 1455.83 -332.957C1453.72 -336.006 1450.57 -337.999 1447.02 -338.527C1443.47 -339.056 1439.79 -338.081 1436.75 -335.801L1324.36 -252.683C1322.4 -251.253 1320.18 -250.345 1317.88 -250.04L1256.88 -241.754C1253.47 -241.278 1250.08 -242.149 1247.35 -244.206C1244.61 -246.263 1242.71 -249.366 1241.99 -252.943L1228.85 -318.436C1228.31 -320.787 1227.25 -322.932 1225.75 -324.692L1200.93 -357.197C1198.61 -360.198 1195.24 -362.032 1191.56 -362.305C1187.87 -362.578 1184.15 -361.27 1181.2 -358.66L1084 -271.91C1082.49 -270.513 1080.75 -269.431 1078.89 -268.722L937.117 -221.329C935.163 -220.604 933.342 -219.469 931.761 -217.992L913.37 -200.886C911.772 -199.44 910.457 -197.659 909.514 -195.66C908.571 -193.661 908.021 -191.49 907.9 -189.292L905.458 -97.719C905.405 -95.5525 904.93 -93.3974 904.066 -91.3945C903.202 -89.3917 901.967 -87.586 900.442 -86.0953C898.918 -84.6046 897.137 -83.4625 895.217 -82.7433C893.297 -82.024 891.281 -81.7439 889.3 -81.9213C836.965 -86.4828 746.683 -62.3269 704.197 -35.6942C702.492 -34.6149 700.99 -33.1809 699.783 -31.4801C698.576 -29.7793 697.69 -27.8476 697.178 -25.8039C696.667 -23.7601 696.541 -21.6473 696.808 -19.5953C697.076 -17.5432 697.731 -15.5954 698.734 -13.8711L700.408 -10.4931C701.499 -8.61669 702.177 -6.47768 702.393 -4.23089C702.609 -1.9841 702.358 0.314253 701.659 2.49761C700.959 4.68097 699.828 6.69477 698.347 8.3931C696.867 10.0914 695.074 11.4317 693.098 12.3171L626.098 42.5978C624.337 43.3897 622.72 44.5441 621.34 45.9942C619.96 47.4442 618.844 49.1612 618.057 51.0457C608.1 75.5868 615.553 138.564 631.697 157.159C633.141 158.717 634.225 160.627 634.871 162.746C635.517 164.865 635.708 167.141 635.429 169.406L625.378 244.68C624.999 247.482 625.343 250.301 626.374 252.819L636.623 276.805C637.586 279.24 637.926 281.942 637.609 284.64C637.291 287.338 636.328 289.937 634.816 292.175L594.814 351.481C593.26 353.779 592.288 356.457 592.003 359.23C591.717 362.003 592.128 364.767 593.192 367.226L621.013 432.332C622.501 435.772 622.697 439.769 621.561 443.515C620.426 447.261 618.043 450.478 614.894 452.517L604.956 458.709C602.931 460.03 600.666 460.817 598.357 461.001C596.047 461.185 593.762 460.761 591.696 459.766L544.426 436.822C542.13 435.71 539.561 435.317 536.999 435.687C534.437 436.057 531.979 437.175 529.89 438.919L454.387 502.332C452.301 504.031 449.878 505.146 447.348 505.571C429.014 508.807 347.809 521.577 292.576 535.685C289.976 536.34 287.555 537.758 285.586 539.78C283.617 541.802 282.177 544.348 281.428 547.134L266.82 601.424C266.503 602.676 266.026 603.883 265.403 605.008L237.076 657.858C235.502 660.828 233.086 663.197 230.211 664.592L193.904 682.79C190.506 684.499 186.702 684.758 183.282 683.514L145.819 669.36Z" fill="#293135" stroke="#2D7D9A" stroke-opacity="0.38" stroke-miterlimit="10"/>
<g clip-path="url(#clip1)">
<path d="M317.812 197.987C317.742 198.064 317.672 198.141 317.602 198.218C315.422 198.99 313.172 199.761 310.992 200.456C310.5 200.61 310.008 200.764 309.516 200.996C309.445 200.996 309.305 200.996 309.234 200.996C307.688 200.378 306.211 199.838 304.664 199.298C304.523 199.298 304.523 199.298 304.453 199.376C304.172 199.684 304.031 200.07 303.961 200.456C303.82 200.841 303.82 201.15 303.75 201.536C303.75 201.613 303.75 201.69 303.82 201.69C304.312 202.076 304.312 202.924 303.82 203.31C303.75 203.387 303.75 203.387 303.75 203.464C303.891 204.313 303.961 205.161 304.031 206.01C304.031 206.318 304.102 206.55 304.102 206.858C304.102 207.013 304.031 207.167 303.891 207.167C303.398 207.167 302.977 207.167 302.484 207.167C302.344 207.167 302.273 207.013 302.273 206.858C302.344 206.164 302.414 205.47 302.555 204.776C302.625 204.313 302.625 203.927 302.695 203.464C302.695 203.387 302.695 203.387 302.625 203.31C302.133 202.924 302.133 201.998 302.695 201.69C302.766 201.613 302.766 201.613 302.766 201.536C302.766 200.996 302.906 200.456 303.047 199.993C303.188 199.607 303.328 199.298 303.469 199.067C303.539 198.99 303.539 198.99 303.469 198.913C302.695 198.681 301.922 198.373 301.148 198.141C301.078 198.141 301.008 198.064 300.938 197.91C300.938 197.756 301.008 197.678 301.148 197.601C301.711 197.37 302.344 197.216 302.977 196.984C305.016 196.29 307.125 195.596 309.164 194.824C309.234 194.824 309.234 194.747 309.305 194.747C309.375 194.747 309.445 194.747 309.445 194.747C309.656 194.747 309.867 194.901 310.078 194.901C311.344 195.364 312.68 195.827 313.945 196.213C314.789 196.521 315.633 196.83 316.477 197.061C316.828 197.216 317.18 197.293 317.531 197.447C317.602 197.447 317.672 197.524 317.742 197.678C317.812 197.833 317.812 197.91 317.812 197.987Z" fill="#2D7D9A"/>
<path d="M309.586 194.747C309.586 194.824 309.586 194.824 309.586 194.747C309.516 194.747 309.445 194.747 309.375 194.747C309.445 194.747 309.516 194.747 309.586 194.747Z" fill="#2D7D9A"/>
<path d="M314.016 200.456C314.016 200.687 314.016 200.918 314.086 201.15C314.086 201.69 314.156 202.23 314.156 202.77C314.227 203.233 314.016 203.618 313.664 203.927C313.242 204.236 312.82 204.467 312.328 204.621C311.273 205.007 310.148 205.084 309.023 205.007C308.25 205.007 307.477 204.853 306.703 204.621C306.141 204.467 305.648 204.236 305.227 203.85C305.016 203.618 304.875 203.464 304.805 203.078C304.805 202.924 304.805 202.847 304.805 202.693C304.875 201.921 304.875 201.227 304.945 200.456C304.945 200.378 304.945 200.378 305.016 200.378C306.422 200.841 307.758 201.304 309.164 201.767C309.445 201.844 309.656 201.844 309.938 201.767C311.273 201.304 312.609 200.841 314.016 200.378C313.945 200.533 314.016 200.456 314.016 200.456Z" fill="#2D7D9A"/>
</g>
<g clip-path="url(#clip2)">
<path d="M284.062 334.144C283.992 334.221 283.922 334.299 283.852 334.376C281.672 335.147 279.422 335.919 277.242 336.613C276.75 336.767 276.258 336.921 275.766 337.153C275.695 337.153 275.555 337.153 275.484 337.153C273.938 336.536 272.461 335.996 270.914 335.456C270.773 335.456 270.773 335.456 270.703 335.533C270.422 335.841 270.281 336.227 270.211 336.613C270.07 336.999 270.07 337.307 270 337.693C270 337.77 270 337.847 270.07 337.847C270.562 338.233 270.562 339.081 270.07 339.467C270 339.544 270 339.544 270 339.621C270.141 340.47 270.211 341.319 270.281 342.167C270.281 342.476 270.352 342.707 270.352 343.016C270.352 343.17 270.281 343.324 270.141 343.324C269.648 343.324 269.227 343.324 268.734 343.324C268.594 343.324 268.523 343.17 268.523 343.016C268.594 342.321 268.664 341.627 268.805 340.933C268.875 340.47 268.875 340.084 268.945 339.621C268.945 339.544 268.945 339.544 268.875 339.467C268.383 339.081 268.383 338.156 268.945 337.847C269.016 337.77 269.016 337.77 269.016 337.693C269.016 337.153 269.156 336.613 269.297 336.15C269.438 335.764 269.578 335.456 269.719 335.224C269.789 335.147 269.789 335.147 269.719 335.07C268.945 334.839 268.172 334.53 267.398 334.299C267.328 334.299 267.258 334.221 267.188 334.067C267.188 333.913 267.258 333.836 267.398 333.759C267.961 333.527 268.594 333.373 269.227 333.141C271.266 332.447 273.375 331.753 275.414 330.981C275.484 330.981 275.484 330.904 275.555 330.904C275.625 330.904 275.695 330.904 275.695 330.904C275.906 330.904 276.117 331.059 276.328 331.059C277.594 331.521 278.93 331.984 280.195 332.37C281.039 332.679 281.883 332.987 282.727 333.219C283.078 333.373 283.43 333.45 283.781 333.604C283.852 333.604 283.922 333.681 283.992 333.836C284.062 333.99 284.062 334.067 284.062 334.144Z" fill="#2D7D9A"/>
<path d="M275.836 330.904C275.836 330.981 275.836 330.981 275.836 330.904C275.766 330.904 275.695 330.904 275.625 330.904C275.695 330.904 275.766 330.904 275.836 330.904Z" fill="#2D7D9A"/>
<path d="M280.266 336.613C280.266 336.844 280.266 337.076 280.336 337.307C280.336 337.847 280.406 338.387 280.406 338.927C280.477 339.39 280.266 339.776 279.914 340.084C279.492 340.393 279.07 340.624 278.578 340.779C277.523 341.164 276.398 341.241 275.273 341.164C274.5 341.164 273.727 341.01 272.953 340.779C272.391 340.624 271.898 340.393 271.477 340.007C271.266 339.776 271.125 339.621 271.055 339.236C271.055 339.081 271.055 339.004 271.055 338.85C271.125 338.079 271.125 337.384 271.195 336.613C271.195 336.536 271.195 336.536 271.266 336.536C272.672 336.999 274.008 337.461 275.414 337.924C275.695 338.001 275.906 338.001 276.188 337.924C277.523 337.461 278.859 336.999 280.266 336.536C280.195 336.69 280.266 336.613 280.266 336.613Z" fill="#2D7D9A"/>
</g>
<g clip-path="url(#clip3)">
<path d="M206.719 241.959C206.648 242.036 206.578 242.113 206.508 242.19C204.328 242.962 202.078 243.733 199.898 244.427C199.406 244.582 198.914 244.736 198.422 244.967C198.352 244.967 198.211 244.967 198.141 244.967C196.594 244.35 195.117 243.81 193.57 243.27C193.43 243.27 193.43 243.27 193.359 243.347C193.078 243.656 192.938 244.042 192.867 244.427C192.727 244.813 192.727 245.122 192.656 245.507C192.656 245.584 192.656 245.662 192.727 245.662C193.219 246.047 193.219 246.896 192.727 247.282C192.656 247.359 192.656 247.359 192.656 247.436C192.797 248.284 192.867 249.133 192.938 249.982C192.938 250.29 193.008 250.522 193.008 250.83C193.008 250.984 192.937 251.139 192.797 251.139C192.305 251.139 191.883 251.139 191.391 251.139C191.25 251.139 191.18 250.984 191.18 250.83C191.25 250.136 191.32 249.442 191.461 248.747C191.531 248.284 191.531 247.899 191.602 247.436C191.602 247.359 191.602 247.359 191.531 247.282C191.039 246.896 191.039 245.97 191.602 245.662C191.672 245.584 191.672 245.584 191.672 245.507C191.672 244.967 191.812 244.427 191.953 243.964C192.094 243.579 192.234 243.27 192.375 243.039C192.445 242.962 192.445 242.962 192.375 242.884C191.602 242.653 190.828 242.344 190.055 242.113C189.984 242.113 189.914 242.036 189.844 241.882C189.844 241.727 189.914 241.65 190.055 241.573C190.617 241.342 191.25 241.187 191.883 240.956C193.922 240.262 196.031 239.567 198.07 238.796C198.141 238.796 198.141 238.719 198.211 238.719C198.281 238.719 198.352 238.719 198.352 238.719C198.563 238.719 198.773 238.873 198.984 238.873C200.25 239.336 201.586 239.799 202.852 240.184C203.695 240.493 204.539 240.802 205.383 241.033C205.734 241.187 206.086 241.264 206.438 241.419C206.508 241.419 206.578 241.496 206.648 241.65C206.719 241.804 206.719 241.882 206.719 241.959Z" fill="#2D7D9A"/>
<path d="M198.492 238.719C198.492 238.796 198.492 238.796 198.492 238.719C198.422 238.719 198.352 238.719 198.281 238.719C198.352 238.719 198.422 238.719 198.492 238.719Z" fill="#2D7D9A"/>
<path d="M202.922 244.427C202.922 244.659 202.922 244.89 202.992 245.122C202.992 245.662 203.063 246.202 203.063 246.742C203.133 247.204 202.922 247.59 202.57 247.899C202.148 248.207 201.727 248.439 201.234 248.593C200.18 248.979 199.055 249.056 197.93 248.979C197.156 248.979 196.383 248.824 195.609 248.593C195.047 248.439 194.555 248.207 194.133 247.822C193.922 247.59 193.781 247.436 193.711 247.05C193.711 246.896 193.711 246.819 193.711 246.664C193.781 245.893 193.781 245.199 193.852 244.427C193.852 244.35 193.852 244.35 193.922 244.35C195.328 244.813 196.664 245.276 198.07 245.739C198.352 245.816 198.563 245.816 198.844 245.739C200.18 245.276 201.516 244.813 202.922 244.35C202.852 244.504 202.922 244.427 202.922 244.427Z" fill="#2D7D9A"/>
</g>
<g clip-path="url(#clip4)">
<path d="M163.477 429.03C163.406 429.107 163.336 429.184 163.266 429.261C161.086 430.033 158.836 430.804 156.656 431.499C156.164 431.653 155.672 431.807 155.18 432.039C155.109 432.039 154.969 432.039 154.898 432.039C153.352 431.421 151.875 430.881 150.328 430.341C150.188 430.341 150.188 430.341 150.117 430.419C149.836 430.727 149.695 431.113 149.625 431.499C149.484 431.884 149.484 432.193 149.414 432.579C149.414 432.656 149.414 432.733 149.484 432.733C149.977 433.119 149.977 433.967 149.484 434.353C149.414 434.43 149.414 434.43 149.414 434.507C149.555 435.356 149.625 436.204 149.695 437.053C149.695 437.361 149.766 437.593 149.766 437.901C149.766 438.056 149.695 438.21 149.555 438.21C149.062 438.21 148.641 438.21 148.148 438.21C148.008 438.21 147.937 438.056 147.937 437.901C148.008 437.207 148.078 436.513 148.219 435.819C148.289 435.356 148.289 434.97 148.359 434.507C148.359 434.43 148.359 434.43 148.289 434.353C147.797 433.967 147.797 433.041 148.359 432.733C148.43 432.656 148.43 432.656 148.43 432.579C148.43 432.039 148.57 431.499 148.711 431.036C148.852 430.65 148.992 430.341 149.133 430.11C149.203 430.033 149.203 430.033 149.133 429.956C148.359 429.724 147.586 429.416 146.813 429.184C146.742 429.184 146.672 429.107 146.602 428.953C146.602 428.799 146.672 428.721 146.813 428.644C147.375 428.413 148.008 428.259 148.641 428.027C150.68 427.333 152.789 426.639 154.828 425.867C154.898 425.867 154.898 425.79 154.969 425.79C155.039 425.79 155.109 425.79 155.109 425.79C155.32 425.79 155.531 425.944 155.742 425.944C157.008 426.407 158.344 426.87 159.609 427.256C160.453 427.564 161.297 427.873 162.141 428.104C162.492 428.259 162.844 428.336 163.195 428.49C163.266 428.49 163.336 428.567 163.406 428.721C163.477 428.876 163.477 428.953 163.477 429.03Z" fill="#2D7D9A"/>
<path d="M155.25 425.79C155.25 425.867 155.25 425.867 155.25 425.79C155.18 425.79 155.109 425.79 155.039 425.79C155.109 425.79 155.18 425.79 155.25 425.79Z" fill="#2D7D9A"/>
<path d="M159.68 431.499C159.68 431.73 159.68 431.961 159.75 432.193C159.75 432.733 159.82 433.273 159.82 433.813C159.891 434.276 159.68 434.661 159.328 434.97C158.906 435.279 158.484 435.51 157.992 435.664C156.938 436.05 155.813 436.127 154.688 436.05C153.914 436.05 153.141 435.896 152.367 435.664C151.805 435.51 151.313 435.279 150.891 434.893C150.68 434.661 150.539 434.507 150.469 434.121C150.469 433.967 150.469 433.89 150.469 433.736C150.539 432.964 150.539 432.27 150.609 431.499C150.609 431.421 150.609 431.421 150.68 431.421C152.086 431.884 153.422 432.347 154.828 432.81C155.109 432.887 155.32 432.887 155.602 432.81C156.938 432.347 158.273 431.884 159.68 431.421C159.609 431.576 159.68 431.499 159.68 431.499Z" fill="#2D7D9A"/>
</g>
<g clip-path="url(#clip5)">
<path d="M244.688 144.759C244.617 144.836 244.547 144.913 244.477 144.99C242.297 145.761 240.047 146.533 237.867 147.227C237.375 147.381 236.883 147.536 236.391 147.767C236.32 147.767 236.18 147.767 236.109 147.767C234.563 147.15 233.086 146.61 231.539 146.07C231.398 146.07 231.398 146.07 231.328 146.147C231.047 146.456 230.906 146.841 230.836 147.227C230.695 147.613 230.695 147.921 230.625 148.307C230.625 148.384 230.625 148.461 230.695 148.461C231.187 148.847 231.187 149.696 230.695 150.081C230.625 150.159 230.625 150.159 230.625 150.236C230.766 151.084 230.836 151.933 230.906 152.781C230.906 153.09 230.977 153.321 230.977 153.63C230.977 153.784 230.906 153.939 230.766 153.939C230.273 153.939 229.852 153.939 229.359 153.939C229.219 153.939 229.148 153.784 229.148 153.63C229.219 152.936 229.289 152.241 229.43 151.547C229.5 151.084 229.5 150.699 229.57 150.236C229.57 150.159 229.57 150.159 229.5 150.081C229.008 149.696 229.008 148.77 229.57 148.461C229.641 148.384 229.641 148.384 229.641 148.307C229.641 147.767 229.781 147.227 229.922 146.764C230.063 146.379 230.203 146.07 230.344 145.839C230.414 145.761 230.414 145.761 230.344 145.684C229.57 145.453 228.797 145.144 228.023 144.913C227.953 144.913 227.883 144.836 227.812 144.681C227.812 144.527 227.883 144.45 228.023 144.373C228.586 144.141 229.219 143.987 229.852 143.756C231.891 143.061 234 142.367 236.039 141.596C236.109 141.596 236.109 141.519 236.18 141.519C236.25 141.519 236.32 141.519 236.32 141.519C236.531 141.519 236.742 141.673 236.953 141.673C238.219 142.136 239.555 142.599 240.82 142.984C241.664 143.293 242.508 143.601 243.352 143.833C243.703 143.987 244.055 144.064 244.406 144.219C244.477 144.219 244.547 144.296 244.617 144.45C244.687 144.604 244.688 144.681 244.688 144.759Z" fill="#2D7D9A"/>
<path d="M236.461 141.519C236.461 141.596 236.461 141.596 236.461 141.519C236.391 141.519 236.32 141.519 236.25 141.519C236.32 141.519 236.391 141.519 236.461 141.519Z" fill="#2D7D9A"/>
<path d="M240.891 147.227C240.891 147.458 240.891 147.69 240.961 147.921C240.961 148.461 241.031 149.001 241.031 149.541C241.102 150.004 240.891 150.39 240.539 150.698C240.117 151.007 239.695 151.238 239.203 151.393C238.148 151.778 237.023 151.856 235.898 151.778C235.125 151.778 234.352 151.624 233.578 151.393C233.016 151.238 232.523 151.007 232.102 150.621C231.891 150.39 231.75 150.236 231.68 149.85C231.68 149.696 231.68 149.618 231.68 149.464C231.75 148.693 231.75 147.998 231.82 147.227C231.82 147.15 231.82 147.15 231.891 147.15C233.297 147.613 234.633 148.076 236.039 148.538C236.32 148.616 236.531 148.616 236.813 148.538C238.148 148.076 239.484 147.613 240.891 147.15C240.82 147.304 240.891 147.227 240.891 147.227Z" fill="#2D7D9A"/>
</g>
<g clip-path="url(#clip6)">
<path d="M236.25 480.716C236.18 480.793 236.109 480.87 236.039 480.947C233.859 481.718 231.609 482.49 229.43 483.184C228.938 483.338 228.445 483.493 227.953 483.724C227.883 483.724 227.742 483.724 227.672 483.724C226.125 483.107 224.648 482.567 223.102 482.027C222.961 482.027 222.961 482.027 222.891 482.104C222.609 482.413 222.469 482.798 222.398 483.184C222.258 483.57 222.258 483.878 222.188 484.264C222.188 484.341 222.187 484.418 222.258 484.418C222.75 484.804 222.75 485.653 222.258 486.038C222.187 486.116 222.188 486.116 222.188 486.193C222.328 487.041 222.398 487.89 222.469 488.738C222.469 489.047 222.539 489.278 222.539 489.587C222.539 489.741 222.469 489.896 222.328 489.896C221.836 489.896 221.414 489.896 220.922 489.896C220.781 489.896 220.711 489.741 220.711 489.587C220.781 488.893 220.852 488.198 220.992 487.504C221.062 487.041 221.062 486.656 221.133 486.193C221.133 486.116 221.133 486.116 221.063 486.038C220.57 485.653 220.57 484.727 221.133 484.418C221.203 484.341 221.203 484.341 221.203 484.264C221.203 483.724 221.344 483.184 221.484 482.721C221.625 482.336 221.766 482.027 221.906 481.796C221.977 481.718 221.977 481.718 221.906 481.641C221.133 481.41 220.359 481.101 219.586 480.87C219.516 480.87 219.445 480.793 219.375 480.638C219.375 480.484 219.445 480.407 219.586 480.33C220.148 480.098 220.781 479.944 221.414 479.713C223.453 479.018 225.562 478.324 227.602 477.553C227.672 477.553 227.672 477.476 227.742 477.476C227.812 477.476 227.883 477.476 227.883 477.476C228.094 477.476 228.305 477.63 228.516 477.63C229.781 478.093 231.117 478.556 232.383 478.941C233.227 479.25 234.07 479.558 234.914 479.79C235.266 479.944 235.617 480.021 235.969 480.176C236.039 480.176 236.109 480.253 236.18 480.407C236.25 480.561 236.25 480.638 236.25 480.716Z" fill="#2D7D9A"/>
<path d="M228.023 477.476C228.023 477.553 228.023 477.553 228.023 477.476C227.953 477.476 227.883 477.476 227.812 477.476C227.883 477.476 227.953 477.476 228.023 477.476Z" fill="#2D7D9A"/>
<path d="M232.453 483.184C232.453 483.416 232.453 483.647 232.523 483.878C232.523 484.418 232.594 484.958 232.594 485.498C232.664 485.961 232.453 486.347 232.102 486.655C231.68 486.964 231.258 487.195 230.766 487.35C229.711 487.735 228.586 487.813 227.461 487.735C226.688 487.735 225.914 487.581 225.141 487.35C224.578 487.195 224.086 486.964 223.664 486.578C223.453 486.347 223.313 486.193 223.242 485.807C223.242 485.653 223.242 485.576 223.242 485.421C223.313 484.65 223.312 483.956 223.383 483.184C223.383 483.107 223.383 483.107 223.453 483.107C224.859 483.57 226.195 484.033 227.602 484.496C227.883 484.573 228.094 484.573 228.375 484.496C229.711 484.033 231.047 483.57 232.453 483.107C232.383 483.261 232.453 483.184 232.453 483.184Z" fill="#2D7D9A"/>
</g>
<g clip-path="url(#clip7)">
<path d="M345.027 452.926C344.957 453.003 344.886 453.08 344.816 453.157C342.636 453.928 340.386 454.7 338.207 455.394C337.714 455.548 337.222 455.703 336.73 455.934C336.66 455.934 336.519 455.934 336.449 455.934C334.902 455.317 333.425 454.777 331.878 454.237C331.738 454.237 331.738 454.237 331.667 454.314C331.386 454.623 331.246 455.008 331.175 455.394C331.035 455.78 331.035 456.088 330.964 456.474C330.964 456.551 330.964 456.628 331.035 456.628C331.527 457.014 331.527 457.863 331.035 458.248C330.964 458.326 330.964 458.326 330.964 458.403C331.105 459.251 331.175 460.1 331.246 460.948C331.246 461.257 331.316 461.488 331.316 461.797C331.316 461.951 331.246 462.106 331.105 462.106C330.613 462.106 330.191 462.106 329.699 462.106C329.558 462.106 329.488 461.951 329.488 461.797C329.558 461.103 329.628 460.408 329.769 459.714C329.839 459.251 329.839 458.866 329.91 458.403C329.91 458.326 329.91 458.326 329.839 458.248C329.347 457.863 329.347 456.937 329.91 456.628C329.98 456.551 329.98 456.551 329.98 456.474C329.98 455.934 330.121 455.394 330.261 454.931C330.402 454.546 330.542 454.237 330.683 454.006C330.753 453.928 330.753 453.928 330.683 453.851C329.91 453.62 329.136 453.311 328.363 453.08C328.292 453.08 328.222 453.003 328.152 452.848C328.152 452.694 328.222 452.617 328.363 452.54C328.925 452.308 329.558 452.154 330.191 451.923C332.23 451.228 334.339 450.534 336.378 449.763C336.449 449.763 336.449 449.686 336.519 449.686C336.589 449.686 336.66 449.686 336.66 449.686C336.871 449.686 337.082 449.84 337.292 449.84C338.558 450.303 339.894 450.766 341.16 451.151C342.003 451.46 342.847 451.768 343.691 452C344.042 452.154 344.394 452.231 344.746 452.386C344.816 452.386 344.886 452.463 344.957 452.617C345.027 452.771 345.027 452.848 345.027 452.926Z" fill="#2D7D9A"/>
<path d="M336.8 449.686C336.8 449.763 336.8 449.763 336.8 449.686C336.73 449.686 336.66 449.686 336.589 449.686C336.66 449.686 336.73 449.686 336.8 449.686Z" fill="#2D7D9A"/>
<path d="M341.23 455.394C341.23 455.625 341.23 455.857 341.3 456.088C341.3 456.628 341.371 457.168 341.371 457.708C341.441 458.171 341.23 458.557 340.878 458.865C340.457 459.174 340.035 459.405 339.542 459.56C338.488 459.945 337.363 460.023 336.238 459.945C335.464 459.945 334.691 459.791 333.917 459.56C333.355 459.405 332.863 459.174 332.441 458.788C332.23 458.557 332.089 458.403 332.019 458.017C332.019 457.863 332.019 457.785 332.019 457.631C332.089 456.86 332.089 456.165 332.16 455.394C332.16 455.317 332.16 455.317 332.23 455.317C333.636 455.78 334.972 456.243 336.378 456.705C336.66 456.783 336.871 456.783 337.152 456.705C338.488 456.243 339.824 455.78 341.23 455.317C341.16 455.471 341.23 455.394 341.23 455.394Z" fill="#2D7D9A"/>
</g>
<g clip-path="url(#clip8)">
<path d="M340.312 110.43C340.242 110.507 340.172 110.584 340.102 110.661C337.922 111.433 335.672 112.204 333.492 112.899C333 113.053 332.508 113.207 332.016 113.439C331.945 113.439 331.805 113.439 331.734 113.439C330.188 112.821 328.711 112.281 327.164 111.741C327.023 111.741 327.023 111.741 326.953 111.819C326.672 112.127 326.531 112.513 326.461 112.899C326.32 113.284 326.32 113.593 326.25 113.979C326.25 114.056 326.25 114.133 326.32 114.133C326.812 114.519 326.812 115.367 326.32 115.753C326.25 115.83 326.25 115.83 326.25 115.907C326.391 116.756 326.461 117.604 326.531 118.453C326.531 118.761 326.602 118.993 326.602 119.301C326.602 119.456 326.531 119.61 326.391 119.61C325.898 119.61 325.477 119.61 324.984 119.61C324.844 119.61 324.773 119.456 324.773 119.301C324.844 118.607 324.914 117.913 325.055 117.219C325.125 116.756 325.125 116.37 325.195 115.907C325.195 115.83 325.195 115.83 325.125 115.753C324.633 115.367 324.633 114.441 325.195 114.133C325.266 114.056 325.266 114.056 325.266 113.979C325.266 113.439 325.406 112.899 325.547 112.436C325.688 112.05 325.828 111.741 325.969 111.51C326.039 111.433 326.039 111.433 325.969 111.356C325.195 111.124 324.422 110.816 323.648 110.584C323.578 110.584 323.508 110.507 323.438 110.353C323.438 110.199 323.508 110.121 323.648 110.044C324.211 109.813 324.844 109.659 325.477 109.427C327.516 108.733 329.625 108.039 331.664 107.267C331.734 107.267 331.734 107.19 331.805 107.19C331.875 107.19 331.945 107.19 331.945 107.19C332.156 107.19 332.367 107.344 332.578 107.344C333.844 107.807 335.18 108.27 336.445 108.656C337.289 108.964 338.133 109.273 338.977 109.504C339.328 109.659 339.68 109.736 340.031 109.89C340.102 109.89 340.172 109.967 340.242 110.121C340.312 110.276 340.312 110.353 340.312 110.43Z" fill="#2D7D9A"/>
<path d="M332.086 107.19C332.086 107.267 332.086 107.267 332.086 107.19C332.016 107.19 331.945 107.19 331.875 107.19C331.945 107.19 332.016 107.19 332.086 107.19Z" fill="#2D7D9A"/>
<path d="M336.516 112.898C336.516 113.13 336.516 113.361 336.586 113.593C336.586 114.133 336.656 114.673 336.656 115.213C336.727 115.676 336.516 116.061 336.164 116.37C335.742 116.678 335.32 116.91 334.828 117.064C333.773 117.45 332.648 117.527 331.523 117.45C330.75 117.45 329.977 117.296 329.203 117.064C328.641 116.91 328.148 116.678 327.727 116.293C327.516 116.061 327.375 115.907 327.305 115.521C327.305 115.367 327.305 115.29 327.305 115.136C327.375 114.364 327.375 113.67 327.445 112.898C327.445 112.821 327.445 112.821 327.516 112.821C328.922 113.284 330.258 113.747 331.664 114.21C331.945 114.287 332.156 114.287 332.438 114.21C333.773 113.747 335.109 113.284 336.516 112.821C336.445 112.976 336.516 112.898 336.516 112.898Z" fill="#2D7D9A"/>
</g>
<g clip-path="url(#clip9)">
<path d="M245.039 392.773C244.969 392.85 244.898 392.927 244.828 393.004C242.648 393.776 240.398 394.547 238.219 395.241C237.727 395.396 237.234 395.55 236.742 395.781C236.672 395.781 236.531 395.781 236.461 395.781C234.914 395.164 233.438 394.624 231.891 394.084C231.75 394.084 231.75 394.084 231.68 394.161C231.398 394.47 231.258 394.856 231.188 395.241C231.047 395.627 231.047 395.936 230.977 396.321C230.977 396.398 230.977 396.476 231.047 396.476C231.539 396.861 231.539 397.71 231.047 398.096C230.977 398.173 230.977 398.173 230.977 398.25C231.117 399.098 231.188 399.947 231.258 400.796C231.258 401.104 231.328 401.336 231.328 401.644C231.328 401.798 231.258 401.953 231.117 401.953C230.625 401.953 230.203 401.953 229.711 401.953C229.57 401.953 229.5 401.798 229.5 401.644C229.57 400.95 229.641 400.256 229.781 399.561C229.852 399.098 229.852 398.713 229.922 398.25C229.922 398.173 229.922 398.173 229.852 398.096C229.359 397.71 229.359 396.784 229.922 396.476C229.992 396.398 229.992 396.398 229.992 396.321C229.992 395.781 230.133 395.241 230.273 394.778C230.414 394.393 230.555 394.084 230.695 393.853C230.766 393.776 230.766 393.776 230.695 393.698C229.922 393.467 229.148 393.158 228.375 392.927C228.305 392.927 228.234 392.85 228.164 392.696C228.164 392.541 228.234 392.464 228.375 392.387C228.938 392.156 229.57 392.001 230.203 391.77C232.242 391.076 234.352 390.381 236.391 389.61C236.461 389.61 236.461 389.533 236.531 389.533C236.602 389.533 236.672 389.533 236.672 389.533C236.883 389.533 237.094 389.687 237.305 389.687C238.57 390.15 239.906 390.613 241.172 390.998C242.016 391.307 242.859 391.616 243.703 391.847C244.055 392.001 244.406 392.078 244.758 392.233C244.828 392.233 244.898 392.31 244.969 392.464C245.039 392.618 245.039 392.696 245.039 392.773Z" fill="#2D7D9A"/>
<path d="M236.813 389.533C236.813 389.61 236.813 389.61 236.813 389.533C236.742 389.533 236.672 389.533 236.602 389.533C236.672 389.533 236.742 389.533 236.813 389.533Z" fill="#2D7D9A"/>
<path d="M241.242 395.241C241.242 395.473 241.242 395.704 241.313 395.935C241.313 396.475 241.383 397.015 241.383 397.555C241.453 398.018 241.242 398.404 240.891 398.713C240.469 399.021 240.047 399.253 239.555 399.407C238.5 399.793 237.375 399.87 236.25 399.793C235.477 399.793 234.703 399.638 233.93 399.407C233.367 399.253 232.875 399.021 232.453 398.635C232.242 398.404 232.102 398.25 232.031 397.864C232.031 397.71 232.031 397.633 232.031 397.478C232.102 396.707 232.102 396.013 232.172 395.241C232.172 395.164 232.172 395.164 232.242 395.164C233.648 395.627 234.984 396.09 236.391 396.553C236.672 396.63 236.883 396.63 237.164 396.553C238.5 396.09 239.836 395.627 241.242 395.164C241.172 395.318 241.242 395.241 241.242 395.241Z" fill="#2D7D9A"/>
</g>
<g clip-path="url(#clip10)">
<path d="M279.492 284.001C279.422 284.078 279.352 284.156 279.281 284.233C277.102 285.004 274.852 285.776 272.672 286.47C272.18 286.624 271.687 286.778 271.195 287.01C271.125 287.01 270.984 287.01 270.914 287.01C269.367 286.393 267.891 285.853 266.344 285.313C266.203 285.313 266.203 285.313 266.133 285.39C265.852 285.698 265.711 286.084 265.641 286.47C265.5 286.856 265.5 287.164 265.43 287.55C265.43 287.627 265.43 287.704 265.5 287.704C265.992 288.09 265.992 288.938 265.5 289.324C265.43 289.401 265.43 289.401 265.43 289.478C265.57 290.327 265.641 291.176 265.711 292.024C265.711 292.333 265.781 292.564 265.781 292.873C265.781 293.027 265.711 293.181 265.57 293.181C265.078 293.181 264.656 293.181 264.164 293.181C264.023 293.181 263.953 293.027 263.953 292.873C264.023 292.178 264.094 291.484 264.234 290.79C264.305 290.327 264.305 289.941 264.375 289.478C264.375 289.401 264.375 289.401 264.305 289.324C263.813 288.938 263.812 288.013 264.375 287.704C264.445 287.627 264.445 287.627 264.445 287.55C264.445 287.01 264.586 286.47 264.727 286.007C264.867 285.621 265.008 285.313 265.148 285.081C265.219 285.004 265.219 285.004 265.148 284.927C264.375 284.696 263.602 284.387 262.828 284.156C262.758 284.156 262.688 284.078 262.617 283.924C262.617 283.77 262.688 283.693 262.828 283.616C263.391 283.384 264.023 283.23 264.656 282.998C266.695 282.304 268.805 281.61 270.844 280.838C270.914 280.838 270.914 280.761 270.984 280.761C271.055 280.761 271.125 280.761 271.125 280.761C271.336 280.761 271.547 280.916 271.758 280.916C273.023 281.378 274.359 281.841 275.625 282.227C276.469 282.536 277.313 282.844 278.156 283.076C278.508 283.23 278.859 283.307 279.211 283.461C279.281 283.461 279.352 283.538 279.422 283.693C279.492 283.847 279.492 283.924 279.492 284.001Z" fill="#2D7D9A"/>
<path d="M271.266 280.761C271.266 280.838 271.266 280.838 271.266 280.761C271.195 280.761 271.125 280.761 271.055 280.761C271.125 280.761 271.195 280.761 271.266 280.761Z" fill="#2D7D9A"/>
<path d="M275.695 286.47C275.695 286.701 275.695 286.933 275.766 287.164C275.766 287.704 275.836 288.244 275.836 288.784C275.906 289.247 275.695 289.633 275.344 289.941C274.922 290.25 274.5 290.481 274.008 290.635C272.953 291.021 271.828 291.098 270.703 291.021C269.93 291.021 269.156 290.867 268.383 290.635C267.82 290.481 267.328 290.25 266.906 289.864C266.695 289.633 266.555 289.478 266.484 289.093C266.484 288.938 266.484 288.861 266.484 288.707C266.555 287.935 266.555 287.241 266.625 286.47C266.625 286.393 266.625 286.393 266.695 286.393C268.102 286.855 269.438 287.318 270.844 287.781C271.125 287.858 271.336 287.858 271.617 287.781C272.953 287.318 274.289 286.855 275.695 286.393C275.625 286.547 275.695 286.47 275.695 286.47Z" fill="#2D7D9A"/>
</g>
</g>
<defs>
<clipPath id="clip0">
<rect width="360" height="540" fill="white"/>
</clipPath>
<clipPath id="clip1">
<rect x="300.938" y="191.7" width="16.875" height="18.5143" fill="white"/>
</clipPath>
<clipPath id="clip2">
<rect x="267.188" y="327.857" width="16.875" height="18.5143" fill="white"/>
</clipPath>
<clipPath id="clip3">
<rect x="189.844" y="235.672" width="16.875" height="18.5143" fill="white"/>
</clipPath>
<clipPath id="clip4">
<rect x="146.602" y="422.743" width="16.875" height="18.5143" fill="white"/>
</clipPath>
<clipPath id="clip5">
<rect x="227.812" y="138.472" width="16.875" height="18.5143" fill="white"/>
</clipPath>
<clipPath id="clip6">
<rect x="219.375" y="474.429" width="16.875" height="18.5143" fill="white"/>
</clipPath>
<clipPath id="clip7">
<rect x="328.152" y="446.639" width="16.875" height="18.5143" fill="white"/>
</clipPath>
<clipPath id="clip8">
<rect x="323.438" y="104.143" width="16.875" height="18.5143" fill="white"/>
</clipPath>
<clipPath id="clip9">
<rect x="228.164" y="386.486" width="16.875" height="18.5143" fill="white"/>
</clipPath>
<clipPath id="clip10">
<rect x="262.617" y="277.714" width="16.875" height="18.5143" fill="white"/>
</clipPath>
</defs>
</svg>
