<svg width="360" height="540" viewBox="0 0 360 540" fill="none" xmlns="http://www.w3.org/2000/svg">
<g clip-path="url(#clip0)">
<path d="M145.467 2100.36C130.982 2095.96 120.326 1851.27 145.022 1786.85C146.108 1784.06 146.397 1781.02 145.85 1778.15C139.277 1735.33 147.684 1572.34 142.261 1539.86C137.98 1514.04 133.536 1488.62 128.928 1463.6C128.283 1459.93 128.909 1456.06 130.687 1452.71C132.465 1449.35 135.275 1446.75 138.591 1445.38L221.198 1412.34C223.218 1411.52 225.07 1410.24 226.618 1408.58C228.167 1406.92 229.374 1404.93 230.152 1402.75L254.408 1335.08C255.049 1333.37 255.938 1331.76 257.038 1330.33L303.705 1270.8C305.553 1268.43 306.747 1265.57 307.139 1262.56C307.531 1259.55 307.103 1256.53 305.909 1253.88C296.057 1232.26 291.881 1222.42 267.707 1173.79C267.03 1172.44 266.542 1170.98 266.259 1169.45C256.325 1099.61 253.062 1028.46 256.519 957.105C256.669 954.382 256.153 951.705 255.022 949.345C253.891 946.984 252.187 945.026 250.082 943.667C247.977 942.309 245.546 941.6 243.038 941.612C240.529 941.624 238.031 942.356 235.799 943.735L231.752 946.256C229.993 947.363 228.057 948.064 226.072 948.312C224.087 948.561 222.099 948.351 220.24 947.698L111.081 910.181C110.233 909.889 109.354 909.696 108.459 909.605C88.4459 907.092 -149.324 877.988 -220.847 854.191C-222.901 853.512 -224.757 852.32 -226.271 850.708C-227.785 849.097 -228.917 847.108 -229.58 844.896L-235.185 826.039C-236.086 822.972 -237.883 820.35 -240.314 818.552C-242.744 816.755 -245.683 815.876 -248.705 816.042L-293.389 818.748C-296.04 818.931 -298.644 818.296 -300.898 816.919C-303.152 815.541 -304.964 813.476 -306.123 810.964C-326.999 765.846 -343.661 656.622 -330.859 596.171C-330.386 593.967 -329.489 591.872 -328.227 590.027C-326.966 588.182 -325.369 586.63 -323.544 585.473L-287.84 563.229C-286.182 562.198 -284.71 560.834 -283.508 559.215C-282.306 557.595 -281.398 555.752 -280.835 553.79L-252.664 455.52C-251.916 452.87 -251.819 450.092 -252.381 447.466C-252.943 444.84 -254.146 442.461 -255.866 440.569L-272.417 422.883C-273.932 421.222 -275.048 419.179 -275.676 416.917C-276.304 414.654 -276.427 412.234 -276.034 409.851C-275.642 407.467 -274.745 405.186 -273.416 403.188C-272.086 401.19 -270.361 399.532 -268.378 398.344C-224.801 372.342 -151.245 350.42 -107.47 349.181C-104.05 349.08 -100.779 350.325 -98.2634 352.686C-95.7478 355.046 -94.1575 358.363 -93.7868 362.022C-92.7352 371.846 -91.8027 381.744 -90.6916 391.53C-90.4065 394.209 -89.4678 396.72 -87.9709 398.808C-86.4739 400.896 -84.4719 402.487 -82.1675 403.42C-79.8631 404.353 -77.3384 404.594 -74.8491 404.12C-72.3598 403.646 -69.9946 402.473 -67.9929 400.72L-52.6403 387.226C-49.9497 384.701 -46.5566 383.274 -43.0929 383.209C-39.6292 383.145 -36.331 384.447 -33.8123 386.875C-32.1403 388.489 -30.1075 389.614 -27.8898 390.154C-25.6722 390.693 -23.3367 390.63 -21.086 389.969C-18.8354 389.309 -16.7374 388.072 -14.974 386.365C-13.2106 384.658 -11.8349 382.532 -10.9664 380.173L45.8719 227.695C46.1658 226.848 46.5464 226.034 47.0062 225.269L123.526 88.937C124.774 86.5795 125.455 83.9454 125.504 81.2901C125.553 78.6348 124.967 76.0485 123.804 73.7822L86.9201 -0.657629C86.3393 -1.87565 85.5826 -2.97835 84.6773 -3.92661C56.2604 -33.4585 93.0177 -171.297 112.473 -215.018C114.027 -218.504 116.688 -221.313 119.942 -222.902C123.196 -224.491 126.813 -224.747 130.093 -223.622L171.159 -209.583C173.476 -208.765 175.987 -208.645 178.433 -209.233C180.879 -209.822 183.172 -211.098 185.075 -212.932C207.431 -233.982 283.573 -304.751 314.912 -319.773C317.83 -321.136 321.028 -321.449 324.017 -320.666C327.006 -319.882 329.623 -318.045 331.469 -315.435C348.114 -291.585 364.809 -267.74 381.555 -243.898C383.208 -241.534 385.505 -239.801 388.149 -238.92C417.254 -229.218 593.762 -169.725 632.653 -134.93C634.66 -133.136 637.121 -132.014 639.758 -131.69C642.395 -131.366 645.104 -131.853 647.579 -133.096C684.018 -149.848 721.686 -162.787 760.048 -171.729C762.541 -172.193 764.911 -173.361 766.917 -175.114C768.922 -176.867 770.49 -179.141 771.459 -181.704L779.083 -201.68C779.929 -203.932 781.237 -205.966 782.905 -207.623C784.572 -209.279 786.553 -210.512 788.688 -211.223C790.824 -211.933 793.056 -212.102 795.207 -211.716C797.358 -211.33 799.368 -210.399 801.079 -208.998C825.077 -189.484 857.684 -153.067 871.449 -125.131C872.307 -123.398 873.483 -121.885 874.909 -120.68C876.334 -119.475 877.982 -118.601 879.756 -118.109L962.658 -94.6058C965.935 -93.6585 968.721 -91.4407 970.504 -88.3599L1006.2 -26.8506L1053 67.6067C1053.97 69.4829 1054.54 71.5898 1054.66 73.7787L1056.5 109.716C1056.65 112.673 1057.58 115.474 1059.2 117.781C1060.81 120.088 1063.03 121.802 1065.59 122.718L1108.54 137.877C1110.77 138.669 1112.76 140.074 1114.3 141.963C1115.85 143.851 1116.9 146.16 1117.37 148.674C1117.84 151.188 1117.7 153.825 1116.98 156.337C1116.25 158.85 1114.96 161.157 1113.22 163.041C1100.6 176.876 1079.73 191.024 1065.61 192.7C1062.91 193.002 1060.31 194.131 1058.11 195.953C1055.91 197.774 1054.2 200.213 1053.18 202.981L1029.29 266.983C1028.47 269.202 1027.21 271.22 1025.6 272.887C994.033 304.586 913.946 311.912 876.595 336.492C874.749 337.738 873.162 339.402 871.949 341.361C870.737 343.321 869.931 345.526 869.59 347.815L852.993 460.486C852.583 463.322 852.902 466.182 853.914 468.749C854.927 471.316 856.592 473.49 858.726 475.027C860.859 476.565 863.378 477.407 866.001 477.46C868.624 477.513 871.249 476.775 873.585 475.327L978.317 410.078C980.262 408.831 981.938 407.126 983.21 405.097C984.483 403.068 985.317 400.771 985.648 398.389C985.979 396.006 985.797 393.603 985.116 391.37C984.435 389.137 983.274 387.135 981.726 385.523L960.328 363.243C958.818 361.657 957.68 359.699 957.001 357.517C956.323 355.335 956.122 352.986 956.414 350.65C956.705 348.313 957.481 346.051 958.684 344.034C959.886 342.017 961.482 340.299 963.351 339.01L980.265 327.408C982.437 325.699 984.971 324.65 987.587 324.38C990.202 324.109 992.796 324.626 995.08 325.874L1056.38 364.88C1057.95 365.867 1059.69 366.504 1061.52 366.756L1124.43 375.372C1126.85 375.718 1129.12 376.744 1131.01 378.351C1132.9 379.958 1134.34 382.09 1135.2 384.542C1147.83 420.555 1126.9 509.237 1105.08 532.162C1103.45 533.915 1102.21 536.032 1101.43 538.346C1100.66 540.66 1100.39 543.108 1100.63 545.496L1114.31 689.407C1114.45 691.211 1114.31 693.046 1113.88 694.83L1108.47 718.014C1107.95 720.224 1106.99 722.311 1105.66 724.125C1104.34 725.94 1102.68 727.439 1100.8 728.516C1098.92 729.594 1096.87 730.223 1094.79 730.361C1092.71 730.498 1090.65 730.14 1088.76 729.312L1063.02 718.083C1060.99 717.202 1059.2 715.803 1057.81 713.998C1056.41 712.193 1055.45 710.034 1054.99 707.695C1050.75 685.777 1041.62 638.258 1037.64 617.814C1037.08 614.921 1035.75 612.314 1033.81 610.312C1031.86 608.31 1029.38 607.002 1026.68 606.548L1004.22 602.698C1001.43 602.219 998.529 602.658 995.884 603.959L986.107 608.904C984.282 609.825 982.632 611.139 981.264 612.761C979.896 614.383 978.84 616.278 978.162 618.325C977.484 620.372 977.2 622.527 977.327 624.652C977.454 626.777 977.991 628.825 978.902 630.667L982.807 638.548C984.492 641.936 984.879 645.967 983.888 649.813C982.896 653.658 980.602 657.026 977.477 659.225L903.061 711.317C902.154 711.94 901.318 712.682 900.572 713.523C881.33 731.778 861.215 748.902 840.321 764.813C837.727 766.785 835.754 769.588 834.703 772.796C833.652 776.003 833.581 779.438 834.5 782.576C835.42 785.715 837.279 788.384 839.795 790.176C842.312 791.969 845.346 792.786 848.435 792.504L1016.09 779.905L1187.65 771.258C1190.22 771.129 1192.74 771.753 1194.93 773.063C1197.13 774.374 1198.93 776.322 1200.14 778.704L1238.11 855.334C1238.62 856.368 1239.25 857.323 1239.98 858.176L1351.4 989.988C1352.77 991.664 1353.77 993.673 1354.31 995.868L1354.73 997.492C1355.46 1000.26 1355.44 1003.25 1354.66 1006.09C1353.88 1008.94 1352.38 1011.53 1350.33 1013.55C1348.28 1015.58 1345.77 1016.96 1343.09 1017.53C1340.41 1018.1 1337.69 1017.83 1335.23 1016.76C1322.98 1011.54 1310.77 1006.22 1298.58 1000.95C1297.62 1000.53 1296.71 1000 1295.85 999.379C1280.08 987.348 1264.34 975.38 1248.62 963.312C1246.5 961.694 1243.97 960.78 1241.32 960.674C1238.66 960.569 1235.99 961.277 1233.61 962.716C1231.24 964.156 1229.24 966.27 1227.86 968.817C1226.48 971.364 1225.76 974.243 1225.8 977.124L1225.94 984.485C1225.94 986.734 1226.41 988.927 1227.31 990.903C1228.21 992.879 1229.51 994.588 1231.13 995.905L1305.32 1056.84C1306.99 1058.16 1308.92 1059.05 1310.98 1059.46L1378.14 1073.04C1380.48 1073.53 1382.92 1073.37 1385.24 1072.57C1387.57 1071.76 1389.7 1070.34 1391.44 1068.44L1410.59 1048.32C1412.03 1046.85 1413.68 1045.66 1415.47 1044.79L1540.26 993.156L1549.98 1002.08C1550.75 1001.6 1554.29 998.989 1560.93 995.261C1562.12 994.52 1560.22 986.288 1561.41 985.546C1567.36 981.839 1578.49 976.79 1578.49 976.79L1586.16 981.426L1603.95 974.108L1613.84 980.391C1616.38 980.361 1618.91 979.606 1621.16 978.201L1644.25 963.817C1646.04 962.703 1648.01 962.004 1650.03 961.765C1652.05 961.526 1654.06 961.753 1655.95 962.43C1657.83 963.108 1659.54 964.221 1660.95 965.696C1662.37 967.17 1663.46 968.972 1664.16 970.982L1711.42 1107.56C1712.07 1109.44 1712.36 1111.47 1712.27 1113.52C1712.18 1115.57 1711.71 1117.6 1710.89 1119.5C1710.08 1121.39 1708.93 1123.11 1707.52 1124.56C1706.1 1126 1704.45 1127.14 1702.66 1127.91L1657.63 1147.05C1655.21 1148.11 1653.07 1149.85 1651.43 1152.08C1649.79 1154.31 1648.72 1156.95 1648.33 1159.71L1644.3 1186.79C1643.78 1190.54 1642.01 1194.03 1639.33 1196.59C1636.65 1199.16 1633.24 1200.61 1629.77 1200.67C1595.2 1201.17 1534.75 1188.4 1503.06 1165C1501.93 1164.11 1500.92 1163.06 1500.04 1161.89C1485.2 1140.63 1470.34 1119.34 1455.48 1098.04C1453.37 1094.99 1450.22 1093 1446.67 1092.47C1443.12 1091.94 1439.44 1092.92 1436.39 1095.2L1324.01 1178.32C1322.05 1179.75 1319.83 1180.65 1317.53 1180.96L1256.53 1189.25C1253.12 1189.72 1249.73 1188.85 1246.99 1186.79C1244.26 1184.74 1242.35 1181.63 1241.64 1178.06L1228.5 1112.56C1227.96 1110.21 1226.89 1108.07 1225.4 1106.31L1200.57 1073.8C1198.25 1070.8 1194.89 1068.97 1191.21 1068.69C1187.52 1068.42 1183.8 1069.73 1180.85 1072.34L1083.65 1159.09C1082.13 1160.49 1080.4 1161.57 1078.54 1162.28L936.765 1209.67C934.812 1210.4 932.991 1211.53 931.409 1213.01L913.018 1230.11C911.42 1231.56 910.105 1233.34 909.162 1235.34C908.219 1237.34 907.669 1239.51 907.549 1241.71L905.106 1333.28C905.053 1335.45 904.579 1337.6 903.714 1339.6C902.85 1341.61 901.616 1343.41 900.091 1344.9C898.566 1346.39 896.785 1347.54 894.865 1348.26C892.945 1348.97 890.929 1349.26 888.948 1349.08C836.613 1344.52 746.331 1368.67 703.846 1395.3C702.141 1396.38 700.639 1397.82 699.432 1399.52C698.225 1401.22 697.338 1403.15 696.826 1405.2C696.315 1407.24 696.189 1409.35 696.457 1411.4C696.724 1413.46 697.38 1415.4 698.383 1417.13L700.056 1420.51C701.147 1422.38 701.825 1424.52 702.041 1426.77C702.258 1429.01 702.007 1431.31 701.307 1433.5C700.607 1435.68 699.476 1437.69 697.996 1439.39C696.515 1441.09 694.722 1442.43 692.746 1443.32L625.746 1473.6C623.986 1474.39 622.369 1475.54 620.988 1476.99C619.608 1478.44 618.492 1480.16 617.706 1482.04C607.749 1506.59 615.201 1569.56 631.345 1588.16C632.789 1589.72 633.874 1591.63 634.519 1593.74C635.165 1595.86 635.356 1598.14 635.077 1600.4L625.026 1675.68C624.647 1678.48 624.992 1681.3 626.022 1683.82L636.272 1707.8C637.234 1710.24 637.574 1712.94 637.257 1715.64C636.94 1718.34 635.977 1720.94 634.464 1723.17L594.462 1782.48C592.908 1784.78 591.936 1787.46 591.651 1790.23C591.365 1793 591.777 1795.77 592.841 1798.23L620.661 1863.33C622.149 1866.77 622.345 1870.77 621.21 1874.51C620.074 1878.26 617.691 1881.48 614.542 1883.52L604.604 1889.71C602.579 1891.03 600.315 1891.82 598.005 1892C595.696 1892.18 593.41 1891.76 591.344 1890.76L544.075 1867.82C541.778 1866.71 539.21 1866.32 536.648 1866.69C534.086 1867.06 531.627 1868.17 529.539 1869.92L454.035 1933.33C451.95 1935.03 449.526 1936.15 446.996 1936.57C428.663 1939.81 347.457 1952.58 292.225 1966.68C289.624 1967.34 287.204 1968.76 285.235 1970.78C283.266 1972.8 281.826 1975.35 281.076 1978.13L266.468 2032.42C266.152 2033.68 265.674 2034.88 265.051 2036.01L236.725 2088.86C235.15 2091.83 232.734 2094.2 229.859 2095.59L193.552 2113.79C190.154 2115.5 186.35 2115.76 182.93 2114.51L145.467 2100.36Z" fill="#293135" stroke="#2D7D9A" stroke-opacity="0.38" stroke-miterlimit="10"/>
<path d="M337 145L341 159.727H333L337 145Z" fill="#2D7D9A"/>
<path d="M337.192 159.727V163M337 145L341 159.727H333L337 145Z" stroke="#2D7D9A" stroke-width="3"/>
<path d="M248 157L252 171.727H244L248 157Z" fill="#2D7D9A"/>
<path d="M248.192 171.727V175M248 157L252 171.727H244L248 157Z" stroke="#2D7D9A" stroke-width="3"/>
<path d="M284 214L288 228.727H280L284 214Z" fill="#2D7D9A"/>
<path d="M284.192 228.727V232M284 214L288 228.727H280L284 214Z" stroke="#2D7D9A" stroke-width="3"/>
<path d="M235 256L239 270.727H231L235 256Z" fill="#2D7D9A"/>
<path d="M235.192 270.727V274M235 256L239 270.727H231L235 256Z" stroke="#2D7D9A" stroke-width="3"/>
<path d="M169 311L173 325.727H165L169 311Z" fill="#2D7D9A"/>
<path d="M169.192 325.727V329M169 311L173 325.727H165L169 311Z" stroke="#2D7D9A" stroke-width="3"/>
<path d="M102 362L106 376.727H98L102 362Z" fill="#2D7D9A"/>
<path d="M102.192 376.727V380M102 362L106 376.727H98L102 362Z" stroke="#2D7D9A" stroke-width="3"/>
<path d="M21 442L25 456.727H17L21 442Z" fill="#2D7D9A"/>
<path d="M21.1925 456.727V460M21 442L25 456.727H17L21 442Z" stroke="#2D7D9A" stroke-width="3"/>
<path d="M85 420L89 434.727H81L85 420Z" fill="#2D7D9A"/>
<path d="M85.1925 434.727V438M85 420L89 434.727H81L85 420Z" stroke="#2D7D9A" stroke-width="3"/>
<path d="M175 393L179 407.727H171L175 393Z" fill="#2D7D9A"/>
<path d="M175.192 407.727V411M175 393L179 407.727H171L175 393Z" stroke="#2D7D9A" stroke-width="3"/>
<path d="M242 454L246 468.727H238L242 454Z" fill="#2D7D9A"/>
<path d="M242.192 468.727V472M242 454L246 468.727H238L242 454Z" stroke="#2D7D9A" stroke-width="3"/>
<path d="M310 432L314 446.727H306L310 432Z" fill="#2D7D9A"/>
<path d="M310.192 446.727V450M310 432L314 446.727H306L310 432Z" stroke="#2D7D9A" stroke-width="3"/>
<path d="M335 346L339 360.727H331L335 346Z" fill="#2D7D9A"/>
<path d="M335.192 360.727V364M335 346L339 360.727H331L335 346Z" stroke="#2D7D9A" stroke-width="3"/>
<path d="M272 311L276 325.727H268L272 311Z" fill="#2D7D9A"/>
<path d="M272.192 325.727V329M272 311L276 325.727H268L272 311Z" stroke="#2D7D9A" stroke-width="3"/>
<path d="M250 370L254 384.727H246L250 370Z" fill="#2D7D9A"/>
<path d="M250.192 384.727V388M250 370L254 384.727H246L250 370Z" stroke="#2D7D9A" stroke-width="3"/>
</g>
<defs>
<clipPath id="clip0">
<rect width="360" height="540" fill="white"/>
</clipPath>
</defs>
</svg>
