<svg width="360" height="540" viewBox="0 0 360 540" fill="none" xmlns="http://www.w3.org/2000/svg">
<g clip-path="url(#clip0)">
<path d="M581.871 -90.0455L576.019 -137.475C575.801 -139.15 576.087 -140.883 576.837 -142.426C577.586 -143.969 578.761 -145.245 580.194 -146.073L605.421 -234.609C605.031 -235.757 604.889 -236.995 605.006 -238.235C605.006 -238.235 617.206 -350.612 616.462 -352.099L590.013 -390.163L609.739 -453.945L682.983 -535.461L894.798 -676.946C895.067 -678.283 895.638 -679.546 896.459 -680.622L918.59 -710.231C919.426 -711.318 920.487 -712.185 921.683 -712.757L1126.07 -807.227C1126.69 -807.482 1127.28 -807.837 1127.8 -808.278L1168.43 -841.045C1169.08 -841.443 1179.16 -866.231 1203.21 -849.257C1245.1 -819.682 1310.78 -740.25 1308.28 -735.907L1266.06 -662.659C1265.57 -661.814 1265.22 -660.887 1265.02 -659.924L1257.87 -624.953C1257.66 -623.853 1257.66 -622.732 1257.87 -621.655C1258.08 -620.577 1258.49 -619.566 1259.08 -618.681C1259.67 -617.796 1260.42 -617.054 1261.3 -616.5C1262.17 -615.947 1263.15 -615.591 1264.18 -615.456L1281.3 -613.419C1282.79 -613.218 1284.33 -613.505 1285.71 -614.243C1287.09 -614.98 1288.25 -616.134 1289.04 -617.553L1334.41 -697.082C1334.83 -697.803 1335.34 -698.464 1335.92 -699.047L1386.92 -748.542C1388.19 -749.758 1389.78 -750.518 1391.45 -750.709C1393.12 -750.9 1394.77 -750.512 1396.17 -749.602C1397.56 -748.693 1398.62 -747.311 1399.18 -745.664C1399.74 -744.016 1399.78 -742.192 1399.28 -740.464L1323.19 -480.821C1322.71 -479.096 1322.75 -477.281 1323.29 -475.634L1326.79 -464.914C1327.25 -463.527 1327.33 -462.015 1327.04 -460.541C1326.75 -459.066 1326.09 -457.684 1325.14 -456.541C1324.19 -455.398 1322.97 -454.537 1321.63 -454.051C1320.29 -453.564 1318.86 -453.469 1317.51 -453.777L1260 -467.314C1258.08 -467.776 1256.43 -469.034 1255.42 -470.82C1254.41 -472.607 1254.11 -474.779 1254.6 -476.874L1278.12 -584.498C1278.41 -585.715 1278.44 -586.973 1278.2 -588.174C1277.96 -589.375 1277.46 -590.487 1276.74 -591.425C1276.02 -592.363 1275.1 -593.101 1274.06 -593.583C1273.01 -594.065 1271.86 -594.278 1270.7 -594.206L1261.61 -593.857C1259.9 -593.759 1258.24 -593.069 1256.88 -591.892C1255.51 -590.714 1254.53 -589.113 1254.06 -587.331L1241.04 -534.249L1240.87 -533.659L1218.25 -462.139C1217.9 -461.016 1217.33 -459.975 1216.58 -459.087C1215.83 -458.198 1214.91 -457.484 1213.9 -456.993L1094.33 -398.55C1093.13 -398.009 1092.09 -397.124 1091.33 -395.999L1073.62 -372.472C1072.59 -371.099 1071.97 -369.437 1071.85 -367.72C1071.73 -366.002 1072.11 -364.314 1072.94 -362.889C1073.77 -361.465 1075.02 -360.377 1076.49 -359.776C1077.97 -359.174 1079.61 -359.09 1081.18 -359.535L1168.46 -383.968L1169.57 -384.238L1226.77 -391.201C1227.9 -391.343 1229.04 -391.217 1230.1 -390.834C1231.15 -390.45 1232.11 -389.818 1232.89 -388.982C1233.67 -388.146 1234.26 -387.127 1234.62 -385.997C1234.98 -384.868 1235.1 -383.655 1234.96 -382.446L1232.33 -358.95C1232.17 -357.614 1231.71 -356.323 1231 -355.185C1230.28 -354.047 1229.33 -353.095 1228.22 -352.409L1189.27 -328.738C1188.48 -328.287 1187.65 -327.968 1186.78 -327.794L1184.32 -327.269C1183.45 -327.061 1182.6 -326.709 1181.81 -326.227L1160.61 -312.779C1158.89 -311.772 1157.56 -310.133 1156.88 -308.184C1156.19 -306.235 1156.21 -304.12 1156.92 -302.255C1157.62 -300.391 1158.98 -298.914 1160.7 -298.115C1162.43 -297.317 1164.41 -297.256 1166.25 -297.944L1246.49 -324.159C1247.05 -324.424 1247.59 -324.752 1248.1 -325.138L1302.79 -359.02C1312.17 -358.664 1321.59 -358.832 1331.01 -359.525C1340.06 -363.926 1348.75 -369.206 1356.96 -375.294C1358.61 -375.228 1360.27 -375.598 1361.79 -376.37C1346.8 -364.353 1333.18 -353.168 1318.19 -341.151L1317.66 -340.824L1265.67 -289.272C1265.16 -288.883 1264.62 -288.555 1264.05 -288.293L1216.33 -259.293C1215.39 -258.712 1214.55 -257.934 1213.89 -257.007C1213.22 -256.081 1212.74 -255.026 1212.46 -253.91C1212.19 -252.794 1212.13 -251.641 1212.29 -250.523C1212.46 -249.406 1212.84 -248.348 1213.41 -247.417L1263.27 -167.099C1263.69 -166.404 1264.23 -165.802 1264.86 -165.319L1302.93 -133.424C1303.72 -132.774 1332.56 -109.82 1330.32 -104.5C1324.37 -90.1344 1280.9 -84.4874 1280.9 -84.4874C1279.96 -82.9514 1278.58 -81.771 1276.98 -81.134L1214.37 -55.6104C1213.37 -55.2452 1212.44 -54.6787 1211.63 -53.9428L1140.26 32.5723C1120.76 65.7042 1099.12 97.4097 1075.49 127.442C1050.19 158.492 1020.43 180.461 1018.04 179.891L957.891 166.668C956.222 166.279 954.749 165.301 953.704 163.889C952.658 162.476 952.1 160.709 952.117 158.865L952.516 127.029C952.536 125.803 952.3 124.601 951.825 123.51C951.349 122.42 950.647 121.468 949.768 120.725C948.889 119.982 947.856 119.466 946.745 119.215C945.633 118.963 944.47 118.983 943.341 119.272L777.866 163.268C776.034 163.78 774.123 163.56 772.5 162.65C772.5 162.65 572.32 165.922 570.38 162.98C570.38 162.98 523.308 122.419 525.764 75.1115C528.892 6.30604 582.408 -78.2514 581.871 -90.0455Z" fill="#293135" stroke="#2D7D9A" stroke-miterlimit="10"/>
<path d="M124.907 169.49L83.8962 291.165C83.0411 293.648 82.8052 296.298 83.2132 298.837C83.6212 301.377 84.658 303.713 86.2155 305.601L137.902 368.915C139.564 370.774 140.718 373.105 141.248 375.67L156.513 480.109C156.981 483.127 156.539 486.281 155.253 489.115C153.967 491.948 151.902 494.313 149.359 495.866L74.719 542.398C71.8907 544.091 69.6494 546.78 68.3898 549.991C67.1302 553.202 66.9331 556.73 67.833 559.953L80.3621 606.173C81.2003 609.423 80.9668 612.949 79.7009 616.163L57.9103 671.416C56.5921 674.708 56.3953 678.341 57.3563 681.641C58.3172 684.941 60.3709 687.684 63.1362 689.362L131.927 705.419C138.47 718.261 144.316 731.535 149.436 745.178C155.248 760.463 160.188 776.164 164.23 792.196L128.808 877.968C128.136 881.689 128.806 885.468 130.677 888.513C132.548 891.558 135.476 893.634 138.846 894.305L196.736 906.598C198.457 906.946 200.243 906.918 201.992 906.514L282.06 889.344C284.443 888.795 286.884 888.946 289.125 889.78C291.366 890.615 293.323 892.102 294.792 894.086C296.261 896.069 297.186 898.476 297.471 901.052C297.755 903.628 297.388 906.278 296.409 908.724L265.437 988.694L254.671 1019.96C253.677 1023.3 253.791 1026.84 254.993 1029.96C256.196 1033.08 258.408 1035.58 261.235 1036.99L286.124 1050.13C288.027 1051.13 290.151 1051.61 292.315 1051.51C294.479 1051.42 296.619 1050.76 298.553 1049.59L325.497 1033.53C326.799 1032.73 328.201 1032.16 329.647 1031.84L530.182 989.26C532.95 988.66 535.774 989.004 538.26 990.243C540.745 991.483 542.767 993.555 544.044 996.172L552.996 1014.25C554.397 1017.22 556.745 1019.5 559.629 1020.7C562.514 1021.89 565.751 1021.92 568.775 1020.79L615.408 1003.58C616.453 1003.14 617.436 1002.53 618.325 1001.77L743.421 916.494C745.536 915.09 747.932 914.313 750.353 914.245C752.774 914.176 755.131 914.82 757.173 916.107L887.389 991.863C890.324 993.599 893.823 994.014 897.17 993.023C900.518 992.032 903.459 989.71 905.393 986.533L933.959 940.399C935.527 937.934 937.685 935.964 940.182 934.719L986.561 912.6C989.662 911.074 993.112 910.826 996.239 911.904C999.366 912.983 1001.94 915.31 1003.47 918.431L1068.52 1049.79C1069.55 1051.9 1071.06 1053.66 1072.92 1054.92C1074.79 1056.17 1076.94 1056.89 1079.18 1056.99L1149.76 1060.14C1152.66 1060.26 1155.58 1059.38 1158.1 1057.64L1271.72 976.085C1273.96 974.487 1275.77 972.235 1276.9 969.607C1278.04 966.978 1278.46 964.089 1278.1 961.297L1269.77 892.242C1269.64 891.306 1269.45 890.387 1269.18 889.494L1212.79 710.82C1211.68 707.363 1211.86 703.501 1213.29 700.03L1234.54 648.554C1235.71 645.749 1236.06 642.668 1235.55 639.738L1225.92 580.82C1225.63 578.995 1225.01 577.267 1224.1 575.732L1207 546.855C1206.61 546.185 1206.17 545.556 1205.68 544.977L1161.98 493.223C1161.26 492.412 1160.65 491.499 1160.16 490.505L1128.22 426.014C1127.23 424.028 1126.7 421.788 1126.68 419.479C1126.67 417.17 1127.16 414.859 1128.12 412.738L1155.46 351.563C1155.77 350.9 1156.03 350.218 1156.25 349.521L1164.62 320.969C1165.2 319.061 1165.42 317.066 1165.26 315.106C1165.11 313.147 1164.59 311.264 1163.73 309.573L1153.6 289.119C1152.7 287.379 1152.16 285.432 1152.02 283.406C1151.87 281.381 1152.12 279.321 1152.76 277.361L1158.07 261.033C1158.7 259.085 1158.96 257.038 1158.82 255.024C1158.68 253.009 1158.15 251.072 1157.27 249.338L1127.99 190.226C1127.22 188.69 1126.18 187.34 1124.93 186.241L1067.84 135.462C1065.55 133.454 1064 130.625 1063.44 127.437C1062.88 124.249 1063.34 120.889 1064.75 117.903L1071.27 103.853C1072.57 101.188 1073.11 98.2026 1072.82 95.2928C1072.54 92.383 1071.43 89.686 1069.66 87.5589C1067.89 85.4318 1065.53 83.9751 1062.9 83.3819C1060.28 82.7888 1057.5 83.0872 1054.94 84.2374L1053.87 84.9054C1051.84 85.7571 1050 87.1108 1048.51 88.854C1047.01 90.5972 1045.9 92.6795 1045.27 94.9275L1030.55 146.352C1029.99 148.36 1029.04 150.239 1027.78 151.864C1026.52 153.488 1024.97 154.822 1023.23 155.775C1021.49 156.727 1019.6 157.278 1017.69 157.389C1015.79 157.501 1013.9 157.17 1012.16 156.42L954.209 131.888C951.498 130.761 949.257 128.671 947.835 125.944C946.414 123.216 945.893 120.005 946.353 116.811C946.717 114.488 946.564 112.135 945.906 109.951C945.247 107.768 944.104 105.818 942.571 104.267C941.039 102.716 939.163 101.61 937.103 101.042C935.042 100.474 932.858 100.461 930.736 101.005L833.368 126.34C831.283 126.918 829.128 126.94 827.091 126.406L693.107 91.8031C690.86 91.2132 688.477 91.281 686.196 91.9998C683.914 92.7185 681.812 94.0631 680.101 95.8997L630.486 148.607C628.24 151.036 625.332 152.596 622.252 153.025C619.172 153.454 616.109 152.724 613.579 150.96L528.176 92.8655C526.54 91.7777 525.166 90.299 524.15 88.5344C523.134 86.7697 522.501 84.7625 522.298 82.6549C522.094 80.5473 522.324 78.391 522.971 76.3392C523.618 74.2874 524.667 72.3904 526.043 70.7826L583.471 2.23521C584.908 0.542663 585.983 -1.46555 586.612 -3.63272C587.241 -5.7999 587.407 -8.06755 587.098 -10.2593L582.577 -43.2975C582.056 -46.8489 580.355 -50.0045 577.788 -52.1821L546.088 -78.7554C544.078 -80.4514 541.62 -81.4441 539.018 -81.6112C536.416 -81.7783 533.784 -81.1124 531.445 -79.6958L381.339 10.4442C379.552 11.5346 377.584 12.1902 375.58 12.3628C373.577 12.5354 371.587 12.2207 369.759 11.4417L341.765 -0.413625C339.905 -1.22095 337.877 -1.54638 335.834 -1.36504C333.79 -1.1837 331.786 -0.500309 329.975 0.632805L257.299 45.9403C254.583 47.6499 252.423 50.2643 251.162 53.3679L209.677 157.411C208.445 160.504 206.3 163.108 203.596 164.794C200.891 166.48 197.787 167.148 194.796 166.688L139.891 159.165C136.768 158.754 133.548 159.565 130.805 161.455C128.062 163.345 125.972 166.191 124.907 169.49V169.49Z" fill="#293135" stroke="#2D7D9A" stroke-opacity="0.38" stroke-miterlimit="10"/>
<path d="M126.398 169.912C111.913 165.51 101.257 -79.1761 125.952 -143.599C127.039 -146.388 127.328 -149.425 126.78 -152.301C120.207 -195.114 128.615 -358.106 123.191 -390.584C118.911 -416.406 114.467 -441.826 109.858 -466.844C109.214 -470.515 109.839 -474.389 111.617 -477.741C113.396 -481.094 116.205 -483.696 119.522 -485.062L202.129 -518.108C204.149 -518.924 206 -520.208 207.549 -521.867C209.098 -523.526 210.305 -525.518 211.083 -527.698L235.338 -595.366C235.98 -597.079 236.868 -598.684 237.969 -600.116L284.636 -659.644C286.484 -662.012 287.678 -664.879 288.069 -667.888C288.461 -670.898 288.034 -673.917 286.84 -676.572C276.987 -698.185 272.812 -708.027 248.638 -756.658C247.961 -758.009 247.473 -759.47 247.19 -760.995C237.256 -830.837 233.992 -901.988 237.45 -973.342C237.6 -976.065 237.083 -978.742 235.953 -981.102C234.822 -983.462 233.118 -985.421 231.012 -986.779C228.907 -988.138 226.477 -988.847 223.968 -988.835C221.459 -988.823 218.962 -988.091 216.73 -986.712L212.683 -984.191C210.924 -983.084 208.987 -982.383 207.002 -982.135C205.018 -981.886 203.03 -982.095 201.171 -982.749L92.0118 -1020.27C91.1638 -1020.56 90.285 -1020.75 89.3898 -1020.84C69.3765 -1023.36 -168.393 -1052.46 -239.916 -1076.26C-241.97 -1076.94 -243.826 -1078.13 -245.34 -1079.74C-246.855 -1081.35 -247.987 -1083.34 -248.649 -1085.55L-254.254 -1104.41C-255.156 -1107.48 -256.952 -1110.1 -259.383 -1111.89C-261.814 -1113.69 -264.753 -1114.57 -267.774 -1114.4L-312.458 -1111.7C-315.11 -1111.52 -317.714 -1112.15 -319.968 -1113.53C-322.222 -1114.91 -324.033 -1116.97 -325.193 -1119.48C-346.069 -1164.6 -362.73 -1273.83 -349.929 -1334.28C-349.456 -1336.48 -348.558 -1338.57 -347.297 -1340.42C-346.035 -1342.26 -344.438 -1343.82 -342.613 -1344.97L-306.909 -1367.22C-305.251 -1368.25 -303.779 -1369.61 -302.577 -1371.23C-301.376 -1372.85 -300.467 -1374.7 -299.905 -1376.66L-271.733 -1474.93C-270.985 -1477.58 -270.888 -1480.36 -271.45 -1482.98C-272.013 -1485.61 -273.215 -1487.99 -274.936 -1489.88L-291.487 -1507.56C-293.001 -1509.22 -294.117 -1511.27 -294.745 -1513.53C-295.373 -1515.79 -295.496 -1518.21 -295.104 -1520.6C-294.711 -1522.98 -293.814 -1525.26 -292.485 -1527.26C-291.156 -1529.26 -289.431 -1530.92 -287.447 -1532.1C-243.871 -1558.11 -170.315 -1580.03 -126.539 -1581.27C-123.119 -1581.37 -119.848 -1580.12 -117.333 -1577.76C-114.817 -1575.4 -113.227 -1572.08 -112.856 -1568.42C-111.805 -1558.6 -110.872 -1548.7 -109.761 -1538.92C-109.476 -1536.24 -108.537 -1533.73 -107.04 -1531.64C-105.543 -1529.55 -103.541 -1527.96 -101.237 -1527.03C-98.9325 -1526.09 -96.4077 -1525.85 -93.9185 -1526.33C-91.4292 -1526.8 -89.064 -1527.97 -87.0623 -1529.73L-71.7096 -1543.22C-69.0191 -1545.75 -65.626 -1547.17 -62.1623 -1547.24C-58.6986 -1547.3 -55.4003 -1546 -52.8816 -1543.57C-51.2097 -1541.96 -49.1768 -1540.83 -46.9592 -1540.29C-44.7415 -1539.75 -42.4061 -1539.82 -40.1554 -1540.48C-37.9047 -1541.14 -35.8067 -1542.38 -34.0433 -1544.08C-32.2799 -1545.79 -30.9043 -1547.91 -30.0358 -1550.27L26.8025 -1702.75C27.0965 -1703.6 27.477 -1704.41 27.9368 -1705.18L104.456 -1841.51C105.704 -1843.87 106.386 -1846.5 106.435 -1849.16C106.484 -1851.81 105.898 -1854.4 104.735 -1856.66L67.8507 -1931.1C67.2699 -1932.32 66.5133 -1933.43 65.6079 -1934.37C37.191 -1963.91 73.9483 -2101.74 93.4037 -2145.47C94.9577 -2148.95 97.6186 -2151.76 100.873 -2153.35C104.127 -2154.94 107.743 -2155.19 111.024 -2154.07L152.09 -2140.03C154.407 -2139.21 156.918 -2139.09 159.364 -2139.68C161.81 -2140.27 164.102 -2141.55 166.006 -2143.38C188.361 -2164.43 264.503 -2235.2 295.842 -2250.22C298.761 -2251.58 301.958 -2251.9 304.948 -2251.11C307.937 -2250.33 310.554 -2248.49 312.399 -2245.88C329.045 -2222.03 345.74 -2198.19 362.485 -2174.35C364.139 -2171.98 366.436 -2170.25 369.08 -2169.37C398.184 -2159.67 574.693 -2100.17 613.583 -2065.38C615.59 -2063.58 618.051 -2062.46 620.688 -2062.14C623.326 -2061.81 626.035 -2062.3 628.51 -2063.54C664.948 -2080.3 702.617 -2093.23 740.978 -2102.18C743.471 -2102.64 745.842 -2103.81 747.847 -2105.56C749.852 -2107.31 751.42 -2109.59 752.39 -2112.15L760.014 -2132.13C760.859 -2134.38 762.168 -2136.41 763.835 -2138.07C765.503 -2139.73 767.483 -2140.96 769.619 -2141.67C771.755 -2142.38 773.987 -2142.55 776.138 -2142.16C778.288 -2141.78 780.299 -2140.85 782.009 -2139.45C806.007 -2119.93 838.615 -2083.51 852.379 -2055.58C853.237 -2053.85 854.413 -2052.33 855.839 -2051.13C857.265 -2049.92 858.912 -2049.05 860.687 -2048.56L943.589 -2025.05C946.866 -2024.11 949.652 -2021.89 951.434 -2018.81L987.129 -1957.3L1033.93 -1862.84C1034.9 -1860.96 1035.47 -1858.86 1035.59 -1856.67L1037.43 -1820.73C1037.58 -1817.77 1038.51 -1814.97 1040.13 -1812.67C1041.74 -1810.36 1043.96 -1808.64 1046.52 -1807.73L1089.47 -1792.57C1091.7 -1791.78 1093.69 -1790.37 1095.23 -1788.48C1096.78 -1786.6 1097.83 -1784.29 1098.3 -1781.77C1098.77 -1779.26 1098.63 -1776.62 1097.91 -1774.11C1097.18 -1771.6 1095.89 -1769.29 1094.15 -1767.41C1081.53 -1753.57 1060.66 -1739.42 1046.54 -1737.75C1043.84 -1737.44 1041.24 -1736.32 1039.04 -1734.49C1036.84 -1732.67 1035.13 -1730.23 1034.11 -1727.47L1010.22 -1663.46C1009.4 -1661.24 1008.14 -1659.23 1006.53 -1657.56C974.964 -1625.86 894.876 -1618.53 857.526 -1593.96C855.68 -1592.71 854.092 -1591.05 852.88 -1589.09C851.668 -1587.13 850.861 -1584.92 850.52 -1582.63L833.923 -1469.96C833.514 -1467.13 833.833 -1464.26 834.845 -1461.7C835.857 -1459.13 837.523 -1456.96 839.656 -1455.42C841.79 -1453.88 844.308 -1453.04 846.932 -1452.99C849.555 -1452.93 852.18 -1453.67 854.516 -1455.12L959.247 -1520.37C961.193 -1521.62 962.868 -1523.32 964.141 -1525.35C965.413 -1527.38 966.248 -1529.68 966.579 -1532.06C966.909 -1534.44 966.727 -1536.84 966.046 -1539.08C965.365 -1541.31 964.205 -1543.31 962.656 -1544.92L941.259 -1567.2C939.748 -1568.79 938.61 -1570.75 937.932 -1572.93C937.254 -1575.11 937.053 -1577.46 937.344 -1579.8C937.636 -1582.13 938.412 -1584.4 939.614 -1586.41C940.816 -1588.43 942.413 -1590.15 944.282 -1591.44L961.195 -1603.04C963.368 -1604.75 965.902 -1605.8 968.517 -1606.07C971.133 -1606.34 973.726 -1605.82 976.01 -1604.57L1037.31 -1565.57C1038.88 -1564.58 1040.62 -1563.94 1042.45 -1563.69L1105.36 -1555.07C1107.78 -1554.73 1110.05 -1553.7 1111.94 -1552.1C1113.83 -1550.49 1115.27 -1548.36 1116.13 -1545.91C1128.76 -1509.89 1107.83 -1421.21 1086.01 -1398.29C1084.39 -1396.53 1083.14 -1394.41 1082.36 -1392.1C1081.59 -1389.79 1081.32 -1387.34 1081.56 -1384.95L1095.24 -1241.04C1095.38 -1239.24 1095.24 -1237.4 1094.81 -1235.62L1089.4 -1212.43C1088.88 -1210.22 1087.92 -1208.14 1086.6 -1206.32C1085.27 -1204.51 1083.61 -1203.01 1081.73 -1201.93C1079.85 -1200.85 1077.8 -1200.22 1075.72 -1200.09C1073.64 -1199.95 1071.58 -1200.31 1069.69 -1201.14L1043.95 -1212.36C1041.92 -1213.24 1040.13 -1214.64 1038.74 -1216.45C1037.35 -1218.25 1036.38 -1220.41 1035.92 -1222.75C1031.68 -1244.67 1022.55 -1292.19 1018.57 -1312.63C1018.01 -1315.53 1016.68 -1318.13 1014.74 -1320.14C1012.79 -1322.14 1010.31 -1323.45 1007.61 -1323.9L985.146 -1327.75C982.36 -1328.23 979.46 -1327.79 976.815 -1326.49L967.038 -1321.54C965.212 -1320.62 963.563 -1319.31 962.195 -1317.69C960.827 -1316.06 959.77 -1314.17 959.092 -1312.12C958.414 -1310.07 958.13 -1307.92 958.257 -1305.8C958.385 -1303.67 958.921 -1301.62 959.832 -1299.78L963.737 -1291.9C965.423 -1288.51 965.81 -1284.48 964.818 -1280.63C963.827 -1276.79 961.533 -1273.42 958.407 -1271.22L883.992 -1219.13C883.085 -1218.51 882.248 -1217.77 881.502 -1216.92C862.261 -1198.67 842.145 -1181.54 821.252 -1165.63C818.658 -1163.66 816.685 -1160.86 815.633 -1157.65C814.582 -1154.44 814.511 -1151.01 815.431 -1147.87C816.35 -1144.73 818.21 -1142.06 820.726 -1140.27C823.242 -1138.48 826.276 -1137.66 829.366 -1137.94L997.021 -1150.54L1168.58 -1159.19C1171.15 -1159.32 1173.67 -1158.69 1175.86 -1157.38C1178.06 -1156.07 1179.86 -1154.12 1181.07 -1151.74L1219.04 -1075.11C1219.55 -1074.08 1220.18 -1073.12 1220.92 -1072.27L1332.33 -940.459C1333.71 -938.783 1334.7 -936.774 1335.24 -934.579L1335.66 -932.955C1336.4 -930.185 1336.37 -927.201 1335.59 -924.355C1334.81 -921.508 1333.31 -918.919 1331.26 -916.893C1329.21 -914.866 1326.7 -913.488 1324.02 -912.919C1321.35 -912.351 1318.62 -912.616 1316.16 -913.684C1303.91 -918.908 1291.7 -924.232 1279.51 -929.493C1278.55 -929.917 1277.64 -930.445 1276.78 -931.068C1261.01 -943.099 1245.27 -955.067 1229.55 -967.135C1227.43 -968.753 1224.9 -969.667 1222.25 -969.772C1219.59 -969.878 1216.92 -969.17 1214.55 -967.731C1212.17 -966.291 1210.17 -964.177 1208.79 -961.63C1207.41 -959.082 1206.69 -956.204 1206.73 -953.323L1206.87 -945.962C1206.87 -943.712 1207.34 -941.52 1208.24 -939.544C1209.14 -937.568 1210.44 -935.859 1212.06 -934.542L1286.25 -873.605C1287.92 -872.286 1289.85 -871.394 1291.91 -870.99L1359.07 -857.409C1361.41 -856.914 1363.85 -857.077 1366.17 -857.881C1368.5 -858.686 1370.63 -860.106 1372.37 -862.009L1391.53 -882.13C1392.96 -883.595 1394.61 -884.789 1396.4 -885.656L1521.19 -937.29L1530.91 -928.364C1531.68 -928.846 1535.22 -931.457 1541.86 -935.186C1543.05 -935.927 1541.15 -944.159 1542.34 -944.9C1548.29 -948.608 1559.42 -953.657 1559.42 -953.657L1567.09 -949.021L1584.88 -956.339L1594.77 -950.056C1597.31 -950.086 1599.84 -950.841 1602.09 -952.246L1625.18 -966.63C1626.97 -967.744 1628.94 -968.443 1630.96 -968.682C1632.98 -968.921 1634.99 -968.694 1636.88 -968.016C1638.76 -967.339 1640.47 -966.225 1641.88 -964.751C1643.3 -963.277 1644.39 -961.475 1645.09 -959.465L1692.35 -822.892C1693 -821.007 1693.29 -818.98 1693.2 -816.929C1693.11 -814.879 1692.64 -812.846 1691.82 -810.951C1691.01 -809.055 1689.86 -807.334 1688.45 -805.889C1687.03 -804.444 1685.38 -803.304 1683.59 -802.535L1638.56 -783.402C1636.14 -782.339 1634 -780.598 1632.36 -778.367C1630.73 -776.136 1629.65 -773.497 1629.26 -770.732L1625.23 -743.662C1624.71 -739.906 1622.94 -736.414 1620.26 -733.852C1617.58 -731.29 1614.18 -729.839 1610.7 -729.776C1576.13 -729.28 1515.68 -742.048 1483.99 -765.449C1482.86 -766.337 1481.85 -767.382 1480.97 -768.561C1466.13 -789.821 1451.28 -811.103 1436.41 -832.405C1434.3 -835.454 1431.15 -837.447 1427.6 -837.975C1424.05 -838.504 1420.37 -837.529 1417.32 -835.249L1304.94 -752.131C1302.98 -750.701 1300.76 -749.793 1298.46 -749.487L1237.46 -741.201C1234.05 -740.726 1230.66 -741.597 1227.92 -743.654C1225.19 -745.711 1223.29 -748.814 1222.57 -752.391L1209.43 -817.884C1208.89 -820.235 1207.83 -822.38 1206.33 -824.14L1181.5 -856.644C1179.19 -859.646 1175.82 -861.479 1172.14 -861.753C1168.45 -862.026 1164.73 -860.718 1161.78 -858.108L1064.58 -771.358C1063.06 -769.961 1061.33 -768.878 1059.47 -768.17L917.696 -720.777C915.742 -720.052 913.921 -718.917 912.34 -717.44L893.949 -700.334C892.35 -698.888 891.036 -697.106 890.093 -695.107C889.15 -693.108 888.6 -690.938 888.479 -688.74L886.037 -597.167C885.984 -595 885.509 -592.845 884.645 -590.842C883.781 -588.84 882.546 -587.034 881.021 -585.543C879.497 -584.052 877.716 -582.91 875.796 -582.191C873.876 -581.472 871.86 -581.192 869.879 -581.369C817.544 -585.931 727.262 -561.775 684.776 -535.142C683.071 -534.063 681.569 -532.629 680.362 -530.928C679.155 -529.227 678.269 -527.295 677.757 -525.252C677.246 -523.208 677.12 -521.095 677.387 -519.043C677.655 -516.991 678.31 -515.043 679.313 -513.319L680.987 -509.941C682.078 -508.064 682.756 -505.925 682.972 -503.679C683.188 -501.432 682.937 -499.134 682.238 -496.95C681.538 -494.767 680.407 -492.753 678.926 -491.055C677.446 -489.356 675.653 -488.016 673.677 -487.131L606.677 -456.85C604.916 -456.058 603.299 -454.904 601.919 -453.454C600.539 -452.004 599.423 -450.287 598.636 -448.402C588.679 -423.861 596.132 -360.884 612.276 -342.289C613.72 -340.73 614.804 -338.821 615.45 -336.702C616.096 -334.582 616.287 -332.307 616.008 -330.042L605.957 -254.768C605.578 -251.966 605.922 -249.147 606.953 -246.629L617.202 -222.643C618.165 -220.208 618.505 -217.506 618.188 -214.808C617.87 -212.11 616.907 -209.511 615.395 -207.272L575.393 -147.967C573.839 -145.669 572.867 -142.991 572.582 -140.218C572.296 -137.445 572.707 -134.681 573.771 -132.221L601.592 -67.1156C603.08 -63.6755 603.276 -59.6791 602.14 -55.9329C601.005 -52.1867 598.622 -48.9695 595.473 -46.9305L585.535 -40.7392C583.51 -39.4177 581.245 -38.6312 578.936 -38.447C576.626 -38.2629 574.341 -38.6868 572.275 -39.6822L525.005 -62.6262C522.709 -63.7382 520.14 -64.1305 517.578 -63.7608C515.016 -63.391 512.558 -62.2732 510.469 -60.5285L434.966 2.88427C432.88 4.58345 430.457 5.69869 427.927 6.1237C409.593 9.35906 328.388 22.1294 273.155 36.2376C270.555 36.8925 268.134 38.3105 266.165 40.3325C264.196 42.3546 262.756 44.9007 262.007 47.686L247.399 101.976C247.082 103.229 246.605 104.435 245.982 105.561L217.655 158.411C216.081 161.38 213.665 163.75 210.79 165.144L174.483 183.343C171.085 185.051 167.281 185.31 163.861 184.066L126.398 169.912Z" fill="#293135" stroke="#2D7D9A" stroke-opacity="0.38" stroke-miterlimit="10"/>
<path d="M319.697 193.632H315.028V188.506H309.407V193.632H304.738V199.796H309.407V204.922H315.028V199.796H319.697V193.632Z" fill="#2D7D9A"/>
<path d="M269.775 330.946H265.106V325.82H259.485V330.946H254.816V337.11H259.485V342.236H265.106V337.11H269.775V330.946Z" fill="#2D7D9A"/>
<path d="M292.978 279.261H288.309V274.135H282.688V279.261H278.019V285.425H282.688V290.551H288.309V285.425H292.978V279.261Z" fill="#2D7D9A"/>
<path d="M309.853 381.605H305.184V376.479H299.563V381.605H294.894V387.768H299.563V392.895H305.184V387.768H309.853V381.605Z" fill="#2D7D9A"/>
<path d="M335.437 489.731H330.769V484.604H325.147V489.731H320.479V495.894H325.147V501.02H330.769V495.894H335.437V489.731Z" fill="#2D7D9A"/>
<path d="M244.947 212.175H240.278V207.049H234.657V212.175H229.988V218.339H234.657V223.465H240.278V218.339H244.947V212.175Z" fill="#2D7D9A"/>
<path d="M237.947 70.175H233.278V65.0488H227.657V70.175H222.988V76.3387H227.657V81.4648H233.278V76.3387H237.947V70.175Z" fill="#2D7D9A"/>
<path d="M195.947 390.732H191.278V385.605H185.657V390.732H180.988V396.895H185.657V402.021H191.278V396.895H195.947V390.732Z" fill="#2D7D9A"/>
<path d="M261.406 421.459H256.738V416.333H251.116V421.459H246.447V427.623H251.116V432.749H256.738V427.623H261.406V421.459Z" fill="#2D7D9A"/>
<path d="M169.228 508.244H164.559V503.118H158.938V508.244H154.269V514.408H158.938V519.534H164.559V514.408H169.228V508.244Z" fill="#2D7D9A"/>
</g>
<defs>
<clipPath id="clip0">
<rect width="360" height="540" fill="white"/>
</clipPath>
</defs>
</svg>
