<svg width="360" height="540" viewBox="0 0 360 540" fill="none" xmlns="http://www.w3.org/2000/svg">
<g clip-path="url(#clip0)">
<path d="M147.226 2627.63C132.74 2623.23 122.085 2378.54 146.78 2314.12C147.867 2311.33 148.156 2308.29 147.608 2305.42C141.035 2262.6 149.443 2099.61 144.019 2067.13C139.739 2041.31 135.294 2015.89 130.686 1990.87C130.042 1987.2 130.667 1983.33 132.445 1979.98C134.223 1976.62 137.033 1974.02 140.35 1972.66L222.956 1939.61C224.976 1938.79 226.828 1937.51 228.377 1935.85C229.925 1934.19 231.133 1932.2 231.911 1930.02L256.166 1862.35C256.808 1860.64 257.696 1859.04 258.797 1857.6L305.464 1798.07C307.311 1795.71 308.505 1792.84 308.897 1789.83C309.289 1786.82 308.862 1783.8 307.668 1781.15C297.815 1759.53 293.639 1749.69 269.466 1701.06C268.789 1699.71 268.301 1698.25 268.017 1696.72C258.084 1626.88 254.82 1555.73 258.277 1484.38C258.428 1481.65 257.911 1478.98 256.78 1476.62C255.65 1474.26 253.945 1472.3 251.84 1470.94C249.735 1469.58 247.305 1468.87 244.796 1468.88C242.287 1468.9 239.79 1469.63 237.557 1471.01L233.511 1473.53C231.751 1474.63 229.815 1475.34 227.83 1475.58C225.845 1475.83 223.857 1475.62 221.999 1474.97L112.839 1437.45C111.991 1437.16 111.113 1436.97 110.217 1436.88C90.2042 1434.36 -147.566 1405.26 -219.088 1381.46C-221.142 1380.78 -222.998 1379.59 -224.513 1377.98C-226.027 1376.37 -227.159 1374.38 -227.821 1372.17L-233.427 1353.31C-234.328 1350.24 -236.124 1347.62 -238.555 1345.82C-240.986 1344.03 -243.925 1343.15 -246.946 1343.31L-291.63 1346.02C-294.282 1346.2 -296.886 1345.57 -299.14 1344.19C-301.394 1342.81 -303.206 1340.75 -304.365 1338.24C-325.241 1293.12 -341.902 1183.89 -329.101 1123.44C-328.628 1121.24 -327.731 1119.14 -326.469 1117.3C-325.207 1115.45 -323.61 1113.9 -321.785 1112.75L-286.081 1090.5C-284.423 1089.47 -282.952 1088.11 -281.75 1086.49C-280.548 1084.87 -279.64 1083.02 -279.077 1081.06L-250.905 982.792C-250.158 980.142 -250.06 977.363 -250.623 974.738C-251.185 972.112 -252.388 969.733 -254.108 967.841L-270.659 950.155C-272.174 948.494 -273.29 946.451 -273.918 944.188C-274.546 941.926 -274.668 939.506 -274.276 937.123C-273.883 934.739 -272.987 932.457 -271.657 930.46C-270.328 928.462 -268.603 926.803 -266.619 925.616C-223.043 899.614 -149.487 877.692 -105.712 876.452C-102.291 876.351 -99.0207 877.596 -96.5051 879.957C-93.9895 882.318 -92.3992 885.635 -92.0285 889.294C-90.9769 899.118 -90.0444 909.015 -88.9333 918.802C-88.6482 921.481 -87.7095 923.991 -86.2126 926.079C-84.7156 928.167 -82.7136 929.758 -80.4092 930.691C-78.1048 931.624 -75.5801 931.866 -73.0908 931.392C-70.6016 930.918 -68.2363 929.745 -66.2346 927.992L-50.882 914.497C-48.1914 911.973 -44.7983 910.546 -41.3346 910.481C-37.8709 910.416 -34.5727 911.719 -32.054 914.147C-30.382 915.761 -28.3492 916.886 -26.1315 917.425C-23.9139 917.965 -21.5784 917.901 -19.3277 917.241C-17.0771 916.581 -14.9791 915.344 -13.2157 913.637C-11.4523 911.93 -10.0766 909.804 -9.20815 907.445L47.6301 754.967C47.9241 754.119 48.3047 753.305 48.7645 752.541L125.284 616.209C126.532 613.851 127.214 611.217 127.262 608.562C127.311 605.907 126.726 603.32 125.563 601.054L88.6784 526.614C88.0975 525.396 87.3409 524.293 86.4355 523.345C58.0186 493.813 94.7759 355.975 114.231 312.254C115.785 308.767 118.446 305.959 121.7 304.37C124.954 302.781 128.571 302.525 131.852 303.65L172.917 317.688C175.235 318.506 177.746 318.627 180.192 318.039C182.637 317.45 184.93 316.173 186.833 314.34C209.189 293.289 285.331 222.521 316.67 207.498C319.588 206.136 322.786 205.823 325.775 206.606C328.765 207.389 331.382 209.226 333.227 211.837C349.872 235.686 366.568 259.532 383.313 283.373C384.967 285.737 387.263 287.471 389.907 288.352C419.012 298.053 595.521 357.546 634.411 392.342C636.418 394.135 638.879 395.257 641.516 395.582C644.153 395.906 646.862 395.419 649.338 394.176C685.776 377.424 723.444 364.484 761.806 355.543C764.299 355.079 766.67 353.911 768.675 352.158C770.68 350.405 772.248 348.131 773.218 345.568L780.841 325.591C781.687 323.34 782.996 321.305 784.663 319.649C786.33 317.992 788.311 316.76 790.447 316.049C792.582 315.339 794.814 315.17 796.965 315.556C799.116 315.942 801.127 316.872 802.837 318.273C826.835 337.787 859.442 374.205 873.207 402.141C874.065 403.874 875.241 405.386 876.667 406.591C878.093 407.797 879.74 408.671 881.514 409.163L964.417 432.666C967.693 433.613 970.479 435.831 972.262 438.912L1007.96 500.421L1054.76 594.878C1055.73 596.755 1056.29 598.862 1056.42 601.051L1058.26 636.988C1058.4 639.945 1059.34 642.745 1060.95 645.052C1062.57 647.359 1064.79 649.074 1067.35 649.99L1110.29 665.149C1112.53 665.94 1114.51 667.346 1116.06 669.234C1117.61 671.123 1118.66 673.432 1119.13 675.946C1119.6 678.46 1119.46 681.097 1118.73 683.609C1118.01 686.122 1116.71 688.428 1114.97 690.313C1102.36 704.148 1081.49 718.296 1067.37 719.971C1064.67 720.274 1062.07 721.403 1059.87 723.224C1057.66 725.046 1055.96 727.484 1054.94 730.252L1031.05 794.255C1030.23 796.474 1028.96 798.492 1027.36 800.159C995.791 831.858 915.704 839.184 878.354 863.763C876.507 865.01 874.92 866.674 873.708 868.633C872.495 870.592 871.689 872.797 871.348 875.086L854.751 987.758C854.342 990.594 854.661 993.454 855.673 996.021C856.685 998.588 858.35 1000.76 860.484 1002.3C862.618 1003.84 865.136 1004.68 867.759 1004.73C870.382 1004.78 873.008 1004.05 875.343 1002.6L980.075 937.349C982.021 936.103 983.696 934.397 984.968 932.369C986.241 930.34 987.076 928.043 987.406 925.66C987.737 923.278 987.555 920.875 986.874 918.642C986.193 916.409 985.032 914.407 983.484 912.795L962.087 890.514C960.576 888.929 959.438 886.971 958.76 884.789C958.081 882.607 957.88 880.258 958.172 877.922C958.463 875.585 959.24 873.322 960.442 871.306C961.644 869.289 963.24 867.57 965.11 866.282L982.023 854.68C984.195 852.971 986.73 851.922 989.345 851.651C991.96 851.38 994.554 851.898 996.838 853.146L1058.14 892.152C1059.71 893.138 1061.45 893.776 1063.28 894.028L1126.19 902.644C1128.61 902.989 1130.88 904.016 1132.77 905.623C1134.65 907.229 1136.1 909.362 1136.96 911.813C1149.59 947.827 1128.66 1036.51 1106.84 1059.43C1105.21 1061.19 1103.96 1063.3 1103.19 1065.62C1102.42 1067.93 1102.14 1070.38 1102.39 1072.77L1116.07 1216.68C1116.21 1218.48 1116.07 1220.32 1115.64 1222.1L1110.23 1245.29C1109.7 1247.5 1108.75 1249.58 1107.42 1251.4C1106.1 1253.21 1104.44 1254.71 1102.56 1255.79C1100.68 1256.87 1098.62 1257.5 1096.54 1257.63C1094.46 1257.77 1092.41 1257.41 1090.51 1256.58L1064.78 1245.36C1062.75 1244.47 1060.96 1243.07 1059.57 1241.27C1058.17 1239.46 1057.21 1237.31 1056.75 1234.97C1052.51 1213.05 1043.37 1165.53 1039.4 1145.09C1038.84 1142.19 1037.51 1139.59 1035.56 1137.58C1033.62 1135.58 1031.14 1134.27 1028.44 1133.82L1005.97 1129.97C1003.19 1129.49 1000.29 1129.93 997.642 1131.23L987.866 1136.18C986.04 1137.1 984.39 1138.41 983.022 1140.03C981.654 1141.66 980.598 1143.55 979.92 1145.6C979.242 1147.64 978.958 1149.8 979.085 1151.92C979.213 1154.05 979.749 1156.1 980.66 1157.94L984.565 1165.82C986.251 1169.21 986.637 1173.24 985.646 1177.08C984.654 1180.93 982.36 1184.3 979.235 1186.5L904.819 1238.59C903.913 1239.21 903.076 1239.95 902.33 1240.79C883.088 1259.05 862.973 1276.17 842.08 1292.08C839.486 1294.06 837.512 1296.86 836.461 1300.07C835.41 1303.27 835.339 1306.71 836.258 1309.85C837.178 1312.99 839.038 1315.66 841.554 1317.45C844.07 1319.24 847.104 1320.06 850.193 1319.78L1017.85 1307.18L1189.41 1298.53C1191.98 1298.4 1194.49 1299.02 1196.69 1300.34C1198.89 1301.65 1200.69 1303.59 1201.9 1305.98L1239.87 1382.61C1240.38 1383.64 1241.01 1384.59 1241.74 1385.45L1353.16 1517.26C1354.53 1518.94 1355.53 1520.94 1356.07 1523.14L1356.49 1524.76C1357.22 1527.53 1357.2 1530.52 1356.42 1533.36C1355.64 1536.21 1354.14 1538.8 1352.09 1540.83C1350.04 1542.85 1347.52 1544.23 1344.85 1544.8C1342.17 1545.37 1339.45 1545.1 1336.99 1544.03C1324.74 1538.81 1312.52 1533.49 1300.34 1528.23C1299.38 1527.8 1298.47 1527.27 1297.61 1526.65C1281.84 1514.62 1266.1 1502.65 1250.38 1490.58C1248.26 1488.97 1245.73 1488.05 1243.07 1487.95C1240.42 1487.84 1237.75 1488.55 1235.37 1489.99C1232.99 1491.43 1231 1493.54 1229.62 1496.09C1228.23 1498.64 1227.52 1501.51 1227.55 1504.4L1227.7 1511.76C1227.7 1514.01 1228.17 1516.2 1229.07 1518.17C1229.96 1520.15 1231.27 1521.86 1232.89 1523.18L1307.08 1584.11C1308.75 1585.43 1310.68 1586.32 1312.74 1586.73L1379.9 1600.31C1382.23 1600.8 1384.68 1600.64 1387 1599.84C1389.33 1599.03 1391.46 1597.61 1393.2 1595.71L1412.35 1575.59C1413.79 1574.12 1415.44 1572.93 1417.22 1572.06L1542.02 1520.43L1551.74 1529.35C1552.51 1528.87 1556.05 1526.26 1562.69 1522.53C1563.88 1521.79 1561.98 1513.56 1563.17 1512.82C1569.12 1509.11 1580.25 1504.06 1580.25 1504.06L1587.92 1508.7L1605.71 1501.38L1615.6 1507.66C1618.14 1507.63 1620.66 1506.88 1622.92 1505.47L1646.01 1491.09C1647.8 1489.98 1649.77 1489.28 1651.79 1489.04C1653.8 1488.8 1655.82 1489.02 1657.7 1489.7C1659.59 1490.38 1661.29 1491.49 1662.71 1492.97C1664.12 1494.44 1665.22 1496.24 1665.91 1498.25L1713.18 1634.83C1713.83 1636.71 1714.12 1638.74 1714.03 1640.79C1713.93 1642.84 1713.47 1644.87 1712.65 1646.77C1711.84 1648.66 1710.69 1650.38 1709.28 1651.83C1707.86 1653.27 1706.21 1654.42 1704.42 1655.18L1659.39 1674.32C1656.97 1675.38 1654.83 1677.12 1653.19 1679.35C1651.55 1681.58 1650.48 1684.22 1650.09 1686.99L1646.06 1714.06C1645.54 1717.81 1643.77 1721.31 1641.09 1723.87C1638.41 1726.43 1635 1727.88 1631.52 1727.94C1596.96 1728.44 1536.51 1715.67 1504.82 1692.27C1503.69 1691.38 1502.68 1690.34 1501.8 1689.16C1486.96 1667.9 1472.1 1646.62 1457.24 1625.31C1455.13 1622.27 1451.97 1620.27 1448.43 1619.74C1444.88 1619.21 1441.2 1620.19 1438.15 1622.47L1325.76 1705.59C1323.81 1707.02 1321.58 1707.93 1319.29 1708.23L1258.29 1716.52C1254.88 1716.99 1251.49 1716.12 1248.75 1714.07C1246.02 1712.01 1244.11 1708.9 1243.4 1705.33L1230.26 1639.83C1229.72 1637.48 1228.65 1635.34 1227.16 1633.58L1202.33 1601.07C1200.01 1598.07 1196.65 1596.24 1192.96 1595.97C1189.28 1595.69 1185.56 1597 1182.61 1599.61L1085.41 1686.36C1083.89 1687.76 1082.15 1688.84 1080.29 1689.55L938.523 1736.94C936.57 1737.67 934.749 1738.8 933.168 1740.28L914.777 1757.39C913.178 1758.83 911.864 1760.61 910.921 1762.61C909.978 1764.61 909.428 1766.78 909.307 1768.98L906.865 1860.55C906.811 1862.72 906.337 1864.87 905.473 1866.88C904.609 1868.88 903.374 1870.69 901.849 1872.18C900.324 1873.67 898.544 1874.81 896.624 1875.53C894.704 1876.25 892.688 1876.53 890.706 1876.35C838.372 1871.79 748.089 1895.94 705.604 1922.58C703.899 1923.66 702.397 1925.09 701.19 1926.79C699.983 1928.49 699.096 1930.42 698.585 1932.47C698.073 1934.51 697.947 1936.62 698.215 1938.68C698.483 1940.73 699.138 1942.68 700.141 1944.4L701.815 1947.78C702.905 1949.65 703.583 1951.79 703.8 1954.04C704.016 1956.29 703.765 1958.59 703.065 1960.77C702.366 1962.95 701.235 1964.97 699.754 1966.66C698.273 1968.36 696.48 1969.7 694.505 1970.59L627.505 2000.87C625.744 2001.66 624.127 2002.82 622.747 2004.27C621.367 2005.72 620.251 2007.43 619.464 2009.32C609.507 2033.86 616.959 2096.84 633.104 2115.43C634.547 2116.99 635.632 2118.9 636.278 2121.02C636.924 2123.14 637.114 2125.41 636.836 2127.68L626.785 2202.95C626.405 2205.75 626.75 2208.57 627.78 2211.09L638.03 2235.08C638.993 2237.51 639.333 2240.21 639.015 2242.91C638.698 2245.61 637.735 2248.21 636.223 2250.45L596.22 2309.75C594.666 2312.05 593.695 2314.73 593.409 2317.5C593.124 2320.27 593.535 2323.04 594.599 2325.5L622.419 2390.6C623.908 2394.04 624.104 2398.04 622.968 2401.79C621.833 2405.53 619.45 2408.75 616.301 2410.79L606.363 2416.98C604.337 2418.3 602.073 2419.09 599.764 2419.27C597.454 2419.46 595.168 2419.03 593.103 2418.04L545.833 2395.09C543.537 2393.98 540.968 2393.59 538.406 2393.96C535.844 2394.33 533.386 2395.45 531.297 2397.19L455.793 2460.6C453.708 2462.3 451.285 2463.42 448.754 2463.84C430.421 2467.08 349.216 2479.85 293.983 2493.96C291.383 2494.61 288.962 2496.03 286.993 2498.05C285.024 2500.07 283.584 2502.62 282.834 2505.4L268.227 2559.7C267.91 2560.95 267.433 2562.15 266.81 2563.28L238.483 2616.13C236.908 2619.1 234.492 2621.47 231.618 2622.86L195.311 2641.06C191.913 2642.77 188.109 2643.03 184.689 2641.78L147.226 2627.63Z" fill="#293135" stroke="#2D7D9A" stroke-opacity="0.38" stroke-miterlimit="10"/>
<path d="M297.73 308H300.73M292.4 316.87C292.402 317.602 292.187 318.319 291.781 318.928C291.376 319.538 290.799 320.014 290.123 320.295C289.447 320.577 288.703 320.652 287.984 320.51C287.266 320.368 286.606 320.017 286.087 319.5C285.569 318.983 285.215 318.324 285.072 317.606C284.928 316.888 285.001 316.143 285.281 315.466C285.56 314.79 286.035 314.211 286.643 313.804C287.252 313.397 287.968 313.18 288.7 313.18C289.68 313.18 290.619 313.568 291.313 314.26C292.006 314.952 292.397 315.89 292.4 316.87V316.87ZM303.48 313.18C302.75 313.18 302.037 313.396 301.43 313.802C300.823 314.207 300.35 314.784 300.071 315.458C299.792 316.132 299.719 316.874 299.861 317.59C300.003 318.306 300.355 318.963 300.871 319.479C301.387 319.995 302.044 320.347 302.76 320.489C303.476 320.631 304.218 320.558 304.892 320.279C305.566 320 306.143 319.527 306.548 318.92C306.954 318.313 307.17 317.6 307.17 316.87C307.167 315.892 306.778 314.955 306.086 314.264C305.395 313.572 304.458 313.183 303.48 313.18V313.18ZM288.7 316.87H295.58H288.7ZM292.4 310.48H299.78H292.4ZM288.7 316.87L292.4 310.48L288.7 316.87ZM303.48 316.87L298.4 308.06L303.48 316.87ZM290.99 308L295.83 316.48L290.99 308ZM295.58 316.87L299.78 310.48L295.58 316.87ZM289.39 308H292.39H289.39Z" stroke="#2D7D9A" stroke-width="1.5" stroke-linecap="round" stroke-linejoin="round"/>
<path d="M139.73 336H142.73M134.4 344.87C134.402 345.602 134.187 346.319 133.781 346.928C133.376 347.538 132.799 348.014 132.123 348.295C131.447 348.577 130.703 348.652 129.984 348.51C129.266 348.368 128.606 348.017 128.087 347.5C127.569 346.983 127.215 346.324 127.072 345.606C126.928 344.888 127.001 344.143 127.281 343.466C127.56 342.79 128.035 342.211 128.643 341.804C129.252 341.397 129.968 341.18 130.7 341.18C131.68 341.18 132.619 341.568 133.313 342.26C134.006 342.952 134.397 343.89 134.4 344.87V344.87ZM145.48 341.18C144.75 341.18 144.037 341.396 143.43 341.802C142.823 342.207 142.35 342.784 142.071 343.458C141.792 344.132 141.719 344.874 141.861 345.59C142.003 346.306 142.355 346.963 142.871 347.479C143.387 347.995 144.044 348.347 144.76 348.489C145.476 348.631 146.218 348.558 146.892 348.279C147.566 348 148.143 347.527 148.548 346.92C148.954 346.313 149.17 345.6 149.17 344.87C149.167 343.892 148.778 342.955 148.086 342.264C147.395 341.572 146.458 341.183 145.48 341.18V341.18ZM130.7 344.87H137.58H130.7ZM134.4 338.48H141.78H134.4ZM130.7 344.87L134.4 338.48L130.7 344.87ZM145.48 344.87L140.4 336.06L145.48 344.87ZM132.99 336L137.83 344.48L132.99 336ZM137.58 344.87L141.78 338.48L137.58 344.87ZM131.39 336H134.39H131.39Z" stroke="#2D7D9A" stroke-width="1.5" stroke-linecap="round" stroke-linejoin="round"/>
<path d="M171.73 374H174.73M166.4 382.87C166.402 383.602 166.187 384.319 165.781 384.928C165.376 385.538 164.799 386.014 164.123 386.295C163.447 386.577 162.703 386.652 161.984 386.51C161.266 386.368 160.606 386.017 160.087 385.5C159.569 384.983 159.215 384.324 159.072 383.606C158.928 382.888 159.001 382.143 159.281 381.466C159.56 380.79 160.035 380.211 160.643 379.804C161.252 379.397 161.968 379.18 162.7 379.18C163.68 379.18 164.619 379.568 165.313 380.26C166.006 380.952 166.397 381.89 166.4 382.87V382.87ZM177.48 379.18C176.75 379.18 176.037 379.396 175.43 379.802C174.823 380.207 174.35 380.784 174.071 381.458C173.792 382.132 173.719 382.874 173.861 383.59C174.003 384.306 174.355 384.963 174.871 385.479C175.387 385.995 176.044 386.347 176.76 386.489C177.476 386.631 178.218 386.558 178.892 386.279C179.566 386 180.143 385.527 180.548 384.92C180.954 384.313 181.17 383.6 181.17 382.87C181.167 381.892 180.778 380.955 180.086 380.264C179.395 379.572 178.458 379.183 177.48 379.18V379.18ZM162.7 382.87H169.58H162.7ZM166.4 376.48H173.78H166.4ZM162.7 382.87L166.4 376.48L162.7 382.87ZM177.48 382.87L172.4 374.06L177.48 382.87ZM164.99 374L169.83 382.48L164.99 374ZM169.58 382.87L173.78 376.48L169.58 382.87ZM163.39 374H166.39H163.39Z" stroke="#2D7D9A" stroke-width="1.5" stroke-linecap="round" stroke-linejoin="round"/>
<path d="M216.73 452H219.73M211.4 460.87C211.402 461.602 211.187 462.319 210.781 462.928C210.376 463.538 209.799 464.014 209.123 464.295C208.447 464.577 207.703 464.652 206.984 464.51C206.266 464.368 205.606 464.017 205.087 463.5C204.569 462.983 204.215 462.324 204.072 461.606C203.928 460.888 204.001 460.143 204.281 459.466C204.56 458.79 205.035 458.211 205.643 457.804C206.252 457.397 206.968 457.18 207.7 457.18C208.68 457.18 209.619 457.568 210.313 458.26C211.006 458.952 211.397 459.89 211.4 460.87V460.87ZM222.48 457.18C221.75 457.18 221.037 457.396 220.43 457.802C219.823 458.207 219.35 458.784 219.071 459.458C218.792 460.132 218.719 460.874 218.861 461.59C219.003 462.306 219.355 462.963 219.871 463.479C220.387 463.995 221.044 464.347 221.76 464.489C222.476 464.631 223.218 464.558 223.892 464.279C224.566 464 225.143 463.527 225.548 462.92C225.954 462.313 226.17 461.6 226.17 460.87C226.167 459.892 225.778 458.955 225.086 458.264C224.395 457.572 223.458 457.183 222.48 457.18V457.18ZM207.7 460.87H214.58H207.7ZM211.4 454.48H218.78H211.4ZM207.7 460.87L211.4 454.48L207.7 460.87ZM222.48 460.87L217.4 452.06L222.48 460.87ZM209.99 452L214.83 460.48L209.99 452ZM214.58 460.87L218.78 454.48L214.58 460.87ZM208.39 452H211.39H208.39Z" stroke="#2D7D9A" stroke-width="1.5" stroke-linecap="round" stroke-linejoin="round"/>
<path d="M279.73 404H282.73M274.4 412.87C274.402 413.602 274.187 414.319 273.781 414.928C273.376 415.538 272.799 416.014 272.123 416.295C271.447 416.577 270.703 416.652 269.984 416.51C269.266 416.368 268.606 416.017 268.087 415.5C267.569 414.983 267.215 414.324 267.072 413.606C266.928 412.888 267.001 412.143 267.281 411.466C267.56 410.79 268.035 410.211 268.643 409.804C269.252 409.397 269.968 409.18 270.7 409.18C271.68 409.18 272.619 409.568 273.313 410.26C274.006 410.952 274.397 411.89 274.4 412.87V412.87ZM285.48 409.18C284.75 409.18 284.037 409.396 283.43 409.802C282.823 410.207 282.35 410.784 282.071 411.458C281.792 412.132 281.719 412.874 281.861 413.59C282.003 414.306 282.355 414.963 282.871 415.479C283.387 415.995 284.044 416.347 284.76 416.489C285.476 416.631 286.218 416.558 286.892 416.279C287.566 416 288.143 415.527 288.548 414.92C288.954 414.313 289.17 413.6 289.17 412.87C289.167 411.892 288.778 410.955 288.086 410.264C287.395 409.572 286.458 409.183 285.48 409.18V409.18ZM270.7 412.87H277.58H270.7ZM274.4 406.48H281.78H274.4ZM270.7 412.87L274.4 406.48L270.7 412.87ZM285.48 412.87L280.4 404.06L285.48 412.87ZM272.99 404L277.83 412.48L272.99 404ZM277.58 412.87L281.78 406.48L277.58 412.87ZM271.39 404H274.39H271.39Z" stroke="#2D7D9A" stroke-width="1.5" stroke-linecap="round" stroke-linejoin="round"/>
<path d="M318.73 238H321.73M313.4 246.87C313.402 247.602 313.187 248.319 312.781 248.928C312.376 249.538 311.799 250.014 311.123 250.295C310.447 250.577 309.703 250.652 308.984 250.51C308.266 250.368 307.606 250.017 307.087 249.5C306.569 248.983 306.215 248.324 306.072 247.606C305.928 246.888 306.001 246.143 306.281 245.466C306.56 244.79 307.035 244.211 307.643 243.804C308.252 243.397 308.968 243.18 309.7 243.18C310.68 243.18 311.619 243.568 312.313 244.26C313.006 244.952 313.397 245.89 313.4 246.87V246.87ZM324.48 243.18C323.75 243.18 323.037 243.396 322.43 243.802C321.823 244.207 321.35 244.784 321.071 245.458C320.792 246.132 320.719 246.874 320.861 247.59C321.003 248.306 321.355 248.963 321.871 249.479C322.387 249.995 323.044 250.347 323.76 250.489C324.476 250.631 325.218 250.558 325.892 250.279C326.566 250 327.143 249.527 327.548 248.92C327.954 248.313 328.17 247.6 328.17 246.87C328.167 245.892 327.778 244.955 327.086 244.264C326.395 243.572 325.458 243.183 324.48 243.18V243.18ZM309.7 246.87H316.58H309.7ZM313.4 240.48H320.78H313.4ZM309.7 246.87L313.4 240.48L309.7 246.87ZM324.48 246.87L319.4 238.06L324.48 246.87ZM311.99 238L316.83 246.48L311.99 238ZM316.58 246.87L320.78 240.48L316.58 246.87ZM310.39 238H313.39H310.39Z" stroke="#2D7D9A" stroke-width="1.5" stroke-linecap="round" stroke-linejoin="round"/>
<path d="M325.92 463C325.816 462.707 325.624 462.453 325.369 462.274C325.115 462.094 324.811 461.999 324.5 462H313.5C313.189 461.999 312.885 462.094 312.631 462.274C312.376 462.453 312.184 462.707 312.08 463L310.11 468.68C310.038 468.893 310.001 469.116 310 469.34V476.5C310 476.898 310.158 477.279 310.439 477.561C310.721 477.842 311.102 478 311.5 478C311.898 478 312.279 477.842 312.561 477.561C312.842 477.279 313 476.898 313 476.5V476H325V476.5C325 476.898 325.158 477.279 325.439 477.561C325.721 477.842 326.102 478 326.5 478C326.898 478 327.279 477.842 327.561 477.561C327.842 477.279 328 476.898 328 476.5V469.34C327.998 469.116 327.961 468.893 327.89 468.68L325.92 463ZM313.5 473C313.203 473 312.913 472.912 312.667 472.747C312.42 472.582 312.228 472.348 312.114 472.074C312.001 471.8 311.971 471.498 312.029 471.207C312.087 470.916 312.23 470.649 312.439 470.439C312.649 470.23 312.916 470.087 313.207 470.029C313.498 469.971 313.8 470.001 314.074 470.114C314.348 470.228 314.582 470.42 314.747 470.667C314.912 470.913 315 471.203 315 471.5C315 471.898 314.842 472.279 314.561 472.561C314.279 472.842 313.898 473 313.5 473ZM324.5 473C324.203 473 323.913 472.912 323.667 472.747C323.42 472.582 323.228 472.348 323.114 472.074C323.001 471.8 322.971 471.498 323.029 471.207C323.087 470.916 323.23 470.649 323.439 470.439C323.649 470.23 323.916 470.087 324.207 470.029C324.498 469.971 324.8 470.001 325.074 470.114C325.348 470.228 325.582 470.42 325.747 470.667C325.912 470.913 326 471.203 326 471.5C326 471.898 325.842 472.279 325.561 472.561C325.279 472.842 324.898 473 324.5 473ZM312 468L313.27 464.18C313.337 463.981 313.465 463.809 313.635 463.687C313.806 463.565 314.01 463.499 314.22 463.5H323.78C323.99 463.499 324.194 463.565 324.365 463.687C324.535 463.809 324.663 463.981 324.73 464.18L326 468H312Z" fill="#2D7D9A"/>
<path d="M185.92 499C185.816 498.707 185.624 498.453 185.369 498.274C185.115 498.094 184.811 497.999 184.5 498H173.5C173.189 497.999 172.885 498.094 172.631 498.274C172.376 498.453 172.184 498.707 172.08 499L170.11 504.68C170.038 504.893 170.001 505.116 170 505.34V512.5C170 512.898 170.158 513.279 170.439 513.561C170.721 513.842 171.102 514 171.5 514C171.898 514 172.279 513.842 172.561 513.561C172.842 513.279 173 512.898 173 512.5V512H185V512.5C185 512.898 185.158 513.279 185.439 513.561C185.721 513.842 186.102 514 186.5 514C186.898 514 187.279 513.842 187.561 513.561C187.842 513.279 188 512.898 188 512.5V505.34C187.998 505.116 187.961 504.893 187.89 504.68L185.92 499ZM173.5 509C173.203 509 172.913 508.912 172.667 508.747C172.42 508.582 172.228 508.348 172.114 508.074C172.001 507.8 171.971 507.498 172.029 507.207C172.087 506.916 172.23 506.649 172.439 506.439C172.649 506.23 172.916 506.087 173.207 506.029C173.498 505.971 173.8 506.001 174.074 506.114C174.348 506.228 174.582 506.42 174.747 506.667C174.912 506.913 175 507.203 175 507.5C175 507.898 174.842 508.279 174.561 508.561C174.279 508.842 173.898 509 173.5 509ZM184.5 509C184.203 509 183.913 508.912 183.667 508.747C183.42 508.582 183.228 508.348 183.114 508.074C183.001 507.8 182.971 507.498 183.029 507.207C183.087 506.916 183.23 506.649 183.439 506.439C183.649 506.23 183.916 506.087 184.207 506.029C184.498 505.971 184.8 506.001 185.074 506.114C185.348 506.228 185.582 506.42 185.747 506.667C185.912 506.913 186 507.203 186 507.5C186 507.898 185.842 508.279 185.561 508.561C185.279 508.842 184.898 509 184.5 509ZM172 504L173.27 500.18C173.337 499.981 173.465 499.809 173.635 499.687C173.806 499.565 174.01 499.499 174.22 499.5H183.78C183.99 499.499 184.194 499.565 184.365 499.687C184.535 499.809 184.663 499.981 184.73 500.18L186 504H172Z" fill="#2D7D9A"/>
<path d="M241.92 293C241.816 292.707 241.624 292.453 241.369 292.274C241.115 292.094 240.811 291.999 240.5 292H229.5C229.189 291.999 228.885 292.094 228.631 292.274C228.376 292.453 228.184 292.707 228.08 293L226.11 298.68C226.038 298.893 226.001 299.116 226 299.34V306.5C226 306.898 226.158 307.279 226.439 307.561C226.721 307.842 227.102 308 227.5 308C227.898 308 228.279 307.842 228.561 307.561C228.842 307.279 229 306.898 229 306.5V306H241V306.5C241 306.898 241.158 307.279 241.439 307.561C241.721 307.842 242.102 308 242.5 308C242.898 308 243.279 307.842 243.561 307.561C243.842 307.279 244 306.898 244 306.5V299.34C243.998 299.116 243.961 298.893 243.89 298.68L241.92 293ZM229.5 303C229.203 303 228.913 302.912 228.667 302.747C228.42 302.582 228.228 302.348 228.114 302.074C228.001 301.8 227.971 301.498 228.029 301.207C228.087 300.916 228.23 300.649 228.439 300.439C228.649 300.23 228.916 300.087 229.207 300.029C229.498 299.971 229.8 300.001 230.074 300.114C230.348 300.228 230.582 300.42 230.747 300.667C230.912 300.913 231 301.203 231 301.5C231 301.898 230.842 302.279 230.561 302.561C230.279 302.842 229.898 303 229.5 303ZM240.5 303C240.203 303 239.913 302.912 239.667 302.747C239.42 302.582 239.228 302.348 239.114 302.074C239.001 301.8 238.971 301.498 239.029 301.207C239.087 300.916 239.23 300.649 239.439 300.439C239.649 300.23 239.916 300.087 240.207 300.029C240.498 299.971 240.8 300.001 241.074 300.114C241.348 300.228 241.582 300.42 241.747 300.667C241.912 300.913 242 301.203 242 301.5C242 301.898 241.842 302.279 241.561 302.561C241.279 302.842 240.898 303 240.5 303ZM228 298L229.27 294.18C229.337 293.981 229.465 293.809 229.635 293.687C229.806 293.565 230.01 293.499 230.22 293.5H239.78C239.99 293.499 240.194 293.565 240.365 293.687C240.535 293.809 240.663 293.981 240.73 294.18L242 298H228Z" fill="#2D7D9A"/>
<path d="M239.92 354C239.816 353.707 239.624 353.453 239.369 353.274C239.115 353.094 238.811 352.999 238.5 353H227.5C227.189 352.999 226.885 353.094 226.631 353.274C226.376 353.453 226.184 353.707 226.08 354L224.11 359.68C224.038 359.893 224.001 360.116 224 360.34V367.5C224 367.898 224.158 368.279 224.439 368.561C224.721 368.842 225.102 369 225.5 369C225.898 369 226.279 368.842 226.561 368.561C226.842 368.279 227 367.898 227 367.5V367H239V367.5C239 367.898 239.158 368.279 239.439 368.561C239.721 368.842 240.102 369 240.5 369C240.898 369 241.279 368.842 241.561 368.561C241.842 368.279 242 367.898 242 367.5V360.34C241.998 360.116 241.961 359.893 241.89 359.68L239.92 354ZM227.5 364C227.203 364 226.913 363.912 226.667 363.747C226.42 363.582 226.228 363.348 226.114 363.074C226.001 362.8 225.971 362.498 226.029 362.207C226.087 361.916 226.23 361.649 226.439 361.439C226.649 361.23 226.916 361.087 227.207 361.029C227.498 360.971 227.8 361.001 228.074 361.114C228.348 361.228 228.582 361.42 228.747 361.667C228.912 361.913 229 362.203 229 362.5C229 362.898 228.842 363.279 228.561 363.561C228.279 363.842 227.898 364 227.5 364ZM238.5 364C238.203 364 237.913 363.912 237.667 363.747C237.42 363.582 237.228 363.348 237.114 363.074C237.001 362.8 236.971 362.498 237.029 362.207C237.087 361.916 237.23 361.649 237.439 361.439C237.649 361.23 237.916 361.087 238.207 361.029C238.498 360.971 238.8 361.001 239.074 361.114C239.348 361.228 239.582 361.42 239.747 361.667C239.912 361.913 240 362.203 240 362.5C240 362.898 239.842 363.279 239.561 363.561C239.279 363.842 238.898 364 238.5 364ZM226 359L227.27 355.18C227.337 354.981 227.465 354.809 227.635 354.687C227.806 354.565 228.01 354.499 228.22 354.5H237.78C237.99 354.499 238.194 354.565 238.365 354.687C238.535 354.809 238.663 354.981 238.73 355.18L240 359H226Z" fill="#2D7D9A"/>
<path d="M136.92 418C136.816 417.707 136.624 417.453 136.369 417.274C136.115 417.094 135.811 416.999 135.5 417H124.5C124.189 416.999 123.885 417.094 123.631 417.274C123.376 417.453 123.184 417.707 123.08 418L121.11 423.68C121.038 423.893 121.001 424.116 121 424.34V431.5C121 431.898 121.158 432.279 121.439 432.561C121.721 432.842 122.102 433 122.5 433C122.898 433 123.279 432.842 123.561 432.561C123.842 432.279 124 431.898 124 431.5V431H136V431.5C136 431.898 136.158 432.279 136.439 432.561C136.721 432.842 137.102 433 137.5 433C137.898 433 138.279 432.842 138.561 432.561C138.842 432.279 139 431.898 139 431.5V424.34C138.998 424.116 138.961 423.893 138.89 423.68L136.92 418ZM124.5 428C124.203 428 123.913 427.912 123.667 427.747C123.42 427.582 123.228 427.348 123.114 427.074C123.001 426.8 122.971 426.498 123.029 426.207C123.087 425.916 123.23 425.649 123.439 425.439C123.649 425.23 123.916 425.087 124.207 425.029C124.498 424.971 124.8 425.001 125.074 425.114C125.348 425.228 125.582 425.42 125.747 425.667C125.912 425.913 126 426.203 126 426.5C126 426.898 125.842 427.279 125.561 427.561C125.279 427.842 124.898 428 124.5 428ZM135.5 428C135.203 428 134.913 427.912 134.667 427.747C134.42 427.582 134.228 427.348 134.114 427.074C134.001 426.8 133.971 426.498 134.029 426.207C134.087 425.916 134.23 425.649 134.439 425.439C134.649 425.23 134.916 425.087 135.207 425.029C135.498 424.971 135.8 425.001 136.074 425.114C136.348 425.228 136.582 425.42 136.747 425.667C136.912 425.913 137 426.203 137 426.5C137 426.898 136.842 427.279 136.561 427.561C136.279 427.842 135.898 428 135.5 428ZM123 423L124.27 419.18C124.337 418.981 124.465 418.809 124.635 418.687C124.806 418.565 125.01 418.499 125.22 418.5H134.78C134.99 418.499 135.194 418.565 135.365 418.687C135.535 418.809 135.663 418.981 135.73 419.18L137 423H123Z" fill="#2D7D9A"/>
<path d="M322.92 363C322.816 362.707 322.624 362.453 322.369 362.274C322.115 362.094 321.811 361.999 321.5 362H310.5C310.189 361.999 309.885 362.094 309.631 362.274C309.376 362.453 309.184 362.707 309.08 363L307.11 368.68C307.038 368.893 307.001 369.116 307 369.34V376.5C307 376.898 307.158 377.279 307.439 377.561C307.721 377.842 308.102 378 308.5 378C308.898 378 309.279 377.842 309.561 377.561C309.842 377.279 310 376.898 310 376.5V376H322V376.5C322 376.898 322.158 377.279 322.439 377.561C322.721 377.842 323.102 378 323.5 378C323.898 378 324.279 377.842 324.561 377.561C324.842 377.279 325 376.898 325 376.5V369.34C324.998 369.116 324.961 368.893 324.89 368.68L322.92 363ZM310.5 373C310.203 373 309.913 372.912 309.667 372.747C309.42 372.582 309.228 372.348 309.114 372.074C309.001 371.8 308.971 371.498 309.029 371.207C309.087 370.916 309.23 370.649 309.439 370.439C309.649 370.23 309.916 370.087 310.207 370.029C310.498 369.971 310.8 370.001 311.074 370.114C311.348 370.228 311.582 370.42 311.747 370.667C311.912 370.913 312 371.203 312 371.5C312 371.898 311.842 372.279 311.561 372.561C311.279 372.842 310.898 373 310.5 373ZM321.5 373C321.203 373 320.913 372.912 320.667 372.747C320.42 372.582 320.228 372.348 320.114 372.074C320.001 371.8 319.971 371.498 320.029 371.207C320.087 370.916 320.23 370.649 320.439 370.439C320.649 370.23 320.916 370.087 321.207 370.029C321.498 369.971 321.8 370.001 322.074 370.114C322.348 370.228 322.582 370.42 322.747 370.667C322.912 370.913 323 371.203 323 371.5C323 371.898 322.842 372.279 322.561 372.561C322.279 372.842 321.898 373 321.5 373ZM309 368L310.27 364.18C310.337 363.981 310.465 363.809 310.635 363.687C310.806 363.565 311.01 363.499 311.22 363.5H320.78C320.99 363.499 321.194 363.565 321.365 363.687C321.535 363.809 321.663 363.981 321.73 364.18L323 368H309Z" fill="#2D7D9A"/>
</g>
<defs>
<clipPath id="clip0">
<rect width="360" height="540" fill="white"/>
</clipPath>
</defs>
</svg>
