<svg id="Layer_1" data-name="Layer 1" xmlns="http://www.w3.org/2000/svg" viewBox="0 0 48 48"><title>Bicycle_Icon)48px</title><g id="bicycle"><path id="bicycle-2" data-name="bicycle" d="M16.57,30.57a7.43,7.43,0,1,1-7.43-7.43A7.42,7.42,0,0,1,16.57,30.57Zm22.29-7.43a7.43,7.43,0,1,0,7.42,7.43A7.42,7.42,0,0,0,38.86,23.14ZM9.14,30.57H23M16.57,17.7H31.43M9.14,30.57,16.57,17.7M38.86,30.57,28.64,12.84m-14.9-.13,9.75,17.08m-.51.78L31.43,17.7m-20.91-5h5.94m10.74,0h6.07" fill="none" stroke-linecap="round" stroke-linejoin="round" stroke-width="3"/></g></svg>