<svg width="48" height="48" viewBox="0 0 48 48" fill="none" xmlns="http://www.w3.org/2000/svg">
<path d="M24.0009 1.37988C19.5271 1.37988 15.1537 2.70652 11.4339 5.19204C7.71403 7.67756 4.81477 11.2103 3.10271 15.3436C1.39066 19.4768 0.942709 24.025 1.81551 28.4128C2.6883 32.8007 4.84265 36.8312 8.00611 39.9946C11.1696 43.1581 15.2001 45.3124 19.5879 46.1852C23.9758 47.058 28.5239 46.6101 32.6572 44.898C36.7904 43.186 40.3232 40.2867 42.8087 36.5669C45.2942 32.847 46.6209 28.4737 46.6209 23.9999C46.6209 18.0007 44.2377 12.2472 39.9956 8.00513C35.7536 3.76305 30.0001 1.37988 24.0009 1.37988ZM25.4109 19.7599C25.6067 19.7434 25.8038 19.7678 25.9897 19.8314C26.1756 19.895 26.3463 19.9965 26.491 20.1295C26.6357 20.2625 26.7512 20.4241 26.8301 20.6041C26.9091 20.784 26.9499 20.9784 26.9499 21.1749C26.9499 21.3714 26.9091 21.5658 26.8301 21.7457C26.7512 21.9256 26.6357 22.0872 26.491 22.2202C26.3463 22.3532 26.1756 22.4548 25.9897 22.5184C25.8038 22.582 25.6067 22.6064 25.4109 22.5899H18.4609C18.3936 23.057 18.3569 23.528 18.3509 23.9999C18.3569 24.4718 18.3936 24.9428 18.4609 25.4099H24.0009C24.3556 25.4397 24.6862 25.6017 24.9271 25.8638C25.1681 26.1259 25.3018 26.4689 25.3018 26.8249C25.3018 27.1809 25.1681 27.5239 24.9271 27.786C24.6862 28.048 24.3556 28.21 24.0009 28.2399H19.3309C19.8399 29.449 20.6813 30.4891 21.7574 31.2396C22.8335 31.99 24.1003 32.4201 25.4109 32.4799C26.6446 32.4831 27.8493 32.106 28.8609 31.3999C29.1698 31.189 29.5499 31.1096 29.9175 31.179C30.2851 31.2483 30.61 31.4609 30.8209 31.7699C31.0317 32.0789 31.1112 32.4589 31.0418 32.8265C30.9724 33.1941 30.7598 33.519 30.4509 33.7299C28.9801 34.7456 27.2382 35.2961 25.4509 35.3099C21.3109 35.3099 17.7709 32.3799 16.2909 28.2399H14.1009C13.7461 28.21 13.4155 28.048 13.1746 27.786C12.9336 27.5239 12.7999 27.1809 12.7999 26.8249C12.7999 26.4689 12.9336 26.1259 13.1746 25.8638C13.4155 25.6017 13.7461 25.4397 14.1009 25.4099H15.6409C15.5756 24.9424 15.5356 24.4717 15.5209 23.9999C15.5356 23.5281 15.5756 23.0574 15.6409 22.5899H14.1009C13.7461 22.56 13.4155 22.398 13.1746 22.136C12.9336 21.8739 12.7999 21.5309 12.7999 21.1749C12.7999 20.8189 12.9336 20.4759 13.1746 20.2138C13.4155 19.9517 13.7461 19.7897 14.1009 19.7599H16.2509C17.7309 15.6199 21.2509 12.6899 25.4109 12.6899C27.1982 12.7037 28.9401 13.2542 30.4109 14.2699C30.7198 14.4807 30.9324 14.8057 31.0018 15.1733C31.0712 15.5408 30.9917 15.9209 30.7809 16.2299C30.57 16.5389 30.2451 16.7514 29.8775 16.8208C29.5099 16.8902 29.1298 16.8107 28.8209 16.5999C27.8092 15.8938 26.6046 15.5166 25.3709 15.5199C24.0603 15.5797 22.7935 16.0097 21.7174 16.7602C20.6413 17.5106 19.7999 18.5507 19.2909 19.7599H25.4109Z" fill="#6FD1F6"/>
</svg>
