<?xml version="1.0" encoding="utf-8"?>
<!-- Generator: Adobe Illustrator 24.0.0, SVG Export Plug-In . SVG Version: 6.00 Build 0)  -->
<svg version="1.1" id="Layer_1" xmlns="http://www.w3.org/2000/svg" xmlns:xlink="http://www.w3.org/1999/xlink" x="0px" y="0px"
	 viewBox="0 0 24 24" style="enable-background:new 0 0 24 24;" xml:space="preserve">
<style type="text/css">
	.st0{fill-rule:evenodd;clip-rule:evenodd;fill-opacity:0.54;}
	.st1{fill-opacity:0.54;}
	.st2{fill-rule:evenodd;clip-rule:evenodd;}
	.st3{fill-rule:evenodd;clip-rule:evenodd;fill:none;stroke:#000000;stroke-width:0.15;stroke-miterlimit:10;}
	.st4{fill-rule:evenodd;clip-rule:evenodd;fill:#FFFFFF;stroke:#000000;stroke-width:0.25;stroke-miterlimit:10;}
	.st5{fill-rule:evenodd;clip-rule:evenodd;fill:none;stroke:#000000;stroke-width:0.25;stroke-miterlimit:10;}
	.st6{fill:none;}
	.st7{fill:#FFFFFF;}
	.st8{fill:#6FD1F6;}
	.st9{fill:#F3CB40;}
	.st10{fill:#6FD1F6;stroke:#6FD1F6;stroke-miterlimit:10;}
	.st11{fill-rule:evenodd;clip-rule:evenodd;fill:#FFFFFF;}
	.st12{clip-path:url(#SVGID_2_);}
	.st13{fill-rule:evenodd;clip-rule:evenodd;fill:#6FD1F6;}
	.st14{clip-path:url(#SVGID_4_);}
	.st15{fill:none;stroke:#000000;stroke-width:0.5;stroke-miterlimit:10;}
	.st16{fill:none;stroke:#FFFFFF;stroke-width:0.5;stroke-miterlimit:10;}
	.st17{fill:none;stroke:#6FD1F6;stroke-width:0.5;stroke-miterlimit:10;}
	.st18{opacity:0.87;fill:#FFFFFF;}
	.st19{fill:none;stroke:#FFFFFF;stroke-miterlimit:10;}
	.st20{fill:none;stroke:#000000;stroke-miterlimit:10;}
	.st21{stroke:#000000;stroke-width:0.5;stroke-miterlimit:10;}
	.st22{fill:#FFFFFF;stroke:#FFFFFF;stroke-width:0.5;stroke-miterlimit:10;}
	.st23{fill:none;stroke:#000000;stroke-width:0.72;stroke-linecap:round;stroke-linejoin:round;stroke-miterlimit:10;}
	.st24{fill:none;stroke:#000000;stroke-width:0.72;stroke-linejoin:round;stroke-miterlimit:10;}
	.st25{fill:none;stroke:#FFFFFF;stroke-width:0.72;stroke-linecap:round;stroke-linejoin:round;stroke-miterlimit:10;}
	.st26{fill:none;stroke:#000000;stroke-linecap:round;stroke-linejoin:round;stroke-miterlimit:10;}
	.st27{fill:none;stroke:#FFFFFF;stroke-width:3;stroke-linecap:round;stroke-linejoin:round;stroke-miterlimit:10;}
	.st28{fill:none;stroke:#FFFFFF;stroke-width:1.5;stroke-linecap:round;stroke-linejoin:round;stroke-miterlimit:10;}
	.st29{fill:none;stroke:#000000;stroke-width:1.5;stroke-linecap:round;stroke-linejoin:round;stroke-miterlimit:10;}
	.st30{fill:none;stroke:#000000;stroke-width:3;stroke-linecap:round;stroke-linejoin:round;stroke-miterlimit:10;}
	.st31{fill:none;stroke:#000000;stroke-width:2;stroke-linecap:round;stroke-linejoin:round;stroke-miterlimit:10;}
	.st32{stroke:#000000;stroke-width:0.72;stroke-linecap:round;stroke-linejoin:round;stroke-miterlimit:10;}
	.st33{fill:#A7ABAC;}
	.st34{fill:#2D7D9A;}
	.st35{stroke:#000000;stroke-miterlimit:10;}
	.st36{opacity:0.6;}
	.st37{fill:none;stroke:#FFFFFF;stroke-width:2;stroke-linecap:round;stroke-linejoin:round;stroke-miterlimit:10;}
	.st38{fill:none;stroke:#6FD1F6;stroke-width:2;stroke-linecap:round;stroke-linejoin:round;stroke-miterlimit:10;}
	.st39{fill-rule:evenodd;clip-rule:evenodd;fill:#FFFFFF;fill-opacity:0.87;}
	.st40{opacity:0.87;fill-rule:evenodd;clip-rule:evenodd;fill:#FFFFFF;fill-opacity:0.87;}
	.st41{fill:#EF5959;}
	.st42{fill:#ABE1FA;}
	.st43{fill:#FFC20E;}
	.st44{fill:#00C0F3;}
	.st45{fill:#DA1E4E;}
	.st46{fill:#006EB7;}
	.st47{fill:#00929E;}
	.st48{fill:#6FD1F6;stroke:#6FD1F6;stroke-width:0.25;stroke-miterlimit:10;}
	.st49{fill:none;stroke:#6FD1F6;stroke-width:2;stroke-miterlimit:10;}
	.st50{fill:#5F5F5F;}
</style>
<g>
	<path class="st8" d="M24,7.9c-0.1,0.1-0.2,0.2-0.3,0.3c-3.1,1-6.3,2-9.4,2.9c-0.7,0.2-1.4,0.4-2.1,0.7c-0.1,0-0.3,0-0.4,0
		C9.6,11,7.5,10.3,5.3,9.6c-0.2,0-0.2,0-0.3,0.1c-0.4,0.4-0.6,0.9-0.7,1.4C4.1,11.6,4.1,12,4,12.5c0,0.1,0,0.2,0.1,0.2
		c0.7,0.5,0.7,1.6,0,2.1c-0.1,0.1-0.1,0.1-0.1,0.2c0.2,1.1,0.3,2.2,0.4,3.3c0,0.4,0.1,0.7,0.1,1.1c0,0.2-0.1,0.4-0.3,0.4
		c-0.7,0-1.3,0-2,0c-0.2,0-0.3-0.2-0.3-0.4c0.1-0.9,0.2-1.8,0.4-2.7c0.1-0.6,0.1-1.1,0.2-1.7c0-0.1,0-0.1-0.1-0.2
		c-0.7-0.5-0.7-1.7,0.1-2.1c0.1-0.1,0.1-0.1,0.1-0.2c0-0.7,0.2-1.4,0.4-2C3.2,10,3.4,9.6,3.6,9.3c0.1-0.1,0.1-0.1,0-0.2
		c-1.1-0.3-2.2-0.7-3.3-1C0.2,8.1,0.1,8,0,7.8C0,7.6,0.1,7.5,0.3,7.4C1.1,7.1,2,6.9,2.9,6.6c2.9-0.9,5.9-1.8,8.8-2.8
		c0.1,0,0.1-0.1,0.2-0.1c0.1,0,0.2,0,0.2,0c0.3,0,0.6,0.2,0.9,0.2c1.8,0.6,3.7,1.2,5.5,1.7c1.2,0.4,2.4,0.8,3.6,1.1
		c0.5,0.2,1,0.3,1.5,0.5c0.1,0,0.2,0.1,0.3,0.3C24,7.7,24,7.8,24,7.9z"/>
	<path class="st8" d="M12.3,3.7C12.3,3.8,12.3,3.8,12.3,3.7c-0.1,0-0.2,0-0.3,0c0,0,0,0,0,0C12.1,3.7,12.2,3.7,12.3,3.7z"/>
	<path class="st8" d="M18.6,11.1c0,0.3,0,0.6,0.1,0.9c0,0.7,0.1,1.4,0.1,2.1c0.1,0.6-0.2,1.1-0.7,1.5c-0.6,0.4-1.2,0.7-1.9,0.9
		c-1.5,0.5-3.1,0.6-4.7,0.5c-1.1,0-2.2-0.2-3.3-0.5c-0.8-0.2-1.5-0.5-2.1-1c-0.3-0.3-0.5-0.5-0.6-1c0-0.2,0-0.3,0-0.5
		c0.1-1,0.1-1.9,0.2-2.9c0-0.1,0-0.1,0.1-0.1c2,0.6,3.9,1.2,5.9,1.8c0.4,0.1,0.7,0.1,1.1,0c1.9-0.6,3.8-1.2,5.8-1.8
		C18.5,11.2,18.6,11.1,18.6,11.1z"/>
</g>
</svg>
