<svg id="Layer_1" data-name="Layer 1" xmlns="http://www.w3.org/2000/svg" width="48" height="48" viewBox="0 0 48 48"><title>Icons_housing_blue</title><path d="M41.8,31.75V26a1.34,1.34,0,0,0-1.33-1.34H39.14A1.33,1.33,0,0,0,37.81,26v2.13l-4.44-4a1.36,1.36,0,0,0-1.79,0l-11.13,10a.66.66,0,0,0,.44,1.16h2.26v9.33A1.34,1.34,0,0,0,24.48,46h4a1.34,1.34,0,0,0,1.33-1.33V38h5.33v6.67A1.34,1.34,0,0,0,36.47,46h4a1.34,1.34,0,0,0,1.33-1.33V35.35h2.27a.66.66,0,0,0,.44-1.16Zm-12,.94a2.67,2.67,0,1,1,5.33,0Z" fill="#6fd1f6"/><path d="M23,2H8.47A4.85,4.85,0,0,0,3.63,6.84v34a4.84,4.84,0,0,0,4.84,4.84H22V40.9H18.08v-5h1a.25.25,0,0,0,.18-.21.24.24,0,0,0-.18-.25h0A.84.84,0,0,1,19,34L22,31.2h-4V26.15h5.05v4.06l4.75-4.29V6.84A4.84,4.84,0,0,0,23,2ZM8.38,16.45h5v5h-5Zm5,24.45h-5v-5h5Zm.1-9.6h-5V26.25h5Zm0-19.41h-5V6.84h5Zm9.6,9.6H18.08v-5h5.05Zm0-9.7H18.08v-5h5.05Z" fill="#6fd1f6"/></svg>