<svg id="Layer_1" data-name="Layer 1" xmlns="http://www.w3.org/2000/svg" width="48" height="48" viewBox="0 0 48 48"><title>Icons_transport blue</title><g id="bicycle"><path id="bicycle-2" data-name="bicycle" d="M26.74,38.19a5,5,0,1,1-5-5A5,5,0,0,1,26.74,38.19Zm15-5a5,5,0,1,0,5,5A5,5,0,0,0,41.69,33.23Zm-19.93,5H31m-4.3-8.59h10M21.76,38.19l5-8.59m15,8.59L34.84,26.36m-10-.09,6.54,11.4m-.34.52,5.67-8.59m-14-3.33h4m7.2,0h4.07" fill="none" stroke="#6fd1f6" stroke-linecap="round" stroke-linejoin="round" stroke-width="2"/></g><path d="M22.4,24h13V12.29c0-7.45-7.62-8.51-17-8.51s-17,1.06-17,8.51V33.58A6.34,6.34,0,0,0,3.46,38.3V41a3.19,3.19,0,0,0,6.38,0V40l4.38.08a.49.49,0,0,0,.32-.13.34.34,0,0,0,0-.29,6.74,6.74,0,0,1,8.21-8.47.36.36,0,0,0,.15,0,.27.27,0,0,0,.11-.09c.13-.21.59-1.45.89-2.16a.52.52,0,0,0,0-.28.28.28,0,0,0-.2-.13l-1.36,0a2.16,2.16,0,0,1-2.17-2.16v-.14A2.17,2.17,0,0,1,22.4,24ZM8.78,36A3.2,3.2,0,1,1,12,32.79,3.2,3.2,0,0,1,8.78,36ZM6.09,21.12a.5.5,0,0,1-.51-.5V12.9a.5.5,0,0,1,.51-.5H30.62a.5.5,0,0,1,.51.5v7.72a.5.5,0,0,1-.51.5Z" fill="#6fd1f6"/></svg>