<?xml version="1.0" encoding="iso-8859-1"?>
<!-- Generator: Adobe Illustrator 19.0.0, SVG Export Plug-In . SVG Version: 6.00 Build 0)  -->
<svg version="1.1" id="Layer_1" xmlns="http://www.w3.org/2000/svg" xmlns:xlink="http://www.w3.org/1999/xlink" x="0px" y="0px"
	 viewBox="0 0 512.003 512.003" style="fillcolor:'black' enable-background:new 0 0 512.003 512.003;" xml:space="preserve">
<g>
	<g>
		<path d="M499.2,486.402h-38.4v-204.8h25.6c10.351,0,19.686-6.238,23.654-15.804c3.959-9.566,1.775-20.574-5.547-27.904
			l-230.4-230.4C269.107,2.502,262.554,0.002,256,0.002s-13.107,2.5-18.099,7.501L166.4,78.995V51.202c0-14.14-11.46-25.6-25.6-25.6
			h-25.6c-14.14,0-25.6,11.46-25.6,25.6v104.593L7.501,237.894c-7.322,7.322-9.515,18.33-5.547,27.904
			c3.959,9.566,13.295,15.804,23.646,15.804h25.6v204.8H12.8c-7.074,0-12.8,5.726-12.8,12.8c0,7.074,5.726,12.8,12.8,12.8h486.4
			c7.074,0,12.8-5.726,12.8-12.8C512,492.128,506.274,486.402,499.2,486.402z M115.2,51.202h25.6v53.393l-25.6,25.6V51.202z
			 M294.4,486.402h-76.8v-179.2h76.8V486.402z M435.2,486.402H320v-179.2c0-14.14-11.46-25.6-25.6-25.6h-76.8
			c-14.14,0-25.6,11.46-25.6,25.6v179.2H76.8v-230.4H25.6L256,25.602l230.4,230.4h-51.2V486.402z"/>
	</g>
</g>
<g>
</g>
<g>
</g>
<g>
</g>
<g>
</g>
<g>
</g>
<g>
</g>
<g>
</g>
<g>
</g>
<g>
</g>
<g>
</g>
<g>
</g>
<g>
</g>
<g>
</g>
<g>
</g>
<g>
</g>
</svg>
