<?xml version="1.0" encoding="UTF-8"?>
<!DOCTYPE svg PUBLIC "-//W3C//DTD SVG 1.1//EN" "http://www.w3.org/Graphics/SVG/1.1/DTD/svg11.dtd">
<!-- Creator: CorelDRAW -->
<svg xmlns="http://www.w3.org/2000/svg" xml:space="preserve" width="30px" height="30px" style="shape-rendering:geometricPrecision; text-rendering:geometricPrecision; image-rendering:optimizeQuality; fill-rule:evenodd; clip-rule:evenodd"
viewBox="0 0 210 188"
 xmlns:xlink="http://www.w3.org/1999/xlink">
 <defs>
  <style type="text/css">
   <![CDATA[
    .fil0 {fill:#71625B}
   ]]>
  </style>
 </defs>
 <g id="Layer_x0020_1">
  <metadata id="CorelCorpID_0Corel-Layer"/>
  <path class="fil0" d="M209.176 187.081l-20.3491 0c0,-10.1748 -10.2786,-17.6754 -30.836,-22.4675 -10.0353,-2.396 -29.0995,-4.8265 -57.1576,-7.3267 -20.5574,-1.771 -30.8359,-4.1326 -30.8359,-7.1188 0,-5.8339 14.272,-10.0357 42.851,-12.6401l-22.6061 0c-31.8777,2.535 -47.8166,7.0839 -47.8166,13.647 0,5.7645 6.8756,10.0008 20.557,12.7094 12.675,2.2574 25.3844,4.4795 38.059,6.737 13.6819,3.5071 20.5574,8.9935 20.5574,16.4597l-120.774 0 0 -96.8489 14.6539 0 0 -14.5497 -3.6806 3.056 -7.5007 -10.7998 24.7938 -19.2028 0 -4.7921 -3.2294 2.6389 -6.8412 -9.6535 46.6014 -36.0099 14.0637 10.8687 0 -10.8687 12.8136 0 0 20.8351 12.3969 9.6883 14.0288 -10.9039 6.0078 4.6879 29.2036 -22.6755 15.6612 12.0844 0 -12.0844 14.133 0 0 23.1963 21.6685 16.7723 -7.5006 10.7998 -3.6806 -2.9518 0 39.8644 14.7581 0 0 96.8489zm-7.4314 -144.353l-20.0361 -15.765 0 -22.3978 -9.8623 0 0 14.8623 -17.7098 -13.9247 -27.2592 21.1477 11.39 8.8549 0 -14.9668 17.5015 0 0 28.6138 13.2303 10.0702 14.2372 0 0 22.1545 -8.6465 0 -1.3195 1.8407 -4.4795 -3.681 0 16.703 22.8838 0 0 -52.0878 5.7989 4.792 4.2712 -6.216zm-23.9948 27.4679l-24.8287 -19.4464 0 -27.641 -12.1192 0 0 18.3 -21.8769 -17.1889 -58.9978 45.9763 5.3129 7.6392 7.1184 -5.9031 0 64.2763 17.8838 0 0 -45.6637 22.3977 0 0 45.6637 52.678 0 0 -64.2763 7.1188 5.9031 5.313 -7.6392zm-74.6939 -37.4339l-12.7094 -9.7577 0 -20.2449 -8.7508 0 0 13.4038 -15.9737 -12.5011 -43.0245 33.4752 3.8545 5.5907 5.1046 -4.3754 0 8.4382 24.4119 -18.8209 15.6608 12.1192 0 -12.1192 14.1334 0 0 18.2307 17.2932 -13.4386zm-19.5157 15.1403l0 -17.8838 -9.8618 0 0 14.8278 -17.7099 -13.9246 -47.8166 37.2251 4.3754 6.2161 5.6948 -4.7921 0 52.192 14.5497 0 0 -37.1214 18.0921 0 0 37.1214 18.0224 0 0 -14.932 -7.5355 0 0 -22.1894 7.5355 0 0 -5.1046 -4.4796 3.681 -9.3413 -13.3345 28.4748 -21.981zm71.3951 70.006l-29.2733 0 0 -27.3637 29.2733 0 0 27.3637z"/>
 </g>
</svg>
