<svg id="Capa_1" data-name="Capa 1" xmlns="http://www.w3.org/2000/svg" viewBox="0 0 27.66 22.45"><path d="M17.36,5.07,15.68,3.39a1,1,0,0,0-1.36,0L1.45,16.26A1,1,0,0,0,2.8,17.62L15,5.42l12.2,12.2a1,1,0,0,0,.68.28,1,1,0,0,0,.67-.28,1,1,0,0,0,0-1.36L22.12,9.84V5.6a1,1,0,1,0-1.91,0V7.92l-1.5-1.5" transform="translate(-1.17 -3.11)"/><path d="M25.82,17.36,15.68,7.22a1,1,0,0,0-1.36,0L4.18,17.36a1,1,0,0,0-.26.5,2.12,2.12,0,0,0,0,.44v4.94a2.31,2.31,0,0,0,2.31,2.32h5a2.33,2.33,0,0,0,2.31-2.32V19.61A1.71,1.71,0,0,1,15,17.91a1.71,1.71,0,0,1,1.55,1.7v3.63a2.32,2.32,0,0,0,2.31,2.32h4.95a2.31,2.31,0,0,0,2.31-2.32V18.3a2.12,2.12,0,0,0,0-.44A1,1,0,0,0,25.82,17.36Z" transform="translate(-1.17 -3.11)"/></svg>