<?xml version="1.0" encoding="iso-8859-1"?>
<!-- Generator: Adobe Illustrator 16.0.0, SVG Export Plug-In . SVG Version: 6.00 Build 0)  -->
<!DOCTYPE svg PUBLIC "-//W3C//DTD SVG 1.1//EN" "http://www.w3.org/Graphics/SVG/1.1/DTD/svg11.dtd">
<svg version="1.1" id="Capa_1" xmlns="http://www.w3.org/2000/svg" xmlns:xlink="http://www.w3.org/1999/xlink" x="0px" y="0px"
	 width="30px" height="30px" viewBox="0 0 70.429 70.429" style="enable-background:new 0 0 70.429 70.429;"
	 xml:space="preserve">
<g>
	<g>
		<path d="M69.828,32.048l-11.422-11.42v-7.456c0-1.136-0.92-2.056-2.055-2.056c-1.139,0-2.059,0.92-2.059,2.056v3.345l-7.541-7.544
			c-0.807-0.803-2.104-0.803-2.906,0l-9.049,9.048l-3.612-3.611c-0.802-0.803-2.105-0.803-2.907,0L0.603,42.085
			c-0.803,0.804-0.803,2.104,0,2.906c0.802,0.804,2.104,0.804,2.907,0l26.223-26.224l26.223,26.224
			c0.4,0.399,0.928,0.604,1.454,0.604c0.524,0,1.052-0.201,1.452-0.604c0.803-0.804,0.803-2.104,0-2.906L45.045,28.269v-9.112
			c0-1.136-0.922-2.057-2.057-2.057s-2.057,0.921-2.057,2.057v5.002l-3.229-3.23l7.596-7.594L66.92,34.956
			c0.4,0.399,0.929,0.602,1.453,0.602c0.525,0,1.053-0.201,1.455-0.602C70.629,34.153,70.629,32.852,69.828,32.048z"/>
		<path d="M52.981,44.447L31.186,22.648c-0.386-0.385-0.909-0.602-1.453-0.602c-0.545,0-1.068,0.217-1.454,0.602L6.482,44.447
			c-0.291,0.289-0.487,0.659-0.565,1.062c-0.061,0.313-0.091,0.631-0.091,0.942V57.09c0,2.739,2.229,4.969,4.969,4.969h10.637
			c1.377,0,2.706-0.582,3.645-1.597c0.854-0.924,1.324-2.12,1.324-3.373v-7.812c0-1.896,1.453-3.479,3.33-3.658
			c1.877,0.179,3.331,1.763,3.331,3.658v7.812c0,1.253,0.47,2.449,1.324,3.373c0.938,1.014,2.267,1.596,3.646,1.596h10.64
			c2.74,0,4.969-2.229,4.969-4.969V46.452c0-0.312-0.029-0.631-0.092-0.943C53.467,45.106,53.272,44.736,52.981,44.447z"/>
	</g>
</g>
<g>
</g>
<g>
</g>
<g>
</g>
<g>
</g>
<g>
</g>
<g>
</g>
<g>
</g>
<g>
</g>
<g>
</g>
<g>
</g>
<g>
</g>
<g>
</g>
<g>
</g>
<g>
</g>
<g>
</g>
</svg>
