<svg id="Layer_1" data-name="Layer 1" xmlns="http://www.w3.org/2000/svg" width="48" height="48" viewBox="0 0 48 48"><title>Queries_Icon_48px</title><path d="M-3.36-2.17h57v57H-3.36Z" fill="none"/><path d="M33.42,31.05H31.54l-.66-.64a15.46,15.46,0,1,0-1.66,1.66l.64.67v1.87L39.94,44.7a2.5,2.5,0,0,0,3.54-3.54Zm-14.24,0A10.68,10.68,0,1,1,29.86,20.37,10.67,10.67,0,0,1,19.18,31.05Z" fill="#6fd1f6"/><rect x="15.06" y="21.63" width="4.15" height="0.8" transform="translate(-9.64 29.89) rotate(-68.47)" fill="#6fd1f6"/><rect x="27.71" y="14.46" width="5.65" height="0.8" transform="translate(-2.65 22.07) rotate(-38.22)" fill="#6fd1f6"/><rect x="32.7" y="8.33" width="5.03" height="0.8" transform="translate(19.83 41.58) rotate(-78.83)" fill="#6fd1f6"/><rect x="20.05" y="17.59" width="5.65" height="0.8" transform="translate(-2.37 3.51) rotate(-8.33)" fill="#6fd1f6"/><rect x="8.81" y="25.75" width="5.93" height="0.8" transform="translate(-5.86 3.53) rotate(-13.69)" fill="#6fd1f6"/><circle cx="15.86" cy="25.07" r="1.6" fill="none" stroke="#6fd1f6" stroke-miterlimit="10" stroke-width="0.5"/><circle cx="26.86" cy="17.41" r="1.6" fill="none" stroke="#6fd1f6" stroke-miterlimit="10" stroke-width="0.5"/><circle cx="33.69" cy="12.2" r="1.6" fill="none" stroke="#6fd1f6" stroke-miterlimit="10" stroke-width="0.5"/><circle cx="35.76" cy="5.02" r="1.6" fill="none" stroke="#6fd1f6" stroke-miterlimit="10" stroke-width="0.5"/><circle cx="18.46" cy="18.67" r="1.6" fill="none" stroke="#6fd1f6" stroke-miterlimit="10" stroke-width="0.5"/></svg>