<svg id="Layer_1" data-name="Layer 1" xmlns="http://www.w3.org/2000/svg" width="24" height="24" viewBox="0 0 24 24"><title>Stories_Icon_48px</title><path d="M0,0H24V24H0Z" fill="none"/><path d="M17.5,4.5A9.3,9.3,0,0,0,12,6,9.3,9.3,0,0,0,6.5,4.5a10.82,10.82,0,0,0-4.28.79A2,2,0,0,0,1,7.14V18.42a2,2,0,0,0,2.48,1.94,12.35,12.35,0,0,1,3-.36,10.57,10.57,0,0,1,4.56.92,2.06,2.06,0,0,0,1.87,0A10.43,10.43,0,0,1,17.49,20a12.35,12.35,0,0,1,3,.36A2,2,0,0,0,23,18.42V7.14a2,2,0,0,0-1.22-1.85A10.74,10.74,0,0,0,17.5,4.5ZM21,17.23a1,1,0,0,1-1.2,1,12.61,12.61,0,0,0-2.3-.2,12,12,0,0,0-5.5,1.5V8a12,12,0,0,1,5.5-1.5,12.69,12.69,0,0,1,2.7.28,1,1,0,0,1,.8,1Z" fill="#6fd1f6"/><path d="M12,8.63h9v9H12Z" fill="none"/><path d="M18.32,11.2l.54.54L17,13.57l-.22-.21-1-1a.37.37,0,0,0-.53,0L13,14.59a.37.37,0,1,0,.53.53l2-2,1.23,1.24a.39.39,0,0,0,.53,0l2.1-2.09.54.54a.19.19,0,0,0,.32-.14V11.07a.19.19,0,0,0-.19-.19H18.45A.19.19,0,0,0,18.32,11.2Z" fill="#6fd1f6"/></svg>