<svg id="Layer_1" data-name="Layer 1" xmlns="http://www.w3.org/2000/svg" width="24" height="24" viewBox="0 0 24 24"><title>Bicycle_Icon_24px</title><g id="bicycle"><path id="bicycle-2" data-name="bicycle" d="M8.31,14.59a3.7,3.7,0,1,1-3.7-3.69A3.7,3.7,0,0,1,8.31,14.59ZM19.39,10.9a3.69,3.69,0,1,0,3.69,3.69A3.7,3.7,0,0,0,19.39,10.9ZM4.61,14.59h6.88M8.31,8.2h7.38M4.61,14.59,8.31,8.2m11.08,6.39L14.31,5.78M6.9,5.72l4.84,8.48m-.25.39,4.2-6.39M5.3,5.72h3m5.34,0h3" fill="none" stroke="#fff" stroke-linecap="round" stroke-linejoin="round" stroke-width="1.5"/></g></svg>