<svg id="Layer_1" data-name="Layer 1" xmlns="http://www.w3.org/2000/svg" width="24" height="24" viewBox="0 0 24 24"><title>Car_Icon_24px</title><path d="M0,0H24V24H0Z" fill="none"/><path d="M18.92,6A1.49,1.49,0,0,0,17.5,5H6.5A1.5,1.5,0,0,0,5.08,6l-2,5.67a2.08,2.08,0,0,0-.11.66V19.5a1.5,1.5,0,0,0,3,0V19H18v.5a1.5,1.5,0,0,0,3,0V12.34a2.12,2.12,0,0,0-.11-.66ZM6.5,16A1.5,1.5,0,1,1,8,14.5,1.5,1.5,0,0,1,6.5,16Zm11,0A1.5,1.5,0,1,1,19,14.5,1.5,1.5,0,0,1,17.5,16ZM5,11,6.27,7.18a1,1,0,0,1,1-.68h9.56a1,1,0,0,1,.95.68L19,11Z" fill="#fff"/></svg>