<svg id="Layer_1" data-name="Layer 1" xmlns="http://www.w3.org/2000/svg" width="24" height="24" viewBox="0 0 24 24"><title>portal_icon</title><path d="M-.26-.44h24v24h-24Z" fill="none"/><path d="M22.8,19.08a1.75,1.75,0,0,0-1.95-1.54,1.61,1.61,0,0,0-.61.19l-3.59-2.47a5.11,5.11,0,0,0-.07-5.91l3-3.35a1.65,1.65,0,0,0,.8.09,1.75,1.75,0,1,0-1.95-1.53,1.58,1.58,0,0,0,.17.56L15.7,8.37a5.22,5.22,0,0,0-3.37-1.26L12,4.3a1.76,1.76,0,1,0-1.3.15L11,7.27A5.24,5.24,0,0,0,7.8,9.62L4.69,8.22a2.43,2.43,0,0,0,0-.27,1.76,1.76,0,1,0-1.54,2,1.81,1.81,0,0,0,1-.48l3.1,1.4a5.21,5.21,0,0,0,1.09,5L5.06,19.58a1.84,1.84,0,0,0-.78-.09,1.77,1.77,0,0,0-1.54,2A1.76,1.76,0,0,0,6.23,21a1.64,1.64,0,0,0-.18-.58L9.34,16.7a5.17,5.17,0,0,0,3.56.89,5.25,5.25,0,0,0,2.9-1.32l3.59,2.48a1.66,1.66,0,0,0-.08.74,1.76,1.76,0,0,0,3.49-.41Z" fill="#fff" opacity="0.6"/></svg>