<svg id="Layer_1" data-name="Layer 1" xmlns="http://www.w3.org/2000/svg" xmlns:xlink="http://www.w3.org/1999/xlink" width="24" height="24" viewBox="0 0 24 24"><defs><clipPath id="clip-path"><rect width="24" height="24" fill="none"/></clipPath></defs><title>Tools_Icon_24px</title><g clip-path="url(#clip-path)"><path d="M16.21,7.23h0a2.7,2.7,0,0,0-3.82,0L1.82,17.74a2.69,2.69,0,0,0,0,3.81h0a2.7,2.7,0,0,0,3.81,0L16.2,11A2.7,2.7,0,0,0,16.21,7.23Z" fill="#6fd1f6"/><path d="M22.67,8.27l-4.14,0a.75.75,0,0,1-.26-.05.72.72,0,0,1-.37-.37.58.58,0,0,1,0-.26V5.89A.65.65,0,0,1,18,5.42a.72.72,0,0,1,.47-.22l4.14,0a5.07,5.07,0,1,0,0,3.09Z" fill="#6fd1f6" fill-rule="evenodd"/><path d="M15.17,15.27l-.22.22a2.78,2.78,0,0,0,0,3.94l2.25,2.25a2.79,2.79,0,0,0,3.94,0l.22-.22a2.77,2.77,0,0,0,0-3.93l-2.25-2.25A2.78,2.78,0,0,0,15.17,15.27Z" fill="#6fd1f6"/><path d="M15,13.57l-1.79,1.8a.19.19,0,0,0,0,.28l1,1a.19.19,0,0,0,.28,0l1.8-1.8a.21.21,0,0,0,0-.28l-1-1A.21.21,0,0,0,15,13.57Z" fill="#6fd1f6"/><path d="M15.57,14.86l-1,1L2.86,4.24l.48-.5L3.9,3.2Z" fill="#6fd1f6" fill-rule="evenodd"/><path d="M2.08,3l.54-.54L3.9,3.2l-1,1Z" fill="#6fd1f6" fill-rule="evenodd"/></g></svg>