<svg id="Layer_1" data-name="Layer 1" xmlns="http://www.w3.org/2000/svg" width="48" height="48" viewBox="0 0 48 48"><title>Car_Icon_48px</title><path d="M0,0H48V48H0Z" fill="none"/><path d="M37.84,12A3,3,0,0,0,35,10H13a3,3,0,0,0-2.84,2L6.22,23.36A4.15,4.15,0,0,0,6,24.68V39a3,3,0,0,0,6,0V38H36v1a3,3,0,0,0,6,0V24.68a4.25,4.25,0,0,0-.22-1.32ZM13,32a3,3,0,1,1,3-3A3,3,0,0,1,13,32Zm22,0a3,3,0,1,1,3-3A3,3,0,0,1,35,32ZM10,22l2.54-7.64A2,2,0,0,1,14.44,13H33.56a2,2,0,0,1,1.9,1.36L38,22Z" fill="#fff"/></svg>