<svg id="Layer_1" data-name="Layer 1" xmlns="http://www.w3.org/2000/svg" width="48" height="48" viewBox="0 0 48 48"><title>Themes_Icon_48px</title><path d="M3.55,31.66H18.89a2.56,2.56,0,0,1,2.56,2.56V44.43A2.55,2.55,0,0,1,18.89,47H3.56A2.56,2.56,0,0,1,1,44.43V34.21A2.55,2.55,0,0,1,3.55,31.66Z" fill="#6fd1f6"/><path d="M29.11,1H44.44A2.56,2.56,0,0,1,47,3.56V13.77a2.55,2.55,0,0,1-2.55,2.55H29.11a2.56,2.56,0,0,1-2.56-2.56V3.55A2.55,2.55,0,0,1,29.11,1Z" fill="#6fd1f6"/><path d="M19,1H3.44A2.43,2.43,0,0,0,1,3.43V24.15a2.43,2.43,0,0,0,2.43,2.43H19a2.43,2.43,0,0,0,2.43-2.43V3.43A2.43,2.43,0,0,0,19,1Zm.89,10.12-5.68,5.66a1,1,0,0,1-1.43,0L9.44,13.44,4.07,18.82a1,1,0,0,1-1.43-1.43l6.09-6.1a1,1,0,0,1,1.43,0l3.34,3.34,5-5a1,1,0,0,1,1.43,1.44Z" fill="#6fd1f6"/><path d="M44.64,21.42H28.91a2.36,2.36,0,0,0-2.35,2.36V44.64A2.36,2.36,0,0,0,28.91,47H44.64A2.36,2.36,0,0,0,47,44.64V23.78A2.36,2.36,0,0,0,44.64,21.42Zm-10.46,19c0,.86-.41,1.56-.92,1.56h-.13c-.5,0-.91-.7-.91-1.56v-7.8c0-.86.41-1.56.91-1.56h.13c.51,0,.92.7.92,1.56Zm3.51,0c0,.86-.41,1.56-.91,1.56s-.91-.7-.91-1.56V28c0-.86.41-1.56.91-1.56s.91.7.91,1.56Zm3.64,0c0,.86-.41,1.56-.91,1.56s-.91-.7-.91-1.56V36.89c0-.86.41-1.56.91-1.56s.91.7.91,1.56Z" fill="#6fd1f6"/></svg>