<svg id="Layer_1" data-name="Layer 1" xmlns="http://www.w3.org/2000/svg" xmlns:xlink="http://www.w3.org/1999/xlink" width="48" height="48" viewBox="0 0 48 48"><defs><clipPath id="clip-path"><rect width="48" height="48" fill="none"/></clipPath></defs><title>Tools_Icon_48px</title><g clip-path="url(#clip-path)"><path d="M32.42,14.46h0a5.39,5.39,0,0,0-7.62,0l-21.15,21a5.39,5.39,0,0,0,0,7.62h0a5.4,5.4,0,0,0,7.63,0L32.4,22.08A5.39,5.39,0,0,0,32.42,14.46Z" fill="#6fd1f6"/><path d="M45.33,16.55l-8.27.07a1.3,1.3,0,0,1-.52-.1,1.51,1.51,0,0,1-.45-.29,1.37,1.37,0,0,1-.3-.45,1.5,1.5,0,0,1-.1-.52V11.79a1.35,1.35,0,0,1,.38-.95,1.37,1.37,0,0,1,.93-.43l8.27-.06a10.17,10.17,0,1,0,0,6.2Z" fill="#6fd1f6" fill-rule="evenodd"/><path d="M30.33,30.54,29.9,31a5.55,5.55,0,0,0,0,7.87l4.51,4.5a5.56,5.56,0,0,0,7.88,0l.43-.44a5.57,5.57,0,0,0,0-7.88l-4.51-4.5A5.57,5.57,0,0,0,30.33,30.54Z" fill="#6fd1f6"/><path d="M30.09,27.15,26.5,30.74a.4.4,0,0,0,0,.57l2,1.95a.39.39,0,0,0,.56,0l3.59-3.59a.4.4,0,0,0,0-.57l-2-2A.4.4,0,0,0,30.09,27.15Z" fill="#6fd1f6"/><path d="M31.15,29.72,29.08,31.8,5.73,8.49l.95-1L7.81,6.41Z" fill="#6fd1f6" fill-rule="evenodd"/><path d="M4.16,6,5.24,4.94,7.81,6.41,5.73,8.49Z" fill="#6fd1f6" fill-rule="evenodd"/></g></svg>