<svg id="Layer_1" data-name="Layer 1" xmlns="http://www.w3.org/2000/svg" width="346" height="476" viewBox="0 0 346 476"><title>Zone Map_Resting</title><g id="Dublin-ZoneMap"><g id="Dun_Laoghaire_Rathdown" data-name="Dun Laoghaire Rathdown"><path d="M121.69,288.83l2.3-6.31a1.13,1.13,0,0,1,1.09-.75l8.94-9.06a1.17,1.17,0,0,1,.18-.48S143,259.24,143,259l-.95-6.7,6.64-6.41,14.66-4.58,36.33-1.58a1.15,1.15,0,0,1,.45-.33l4.75-2a1.18,1.18,0,0,1,.56-.08L237.79,241a.94.94,0,0,0,.29,0l7.33-1c.11,0,3-2.31,5,1.6,3.48,6.81,6.81,21.58,6.21,21.93l-10.14,5.89a1.13,1.13,0,0,0-.31.26L243,273.47a1.16,1.16,0,0,0,.2,1.65l2.07,1.54a1.12,1.12,0,0,0,1.26.07l10.95-6.43a1.27,1.27,0,0,1,.32-.13l9.74-2.29a1.15,1.15,0,0,1,1.07,1.93l-26.49,26.41a1.18,1.18,0,0,0-.32.65l-.24,1.59a1.15,1.15,0,0,1-1.91.68l-6.52-6a1.14,1.14,0,0,1-.08-1.59L243,280a1.13,1.13,0,0,0-.33-1.76l-1.19-.64a1.17,1.17,0,0,0-1.39.24L235,283.43l-.06.06-7.51,7.15a1.13,1.13,0,0,1-.89.31l-19.13-1.76a1,1,0,0,0-.55.09l-3.79,1.58a1.15,1.15,0,0,0,.14,2.17L216,296.57l.16.05,7.8,3.44a1.15,1.15,0,0,1,.49,1.7l-1.85,2.71a1.17,1.17,0,0,1-.95.5h-6.53a1.22,1.22,0,0,1-.38-.07l-.35-.12a1.27,1.27,0,0,0-.39-.06l-3.59.07a1.14,1.14,0,0,0-.23,2.26l12,2.79a1.24,1.24,0,0,0,.27,0l9.21-.08a40.24,40.24,0,0,0,3.66,2.06,23.21,23.21,0,0,0,4.35,0,1.5,1.5,0,0,0,.69.23c-2.7.36-5.17.72-7.87,1.08l-.09,0-10,2.47a1.18,1.18,0,0,1-.27,0l-8,0a1.15,1.15,0,0,0-1.14,1.25l1.24,13.69a1,1,0,0,0,.09.34l2.84,6.81c.06.14,2.29,5.15,1.66,5.64-1.69,1.33-7.64-1.24-7.64-1.24a1.12,1.12,0,0,1-.72.12l-9.69-1.55a1.19,1.19,0,0,0-.46,0L185.57,346a111,111,0,0,1-14.43,6.87c-5.25,1.94-10.49,2.42-10.76,2.17l-6.88-6.16a1.16,1.16,0,0,1-.24-1.4l2.1-3.91a1.15,1.15,0,0,0-.68-1.65l-24.1-7a1.13,1.13,0,0,1-.65-.48s-25.94-14.65-26-15.16c0,0-3.44-8.56-.08-14.23C108.68,296.77,121,290.33,121.69,288.83Z" fill="#4c95bd" stroke="#6fc6f6" stroke-miterlimit="10"/></g><g id="Dublin_City" data-name="Dublin City"><path d="M273.64,398.56l4.78,32.1s0,.1,0,.15l.1,8.72a1.16,1.16,0,0,1-.45.94l-3.4,2.69a1.32,1.32,0,0,1-1.88-.26h0a1.32,1.32,0,0,0-2-.15l-9.18,9.44a1.36,1.36,0,0,1-1.18.37l-15.79-2.77a1.31,1.31,0,0,1-.6-.27l-7.22-5.91a1.43,1.43,0,0,1-.3-.35L230.72,433a1.32,1.32,0,0,0-1.5-.59l-8,2.28-6.67,2a1.25,1.25,0,0,0-.89,1.17l0,2.28a1.25,1.25,0,0,1-1.34,1.22l-7.64-.35a1.32,1.32,0,0,0-1,.42l-7,7.63a1.32,1.32,0,0,1-1.21.4l-14-2.57a1.18,1.18,0,0,1-.54-.23l-21.86-16.09a1.19,1.19,0,0,1-.49-1.1l2.18-16.89a1.19,1.19,0,0,0,0-.42l-2.21-9a1.24,1.24,0,0,1,0-.27V392.56a1.19,1.19,0,0,1,.47-.94l11-8.38a1.17,1.17,0,0,0,.47-.94v-3.47a1.2,1.2,0,0,1,.38-.86l2.23-2.11a1.15,1.15,0,0,0,.37-.85v-9.46a1.32,1.32,0,0,0-.08-.44L169,354.53a1.17,1.17,0,0,1,.5-1.45L181,346a1.34,1.34,0,0,1,.68-.19l3.05,0a1.25,1.25,0,0,0,.68-.19l11.49-7a1.35,1.35,0,0,1,.9-.18l20.5,3.21a1.43,1.43,0,0,1,.44.15l14.05,7.89.08,0,14.43,6.83a1.33,1.33,0,0,0,1.31-.1L258.2,350a1.36,1.36,0,0,1,.92-.21l5,.68a1.24,1.24,0,0,1,1.06,1l2.47,11.07a1.19,1.19,0,0,0,.49.73l14,9.75a1.19,1.19,0,0,1,.4.46l3.81,7.6a1.17,1.17,0,0,1-.41,1.49L278,388.06a1.23,1.23,0,0,0-.44.54l-3.8,9.35A1.16,1.16,0,0,0,273.64,398.56Z" fill="#4c95bd" stroke="#6fd1f6" stroke-miterlimit="10"/></g><g id="South_Dublin" data-name="South Dublin"><path d="M47.15,286.65l-13,11.74a2,2,0,0,0-.62,1.94L36.14,312a2.08,2.08,0,0,1,0,1.08L31.46,327a2,2,0,0,1-1.92,1.38H17a2,2,0,0,0-2,1.62l-1.33,6.6a2.06,2.06,0,0,1-.72,1.17l-6.31,5.09a2,2,0,0,0-.47,2.59l7.81,7.2a54.75,54.75,0,0,1-.28,6.19,58,58,0,0,1-1.09,6.87l-10,7.78a2,2,0,0,0,.25,2.76l6.65,5.91a2,2,0,0,0,.68.39l11.37,4a2,2,0,0,1,.61,3.46l-9.06,7.41-3.37,3A2,2,0,0,0,9.5,403l2.36,3.5a2,2,0,0,0,1.63.88l4.48.09a2,2,0,0,1,.64.11l28.45,10.07a2,2,0,0,1,1.34,1.9v2.89a2,2,0,0,0,1.61,2l7.08,1.45a1.6,1.6,0,0,0,.49,0L79.06,425a2,2,0,0,1,1.79,1l11.9,19.17a2,2,0,0,0,2.65.72l6.6-3.46a2.12,2.12,0,0,1,1.16-.22l7.36.83a2,2,0,0,1,1.8,2v21a2,2,0,0,0,.91,1.69l8.86,5.76a2.08,2.08,0,0,0,1.23.33l19.77-1.31a2,2,0,0,0,1.76-1.32l3.32-9.07a2.36,2.36,0,0,0,.1-.38l4.12-26.12a2,2,0,0,1,.75-1.28l6-4.67a2,2,0,0,0,.69-1l2.51-7.93a2,2,0,0,0,.09-.76l-.36-4.83a1.88,1.88,0,0,0-.05-.33l-2.32-9.65a1.84,1.84,0,0,1-.06-.47l0-10.31a2,2,0,0,1,.83-1.63l7.4-5.39a2.11,2.11,0,0,0,.23-.19l2.89-2.85a2,2,0,0,0,.61-1.46l0-3.27a2,2,0,0,1,.64-1.5l1.72-1.59a2,2,0,0,0,.64-1.49l0-9.45a2,2,0,0,0-.14-.72l-4.1-10.55a2,2,0,0,1,.72-2.38l1.73-1.22a2,2,0,0,0-.85-3.64l-.18,0a2,2,0,0,0-1.74.57l-5.16,5.16a2,2,0,0,1-3-.17L156,345.21a2,2,0,0,1-.05-2.44,2,2,0,0,0-1-3.12l-14.11-4.32a1.94,1.94,0,0,1-.81-.47l-15-14.43a2,2,0,0,0-1.93-.49l-9.72,2.66a2,2,0,0,1-2.32-1L103.79,308a2,2,0,0,1,1.13-2.86l11.73-4a2,2,0,0,0,1.26-1.25l1.52-4.38a2.07,2.07,0,0,0-.05-1.45L117,288.4a2,2,0,0,0-1.82-1.23l-25-.42a2,2,0,0,1-1.55-.76l-2.84-3.58a2,2,0,0,0-1.58-.77H72a2.05,2.05,0,0,0-1.26.44L58.8,291.63a2,2,0,0,1-2.5,0l-6.57-5.1A2,2,0,0,0,47.15,286.65Z" fill="#4c95bd" stroke="#6fc6f6" stroke-miterlimit="10"/></g><g id="Fingal"><path d="M48,287.1c-1.58-1.64,12.62-32.34,19.89-38.33a2,2,0,0,0,.66-1c1.88-5.73,13.33-25,14.7-29.38q1.64-5.22,3.14-10.33a2.14,2.14,0,0,1,2.4-1.49l12.71,2.25a2.13,2.13,0,0,0,1.76-.49l7.42-6.42a2.31,2.31,0,0,1,.64-.38l9.78-3.72a2.12,2.12,0,0,0,1.36-1.9c.11-3.39.2-4.91.19-12.69a2.25,2.25,0,0,1,.09-.64A144.19,144.19,0,0,1,135,155.9a2.12,2.12,0,0,0-1.81-3.21h-.68a2.09,2.09,0,0,1-1.57-.7L119.31,139.1a1.93,1.93,0,0,0-.3-.27C116.6,137,87.92,115.35,80.25,107a2.12,2.12,0,0,1-.53-1.8l.48-2.73a2.12,2.12,0,0,0-1.1-2.25l-5.91-3.07a2.09,2.09,0,0,1-1.14-1.92c.19-7.1,5-21.71,10.49-28.12a2.16,2.16,0,0,1,1.62-.75h6a2.12,2.12,0,0,0,1.5-.62l9.87-9.86a2.13,2.13,0,0,0,.54-2.07l-1-3.42a2.12,2.12,0,0,1,2.08-2.69c7.25.14,18.09,3.06,23.79,6.24a2.11,2.11,0,0,1,.94,2.61c-.49,1.28-1,2.56-1.48,3.84a2.12,2.12,0,0,0,2.33,2.85l2.83-.48A2.13,2.13,0,0,1,134,64.15h0a2.11,2.11,0,0,0,3.36.92l17-14.3a1.61,1.61,0,0,1,.3-.21l18.5-10.83a2.12,2.12,0,0,0,1-1.83V26a1.87,1.87,0,0,0-.08-.57c-1.77-5.77,11.72-19.81,17-23.67a2.11,2.11,0,0,1,2.81.29l4.38,4.84a2.08,2.08,0,0,0,2,.65c4.21-.87,18.49-3.72,23.47-3.17a2.13,2.13,0,0,1,1.85,1.79q.93,6.27,1.88,12.55a2.1,2.1,0,0,0,.53,1.11c3.12,3.4,22,24.1,24.78,31.31a2.14,2.14,0,0,0,1.8,1.36,88.93,88.93,0,0,1,16.9,3.84,2.11,2.11,0,0,0,2.1-.35l2.25-1.86a2.11,2.11,0,0,1,3.29.78c1.84,4.21,3.71,11.14,3.7,15.6a2.1,2.1,0,0,0,.62,1.49l9.15,9.18a2.13,2.13,0,0,1,.61,1.36l.67,10.23v15.1a2.07,2.07,0,0,1-.18.88l-2.05,4.53a2.12,2.12,0,0,0,.34,2.28l4.55,5.12a2.11,2.11,0,0,1-1,3.43c-2.5.73-6.08.87-8,0a2.11,2.11,0,0,0-2.25.31l-7.14,6a2.16,2.16,0,0,1-.85.44c-6.07,1.47-16.82-3.73-23.18-3.57a2.12,2.12,0,0,0-1.62.85l-9.3,12.5a2.12,2.12,0,0,0,1.7,3.38h17.6a2.12,2.12,0,0,0,2-2.74l-1.33-4.35a2.12,2.12,0,0,1,1.93-2.73l2.91-.13A2.11,2.11,0,0,1,270,135l5.39,9.43a2.14,2.14,0,0,0,.54.62l7.53,5.84a2.13,2.13,0,0,1,.8,1.94c-.67,5.36-9,14.6-13.26,15.74a2.15,2.15,0,0,0-1.42,1.29l-7.4,18.62a2.18,2.18,0,0,1-.4.63l-2.17,2.42a2.12,2.12,0,0,1-3.25-.12l-2.59-3.33a2.12,2.12,0,0,1-.37-1.88c.85-3,2.7-9.5,3.49-12.3a2.11,2.11,0,0,0-.69-2.21l-2.64-2.18a2.14,2.14,0,0,0-1.15-.48l-1.57-.14a2.12,2.12,0,0,0-2.31,2.11v1.26a2.12,2.12,0,0,1-2,2.12l-12.87.7a1.85,1.85,0,0,0-.46.08,99.09,99.09,0,0,1-11,1.68,2.11,2.11,0,0,0-.72,4l22.33,11.22,22.58,12a2.13,2.13,0,0,1,1.13,1.86l0,12.25a2,2,0,0,0,.06.49l5.92,24.58a2.13,2.13,0,0,1,0,.94l-.05.23a2.11,2.11,0,0,1-3.73.87c-1.24-1.57-2.47-3.15-3.7-4.72a2.42,2.42,0,0,1-.25-.4c-1.26-2.67-2.52-5.33-3.77-8a2.12,2.12,0,0,0-3.81-.05l-.45.91a2.08,2.08,0,0,0-.06,1.79l5.65,13.09a2.17,2.17,0,0,0,.56.75l7.76,6.77a2.12,2.12,0,0,0,2,.45l3.74-1a2.44,2.44,0,0,1,.85-.06L297.55,258l.68,1.83c.13,0,.75-.05,1.84,0,.2,0,.48-1.15.68-1.15,1,0,2.75.23,2.75.23l.69,1.15,2.75.46.87,1.52a2.16,2.16,0,0,0,1.08.29h3.88a2.12,2.12,0,0,1,2.1,2.39L312.25,285a2.12,2.12,0,0,1-2.42,1.82l-7-1.09a2.11,2.11,0,0,0-2,.84l-2.24,3a2.11,2.11,0,0,1-2.75.59c-4.47-2.57-11.42-8.73-14-14a2.54,2.54,0,0,1-.19-.61q-.83-5.59-1.66-11.19a2.11,2.11,0,0,0-2.27-1.8L258,264.16a2.1,2.1,0,0,1-1-.17l-8.36-3.63a2.11,2.11,0,0,1-1.2-2.5l2.48-9a2.12,2.12,0,0,0,0-1L248.8,242a2.12,2.12,0,0,0-2.44-1.68l-18,3.2a2.26,2.26,0,0,1-.86,0l-21.22-5a2.27,2.27,0,0,0-.9,0l-3.45.69a2.13,2.13,0,0,0-1.44,1l-6.14,11a2.12,2.12,0,0,1-3.08.7c-6.43-4.54-19.56-8.46-26.71-8.44a2.11,2.11,0,0,0-2.09,2.25l0,.54a2.11,2.11,0,0,1-2.39,2.23l-10.53-1.4a2.11,2.11,0,0,0-1.57.42c-2.84,2.24-5.89,10.5-5,14a2.09,2.09,0,0,1-.3,1.78l-6.08,8.43a2.08,2.08,0,0,0-.39,1.07L136,276.5a2.12,2.12,0,0,1-1.21,1.74l-8.91,4.2a2.11,2.11,0,0,0-1.21,1.8l-.57,10.07a2.11,2.11,0,0,1-2.07,2l-1.67,0a2.13,2.13,0,0,1-1.77-.88l-4.61-6.4a2.1,2.1,0,0,0-2-.85l-13.73,2a2.22,2.22,0,0,1-1.11-.14c-2.56-1-13.8-5.62-21.79-8.1a2.12,2.12,0,0,0-2.16.55l-5.33,5.52a1.86,1.86,0,0,1-.41.33l-7,4.3a2.07,2.07,0,0,1-1.31.3l-5.82-.54a2.13,2.13,0,0,1-1.41-.72Z" fill="#4c95bd" stroke="#6fc6f6" stroke-miterlimit="10"/><path d="M299.67,241.24,302,244a1,1,0,0,0,.94.32l1.26-.25a1,1,0,0,0,.78-1.09l-.48-3.61a.81.81,0,0,1,0-.31l.55-2.93a.94.94,0,0,0,0-.5l-.32-1a1,1,0,0,0-1.16-.64l-2,.47a1,1,0,0,1-.7-.1l-2.9-1.6a1,1,0,0,0-1.17.16l0,0a1,1,0,0,0,.15,1.5h0a1,1,0,0,1,.42.82l0,3.78v.64a1,1,0,0,0,.71.94l1.17.33A1,1,0,0,1,299.67,241.24Z" fill="#4c95bd" stroke="#6fc6f6" stroke-miterlimit="10"/><path d="M328.25,157.51l.89-.86a.24.24,0,0,1,.39.06l.47.89a.23.23,0,0,0,.22.14h3.41a.28.28,0,0,0,.17-.07l2.6-2.38a.23.23,0,0,0,.08-.18V153a.25.25,0,0,0-.25-.25.25.25,0,0,1-.22-.38l1-1.71v0l1.71-3.47a.31.31,0,0,1,.17-.13l4.19-.92.07,0,1-.6a.22.22,0,0,0,.12-.21v-.85a.24.24,0,0,0-.13-.22l-2.72-1.48a.27.27,0,0,0-.12,0l-.86,0a.14.14,0,0,0-.11,0l-1,.45a.25.25,0,0,1-.27,0l-.42-.36a.27.27,0,0,1-.08-.19l0-2.84a.25.25,0,0,0-.25-.25h-2a.25.25,0,0,0-.14,0l-1.86,1.25,0,0-4.7,1.89a4.55,4.55,0,0,0-1.12.69c-.12.12,0,.44,0,.46s-.17.09-.23,0a3,3,0,0,1-.23-1,.25.25,0,0,0-.09-.19l-3-2.36a.16.16,0,0,1-.07-.09l-.41-.87a.25.25,0,0,0-.37-.1l-1.2.86a.25.25,0,0,0-.08.3l.87,2a.27.27,0,0,1-.1.32l-2.56,1.5a.25.25,0,0,0-.12.22v.71a.24.24,0,0,0,.29.24l.59-.1a.26.26,0,0,1,.27.36l-1.37,2.7a.24.24,0,0,1-.09.11l-2.09,1.26a.24.24,0,0,0-.12.21v.72a.25.25,0,0,0,.28.25l2.68-.33a.24.24,0,0,1,.16,0l2.22,1.44.09,0,2.14.41a.24.24,0,0,1,.2.26l-.07,1.32a.28.28,0,0,0,0,.13l1.73,3.3A.26.26,0,0,0,328.25,157.51Z" fill="#4c95bd" stroke="#6fc6f6" stroke-miterlimit="10"/></g></g></svg>
