<svg width="1024" height="1400" viewBox="0 0 1024 1400" fill="none" xmlns="http://www.w3.org/2000/svg">
<g clip-path="url(#clip0)">
<path d="M364.297 -1072.3L244.734 -759.091C242.242 -752.702 241.513 -745.764 242.622 -739.001C243.731 -732.238 246.638 -725.899 251.039 -720.647L397.086 -544.614C401.785 -539.418 405.027 -533.073 406.483 -526.219L447.779 -248.356C449.048 -240.323 447.723 -232.091 443.993 -224.857C440.264 -217.622 434.326 -211.761 427.041 -208.125L213.179 -98.8802C205.077 -94.9253 198.627 -88.2426 194.966 -80.0083C191.305 -71.774 190.668 -62.5159 193.165 -53.8642L227.906 70.137C230.227 78.8502 229.485 88.0979 225.806 96.3373L162.479 238.003C158.649 246.44 158.009 255.975 160.679 264.84C163.349 273.706 169.147 281.299 176.998 286.213L372.836 340.808C391.222 375.808 407.608 411.823 421.917 448.679C438.166 489.985 451.918 532.23 463.1 575.188L360.246 794.818C358.248 804.499 360.077 814.573 365.348 822.93C370.619 831.287 378.924 837.279 388.523 839.65L553.354 882.379C558.254 883.605 563.348 883.849 568.344 883.098L797.055 852.176C803.865 851.156 810.822 851.989 817.195 854.587C823.567 857.186 829.118 861.454 833.265 866.942C837.411 872.431 839.998 878.936 840.754 885.773C841.511 892.611 840.408 899.528 837.562 905.795L747.52 1110.93L716.148 1191.39C713.24 1200 713.49 1209.35 716.852 1217.79C720.215 1226.22 726.471 1233.18 734.502 1237.42L805.202 1276.48C810.607 1279.46 816.655 1281.08 822.828 1281.22C829.002 1281.36 835.119 1280 840.657 1277.27L917.844 1239.77C921.574 1237.9 925.584 1236.65 929.716 1236.07L1502.53 1159.74C1510.44 1158.66 1518.48 1160.07 1525.54 1163.78C1532.6 1167.48 1538.33 1173.31 1541.91 1180.43L1567.06 1229.65C1570.99 1237.72 1577.63 1244.15 1585.83 1247.82C1594.03 1251.48 1603.27 1252.15 1611.91 1249.69L1745.28 1212.71C1748.26 1211.72 1751.08 1210.29 1753.63 1208.44L2112.22 1006.16C2118.28 1002.84 2125.13 1001.22 2132.03 1001.47C2138.94 1001.72 2145.65 1003.84 2151.44 1007.59L2521.18 1230.44C2529.51 1235.54 2539.48 1237.26 2549.05 1235.25C2558.62 1233.23 2567.06 1227.64 2572.64 1219.62L2655.09 1103.19C2659.62 1096.97 2665.82 1092.17 2672.96 1089.33L2805.71 1039.35C2814.58 1035.89 2824.43 1035.85 2833.32 1039.25C2842.21 1042.65 2849.52 1049.24 2853.8 1057.74L3036.51 1415.42C3039.4 1421.15 3043.67 1426.07 3048.95 1429.71C3054.24 1433.36 3060.35 1435.62 3066.74 1436.28L3267.95 1457.2C3276.24 1458.03 3284.58 1456.25 3291.8 1452.11L3617.57 1257.56C3624.02 1253.76 3629.21 1248.15 3632.5 1241.42C3635.8 1234.7 3637.05 1227.17 3636.1 1219.75L3613.81 1036.34C3613.48 1033.85 3612.94 1031.4 3612.21 1029L3455.21 548.215C3452.11 538.911 3452.7 528.767 3456.87 519.88L3518.56 388.068C3521.95 380.888 3523.02 372.835 3521.63 365.024L3495.44 208.09C3494.65 203.229 3492.93 198.567 3490.37 194.361L3442.2 115.23C3441.12 113.395 3439.87 111.66 3438.48 110.045L3314.95 -34.1075C3312.93 -36.3709 3311.21 -38.8859 3309.84 -41.5901L3220.14 -217.195C3217.35 -222.603 3215.89 -228.599 3215.89 -234.685C3215.88 -240.771 3217.33 -246.772 3220.11 -252.189L3299.42 -408.461C3300.3 -410.152 3301.06 -411.903 3301.69 -413.701L3326.18 -487.421C3327.87 -492.345 3328.54 -497.562 3328.14 -502.751C3327.75 -507.941 3326.3 -512.994 3323.88 -517.602L3295.43 -573.298C3292.9 -578.043 3291.41 -583.267 3291.04 -588.63C3290.67 -593.992 3291.44 -599.373 3293.29 -604.422L3308.79 -646.488C3310.63 -651.507 3311.4 -656.854 3311.05 -662.186C3310.7 -667.517 3309.23 -672.714 3306.74 -677.443L3224.52 -838.4C3222.35 -842.583 3219.41 -846.327 3215.87 -849.443L3054.16 -993.419C3047.67 -999.12 3043.31 -1006.85 3041.78 -1015.35C3040.25 -1023.85 3041.64 -1032.62 3045.73 -1040.23L3064.62 -1076.08C3068.38 -1082.87 3069.99 -1090.63 3069.23 -1098.35C3068.47 -1106.07 3065.38 -1113.37 3060.38 -1119.29C3055.37 -1125.21 3048.68 -1129.47 3041.19 -1131.5C3033.71 -1133.54 3025.78 -1133.25 3018.45 -1130.67L3015.38 -1129.1C3009.58 -1127.22 3004.31 -1123.99 3000.01 -1119.66C2995.72 -1115.34 2992.51 -1110.05 2990.67 -1104.24L2947.56 -971.398C2945.92 -966.208 2943.2 -961.426 2939.56 -957.371C2935.93 -953.316 2931.47 -950.081 2926.49 -947.882C2921.51 -945.683 2916.12 -944.569 2910.67 -944.617C2905.23 -944.665 2899.86 -945.872 2894.92 -948.159L2730.17 -1023.14C2722.46 -1026.6 2716.11 -1032.51 2712.12 -1039.94C2708.13 -1047.38 2706.71 -1055.94 2708.09 -1064.27C2709.18 -1070.32 2708.79 -1076.55 2706.96 -1082.42C2705.13 -1088.29 2701.91 -1093.63 2697.57 -1097.99C2693.23 -1102.35 2687.91 -1105.6 2682.04 -1107.46C2676.18 -1109.33 2669.95 -1109.75 2663.89 -1108.7L2385.66 -1059.36C2379.71 -1058.21 2373.56 -1058.53 2367.76 -1060.31L1986.4 -1175.41C1980 -1177.37 1973.21 -1177.61 1966.68 -1176.13C1960.16 -1174.64 1954.14 -1171.48 1949.22 -1166.94L1806.59 -1036.96C1800.14 -1030.96 1791.81 -1027.37 1783.02 -1026.79C1774.22 -1026.21 1765.5 -1028.68 1758.33 -1033.78L1516.01 -1202.09C1511.37 -1205.25 1507.48 -1209.39 1504.62 -1214.22C1501.76 -1219.05 1500 -1224.45 1499.47 -1230.04C1498.93 -1235.63 1499.63 -1241.27 1501.52 -1246.56C1503.41 -1251.85 1506.44 -1256.66 1510.4 -1260.65L1675.65 -1430.96C1679.78 -1435.17 1682.89 -1440.26 1684.73 -1445.86C1686.57 -1451.46 1687.1 -1457.4 1686.26 -1463.23L1674.08 -1551.08C1672.66 -1560.52 1667.88 -1569.14 1660.61 -1575.34L1570.77 -1651.01C1565.08 -1655.83 1558.09 -1658.89 1550.67 -1659.79C1543.25 -1660.7 1535.73 -1659.42 1529.03 -1656.1L1099.02 -1445.46C1093.9 -1442.91 1088.27 -1441.54 1082.55 -1441.44C1076.84 -1441.34 1071.17 -1442.53 1065.97 -1444.91L986.389 -1481.14C981.105 -1483.6 975.326 -1484.82 969.495 -1484.71C963.664 -1484.59 957.935 -1483.15 952.744 -1480.49L744.51 -1374.12C736.728 -1370.1 730.511 -1363.6 726.849 -1355.65L606.31 -1088.97C602.731 -1081.05 596.559 -1074.57 588.809 -1070.61C581.059 -1066.65 572.194 -1065.45 563.674 -1067.19L407.254 -1096.82C398.354 -1098.47 389.156 -1096.91 381.292 -1092.42C373.428 -1087.93 367.407 -1080.8 364.297 -1072.3Z" fill="#293135" stroke="#2D7D9A" stroke-opacity="0.38" stroke-miterlimit="10"/>
<path d="M631.47 675.27C630.475 674.248 629.257 673.471 627.91 673C628.863 672.347 629.581 671.406 629.96 670.315C630.339 669.224 630.359 668.04 630.017 666.937C629.675 665.834 628.989 664.869 628.06 664.184C627.13 663.499 626.005 663.129 624.85 663.129C623.695 663.129 622.57 663.499 621.64 664.184C620.711 664.869 620.025 665.834 619.683 666.937C619.341 668.04 619.361 669.224 619.74 670.315C620.119 671.406 620.837 672.347 621.79 673C619.95 673.637 618.354 674.832 617.225 676.418C616.095 678.004 615.489 679.903 615.49 681.85H617C617 680.813 617.204 679.786 617.601 678.827C617.998 677.869 618.58 676.998 619.314 676.264C620.047 675.531 620.918 674.949 621.877 674.552C622.835 674.155 623.863 673.95 624.9 673.95C625.937 673.95 626.965 674.155 627.923 674.552C628.882 674.949 629.753 675.531 630.486 676.264C631.22 676.998 631.802 677.869 632.199 678.827C632.596 679.786 632.8 680.813 632.8 681.85H634.26C634.252 680.624 634.001 679.411 633.522 678.282C633.043 677.152 632.346 676.129 631.47 675.27ZM624.85 672.53C624.071 672.53 623.309 672.3 622.661 671.868C622.012 671.436 621.506 670.822 621.206 670.103C620.905 669.384 620.824 668.593 620.973 667.828C621.121 667.063 621.492 666.359 622.04 665.805C622.587 665.251 623.286 664.87 624.049 664.712C624.812 664.554 625.605 664.626 626.327 664.917C627.05 665.208 627.67 665.707 628.11 666.35C628.55 666.993 628.79 667.751 628.8 668.53C628.8 669.583 628.386 670.593 627.646 671.341C626.907 672.09 625.902 672.517 624.85 672.53Z" fill="#2D7D9A"/>
<path d="M617.72 682.22C616.715 681.222 615.498 680.463 614.16 680C615.111 679.343 615.827 678.4 616.204 677.307C616.581 676.215 616.598 675.03 616.254 673.927C615.91 672.824 615.223 671.859 614.292 671.174C613.361 670.49 612.236 670.12 611.08 670.12C609.924 670.12 608.799 670.49 607.868 671.174C606.937 671.859 606.25 672.824 605.906 673.927C605.562 675.03 605.579 676.215 605.956 677.307C606.333 678.4 607.049 679.343 608 680C606.663 680.469 605.449 681.235 604.45 682.24C603.576 683.106 602.883 684.138 602.411 685.274C601.939 686.41 601.697 687.629 601.7 688.86H603.2C603.162 687.8 603.338 686.742 603.718 685.752C604.098 684.761 604.674 683.857 605.41 683.093C606.147 682.329 607.03 681.722 608.007 681.307C608.984 680.893 610.034 680.679 611.095 680.679C612.156 680.679 613.206 680.893 614.183 681.307C615.16 681.722 616.043 682.329 616.78 683.093C617.516 683.857 618.092 684.761 618.472 685.752C618.851 686.742 619.028 687.8 618.99 688.86H620.46C620.465 687.627 620.226 686.405 619.755 685.265C619.285 684.126 618.593 683.09 617.72 682.22ZM611.1 679.47C610.317 679.48 609.548 679.257 608.892 678.829C608.236 678.401 607.722 677.787 607.415 677.067C607.109 676.346 607.023 675.55 607.17 674.78C607.317 674.011 607.689 673.302 608.239 672.745C608.79 672.188 609.493 671.806 610.261 671.65C611.028 671.493 611.825 671.569 612.55 671.866C613.274 672.164 613.894 672.67 614.331 673.32C614.767 673.971 615 674.737 615 675.52C614.987 676.555 614.574 677.545 613.847 678.282C613.119 679.018 612.135 679.444 611.1 679.47Z" fill="#2D7D9A"/>
<path d="M645.23 682.22C644.225 681.221 643.008 680.462 641.67 680C642.624 679.345 643.344 678.402 643.724 677.309C644.104 676.216 644.125 675.03 643.782 673.925C643.44 672.82 642.752 671.853 641.821 671.166C640.889 670.48 639.762 670.109 638.605 670.109C637.448 670.109 636.321 670.48 635.389 671.166C634.458 671.853 633.77 672.82 633.428 673.925C633.085 675.03 633.106 676.216 633.486 677.309C633.866 678.402 634.586 679.345 635.54 680C634.208 680.464 632.998 681.223 632 682.22C631.126 683.086 630.433 684.117 629.961 685.254C629.489 686.39 629.247 687.609 629.25 688.84H630.72C630.72 687.802 630.924 686.775 631.321 685.816C631.718 684.858 632.3 683.987 633.034 683.253C633.767 682.52 634.638 681.938 635.597 681.541C636.555 681.144 637.583 680.94 638.62 680.94C639.657 680.94 640.685 681.144 641.643 681.541C642.602 681.938 643.473 682.52 644.206 683.253C644.94 683.987 645.522 684.858 645.919 685.816C646.316 686.775 646.52 687.802 646.52 688.84H648C647.999 687.608 647.753 686.389 647.278 685.252C646.802 684.116 646.106 683.085 645.23 682.22ZM638.61 679.47C637.831 679.46 637.072 679.22 636.429 678.78C635.786 678.34 635.288 677.719 634.997 676.997C634.705 676.274 634.634 675.482 634.792 674.719C634.95 673.956 635.33 673.257 635.885 672.709C636.439 672.162 637.143 671.791 637.908 671.642C638.672 671.494 639.464 671.575 640.183 671.875C640.902 672.176 641.516 672.682 641.948 673.33C642.38 673.979 642.61 674.74 642.61 675.52C642.597 676.572 642.17 677.576 641.421 678.316C640.672 679.055 639.662 679.47 638.61 679.47Z" fill="#2D7D9A"/>
<path d="M915.47 361.27C914.475 360.248 913.257 359.471 911.91 359C912.863 358.347 913.581 357.406 913.96 356.315C914.339 355.224 914.359 354.04 914.017 352.937C913.675 351.834 912.989 350.869 912.06 350.184C911.13 349.499 910.005 349.129 908.85 349.129C907.695 349.129 906.57 349.499 905.64 350.184C904.711 350.869 904.025 351.834 903.683 352.937C903.341 354.04 903.361 355.224 903.74 356.315C904.119 357.406 904.837 358.347 905.79 359C903.95 359.637 902.354 360.832 901.225 362.418C900.095 364.004 899.489 365.903 899.49 367.85H901C901 366.813 901.204 365.786 901.601 364.827C901.998 363.869 902.58 362.998 903.314 362.264C904.047 361.531 904.918 360.949 905.877 360.552C906.835 360.155 907.863 359.95 908.9 359.95C909.937 359.95 910.965 360.155 911.923 360.552C912.882 360.949 913.753 361.531 914.486 362.264C915.22 362.998 915.802 363.869 916.199 364.827C916.596 365.786 916.8 366.813 916.8 367.85H918.26C918.252 366.624 918.001 365.411 917.522 364.282C917.043 363.152 916.346 362.129 915.47 361.27ZM908.85 358.53C908.071 358.53 907.309 358.3 906.661 357.868C906.012 357.436 905.506 356.822 905.206 356.103C904.905 355.384 904.824 354.593 904.973 353.828C905.121 353.063 905.492 352.359 906.04 351.805C906.587 351.251 907.286 350.87 908.049 350.712C908.812 350.554 909.605 350.626 910.327 350.917C911.05 351.208 911.67 351.707 912.11 352.35C912.55 352.993 912.79 353.751 912.8 354.53C912.8 355.583 912.386 356.593 911.646 357.341C910.907 358.09 909.902 358.517 908.85 358.53Z" fill="#2D7D9A"/>
<path d="M901.72 368.22C900.715 367.222 899.498 366.463 898.16 366C899.111 365.343 899.827 364.4 900.204 363.307C900.581 362.215 900.598 361.03 900.254 359.927C899.91 358.824 899.223 357.859 898.292 357.174C897.361 356.49 896.236 356.12 895.08 356.12C893.924 356.12 892.799 356.49 891.868 357.174C890.937 357.859 890.25 358.824 889.906 359.927C889.562 361.03 889.579 362.215 889.956 363.307C890.333 364.4 891.049 365.343 892 366C890.663 366.469 889.449 367.235 888.45 368.24C887.576 369.106 886.883 370.138 886.411 371.274C885.939 372.41 885.697 373.629 885.7 374.86H887.2C887.162 373.8 887.338 372.742 887.718 371.752C888.098 370.761 888.674 369.857 889.41 369.093C890.147 368.329 891.03 367.722 892.007 367.307C892.984 366.893 894.034 366.679 895.095 366.679C896.156 366.679 897.206 366.893 898.183 367.307C899.16 367.722 900.043 368.329 900.78 369.093C901.516 369.857 902.092 370.761 902.472 371.752C902.851 372.742 903.028 373.8 902.99 374.86H904.46C904.465 373.627 904.226 372.405 903.755 371.265C903.285 370.126 902.593 369.09 901.72 368.22ZM895.1 365.47C894.317 365.48 893.548 365.257 892.892 364.829C892.236 364.401 891.722 363.787 891.415 363.067C891.109 362.346 891.023 361.55 891.17 360.78C891.317 360.011 891.689 359.302 892.239 358.745C892.79 358.188 893.493 357.806 894.261 357.65C895.028 357.493 895.825 357.569 896.55 357.866C897.274 358.164 897.894 358.67 898.331 359.32C898.767 359.971 899 360.737 899 361.52C898.987 362.555 898.574 363.545 897.847 364.282C897.119 365.018 896.135 365.444 895.1 365.47Z" fill="#2D7D9A"/>
<path d="M929.23 368.22C928.225 367.221 927.008 366.462 925.67 366C926.624 365.345 927.344 364.402 927.724 363.309C928.104 362.216 928.125 361.03 927.782 359.925C927.44 358.82 926.752 357.853 925.821 357.166C924.889 356.48 923.762 356.109 922.605 356.109C921.448 356.109 920.321 356.48 919.389 357.166C918.458 357.853 917.77 358.82 917.428 359.925C917.085 361.03 917.106 362.216 917.486 363.309C917.866 364.402 918.586 365.345 919.54 366C918.208 366.464 916.998 367.223 916 368.22C915.126 369.086 914.433 370.117 913.961 371.254C913.489 372.39 913.247 373.609 913.25 374.84H914.72C914.72 373.802 914.924 372.775 915.321 371.816C915.718 370.858 916.3 369.987 917.034 369.253C917.767 368.52 918.638 367.938 919.597 367.541C920.555 367.144 921.583 366.94 922.62 366.94C923.657 366.94 924.685 367.144 925.643 367.541C926.602 367.938 927.473 368.52 928.206 369.253C928.94 369.987 929.522 370.858 929.919 371.816C930.316 372.775 930.52 373.802 930.52 374.84H932C931.999 373.608 931.753 372.389 931.278 371.252C930.802 370.116 930.106 369.085 929.23 368.22ZM922.61 365.47C921.831 365.46 921.072 365.22 920.429 364.78C919.786 364.34 919.288 363.719 918.997 362.997C918.705 362.274 918.634 361.482 918.792 360.719C918.95 359.956 919.33 359.257 919.885 358.709C920.439 358.162 921.143 357.791 921.908 357.642C922.672 357.494 923.464 357.575 924.183 357.875C924.902 358.176 925.516 358.682 925.948 359.33C926.38 359.979 926.61 360.74 926.61 361.52C926.597 362.572 926.17 363.576 925.421 364.316C924.672 365.055 923.662 365.47 922.61 365.47Z" fill="#2D7D9A"/>
<path d="M841.47 1189.27C840.475 1188.25 839.257 1187.47 837.91 1187C838.863 1186.35 839.581 1185.41 839.96 1184.32C840.339 1183.22 840.359 1182.04 840.017 1180.94C839.675 1179.83 838.989 1178.87 838.06 1178.18C837.13 1177.5 836.005 1177.13 834.85 1177.13C833.695 1177.13 832.57 1177.5 831.64 1178.18C830.711 1178.87 830.025 1179.83 829.683 1180.94C829.341 1182.04 829.361 1183.22 829.74 1184.32C830.119 1185.41 830.837 1186.35 831.79 1187C829.95 1187.64 828.354 1188.83 827.225 1190.42C826.095 1192 825.489 1193.9 825.49 1195.85H827C827 1194.81 827.204 1193.79 827.601 1192.83C827.998 1191.87 828.58 1191 829.314 1190.26C830.047 1189.53 830.918 1188.95 831.877 1188.55C832.835 1188.15 833.863 1187.95 834.9 1187.95C835.937 1187.95 836.965 1188.15 837.923 1188.55C838.882 1188.95 839.753 1189.53 840.486 1190.26C841.22 1191 841.802 1191.87 842.199 1192.83C842.596 1193.79 842.8 1194.81 842.8 1195.85H844.26C844.252 1194.62 844.001 1193.41 843.522 1192.28C843.043 1191.15 842.346 1190.13 841.47 1189.27ZM834.85 1186.53C834.071 1186.53 833.309 1186.3 832.661 1185.87C832.012 1185.44 831.506 1184.82 831.206 1184.1C830.905 1183.38 830.824 1182.59 830.973 1181.83C831.121 1181.06 831.492 1180.36 832.04 1179.8C832.587 1179.25 833.286 1178.87 834.049 1178.71C834.812 1178.55 835.605 1178.63 836.327 1178.92C837.05 1179.21 837.67 1179.71 838.11 1180.35C838.55 1180.99 838.79 1181.75 838.8 1182.53C838.8 1183.58 838.386 1184.59 837.646 1185.34C836.907 1186.09 835.902 1186.52 834.85 1186.53Z" fill="#2D7D9A"/>
<path d="M827.72 1196.22C826.715 1195.22 825.498 1194.46 824.16 1194C825.111 1193.34 825.827 1192.4 826.204 1191.31C826.581 1190.21 826.598 1189.03 826.254 1187.93C825.91 1186.82 825.223 1185.86 824.292 1185.17C823.361 1184.49 822.236 1184.12 821.08 1184.12C819.924 1184.12 818.799 1184.49 817.868 1185.17C816.937 1185.86 816.25 1186.82 815.906 1187.93C815.562 1189.03 815.579 1190.21 815.956 1191.31C816.333 1192.4 817.049 1193.34 818 1194C816.663 1194.47 815.449 1195.23 814.45 1196.24C813.576 1197.11 812.883 1198.14 812.411 1199.27C811.939 1200.41 811.697 1201.63 811.7 1202.86H813.2C813.162 1201.8 813.338 1200.74 813.718 1199.75C814.098 1198.76 814.674 1197.86 815.41 1197.09C816.147 1196.33 817.03 1195.72 818.007 1195.31C818.984 1194.89 820.034 1194.68 821.095 1194.68C822.156 1194.68 823.206 1194.89 824.183 1195.31C825.16 1195.72 826.043 1196.33 826.78 1197.09C827.516 1197.86 828.092 1198.76 828.472 1199.75C828.851 1200.74 829.028 1201.8 828.99 1202.86H830.46C830.465 1201.63 830.226 1200.41 829.755 1199.27C829.285 1198.13 828.593 1197.09 827.72 1196.22ZM821.1 1193.47C820.317 1193.48 819.548 1193.26 818.892 1192.83C818.236 1192.4 817.722 1191.79 817.415 1191.07C817.109 1190.35 817.023 1189.55 817.17 1188.78C817.317 1188.01 817.689 1187.3 818.239 1186.75C818.79 1186.19 819.493 1185.81 820.261 1185.65C821.028 1185.49 821.825 1185.57 822.55 1185.87C823.274 1186.16 823.894 1186.67 824.331 1187.32C824.767 1187.97 825 1188.74 825 1189.52C824.987 1190.56 824.574 1191.54 823.847 1192.28C823.119 1193.02 822.135 1193.44 821.1 1193.47Z" fill="#2D7D9A"/>
<path d="M855.23 1196.22C854.225 1195.22 853.008 1194.46 851.67 1194C852.624 1193.35 853.344 1192.4 853.724 1191.31C854.104 1190.22 854.125 1189.03 853.782 1187.92C853.44 1186.82 852.752 1185.85 851.821 1185.17C850.889 1184.48 849.762 1184.11 848.605 1184.11C847.448 1184.11 846.321 1184.48 845.389 1185.17C844.458 1185.85 843.77 1186.82 843.428 1187.92C843.085 1189.03 843.106 1190.22 843.486 1191.31C843.866 1192.4 844.586 1193.35 845.54 1194C844.208 1194.46 842.998 1195.22 842 1196.22C841.126 1197.09 840.433 1198.12 839.961 1199.25C839.489 1200.39 839.247 1201.61 839.25 1202.84H840.72C840.72 1201.8 840.924 1200.77 841.321 1199.82C841.718 1198.86 842.3 1197.99 843.034 1197.25C843.767 1196.52 844.638 1195.94 845.597 1195.54C846.555 1195.14 847.583 1194.94 848.62 1194.94C849.657 1194.94 850.685 1195.14 851.643 1195.54C852.602 1195.94 853.473 1196.52 854.206 1197.25C854.94 1197.99 855.522 1198.86 855.919 1199.82C856.316 1200.77 856.52 1201.8 856.52 1202.84H858C857.999 1201.61 857.753 1200.39 857.278 1199.25C856.802 1198.12 856.106 1197.09 855.23 1196.22ZM848.61 1193.47C847.831 1193.46 847.072 1193.22 846.429 1192.78C845.786 1192.34 845.288 1191.72 844.997 1191C844.705 1190.27 844.634 1189.48 844.792 1188.72C844.95 1187.96 845.33 1187.26 845.885 1186.71C846.439 1186.16 847.143 1185.79 847.908 1185.64C848.672 1185.49 849.464 1185.57 850.183 1185.88C850.902 1186.18 851.516 1186.68 851.948 1187.33C852.38 1187.98 852.61 1188.74 852.61 1189.52C852.597 1190.57 852.17 1191.58 851.421 1192.32C850.672 1193.06 849.662 1193.47 848.61 1193.47Z" fill="#2D7D9A"/>
<path d="M739.47 539.27C738.475 538.248 737.257 537.471 735.91 537C736.863 536.347 737.581 535.406 737.96 534.315C738.339 533.224 738.359 532.04 738.017 530.937C737.675 529.834 736.989 528.869 736.06 528.184C735.13 527.499 734.005 527.129 732.85 527.129C731.695 527.129 730.57 527.499 729.64 528.184C728.711 528.869 728.025 529.834 727.683 530.937C727.341 532.04 727.361 533.224 727.74 534.315C728.119 535.406 728.837 536.347 729.79 537C727.95 537.637 726.354 538.832 725.225 540.418C724.095 542.004 723.489 543.903 723.49 545.85H725C725 544.813 725.204 543.786 725.601 542.827C725.998 541.869 726.58 540.998 727.314 540.264C728.047 539.531 728.918 538.949 729.877 538.552C730.835 538.155 731.863 537.95 732.9 537.95C733.937 537.95 734.965 538.155 735.923 538.552C736.882 538.949 737.753 539.531 738.486 540.264C739.22 540.998 739.802 541.869 740.199 542.827C740.596 543.786 740.8 544.813 740.8 545.85H742.26C742.252 544.624 742.001 543.411 741.522 542.282C741.043 541.152 740.346 540.129 739.47 539.27ZM732.85 536.53C732.071 536.53 731.309 536.3 730.661 535.868C730.012 535.436 729.506 534.822 729.206 534.103C728.905 533.384 728.824 532.593 728.973 531.828C729.121 531.063 729.492 530.359 730.04 529.805C730.587 529.251 731.286 528.87 732.049 528.712C732.812 528.554 733.605 528.626 734.327 528.917C735.05 529.208 735.67 529.707 736.11 530.35C736.55 530.993 736.79 531.751 736.8 532.53C736.8 533.583 736.386 534.593 735.646 535.341C734.907 536.09 733.902 536.517 732.85 536.53Z" fill="#2D7D9A"/>
<path d="M725.72 546.22C724.715 545.222 723.498 544.463 722.16 544C723.111 543.343 723.827 542.4 724.204 541.307C724.581 540.215 724.598 539.03 724.254 537.927C723.91 536.824 723.223 535.859 722.292 535.174C721.361 534.49 720.236 534.12 719.08 534.12C717.924 534.12 716.799 534.49 715.868 535.174C714.937 535.859 714.25 536.824 713.906 537.927C713.562 539.03 713.579 540.215 713.956 541.307C714.333 542.4 715.049 543.343 716 544C714.663 544.469 713.449 545.235 712.45 546.24C711.576 547.106 710.883 548.138 710.411 549.274C709.939 550.41 709.697 551.629 709.7 552.86H711.2C711.162 551.8 711.338 550.742 711.718 549.752C712.098 548.761 712.674 547.857 713.41 547.093C714.147 546.329 715.03 545.722 716.007 545.307C716.984 544.893 718.034 544.679 719.095 544.679C720.156 544.679 721.206 544.893 722.183 545.307C723.16 545.722 724.043 546.329 724.78 547.093C725.516 547.857 726.092 548.761 726.472 549.752C726.851 550.742 727.028 551.8 726.99 552.86H728.46C728.465 551.627 728.226 550.405 727.755 549.265C727.285 548.126 726.593 547.09 725.72 546.22ZM719.1 543.47C718.317 543.48 717.548 543.257 716.892 542.829C716.236 542.401 715.722 541.787 715.415 541.067C715.109 540.346 715.023 539.55 715.17 538.78C715.317 538.011 715.689 537.302 716.239 536.745C716.79 536.188 717.493 535.806 718.261 535.65C719.028 535.493 719.825 535.569 720.55 535.866C721.274 536.164 721.894 536.67 722.331 537.32C722.767 537.971 723 538.737 723 539.52C722.987 540.555 722.574 541.545 721.847 542.282C721.119 543.018 720.135 543.444 719.1 543.47Z" fill="#2D7D9A"/>
<path d="M753.23 546.22C752.225 545.221 751.008 544.462 749.67 544C750.624 543.345 751.344 542.402 751.724 541.309C752.104 540.216 752.125 539.03 751.782 537.925C751.44 536.82 750.752 535.853 749.821 535.166C748.889 534.48 747.762 534.109 746.605 534.109C745.448 534.109 744.321 534.48 743.389 535.166C742.458 535.853 741.77 536.82 741.428 537.925C741.085 539.03 741.106 540.216 741.486 541.309C741.866 542.402 742.586 543.345 743.54 544C742.208 544.464 740.998 545.223 740 546.22C739.126 547.086 738.433 548.117 737.961 549.254C737.489 550.39 737.247 551.609 737.25 552.84H738.72C738.72 551.802 738.924 550.775 739.321 549.816C739.718 548.858 740.3 547.987 741.034 547.253C741.767 546.52 742.638 545.938 743.597 545.541C744.555 545.144 745.583 544.94 746.62 544.94C747.657 544.94 748.685 545.144 749.643 545.541C750.602 545.938 751.473 546.52 752.206 547.253C752.94 547.987 753.522 548.858 753.919 549.816C754.316 550.775 754.52 551.802 754.52 552.84H756C755.999 551.608 755.753 550.389 755.278 549.252C754.802 548.116 754.106 547.085 753.23 546.22ZM746.61 543.47C745.831 543.46 745.072 543.22 744.429 542.78C743.786 542.34 743.288 541.719 742.997 540.997C742.705 540.274 742.634 539.482 742.792 538.719C742.95 537.956 743.33 537.257 743.885 536.709C744.439 536.162 745.143 535.791 745.908 535.642C746.672 535.494 747.464 535.575 748.183 535.875C748.902 536.176 749.516 536.682 749.948 537.33C750.38 537.979 750.61 538.74 750.61 539.52C750.597 540.572 750.17 541.576 749.421 542.316C748.672 543.055 747.662 543.47 746.61 543.47Z" fill="#2D7D9A"/>
<path d="M583.47 814.27C582.475 813.248 581.257 812.471 579.91 812C580.863 811.347 581.581 810.406 581.96 809.315C582.339 808.224 582.359 807.04 582.017 805.937C581.675 804.834 580.989 803.869 580.06 803.184C579.13 802.499 578.005 802.129 576.85 802.129C575.695 802.129 574.57 802.499 573.64 803.184C572.711 803.869 572.025 804.834 571.683 805.937C571.341 807.04 571.361 808.224 571.74 809.315C572.119 810.406 572.837 811.347 573.79 812C571.95 812.637 570.354 813.832 569.225 815.418C568.095 817.004 567.489 818.903 567.49 820.85H569C569 819.813 569.204 818.786 569.601 817.827C569.998 816.869 570.58 815.998 571.314 815.264C572.047 814.531 572.918 813.949 573.877 813.552C574.835 813.155 575.863 812.95 576.9 812.95C577.937 812.95 578.965 813.155 579.923 813.552C580.882 813.949 581.753 814.531 582.486 815.264C583.22 815.998 583.802 816.869 584.199 817.827C584.596 818.786 584.8 819.813 584.8 820.85H586.26C586.252 819.624 586.001 818.411 585.522 817.282C585.043 816.152 584.346 815.129 583.47 814.27ZM576.85 811.53C576.071 811.53 575.309 811.3 574.661 810.868C574.012 810.436 573.506 809.822 573.206 809.103C572.905 808.384 572.824 807.593 572.973 806.828C573.121 806.063 573.492 805.359 574.04 804.805C574.587 804.251 575.286 803.87 576.049 803.712C576.812 803.554 577.605 803.626 578.327 803.917C579.05 804.208 579.67 804.707 580.11 805.35C580.55 805.993 580.79 806.751 580.8 807.53C580.8 808.583 580.386 809.593 579.646 810.341C578.907 811.09 577.902 811.517 576.85 811.53Z" fill="#2D7D9A"/>
<path d="M569.72 821.22C568.715 820.222 567.498 819.463 566.16 819C567.111 818.343 567.827 817.4 568.204 816.307C568.581 815.215 568.598 814.03 568.254 812.927C567.91 811.824 567.223 810.859 566.292 810.174C565.361 809.49 564.236 809.12 563.08 809.12C561.924 809.12 560.799 809.49 559.868 810.174C558.937 810.859 558.25 811.824 557.906 812.927C557.562 814.03 557.579 815.215 557.956 816.307C558.333 817.4 559.049 818.343 560 819C558.663 819.469 557.449 820.235 556.45 821.24C555.576 822.106 554.883 823.138 554.411 824.274C553.939 825.41 553.697 826.629 553.7 827.86H555.2C555.162 826.8 555.338 825.742 555.718 824.752C556.098 823.761 556.674 822.857 557.41 822.093C558.147 821.329 559.03 820.722 560.007 820.307C560.984 819.893 562.034 819.679 563.095 819.679C564.156 819.679 565.206 819.893 566.183 820.307C567.16 820.722 568.043 821.329 568.78 822.093C569.516 822.857 570.092 823.761 570.472 824.752C570.851 825.742 571.028 826.8 570.99 827.86H572.46C572.465 826.627 572.226 825.405 571.755 824.265C571.285 823.126 570.593 822.09 569.72 821.22ZM563.1 818.47C562.317 818.48 561.548 818.257 560.892 817.829C560.236 817.401 559.722 816.787 559.415 816.067C559.109 815.346 559.023 814.55 559.17 813.78C559.317 813.011 559.689 812.302 560.239 811.745C560.79 811.188 561.493 810.806 562.261 810.65C563.028 810.493 563.825 810.569 564.55 810.866C565.274 811.164 565.894 811.67 566.331 812.32C566.767 812.971 567 813.737 567 814.52C566.987 815.555 566.574 816.545 565.847 817.282C565.119 818.018 564.135 818.444 563.1 818.47Z" fill="#2D7D9A"/>
<path d="M597.23 821.22C596.225 820.221 595.008 819.462 593.67 819C594.624 818.345 595.344 817.402 595.724 816.309C596.104 815.216 596.125 814.03 595.782 812.925C595.44 811.82 594.752 810.853 593.821 810.166C592.889 809.48 591.762 809.109 590.605 809.109C589.448 809.109 588.321 809.48 587.389 810.166C586.458 810.853 585.77 811.82 585.428 812.925C585.085 814.03 585.106 815.216 585.486 816.309C585.866 817.402 586.586 818.345 587.54 819C586.208 819.464 584.998 820.223 584 821.22C583.126 822.086 582.433 823.117 581.961 824.254C581.489 825.39 581.247 826.609 581.25 827.84H582.72C582.72 826.802 582.924 825.775 583.321 824.816C583.718 823.858 584.3 822.987 585.034 822.253C585.767 821.52 586.638 820.938 587.597 820.541C588.555 820.144 589.583 819.94 590.62 819.94C591.657 819.94 592.685 820.144 593.643 820.541C594.602 820.938 595.473 821.52 596.206 822.253C596.94 822.987 597.522 823.858 597.919 824.816C598.316 825.775 598.52 826.802 598.52 827.84H600C599.999 826.608 599.753 825.389 599.278 824.252C598.802 823.116 598.106 822.085 597.23 821.22ZM590.61 818.47C589.831 818.46 589.072 818.22 588.429 817.78C587.786 817.34 587.288 816.719 586.997 815.997C586.705 815.274 586.634 814.482 586.792 813.719C586.95 812.956 587.33 812.257 587.885 811.709C588.439 811.162 589.143 810.791 589.908 810.642C590.672 810.494 591.464 810.575 592.183 810.875C592.902 811.176 593.516 811.682 593.948 812.33C594.38 812.979 594.61 813.74 594.61 814.52C594.597 815.572 594.17 816.576 593.421 817.316C592.672 818.055 591.662 818.47 590.61 818.47Z" fill="#2D7D9A"/>
<path d="M813.47 771.27C812.475 770.248 811.257 769.471 809.91 769C810.863 768.347 811.581 767.406 811.96 766.315C812.339 765.224 812.359 764.04 812.017 762.937C811.675 761.834 810.989 760.869 810.06 760.184C809.13 759.499 808.005 759.129 806.85 759.129C805.695 759.129 804.57 759.499 803.64 760.184C802.711 760.869 802.025 761.834 801.683 762.937C801.341 764.04 801.361 765.224 801.74 766.315C802.119 767.406 802.837 768.347 803.79 769C801.95 769.637 800.354 770.832 799.225 772.418C798.095 774.004 797.489 775.903 797.49 777.85H799C799 776.813 799.204 775.786 799.601 774.827C799.998 773.869 800.58 772.998 801.314 772.264C802.047 771.531 802.918 770.949 803.877 770.552C804.835 770.155 805.863 769.95 806.9 769.95C807.937 769.95 808.965 770.155 809.923 770.552C810.882 770.949 811.753 771.531 812.486 772.264C813.22 772.998 813.802 773.869 814.199 774.827C814.596 775.786 814.8 776.813 814.8 777.85H816.26C816.252 776.624 816.001 775.411 815.522 774.282C815.043 773.152 814.346 772.129 813.47 771.27ZM806.85 768.53C806.071 768.53 805.309 768.3 804.661 767.868C804.012 767.436 803.506 766.822 803.206 766.103C802.905 765.384 802.824 764.593 802.973 763.828C803.121 763.063 803.492 762.359 804.04 761.805C804.587 761.251 805.286 760.87 806.049 760.712C806.812 760.554 807.605 760.626 808.327 760.917C809.05 761.208 809.67 761.707 810.11 762.35C810.55 762.993 810.79 763.751 810.8 764.53C810.8 765.583 810.386 766.593 809.646 767.341C808.907 768.09 807.902 768.517 806.85 768.53Z" fill="#2D7D9A"/>
<path d="M799.72 778.22C798.715 777.222 797.498 776.463 796.16 776C797.111 775.343 797.827 774.4 798.204 773.307C798.581 772.215 798.598 771.03 798.254 769.927C797.91 768.824 797.223 767.859 796.292 767.174C795.361 766.49 794.236 766.12 793.08 766.12C791.924 766.12 790.799 766.49 789.868 767.174C788.937 767.859 788.25 768.824 787.906 769.927C787.562 771.03 787.579 772.215 787.956 773.307C788.333 774.4 789.049 775.343 790 776C788.663 776.469 787.449 777.235 786.45 778.24C785.576 779.106 784.883 780.138 784.411 781.274C783.939 782.41 783.697 783.629 783.7 784.86H785.2C785.162 783.8 785.338 782.742 785.718 781.752C786.098 780.761 786.674 779.857 787.41 779.093C788.147 778.329 789.03 777.722 790.007 777.307C790.984 776.893 792.034 776.679 793.095 776.679C794.156 776.679 795.206 776.893 796.183 777.307C797.16 777.722 798.043 778.329 798.78 779.093C799.516 779.857 800.092 780.761 800.472 781.752C800.851 782.742 801.028 783.8 800.99 784.86H802.46C802.465 783.627 802.226 782.405 801.755 781.265C801.285 780.126 800.593 779.09 799.72 778.22ZM793.1 775.47C792.317 775.48 791.548 775.257 790.892 774.829C790.236 774.401 789.722 773.787 789.415 773.067C789.109 772.346 789.023 771.55 789.17 770.78C789.317 770.011 789.689 769.302 790.239 768.745C790.79 768.188 791.493 767.806 792.261 767.65C793.028 767.493 793.825 767.569 794.55 767.866C795.274 768.164 795.894 768.67 796.331 769.32C796.767 769.971 797 770.737 797 771.52C796.987 772.555 796.574 773.545 795.847 774.282C795.119 775.018 794.135 775.444 793.1 775.47Z" fill="#2D7D9A"/>
<path d="M827.23 778.22C826.225 777.221 825.008 776.462 823.67 776C824.624 775.345 825.344 774.402 825.724 773.309C826.104 772.216 826.125 771.03 825.782 769.925C825.44 768.82 824.752 767.853 823.821 767.166C822.889 766.48 821.762 766.109 820.605 766.109C819.448 766.109 818.321 766.48 817.389 767.166C816.458 767.853 815.77 768.82 815.428 769.925C815.085 771.03 815.106 772.216 815.486 773.309C815.866 774.402 816.586 775.345 817.54 776C816.208 776.464 814.998 777.223 814 778.22C813.126 779.086 812.433 780.117 811.961 781.254C811.489 782.39 811.247 783.609 811.25 784.84H812.72C812.72 783.802 812.924 782.775 813.321 781.816C813.718 780.858 814.3 779.987 815.034 779.253C815.767 778.52 816.638 777.938 817.597 777.541C818.555 777.144 819.583 776.94 820.62 776.94C821.657 776.94 822.685 777.144 823.643 777.541C824.602 777.938 825.473 778.52 826.206 779.253C826.94 779.987 827.522 780.858 827.919 781.816C828.316 782.775 828.52 783.802 828.52 784.84H830C829.999 783.608 829.753 782.389 829.278 781.252C828.802 780.116 828.106 779.085 827.23 778.22ZM820.61 775.47C819.831 775.46 819.072 775.22 818.429 774.78C817.786 774.34 817.288 773.719 816.997 772.997C816.705 772.274 816.634 771.482 816.792 770.719C816.95 769.956 817.33 769.257 817.885 768.709C818.439 768.162 819.143 767.791 819.908 767.642C820.672 767.494 821.464 767.575 822.183 767.875C822.902 768.176 823.516 768.682 823.948 769.33C824.38 769.979 824.61 770.74 824.61 771.52C824.597 772.572 824.17 773.576 823.421 774.316C822.672 775.055 821.662 775.47 820.61 775.47Z" fill="#2D7D9A"/>
<path d="M942.47 819.795C941.475 818.772 940.257 817.995 938.91 817.525C939.863 816.871 940.581 815.93 940.96 814.839C941.339 813.748 941.359 812.565 941.017 811.461C940.675 810.358 939.989 809.393 939.06 808.708C938.13 808.023 937.005 807.653 935.85 807.653C934.695 807.653 933.57 808.023 932.64 808.708C931.711 809.393 931.025 810.358 930.683 811.461C930.341 812.565 930.361 813.748 930.74 814.839C931.119 815.93 931.837 816.871 932.79 817.525C930.95 818.161 929.354 819.356 928.225 820.942C927.095 822.529 926.489 824.428 926.49 826.375H928C928 825.337 928.204 824.31 928.601 823.352C928.998 822.393 929.58 821.522 930.314 820.789C931.047 820.055 931.918 819.473 932.877 819.076C933.835 818.679 934.863 818.475 935.9 818.475C936.937 818.475 937.965 818.679 938.923 819.076C939.882 819.473 940.753 820.055 941.486 820.789C942.22 821.522 942.802 822.393 943.199 823.352C943.596 824.31 943.8 825.337 943.8 826.375H945.26C945.252 825.148 945.001 823.935 944.522 822.806C944.043 821.677 943.346 820.653 942.47 819.795ZM935.85 817.055C935.071 817.055 934.309 816.824 933.661 816.392C933.012 815.961 932.506 815.347 932.206 814.628C931.905 813.909 931.824 813.117 931.973 812.352C932.121 811.588 932.492 810.884 933.04 810.329C933.587 809.775 934.286 809.395 935.049 809.237C935.812 809.079 936.605 809.15 937.327 809.441C938.05 809.733 938.67 810.231 939.11 810.874C939.55 811.517 939.79 812.276 939.8 813.055C939.8 814.107 939.386 815.117 938.646 815.866C937.907 816.614 936.902 817.042 935.85 817.055Z" fill="#2D7D9A"/>
<path d="M928.72 826.744C927.715 825.746 926.498 824.987 925.16 824.524C926.111 823.868 926.827 822.924 927.204 821.832C927.581 820.739 927.598 819.555 927.254 818.451C926.91 817.348 926.223 816.384 925.292 815.699C924.361 815.014 923.236 814.645 922.08 814.645C920.924 814.645 919.799 815.014 918.868 815.699C917.937 816.384 917.25 817.348 916.906 818.451C916.562 819.555 916.579 820.739 916.956 821.832C917.333 822.924 918.049 823.868 919 824.524C917.663 824.994 916.449 825.759 915.45 826.764C914.576 827.631 913.883 828.662 913.411 829.798C912.939 830.935 912.697 832.154 912.7 833.384H914.2C914.162 832.324 914.338 831.267 914.718 830.276C915.098 829.285 915.674 828.381 916.41 827.617C917.147 826.854 918.03 826.247 919.007 825.832C919.984 825.417 921.034 825.203 922.095 825.203C923.156 825.203 924.206 825.417 925.183 825.832C926.16 826.247 927.043 826.854 927.78 827.617C928.516 828.381 929.092 829.285 929.472 830.276C929.851 831.267 930.028 832.324 929.99 833.384H931.46C931.465 832.151 931.226 830.93 930.755 829.79C930.285 828.65 929.593 827.615 928.72 826.744ZM922.1 823.994C921.317 824.004 920.548 823.781 919.892 823.353C919.236 822.925 918.722 822.312 918.415 821.591C918.109 820.87 918.023 820.074 918.17 819.305C918.317 818.535 918.689 817.827 919.239 817.269C919.79 816.712 920.493 816.331 921.261 816.174C922.028 816.018 922.825 816.093 923.55 816.39C924.274 816.688 924.894 817.194 925.331 817.845C925.767 818.495 926 819.261 926 820.044C925.987 821.079 925.574 822.069 924.847 822.806C924.119 823.543 923.135 823.969 922.1 823.994Z" fill="#2D7D9A"/>
<path d="M956.23 826.744C955.225 825.746 954.008 824.987 952.67 824.524C953.624 823.87 954.344 822.927 954.724 821.834C955.104 820.741 955.125 819.555 954.782 818.449C954.44 817.344 953.752 816.377 952.821 815.691C951.889 815.004 950.762 814.634 949.605 814.634C948.448 814.634 947.321 815.004 946.389 815.691C945.458 816.377 944.77 817.344 944.428 818.449C944.085 819.555 944.106 820.741 944.486 821.834C944.866 822.927 945.586 823.87 946.54 824.524C945.208 824.989 943.998 825.747 943 826.744C942.126 827.61 941.433 828.642 940.961 829.778C940.489 830.914 940.247 832.133 940.25 833.364H941.72C941.72 832.326 941.924 831.299 942.321 830.341C942.718 829.382 943.3 828.511 944.034 827.778C944.767 827.044 945.638 826.462 946.597 826.065C947.555 825.668 948.583 825.464 949.62 825.464C950.657 825.464 951.685 825.668 952.643 826.065C953.602 826.462 954.473 827.044 955.206 827.778C955.94 828.511 956.522 829.382 956.919 830.341C957.316 831.299 957.52 832.326 957.52 833.364H959C958.999 832.132 958.753 830.913 958.278 829.777C957.802 828.64 957.106 827.61 956.23 826.744ZM949.61 823.994C948.831 823.984 948.072 823.744 947.429 823.304C946.786 822.864 946.288 822.244 945.997 821.521C945.705 820.799 945.634 820.006 945.792 819.243C945.95 818.48 946.33 817.781 946.885 817.234C947.439 816.686 948.143 816.315 948.908 816.167C949.672 816.018 950.464 816.099 951.183 816.4C951.902 816.7 952.516 817.206 952.948 817.855C953.38 818.503 953.61 819.265 953.61 820.044C953.597 821.096 953.17 822.101 952.421 822.84C951.672 823.579 950.662 823.994 949.61 823.994Z" fill="#2D7D9A"/>
<path d="M555.47 313.27C554.475 312.248 553.257 311.471 551.91 311C552.863 310.347 553.581 309.406 553.96 308.315C554.339 307.224 554.359 306.04 554.017 304.937C553.675 303.834 552.989 302.869 552.06 302.184C551.13 301.499 550.005 301.129 548.85 301.129C547.695 301.129 546.57 301.499 545.64 302.184C544.711 302.869 544.025 303.834 543.683 304.937C543.341 306.04 543.361 307.224 543.74 308.315C544.119 309.406 544.837 310.347 545.79 311C543.95 311.637 542.354 312.832 541.225 314.418C540.095 316.004 539.489 317.903 539.49 319.85H541C541 318.813 541.204 317.786 541.601 316.827C541.998 315.869 542.58 314.998 543.314 314.264C544.047 313.531 544.918 312.949 545.877 312.552C546.835 312.155 547.863 311.95 548.9 311.95C549.937 311.95 550.965 312.155 551.923 312.552C552.882 312.949 553.753 313.531 554.486 314.264C555.22 314.998 555.802 315.869 556.199 316.827C556.596 317.786 556.8 318.813 556.8 319.85H558.26C558.252 318.624 558.001 317.411 557.522 316.282C557.043 315.152 556.346 314.129 555.47 313.27ZM548.85 310.53C548.071 310.53 547.309 310.3 546.661 309.868C546.012 309.436 545.506 308.822 545.206 308.103C544.905 307.384 544.824 306.593 544.973 305.828C545.121 305.063 545.492 304.359 546.04 303.805C546.587 303.251 547.286 302.87 548.049 302.712C548.812 302.554 549.605 302.626 550.327 302.917C551.05 303.208 551.67 303.707 552.11 304.35C552.55 304.993 552.79 305.751 552.8 306.53C552.8 307.583 552.386 308.593 551.646 309.341C550.907 310.09 549.902 310.517 548.85 310.53Z" fill="#2D7D9A"/>
<path d="M541.72 320.22C540.715 319.222 539.498 318.463 538.16 318C539.111 317.343 539.827 316.4 540.204 315.307C540.581 314.215 540.598 313.03 540.254 311.927C539.91 310.824 539.223 309.859 538.292 309.174C537.361 308.49 536.236 308.12 535.08 308.12C533.924 308.12 532.799 308.49 531.868 309.174C530.937 309.859 530.25 310.824 529.906 311.927C529.562 313.03 529.579 314.215 529.956 315.307C530.333 316.4 531.049 317.343 532 318C530.663 318.469 529.449 319.235 528.45 320.24C527.576 321.106 526.883 322.138 526.411 323.274C525.939 324.41 525.697 325.629 525.7 326.86H527.2C527.162 325.8 527.338 324.742 527.718 323.752C528.098 322.761 528.674 321.857 529.41 321.093C530.147 320.329 531.03 319.722 532.007 319.307C532.984 318.893 534.034 318.679 535.095 318.679C536.156 318.679 537.206 318.893 538.183 319.307C539.16 319.722 540.043 320.329 540.78 321.093C541.516 321.857 542.092 322.761 542.472 323.752C542.851 324.742 543.028 325.8 542.99 326.86H544.46C544.465 325.627 544.226 324.405 543.755 323.265C543.285 322.126 542.593 321.09 541.72 320.22ZM535.1 317.47C534.317 317.48 533.548 317.257 532.892 316.829C532.236 316.401 531.722 315.787 531.415 315.067C531.109 314.346 531.023 313.55 531.17 312.78C531.317 312.011 531.689 311.302 532.239 310.745C532.79 310.188 533.493 309.806 534.261 309.65C535.028 309.493 535.825 309.569 536.55 309.866C537.274 310.164 537.894 310.67 538.331 311.32C538.767 311.971 539 312.737 539 313.52C538.987 314.555 538.574 315.545 537.847 316.282C537.119 317.018 536.135 317.444 535.1 317.47Z" fill="#2D7D9A"/>
<path d="M569.23 320.22C568.225 319.221 567.008 318.462 565.67 318C566.624 317.345 567.344 316.402 567.724 315.309C568.104 314.216 568.125 313.03 567.782 311.925C567.44 310.82 566.752 309.853 565.821 309.166C564.889 308.48 563.762 308.109 562.605 308.109C561.448 308.109 560.321 308.48 559.389 309.166C558.458 309.853 557.77 310.82 557.428 311.925C557.085 313.03 557.106 314.216 557.486 315.309C557.866 316.402 558.586 317.345 559.54 318C558.208 318.464 556.998 319.223 556 320.22C555.126 321.086 554.433 322.117 553.961 323.254C553.489 324.39 553.247 325.609 553.25 326.84H554.72C554.72 325.802 554.924 324.775 555.321 323.816C555.718 322.858 556.3 321.987 557.034 321.253C557.767 320.52 558.638 319.938 559.597 319.541C560.555 319.144 561.583 318.94 562.62 318.94C563.657 318.94 564.685 319.144 565.643 319.541C566.602 319.938 567.473 320.52 568.206 321.253C568.94 321.987 569.522 322.858 569.919 323.816C570.316 324.775 570.52 325.802 570.52 326.84H572C571.999 325.608 571.753 324.389 571.278 323.252C570.802 322.116 570.106 321.085 569.23 320.22ZM562.61 317.47C561.831 317.46 561.072 317.22 560.429 316.78C559.786 316.34 559.288 315.719 558.997 314.997C558.705 314.274 558.634 313.482 558.792 312.719C558.95 311.956 559.33 311.257 559.885 310.709C560.439 310.162 561.143 309.791 561.908 309.642C562.672 309.494 563.464 309.575 564.183 309.875C564.902 310.176 565.516 310.682 565.948 311.33C566.38 311.979 566.61 312.74 566.61 313.52C566.597 314.572 566.17 315.576 565.421 316.316C564.672 317.055 563.662 317.47 562.61 317.47Z" fill="#2D7D9A"/>
<path d="M556.47 470.27C555.475 469.248 554.257 468.471 552.91 468C553.863 467.347 554.581 466.406 554.96 465.315C555.339 464.224 555.359 463.04 555.017 461.937C554.675 460.834 553.989 459.869 553.06 459.184C552.13 458.499 551.005 458.129 549.85 458.129C548.695 458.129 547.57 458.499 546.64 459.184C545.711 459.869 545.025 460.834 544.683 461.937C544.341 463.04 544.361 464.224 544.74 465.315C545.119 466.406 545.837 467.347 546.79 468C544.95 468.637 543.354 469.832 542.225 471.418C541.095 473.004 540.489 474.903 540.49 476.85H542C542 475.813 542.204 474.786 542.601 473.827C542.998 472.869 543.58 471.998 544.314 471.264C545.047 470.531 545.918 469.949 546.877 469.552C547.835 469.155 548.863 468.95 549.9 468.95C550.937 468.95 551.965 469.155 552.923 469.552C553.882 469.949 554.753 470.531 555.486 471.264C556.22 471.998 556.802 472.869 557.199 473.827C557.596 474.786 557.8 475.813 557.8 476.85H559.26C559.252 475.624 559.001 474.411 558.522 473.282C558.043 472.152 557.346 471.129 556.47 470.27ZM549.85 467.53C549.071 467.53 548.309 467.3 547.661 466.868C547.012 466.436 546.506 465.822 546.206 465.103C545.905 464.384 545.824 463.593 545.973 462.828C546.121 462.063 546.492 461.359 547.04 460.805C547.587 460.251 548.286 459.87 549.049 459.712C549.812 459.554 550.605 459.626 551.327 459.917C552.05 460.208 552.67 460.707 553.11 461.35C553.55 461.993 553.79 462.751 553.8 463.53C553.8 464.583 553.386 465.593 552.646 466.341C551.907 467.09 550.902 467.517 549.85 467.53Z" fill="#2D7D9A"/>
<path d="M542.72 477.22C541.715 476.222 540.498 475.463 539.16 475C540.111 474.343 540.827 473.4 541.204 472.307C541.581 471.215 541.598 470.03 541.254 468.927C540.91 467.824 540.223 466.859 539.292 466.174C538.361 465.49 537.236 465.12 536.08 465.12C534.924 465.12 533.799 465.49 532.868 466.174C531.937 466.859 531.25 467.824 530.906 468.927C530.562 470.03 530.579 471.215 530.956 472.307C531.333 473.4 532.049 474.343 533 475C531.663 475.469 530.449 476.235 529.45 477.24C528.576 478.106 527.883 479.138 527.411 480.274C526.939 481.41 526.697 482.629 526.7 483.86H528.2C528.162 482.8 528.338 481.742 528.718 480.752C529.098 479.761 529.674 478.857 530.41 478.093C531.147 477.329 532.03 476.722 533.007 476.307C533.984 475.893 535.034 475.679 536.095 475.679C537.156 475.679 538.206 475.893 539.183 476.307C540.16 476.722 541.043 477.329 541.78 478.093C542.516 478.857 543.092 479.761 543.472 480.752C543.851 481.742 544.028 482.8 543.99 483.86H545.46C545.465 482.627 545.226 481.405 544.755 480.265C544.285 479.126 543.593 478.09 542.72 477.22ZM536.1 474.47C535.317 474.48 534.548 474.257 533.892 473.829C533.236 473.401 532.722 472.787 532.415 472.067C532.109 471.346 532.023 470.55 532.17 469.78C532.317 469.011 532.689 468.302 533.239 467.745C533.79 467.188 534.493 466.806 535.261 466.65C536.028 466.493 536.825 466.569 537.55 466.866C538.274 467.164 538.894 467.67 539.331 468.32C539.767 468.971 540 469.737 540 470.52C539.987 471.555 539.574 472.545 538.847 473.282C538.119 474.018 537.135 474.444 536.1 474.47Z" fill="#2D7D9A"/>
<path d="M570.23 477.22C569.225 476.221 568.008 475.462 566.67 475C567.624 474.345 568.344 473.402 568.724 472.309C569.104 471.216 569.125 470.03 568.782 468.925C568.44 467.82 567.752 466.853 566.821 466.166C565.889 465.48 564.762 465.109 563.605 465.109C562.448 465.109 561.321 465.48 560.389 466.166C559.458 466.853 558.77 467.82 558.428 468.925C558.085 470.03 558.106 471.216 558.486 472.309C558.866 473.402 559.586 474.345 560.54 475C559.208 475.464 557.998 476.223 557 477.22C556.126 478.086 555.433 479.117 554.961 480.254C554.489 481.39 554.247 482.609 554.25 483.84H555.72C555.72 482.802 555.924 481.775 556.321 480.816C556.718 479.858 557.3 478.987 558.034 478.253C558.767 477.52 559.638 476.938 560.597 476.541C561.555 476.144 562.583 475.94 563.62 475.94C564.657 475.94 565.685 476.144 566.643 476.541C567.602 476.938 568.473 477.52 569.206 478.253C569.94 478.987 570.522 479.858 570.919 480.816C571.316 481.775 571.52 482.802 571.52 483.84H573C572.999 482.608 572.753 481.389 572.278 480.252C571.802 479.116 571.106 478.085 570.23 477.22ZM563.61 474.47C562.831 474.46 562.072 474.22 561.429 473.78C560.786 473.34 560.288 472.719 559.997 471.997C559.705 471.274 559.634 470.482 559.792 469.719C559.95 468.956 560.33 468.257 560.885 467.709C561.439 467.162 562.143 466.791 562.908 466.642C563.672 466.494 564.464 466.575 565.183 466.875C565.902 467.176 566.516 467.682 566.948 468.33C567.38 468.979 567.61 469.74 567.61 470.52C567.597 471.572 567.17 472.576 566.421 473.316C565.672 474.055 564.662 474.47 563.61 474.47Z" fill="#2D7D9A"/>
<g clip-path="url(#clip1)">
<path d="M923.72 1032.64C922.725 1031.61 921.507 1030.84 920.16 1030.37C921.113 1029.71 921.831 1028.77 922.21 1027.68C922.589 1026.59 922.609 1025.41 922.267 1024.3C921.925 1023.2 921.239 1022.23 920.31 1021.55C919.38 1020.86 918.255 1020.49 917.1 1020.49C915.945 1020.49 914.82 1020.86 913.89 1021.55C912.961 1022.23 912.275 1023.2 911.933 1024.3C911.591 1025.41 911.611 1026.59 911.99 1027.68C912.369 1028.77 913.087 1029.71 914.04 1030.37C912.2 1031 910.604 1032.2 909.475 1033.78C908.345 1035.37 907.739 1037.27 907.74 1039.22H909.25C909.25 1038.18 909.454 1037.15 909.851 1036.19C910.248 1035.23 910.83 1034.36 911.564 1033.63C912.297 1032.9 913.168 1032.31 914.127 1031.92C915.085 1031.52 916.113 1031.32 917.15 1031.32C918.187 1031.32 919.215 1031.52 920.173 1031.92C921.132 1032.31 922.003 1032.9 922.736 1033.63C923.47 1034.36 924.052 1035.23 924.449 1036.19C924.846 1037.15 925.05 1038.18 925.05 1039.22H926.51C926.502 1037.99 926.251 1036.78 925.772 1035.65C925.293 1034.52 924.596 1033.49 923.72 1032.64ZM917.1 1029.9C916.321 1029.9 915.559 1029.67 914.911 1029.23C914.262 1028.8 913.756 1028.19 913.456 1027.47C913.155 1026.75 913.074 1025.96 913.223 1025.19C913.371 1024.43 913.742 1023.72 914.29 1023.17C914.837 1022.62 915.536 1022.24 916.299 1022.08C917.062 1021.92 917.855 1021.99 918.577 1022.28C919.3 1022.57 919.92 1023.07 920.36 1023.71C920.8 1024.36 921.04 1025.12 921.05 1025.9C921.05 1026.95 920.636 1027.96 919.896 1028.71C919.157 1029.46 918.152 1029.88 917.1 1029.9Z" fill="#2D7D9A"/>
<path d="M909.97 1039.59C908.965 1038.59 907.748 1037.83 906.41 1037.37C907.361 1036.71 908.077 1035.76 908.454 1034.67C908.831 1033.58 908.848 1032.4 908.504 1031.29C908.16 1030.19 907.473 1029.22 906.542 1028.54C905.611 1027.85 904.486 1027.49 903.33 1027.49C902.174 1027.49 901.049 1027.85 900.118 1028.54C899.187 1029.22 898.5 1030.19 898.156 1031.29C897.812 1032.4 897.829 1033.58 898.206 1034.67C898.583 1035.76 899.299 1036.71 900.25 1037.37C898.913 1037.83 897.699 1038.6 896.7 1039.61C895.826 1040.47 895.133 1041.5 894.661 1042.64C894.189 1043.78 893.947 1044.99 893.95 1046.23H895.45C895.412 1045.16 895.588 1044.11 895.968 1043.12C896.348 1042.13 896.924 1041.22 897.66 1040.46C898.397 1039.69 899.28 1039.09 900.257 1038.67C901.234 1038.26 902.284 1038.04 903.345 1038.04C904.406 1038.04 905.456 1038.26 906.433 1038.67C907.41 1039.09 908.293 1039.69 909.03 1040.46C909.766 1041.22 910.342 1042.13 910.722 1043.12C911.101 1044.11 911.278 1045.16 911.24 1046.23H912.71C912.715 1044.99 912.476 1043.77 912.005 1042.63C911.535 1041.49 910.843 1040.46 909.97 1039.59ZM903.35 1036.84C902.567 1036.85 901.798 1036.62 901.142 1036.19C900.486 1035.77 899.972 1035.15 899.665 1034.43C899.359 1033.71 899.273 1032.92 899.42 1032.15C899.567 1031.38 899.939 1030.67 900.489 1030.11C901.04 1029.55 901.743 1029.17 902.511 1029.02C903.278 1028.86 904.075 1028.93 904.8 1029.23C905.524 1029.53 906.144 1030.03 906.581 1030.69C907.017 1031.34 907.25 1032.1 907.25 1032.89C907.237 1033.92 906.824 1034.91 906.097 1035.65C905.369 1036.38 904.385 1036.81 903.35 1036.84Z" fill="#2D7D9A"/>
<path d="M937.48 1039.58C936.475 1038.59 935.258 1037.83 933.92 1037.36C934.874 1036.71 935.594 1035.77 935.974 1034.67C936.354 1033.58 936.375 1032.4 936.032 1031.29C935.69 1030.18 935.002 1029.22 934.071 1028.53C933.139 1027.84 932.012 1027.47 930.855 1027.47C929.698 1027.47 928.571 1027.84 927.639 1028.53C926.708 1029.22 926.02 1030.18 925.678 1031.29C925.335 1032.4 925.356 1033.58 925.736 1034.67C926.116 1035.77 926.836 1036.71 927.79 1037.36C926.458 1037.83 925.248 1038.59 924.25 1039.58C923.376 1040.45 922.683 1041.48 922.211 1042.62C921.739 1043.76 921.497 1044.97 921.5 1046.2H922.97C922.97 1045.17 923.174 1044.14 923.571 1043.18C923.968 1042.22 924.55 1041.35 925.284 1040.62C926.017 1039.89 926.888 1039.3 927.847 1038.91C928.805 1038.51 929.833 1038.3 930.87 1038.3C931.907 1038.3 932.935 1038.51 933.893 1038.91C934.852 1039.3 935.723 1039.89 936.456 1040.62C937.19 1041.35 937.772 1042.22 938.169 1043.18C938.566 1044.14 938.77 1045.17 938.77 1046.2H940.25C940.249 1044.97 940.003 1043.75 939.528 1042.62C939.052 1041.48 938.356 1040.45 937.48 1039.58ZM930.86 1036.83C930.081 1036.82 929.322 1036.58 928.679 1036.14C928.036 1035.7 927.538 1035.08 927.247 1034.36C926.955 1033.64 926.884 1032.85 927.042 1032.08C927.2 1031.32 927.58 1030.62 928.135 1030.07C928.689 1029.53 929.393 1029.16 930.158 1029.01C930.922 1028.86 931.714 1028.94 932.433 1029.24C933.152 1029.54 933.766 1030.05 934.198 1030.7C934.63 1031.34 934.86 1032.11 934.86 1032.88C934.847 1033.94 934.42 1034.94 933.671 1035.68C932.922 1036.42 931.912 1036.83 930.86 1036.83Z" fill="#2D7D9A"/>
</g>
<path d="M948.47 576.27C947.475 575.248 946.257 574.471 944.91 574C945.863 573.347 946.581 572.406 946.96 571.315C947.339 570.224 947.359 569.04 947.017 567.937C946.675 566.834 945.989 565.869 945.06 565.184C944.13 564.499 943.005 564.129 941.85 564.129C940.695 564.129 939.57 564.499 938.64 565.184C937.711 565.869 937.025 566.834 936.683 567.937C936.341 569.04 936.361 570.224 936.74 571.315C937.119 572.406 937.837 573.347 938.79 574C936.95 574.637 935.354 575.832 934.225 577.418C933.095 579.004 932.489 580.903 932.49 582.85H934C934 581.813 934.204 580.786 934.601 579.827C934.998 578.869 935.58 577.998 936.314 577.264C937.047 576.531 937.918 575.949 938.877 575.552C939.835 575.155 940.863 574.95 941.9 574.95C942.937 574.95 943.965 575.155 944.923 575.552C945.882 575.949 946.753 576.531 947.486 577.264C948.22 577.998 948.802 578.869 949.199 579.827C949.596 580.786 949.8 581.813 949.8 582.85H951.26C951.252 581.624 951.001 580.411 950.522 579.282C950.043 578.152 949.346 577.129 948.47 576.27ZM941.85 573.53C941.071 573.53 940.309 573.3 939.661 572.868C939.012 572.436 938.506 571.822 938.206 571.103C937.905 570.384 937.824 569.593 937.973 568.828C938.121 568.063 938.492 567.359 939.04 566.805C939.587 566.251 940.286 565.87 941.049 565.712C941.812 565.554 942.605 565.626 943.327 565.917C944.05 566.208 944.67 566.707 945.11 567.35C945.55 567.993 945.79 568.751 945.8 569.53C945.8 570.583 945.386 571.593 944.646 572.341C943.907 573.09 942.902 573.517 941.85 573.53Z" fill="#2D7D9A"/>
<path d="M934.72 583.22C933.715 582.222 932.498 581.463 931.16 581C932.111 580.343 932.827 579.4 933.204 578.307C933.581 577.215 933.598 576.03 933.254 574.927C932.91 573.824 932.223 572.859 931.292 572.174C930.361 571.49 929.236 571.12 928.08 571.12C926.924 571.12 925.799 571.49 924.868 572.174C923.937 572.859 923.25 573.824 922.906 574.927C922.562 576.03 922.579 577.215 922.956 578.307C923.333 579.4 924.049 580.343 925 581C923.663 581.469 922.449 582.235 921.45 583.24C920.576 584.106 919.883 585.138 919.411 586.274C918.939 587.41 918.697 588.629 918.7 589.86H920.2C920.162 588.8 920.338 587.742 920.718 586.752C921.098 585.761 921.674 584.857 922.41 584.093C923.147 583.329 924.03 582.722 925.007 582.307C925.984 581.893 927.034 581.679 928.095 581.679C929.156 581.679 930.206 581.893 931.183 582.307C932.16 582.722 933.043 583.329 933.78 584.093C934.516 584.857 935.092 585.761 935.472 586.752C935.851 587.742 936.028 588.8 935.99 589.86H937.46C937.465 588.627 937.226 587.405 936.755 586.265C936.285 585.126 935.593 584.09 934.72 583.22ZM928.1 580.47C927.317 580.48 926.548 580.257 925.892 579.829C925.236 579.401 924.722 578.787 924.415 578.067C924.109 577.346 924.023 576.55 924.17 575.78C924.317 575.011 924.689 574.302 925.239 573.745C925.79 573.188 926.493 572.806 927.261 572.65C928.028 572.493 928.825 572.569 929.55 572.866C930.274 573.164 930.894 573.67 931.331 574.32C931.767 574.971 932 575.737 932 576.52C931.987 577.555 931.574 578.545 930.847 579.282C930.119 580.018 929.135 580.444 928.1 580.47Z" fill="#2D7D9A"/>
<path d="M962.23 583.22C961.225 582.221 960.008 581.462 958.67 581C959.624 580.345 960.344 579.402 960.724 578.309C961.104 577.216 961.125 576.03 960.782 574.925C960.44 573.82 959.752 572.853 958.821 572.166C957.889 571.48 956.762 571.109 955.605 571.109C954.448 571.109 953.321 571.48 952.389 572.166C951.458 572.853 950.77 573.82 950.428 574.925C950.085 576.03 950.106 577.216 950.486 578.309C950.866 579.402 951.586 580.345 952.54 581C951.208 581.464 949.998 582.223 949 583.22C948.126 584.086 947.433 585.117 946.961 586.254C946.489 587.39 946.247 588.609 946.25 589.84H947.72C947.72 588.802 947.924 587.775 948.321 586.816C948.718 585.858 949.3 584.987 950.034 584.253C950.767 583.52 951.638 582.938 952.597 582.541C953.555 582.144 954.583 581.94 955.62 581.94C956.657 581.94 957.685 582.144 958.643 582.541C959.602 582.938 960.473 583.52 961.206 584.253C961.94 584.987 962.522 585.858 962.919 586.816C963.316 587.775 963.52 588.802 963.52 589.84H965C964.999 588.608 964.753 587.389 964.278 586.252C963.802 585.116 963.106 584.085 962.23 583.22ZM955.61 580.47C954.831 580.46 954.072 580.22 953.429 579.78C952.786 579.34 952.288 578.719 951.997 577.997C951.705 577.274 951.634 576.482 951.792 575.719C951.95 574.956 952.33 574.257 952.885 573.709C953.439 573.162 954.143 572.791 954.908 572.642C955.672 572.494 956.464 572.575 957.183 572.875C957.902 573.176 958.516 573.682 958.948 574.33C959.38 574.979 959.61 575.74 959.61 576.52C959.597 577.572 959.17 578.576 958.421 579.316C957.672 580.055 956.662 580.47 955.61 580.47Z" fill="#2D7D9A"/>
</g>
<defs>
<clipPath id="clip0">
<rect width="1024" height="1400" fill="white"/>
</clipPath>
<clipPath id="clip1">
<rect x="892.25" y="1009.37" width="48" height="48" fill="white"/>
</clipPath>
</defs>
</svg>
