<svg width="360" height="540" viewBox="0 0 360 540" fill="none" xmlns="http://www.w3.org/2000/svg">
<g clip-path="url(#clip0)">
<path d="M582.575 846.854L576.722 799.425C576.504 797.75 576.791 796.017 577.54 794.474C578.29 792.93 579.465 791.655 580.898 790.827L606.124 702.291C605.735 701.143 605.593 699.905 605.709 698.665C605.709 698.665 617.91 586.288 617.166 584.801L590.716 546.737L610.443 482.955L683.686 401.438L895.502 259.954C895.771 258.616 896.341 257.354 897.163 256.278L919.294 226.669C920.13 225.582 921.191 224.715 922.386 224.143L1126.78 129.673C1127.4 129.418 1127.98 129.063 1128.51 128.622L1169.13 95.8552C1169.79 95.4565 1179.86 70.6692 1203.92 87.6427C1245.8 117.217 1311.48 196.65 1308.99 200.993L1266.77 274.241C1266.27 275.086 1265.92 276.012 1265.73 276.975L1258.57 311.947C1258.37 313.046 1258.37 314.168 1258.58 315.245C1258.78 316.322 1259.19 317.333 1259.78 318.219C1260.37 319.104 1261.12 319.845 1262 320.399C1262.88 320.953 1263.86 321.308 1264.88 321.444L1282.01 323.481C1283.5 323.682 1285.03 323.394 1286.41 322.657C1287.79 321.92 1288.95 320.766 1289.74 319.347L1335.12 239.818C1335.53 239.097 1336.04 238.436 1336.62 237.852L1387.62 188.358C1388.9 187.142 1390.49 186.382 1392.16 186.191C1393.82 186 1395.48 186.388 1396.87 187.298C1398.26 188.207 1399.32 189.589 1399.88 191.236C1400.44 192.883 1400.48 194.708 1399.99 196.436L1323.89 456.079C1323.41 457.804 1323.45 459.619 1324 461.266L1327.5 471.986C1327.95 473.373 1328.04 474.885 1327.74 476.359C1327.45 477.834 1326.8 479.216 1325.84 480.359C1324.89 481.502 1323.68 482.363 1322.33 482.849C1320.99 483.336 1319.57 483.431 1318.21 483.123L1260.71 469.586C1258.78 469.124 1257.14 467.866 1256.12 466.079C1255.11 464.293 1254.82 462.121 1255.3 460.026L1278.83 352.402C1279.11 351.185 1279.14 349.927 1278.9 348.726C1278.66 347.525 1278.16 346.413 1277.44 345.475C1276.73 344.537 1275.81 343.799 1274.76 343.317C1273.71 342.835 1272.56 342.622 1271.4 342.694L1262.32 343.043C1260.6 343.141 1258.94 343.83 1257.58 345.008C1256.22 346.186 1255.23 347.787 1254.77 349.569L1241.74 402.651L1241.57 403.241L1218.95 474.761C1218.6 475.884 1218.03 476.925 1217.28 477.813C1216.53 478.702 1215.62 479.416 1214.6 479.907L1095.03 538.35C1093.84 538.891 1092.8 539.776 1092.03 540.901L1074.32 564.428C1073.29 565.801 1072.67 567.463 1072.55 569.18C1072.43 570.898 1072.81 572.586 1073.64 574.01C1074.48 575.435 1075.72 576.523 1077.2 577.124C1078.67 577.726 1080.31 577.81 1081.89 577.365L1169.16 552.932L1170.27 552.662L1227.47 545.699C1228.61 545.557 1229.74 545.683 1230.8 546.066C1231.86 546.45 1232.81 547.082 1233.59 547.918C1234.38 548.754 1234.97 549.773 1235.33 550.902C1235.68 552.032 1235.8 553.245 1235.67 554.454L1233.04 577.95C1232.88 579.286 1232.42 580.577 1231.7 581.715C1230.98 582.853 1230.03 583.805 1228.92 584.491L1189.97 608.162C1189.19 608.613 1188.35 608.932 1187.49 609.106L1185.03 609.631C1184.15 609.839 1183.3 610.191 1182.51 610.673L1161.32 624.121C1159.6 625.127 1158.27 626.767 1157.58 628.716C1156.9 630.665 1156.91 632.78 1157.62 634.645C1158.33 636.509 1159.68 637.986 1161.41 638.785C1163.14 639.583 1165.12 639.644 1166.95 638.956L1247.19 612.741C1247.76 612.476 1248.3 612.148 1248.8 611.762L1303.49 577.88C1312.88 578.236 1322.3 578.068 1331.71 577.375C1340.77 572.974 1349.46 567.694 1357.66 561.606C1359.31 561.672 1360.97 561.302 1362.49 560.53C1347.5 572.547 1333.89 583.731 1318.9 595.749L1318.36 596.076L1266.37 647.628C1265.87 648.017 1265.33 648.345 1264.76 648.607L1217.04 677.607C1216.09 678.188 1215.26 678.966 1214.59 679.893C1213.93 680.819 1213.44 681.874 1213.17 682.99C1212.89 684.106 1212.83 685.259 1213 686.377C1213.16 687.494 1213.54 688.552 1214.11 689.483L1263.97 769.801C1264.4 770.496 1264.94 771.098 1265.57 771.581L1303.63 803.476C1304.42 804.126 1333.27 827.08 1331.03 832.4C1325.07 846.766 1281.61 852.413 1281.61 852.413C1280.67 853.949 1279.28 855.129 1277.68 855.766L1215.07 881.29C1214.07 881.655 1213.14 882.221 1212.33 882.957L1140.97 969.472C1121.46 1002.6 1099.82 1034.31 1076.2 1064.34C1050.9 1095.39 1021.13 1117.36 1018.74 1116.79L958.595 1103.57C956.925 1103.18 955.452 1102.2 954.407 1100.79C953.362 1099.38 952.804 1097.61 952.82 1095.77L953.219 1063.93C953.24 1062.7 953.004 1061.5 952.528 1060.41C952.053 1059.32 951.35 1058.37 950.472 1057.63C949.593 1056.88 948.56 1056.37 947.448 1056.11C946.337 1055.86 945.174 1055.88 944.045 1056.17L778.57 1100.17C776.738 1100.68 774.827 1100.46 773.204 1099.55C773.204 1099.55 573.024 1102.82 571.084 1099.88C571.084 1099.88 524.012 1059.32 526.467 1012.01C529.596 943.206 583.112 858.649 582.575 846.854Z" fill="#293135" stroke="#2D7D9A" stroke-miterlimit="10"/>
<path d="M145.468 1066.26C130.983 1061.86 120.327 817.171 145.022 752.749C146.109 749.959 146.398 746.922 145.85 744.046C139.277 701.233 147.685 538.241 142.261 505.763C137.981 479.941 133.537 454.521 128.928 429.503C128.284 425.832 128.909 421.959 130.687 418.606C132.466 415.253 135.275 412.651 138.592 411.285L221.199 378.239C223.219 377.423 225.07 376.139 226.619 374.48C228.168 372.821 229.375 370.83 230.153 368.649L254.408 300.981C255.05 299.268 255.938 297.664 257.039 296.231L303.706 236.703C305.554 234.335 306.748 231.468 307.139 228.459C307.531 225.45 307.104 222.43 305.91 219.776C296.057 198.162 291.881 188.32 267.708 139.69C267.031 138.338 266.543 136.878 266.26 135.352C256.326 65.5104 253.062 -5.64096 256.52 -76.9951C256.67 -79.7175 256.153 -82.3948 255.023 -84.755C253.892 -87.1152 252.187 -89.074 250.082 -90.4323C247.977 -91.7906 245.547 -92.4998 243.038 -92.488C240.529 -92.4761 238.032 -91.7435 235.799 -90.3647L231.753 -87.8437C229.993 -86.7368 228.057 -86.036 226.072 -85.7874C224.087 -85.5389 222.1 -85.7483 220.241 -86.402L111.082 -123.918C110.234 -124.211 109.355 -124.404 108.46 -124.495C88.4464 -127.008 -149.323 -156.111 -220.846 -179.909C-222.9 -180.588 -224.756 -181.779 -226.27 -183.391C-227.785 -185.003 -228.917 -186.992 -229.579 -189.204L-235.184 -208.061C-236.086 -211.128 -237.882 -213.75 -240.313 -215.547C-242.744 -217.345 -245.683 -218.224 -248.704 -218.058L-293.388 -215.351C-296.04 -215.169 -298.644 -215.803 -300.898 -217.181C-303.152 -218.559 -304.964 -220.623 -306.123 -223.135C-326.999 -268.254 -343.66 -377.478 -330.859 -437.929C-330.386 -440.133 -329.488 -442.228 -328.227 -444.073C-326.965 -445.918 -325.368 -447.47 -323.543 -448.626L-287.839 -470.87C-286.181 -471.901 -284.709 -473.266 -283.508 -474.885C-282.306 -476.505 -281.398 -478.348 -280.835 -480.31L-252.663 -578.58C-251.916 -581.23 -251.818 -584.008 -252.38 -586.634C-252.943 -589.26 -254.145 -591.639 -255.866 -593.531L-272.417 -611.217C-273.932 -612.878 -275.047 -614.921 -275.675 -617.183C-276.303 -619.446 -276.426 -621.865 -276.034 -624.249C-275.641 -626.633 -274.745 -628.914 -273.415 -630.912C-272.086 -632.91 -270.361 -634.568 -268.377 -635.755C-224.801 -661.758 -151.245 -683.68 -107.47 -684.919C-104.049 -685.02 -100.778 -683.775 -98.2629 -681.414C-95.7473 -679.053 -94.157 -675.737 -93.7863 -672.077C-92.7347 -662.254 -91.8021 -652.356 -90.6911 -642.57C-90.406 -639.891 -89.4673 -637.38 -87.9704 -635.292C-86.4734 -633.204 -84.4714 -631.613 -82.167 -630.68C-79.8626 -629.747 -77.3379 -629.506 -74.8486 -629.98C-72.3593 -630.454 -69.9941 -631.627 -67.9924 -633.38L-52.6398 -646.874C-49.9492 -649.399 -46.5561 -650.826 -43.0924 -650.891C-39.6287 -650.955 -36.3304 -649.652 -33.8118 -647.225C-32.1398 -645.611 -30.1069 -644.485 -27.8893 -643.946C-25.6717 -643.407 -23.3362 -643.47 -21.0855 -644.13C-18.8349 -644.791 -16.7369 -646.028 -14.9735 -647.735C-13.2101 -649.442 -11.8344 -651.567 -10.9659 -653.927L45.8724 -806.405C46.1663 -807.252 46.5469 -808.066 47.0067 -808.83L123.526 -945.163C124.774 -947.52 125.456 -950.154 125.505 -952.81C125.553 -955.465 124.968 -958.051 123.805 -960.318L86.9206 -1034.76C86.3397 -1035.98 85.5831 -1037.08 84.6778 -1038.03C56.2609 -1067.56 93.0181 -1205.4 112.474 -1249.12C114.028 -1252.6 116.688 -1255.41 119.943 -1257C123.197 -1258.59 126.813 -1258.85 130.094 -1257.72L171.159 -1243.68C173.477 -1242.87 175.988 -1242.74 178.434 -1243.33C180.88 -1243.92 183.172 -1245.2 185.076 -1247.03C207.431 -1268.08 283.573 -1338.85 314.912 -1353.87C317.831 -1355.24 321.028 -1355.55 324.018 -1354.77C327.007 -1353.98 329.624 -1352.15 331.469 -1349.53C348.115 -1325.69 364.81 -1301.84 381.555 -1278C383.209 -1275.63 385.506 -1273.9 388.15 -1273.02C417.254 -1263.32 593.763 -1203.83 632.653 -1169.03C634.66 -1167.24 637.121 -1166.11 639.758 -1165.79C642.396 -1165.47 645.105 -1165.95 647.58 -1167.2C684.018 -1183.95 721.687 -1196.89 760.048 -1205.83C762.541 -1206.29 764.912 -1207.46 766.917 -1209.21C768.922 -1210.97 770.49 -1213.24 771.46 -1215.8L779.084 -1235.78C779.929 -1238.03 781.238 -1240.07 782.905 -1241.72C784.573 -1243.38 786.553 -1244.61 788.689 -1245.32C790.825 -1246.03 793.056 -1246.2 795.207 -1245.82C797.358 -1245.43 799.369 -1244.5 801.079 -1243.1C825.077 -1223.58 857.685 -1187.17 871.449 -1159.23C872.307 -1157.5 873.483 -1155.99 874.909 -1154.78C876.335 -1153.57 877.982 -1152.7 879.757 -1152.21L962.659 -1128.71C965.936 -1127.76 968.722 -1125.54 970.504 -1122.46L1006.2 -1060.95L1053 -966.493C1053.97 -964.617 1054.54 -962.51 1054.66 -960.321L1056.5 -924.384C1056.65 -921.427 1057.58 -918.626 1059.2 -916.319C1060.81 -914.012 1063.03 -912.297 1065.59 -911.382L1108.54 -896.223C1110.77 -895.431 1112.76 -894.025 1114.3 -892.137C1115.85 -890.249 1116.9 -887.94 1117.37 -885.426C1117.84 -882.912 1117.7 -880.275 1116.98 -877.762C1116.25 -875.25 1114.96 -872.943 1113.22 -871.059C1100.6 -857.224 1079.73 -843.076 1065.61 -841.4C1062.91 -841.097 1060.31 -839.969 1058.11 -838.147C1055.91 -836.326 1054.2 -833.887 1053.18 -831.119L1029.29 -767.116C1028.47 -764.898 1027.21 -762.88 1025.6 -761.213C994.033 -729.513 913.946 -722.188 876.596 -697.608C874.75 -696.362 873.162 -694.698 871.95 -692.739C870.738 -690.779 869.931 -688.574 869.59 -686.285L852.993 -573.614C852.584 -570.778 852.903 -567.917 853.915 -565.35C854.927 -562.783 856.593 -560.61 858.726 -559.072C860.86 -557.535 863.378 -556.693 866.002 -556.64C868.625 -556.587 871.25 -557.325 873.586 -558.773L978.317 -624.022C980.263 -625.269 981.938 -626.974 983.211 -629.003C984.483 -631.032 985.318 -633.329 985.649 -635.711C985.979 -638.094 985.797 -640.497 985.116 -642.73C984.435 -644.963 983.275 -646.965 981.726 -648.577L960.329 -670.857C958.818 -672.443 957.68 -674.401 957.002 -676.583C956.324 -678.765 956.123 -681.114 956.414 -683.45C956.706 -685.786 957.482 -688.049 958.684 -690.066C959.886 -692.083 961.483 -693.801 963.352 -695.09L980.265 -706.691C982.437 -708.401 984.972 -709.449 987.587 -709.72C990.203 -709.991 992.796 -709.474 995.08 -708.226L1056.38 -669.22C1057.95 -668.233 1059.69 -667.596 1061.52 -667.343L1124.43 -658.728C1126.85 -658.382 1129.12 -657.356 1131.01 -655.749C1132.9 -654.142 1134.34 -652.009 1135.2 -649.558C1147.83 -613.545 1126.9 -524.862 1105.08 -501.938C1103.46 -500.184 1102.21 -498.067 1101.43 -495.754C1100.66 -493.44 1100.39 -490.992 1100.63 -488.604L1114.31 -344.693C1114.45 -342.889 1114.31 -341.054 1113.88 -339.269L1108.47 -316.086C1107.95 -313.875 1106.99 -311.789 1105.66 -309.974C1104.34 -308.16 1102.68 -306.661 1100.8 -305.583C1098.92 -304.506 1096.87 -303.876 1094.79 -303.739C1092.71 -303.602 1090.65 -303.96 1088.76 -304.788L1063.02 -316.016C1060.99 -316.898 1059.2 -318.297 1057.81 -320.102C1056.41 -321.907 1055.45 -324.066 1054.99 -326.405C1050.75 -348.323 1041.62 -395.842 1037.64 -416.286C1037.08 -419.179 1035.75 -421.786 1033.81 -423.788C1031.86 -425.789 1029.38 -427.098 1026.68 -427.552L1004.22 -431.402C1001.43 -431.881 998.53 -431.442 995.885 -430.141L986.108 -425.196C984.282 -424.274 982.633 -422.961 981.265 -421.339C979.897 -419.716 978.84 -417.822 978.162 -415.774C977.484 -413.727 977.2 -411.573 977.327 -409.448C977.455 -407.323 977.991 -405.275 978.902 -403.433L982.807 -395.551C984.493 -392.164 984.879 -388.133 983.888 -384.287C982.897 -380.441 980.603 -377.073 977.477 -374.875L903.062 -322.783C902.155 -322.159 901.318 -321.418 900.572 -320.577C881.331 -302.321 861.215 -285.198 840.322 -269.287C837.728 -267.315 835.755 -264.511 834.703 -261.304C833.652 -258.097 833.581 -254.662 834.501 -251.523C835.42 -248.385 837.28 -245.716 839.796 -243.923C842.312 -242.131 845.346 -241.313 848.436 -241.596L1016.09 -254.195L1187.65 -262.841C1190.22 -262.97 1192.74 -262.347 1194.93 -261.036C1197.13 -259.726 1198.93 -257.777 1200.14 -255.395L1238.11 -178.766C1238.62 -177.732 1239.25 -176.777 1239.99 -175.923L1351.4 -44.1119C1352.78 -42.4359 1353.77 -40.427 1354.31 -38.2319L1354.73 -36.6077C1355.47 -33.8379 1355.44 -30.8536 1354.66 -28.0074C1353.88 -25.1612 1352.38 -22.5719 1350.33 -20.5455C1348.28 -18.5191 1345.77 -17.1404 1343.09 -16.5718C1340.42 -16.0033 1337.69 -16.2688 1335.23 -17.3371C1322.98 -22.5611 1310.77 -27.8846 1298.58 -33.1456C1297.62 -33.5702 1296.71 -34.0978 1295.85 -34.7209C1280.08 -46.7517 1264.34 -58.72 1248.62 -70.7878C1246.5 -72.4061 1243.97 -73.3199 1241.32 -73.4252C1238.66 -73.5305 1235.99 -72.8231 1233.62 -71.3834C1231.24 -69.9438 1229.24 -67.8299 1227.86 -65.2826C1226.48 -62.7352 1225.76 -59.8568 1225.8 -56.9756L1225.94 -49.6148C1225.94 -47.3651 1226.41 -45.1724 1227.31 -43.1967C1228.21 -41.2209 1229.51 -39.512 1231.13 -38.1951L1305.32 22.7423C1306.99 24.0608 1308.92 24.9531 1310.98 25.3574L1378.14 38.9381C1380.48 39.4328 1382.92 39.2704 1385.24 38.466C1387.57 37.6615 1389.7 36.2413 1391.44 34.3382L1410.6 14.2173C1412.03 12.752 1413.68 11.5584 1415.47 10.6909L1540.26 -40.9432L1549.98 -32.0169C1550.75 -32.4988 1554.29 -35.1101 1560.93 -38.8384C1562.12 -39.5798 1560.22 -47.8117 1561.41 -48.5532C1567.36 -52.2606 1578.49 -57.3096 1578.49 -57.3096L1586.16 -52.674L1603.95 -59.9918L1613.84 -53.7087C1616.38 -53.7386 1618.91 -54.4939 1621.16 -55.8986L1644.25 -70.2831C1646.04 -71.3964 1648.01 -72.0961 1650.03 -72.335C1652.05 -72.574 1654.06 -72.347 1655.95 -71.6692C1657.83 -70.9913 1659.54 -69.8782 1660.95 -68.4038C1662.37 -66.9294 1663.46 -65.1274 1664.16 -63.1179L1711.42 73.4558C1712.07 75.3407 1712.36 77.3676 1712.27 79.418C1712.18 81.4683 1711.71 83.5009 1710.89 85.3966C1710.08 87.2923 1708.93 89.013 1707.52 90.4581C1706.1 91.9032 1704.45 93.0436 1702.66 93.8126L1657.63 112.946C1655.21 114.009 1653.07 115.749 1651.43 117.98C1649.8 120.211 1648.72 122.85 1648.33 125.615L1644.3 152.686C1643.78 156.441 1642.01 159.934 1639.33 162.495C1636.65 165.057 1633.25 166.508 1629.77 166.572C1595.2 167.067 1534.75 154.299 1503.06 130.898C1501.93 130.01 1500.92 128.965 1500.04 127.787C1485.2 106.526 1470.35 85.2446 1455.48 63.9423C1453.37 60.8936 1450.22 58.9007 1446.67 58.3719C1443.12 57.8431 1439.44 58.8186 1436.39 61.0983L1324.01 144.216C1322.05 145.647 1319.83 146.554 1317.53 146.86L1256.53 155.146C1253.12 155.622 1249.73 154.751 1246.99 152.694C1244.26 150.637 1242.36 147.533 1241.64 143.956L1228.5 78.4629C1227.96 76.112 1226.9 73.9672 1225.4 72.2075L1200.57 39.7028C1198.26 36.7013 1194.89 34.8678 1191.21 34.5944C1187.52 34.321 1183.8 35.6294 1180.85 38.2397L1083.65 124.989C1082.13 126.387 1080.4 127.469 1078.54 128.178L936.766 175.57C934.812 176.296 932.991 177.43 931.41 178.907L913.019 196.014C911.42 197.459 910.106 199.241 909.163 201.24C908.22 203.239 907.67 205.41 907.549 207.608L905.107 299.18C905.054 301.347 904.579 303.502 903.715 305.505C902.851 307.508 901.616 309.313 900.091 310.804C898.567 312.295 896.786 313.437 894.866 314.156C892.946 314.875 890.93 315.156 888.949 314.978C836.614 310.417 746.331 334.573 703.846 361.205C702.141 362.284 700.639 363.719 699.432 365.419C698.225 367.12 697.339 369.052 696.827 371.096C696.315 373.139 696.189 375.252 696.457 377.304C696.725 379.356 697.38 381.304 698.383 383.028L700.057 386.406C701.148 388.283 701.826 390.422 702.042 392.669C702.258 394.915 702.007 397.214 701.308 399.397C700.608 401.58 699.477 403.594 697.996 405.293C696.516 406.991 694.722 408.331 692.747 409.216L625.747 439.497C623.986 440.289 622.369 441.444 620.989 442.894C619.609 444.344 618.493 446.061 617.706 447.945C607.749 472.486 615.202 535.464 631.346 554.058C632.79 555.617 633.874 557.526 634.52 559.645C635.166 561.765 635.357 564.041 635.078 566.305L625.027 641.579C624.647 644.381 624.992 647.2 626.023 649.718L636.272 673.705C637.235 676.139 637.575 678.841 637.257 681.539C636.94 684.237 635.977 686.836 634.465 689.075L594.462 748.38C592.909 750.678 591.937 753.356 591.651 756.129C591.366 758.902 591.777 761.666 592.841 764.126L620.662 829.232C622.15 832.672 622.346 836.668 621.21 840.414C620.075 844.161 617.692 847.378 614.543 849.417L604.605 855.608C602.579 856.929 600.315 857.716 598.006 857.9C595.696 858.084 593.411 857.66 591.345 856.665L544.075 833.721C541.779 832.609 539.21 832.217 536.648 832.586C534.086 832.956 531.628 834.074 529.539 835.819L454.036 899.231C451.95 900.931 449.527 902.046 446.996 902.471C428.663 905.706 347.458 918.477 292.225 932.585C289.625 933.24 287.204 934.658 285.235 936.68C283.266 938.702 281.826 941.248 281.077 944.033L266.469 998.323C266.152 999.576 265.675 1000.78 265.052 1001.91L236.725 1054.76C235.15 1057.73 232.735 1060.1 229.86 1061.49L193.553 1079.69C190.155 1081.4 186.351 1081.66 182.931 1080.41L145.468 1066.26Z" fill="#293135" stroke="#2D7D9A" stroke-opacity="0.38" stroke-miterlimit="10"/>
<g clip-path="url(#clip1)">
<path d="M328.758 378.69C326.521 378.69 324.334 379.353 322.474 380.596C320.614 381.839 319.165 383.605 318.309 385.672C317.453 387.738 317.229 390.012 317.665 392.206C318.101 394.4 319.179 396.416 320.76 397.997C322.342 399.579 324.357 400.656 326.551 401.093C328.745 401.529 331.019 401.305 333.086 400.449C335.153 399.593 336.919 398.143 338.162 396.283C339.404 394.424 340.068 392.237 340.068 390C340.068 387 338.876 384.124 336.755 382.003C334.634 379.882 331.757 378.69 328.758 378.69V378.69ZM329.463 387.88C329.561 387.872 329.659 387.884 329.752 387.916C329.845 387.948 329.93 387.998 330.003 388.065C330.075 388.131 330.133 388.212 330.172 388.302C330.212 388.392 330.232 388.489 330.232 388.587C330.232 388.686 330.212 388.783 330.172 388.873C330.133 388.963 330.075 389.044 330.003 389.11C329.93 389.177 329.845 389.227 329.752 389.259C329.659 389.291 329.561 389.303 329.463 389.295H325.988C325.954 389.528 325.936 389.764 325.933 390C325.936 390.236 325.954 390.471 325.988 390.705H328.758C328.935 390.72 329.1 390.801 329.221 390.932C329.341 391.063 329.408 391.234 329.408 391.412C329.408 391.59 329.341 391.762 329.221 391.893C329.1 392.024 328.935 392.105 328.758 392.12H326.423C326.677 392.725 327.098 393.245 327.636 393.62C328.174 393.995 328.807 394.21 329.463 394.24C330.08 394.242 330.682 394.053 331.188 393.7C331.342 393.595 331.532 393.555 331.716 393.589C331.9 393.624 332.062 393.73 332.168 393.885C332.273 394.039 332.313 394.229 332.278 394.413C332.244 394.597 332.137 394.76 331.983 394.865C331.247 395.373 330.376 395.648 329.483 395.655C327.413 395.655 325.643 394.19 324.903 392.12H323.808C323.63 392.105 323.465 392.024 323.345 391.893C323.224 391.762 323.157 391.59 323.157 391.412C323.157 391.234 323.224 391.063 323.345 390.932C323.465 390.801 323.63 390.72 323.808 390.705H324.578C324.545 390.471 324.525 390.236 324.518 390C324.525 389.764 324.545 389.529 324.578 389.295H323.808C323.63 389.28 323.465 389.199 323.345 389.068C323.224 388.937 323.157 388.765 323.157 388.587C323.157 388.409 323.224 388.238 323.345 388.107C323.465 387.976 323.63 387.895 323.808 387.88H324.883C325.623 385.81 327.383 384.345 329.463 384.345C330.356 384.352 331.227 384.627 331.963 385.135C332.117 385.24 332.224 385.403 332.258 385.587C332.293 385.77 332.253 385.96 332.148 386.115C332.042 386.269 331.88 386.376 331.696 386.41C331.512 386.445 331.322 386.405 331.168 386.3C330.662 385.947 330.06 385.758 329.443 385.76C328.787 385.79 328.154 386.005 327.616 386.38C327.078 386.755 326.657 387.275 326.403 387.88H329.463Z" fill="#2D7D9A"/>
</g>
<g clip-path="url(#clip2)">
<path d="M310.828 288.818C308.591 288.818 306.404 289.482 304.545 290.724C302.685 291.967 301.235 293.734 300.379 295.8C299.523 297.867 299.299 300.141 299.735 302.335C300.172 304.529 301.249 306.544 302.831 308.126C304.412 309.707 306.428 310.785 308.622 311.221C310.816 311.657 313.09 311.433 315.156 310.577C317.223 309.721 318.989 308.272 320.232 306.412C321.475 304.552 322.138 302.365 322.138 300.128C322.138 297.129 320.946 294.252 318.825 292.131C316.704 290.01 313.828 288.818 310.828 288.818V288.818ZM311.533 298.008C311.631 298 311.73 298.012 311.822 298.044C311.915 298.076 312.001 298.127 312.073 298.193C312.145 298.26 312.203 298.34 312.243 298.43C312.282 298.52 312.303 298.618 312.303 298.716C312.303 298.814 312.282 298.911 312.243 299.001C312.203 299.091 312.145 299.172 312.073 299.239C312.001 299.305 311.915 299.356 311.822 299.388C311.73 299.419 311.631 299.432 311.533 299.423H308.058C308.024 299.657 308.006 299.892 308.003 300.128C308.006 300.364 308.024 300.6 308.058 300.833H310.828C311.005 300.848 311.171 300.929 311.291 301.06C311.412 301.191 311.479 301.363 311.479 301.541C311.479 301.719 311.412 301.89 311.291 302.021C311.171 302.152 311.005 302.233 310.828 302.248H308.493C308.748 302.853 309.168 303.373 309.706 303.748C310.244 304.123 310.878 304.338 311.533 304.368C312.15 304.37 312.752 304.181 313.258 303.828C313.413 303.723 313.603 303.683 313.786 303.718C313.97 303.753 314.133 303.859 314.238 304.013C314.343 304.168 314.383 304.358 314.349 304.542C314.314 304.725 314.208 304.888 314.053 304.993C313.318 305.501 312.447 305.776 311.553 305.783C309.483 305.783 307.713 304.318 306.973 302.248H305.878C305.701 302.233 305.535 302.152 305.415 302.021C305.294 301.89 305.228 301.719 305.228 301.541C305.228 301.363 305.294 301.191 305.415 301.06C305.535 300.929 305.701 300.848 305.878 300.833H306.648C306.615 300.6 306.595 300.364 306.588 300.128C306.595 299.892 306.615 299.657 306.648 299.423H305.878C305.701 299.408 305.535 299.327 305.415 299.196C305.294 299.065 305.228 298.894 305.228 298.716C305.228 298.538 305.294 298.366 305.415 298.235C305.535 298.104 305.701 298.023 305.878 298.008H306.953C307.693 295.938 309.453 294.473 311.533 294.473C312.427 294.48 313.298 294.756 314.033 295.263C314.188 295.369 314.294 295.531 314.329 295.715C314.363 295.899 314.323 296.089 314.218 296.243C314.113 296.398 313.95 296.504 313.766 296.539C313.583 296.574 313.393 296.534 313.238 296.428C312.732 296.075 312.13 295.887 311.513 295.888C310.858 295.918 310.224 296.133 309.686 296.509C309.148 296.884 308.728 297.404 308.473 298.008H311.533Z" fill="#2D7D9A"/>
</g>
<g clip-path="url(#clip3)">
<path d="M329.109 174.647C326.872 174.647 324.686 175.31 322.826 176.553C320.966 177.796 319.516 179.562 318.66 181.629C317.804 183.695 317.58 185.97 318.017 188.163C318.453 190.357 319.53 192.373 321.112 193.954C322.694 195.536 324.709 196.613 326.903 197.05C329.097 197.486 331.371 197.262 333.437 196.406C335.504 195.55 337.27 194.1 338.513 192.24C339.756 190.381 340.419 188.194 340.419 185.957C340.419 182.957 339.228 180.081 337.107 177.96C334.986 175.839 332.109 174.647 329.109 174.647V174.647ZM329.814 183.837C329.912 183.829 330.011 183.841 330.104 183.873C330.197 183.905 330.282 183.955 330.354 184.022C330.427 184.088 330.484 184.169 330.524 184.259C330.563 184.349 330.584 184.446 330.584 184.544C330.584 184.643 330.563 184.74 330.524 184.83C330.484 184.92 330.427 185.001 330.354 185.067C330.282 185.134 330.197 185.184 330.104 185.216C330.011 185.248 329.912 185.26 329.814 185.252H326.339C326.306 185.486 326.287 185.721 326.284 185.957C326.287 186.193 326.306 186.428 326.339 186.662H329.109C329.287 186.677 329.452 186.758 329.572 186.889C329.693 187.02 329.76 187.191 329.76 187.369C329.76 187.547 329.693 187.719 329.572 187.85C329.452 187.981 329.287 188.062 329.109 188.077H326.774C327.029 188.682 327.45 189.202 327.988 189.577C328.526 189.952 329.159 190.167 329.814 190.197C330.431 190.199 331.034 190.01 331.539 189.657C331.694 189.552 331.884 189.512 332.068 189.547C332.251 189.581 332.414 189.687 332.519 189.842C332.625 189.996 332.664 190.187 332.63 190.37C332.595 190.554 332.489 190.717 332.334 190.822C331.599 191.33 330.728 191.605 329.834 191.612C327.764 191.612 325.994 190.147 325.254 188.077H324.159C323.982 188.062 323.817 187.981 323.696 187.85C323.576 187.719 323.509 187.547 323.509 187.369C323.509 187.191 323.576 187.02 323.696 186.889C323.817 186.758 323.982 186.677 324.159 186.662H324.929C324.897 186.428 324.877 186.193 324.869 185.957C324.877 185.721 324.897 185.486 324.929 185.252H324.159C323.982 185.237 323.817 185.156 323.696 185.025C323.576 184.894 323.509 184.722 323.509 184.544C323.509 184.366 323.576 184.195 323.696 184.064C323.817 183.933 323.982 183.852 324.159 183.837H325.234C325.974 181.767 327.734 180.302 329.814 180.302C330.708 180.309 331.579 180.584 332.314 181.092C332.469 181.197 332.575 181.36 332.61 181.544C332.644 181.727 332.605 181.917 332.499 182.072C332.394 182.226 332.231 182.333 332.048 182.367C331.864 182.402 331.674 182.362 331.519 182.257C331.014 181.904 330.411 181.715 329.794 181.717C329.139 181.747 328.506 181.962 327.968 182.337C327.43 182.712 327.009 183.232 326.754 183.837H329.814Z" fill="#2D7D9A"/>
</g>
<g clip-path="url(#clip4)">
<path d="M302.391 67.8042C300.154 67.8042 297.967 68.4675 296.107 69.7103C294.247 70.953 292.798 72.7194 291.941 74.786C291.085 76.8527 290.861 79.1267 291.298 81.3207C291.734 83.5146 292.811 85.5298 294.393 87.1116C295.975 88.6933 297.99 89.7705 300.184 90.2069C302.378 90.6433 304.652 90.4193 306.719 89.5633C308.785 88.7072 310.552 87.2576 311.794 85.3977C313.037 83.5378 313.701 81.3511 313.701 79.1142C313.701 76.1146 312.509 73.2379 310.388 71.1168C308.267 68.9958 305.39 67.8042 302.391 67.8042V67.8042ZM303.096 76.9942C303.193 76.986 303.292 76.9981 303.385 77.03C303.478 77.0618 303.563 77.1125 303.636 77.179C303.708 77.2455 303.766 77.3263 303.805 77.4163C303.845 77.5063 303.865 77.6034 303.865 77.7017C303.865 77.8 303.845 77.8971 303.805 77.9871C303.766 78.0771 303.708 78.1579 303.636 78.2244C303.563 78.2909 303.478 78.3416 303.385 78.3734C303.292 78.4053 303.193 78.4174 303.096 78.4092H299.621C299.587 78.6428 299.569 78.8783 299.566 79.1142C299.569 79.3501 299.587 79.5856 299.621 79.8192H302.391C302.568 79.8341 302.733 79.9151 302.854 80.0462C302.974 80.1772 303.041 80.3487 303.041 80.5267C303.041 80.7047 302.974 80.8762 302.854 81.0072C302.733 81.1383 302.568 81.2193 302.391 81.2342H300.056C300.31 81.8388 300.731 82.3588 301.269 82.7341C301.807 83.1093 302.44 83.3243 303.096 83.3542C303.712 83.3558 304.315 83.1673 304.821 82.8142C304.975 82.7088 305.165 82.669 305.349 82.7037C305.533 82.7384 305.695 82.8447 305.801 82.9992C305.906 83.1537 305.946 83.3437 305.911 83.5275C305.876 83.7113 305.77 83.8738 305.616 83.9792C304.88 84.4871 304.009 84.7623 303.116 84.7692C301.046 84.7692 299.276 83.3042 298.536 81.2342H297.441C297.263 81.2193 297.098 81.1383 296.977 81.0072C296.857 80.8762 296.79 80.7047 296.79 80.5267C296.79 80.3487 296.857 80.1772 296.977 80.0462C297.098 79.9151 297.263 79.8341 297.441 79.8192H298.211C298.178 79.5854 298.158 79.3501 298.151 79.1142C298.158 78.8783 298.178 78.643 298.211 78.4092H297.441C297.263 78.3943 297.098 78.3133 296.977 78.1822C296.857 78.0512 296.79 77.8797 296.79 77.7017C296.79 77.5237 296.857 77.3522 296.977 77.2212C297.098 77.0901 297.263 77.0091 297.441 76.9942H298.516C299.256 74.9242 301.016 73.4592 303.096 73.4592C303.989 73.4661 304.86 73.7413 305.596 74.2492C305.75 74.3546 305.856 74.5171 305.891 74.7009C305.926 74.8847 305.886 75.0747 305.781 75.2292C305.675 75.3837 305.513 75.49 305.329 75.5247C305.145 75.5594 304.955 75.5196 304.801 75.4142C304.295 75.0611 303.692 74.8726 303.076 74.8742C302.42 74.9041 301.787 75.1191 301.249 75.4943C300.711 75.8696 300.29 76.3896 300.036 76.9942H303.096Z" fill="#2D7D9A"/>
</g>
<g clip-path="url(#clip5)">
<path d="M254.578 387.947C252.341 387.947 250.154 388.61 248.295 389.853C246.435 391.096 244.985 392.862 244.129 394.929C243.273 396.995 243.049 399.269 243.485 401.463C243.922 403.657 244.999 405.672 246.581 407.254C248.162 408.836 250.178 409.913 252.372 410.349C254.566 410.786 256.84 410.562 258.906 409.706C260.973 408.85 262.739 407.4 263.982 405.54C265.225 403.68 265.888 401.494 265.888 399.257C265.888 396.257 264.696 393.38 262.575 391.259C260.454 389.138 257.578 387.947 254.578 387.947V387.947ZM255.283 397.137C255.381 397.129 255.48 397.141 255.572 397.173C255.665 397.204 255.751 397.255 255.823 397.322C255.895 397.388 255.953 397.469 255.993 397.559C256.032 397.649 256.053 397.746 256.053 397.844C256.053 397.943 256.032 398.04 255.993 398.13C255.953 398.22 255.895 398.3 255.823 398.367C255.751 398.433 255.665 398.484 255.572 398.516C255.48 398.548 255.381 398.56 255.283 398.552H251.808C251.774 398.785 251.756 399.021 251.753 399.257C251.756 399.493 251.774 399.728 251.808 399.962H254.578C254.755 399.977 254.921 400.058 255.041 400.189C255.162 400.32 255.229 400.491 255.229 400.669C255.229 400.847 255.162 401.019 255.041 401.15C254.921 401.281 254.755 401.362 254.578 401.377H252.243C252.498 401.981 252.918 402.501 253.456 402.877C253.994 403.252 254.628 403.467 255.283 403.497C255.9 403.498 256.502 403.31 257.008 402.957C257.163 402.851 257.353 402.812 257.536 402.846C257.72 402.881 257.883 402.987 257.988 403.142C258.093 403.296 258.133 403.486 258.099 403.67C258.064 403.854 257.958 404.016 257.803 404.122C257.068 404.63 256.197 404.905 255.303 404.912C253.233 404.912 251.463 403.447 250.723 401.377H249.628C249.451 401.362 249.285 401.281 249.165 401.15C249.044 401.019 248.978 400.847 248.978 400.669C248.978 400.491 249.044 400.32 249.165 400.189C249.285 400.058 249.451 399.977 249.628 399.962H250.398C250.365 399.728 250.345 399.493 250.338 399.257C250.345 399.021 250.365 398.786 250.398 398.552H249.628C249.451 398.537 249.285 398.456 249.165 398.325C249.044 398.194 248.978 398.022 248.978 397.844C248.978 397.666 249.044 397.495 249.165 397.364C249.285 397.233 249.451 397.152 249.628 397.137H250.703C251.443 395.067 253.203 393.602 255.283 393.602C256.177 393.609 257.048 393.884 257.783 394.392C257.938 394.497 258.044 394.66 258.079 394.843C258.113 395.027 258.073 395.217 257.968 395.372C257.863 395.526 257.7 395.633 257.516 395.667C257.333 395.702 257.143 395.662 256.988 395.557C256.482 395.204 255.88 395.015 255.263 395.017C254.608 395.047 253.974 395.262 253.436 395.637C252.898 396.012 252.478 396.532 252.223 397.137H255.283Z" fill="#2D7D9A"/>
</g>
<g clip-path="url(#clip6)">
<path d="M169.5 415.718C167.263 415.718 165.076 416.382 163.216 417.624C161.357 418.867 159.907 420.633 159.051 422.7C158.195 424.767 157.971 427.041 158.407 429.235C158.844 431.429 159.921 433.444 161.503 435.026C163.084 436.607 165.1 437.685 167.293 438.121C169.487 438.557 171.761 438.333 173.828 437.477C175.895 436.621 177.661 435.172 178.904 433.312C180.147 431.452 180.81 429.265 180.81 427.028C180.81 424.029 179.618 421.152 177.497 419.031C175.376 416.91 172.5 415.718 169.5 415.718V415.718ZM170.205 424.908C170.303 424.9 170.401 424.912 170.494 424.944C170.587 424.976 170.673 425.027 170.745 425.093C170.817 425.16 170.875 425.24 170.915 425.33C170.954 425.42 170.974 425.518 170.974 425.616C170.974 425.714 170.954 425.811 170.915 425.901C170.875 425.991 170.817 426.072 170.745 426.138C170.673 426.205 170.587 426.256 170.494 426.288C170.401 426.319 170.303 426.332 170.205 426.323H166.73C166.696 426.557 166.678 426.792 166.675 427.028C166.678 427.264 166.696 427.5 166.73 427.733H169.5C169.677 427.748 169.843 427.829 169.963 427.96C170.084 428.091 170.15 428.263 170.15 428.441C170.15 428.619 170.084 428.79 169.963 428.921C169.843 429.052 169.677 429.133 169.5 429.148H167.165C167.419 429.753 167.84 430.273 168.378 430.648C168.916 431.023 169.55 431.238 170.205 431.268C170.822 431.27 171.424 431.081 171.93 430.728C172.084 430.623 172.274 430.583 172.458 430.618C172.642 430.652 172.805 430.759 172.91 430.913C173.015 431.068 173.055 431.258 173.02 431.442C172.986 431.625 172.879 431.788 172.725 431.893C171.99 432.401 171.119 432.676 170.225 432.683C168.155 432.683 166.385 431.218 165.645 429.148H164.55C164.373 429.133 164.207 429.052 164.087 428.921C163.966 428.79 163.899 428.619 163.899 428.441C163.899 428.263 163.966 428.091 164.087 427.96C164.207 427.829 164.373 427.748 164.55 427.733H165.32C165.287 427.5 165.267 427.264 165.26 427.028C165.267 426.792 165.287 426.557 165.32 426.323H164.55C164.373 426.308 164.207 426.227 164.087 426.096C163.966 425.965 163.899 425.794 163.899 425.616C163.899 425.438 163.966 425.266 164.087 425.135C164.207 425.004 164.373 424.923 164.55 424.908H165.625C166.365 422.838 168.125 421.373 170.205 421.373C171.099 421.38 171.97 421.655 172.705 422.163C172.859 422.269 172.966 422.431 173 422.615C173.035 422.799 172.995 422.989 172.89 423.143C172.785 423.298 172.622 423.404 172.438 423.439C172.254 423.473 172.064 423.434 171.91 423.328C171.404 422.975 170.802 422.787 170.185 422.788C169.53 422.818 168.896 423.033 168.358 423.408C167.82 423.784 167.399 424.304 167.145 424.908H170.205Z" fill="#2D7D9A"/>
</g>
<g clip-path="url(#clip7)">
<path d="M311.531 458.918C309.294 458.918 307.108 459.582 305.248 460.825C303.388 462.067 301.938 463.834 301.082 465.9C300.226 467.967 300.002 470.241 300.439 472.435C300.875 474.629 301.952 476.644 303.534 478.226C305.116 479.808 307.131 480.885 309.325 481.321C311.519 481.758 313.793 481.534 315.859 480.678C317.926 479.822 319.692 478.372 320.935 476.512C322.178 474.652 322.841 472.465 322.841 470.228C322.841 467.229 321.65 464.352 319.529 462.231C317.408 460.11 314.531 458.918 311.531 458.918V458.918ZM312.236 468.108C312.334 468.1 312.433 468.112 312.526 468.144C312.619 468.176 312.704 468.227 312.776 468.293C312.849 468.36 312.906 468.441 312.946 468.531C312.985 468.621 313.006 468.718 313.006 468.816C313.006 468.914 312.985 469.011 312.946 469.101C312.906 469.191 312.849 469.272 312.776 469.339C312.704 469.405 312.619 469.456 312.526 469.488C312.433 469.52 312.334 469.532 312.236 469.523H308.761C308.728 469.757 308.709 469.993 308.706 470.228C308.709 470.464 308.728 470.7 308.761 470.933H311.531C311.709 470.948 311.874 471.029 311.994 471.16C312.115 471.291 312.182 471.463 312.182 471.641C312.182 471.819 312.115 471.99 311.994 472.121C311.874 472.253 311.709 472.334 311.531 472.348H309.196C309.451 472.953 309.871 473.473 310.409 473.848C310.948 474.224 311.581 474.439 312.236 474.468C312.853 474.47 313.455 474.282 313.961 473.928C314.116 473.823 314.306 473.783 314.49 473.818C314.673 473.853 314.836 473.959 314.941 474.113C315.047 474.268 315.086 474.458 315.052 474.642C315.017 474.826 314.911 474.988 314.756 475.093C314.021 475.601 313.15 475.877 312.256 475.883C310.186 475.883 308.416 474.418 307.676 472.348H306.581C306.404 472.334 306.239 472.253 306.118 472.121C305.998 471.99 305.931 471.819 305.931 471.641C305.931 471.463 305.998 471.291 306.118 471.16C306.239 471.029 306.404 470.948 306.581 470.933H307.351C307.319 470.7 307.299 470.464 307.291 470.228C307.299 469.993 307.319 469.757 307.351 469.523H306.581C306.404 469.509 306.239 469.428 306.118 469.296C305.998 469.165 305.931 468.994 305.931 468.816C305.931 468.638 305.998 468.466 306.118 468.335C306.239 468.204 306.404 468.123 306.581 468.108H307.656C308.396 466.038 310.156 464.573 312.236 464.573C313.13 464.58 314.001 464.856 314.736 465.363C314.891 465.469 314.997 465.631 315.032 465.815C315.066 465.999 315.027 466.189 314.921 466.343C314.816 466.498 314.653 466.604 314.47 466.639C314.286 466.674 314.096 466.634 313.941 466.528C313.435 466.175 312.833 465.987 312.216 465.988C311.561 466.018 310.928 466.233 310.389 466.609C309.851 466.984 309.431 467.504 309.176 468.108H312.236Z" fill="#2D7D9A"/>
</g>
</g>
<defs>
<clipPath id="clip0">
<rect width="360" height="540" fill="white"/>
</clipPath>
<clipPath id="clip1">
<rect x="316.758" y="378" width="24" height="24" fill="white"/>
</clipPath>
<clipPath id="clip2">
<rect x="298.828" y="288.128" width="24" height="24" fill="white"/>
</clipPath>
<clipPath id="clip3">
<rect x="317.109" y="173.957" width="24" height="24" fill="white"/>
</clipPath>
<clipPath id="clip4">
<rect x="290.391" y="67.1143" width="24" height="24" fill="white"/>
</clipPath>
<clipPath id="clip5">
<rect x="242.578" y="387.257" width="24" height="24" fill="white"/>
</clipPath>
<clipPath id="clip6">
<rect x="157.5" y="415.028" width="24" height="24" fill="white"/>
</clipPath>
<clipPath id="clip7">
<rect x="299.531" y="458.229" width="24" height="24" fill="white"/>
</clipPath>
</defs>
</svg>
