<svg width="1920" height="1080" viewBox="0 0 1920 1080" fill="none" xmlns="http://www.w3.org/2000/svg">
<g clip-path="url(#clip0)">
<path d="M1638.64 1622.69L1628.52 1520.02C1628.14 1516.39 1628.91 1512.74 1630.73 1509.57C1632.54 1506.4 1635.31 1503.89 1638.64 1502.38L1702.24 1317.4C1701.43 1314.87 1701.19 1312.19 1701.54 1309.56C1701.54 1309.56 1737.05 1071.11 1735.45 1067.79L1677.69 981.383L1727.06 848.411L1899.75 687.324L2392.74 423.354C2393.45 420.539 2394.83 417.94 2396.78 415.787L2449.3 356.451C2451.28 354.276 2453.77 352.616 2456.53 351.612L2929.37 186.97C2930.8 186.537 2932.16 185.885 2933.39 185.038L3028.32 122.349C3029.85 121.616 3054.53 70.384 3108.27 111.176C3201.82 182.246 3346.27 364.493 3340.28 373.336L3238.95 522.435C3237.76 524.154 3236.89 526.072 3236.39 528.099L3217.68 601.683C3217.13 604 3217.06 606.403 3217.46 608.748C3217.86 611.094 3218.73 613.335 3220.01 615.34C3221.29 617.344 3222.96 619.072 3224.92 620.42C3226.88 621.768 3229.1 622.709 3231.43 623.188L3270.37 630.71C3273.76 631.415 3277.28 631.083 3280.48 629.758C3283.67 628.433 3286.4 626.177 3288.3 623.282L3397.26 461.312C3398.27 459.845 3399.47 458.522 3400.83 457.38L3520.58 360.776C3523.58 358.409 3527.26 357.074 3531.08 356.972C3534.9 356.87 3538.64 358.007 3541.76 360.212C3544.88 362.417 3547.19 365.571 3548.36 369.203C3549.53 372.835 3549.49 376.749 3548.25 380.36L3356.89 922.44C3355.69 926.048 3355.65 929.941 3356.78 933.569L3364.04 957.177C3364.98 960.231 3365.07 963.484 3364.3 966.589C3363.54 969.693 3361.94 972.533 3359.69 974.805C3357.44 977.077 3354.61 978.697 3351.51 979.492C3348.41 980.286 3345.16 980.226 3342.09 979.317L3211.8 939.717C3207.43 938.372 3203.76 935.373 3201.58 931.361C3199.39 927.349 3198.86 922.641 3200.11 918.242L3261.14 692.068C3261.88 689.514 3262.02 686.825 3261.55 684.209C3261.09 681.592 3260.03 679.118 3258.45 676.977C3256.88 674.835 3254.84 673.085 3252.48 671.859C3250.12 670.633 3247.51 669.964 3244.85 669.906L3224.1 668.977C3220.18 668.87 3216.34 670.041 3213.16 672.312C3209.97 674.583 3207.61 677.831 3206.43 681.562L3173.09 792.855L3172.66 794.085L3116.16 943.098C3115.29 945.44 3113.91 947.565 3112.14 949.329C3110.37 951.093 3108.24 952.454 3105.89 953.32L2829.05 1056.44C2826.29 1057.38 2823.85 1059.08 2822.03 1061.35L2780.01 1108.48C2777.57 1111.23 2776.04 1114.67 2775.65 1118.33C2775.25 1121.98 2776.01 1125.67 2777.81 1128.87C2779.62 1132.08 2782.38 1134.64 2785.71 1136.2C2789.04 1137.76 2792.78 1138.24 2796.4 1137.58L2997.22 1101.35L2999.77 1100.97L3130.76 1096.61C3133.36 1096.51 3135.94 1096.99 3138.33 1098.01C3140.72 1099.03 3142.85 1100.56 3144.58 1102.49C3146.31 1104.43 3147.59 1106.72 3148.33 1109.2C3149.07 1111.69 3149.25 1114.31 3148.87 1116.87L3141.27 1166.71C3140.8 1169.54 3139.67 1172.22 3137.96 1174.53C3136.24 1176.84 3134.01 1178.7 3131.43 1179.96L3040.93 1223.48C3039.11 1224.3 3037.17 1224.83 3035.19 1225.04L3029.54 1225.71C3027.53 1226 3025.57 1226.59 3023.74 1227.48L2974.45 1252.37C2970.46 1254.21 2967.31 1257.48 2965.62 1261.53C2963.92 1265.58 2963.81 1270.11 2965.3 1274.23C2966.79 1278.36 2969.77 1281.77 2973.66 1283.8C2977.55 1285.83 2982.06 1286.32 2986.3 1285.19L3171.18 1243.84C3172.49 1243.38 3173.75 1242.77 3174.93 1242.04L3302.04 1179.56C3323.43 1182.05 3344.94 1183.43 3366.47 1183.68C3387.43 1175.92 3407.61 1166.22 3426.76 1154.69C3430.52 1155.14 3434.33 1154.65 3437.85 1153.28C3402.83 1176.25 3370.99 1197.7 3335.97 1220.67L3334.72 1221.27L3212.57 1322.1C3211.39 1322.84 3210.14 1323.44 3208.83 1323.9L3097.95 1377.21C3095.75 1378.28 3093.8 1379.79 3092.22 1381.66C3090.63 1383.52 3089.45 1385.69 3088.75 1388.03C3088.05 1390.37 3087.84 1392.83 3088.13 1395.25C3088.43 1397.67 3089.23 1400.01 3090.47 1402.11L3198.77 1583.34C3199.69 1584.9 3200.88 1586.29 3202.28 1587.44L3286.96 1662.78C3288.73 1664.31 3352.98 1718.8 3347.51 1729.78C3332.94 1759.45 3233.37 1763.53 3233.37 1763.53C3231.11 1766.65 3227.88 1768.92 3224.19 1769.99L3079.58 1813.11C3077.27 1813.71 3075.11 1814.75 3073.2 1816.17L2904.46 1988.31C2857.7 2055.68 2806.14 2119.6 2750.19 2179.56C2690.34 2241.4 2620.91 2282.97 2615.51 2281.3L2479.16 2241.89C2475.38 2240.75 2472.08 2238.38 2469.79 2235.16C2467.5 2231.94 2466.35 2228.06 2466.51 2224.11L2469.6 2156C2469.73 2153.37 2469.27 2150.75 2468.26 2148.33C2467.25 2145.91 2465.71 2143.74 2463.76 2141.99C2461.8 2140.23 2459.48 2138.94 2456.96 2138.19C2454.44 2137.45 2451.79 2137.28 2449.19 2137.69L2068.6 2201.4C2064.38 2202.16 2060.03 2201.33 2056.39 2199.09C2056.39 2199.09 1599.38 2169.17 1595.16 2162.51C1595.16 2162.51 1490.51 2066.95 1499.34 1966.08C1511.18 1819.29 1639.06 1648.05 1638.64 1622.69Z" fill="#293135" stroke="#2D7D9A" stroke-miterlimit="10"/>
<path d="M605.841 2089.82C573.028 2077.64 565.509 1558.08 626.4 1426.73C629.076 1421.04 629.945 1414.68 628.891 1408.49C616.811 1316.65 647.25 973.621 637.087 903.866C629.079 848.412 620.668 793.776 611.854 739.959C610.633 732.068 612.33 724 616.626 717.262C620.922 710.523 627.524 705.576 635.2 703.342L826.325 649.787C830.999 648.459 835.321 646.11 838.975 642.908C842.63 639.707 845.527 635.733 847.456 631.276L907.564 492.968C909.149 489.472 911.29 486.255 913.905 483.443L1024.69 366.779C1029.08 362.137 1032 356.311 1033.11 350.024C1034.21 343.738 1033.44 337.268 1030.89 331.418C1009.86 283.762 1000.99 262.123 949.07 154.504C947.615 151.513 946.601 148.327 946.058 145.045C928.155 -4.61728 925.591 -155.731 938.406 -305.944C938.937 -311.672 937.94 -317.436 935.518 -322.651C933.095 -327.865 929.333 -332.345 924.614 -335.633C919.895 -338.922 914.388 -340.902 908.652 -341.373C902.915 -341.844 897.155 -340.788 891.957 -338.313L882.533 -333.782C878.434 -331.789 873.959 -330.69 869.404 -330.556C864.85 -330.423 860.32 -331.259 856.115 -333.009L609.144 -433.923C607.226 -434.709 605.23 -435.292 603.19 -435.662C557.61 -444.931 16.0382 -553.477 -145.834 -617.941C-150.483 -619.782 -154.645 -622.669 -157.996 -626.377C-161.347 -630.085 -163.798 -634.515 -165.159 -639.323L-176.676 -680.309C-178.526 -686.973 -182.452 -692.874 -187.886 -697.155C-193.319 -701.437 -199.978 -703.877 -206.896 -704.122L-309.236 -707.232C-315.311 -707.37 -321.22 -709.226 -326.278 -712.585C-331.337 -715.945 -335.336 -720.669 -337.814 -726.21C-382.434 -825.751 -413.006 -1060.03 -379.58 -1185.34C-378.347 -1189.9 -376.151 -1194.16 -373.14 -1197.81C-370.129 -1201.46 -366.371 -1204.43 -362.12 -1206.51L-278.964 -1246.5C-275.103 -1248.35 -271.644 -1250.94 -268.785 -1254.13C-265.926 -1257.32 -263.723 -1261.04 -262.302 -1265.07L-191.134 -1467.32C-189.242 -1472.78 -188.828 -1478.64 -189.933 -1484.3C-191.038 -1489.96 -193.623 -1495.23 -197.426 -1499.57L-234.047 -1540.25C-237.396 -1544.06 -239.806 -1548.6 -241.086 -1553.51C-242.366 -1558.42 -242.48 -1563.56 -241.419 -1568.52C-240.358 -1573.49 -238.151 -1578.13 -234.974 -1582.1C-231.798 -1586.06 -227.739 -1589.22 -223.123 -1591.34C-121.712 -1637.72 47.9561 -1669.54 148.118 -1663.51C155.945 -1663.04 163.336 -1659.76 168.924 -1654.27C174.513 -1648.78 177.92 -1641.46 178.516 -1633.64C180.244 -1612.66 181.694 -1591.55 183.561 -1570.63C184.028 -1564.91 186.001 -1559.41 189.28 -1554.7C192.558 -1549.99 197.026 -1546.23 202.23 -1543.8C207.434 -1541.37 213.189 -1540.36 218.912 -1540.87C224.636 -1541.38 230.124 -1543.4 234.821 -1546.71L270.848 -1572.21C277.172 -1577.02 285.028 -1579.37 292.951 -1578.82C300.874 -1578.27 308.324 -1574.86 313.915 -1569.23C317.627 -1565.49 322.196 -1562.71 327.229 -1561.13C332.262 -1559.55 337.605 -1559.22 342.796 -1560.17C347.987 -1561.12 352.868 -1563.33 357.017 -1566.59C361.166 -1569.85 364.457 -1574.07 366.605 -1578.89L507.04 -1890.11C507.77 -1891.84 508.696 -1893.49 509.8 -1895.02L694.118 -2168.2C697.133 -2172.94 698.872 -2178.38 699.167 -2183.98C699.461 -2189.59 698.301 -2195.17 695.798 -2200.19L616.599 -2364.91C615.354 -2367.6 613.701 -2370.08 611.696 -2372.26C548.764 -2440.33 642.283 -2724.56 689.77 -2813.18C693.562 -2820.24 699.839 -2825.66 707.387 -2828.37C714.936 -2831.09 723.221 -2830.92 730.644 -2827.89L823.56 -2790.08C828.801 -2787.9 834.533 -2787.15 840.166 -2787.91C845.798 -2788.67 851.127 -2790.91 855.604 -2794.42C908.161 -2834.51 1087.1 -2969.12 1159.78 -2994.7C1166.55 -2997 1173.88 -2997.03 1180.66 -2994.78C1187.44 -2992.54 1193.3 -2988.13 1197.33 -2982.25C1233.75 -2928.52 1270.27 -2874.79 1306.92 -2821.07C1310.53 -2815.74 1315.66 -2811.62 1321.65 -2809.23C1387.52 -2782.96 1786.95 -2622.26 1873.46 -2540.99C1877.92 -2536.8 1883.47 -2533.94 1889.48 -2532.73C1895.49 -2531.53 1901.71 -2532.02 1907.46 -2534.16C1991.91 -2562.39 2078.92 -2582.3 2167.24 -2593.63C2172.97 -2594.12 2178.47 -2596.12 2183.17 -2599.43C2187.88 -2602.74 2191.62 -2607.24 2194.01 -2612.47L2212.81 -2653.21C2214.9 -2657.8 2218.03 -2661.85 2221.96 -2665.02C2225.89 -2668.19 2230.5 -2670.41 2235.43 -2671.49C2240.36 -2672.57 2245.48 -2672.48 2250.37 -2671.24C2255.26 -2670 2259.79 -2667.64 2263.6 -2664.34C2317.12 -2618.32 2389.16 -2534.87 2418.71 -2473.07C2420.55 -2469.23 2423.13 -2465.8 2426.31 -2462.97C2429.49 -2460.14 2433.19 -2457.97 2437.21 -2456.57L2625.12 -2390.48C2632.55 -2387.83 2638.77 -2382.59 2642.63 -2375.72L2720 -2238.59L2820.5 -2029.59C2822.58 -2025.43 2823.73 -2020.86 2823.86 -2016.21L2825.59 -1939.84C2825.73 -1933.56 2827.67 -1927.45 2831.2 -1922.26C2834.73 -1917.06 2839.69 -1912.99 2845.48 -1910.55L2942.62 -1870C2947.68 -1867.89 2952.12 -1864.52 2955.52 -1860.22C2958.92 -1855.92 2961.18 -1850.83 2962.07 -1845.42C2962.97 -1840.01 2962.48 -1834.47 2960.64 -1829.3C2958.81 -1824.13 2955.69 -1819.5 2951.58 -1815.86C2921.8 -1789.1 2873.11 -1763.3 2840.71 -1762.55C2834.52 -1762.44 2828.5 -1760.57 2823.34 -1757.16C2818.18 -1753.74 2814.1 -1748.92 2811.59 -1743.27L2752.57 -1612.64C2750.53 -1608.11 2747.51 -1604.09 2743.72 -1600.88C2669.37 -1540.09 2485.78 -1540.42 2398.7 -1495.83C2394.39 -1493.56 2390.65 -1490.35 2387.74 -1486.45C2384.84 -1482.54 2382.84 -1478.04 2381.91 -1473.27L2336.21 -1238.27C2335.08 -1232.36 2335.61 -1226.24 2337.75 -1220.62C2339.88 -1214.99 2343.54 -1210.06 2348.31 -1206.39C2353.09 -1202.72 2358.78 -1200.44 2364.78 -1199.81C2370.77 -1199.18 2376.82 -1200.22 2382.26 -1202.82L2626.18 -1320.1C2630.72 -1322.36 2634.67 -1325.63 2637.71 -1329.67C2640.76 -1333.71 2642.83 -1338.4 2643.75 -1343.37C2644.67 -1348.35 2644.42 -1353.46 2643.02 -1358.32C2641.61 -1363.18 2639.1 -1367.64 2635.67 -1371.36L2588.28 -1422.7C2584.94 -1426.36 2582.47 -1430.72 2581.07 -1435.47C2579.67 -1440.22 2579.37 -1445.23 2580.2 -1450.11C2581.03 -1454.99 2582.96 -1459.62 2585.85 -1463.65C2588.73 -1467.68 2592.5 -1471 2596.86 -1473.35L2636.33 -1494.54C2641.41 -1497.73 2647.28 -1499.45 2653.28 -1499.5C2659.27 -1499.56 2665.17 -1497.95 2670.3 -1494.86L2807.76 -1400.25C2811.27 -1397.86 2815.22 -1396.17 2819.37 -1395.27L2962.6 -1364.62C2968.12 -1363.41 2973.23 -1360.79 2977.44 -1357.02C2981.65 -1353.25 2984.8 -1348.45 2986.6 -1343.1C3012.99 -1264.44 2959.04 -1081.03 2907.58 -1036.87C2903.74 -1033.48 2900.74 -1029.25 2898.82 -1024.51C2896.89 -1019.77 2896.1 -1014.65 2896.49 -1009.55L2917.85 -702.508C2918.06 -698.664 2917.6 -694.813 2916.5 -691.123L2902.53 -643.166C2901.19 -638.593 2898.86 -634.371 2895.7 -630.795C2892.55 -627.219 2888.65 -624.378 2884.28 -622.471C2879.91 -620.564 2875.17 -619.638 2870.41 -619.759C2865.64 -619.88 2860.96 -621.044 2856.69 -623.169L2798.64 -652.001C2794.05 -654.266 2790.06 -657.579 2787 -661.672C2783.93 -665.764 2781.88 -670.521 2781 -675.558C2772.81 -722.746 2755.19 -825.044 2747.5 -869.064C2746.44 -875.292 2743.57 -881.069 2739.26 -885.687C2734.94 -890.305 2729.37 -893.562 2723.23 -895.056L2672.13 -907.638C2665.8 -909.202 2659.14 -908.847 2653 -906.618L2630.31 -898.093C2626.07 -896.505 2622.21 -894.053 2618.97 -890.893C2615.73 -887.733 2613.19 -883.935 2611.5 -879.74C2609.81 -875.544 2609.01 -871.044 2609.15 -866.526C2609.3 -862.007 2610.38 -857.569 2612.34 -853.494L2620.72 -836.054C2624.34 -828.557 2624.95 -819.956 2622.42 -812.019C2619.89 -804.083 2614.41 -797.413 2607.12 -793.382L2433.41 -697.929C2431.29 -696.79 2429.33 -695.387 2427.56 -693.756C2382.32 -658.953 2335.15 -626.717 2286.29 -597.199C2280.23 -593.542 2275.52 -588.003 2272.9 -581.428C2270.28 -574.853 2269.88 -567.603 2271.76 -560.784C2273.65 -553.966 2277.72 -547.954 2283.35 -543.665C2288.97 -539.377 2295.85 -537.048 2302.94 -537.035L2687.09 -530.54L3079.89 -514.914C3085.78 -514.679 3091.48 -512.863 3096.42 -509.657C3101.35 -506.452 3105.33 -501.975 3107.93 -496.699L3189.46 -327.141C3190.55 -324.853 3191.93 -322.709 3193.55 -320.759L3439.19 -19.9864C3442.22 -16.17 3444.36 -11.7248 3445.44 -6.97549L3446.28 -3.4587C3447.78 2.54434 3447.52 8.85087 3445.54 14.7158C3443.56 20.5808 3439.95 25.7593 3435.12 29.6394C3430.29 33.5195 3424.46 35.9387 3418.3 36.6122C3412.14 37.2857 3405.92 36.1849 3400.38 33.4397C3372.74 19.9719 3345.18 6.29915 3317.68 -7.23529C3315.52 -8.32293 3313.47 -9.6192 3311.56 -11.1058C3276.33 -39.6659 3241.16 -68.0877 3206.07 -96.7144C3201.33 -100.556 3195.6 -102.989 3189.54 -103.736C3183.48 -104.483 3177.33 -103.515 3171.79 -100.941C3166.26 -98.3665 3161.55 -94.2904 3158.22 -89.1766C3154.88 -84.0628 3153.05 -78.117 3152.93 -72.0169L3152.75 -56.4223C3152.6 -51.6642 3153.52 -46.9347 3155.44 -42.5789C3157.36 -38.2231 3160.22 -34.3512 3163.83 -31.2464L3329.25 112.287C3332.97 115.405 3337.32 117.673 3342.01 118.936L3494.61 160.931C3499.91 162.438 3505.51 162.578 3510.88 161.336C3516.25 160.095 3521.22 157.512 3525.33 153.831L3570.5 115.067C3573.89 112.252 3577.74 110.054 3581.88 108.572L3870.74 24.046L3892.34 44.844C3894.14 43.9777 3902.4 39.1541 3917.84 32.5825C3920.61 31.2497 3916.84 13.4659 3919.61 12.1332C3933.47 5.46923 3959.26 -3.00905 3959.26 -3.00905L3976.47 8.3105L4017.65 -3.64845L4039.82 11.5932C4045.63 12.0325 4051.46 10.9347 4056.72 8.41019L4110.49 -17.4458C4114.67 -19.446 4119.22 -20.5362 4123.84 -20.643C4128.47 -20.7498 4133.06 -19.8711 4137.32 -18.0655C4141.58 -16.2599 4145.4 -13.5686 4148.54 -10.1708C4151.67 -6.77306 4154.05 -2.74629 4155.5 1.64109L4254.16 299.805C4255.51 303.919 4256.03 308.263 4255.68 312.581C4255.33 316.899 4254.13 321.105 4252.13 324.952C4250.13 328.8 4247.39 332.212 4244.06 334.989C4240.73 337.765 4236.88 339.851 4232.74 341.123L4128.47 372.684C4122.86 374.454 4117.85 377.711 4113.95 382.106C4110.05 386.501 4107.42 391.869 4106.34 397.639L4095.26 454.09C4093.81 461.93 4089.53 468.966 4083.22 473.853C4076.92 478.74 4069.03 481.136 4061.07 480.582C3982.02 474.798 3844.7 435.848 3773.87 380.097C3771.35 377.996 3769.1 375.584 3767.18 372.919C3734.71 325.024 3702.21 277.083 3669.7 229.096C3665.08 222.231 3658.01 217.393 3649.93 215.574C3641.86 213.754 3633.39 215.09 3626.26 219.309L3363.6 372.868C3359.03 375.507 3353.88 376.987 3348.61 377.179L3208.59 382.644C3200.76 382.976 3193.07 380.465 3186.96 375.574C3180.84 370.683 3176.71 363.743 3175.32 356.037L3149.79 214.938C3148.71 209.859 3146.43 205.113 3143.14 201.097L3088.61 127.449C3083.52 120.643 3075.96 116.101 3067.55 114.795C3059.14 113.488 3050.55 115.52 3043.62 120.456L2815.45 284.699C2811.88 287.353 2807.83 289.299 2803.53 290.43L2476.16 362.632C2471.64 363.779 2467.4 365.819 2463.69 368.629L2420.46 401.17C2416.71 403.912 2413.58 407.419 2411.29 411.46C2409 415.501 2407.59 419.983 2407.16 424.608L2395.28 617.78C2395 622.351 2393.77 626.815 2391.66 630.879C2389.54 634.944 2386.6 638.518 2383.01 641.37C2379.42 644.221 2375.27 646.284 2370.83 647.425C2366.39 648.567 2361.76 648.761 2357.25 647.994C2237.92 628.003 2029.86 661.241 1930.9 709.165C1926.92 711.111 1923.39 713.847 1920.52 717.205C1917.64 720.563 1915.48 724.473 1914.17 728.694C1912.86 732.915 1912.43 737.358 1912.9 741.75C1913.37 746.143 1914.73 750.392 1916.91 754.236L1920.5 761.711C1922.86 765.894 1924.27 770.552 1924.61 775.346C1924.95 780.14 1924.21 784.951 1922.46 789.43C1920.71 793.909 1917.99 797.944 1914.49 801.243C1910.99 804.542 1906.79 807.022 1902.22 808.504L1746.96 859.297C1742.88 860.624 1739.11 862.745 1735.85 865.539C1732.6 868.333 1729.93 871.743 1728 875.573C1703.55 925.503 1716.25 1060.16 1751.88 1102.67C1755.07 1106.25 1757.42 1110.51 1758.75 1115.12C1760.08 1119.73 1760.36 1124.58 1759.57 1129.31L1731.41 1286.51C1730.35 1292.36 1730.94 1298.39 1733.12 1303.92L1754.9 1356.67C1756.94 1362.01 1757.53 1367.79 1756.62 1373.43C1755.71 1379.08 1753.33 1384.38 1749.72 1388.82L1654.18 1506.33C1650.47 1510.88 1648.07 1516.35 1647.22 1522.16C1646.38 1527.97 1647.13 1533.89 1649.39 1539.31L1708.51 1682.49C1711.68 1690.06 1711.85 1698.55 1709 1706.24C1706.14 1713.94 1700.47 1720.27 1693.13 1723.96L1669.99 1735.09C1665.27 1737.49 1660.04 1738.7 1654.74 1738.64C1649.45 1738.57 1644.26 1737.22 1639.6 1734.71L1533.12 1676.84C1527.94 1674.04 1522.1 1672.7 1516.22 1672.98C1510.33 1673.25 1504.64 1675.13 1499.74 1678.41L1322.76 1797.58C1317.88 1800.77 1312.26 1802.65 1306.45 1803.04C1264.31 1806.26 1077.79 1817.22 950.548 1836.13C944.558 1837.01 938.927 1839.53 934.286 1843.41C929.646 1847.3 926.178 1852.4 924.273 1858.14L887.141 1970.07C886.331 1972.65 885.157 1975.11 883.655 1977.37L815.259 2083.53C811.454 2089.5 805.768 2094.03 799.1 2096.41L714.845 2127.72C706.959 2130.66 698.245 2130.46 690.512 2127.15L605.841 2089.82Z" fill="#293135" stroke="#2D7D9A" stroke-opacity="0.38" stroke-miterlimit="10"/>
<path d="M1264 338.38C1259.53 338.38 1255.15 339.707 1251.43 342.192C1247.71 344.678 1244.81 348.21 1243.1 352.344C1241.39 356.477 1240.94 361.025 1241.81 365.413C1242.69 369.801 1244.84 373.831 1248 376.995C1251.17 380.158 1255.2 382.312 1259.59 383.185C1263.97 384.058 1268.52 383.61 1272.66 381.898C1276.79 380.186 1280.32 377.287 1282.81 373.567C1285.29 369.847 1286.62 365.474 1286.62 361C1286.62 355.001 1284.24 349.247 1279.99 345.005C1275.75 340.763 1270 338.38 1264 338.38V338.38ZM1265.41 356.76C1265.6 356.743 1265.8 356.768 1265.99 356.831C1266.17 356.895 1266.34 356.997 1266.49 357.13C1266.63 357.263 1266.75 357.424 1266.83 357.604C1266.91 357.784 1266.95 357.978 1266.95 358.175C1266.95 358.371 1266.91 358.566 1266.83 358.746C1266.75 358.926 1266.63 359.087 1266.49 359.22C1266.34 359.353 1266.17 359.455 1265.99 359.518C1265.8 359.582 1265.6 359.606 1265.41 359.59H1258.46C1258.39 360.057 1258.35 360.528 1258.35 361C1258.35 361.472 1258.39 361.943 1258.46 362.41H1264C1264.35 362.44 1264.68 362.602 1264.93 362.864C1265.17 363.126 1265.3 363.469 1265.3 363.825C1265.3 364.181 1265.17 364.524 1264.93 364.786C1264.68 365.048 1264.35 365.21 1264 365.24H1259.33C1259.84 366.449 1260.68 367.489 1261.76 368.24C1262.83 368.99 1264.1 369.42 1265.41 369.48C1266.64 369.483 1267.85 369.106 1268.86 368.4C1269.17 368.189 1269.55 368.11 1269.92 368.179C1270.28 368.248 1270.61 368.461 1270.82 368.77C1271.03 369.079 1271.11 369.459 1271.04 369.827C1270.97 370.194 1270.76 370.519 1270.45 370.73C1268.98 371.746 1267.24 372.296 1265.45 372.31C1261.31 372.31 1257.77 369.38 1256.29 365.24H1254.1C1253.74 365.21 1253.41 365.048 1253.17 364.786C1252.93 364.524 1252.8 364.181 1252.8 363.825C1252.8 363.469 1252.93 363.126 1253.17 362.864C1253.41 362.602 1253.74 362.44 1254.1 362.41H1255.64C1255.57 361.942 1255.53 361.472 1255.52 361C1255.53 360.528 1255.57 360.057 1255.64 359.59H1254.1C1253.74 359.56 1253.41 359.398 1253.17 359.136C1252.93 358.874 1252.8 358.531 1252.8 358.175C1252.8 357.819 1252.93 357.476 1253.17 357.214C1253.41 356.952 1253.74 356.79 1254.1 356.76H1256.25C1257.73 352.62 1261.25 349.69 1265.41 349.69C1267.2 349.704 1268.94 350.254 1270.41 351.27C1270.72 351.481 1270.93 351.806 1271 352.173C1271.07 352.541 1270.99 352.921 1270.78 353.23C1270.57 353.539 1270.24 353.751 1269.88 353.821C1269.51 353.89 1269.13 353.811 1268.82 353.6C1267.81 352.894 1266.6 352.517 1265.37 352.52C1264.06 352.58 1262.79 353.01 1261.72 353.76C1260.64 354.511 1259.8 355.551 1259.29 356.76H1265.41Z" fill="#2D7D9A"/>
<path d="M1468 290.38C1463.53 290.38 1459.15 291.707 1455.43 294.192C1451.71 296.678 1448.81 300.21 1447.1 304.344C1445.39 308.477 1444.94 313.025 1445.81 317.413C1446.69 321.801 1448.84 325.831 1452 328.995C1455.17 332.158 1459.2 334.312 1463.59 335.185C1467.97 336.058 1472.52 335.61 1476.66 333.898C1480.79 332.186 1484.32 329.287 1486.81 325.567C1489.29 321.847 1490.62 317.474 1490.62 313C1490.62 307.001 1488.24 301.247 1483.99 297.005C1479.75 292.763 1474 290.38 1468 290.38V290.38ZM1469.41 308.76C1469.6 308.743 1469.8 308.768 1469.99 308.831C1470.17 308.895 1470.34 308.997 1470.49 309.13C1470.63 309.263 1470.75 309.424 1470.83 309.604C1470.91 309.784 1470.95 309.978 1470.95 310.175C1470.95 310.371 1470.91 310.566 1470.83 310.746C1470.75 310.926 1470.63 311.087 1470.49 311.22C1470.34 311.353 1470.17 311.455 1469.99 311.518C1469.8 311.582 1469.6 311.606 1469.41 311.59H1462.46C1462.39 312.057 1462.35 312.528 1462.35 313C1462.35 313.472 1462.39 313.943 1462.46 314.41H1468C1468.35 314.44 1468.68 314.602 1468.93 314.864C1469.17 315.126 1469.3 315.469 1469.3 315.825C1469.3 316.181 1469.17 316.524 1468.93 316.786C1468.68 317.048 1468.35 317.21 1468 317.24H1463.33C1463.84 318.449 1464.68 319.489 1465.76 320.24C1466.83 320.99 1468.1 321.42 1469.41 321.48C1470.64 321.483 1471.85 321.106 1472.86 320.4C1473.17 320.189 1473.55 320.11 1473.92 320.179C1474.28 320.248 1474.61 320.461 1474.82 320.77C1475.03 321.079 1475.11 321.459 1475.04 321.827C1474.97 322.194 1474.76 322.519 1474.45 322.73C1472.98 323.746 1471.24 324.296 1469.45 324.31C1465.31 324.31 1461.77 321.38 1460.29 317.24H1458.1C1457.74 317.21 1457.41 317.048 1457.17 316.786C1456.93 316.524 1456.8 316.181 1456.8 315.825C1456.8 315.469 1456.93 315.126 1457.17 314.864C1457.41 314.602 1457.74 314.44 1458.1 314.41H1459.64C1459.57 313.942 1459.53 313.472 1459.52 313C1459.53 312.528 1459.57 312.057 1459.64 311.59H1458.1C1457.74 311.56 1457.41 311.398 1457.17 311.136C1456.93 310.874 1456.8 310.531 1456.8 310.175C1456.8 309.819 1456.93 309.476 1457.17 309.214C1457.41 308.952 1457.74 308.79 1458.1 308.76H1460.25C1461.73 304.62 1465.25 301.69 1469.41 301.69C1471.2 301.704 1472.94 302.254 1474.41 303.27C1474.72 303.481 1474.93 303.806 1475 304.173C1475.07 304.541 1474.99 304.921 1474.78 305.23C1474.57 305.539 1474.24 305.751 1473.88 305.821C1473.51 305.89 1473.13 305.811 1472.82 305.6C1471.81 304.894 1470.6 304.517 1469.37 304.52C1468.06 304.58 1466.79 305.01 1465.72 305.76C1464.64 306.511 1463.8 307.551 1463.29 308.76H1469.41Z" fill="#2D7D9A"/>
<path d="M1444 694.38C1439.53 694.38 1435.15 695.707 1431.43 698.192C1427.71 700.678 1424.81 704.21 1423.1 708.344C1421.39 712.477 1420.94 717.025 1421.81 721.413C1422.69 725.801 1424.84 729.831 1428 732.995C1431.17 736.158 1435.2 738.312 1439.59 739.185C1443.97 740.058 1448.52 739.61 1452.66 737.898C1456.79 736.186 1460.32 733.287 1462.81 729.567C1465.29 725.847 1466.62 721.474 1466.62 717C1466.62 711.001 1464.24 705.247 1459.99 701.005C1455.75 696.763 1450 694.38 1444 694.38V694.38ZM1445.41 712.76C1445.6 712.743 1445.8 712.768 1445.99 712.831C1446.17 712.895 1446.34 712.997 1446.49 713.13C1446.63 713.263 1446.75 713.424 1446.83 713.604C1446.91 713.784 1446.95 713.978 1446.95 714.175C1446.95 714.371 1446.91 714.566 1446.83 714.746C1446.75 714.926 1446.63 715.087 1446.49 715.22C1446.34 715.353 1446.17 715.455 1445.99 715.518C1445.8 715.582 1445.6 715.606 1445.41 715.59H1438.46C1438.39 716.057 1438.35 716.528 1438.35 717C1438.35 717.472 1438.39 717.943 1438.46 718.41H1444C1444.35 718.44 1444.68 718.602 1444.93 718.864C1445.17 719.126 1445.3 719.469 1445.3 719.825C1445.3 720.181 1445.17 720.524 1444.93 720.786C1444.68 721.048 1444.35 721.21 1444 721.24H1439.33C1439.84 722.449 1440.68 723.489 1441.76 724.24C1442.83 724.99 1444.1 725.42 1445.41 725.48C1446.64 725.483 1447.85 725.106 1448.86 724.4C1449.17 724.189 1449.55 724.11 1449.92 724.179C1450.28 724.248 1450.61 724.461 1450.82 724.77C1451.03 725.079 1451.11 725.459 1451.04 725.827C1450.97 726.194 1450.76 726.519 1450.45 726.73C1448.98 727.746 1447.24 728.296 1445.45 728.31C1441.31 728.31 1437.77 725.38 1436.29 721.24H1434.1C1433.74 721.21 1433.41 721.048 1433.17 720.786C1432.93 720.524 1432.8 720.181 1432.8 719.825C1432.8 719.469 1432.93 719.126 1433.17 718.864C1433.41 718.602 1433.74 718.44 1434.1 718.41H1435.64C1435.57 717.942 1435.53 717.472 1435.52 717C1435.53 716.528 1435.57 716.057 1435.64 715.59H1434.1C1433.74 715.56 1433.41 715.398 1433.17 715.136C1432.93 714.874 1432.8 714.531 1432.8 714.175C1432.8 713.819 1432.93 713.476 1433.17 713.214C1433.41 712.952 1433.74 712.79 1434.1 712.76H1436.25C1437.73 708.62 1441.25 705.69 1445.41 705.69C1447.2 705.704 1448.94 706.254 1450.41 707.27C1450.72 707.481 1450.93 707.806 1451 708.173C1451.07 708.541 1450.99 708.921 1450.78 709.23C1450.57 709.539 1450.24 709.751 1449.88 709.821C1449.51 709.89 1449.13 709.811 1448.82 709.6C1447.81 708.894 1446.6 708.517 1445.37 708.52C1444.06 708.58 1442.79 709.01 1441.72 709.76C1440.64 710.511 1439.8 711.551 1439.29 712.76H1445.41Z" fill="#2D7D9A"/>
<path d="M1558.19 517.38C1553.72 517.38 1549.35 518.707 1545.63 521.192C1541.91 523.678 1539.01 527.21 1537.3 531.344C1535.58 535.477 1535.14 540.025 1536.01 544.413C1536.88 548.801 1539.04 552.831 1542.2 555.995C1545.36 559.158 1549.39 561.312 1553.78 562.185C1558.17 563.058 1562.72 562.61 1566.85 560.898C1570.98 559.186 1574.52 556.287 1577 552.567C1579.49 548.847 1580.81 544.474 1580.81 540C1580.81 534.001 1578.43 528.247 1574.19 524.005C1569.95 519.763 1564.19 517.38 1558.19 517.38V517.38ZM1559.6 535.76C1559.8 535.743 1560 535.768 1560.18 535.831C1560.37 535.895 1560.54 535.997 1560.68 536.13C1560.83 536.263 1560.94 536.424 1561.02 536.604C1561.1 536.784 1561.14 536.978 1561.14 537.175C1561.14 537.371 1561.1 537.566 1561.02 537.746C1560.94 537.926 1560.83 538.087 1560.68 538.22C1560.54 538.353 1560.37 538.455 1560.18 538.518C1560 538.582 1559.8 538.606 1559.6 538.59H1552.65C1552.59 539.057 1552.55 539.528 1552.54 540C1552.55 540.472 1552.59 540.943 1552.65 541.41H1558.19C1558.55 541.44 1558.88 541.602 1559.12 541.864C1559.36 542.126 1559.5 542.469 1559.5 542.825C1559.5 543.181 1559.36 543.524 1559.12 543.786C1558.88 544.048 1558.55 544.21 1558.19 544.24H1553.52C1554.03 545.449 1554.87 546.489 1555.95 547.24C1557.03 547.99 1558.29 548.42 1559.6 548.48C1560.84 548.483 1562.04 548.106 1563.05 547.4C1563.36 547.189 1563.74 547.11 1564.11 547.179C1564.48 547.248 1564.8 547.461 1565.01 547.77C1565.23 548.079 1565.3 548.459 1565.24 548.827C1565.17 549.194 1564.95 549.519 1564.64 549.73C1563.17 550.746 1561.43 551.296 1559.64 551.31C1555.5 551.31 1551.96 548.38 1550.48 544.24H1548.29C1547.94 544.21 1547.61 544.048 1547.37 543.786C1547.13 543.524 1546.99 543.181 1546.99 542.825C1546.99 542.469 1547.13 542.126 1547.37 541.864C1547.61 541.602 1547.94 541.44 1548.29 541.41H1549.83C1549.77 540.942 1549.73 540.472 1549.71 540C1549.73 539.528 1549.77 539.057 1549.83 538.59H1548.29C1547.94 538.56 1547.61 538.398 1547.37 538.136C1547.13 537.874 1546.99 537.531 1546.99 537.175C1546.99 536.819 1547.13 536.476 1547.37 536.214C1547.61 535.952 1547.94 535.79 1548.29 535.76H1550.44C1551.92 531.62 1555.44 528.69 1559.6 528.69C1561.39 528.704 1563.13 529.254 1564.6 530.27C1564.91 530.481 1565.13 530.806 1565.2 531.173C1565.26 531.541 1565.19 531.921 1564.97 532.23C1564.76 532.539 1564.44 532.751 1564.07 532.821C1563.7 532.89 1563.32 532.811 1563.01 532.6C1562 531.894 1560.8 531.517 1559.56 531.52C1558.25 531.58 1556.99 532.01 1555.91 532.76C1554.83 533.511 1553.99 534.551 1553.48 535.76H1559.6Z" fill="#2D7D9A"/>
<path d="M1606.19 718.38C1601.72 718.38 1597.35 719.707 1593.63 722.192C1589.91 724.678 1587.01 728.21 1585.3 732.344C1583.58 736.477 1583.14 741.025 1584.01 745.413C1584.88 749.801 1587.04 753.831 1590.2 756.995C1593.36 760.158 1597.39 762.312 1601.78 763.185C1606.17 764.058 1610.72 763.61 1614.85 761.898C1618.98 760.186 1622.52 757.287 1625 753.567C1627.49 749.847 1628.81 745.474 1628.81 741C1628.81 735.001 1626.43 729.247 1622.19 725.005C1617.95 720.763 1612.19 718.38 1606.19 718.38V718.38ZM1607.6 736.76C1607.8 736.743 1608 736.768 1608.18 736.831C1608.37 736.895 1608.54 736.997 1608.68 737.13C1608.83 737.263 1608.94 737.424 1609.02 737.604C1609.1 737.784 1609.14 737.978 1609.14 738.175C1609.14 738.371 1609.1 738.566 1609.02 738.746C1608.94 738.926 1608.83 739.087 1608.68 739.22C1608.54 739.353 1608.37 739.455 1608.18 739.518C1608 739.582 1607.8 739.606 1607.6 739.59H1600.65C1600.59 740.057 1600.55 740.528 1600.54 741C1600.55 741.472 1600.59 741.943 1600.65 742.41H1606.19C1606.55 742.44 1606.88 742.602 1607.12 742.864C1607.36 743.126 1607.5 743.469 1607.5 743.825C1607.5 744.181 1607.36 744.524 1607.12 744.786C1606.88 745.048 1606.55 745.21 1606.19 745.24H1601.52C1602.03 746.449 1602.87 747.489 1603.95 748.24C1605.03 748.99 1606.29 749.42 1607.6 749.48C1608.84 749.483 1610.04 749.106 1611.05 748.4C1611.36 748.189 1611.74 748.11 1612.11 748.179C1612.48 748.248 1612.8 748.461 1613.01 748.77C1613.23 749.079 1613.3 749.459 1613.24 749.827C1613.17 750.194 1612.95 750.519 1612.64 750.73C1611.17 751.746 1609.43 752.296 1607.64 752.31C1603.5 752.31 1599.96 749.38 1598.48 745.24H1596.29C1595.94 745.21 1595.61 745.048 1595.37 744.786C1595.13 744.524 1594.99 744.181 1594.99 743.825C1594.99 743.469 1595.13 743.126 1595.37 742.864C1595.61 742.602 1595.94 742.44 1596.29 742.41H1597.83C1597.77 741.942 1597.73 741.472 1597.71 741C1597.73 740.528 1597.77 740.057 1597.83 739.59H1596.29C1595.94 739.56 1595.61 739.398 1595.37 739.136C1595.13 738.874 1594.99 738.531 1594.99 738.175C1594.99 737.819 1595.13 737.476 1595.37 737.214C1595.61 736.952 1595.94 736.79 1596.29 736.76H1598.44C1599.92 732.62 1603.44 729.69 1607.6 729.69C1609.39 729.704 1611.13 730.254 1612.6 731.27C1612.91 731.481 1613.13 731.806 1613.2 732.173C1613.26 732.541 1613.19 732.921 1612.97 733.23C1612.76 733.539 1612.44 733.751 1612.07 733.821C1611.7 733.89 1611.32 733.811 1611.01 733.6C1610 732.894 1608.8 732.517 1607.56 732.52C1606.25 732.58 1604.99 733.01 1603.91 733.76C1602.83 734.511 1601.99 735.551 1601.48 736.76H1607.6Z" fill="#2D7D9A"/>
<path d="M1814 337C1809.53 337 1805.15 338.327 1801.43 340.812C1797.71 343.298 1794.81 346.83 1793.1 350.964C1791.39 355.097 1790.94 359.645 1791.81 364.033C1792.69 368.421 1794.84 372.451 1798 375.615C1801.17 378.778 1805.2 380.933 1809.59 381.805C1813.97 382.678 1818.52 382.23 1822.66 380.518C1826.79 378.806 1830.32 375.907 1832.81 372.187C1835.29 368.467 1836.62 364.094 1836.62 359.62C1836.62 353.621 1834.24 347.867 1829.99 343.625C1825.75 339.383 1820 337 1814 337V337ZM1815.41 355.38C1815.6 355.364 1815.8 355.388 1815.99 355.452C1816.17 355.515 1816.34 355.617 1816.49 355.75C1816.63 355.883 1816.75 356.044 1816.83 356.224C1816.91 356.404 1816.95 356.598 1816.95 356.795C1816.95 356.992 1816.91 357.186 1816.83 357.366C1816.75 357.546 1816.63 357.707 1816.49 357.84C1816.34 357.973 1816.17 358.075 1815.99 358.139C1815.8 358.202 1815.6 358.226 1815.41 358.21H1808.46C1808.39 358.677 1808.35 359.148 1808.35 359.62C1808.35 360.092 1808.39 360.563 1808.46 361.03H1814C1814.35 361.06 1814.68 361.222 1814.93 361.484C1815.17 361.746 1815.3 362.089 1815.3 362.445C1815.3 362.801 1815.17 363.144 1814.93 363.406C1814.68 363.668 1814.35 363.83 1814 363.86H1809.33C1809.84 365.069 1810.68 366.109 1811.76 366.86C1812.83 367.61 1814.1 368.04 1815.41 368.1C1816.64 368.103 1817.85 367.726 1818.86 367.02C1819.17 366.809 1819.55 366.73 1819.92 366.799C1820.28 366.868 1820.61 367.081 1820.82 367.39C1821.03 367.699 1821.11 368.079 1821.04 368.447C1820.97 368.814 1820.76 369.139 1820.45 369.35C1818.98 370.366 1817.24 370.916 1815.45 370.93C1811.31 370.93 1807.77 368 1806.29 363.86H1804.1C1803.74 363.83 1803.41 363.668 1803.17 363.406C1802.93 363.144 1802.8 362.801 1802.8 362.445C1802.8 362.089 1802.93 361.746 1803.17 361.484C1803.41 361.222 1803.74 361.06 1804.1 361.03H1805.64C1805.57 360.562 1805.53 360.092 1805.52 359.62C1805.53 359.148 1805.57 358.678 1805.64 358.21H1804.1C1803.74 358.18 1803.41 358.018 1803.17 357.756C1802.93 357.494 1802.8 357.151 1802.8 356.795C1802.8 356.439 1802.93 356.096 1803.17 355.834C1803.41 355.572 1803.74 355.41 1804.1 355.38H1806.25C1807.73 351.24 1811.25 348.31 1815.41 348.31C1817.2 348.324 1818.94 348.874 1820.41 349.89C1820.72 350.101 1820.93 350.426 1821 350.793C1821.07 351.161 1820.99 351.541 1820.78 351.85C1820.57 352.159 1820.24 352.372 1819.88 352.441C1819.51 352.51 1819.13 352.431 1818.82 352.22C1817.81 351.514 1816.6 351.137 1815.37 351.14C1814.06 351.2 1812.79 351.63 1811.72 352.38C1810.64 353.131 1809.8 354.171 1809.29 355.38H1815.41Z" fill="#2D7D9A"/>
<path d="M1052.12 717C1047.65 717 1043.27 718.327 1039.55 720.812C1035.83 723.298 1032.93 726.83 1031.22 730.964C1029.51 735.097 1029.06 739.645 1029.93 744.033C1030.81 748.421 1032.96 752.451 1036.13 755.615C1039.29 758.778 1043.32 760.933 1047.71 761.805C1052.09 762.678 1056.64 762.23 1060.78 760.518C1064.91 758.806 1068.44 755.907 1070.93 752.187C1073.41 748.467 1074.74 744.094 1074.74 739.62C1074.74 733.621 1072.36 727.867 1068.11 723.625C1063.87 719.383 1058.12 717 1052.12 717V717ZM1053.53 735.38C1053.73 735.364 1053.92 735.388 1054.11 735.452C1054.29 735.515 1054.47 735.617 1054.61 735.75C1054.75 735.883 1054.87 736.044 1054.95 736.224C1055.03 736.404 1055.07 736.598 1055.07 736.795C1055.07 736.992 1055.03 737.186 1054.95 737.366C1054.87 737.546 1054.75 737.707 1054.61 737.84C1054.47 737.973 1054.29 738.075 1054.11 738.139C1053.92 738.202 1053.73 738.226 1053.53 738.21H1046.58C1046.51 738.677 1046.48 739.148 1046.47 739.62C1046.48 740.092 1046.51 740.563 1046.58 741.03H1052.12C1052.47 741.06 1052.81 741.222 1053.05 741.484C1053.29 741.746 1053.42 742.089 1053.42 742.445C1053.42 742.801 1053.29 743.144 1053.05 743.406C1052.81 743.668 1052.47 743.83 1052.12 743.86H1047.45C1047.96 745.069 1048.8 746.109 1049.88 746.86C1050.95 747.61 1052.22 748.04 1053.53 748.1C1054.76 748.103 1055.97 747.726 1056.98 747.02C1057.29 746.809 1057.67 746.73 1058.04 746.799C1058.4 746.868 1058.73 747.081 1058.94 747.39C1059.15 747.699 1059.23 748.079 1059.16 748.447C1059.09 748.814 1058.88 749.139 1058.57 749.35C1057.1 750.366 1055.36 750.916 1053.57 750.93C1049.43 750.93 1045.89 748 1044.41 743.86H1042.22C1041.87 743.83 1041.53 743.668 1041.29 743.406C1041.05 743.144 1040.92 742.801 1040.92 742.445C1040.92 742.089 1041.05 741.746 1041.29 741.484C1041.53 741.222 1041.87 741.06 1042.22 741.03H1043.76C1043.69 740.562 1043.65 740.092 1043.64 739.62C1043.65 739.148 1043.69 738.678 1043.76 738.21H1042.22C1041.87 738.18 1041.53 738.018 1041.29 737.756C1041.05 737.494 1040.92 737.151 1040.92 736.795C1040.92 736.439 1041.05 736.096 1041.29 735.834C1041.53 735.572 1041.87 735.41 1042.22 735.38H1044.37C1045.85 731.24 1049.37 728.31 1053.53 728.31C1055.32 728.324 1057.06 728.874 1058.53 729.89C1058.84 730.101 1059.05 730.426 1059.12 730.793C1059.19 731.161 1059.11 731.541 1058.9 731.85C1058.69 732.159 1058.36 732.372 1058 732.441C1057.63 732.51 1057.25 732.431 1056.94 732.22C1055.93 731.514 1054.72 731.137 1053.49 731.14C1052.18 731.2 1050.91 731.63 1049.84 732.38C1048.76 733.131 1047.92 734.171 1047.41 735.38H1053.53Z" fill="#2D7D9A"/>
<path d="M791.999 949.38C787.525 949.38 783.152 950.707 779.432 953.192C775.712 955.678 772.813 959.21 771.101 963.344C769.389 967.477 768.941 972.025 769.814 976.413C770.686 980.801 772.841 984.831 776.004 987.995C779.168 991.158 783.198 993.312 787.586 994.185C791.974 995.058 796.522 994.61 800.655 992.898C804.788 991.186 808.321 988.287 810.807 984.567C813.292 980.847 814.619 976.474 814.619 972C814.619 966.001 812.236 960.247 807.994 956.005C803.752 951.763 797.998 949.38 791.999 949.38V949.38ZM793.409 967.76C793.605 967.743 793.802 967.768 793.988 967.831C794.174 967.895 794.344 967.997 794.489 968.13C794.634 968.263 794.749 968.424 794.828 968.604C794.907 968.784 794.948 968.978 794.948 969.175C794.948 969.371 794.907 969.566 794.828 969.746C794.749 969.926 794.634 970.087 794.489 970.22C794.344 970.353 794.174 970.455 793.988 970.518C793.802 970.582 793.605 970.606 793.409 970.59H786.459C786.392 971.057 786.355 971.528 786.349 972C786.355 972.472 786.392 972.943 786.459 973.41H791.999C792.354 973.44 792.684 973.602 792.925 973.864C793.166 974.126 793.3 974.469 793.3 974.825C793.3 975.181 793.166 975.524 792.925 975.786C792.684 976.048 792.354 976.21 791.999 976.24H787.329C787.838 977.449 788.679 978.489 789.755 979.24C790.832 979.99 792.098 980.42 793.409 980.48C794.643 980.483 795.847 980.106 796.859 979.4C797.168 979.189 797.548 979.11 797.916 979.179C798.283 979.248 798.608 979.461 798.819 979.77C799.03 980.079 799.109 980.459 799.04 980.827C798.97 981.194 798.758 981.519 798.449 981.73C796.978 982.746 795.236 983.296 793.449 983.31C789.309 983.31 785.769 980.38 784.289 976.24H782.099C781.744 976.21 781.414 976.048 781.173 975.786C780.932 975.524 780.798 975.181 780.798 974.825C780.798 974.469 780.932 974.126 781.173 973.864C781.414 973.602 781.744 973.44 782.099 973.41H783.639C783.574 972.942 783.534 972.472 783.519 972C783.534 971.528 783.574 971.057 783.639 970.59H782.099C781.744 970.56 781.414 970.398 781.173 970.136C780.932 969.874 780.798 969.531 780.798 969.175C780.798 968.819 780.932 968.476 781.173 968.214C781.414 967.952 781.744 967.79 782.099 967.76H784.249C785.729 963.62 789.249 960.69 793.409 960.69C795.196 960.704 796.938 961.254 798.409 962.27C798.718 962.481 798.93 962.806 799 963.173C799.069 963.541 798.99 963.921 798.779 964.23C798.568 964.539 798.243 964.751 797.876 964.821C797.508 964.89 797.128 964.811 796.819 964.6C795.807 963.894 794.603 963.517 793.369 963.52C792.058 963.58 790.792 964.01 789.715 964.76C788.639 965.511 787.798 966.551 787.289 967.76H793.409Z" fill="#2D7D9A"/>
<path d="M1352 518.76C1347.53 518.76 1343.15 520.086 1339.43 522.572C1335.71 525.057 1332.81 528.59 1331.1 532.723C1329.39 536.857 1328.94 541.405 1329.81 545.793C1330.69 550.181 1332.84 554.211 1336 557.375C1339.17 560.538 1343.2 562.692 1347.59 563.565C1351.97 564.438 1356.52 563.99 1360.66 562.278C1364.79 560.566 1368.32 557.667 1370.81 553.947C1373.29 550.227 1374.62 545.854 1374.62 541.38C1374.62 535.381 1372.24 529.627 1367.99 525.385C1363.75 521.143 1358 518.76 1352 518.76V518.76ZM1353.41 537.14C1353.6 537.123 1353.8 537.148 1353.99 537.211C1354.17 537.275 1354.34 537.376 1354.49 537.509C1354.63 537.642 1354.75 537.804 1354.83 537.984C1354.91 538.164 1354.95 538.358 1354.95 538.555C1354.95 538.751 1354.91 538.946 1354.83 539.126C1354.75 539.306 1354.63 539.467 1354.49 539.6C1354.34 539.733 1354.17 539.835 1353.99 539.898C1353.8 539.962 1353.6 539.986 1353.41 539.97H1346.46C1346.39 540.437 1346.35 540.908 1346.35 541.38C1346.35 541.852 1346.39 542.323 1346.46 542.79H1352C1352.35 542.82 1352.68 542.982 1352.93 543.244C1353.17 543.506 1353.3 543.849 1353.3 544.205C1353.3 544.561 1353.17 544.904 1352.93 545.166C1352.68 545.428 1352.35 545.59 1352 545.62H1347.33C1347.84 546.829 1348.68 547.869 1349.76 548.619C1350.83 549.37 1352.1 549.8 1353.41 549.86C1354.64 549.863 1355.85 549.486 1356.86 548.78C1357.17 548.569 1357.55 548.489 1357.92 548.559C1358.28 548.628 1358.61 548.841 1358.82 549.15C1359.03 549.459 1359.11 549.839 1359.04 550.206C1358.97 550.574 1358.76 550.899 1358.45 551.11C1356.98 552.125 1355.24 552.676 1353.45 552.69C1349.31 552.69 1345.77 549.76 1344.29 545.62H1342.1C1341.74 545.59 1341.41 545.428 1341.17 545.166C1340.93 544.904 1340.8 544.561 1340.8 544.205C1340.8 543.849 1340.93 543.506 1341.17 543.244C1341.41 542.982 1341.74 542.82 1342.1 542.79H1343.64C1343.57 542.322 1343.53 541.852 1343.52 541.38C1343.53 540.908 1343.57 540.437 1343.64 539.97H1342.1C1341.74 539.94 1341.41 539.778 1341.17 539.516C1340.93 539.254 1340.8 538.911 1340.8 538.555C1340.8 538.199 1340.93 537.856 1341.17 537.594C1341.41 537.332 1341.74 537.17 1342.1 537.14H1344.25C1345.73 533 1349.25 530.07 1353.41 530.07C1355.2 530.084 1356.94 530.634 1358.41 531.65C1358.72 531.861 1358.93 532.186 1359 532.553C1359.07 532.921 1358.99 533.301 1358.78 533.61C1358.57 533.919 1358.24 534.131 1357.88 534.201C1357.51 534.27 1357.13 534.191 1356.82 533.98C1355.81 533.274 1354.6 532.897 1353.37 532.9C1352.06 532.96 1350.79 533.39 1349.72 534.14C1348.64 534.891 1347.8 535.931 1347.29 537.14H1353.41Z" fill="#2D7D9A"/>
<path d="M1792.77 739.62C1788.3 739.62 1783.93 740.947 1780.21 743.432C1776.49 745.918 1773.59 749.451 1771.87 753.584C1770.16 757.717 1769.71 762.265 1770.59 766.653C1771.46 771.041 1773.61 775.071 1776.78 778.235C1779.94 781.398 1783.97 783.553 1788.36 784.425C1792.75 785.298 1797.3 784.85 1801.43 783.138C1805.56 781.426 1809.09 778.527 1811.58 774.807C1814.07 771.087 1815.39 766.714 1815.39 762.24C1815.39 756.241 1813.01 750.487 1808.77 746.245C1804.53 742.003 1798.77 739.62 1792.77 739.62V739.62ZM1794.18 758C1794.38 757.984 1794.58 758.008 1794.76 758.072C1794.95 758.135 1795.12 758.237 1795.26 758.37C1795.41 758.503 1795.52 758.664 1795.6 758.844C1795.68 759.024 1795.72 759.219 1795.72 759.415C1795.72 759.612 1795.68 759.806 1795.6 759.986C1795.52 760.166 1795.41 760.327 1795.26 760.46C1795.12 760.593 1794.95 760.695 1794.76 760.759C1794.58 760.822 1794.38 760.847 1794.18 760.83H1787.23C1787.17 761.297 1787.13 761.768 1787.12 762.24C1787.13 762.712 1787.17 763.183 1787.23 763.65H1792.77C1793.13 763.68 1793.46 763.842 1793.7 764.104C1793.94 764.366 1794.07 764.709 1794.07 765.065C1794.07 765.421 1793.94 765.764 1793.7 766.026C1793.46 766.288 1793.13 766.45 1792.77 766.48H1788.1C1788.61 767.689 1789.45 768.729 1790.53 769.48C1791.6 770.23 1792.87 770.66 1794.18 770.72C1795.42 770.723 1796.62 770.346 1797.63 769.64C1797.94 769.429 1798.32 769.35 1798.69 769.419C1799.06 769.489 1799.38 769.701 1799.59 770.01C1799.8 770.319 1799.88 770.699 1799.81 771.067C1799.74 771.434 1799.53 771.759 1799.22 771.97C1797.75 772.986 1796.01 773.536 1794.22 773.55C1790.08 773.55 1786.54 770.62 1785.06 766.48H1782.87C1782.52 766.45 1782.19 766.288 1781.95 766.026C1781.71 765.764 1781.57 765.421 1781.57 765.065C1781.57 764.709 1781.71 764.366 1781.95 764.104C1782.19 763.842 1782.52 763.68 1782.87 763.65H1784.41C1784.35 763.183 1784.31 762.712 1784.29 762.24C1784.31 761.768 1784.35 761.298 1784.41 760.83H1782.87C1782.52 760.8 1782.19 760.638 1781.95 760.376C1781.71 760.114 1781.57 759.771 1781.57 759.415C1781.57 759.059 1781.71 758.716 1781.95 758.454C1782.19 758.192 1782.52 758.03 1782.87 758H1785.02C1786.5 753.86 1790.02 750.93 1794.18 750.93C1795.97 750.944 1797.71 751.494 1799.18 752.51C1799.49 752.721 1799.7 753.046 1799.77 753.413C1799.84 753.781 1799.76 754.161 1799.55 754.47C1799.34 754.779 1799.02 754.992 1798.65 755.061C1798.28 755.13 1797.9 755.051 1797.59 754.84C1796.58 754.134 1795.38 753.757 1794.14 753.76C1792.83 753.82 1791.56 754.25 1790.49 755C1789.41 755.751 1788.57 756.791 1788.06 758H1794.18Z" fill="#2D7D9A"/>
<path d="M1511.57 854.38C1507.1 854.38 1502.73 855.707 1499.01 858.192C1495.29 860.678 1492.39 864.21 1490.67 868.344C1488.96 872.477 1488.51 877.025 1489.39 881.413C1490.26 885.801 1492.41 889.831 1495.58 892.995C1498.74 896.158 1502.77 898.312 1507.16 899.185C1511.55 900.058 1516.1 899.61 1520.23 897.898C1524.36 896.186 1527.9 893.287 1530.38 889.567C1532.87 885.847 1534.19 881.474 1534.19 877C1534.19 871.001 1531.81 865.247 1527.57 861.005C1523.33 856.763 1517.57 854.38 1511.57 854.38V854.38ZM1512.98 872.76C1513.18 872.743 1513.38 872.768 1513.56 872.831C1513.75 872.895 1513.92 872.997 1514.06 873.13C1514.21 873.263 1514.32 873.424 1514.4 873.604C1514.48 873.784 1514.52 873.978 1514.52 874.175C1514.52 874.371 1514.48 874.566 1514.4 874.746C1514.32 874.926 1514.21 875.087 1514.06 875.22C1513.92 875.353 1513.75 875.455 1513.56 875.518C1513.38 875.582 1513.18 875.606 1512.98 875.59H1506.03C1505.97 876.057 1505.93 876.528 1505.92 877C1505.93 877.472 1505.97 877.943 1506.03 878.41H1511.57C1511.93 878.44 1512.26 878.602 1512.5 878.864C1512.74 879.126 1512.87 879.469 1512.87 879.825C1512.87 880.181 1512.74 880.524 1512.5 880.786C1512.26 881.048 1511.93 881.21 1511.57 881.24H1506.9C1507.41 882.449 1508.25 883.489 1509.33 884.24C1510.41 884.99 1511.67 885.42 1512.98 885.48C1514.22 885.483 1515.42 885.106 1516.43 884.4C1516.74 884.189 1517.12 884.11 1517.49 884.179C1517.86 884.248 1518.18 884.461 1518.39 884.77C1518.6 885.079 1518.68 885.459 1518.61 885.827C1518.54 886.194 1518.33 886.519 1518.02 886.73C1516.55 887.746 1514.81 888.296 1513.02 888.31C1508.88 888.31 1505.34 885.38 1503.86 881.24H1501.67C1501.32 881.21 1500.99 881.048 1500.75 880.786C1500.51 880.524 1500.37 880.181 1500.37 879.825C1500.37 879.469 1500.51 879.126 1500.75 878.864C1500.99 878.602 1501.32 878.44 1501.67 878.41H1503.21C1503.15 877.942 1503.11 877.472 1503.09 877C1503.11 876.528 1503.15 876.057 1503.21 875.59H1501.67C1501.32 875.56 1500.99 875.398 1500.75 875.136C1500.51 874.874 1500.37 874.531 1500.37 874.175C1500.37 873.819 1500.51 873.476 1500.75 873.214C1500.99 872.952 1501.32 872.79 1501.67 872.76H1503.82C1505.3 868.62 1508.82 865.69 1512.98 865.69C1514.77 865.704 1516.51 866.254 1517.98 867.27C1518.29 867.481 1518.5 867.806 1518.57 868.173C1518.64 868.541 1518.56 868.921 1518.35 869.23C1518.14 869.539 1517.82 869.751 1517.45 869.821C1517.08 869.89 1516.7 869.811 1516.39 869.6C1515.38 868.894 1514.18 868.517 1512.94 868.52C1511.63 868.58 1510.37 869.01 1509.29 869.76C1508.21 870.511 1507.37 871.551 1506.86 872.76H1512.98Z" fill="#2D7D9A"/>
<path d="M1286.62 762.24C1282.14 762.24 1277.77 763.567 1274.05 766.052C1270.33 768.538 1267.43 772.071 1265.72 776.204C1264.01 780.337 1263.56 784.885 1264.43 789.273C1265.3 793.661 1267.46 797.692 1270.62 800.855C1273.78 804.018 1277.82 806.173 1282.2 807.046C1286.59 807.918 1291.14 807.47 1295.27 805.758C1299.41 804.046 1302.94 801.147 1305.42 797.427C1307.91 793.707 1309.24 789.334 1309.24 784.86C1309.24 778.861 1306.85 773.108 1302.61 768.865C1298.37 764.623 1292.62 762.24 1286.62 762.24V762.24ZM1288.03 780.62C1288.22 780.604 1288.42 780.628 1288.6 780.692C1288.79 780.755 1288.96 780.857 1289.11 780.99C1289.25 781.123 1289.37 781.284 1289.45 781.464C1289.52 781.644 1289.57 781.839 1289.57 782.035C1289.57 782.232 1289.52 782.426 1289.45 782.606C1289.37 782.786 1289.25 782.948 1289.11 783.081C1288.96 783.214 1288.79 783.315 1288.6 783.379C1288.42 783.442 1288.22 783.467 1288.03 783.45H1281.08C1281.01 783.917 1280.97 784.388 1280.97 784.86C1280.97 785.332 1281.01 785.803 1281.08 786.27H1286.62C1286.97 786.3 1287.3 786.462 1287.54 786.724C1287.78 786.986 1287.92 787.329 1287.92 787.685C1287.92 788.041 1287.78 788.384 1287.54 788.646C1287.3 788.908 1286.97 789.07 1286.62 789.1H1281.95C1282.46 790.309 1283.3 791.349 1284.37 792.1C1285.45 792.85 1286.72 793.28 1288.03 793.34C1289.26 793.343 1290.46 792.966 1291.48 792.26C1291.79 792.049 1292.17 791.97 1292.53 792.039C1292.9 792.109 1293.23 792.321 1293.44 792.63C1293.65 792.939 1293.73 793.319 1293.66 793.687C1293.59 794.054 1293.38 794.379 1293.07 794.59C1291.6 795.606 1289.85 796.156 1288.07 796.17C1283.93 796.17 1280.39 793.24 1278.91 789.1H1276.72C1276.36 789.07 1276.03 788.908 1275.79 788.646C1275.55 788.384 1275.42 788.041 1275.42 787.685C1275.42 787.329 1275.55 786.986 1275.79 786.724C1276.03 786.462 1276.36 786.3 1276.72 786.27H1278.26C1278.19 785.803 1278.15 785.332 1278.14 784.86C1278.15 784.388 1278.19 783.918 1278.26 783.45H1276.72C1276.36 783.42 1276.03 783.258 1275.79 782.996C1275.55 782.734 1275.42 782.391 1275.42 782.035C1275.42 781.679 1275.55 781.336 1275.79 781.074C1276.03 780.812 1276.36 780.65 1276.72 780.62H1278.87C1280.35 776.48 1283.87 773.55 1288.03 773.55C1289.81 773.564 1291.56 774.115 1293.03 775.13C1293.34 775.341 1293.55 775.666 1293.62 776.034C1293.69 776.401 1293.61 776.781 1293.4 777.09C1293.19 777.399 1292.86 777.612 1292.49 777.681C1292.13 777.751 1291.75 777.671 1291.44 777.46C1290.42 776.754 1289.22 776.377 1287.99 776.38C1286.68 776.44 1285.41 776.87 1284.33 777.621C1283.26 778.371 1282.42 779.411 1281.91 780.62H1288.03Z" fill="#2D7D9A"/>
</g>
<defs>
<clipPath id="clip0">
<rect width="1920" height="1080" fill="white"/>
</clipPath>
</defs>
</svg>
