<svg width="1920" height="1080" viewBox="0 0 1920 1080" fill="none" xmlns="http://www.w3.org/2000/svg">
<g clip-path="url(#clip0)">
<path d="M1638.64 2702.69L1628.52 2600.02C1628.14 2596.39 1628.91 2592.74 1630.73 2589.57C1632.54 2586.4 1635.31 2583.89 1638.64 2582.38L1702.24 2397.4C1701.43 2394.87 1701.19 2392.19 1701.54 2389.56C1701.54 2389.56 1737.05 2151.11 1735.45 2147.79L1677.69 2061.38L1727.06 1928.41L1899.75 1767.32L2392.74 1503.35C2393.45 1500.54 2394.83 1497.94 2396.78 1495.79L2449.3 1436.45C2451.28 1434.28 2453.77 1432.62 2456.53 1431.61L2929.37 1266.97C2930.8 1266.54 2932.16 1265.89 2933.39 1265.04L3028.32 1202.35C3029.85 1201.62 3054.53 1150.38 3108.27 1191.18C3201.82 1262.25 3346.27 1444.49 3340.28 1453.34L3238.95 1602.43C3237.76 1604.15 3236.89 1606.07 3236.39 1608.1L3217.68 1681.68C3217.13 1684 3217.06 1686.4 3217.46 1688.75C3217.86 1691.09 3218.73 1693.34 3220.01 1695.34C3221.29 1697.34 3222.96 1699.07 3224.92 1700.42C3226.88 1701.77 3229.1 1702.71 3231.43 1703.19L3270.37 1710.71C3273.76 1711.41 3277.28 1711.08 3280.48 1709.76C3283.67 1708.43 3286.4 1706.18 3288.3 1703.28L3397.26 1541.31C3398.27 1539.84 3399.47 1538.52 3400.83 1537.38L3520.58 1440.78C3523.58 1438.41 3527.26 1437.07 3531.08 1436.97C3534.9 1436.87 3538.64 1438.01 3541.76 1440.21C3544.88 1442.42 3547.19 1445.57 3548.36 1449.2C3549.53 1452.84 3549.49 1456.75 3548.25 1460.36L3356.89 2002.44C3355.69 2006.05 3355.65 2009.94 3356.78 2013.57L3364.04 2037.18C3364.98 2040.23 3365.07 2043.48 3364.3 2046.59C3363.54 2049.69 3361.94 2052.53 3359.69 2054.81C3357.44 2057.08 3354.61 2058.7 3351.51 2059.49C3348.41 2060.29 3345.16 2060.23 3342.09 2059.32L3211.8 2019.72C3207.43 2018.37 3203.76 2015.37 3201.58 2011.36C3199.39 2007.35 3198.86 2002.64 3200.11 1998.24L3261.14 1772.07C3261.88 1769.51 3262.02 1766.83 3261.55 1764.21C3261.09 1761.59 3260.03 1759.12 3258.45 1756.98C3256.88 1754.84 3254.84 1753.08 3252.48 1751.86C3250.12 1750.63 3247.51 1749.96 3244.85 1749.91L3224.1 1748.98C3220.18 1748.87 3216.34 1750.04 3213.16 1752.31C3209.97 1754.58 3207.61 1757.83 3206.43 1761.56L3173.09 1872.86L3172.66 1874.09L3116.16 2023.1C3115.29 2025.44 3113.91 2027.56 3112.14 2029.33C3110.37 2031.09 3108.24 2032.45 3105.89 2033.32L2829.05 2136.44C2826.29 2137.38 2823.85 2139.08 2822.03 2141.35L2780.01 2188.48C2777.57 2191.23 2776.04 2194.67 2775.65 2198.33C2775.25 2201.98 2776.01 2205.67 2777.81 2208.87C2779.62 2212.08 2782.38 2214.64 2785.71 2216.2C2789.04 2217.76 2792.78 2218.24 2796.4 2217.58L2997.22 2181.35L2999.77 2180.97L3130.76 2176.61C3133.36 2176.51 3135.94 2176.99 3138.33 2178.01C3140.72 2179.03 3142.85 2180.56 3144.58 2182.49C3146.31 2184.43 3147.59 2186.72 3148.33 2189.2C3149.07 2191.69 3149.25 2194.31 3148.87 2196.87L3141.27 2246.71C3140.8 2249.54 3139.67 2252.22 3137.96 2254.53C3136.24 2256.84 3134.01 2258.7 3131.43 2259.96L3040.93 2303.48C3039.11 2304.3 3037.17 2304.83 3035.19 2305.04L3029.54 2305.71C3027.53 2306 3025.57 2306.59 3023.74 2307.48L2974.45 2332.37C2970.46 2334.21 2967.31 2337.48 2965.62 2341.53C2963.92 2345.58 2963.81 2350.11 2965.3 2354.23C2966.79 2358.36 2969.77 2361.77 2973.66 2363.8C2977.55 2365.83 2982.06 2366.32 2986.3 2365.19L3171.18 2323.84C3172.49 2323.38 3173.75 2322.77 3174.93 2322.04L3302.04 2259.56C3323.43 2262.05 3344.94 2263.43 3366.47 2263.68C3387.43 2255.92 3407.61 2246.22 3426.76 2234.69C3430.52 2235.14 3434.33 2234.65 3437.85 2233.28C3402.83 2256.25 3370.99 2277.7 3335.97 2300.67L3334.72 2301.27L3212.57 2402.1C3211.39 2402.84 3210.14 2403.44 3208.83 2403.9L3097.95 2457.21C3095.75 2458.28 3093.8 2459.79 3092.22 2461.66C3090.63 2463.52 3089.45 2465.69 3088.75 2468.03C3088.05 2470.37 3087.84 2472.83 3088.13 2475.25C3088.43 2477.67 3089.23 2480.01 3090.47 2482.11L3198.77 2663.34C3199.69 2664.9 3200.88 2666.29 3202.28 2667.44L3286.96 2742.78C3288.73 2744.31 3352.98 2798.8 3347.51 2809.78C3332.94 2839.45 3233.37 2843.53 3233.37 2843.53C3231.11 2846.65 3227.88 2848.92 3224.19 2849.99L3079.58 2893.11C3077.27 2893.71 3075.11 2894.75 3073.2 2896.17L2904.46 3068.31C2857.7 3135.68 2806.14 3199.6 2750.19 3259.56C2690.34 3321.4 2620.91 3362.97 2615.51 3361.3L2479.16 3321.89C2475.38 3320.75 2472.08 3318.38 2469.79 3315.16C2467.5 3311.94 2466.35 3308.06 2466.51 3304.11L2469.6 3236C2469.73 3233.37 2469.27 3230.75 2468.26 3228.33C2467.25 3225.91 2465.71 3223.74 2463.76 3221.99C2461.8 3220.23 2459.48 3218.94 2456.96 3218.19C2454.44 3217.45 2451.79 3217.28 2449.19 3217.69L2068.6 3281.4C2064.38 3282.16 2060.03 3281.33 2056.39 3279.09C2056.39 3279.09 1599.38 3249.17 1595.16 3242.51C1595.16 3242.51 1490.51 3146.95 1499.34 3046.08C1511.18 2899.29 1639.06 2728.05 1638.64 2702.69Z" fill="#293135" stroke="#2D7D9A" stroke-miterlimit="10"/>
<path d="M605.841 3169.82C573.028 3157.64 565.509 2638.08 626.4 2506.73C629.076 2501.04 629.945 2494.68 628.891 2488.49C616.811 2396.65 647.25 2053.62 637.087 1983.87C629.079 1928.41 620.668 1873.78 611.854 1819.96C610.633 1812.07 612.33 1804 616.626 1797.26C620.922 1790.52 627.524 1785.58 635.2 1783.34L826.325 1729.79C830.999 1728.46 835.321 1726.11 838.975 1722.91C842.63 1719.71 845.527 1715.73 847.456 1711.28L907.564 1572.97C909.149 1569.47 911.29 1566.25 913.905 1563.44L1024.69 1446.78C1029.08 1442.14 1032 1436.31 1033.11 1430.02C1034.21 1423.74 1033.44 1417.27 1030.89 1411.42C1009.86 1363.76 1000.99 1342.12 949.07 1234.5C947.615 1231.51 946.601 1228.33 946.058 1225.05C928.155 1075.38 925.591 924.269 938.406 774.056C938.937 768.328 937.94 762.564 935.518 757.349C933.095 752.135 929.333 747.655 924.614 744.367C919.895 741.078 914.388 739.098 908.652 738.627C902.915 738.156 897.155 739.212 891.957 741.687L882.533 746.218C878.434 748.211 873.959 749.31 869.404 749.444C864.85 749.577 860.32 748.741 856.115 746.991L609.144 646.077C607.226 645.291 605.23 644.708 603.19 644.338C557.61 635.069 16.0382 526.523 -145.834 462.059C-150.483 460.218 -154.645 457.331 -157.996 453.623C-161.347 449.915 -163.798 445.485 -165.159 440.677L-176.676 399.691C-178.526 393.027 -182.452 387.126 -187.886 382.845C-193.319 378.563 -199.978 376.123 -206.896 375.878L-309.236 372.768C-315.311 372.63 -321.22 370.774 -326.278 367.415C-331.337 364.055 -335.336 359.331 -337.814 353.79C-382.434 254.249 -413.006 19.9722 -379.58 -105.336C-378.347 -109.904 -376.151 -114.157 -373.14 -117.809C-370.129 -121.461 -366.371 -124.429 -362.12 -126.513L-278.964 -166.497C-275.103 -168.349 -271.644 -170.943 -268.785 -174.131C-265.926 -177.319 -263.723 -181.037 -262.302 -185.074L-191.134 -387.324C-189.242 -392.779 -188.828 -398.636 -189.933 -404.3C-191.038 -409.964 -193.623 -415.234 -197.426 -419.574L-234.047 -460.248C-237.396 -464.059 -239.806 -468.6 -241.086 -473.509C-242.366 -478.418 -242.48 -483.559 -241.419 -488.522C-240.358 -493.486 -238.151 -498.134 -234.974 -502.096C-231.798 -506.058 -227.739 -509.224 -223.123 -511.342C-121.712 -557.718 47.9561 -589.538 148.118 -583.507C155.945 -583.044 163.336 -579.764 168.924 -574.275C174.513 -568.785 177.92 -561.456 178.516 -553.645C180.244 -532.662 181.694 -511.547 183.561 -490.631C184.028 -484.909 186.001 -479.414 189.28 -474.703C192.558 -469.992 197.026 -466.231 202.23 -463.803C207.434 -461.374 213.189 -460.364 218.912 -460.874C224.636 -461.385 230.124 -463.398 234.821 -466.71L270.848 -492.213C277.172 -497.019 285.028 -499.367 292.951 -498.819C300.874 -498.271 308.324 -494.864 313.915 -489.233C317.627 -485.489 322.196 -482.707 327.229 -481.128C332.262 -479.549 337.605 -479.221 342.796 -480.173C347.987 -481.124 352.868 -483.326 357.017 -486.587C361.166 -489.849 364.457 -494.072 366.605 -498.89L507.04 -810.109C507.77 -811.844 508.696 -813.49 509.8 -815.015L694.118 -1088.2C697.133 -1092.94 698.872 -1098.38 699.167 -1103.98C699.461 -1109.59 698.301 -1115.17 695.798 -1120.19L616.599 -1284.91C615.354 -1287.6 613.701 -1290.08 611.696 -1292.26C548.764 -1360.33 642.283 -1644.56 689.77 -1733.18C693.562 -1740.24 699.839 -1745.66 707.387 -1748.37C714.936 -1751.09 723.221 -1750.92 730.644 -1747.89L823.56 -1710.08C828.801 -1707.9 834.533 -1707.15 840.166 -1707.91C845.798 -1708.67 851.127 -1710.91 855.604 -1714.42C908.161 -1754.51 1087.1 -1889.12 1159.78 -1914.7C1166.55 -1917 1173.88 -1917.03 1180.66 -1914.78C1187.44 -1912.54 1193.3 -1908.13 1197.33 -1902.25C1233.75 -1848.52 1270.27 -1794.79 1306.92 -1741.07C1310.53 -1735.74 1315.66 -1731.62 1321.65 -1729.23C1387.52 -1702.96 1786.95 -1542.26 1873.46 -1460.99C1877.92 -1456.8 1883.47 -1453.94 1889.48 -1452.73C1895.49 -1451.53 1901.71 -1452.02 1907.46 -1454.16C1991.91 -1482.39 2078.92 -1502.3 2167.24 -1513.63C2172.97 -1514.12 2178.47 -1516.12 2183.17 -1519.43C2187.88 -1522.74 2191.62 -1527.24 2194.01 -1532.47L2212.81 -1573.21C2214.9 -1577.8 2218.03 -1581.85 2221.96 -1585.02C2225.89 -1588.19 2230.5 -1590.41 2235.43 -1591.49C2240.36 -1592.57 2245.48 -1592.48 2250.37 -1591.24C2255.26 -1590 2259.79 -1587.64 2263.6 -1584.34C2317.12 -1538.32 2389.16 -1454.87 2418.71 -1393.07C2420.55 -1389.23 2423.13 -1385.8 2426.31 -1382.97C2429.49 -1380.14 2433.19 -1377.97 2437.21 -1376.57L2625.12 -1310.48C2632.55 -1307.83 2638.77 -1302.59 2642.63 -1295.72L2720 -1158.59L2820.5 -949.586C2822.58 -945.426 2823.73 -940.859 2823.86 -936.206L2825.59 -859.843C2825.73 -853.561 2827.67 -847.453 2831.2 -842.255C2834.73 -837.058 2839.69 -832.992 2845.48 -830.55L2942.62 -790.003C2947.68 -787.887 2952.12 -784.522 2955.52 -780.223C2958.92 -775.925 2961.18 -770.833 2962.07 -765.424C2962.97 -760.015 2962.48 -754.466 2960.64 -749.296C2958.81 -744.126 2955.69 -739.504 2951.58 -735.863C2921.8 -709.099 2873.11 -683.304 2840.71 -682.551C2834.52 -682.444 2828.5 -680.572 2823.34 -677.155C2818.18 -673.738 2814.1 -668.919 2811.59 -663.266L2752.57 -532.638C2750.53 -528.108 2747.51 -524.091 2743.72 -520.883C2669.37 -460.086 2485.78 -460.424 2398.7 -415.827C2394.39 -413.556 2390.65 -410.351 2387.74 -406.447C2384.84 -402.543 2382.84 -398.039 2381.91 -393.266L2336.21 -158.273C2335.08 -152.357 2335.61 -146.245 2337.75 -140.616C2339.88 -134.987 2343.54 -130.063 2348.31 -126.389C2353.09 -122.715 2358.78 -120.436 2364.78 -119.806C2370.77 -119.176 2376.82 -120.219 2382.26 -122.818L2626.18 -240.103C2630.72 -242.355 2634.67 -245.63 2637.71 -249.669C2640.76 -253.709 2642.83 -258.401 2643.75 -263.374C2644.67 -268.347 2644.42 -273.465 2643.02 -278.322C2641.61 -283.179 2639.1 -287.642 2635.67 -291.357L2588.28 -342.704C2584.94 -346.355 2582.47 -350.721 2581.07 -355.47C2579.67 -360.219 2579.37 -365.225 2580.2 -370.109C2581.03 -374.992 2582.96 -379.623 2585.85 -383.651C2588.73 -387.679 2592.5 -390.997 2596.86 -393.352L2636.33 -414.544C2641.41 -417.73 2647.28 -419.446 2653.28 -419.502C2659.27 -419.558 2665.17 -417.951 2670.3 -414.861L2807.76 -320.255C2811.27 -317.859 2815.22 -316.167 2819.37 -315.271L2962.6 -284.617C2968.12 -283.406 2973.23 -280.788 2977.44 -277.017C2981.65 -273.245 2984.8 -268.449 2986.6 -263.096C3012.99 -184.441 2959.04 -1.03495 2907.58 43.1326C2903.74 46.5191 2900.74 50.7493 2898.82 55.4899C2896.89 60.2306 2896.1 65.3522 2896.49 70.451L2917.85 377.492C2918.06 381.336 2917.6 385.187 2916.5 388.877L2902.53 436.834C2901.19 441.407 2898.86 445.629 2895.7 449.205C2892.55 452.781 2888.65 455.622 2884.28 457.529C2879.91 459.436 2875.17 460.362 2870.41 460.241C2865.64 460.12 2860.96 458.956 2856.69 456.831L2798.64 427.999C2794.05 425.734 2790.06 422.421 2787 418.328C2783.93 414.236 2781.88 409.479 2781 404.442C2772.81 357.254 2755.19 254.956 2747.5 210.936C2746.44 204.708 2743.57 198.931 2739.26 194.313C2734.94 189.695 2729.37 186.438 2723.23 184.944L2672.13 172.362C2665.8 170.798 2659.14 171.153 2653 173.382L2630.31 181.907C2626.07 183.495 2622.21 185.947 2618.97 189.107C2615.73 192.267 2613.19 196.065 2611.5 200.26C2609.81 204.456 2609.01 208.956 2609.15 213.474C2609.3 217.993 2610.38 222.431 2612.34 226.506L2620.72 243.946C2624.34 251.443 2624.95 260.044 2622.42 267.981C2619.89 275.917 2614.41 282.587 2607.12 286.618L2433.41 382.071C2431.29 383.21 2429.33 384.613 2427.56 386.244C2382.32 421.047 2335.15 453.283 2286.29 482.801C2280.23 486.458 2275.52 491.997 2272.9 498.572C2270.28 505.147 2269.88 512.397 2271.76 519.216C2273.65 526.034 2277.72 532.046 2283.35 536.335C2288.97 540.623 2295.85 542.952 2302.94 542.965L2687.09 549.46L3079.89 565.086C3085.78 565.321 3091.48 567.137 3096.42 570.343C3101.35 573.548 3105.33 578.025 3107.93 583.301L3189.46 752.859C3190.55 755.147 3191.93 757.291 3193.55 759.241L3439.19 1060.01C3442.22 1063.83 3444.36 1068.28 3445.44 1073.02L3446.28 1076.54C3447.78 1082.54 3447.52 1088.85 3445.54 1094.72C3443.56 1100.58 3439.95 1105.76 3435.12 1109.64C3430.29 1113.52 3424.46 1115.94 3418.3 1116.61C3412.14 1117.29 3405.92 1116.18 3400.38 1113.44C3372.74 1099.97 3345.18 1086.3 3317.68 1072.76C3315.52 1071.68 3313.47 1070.38 3311.56 1068.89C3276.33 1040.33 3241.16 1011.91 3206.07 983.286C3201.33 979.444 3195.6 977.011 3189.54 976.264C3183.48 975.517 3177.33 976.485 3171.79 979.059C3166.26 981.633 3161.55 985.71 3158.22 990.823C3154.88 995.937 3153.05 1001.88 3152.93 1007.98L3152.75 1023.58C3152.6 1028.34 3153.52 1033.07 3155.44 1037.42C3157.36 1041.78 3160.22 1045.65 3163.83 1048.75L3329.25 1192.29C3332.97 1195.4 3337.32 1197.67 3342.01 1198.94L3494.61 1240.93C3499.91 1242.44 3505.51 1242.58 3510.88 1241.34C3516.25 1240.09 3521.22 1237.51 3525.33 1233.83L3570.5 1195.07C3573.89 1192.25 3577.74 1190.05 3581.88 1188.57L3870.74 1104.05L3892.34 1124.84C3894.14 1123.98 3902.4 1119.15 3917.84 1112.58C3920.61 1111.25 3916.84 1093.47 3919.61 1092.13C3933.47 1085.47 3959.26 1076.99 3959.26 1076.99L3976.47 1088.31L4017.65 1076.35L4039.82 1091.59C4045.63 1092.03 4051.46 1090.93 4056.72 1088.41L4110.49 1062.55C4114.67 1060.55 4119.22 1059.46 4123.84 1059.36C4128.47 1059.25 4133.06 1060.13 4137.32 1061.93C4141.58 1063.74 4145.4 1066.43 4148.54 1069.83C4151.67 1073.23 4154.05 1077.25 4155.5 1081.64L4254.16 1379.81C4255.51 1383.92 4256.03 1388.26 4255.68 1392.58C4255.33 1396.9 4254.13 1401.1 4252.13 1404.95C4250.13 1408.8 4247.39 1412.21 4244.06 1414.99C4240.73 1417.77 4236.88 1419.85 4232.74 1421.12L4128.47 1452.68C4122.86 1454.45 4117.85 1457.71 4113.95 1462.11C4110.05 1466.5 4107.42 1471.87 4106.34 1477.64L4095.26 1534.09C4093.81 1541.93 4089.53 1548.97 4083.22 1553.85C4076.92 1558.74 4069.03 1561.14 4061.07 1560.58C3982.02 1554.8 3844.7 1515.85 3773.87 1460.1C3771.35 1458 3769.1 1455.58 3767.18 1452.92C3734.71 1405.02 3702.21 1357.08 3669.7 1309.1C3665.08 1302.23 3658.01 1297.39 3649.93 1295.57C3641.86 1293.75 3633.39 1295.09 3626.26 1299.31L3363.6 1452.87C3359.03 1455.51 3353.88 1456.99 3348.61 1457.18L3208.59 1462.64C3200.76 1462.98 3193.07 1460.46 3186.96 1455.57C3180.84 1450.68 3176.71 1443.74 3175.32 1436.04L3149.79 1294.94C3148.71 1289.86 3146.43 1285.11 3143.14 1281.1L3088.61 1207.45C3083.52 1200.64 3075.96 1196.1 3067.55 1194.79C3059.14 1193.49 3050.55 1195.52 3043.62 1200.46L2815.45 1364.7C2811.88 1367.35 2807.83 1369.3 2803.53 1370.43L2476.16 1442.63C2471.64 1443.78 2467.4 1445.82 2463.69 1448.63L2420.46 1481.17C2416.71 1483.91 2413.58 1487.42 2411.29 1491.46C2409 1495.5 2407.59 1499.98 2407.16 1504.61L2395.28 1697.78C2395 1702.35 2393.77 1706.81 2391.66 1710.88C2389.54 1714.94 2386.6 1718.52 2383.01 1721.37C2379.42 1724.22 2375.27 1726.28 2370.83 1727.43C2366.39 1728.57 2361.76 1728.76 2357.25 1727.99C2237.92 1708 2029.86 1741.24 1930.9 1789.17C1926.92 1791.11 1923.39 1793.85 1920.52 1797.2C1917.64 1800.56 1915.48 1804.47 1914.17 1808.69C1912.86 1812.91 1912.43 1817.36 1912.9 1821.75C1913.37 1826.14 1914.73 1830.39 1916.91 1834.24L1920.5 1841.71C1922.86 1845.89 1924.27 1850.55 1924.61 1855.35C1924.95 1860.14 1924.21 1864.95 1922.46 1869.43C1920.71 1873.91 1917.99 1877.94 1914.49 1881.24C1910.99 1884.54 1906.79 1887.02 1902.22 1888.5L1746.96 1939.3C1742.88 1940.62 1739.11 1942.75 1735.85 1945.54C1732.6 1948.33 1729.93 1951.74 1728 1955.57C1703.55 2005.5 1716.25 2140.16 1751.88 2182.67C1755.07 2186.25 1757.42 2190.51 1758.75 2195.12C1760.08 2199.73 1760.36 2204.58 1759.57 2209.31L1731.41 2366.51C1730.35 2372.36 1730.94 2378.39 1733.12 2383.92L1754.9 2436.67C1756.94 2442.01 1757.53 2447.79 1756.62 2453.43C1755.71 2459.08 1753.33 2464.38 1749.72 2468.82L1654.18 2586.33C1650.47 2590.88 1648.07 2596.35 1647.22 2602.16C1646.38 2607.97 1647.13 2613.89 1649.39 2619.31L1708.51 2762.49C1711.68 2770.06 1711.85 2778.55 1709 2786.24C1706.14 2793.94 1700.47 2800.27 1693.13 2803.96L1669.99 2815.09C1665.27 2817.49 1660.04 2818.7 1654.74 2818.64C1649.45 2818.57 1644.26 2817.22 1639.6 2814.71L1533.12 2756.84C1527.94 2754.04 1522.1 2752.7 1516.22 2752.98C1510.33 2753.25 1504.64 2755.13 1499.74 2758.41L1322.76 2877.58C1317.88 2880.77 1312.26 2882.65 1306.45 2883.04C1264.31 2886.26 1077.79 2897.22 950.548 2916.13C944.558 2917.01 938.927 2919.53 934.286 2923.41C929.646 2927.3 926.178 2932.4 924.273 2938.14L887.141 3050.07C886.331 3052.65 885.157 3055.11 883.655 3057.37L815.259 3163.53C811.454 3169.5 805.768 3174.03 799.1 3176.41L714.845 3207.72C706.959 3210.66 698.245 3210.46 690.512 3207.15L605.841 3169.82Z" fill="#293135" stroke="#2D7D9A" stroke-opacity="0.38" stroke-miterlimit="10"/>
<path d="M1431.33 408.658V398.658H1439.33V408.658C1439.33 409.188 1439.54 409.697 1439.92 410.072C1440.29 410.447 1440.8 410.658 1441.33 410.658H1447.33C1447.86 410.658 1448.37 410.447 1448.74 410.072C1449.12 409.697 1449.33 409.188 1449.33 408.658V394.658H1452.73C1452.93 394.655 1453.13 394.592 1453.29 394.477C1453.46 394.362 1453.58 394.2 1453.65 394.012C1453.72 393.825 1453.74 393.62 1453.69 393.424C1453.64 393.229 1453.54 393.053 1453.39 392.918L1436.67 377.858C1436.3 377.526 1435.83 377.342 1435.33 377.342C1434.84 377.342 1434.36 377.526 1433.99 377.858L1417.33 392.918C1417.18 393.049 1417.08 393.22 1417.03 393.41C1416.98 393.6 1416.99 393.801 1417.05 393.986C1417.12 394.171 1417.24 394.334 1417.39 394.453C1417.55 394.573 1417.73 394.644 1417.93 394.658H1421.33V408.658C1421.33 409.188 1421.54 409.697 1421.92 410.072C1422.29 410.447 1422.8 410.658 1423.33 410.658H1429.33C1429.86 410.658 1430.37 410.447 1430.74 410.072C1431.12 409.697 1431.33 409.188 1431.33 408.658Z" fill="#2D7D9A"/>
<path d="M1719.33 249.658V239.658H1727.33V249.658C1727.33 250.188 1727.54 250.697 1727.92 251.072C1728.29 251.447 1728.8 251.658 1729.33 251.658H1735.33C1735.86 251.658 1736.37 251.447 1736.74 251.072C1737.12 250.697 1737.33 250.188 1737.33 249.658V235.658H1740.73C1740.93 235.655 1741.13 235.592 1741.29 235.477C1741.46 235.362 1741.58 235.2 1741.65 235.012C1741.72 234.825 1741.74 234.62 1741.69 234.424C1741.64 234.229 1741.54 234.053 1741.39 233.918L1724.67 218.858C1724.3 218.526 1723.83 218.342 1723.33 218.342C1722.84 218.342 1722.36 218.526 1721.99 218.858L1705.33 233.918C1705.18 234.049 1705.08 234.22 1705.03 234.41C1704.98 234.6 1704.99 234.801 1705.05 234.986C1705.12 235.171 1705.24 235.334 1705.39 235.453C1705.55 235.573 1705.73 235.644 1705.93 235.658H1709.33V249.658C1709.33 250.188 1709.54 250.697 1709.92 251.072C1710.29 251.447 1710.8 251.658 1711.33 251.658H1717.33C1717.86 251.658 1718.37 251.447 1718.74 251.072C1719.12 250.697 1719.33 250.188 1719.33 249.658Z" fill="#2D7D9A"/>
<path d="M1803.33 463.658V453.658H1811.33V463.658C1811.33 464.188 1811.54 464.697 1811.92 465.072C1812.29 465.447 1812.8 465.658 1813.33 465.658H1819.33C1819.86 465.658 1820.37 465.447 1820.74 465.072C1821.12 464.697 1821.33 464.188 1821.33 463.658V449.658H1824.73C1824.93 449.655 1825.13 449.592 1825.29 449.477C1825.46 449.362 1825.58 449.2 1825.65 449.012C1825.72 448.825 1825.74 448.62 1825.69 448.424C1825.64 448.229 1825.54 448.053 1825.39 447.918L1808.67 432.858C1808.3 432.526 1807.83 432.342 1807.33 432.342C1806.84 432.342 1806.36 432.526 1805.99 432.858L1789.33 447.918C1789.18 448.049 1789.08 448.22 1789.03 448.41C1788.98 448.6 1788.99 448.801 1789.05 448.986C1789.12 449.171 1789.24 449.334 1789.39 449.453C1789.55 449.573 1789.73 449.644 1789.93 449.658H1793.33V463.658C1793.33 464.188 1793.54 464.697 1793.92 465.072C1794.29 465.447 1794.8 465.658 1795.33 465.658H1801.33C1801.86 465.658 1802.37 465.447 1802.74 465.072C1803.12 464.697 1803.33 464.188 1803.33 463.658Z" fill="#2D7D9A"/>
<path d="M1019.33 731.658V721.658H1027.33V731.658C1027.33 732.188 1027.54 732.697 1027.92 733.072C1028.29 733.447 1028.8 733.658 1029.33 733.658H1035.33C1035.86 733.658 1036.37 733.447 1036.74 733.072C1037.12 732.697 1037.33 732.188 1037.33 731.658V717.658H1040.73C1040.93 717.655 1041.13 717.592 1041.29 717.477C1041.46 717.362 1041.58 717.2 1041.65 717.012C1041.72 716.825 1041.74 716.62 1041.69 716.424C1041.64 716.229 1041.54 716.053 1041.39 715.918L1024.67 700.858C1024.3 700.526 1023.83 700.342 1023.33 700.342C1022.84 700.342 1022.36 700.526 1021.99 700.858L1005.33 715.918C1005.18 716.049 1005.08 716.22 1005.03 716.41C1004.98 716.6 1004.99 716.801 1005.05 716.986C1005.12 717.171 1005.24 717.334 1005.39 717.453C1005.55 717.573 1005.73 717.644 1005.93 717.658H1009.33V731.658C1009.33 732.188 1009.54 732.697 1009.92 733.072C1010.29 733.447 1010.8 733.658 1011.33 733.658H1017.33C1017.86 733.658 1018.37 733.447 1018.74 733.072C1019.12 732.697 1019.33 732.188 1019.33 731.658Z" fill="#2D7D9A"/>
<path d="M1200.61 392V382H1208.61V392C1208.61 392.53 1208.82 393.039 1209.2 393.414C1209.57 393.789 1210.08 394 1210.61 394H1216.61C1217.14 394 1217.65 393.789 1218.03 393.414C1218.4 393.039 1218.61 392.53 1218.61 392V378H1222.01C1222.21 377.997 1222.41 377.934 1222.57 377.819C1222.74 377.704 1222.86 377.542 1222.93 377.355C1223.01 377.167 1223.02 376.962 1222.97 376.767C1222.92 376.572 1222.82 376.395 1222.67 376.26L1205.95 361.2C1205.58 360.868 1205.11 360.685 1204.61 360.685C1204.12 360.685 1203.64 360.868 1203.27 361.2L1186.61 376.26C1186.47 376.391 1186.36 376.563 1186.31 376.753C1186.26 376.943 1186.27 377.143 1186.34 377.328C1186.4 377.514 1186.52 377.676 1186.67 377.796C1186.83 377.915 1187.02 377.986 1187.21 378H1190.61V392C1190.61 392.53 1190.82 393.039 1191.2 393.414C1191.57 393.789 1192.08 394 1192.61 394H1198.61C1199.14 394 1199.65 393.789 1200.03 393.414C1200.4 393.039 1200.61 392.53 1200.61 392Z" fill="#2D7D9A"/>
<path d="M1468.33 567.658V557.658H1476.33V567.658C1476.33 568.188 1476.54 568.697 1476.92 569.072C1477.29 569.447 1477.8 569.658 1478.33 569.658H1484.33C1484.86 569.658 1485.37 569.447 1485.74 569.072C1486.12 568.697 1486.33 568.188 1486.33 567.658V553.658H1489.73C1489.93 553.655 1490.13 553.592 1490.29 553.477C1490.46 553.362 1490.58 553.2 1490.65 553.012C1490.72 552.825 1490.74 552.62 1490.69 552.424C1490.64 552.229 1490.54 552.053 1490.39 551.918L1473.67 536.858C1473.3 536.526 1472.83 536.342 1472.33 536.342C1471.84 536.342 1471.36 536.526 1470.99 536.858L1454.33 551.918C1454.18 552.049 1454.08 552.22 1454.03 552.41C1453.98 552.6 1453.99 552.801 1454.05 552.986C1454.12 553.171 1454.24 553.334 1454.39 553.453C1454.55 553.573 1454.73 553.644 1454.93 553.658H1458.33V567.658C1458.33 568.188 1458.54 568.697 1458.92 569.072C1459.29 569.447 1459.8 569.658 1460.33 569.658H1466.33C1466.86 569.658 1467.37 569.447 1467.74 569.072C1468.12 568.697 1468.33 568.188 1468.33 567.658Z" fill="#2D7D9A"/>
<path d="M1237.33 764.658V754.658H1245.33V764.658C1245.33 765.188 1245.54 765.697 1245.92 766.072C1246.29 766.447 1246.8 766.658 1247.33 766.658H1253.33C1253.86 766.658 1254.37 766.447 1254.74 766.072C1255.12 765.697 1255.33 765.188 1255.33 764.658V750.658H1258.73C1258.93 750.655 1259.13 750.592 1259.29 750.477C1259.46 750.362 1259.58 750.2 1259.65 750.012C1259.72 749.825 1259.74 749.62 1259.69 749.424C1259.64 749.229 1259.54 749.053 1259.39 748.918L1242.67 733.858C1242.3 733.526 1241.83 733.342 1241.33 733.342C1240.84 733.342 1240.36 733.526 1239.99 733.858L1223.33 748.918C1223.18 749.049 1223.08 749.22 1223.03 749.41C1222.98 749.6 1222.99 749.801 1223.05 749.986C1223.12 750.171 1223.24 750.334 1223.39 750.453C1223.55 750.573 1223.73 750.644 1223.93 750.658H1227.33V764.658C1227.33 765.188 1227.54 765.697 1227.92 766.072C1228.29 766.447 1228.8 766.658 1229.33 766.658H1235.33C1235.86 766.658 1236.37 766.447 1236.74 766.072C1237.12 765.697 1237.33 765.188 1237.33 764.658Z" fill="#2D7D9A"/>
<path d="M1657.33 652.658V642.658H1665.33V652.658C1665.33 653.188 1665.54 653.697 1665.92 654.072C1666.29 654.447 1666.8 654.658 1667.33 654.658H1673.33C1673.86 654.658 1674.37 654.447 1674.74 654.072C1675.12 653.697 1675.33 653.188 1675.33 652.658V638.658H1678.73C1678.93 638.655 1679.13 638.592 1679.29 638.477C1679.46 638.362 1679.58 638.2 1679.65 638.012C1679.72 637.825 1679.74 637.62 1679.69 637.424C1679.64 637.229 1679.54 637.053 1679.39 636.918L1662.67 621.858C1662.3 621.526 1661.83 621.342 1661.33 621.342C1660.84 621.342 1660.36 621.526 1659.99 621.858L1643.33 636.918C1643.18 637.049 1643.08 637.22 1643.03 637.41C1642.98 637.6 1642.99 637.801 1643.05 637.986C1643.12 638.171 1643.24 638.334 1643.39 638.453C1643.55 638.573 1643.73 638.644 1643.93 638.658H1647.33V652.658C1647.33 653.188 1647.54 653.697 1647.92 654.072C1648.29 654.447 1648.8 654.658 1649.33 654.658H1655.33C1655.86 654.658 1656.37 654.447 1656.74 654.072C1657.12 653.697 1657.33 653.188 1657.33 652.658Z" fill="#2D7D9A"/>
<path d="M1539.33 842.658V832.658H1547.33V842.658C1547.33 843.188 1547.54 843.697 1547.92 844.072C1548.29 844.447 1548.8 844.658 1549.33 844.658H1555.33C1555.86 844.658 1556.37 844.447 1556.74 844.072C1557.12 843.697 1557.33 843.188 1557.33 842.658V828.658H1560.73C1560.93 828.655 1561.13 828.592 1561.29 828.477C1561.46 828.362 1561.58 828.2 1561.65 828.012C1561.72 827.825 1561.74 827.62 1561.69 827.424C1561.64 827.229 1561.54 827.053 1561.39 826.918L1544.67 811.858C1544.3 811.526 1543.83 811.342 1543.33 811.342C1542.84 811.342 1542.36 811.526 1541.99 811.858L1525.33 826.918C1525.18 827.049 1525.08 827.22 1525.03 827.41C1524.98 827.6 1524.99 827.801 1525.05 827.986C1525.12 828.171 1525.24 828.334 1525.39 828.453C1525.55 828.573 1525.73 828.644 1525.93 828.658H1529.33V842.658C1529.33 843.188 1529.54 843.697 1529.92 844.072C1530.29 844.447 1530.8 844.658 1531.33 844.658H1537.33C1537.86 844.658 1538.37 844.447 1538.74 844.072C1539.12 843.697 1539.33 843.188 1539.33 842.658Z" fill="#2D7D9A"/>
<path d="M1163.89 979.658V969.658H1171.89V979.658C1171.89 980.188 1172.1 980.697 1172.48 981.072C1172.85 981.447 1173.36 981.658 1173.89 981.658H1179.89C1180.42 981.658 1180.93 981.447 1181.31 981.072C1181.68 980.697 1181.89 980.188 1181.89 979.658V965.658H1185.29C1185.49 965.655 1185.69 965.592 1185.85 965.477C1186.02 965.362 1186.14 965.2 1186.22 965.012C1186.29 964.825 1186.3 964.62 1186.25 964.424C1186.21 964.229 1186.1 964.053 1185.95 963.918L1169.23 948.858C1168.87 948.526 1168.39 948.342 1167.89 948.342C1167.4 948.342 1166.92 948.526 1166.55 948.858L1149.89 963.918C1149.75 964.049 1149.64 964.22 1149.59 964.41C1149.55 964.6 1149.55 964.801 1149.62 964.986C1149.68 965.171 1149.8 965.334 1149.95 965.453C1150.11 965.573 1150.3 965.644 1150.49 965.658H1153.89V979.658C1153.89 980.188 1154.1 980.697 1154.48 981.072C1154.85 981.447 1155.36 981.658 1155.89 981.658H1161.89C1162.42 981.658 1162.93 981.447 1163.31 981.072C1163.68 980.697 1163.89 980.188 1163.89 979.658Z" fill="#2D7D9A"/>
<path d="M1339.69 216.342V206.342H1347.69V216.342C1347.69 216.873 1347.9 217.382 1348.28 217.757C1348.65 218.132 1349.16 218.342 1349.69 218.342H1355.69C1356.22 218.342 1356.73 218.132 1357.1 217.757C1357.48 217.382 1357.69 216.873 1357.69 216.342V202.342H1361.09C1361.29 202.34 1361.49 202.277 1361.65 202.162C1361.81 202.047 1361.94 201.885 1362.01 201.697C1362.08 201.509 1362.1 201.305 1362.05 201.109C1362 200.914 1361.9 200.737 1361.75 200.602L1345.03 185.542C1344.66 185.211 1344.18 185.027 1343.69 185.027C1343.19 185.027 1342.72 185.211 1342.35 185.542L1325.69 200.602C1325.54 200.734 1325.44 200.905 1325.39 201.095C1325.34 201.285 1325.35 201.485 1325.41 201.671C1325.48 201.856 1325.6 202.019 1325.75 202.138C1325.91 202.258 1326.09 202.329 1326.29 202.342H1329.69V216.342C1329.69 216.873 1329.9 217.382 1330.28 217.757C1330.65 218.132 1331.16 218.342 1331.69 218.342H1337.69C1338.22 218.342 1338.73 218.132 1339.1 217.757C1339.48 217.382 1339.69 216.873 1339.69 216.342Z" fill="#2D7D9A"/>
</g>
<defs>
<clipPath id="clip0">
<rect width="1920" height="1080" fill="white"/>
</clipPath>
</defs>
</svg>
