<svg id="Layer_1" viewBox="0 0 64 64" xmlns="http://www.w3.org/2000/svg" stroke= 'none' stroke-width="1"><g><path d="m55 8c0 1.654-1.346 3-3 3h-8v1c0 1.654-1.346 3-3 3h-3c-2.757 0-5 2.243-5 5v3h2v-3c0-1.654 1.346-3 3-3h3c2.415 0 4.435-1.721 4.899-4h6.101c2.757 0 5-2.243 5-5s-2.243-5-5-5h-3v2h3c1.654 0 3 1.346 3 3z"/><path d="m5 13c0 2.206 1.794 4 4 4 1.103 0 2 .897 2 2v4h2v-4c0-2.206-1.794-4-4-4-1.103 0-2-.897-2-2v-2h-2c-1.103 0-2-.897-2-2s.897-2 2-2h2v-2h-2c-2.206 0-4 1.794-4 4s1.794 4 4 4z"/><path d="m31 12c0-2.757 2.243-5 5-5h5v-1c0-1.654 1.346-3 3-3h1v-2h-1c-2.415 0-4.435 1.721-4.899 4h-3.101c-3.86 0-7 3.14-7 7v11h2z"/><path d="m61 35c0-2.626-4.527-4-9-4s-9 1.374-9 4v12h-2v-18c0-2.626-4.527-4-9-4s-9 1.374-9 4v32h-2v-32c0-2.626-4.527-4-9-4s-9 1.374-9 4v32h-2v2h62v-2h-2zm-9-2c4.547 0 7 1.42 7 2s-2.453 2-7 2-7-1.42-7-2 2.453-2 7-2zm-7 4.6c1.736.923 4.374 1.4 7 1.4s5.264-.477 7-1.4v23.4h-4v-11c0-1.654-1.346-3-3-3h-7zm8 23.4h-16v-11c0-.552.449-1 1-1h14c.551 0 1 .448 1 1zm-21-34c4.547 0 7 1.419 7 2s-2.453 2-7 2-7-1.419-7-2 2.453-2 7-2zm-7 4.6c1.736.923 4.374 1.4 7 1.4s5.264-.477 7-1.4v1.4c0 .58-2.453 2-7 2s-7-1.42-7-2zm0 4c1.736.923 4.374 1.4 7 1.4s5.264-.477 7-1.4v11.4h-1c-1.654 0-3 1.346-3 3v11h-10zm-13-8.6c4.547 0 7 1.419 7 2s-2.453 2-7 2-7-1.419-7-2 2.453-2 7-2zm-7 4.6c1.736.923 4.374 1.4 7 1.4s5.264-.477 7-1.4v1.4c0 .58-2.453 2-7 2s-7-1.42-7-2zm0 4c1.736.923 4.374 1.4 7 1.4s5.264-.477 7-1.4v25.4h-14z"/><path d="m39 59h12v-8h-12zm2-6h8v4h-8z"/><path d="m58 17c-1.86 0-3.428 1.277-3.874 3h-1.126c-2.206 0-4 1.794-4 4v5h2v-5c0-1.103.897-2 2-2h3v-1c0-1.103.897-2 2-2h5v-2z"/><path d="m58 22c0 1.103-.897 2-2 2-1.654 0-3 1.346-3 3v2h2v-2c0-.551.449-1 1-1 1.86 0 3.428-1.277 3.874-3h3.126v-2h-5z"/><path d="m11 5v3h10c1.103 0 2 .897 2 2s-.897 2-2 2h-2c-2.206 0-4 1.794-4 4v7h2v-7c0-1.103.897-2 2-2h2c2.206 0 4-1.794 4-4s-1.794-4-4-4h-8v-1c0-2.206-1.794-4-4-4h-2v2h2c1.103 0 2 .897 2 2z"/><path d="m7 49h2v2h-2z"/><path d="m7 57h2v2h-2z"/><path d="m7 53h2v2h-2z"/><path d="m27 49h2v2h-2z"/><path d="m27 57h2v2h-2z"/><path d="m27 53h2v2h-2z"/></g></svg>