<svg width="50" height="48" viewBox="0 0 50 48" fill="none" xmlns="http://www.w3.org/2000/svg">
<path d="M19.3666 13.6639L16.8867 17.1768L17.5648 17.6554L20.0447 14.1426L19.3666 13.6639Z" fill="#afd683"/>
<path d="M40.2696 4.04771L34.6855 12.8096L35.3855 13.2557L40.9696 4.49379L40.2696 4.04771Z" fill="#afd683"/>
<path d="M32.2461 13.4471L22.3496 12.5186L22.2721 13.3449L32.1686 14.2735L32.2461 13.4471Z" fill="#afd683"/>
<path d="M15.1302 18.0801H8.99023V18.9101H15.1302V18.0801Z" fill="#afd683"/>
<path d="M16.4295 20.07C17.3463 20.07 18.0895 19.3268 18.0895 18.41C18.0895 17.4932 17.3463 16.75 16.4295 16.75C15.5127 16.75 14.7695 17.4932 14.7695 18.41C14.7695 19.3268 15.5127 20.07 16.4295 20.07Z" fill="#afd683"/>
<path d="M7.32992 20.07C8.24671 20.07 8.98992 19.3268 8.98992 18.41C8.98992 17.4932 8.24671 16.75 7.32992 16.75C6.41313 16.75 5.66992 17.4932 5.66992 18.41C5.66992 19.3268 6.41313 20.07 7.32992 20.07Z" fill="#afd683"/>
<path d="M33.9002 15.6696C34.817 15.6696 35.5602 14.9264 35.5602 14.0096C35.5602 13.0928 34.817 12.3496 33.9002 12.3496C32.9834 12.3496 32.2402 13.0928 32.2402 14.0096C32.2402 14.9264 32.9834 15.6696 33.9002 15.6696Z" fill="#afd683"/>
<path d="M41.3495 4.78973C42.2662 4.78973 43.0095 4.04652 43.0095 3.12973C43.0095 2.21293 42.2662 1.46973 41.3495 1.46973C40.4327 1.46973 39.6895 2.21293 39.6895 3.12973C39.6895 4.04652 40.4327 4.78973 41.3495 4.78973Z" fill="#afd683"/>
<path d="M20.6092 14.2702C21.526 14.2702 22.2692 13.527 22.2692 12.6102C22.2692 11.6934 21.526 10.9502 20.6092 10.9502C19.6924 10.9502 18.9492 11.6934 18.9492 12.6102C18.9492 13.527 19.6924 14.2702 20.6092 14.2702Z" fill="#afd683"/>
<path d="M18.8609 40.1104C17.8614 39.1082 16.6476 38.3457 15.3109 37.8804C16.2653 37.226 16.9852 36.2833 17.3652 35.1902C17.7453 34.0972 17.7655 32.9112 17.423 31.8058C17.0804 30.7005 16.393 29.7338 15.4615 29.0472C14.5299 28.3606 13.4031 27.9902 12.2459 27.9902C11.0886 27.9902 9.96179 28.3606 9.03023 29.0472C8.09868 29.7338 7.41132 30.7005 7.06877 31.8058C6.72621 32.9112 6.74643 34.0972 7.12648 35.1902C7.50653 36.2833 8.22644 37.226 9.18086 37.8804C7.34067 38.517 5.74482 39.7116 4.61559 41.2979C3.48636 42.8842 2.87996 44.7832 2.88086 46.7304H21.6109C21.6127 45.5 21.3706 44.2814 20.8986 43.1451C20.4265 42.0088 19.734 40.9774 18.8609 40.1104Z" fill="#afd683"/>
<path d="M46.3806 40.1104C45.3774 39.108 44.1603 38.3456 42.8206 37.8804C43.775 37.226 44.495 36.2833 44.875 35.1902C45.255 34.0972 45.2753 32.9112 44.9327 31.8058C44.5902 30.7005 43.9028 29.7338 42.9713 29.0472C42.0397 28.3606 40.9129 27.9902 39.7556 27.9902C38.5984 27.9902 37.4716 28.3606 36.54 29.0472C35.6084 29.7338 34.9211 30.7005 34.5785 31.8058C34.236 32.9112 34.2562 34.0972 34.6362 35.1902C35.0163 36.2833 35.7362 37.226 36.6906 37.8804C34.8537 38.5221 33.2612 39.718 32.1327 41.3032C31.0043 42.8883 30.3956 44.7846 30.3906 46.7304H49.1206C49.1221 45.5009 48.8808 44.2832 48.4106 43.1472C47.9404 42.0112 47.2506 40.9792 46.3806 40.1104Z" fill="#afd683"/>
<path d="M21.6102 46.7295C21.6083 45.0489 21.1555 43.3997 20.2989 41.9538C19.4422 40.5079 18.2133 39.3185 16.7402 38.5095C16.9795 36.8298 17.6708 35.2467 18.7402 33.9295C19.8494 32.5528 21.3215 31.5136 22.9902 30.9295C22.2552 30.3896 21.6589 29.6829 21.2503 28.8676C20.8418 28.0522 20.6327 27.1515 20.6402 26.2395C20.6862 25.4067 20.9164 24.5944 21.3141 23.8612C21.7118 23.128 22.2672 22.4922 22.9402 21.9995C23.8406 21.3803 24.9075 21.0488 26.0002 21.0488C27.0929 21.0488 28.1599 21.3803 29.0602 21.9995C29.7699 22.5108 30.3515 23.1796 30.7592 23.9534C31.1669 24.7273 31.3898 25.5851 31.4102 26.4595C31.3898 27.334 31.1669 28.1918 30.7592 28.9656C30.3515 29.7394 29.7699 30.4082 29.0602 30.9195C30.7403 31.4071 32.2323 32.3943 33.3379 33.75C34.4435 35.1057 35.1105 36.7657 35.2502 38.5095C33.7798 39.3181 32.5533 40.5064 31.6985 41.9505C30.8436 43.3945 30.3919 45.0414 30.3902 46.7195L21.6102 46.7295Z" fill="#afd683"/>
</svg>
