<?xml version="1.0" encoding="utf-8"?>
<!-- Generator: Adobe Illustrator 22.0.1, SVG Export Plug-In . SVG Version: 6.00 Build 0)  -->
<svg version="1.1" id="Layer_1" xmlns="http://www.w3.org/2000/svg" xmlns:xlink="http://www.w3.org/1999/xlink" x="0px" y="0px"
	 viewBox="0 0 475 475" style="enable-background:new 0 0 475 475;" xml:space="preserve">
<style type="text/css">
	.st0{fill:#FFFFFF;}
</style>
<path class="st0" d="M377.7,187.3h-0.7c-9.1-0.1-17.9,3.3-24.7,9.4c-5.5-15.2-19.4-26.1-35.8-26.1c-10,0.1-19.6,4.2-26.5,11.4
	c-6.4-12.9-19.2-21.7-33.9-21.7h-0.7c-7.9-0.1-15.6,2.4-21.8,7.3v-92c0-22.2-17.3-40.3-38.4-40.3c-21,0-38.3,18.1-38.3,40.3
	l-0.2,182.6l-10.3-12.5c-9.1-11.3-22.4-18.3-36.8-19.3c-14.1-1-28,3.9-38.4,13.6l-9,7.4c-2.9,2.4-3.7,6.5-2,9.8l87.4,168
	c16,30.7,46.4,49.9,79.4,49.9h98.5v-0.1c49.9,0,90.4-43.3,90.5-96.5c0-23.8-0.1-41.6-0.1-55.9c0.1-38.5,0-52.7-0.1-95.1
	C415.9,205.2,398.7,187.3,377.7,187.3z M400,322.4c0,14.4,0,32.2-0.1,56c0,44.4-33.6,80.6-74.7,80.6h-98c-27,0-52-15.9-65.2-41.3
	L77.6,255.5l4.2-3.5c0.1-0.1,0.2-0.2,0.3-0.3c7.2-6.7,16.8-10.2,26.6-9.6c10,0.8,19.3,5.7,25.6,13.5l24.5,29.8
	c2.1,2.6,5.7,3.6,8.9,2.5c3.2-1.1,5.3-4.1,5.3-7.5L173,75.6c0-13.4,10.2-24.3,22.4-24.3s22.4,10.9,22.4,24.3v123.5
	c0,0.4,0,0.9,0,1.3c0,0.2,0,0.4,0,0.6v52.8c0,4.4,3.6,8,8,8s8-3.6,8-8v-54.4c0-12.9,9.9-23.1,21.8-23.1h0.7
	c12.2,0,22.4,10.7,22.4,24.1v48.3c0,4.4,3.6,8,8,8c4.4,0,8-3.6,8-8v-37.9c0-13.4,9.7-24.3,22-24.3c12.2,0,21.9,10.9,21.9,24.3v35.8
	c0,4.4,3.6,8,8,8c4.4,0,8-3.6,8-8v-19.4c0-13.4,10.2-23.9,22.5-23.9h0.7c12.2,0,22.2,10.7,22.2,24.1C400,269.8,400,283.9,400,322.4z
	"/>
<path class="st0" d="M131.7,79.1c4.4,0,8-3.6,8-8c0.1-30.5,24.9-55.1,55.4-55.1c30.5,0,55.2,24.6,55.4,55.1c0,4.4,3.6,8,8,8
	c4.4,0,8-3.6,8-8C266.3,31.8,234.4,0,195.1,0c-39.3,0-71.2,31.8-71.4,71.1C123.7,75.5,127.3,79.1,131.7,79.1z"/>
</svg>
