<svg version="1.1" id="Layer_1" xmlns="http://www.w3.org/2000/svg" xmlns:xlink="http://www.w3.org/1999/xlink" x="0px" y="0px"
	 viewBox="0 0 331.309 331.309" style="enable-background:new 0 0 331.309 331.309;" xml:space="preserve">
<g>
	<g>
		<g>
			<path d="M49.425,143.993h138.344c19.952,0,36.184-16.232,36.184-36.184c0-19.952-16.231-36.185-36.184-36.185
				c-19.953,0-36.185,16.232-36.185,36.185c0,0.737,0.099,1.45,0.266,2.136c0.96,3.938,4.501,6.864,8.734,6.864c4.971,0,9-4.029,9-9
				c0-10.027,8.157-18.185,18.185-18.185c10.026,0,18.184,8.158,18.184,18.185c0,10.027-8.157,18.184-18.184,18.184H86.227H49.425
				c-4.971,0-9,4.029-9,9S44.454,143.993,49.425,143.993z"/>
			<path d="M270.532,187.315H132.188c-4.971,0-9,4.029-9,9s4.029,9,9,9h36.803h101.541c10.027,0,18.185,8.157,18.185,18.184
				c0,10.027-8.157,18.185-18.185,18.185c-10.028,0-18.185-8.158-18.185-18.185c0-4.971-4.029-9-9-9
				c-4.233,0-7.774,2.926-8.734,6.864c-0.167,0.686-0.266,1.399-0.266,2.136c0,19.952,16.232,36.185,36.185,36.185
				s36.185-16.232,36.185-36.185S290.484,187.315,270.532,187.315z"/>
			<path d="M282.81,79.094c-26.743,0-48.5,21.756-48.5,48.499c0,4.971,4.029,9,9,9s9-4.029,9-9c0-16.817,13.683-30.499,30.5-30.499
				c16.817,0,30.499,13.682,30.499,30.499c0,16.817-13.682,30.5-30.499,30.5H9c-4.971,0-9,4.029-9,9c0,4.971,4.029,9,9,9h273.81
				c26.742,0,48.499-21.757,48.499-48.5C331.309,100.849,309.552,79.094,282.81,79.094z"/>
			<path d="M104.743,187.315H87.785c-4.971,0-9,4.029-9,9s4.029,9,9,9h16.958c4.971,0,9-4.029,9-9S109.714,187.315,104.743,187.315z
				"/>
			<path d="M21.987,143.993h3.334c4.971,0,9-4.029,9-9s-4.029-9-9-9h-3.334c-4.971,0-9,4.029-9,9S17.017,143.993,21.987,143.993z"/>
		</g>
	</g>
</g>
</svg>
