<svg width="1920" height="1080" viewBox="0 0 1920 1080" fill="none" xmlns="http://www.w3.org/2000/svg">
<g clip-path="url(#clip0)">
<path d="M591.099 -1150.77L489.064 -901.637C486.94 -896.557 486.22 -891.001 486.98 -885.551C487.74 -880.1 489.951 -874.955 493.382 -870.654L607.223 -726.517C610.895 -722.254 613.375 -717.098 614.411 -711.568L642.193 -487.708C643.057 -481.234 641.833 -474.652 638.7 -468.917C635.567 -463.181 630.686 -458.591 624.768 -455.812L450.973 -372.246C444.392 -369.228 439.086 -363.988 435.988 -357.448C432.89 -350.909 432.199 -343.489 434.036 -336.495L459.529 -236.279C461.224 -229.239 460.45 -221.829 457.337 -215.286L403.761 -102.784C400.524 -96.0852 399.826 -88.4428 401.798 -81.2746C403.77 -74.1063 408.278 -67.8982 414.485 -63.8022L570.644 -16.1894C584.728 12.2632 597.187 41.4915 607.961 71.3551C620.207 104.828 630.43 139.008 638.577 173.709L551.763 348.035C549.973 355.769 551.246 363.891 555.316 370.702C559.386 377.512 565.937 382.483 573.597 384.572L705.094 422.06C709.004 423.138 713.088 423.432 717.114 422.926L901.315 402.523C906.801 401.835 912.371 402.638 917.436 404.848C922.501 407.057 926.875 410.591 930.098 415.077C933.32 419.562 935.271 424.835 935.746 430.338C936.221 435.842 935.202 441.373 932.797 446.35L856.549 609.29L829.809 673.272C827.308 680.125 827.328 687.642 829.864 694.477C832.401 701.312 837.288 707.021 843.654 710.582L899.655 743.3C903.937 745.796 908.76 747.219 913.713 747.448C918.667 747.678 923.604 746.707 928.103 744.618L990.791 716.01C993.821 714.579 997.065 713.653 1000.39 713.267L1461.71 663.062C1468.08 662.343 1474.51 663.631 1480.11 666.746C1485.7 669.86 1490.18 674.644 1492.92 680.431L1512.16 720.433C1515.16 726.988 1520.37 732.279 1526.88 735.379C1533.39 738.478 1540.79 739.189 1547.78 737.387L1655.56 710.276C1657.97 709.542 1660.26 708.441 1662.35 707.011L1954.12 551.551C1959.05 549.002 1964.58 547.835 1970.12 548.172C1975.66 548.509 1981 550.337 1985.58 553.464L2278.09 739.504C2284.68 743.758 2292.65 745.33 2300.37 743.9C2308.09 742.47 2314.97 738.144 2319.61 731.81L2388.05 639.936C2391.81 635.035 2396.87 631.299 2402.67 629.161L2510.19 591.603C2517.39 588.993 2525.29 589.154 2532.36 592.054C2539.44 594.955 2545.17 600.388 2548.45 607.291L2688.21 897.961C2690.42 902.618 2693.76 906.646 2697.92 909.674C2702.09 912.702 2706.96 914.633 2712.07 915.289L2873.2 935.973C2879.84 936.803 2886.57 935.534 2892.44 932.344L3157.72 782.466C3162.97 779.535 3167.25 775.131 3170.02 769.799C3172.8 764.467 3173.95 758.441 3173.33 752.467L3158.98 604.801C3158.76 602.797 3158.38 600.815 3157.83 598.874L3041.1 209.881C3038.78 202.352 3039.46 194.22 3042.97 187.166L3095.05 82.5428C3097.91 76.8443 3098.92 70.4003 3097.95 64.1032L3079.96 -62.3862C3079.42 -66.3039 3078.13 -70.0791 3076.15 -73.5051L3039.02 -137.961C3038.18 -139.455 3037.22 -140.872 3036.13 -142.195L2939.75 -260.304C2938.17 -262.16 2936.84 -264.213 2935.79 -266.41L2867.17 -409.115C2865.04 -413.51 2863.99 -418.352 2864.1 -423.238C2864.21 -428.124 2865.49 -432.913 2867.83 -437.208L2934.51 -561.127C2935.25 -562.467 2935.9 -563.858 2936.44 -565.289L2957.52 -623.996C2958.98 -627.917 2959.61 -632.092 2959.4 -636.265C2959.18 -640.439 2958.11 -644.524 2956.26 -648.27L2934.5 -693.531C2932.56 -697.389 2931.46 -701.611 2931.27 -705.924C2931.08 -710.236 2931.8 -714.541 2933.38 -718.558L2946.64 -752.028C2948.21 -756.021 2948.93 -760.299 2948.75 -764.586C2948.57 -768.873 2947.5 -773.073 2945.59 -776.917L2882.7 -907.718C2881.03 -911.119 2878.75 -914.181 2875.97 -916.751L2748.93 -1035.46C2743.83 -1040.16 2740.48 -1046.45 2739.42 -1053.3C2738.35 -1060.15 2739.64 -1067.16 2743.07 -1073.2L2758.93 -1101.61C2762.08 -1106.99 2763.52 -1113.19 2763.06 -1119.4C2762.6 -1125.61 2760.26 -1131.53 2756.36 -1136.38C2752.45 -1141.23 2747.16 -1144.78 2741.19 -1146.56C2735.22 -1148.33 2728.85 -1148.25 2722.92 -1146.33L2720.43 -1145.13C2715.73 -1143.73 2711.44 -1141.24 2707.9 -1137.85C2704.37 -1134.46 2701.7 -1130.27 2700.1 -1125.65L2662.93 -1019.84C2661.52 -1015.7 2659.23 -1011.92 2656.24 -1008.73C2653.24 -1005.55 2649.6 -1003.04 2645.56 -1001.37C2641.52 -999.699 2637.17 -998.909 2632.8 -999.053C2628.43 -999.196 2624.14 -1000.27 2620.22 -1002.2L2489.41 -1065.58C2483.29 -1068.5 2478.31 -1073.37 2475.25 -1079.42C2472.19 -1085.46 2471.21 -1092.36 2472.48 -1099.02C2473.47 -1103.86 2473.28 -1108.87 2471.93 -1113.61C2470.57 -1118.36 2468.09 -1122.71 2464.69 -1126.29C2461.29 -1129.88 2457.08 -1132.59 2452.41 -1134.2C2447.74 -1135.81 2442.75 -1136.27 2437.86 -1135.54L2213.55 -1101.31C2208.75 -1100.5 2203.82 -1100.88 2199.2 -1102.42L1895.27 -1202.19C1890.18 -1203.88 1884.73 -1204.21 1879.46 -1203.15C1874.2 -1202.08 1869.3 -1199.65 1865.26 -1196.11L1748.26 -1094.52C1742.96 -1089.83 1736.2 -1087.11 1729.13 -1086.81C1722.06 -1086.52 1715.11 -1088.67 1709.45 -1092.9L1518.18 -1232.7C1514.51 -1235.32 1511.47 -1238.72 1509.27 -1242.66C1507.07 -1246.59 1505.76 -1250.96 1505.43 -1255.45C1505.11 -1259.95 1505.79 -1264.46 1507.4 -1268.67C1509.02 -1272.88 1511.55 -1276.69 1514.8 -1279.81L1650.75 -1413.35C1654.15 -1416.64 1656.75 -1420.67 1658.33 -1425.13C1659.92 -1429.59 1660.45 -1434.35 1659.9 -1439.05L1651.81 -1509.8C1650.86 -1517.41 1647.19 -1524.42 1641.47 -1529.54L1570.81 -1592.02C1566.33 -1596.01 1560.78 -1598.59 1554.85 -1599.46C1548.91 -1600.33 1542.85 -1599.45 1537.4 -1596.92L1188.13 -1436.13C1183.97 -1434.18 1179.43 -1433.19 1174.83 -1433.22C1170.24 -1433.25 1165.71 -1434.31 1161.59 -1436.32L1098.4 -1466.95C1094.21 -1469.03 1089.59 -1470.12 1084.91 -1470.14C1080.22 -1470.16 1075.6 -1469.11 1071.38 -1467.08L902.158 -1385.71C895.833 -1382.64 890.717 -1377.54 887.623 -1371.22L785.703 -1159.47C782.677 -1153.18 777.597 -1148.1 771.299 -1145.07C765.001 -1142.04 757.862 -1141.24 751.055 -1142.81L626.058 -1169.62C618.945 -1171.11 611.53 -1170.04 605.131 -1166.59C598.731 -1163.13 593.76 -1157.53 591.099 -1150.77V-1150.77Z" fill="#293135" stroke="#2D7D9A" stroke-opacity="0.38" stroke-miterlimit="10"/>
<path d="M1598.47 241.27C1597.47 240.247 1596.25 239.47 1594.91 239C1595.86 238.347 1596.58 237.406 1596.96 236.315C1597.34 235.224 1597.36 234.04 1597.02 232.937C1596.67 231.833 1595.99 230.869 1595.06 230.183C1594.13 229.498 1593 229.128 1591.85 229.128C1590.69 229.128 1589.57 229.498 1588.64 230.183C1587.71 230.869 1587.02 231.833 1586.68 232.937C1586.34 234.04 1586.36 235.224 1586.74 236.315C1587.12 237.406 1587.84 238.347 1588.79 239C1586.95 239.636 1585.35 240.831 1584.22 242.417C1583.09 244.004 1582.49 245.903 1582.49 247.85H1584C1584 246.812 1584.2 245.785 1584.6 244.827C1585 243.868 1585.58 242.997 1586.31 242.264C1587.05 241.53 1587.92 240.948 1588.88 240.551C1589.83 240.154 1590.86 239.95 1591.9 239.95C1592.94 239.95 1593.96 240.154 1594.92 240.551C1595.88 240.948 1596.75 241.53 1597.48 242.264C1598.22 242.997 1598.8 243.868 1599.2 244.827C1599.59 245.785 1599.8 246.812 1599.8 247.85H1601.26C1601.25 246.623 1601 245.41 1600.52 244.281C1600.04 243.152 1599.34 242.128 1598.47 241.27V241.27ZM1591.85 238.53C1591.07 238.53 1590.31 238.299 1589.66 237.867C1589.01 237.436 1588.5 236.822 1588.2 236.103C1587.9 235.384 1587.82 234.592 1587.97 233.827C1588.12 233.063 1588.49 232.359 1589.04 231.804C1589.59 231.25 1590.28 230.87 1591.05 230.712C1591.81 230.554 1592.6 230.625 1593.33 230.916C1594.05 231.208 1594.67 231.706 1595.11 232.349C1595.55 232.992 1595.79 233.751 1595.8 234.53C1595.8 235.582 1595.38 236.592 1594.64 237.341C1593.91 238.089 1592.9 238.517 1591.85 238.53V238.53Z" fill="#2D7D9A"/>
<path d="M1584.72 248.22C1583.71 247.222 1582.5 246.463 1581.16 246C1582.11 245.343 1582.83 244.4 1583.2 243.307C1583.58 242.215 1583.6 241.03 1583.25 239.927C1582.91 238.824 1582.22 237.859 1581.29 237.174C1580.36 236.49 1579.23 236.12 1578.08 236.12C1576.92 236.12 1575.8 236.49 1574.87 237.174C1573.94 237.859 1573.25 238.824 1572.9 239.927C1572.56 241.03 1572.58 242.215 1572.96 243.307C1573.33 244.4 1574.05 245.343 1575 246C1573.66 246.469 1572.45 247.235 1571.45 248.24C1570.58 249.106 1569.88 250.138 1569.41 251.274C1568.94 252.41 1568.7 253.629 1568.7 254.86H1570.2C1570.16 253.8 1570.34 252.742 1570.72 251.752C1571.1 250.761 1571.67 249.857 1572.41 249.093C1573.15 248.329 1574.03 247.722 1575.01 247.307C1575.98 246.893 1577.03 246.679 1578.09 246.679C1579.16 246.679 1580.21 246.893 1581.18 247.307C1582.16 247.722 1583.04 248.329 1583.78 249.093C1584.52 249.857 1585.09 250.761 1585.47 251.752C1585.85 252.742 1586.03 253.8 1585.99 254.86H1587.46C1587.46 253.627 1587.22 252.405 1586.75 251.265C1586.28 250.126 1585.59 249.09 1584.72 248.22V248.22ZM1578.1 245.47C1577.32 245.48 1576.55 245.257 1575.89 244.829C1575.24 244.401 1574.72 243.787 1574.41 243.067C1574.11 242.346 1574.02 241.55 1574.17 240.78C1574.32 240.011 1574.69 239.302 1575.24 238.745C1575.79 238.188 1576.49 237.806 1577.26 237.65C1578.03 237.493 1578.82 237.569 1579.55 237.866C1580.27 238.164 1580.89 238.67 1581.33 239.32C1581.77 239.971 1582 240.737 1582 241.52C1581.99 242.555 1581.57 243.545 1580.85 244.282C1580.12 245.018 1579.13 245.444 1578.1 245.47Z" fill="#2D7D9A"/>
<path d="M1612.23 248.22C1611.23 247.222 1610.01 246.463 1608.67 246C1609.62 245.346 1610.34 244.403 1610.72 243.31C1611.1 242.217 1611.12 241.031 1610.78 239.925C1610.44 238.82 1609.75 237.853 1608.82 237.167C1607.89 236.48 1606.76 236.11 1605.61 236.11C1604.45 236.11 1603.32 236.48 1602.39 237.167C1601.46 237.853 1600.77 238.82 1600.43 239.925C1600.09 241.031 1600.11 242.217 1600.49 243.31C1600.87 244.403 1601.59 245.346 1602.54 246C1601.21 246.465 1600 247.224 1599 248.22C1598.13 249.086 1597.43 250.118 1596.96 251.254C1596.49 252.391 1596.25 253.609 1596.25 254.84H1597.72C1597.72 253.803 1597.92 252.775 1598.32 251.817C1598.72 250.858 1599.3 249.987 1600.03 249.254C1600.77 248.52 1601.64 247.938 1602.6 247.541C1603.56 247.144 1604.58 246.94 1605.62 246.94C1606.66 246.94 1607.68 247.144 1608.64 247.541C1609.6 247.938 1610.47 248.52 1611.21 249.254C1611.94 249.987 1612.52 250.858 1612.92 251.817C1613.32 252.775 1613.52 253.803 1613.52 254.84H1615C1615 253.608 1614.75 252.389 1614.28 251.253C1613.8 250.116 1613.11 249.086 1612.23 248.22V248.22ZM1605.61 245.47C1604.83 245.46 1604.07 245.22 1603.43 244.78C1602.79 244.34 1602.29 243.72 1602 242.997C1601.71 242.275 1601.63 241.482 1601.79 240.719C1601.95 239.956 1602.33 239.257 1602.88 238.71C1603.44 238.162 1604.14 237.791 1604.91 237.643C1605.67 237.494 1606.46 237.575 1607.18 237.876C1607.9 238.176 1608.52 238.682 1608.95 239.331C1609.38 239.979 1609.61 240.741 1609.61 241.52C1609.6 242.572 1609.17 243.577 1608.42 244.316C1607.67 245.056 1606.66 245.47 1605.61 245.47V245.47Z" fill="#2D7D9A"/>
<path d="M991.468 453.27C990.474 452.247 989.255 451.47 987.908 451C988.861 450.347 989.579 449.406 989.958 448.315C990.338 447.224 990.358 446.04 990.016 444.937C989.674 443.833 988.988 442.869 988.058 442.183C987.128 441.498 986.003 441.128 984.848 441.128C983.693 441.128 982.569 441.498 981.639 442.183C980.709 442.869 980.023 443.833 979.681 444.937C979.339 446.04 979.359 447.224 979.738 448.315C980.117 449.406 980.836 450.347 981.788 451C979.948 451.636 978.352 452.831 977.223 454.417C976.094 456.004 975.487 457.903 975.488 459.85H976.998C976.998 458.812 977.203 457.785 977.6 456.827C977.997 455.868 978.579 454.997 979.312 454.264C980.046 453.53 980.917 452.948 981.875 452.551C982.834 452.154 983.861 451.95 984.898 451.95C985.936 451.95 986.963 452.154 987.921 452.551C988.88 452.948 989.751 453.53 990.484 454.264C991.218 454.997 991.8 455.868 992.197 456.827C992.594 457.785 992.798 458.812 992.798 459.85H994.258C994.25 458.623 993.999 457.41 993.521 456.281C993.042 455.152 992.344 454.128 991.468 453.27V453.27ZM984.848 450.53C984.069 450.53 983.308 450.299 982.659 449.867C982.011 449.436 981.504 448.822 981.204 448.103C980.904 447.384 980.823 446.592 980.971 445.827C981.119 445.063 981.491 444.359 982.038 443.804C982.585 443.25 983.285 442.87 984.047 442.712C984.81 442.554 985.603 442.625 986.326 442.916C987.048 443.208 987.668 443.706 988.108 444.349C988.548 444.992 988.788 445.751 988.798 446.53C988.798 447.582 988.384 448.592 987.644 449.341C986.905 450.089 985.9 450.517 984.848 450.53V450.53Z" fill="#2D7D9A"/>
<path d="M977.719 460.22C976.715 459.222 975.498 458.463 974.159 458C975.11 457.343 975.826 456.4 976.203 455.307C976.58 454.215 976.598 453.03 976.254 451.927C975.91 450.824 975.222 449.859 974.291 449.174C973.36 448.49 972.235 448.12 971.079 448.12C969.924 448.12 968.798 448.49 967.867 449.174C966.936 449.859 966.249 450.824 965.905 451.927C965.561 453.03 965.579 454.215 965.955 455.307C966.332 456.4 967.048 457.343 967.999 458C966.662 458.469 965.448 459.235 964.449 460.24C963.575 461.106 962.882 462.138 962.41 463.274C961.938 464.41 961.696 465.629 961.699 466.86H963.199C963.161 465.8 963.338 464.742 963.718 463.752C964.097 462.761 964.673 461.857 965.41 461.093C966.146 460.329 967.03 459.722 968.006 459.307C968.983 458.893 970.033 458.679 971.094 458.679C972.155 458.679 973.206 458.893 974.182 459.307C975.159 459.722 976.042 460.329 976.779 461.093C977.516 461.857 978.091 462.761 978.471 463.752C978.851 464.742 979.027 465.8 978.989 466.86H980.459C980.464 465.627 980.225 464.405 979.755 463.265C979.284 462.126 978.592 461.09 977.719 460.22V460.22ZM971.099 457.47C970.316 457.48 969.547 457.257 968.891 456.829C968.235 456.401 967.721 455.787 967.414 455.067C967.108 454.346 967.022 453.55 967.169 452.78C967.316 452.011 967.688 451.302 968.238 450.745C968.789 450.188 969.493 449.806 970.26 449.65C971.028 449.493 971.824 449.569 972.549 449.866C973.274 450.164 973.894 450.67 974.33 451.32C974.766 451.971 974.999 452.737 974.999 453.52C974.987 454.555 974.573 455.545 973.846 456.282C973.119 457.018 972.134 457.444 971.099 457.47Z" fill="#2D7D9A"/>
<path d="M1005.23 460.22C1004.23 459.222 1003.01 458.463 1001.67 458C1002.62 457.346 1003.34 456.403 1003.72 455.31C1004.1 454.217 1004.12 453.031 1003.78 451.925C1003.44 450.82 1002.75 449.853 1001.82 449.167C1000.89 448.48 999.762 448.11 998.605 448.11C997.448 448.11 996.321 448.48 995.389 449.167C994.458 449.853 993.77 450.82 993.428 451.925C993.085 453.031 993.106 454.217 993.486 455.31C993.866 456.403 994.586 457.346 995.54 458C994.208 458.465 992.998 459.224 992 460.22C991.126 461.086 990.433 462.118 989.961 463.254C989.489 464.391 989.247 465.609 989.25 466.84H990.72C990.72 465.803 990.924 464.775 991.321 463.817C991.718 462.858 992.3 461.987 993.034 461.254C993.767 460.52 994.638 459.938 995.597 459.541C996.555 459.144 997.583 458.94 998.62 458.94C999.657 458.94 1000.68 459.144 1001.64 459.541C1002.6 459.938 1003.47 460.52 1004.21 461.254C1004.94 461.987 1005.52 462.858 1005.92 463.817C1006.32 464.775 1006.52 465.803 1006.52 466.84H1008C1008 465.608 1007.75 464.389 1007.28 463.253C1006.8 462.116 1006.11 461.086 1005.23 460.22V460.22ZM998.61 457.47C997.831 457.46 997.072 457.22 996.429 456.78C995.786 456.34 995.288 455.72 994.997 454.997C994.705 454.275 994.634 453.482 994.792 452.719C994.95 451.956 995.33 451.257 995.885 450.71C996.439 450.162 997.143 449.791 997.908 449.643C998.672 449.494 999.464 449.575 1000.18 449.876C1000.9 450.176 1001.52 450.682 1001.95 451.331C1002.38 451.979 1002.61 452.741 1002.61 453.52C1002.6 454.572 1002.17 455.577 1001.42 456.316C1000.67 457.056 999.662 457.47 998.61 457.47V457.47Z" fill="#2D7D9A"/>
<path d="M1613.47 661.27C1612.47 660.248 1611.25 659.471 1609.91 659C1610.86 658.347 1611.58 657.406 1611.96 656.315C1612.34 655.224 1612.36 654.04 1612.02 652.937C1611.67 651.834 1610.99 650.869 1610.06 650.184C1609.13 649.499 1608 649.129 1606.85 649.129C1605.69 649.129 1604.57 649.499 1603.64 650.184C1602.71 650.869 1602.02 651.834 1601.68 652.937C1601.34 654.04 1601.36 655.224 1601.74 656.315C1602.12 657.406 1602.84 658.347 1603.79 659C1601.95 659.637 1600.35 660.832 1599.22 662.418C1598.09 664.004 1597.49 665.903 1597.49 667.85H1599C1599 666.813 1599.2 665.786 1599.6 664.827C1600 663.869 1600.58 662.998 1601.31 662.264C1602.05 661.531 1602.92 660.949 1603.88 660.552C1604.83 660.155 1605.86 659.95 1606.9 659.95C1607.94 659.95 1608.96 660.155 1609.92 660.552C1610.88 660.949 1611.75 661.531 1612.48 662.264C1613.22 662.998 1613.8 663.869 1614.2 664.827C1614.59 665.786 1614.8 666.813 1614.8 667.85H1616.26C1616.25 666.624 1616 665.411 1615.52 664.282C1615.04 663.152 1614.34 662.129 1613.47 661.27V661.27ZM1606.85 658.53C1606.07 658.53 1605.31 658.3 1604.66 657.868C1604.01 657.436 1603.5 656.822 1603.2 656.103C1602.9 655.384 1602.82 654.593 1602.97 653.828C1603.12 653.063 1603.49 652.359 1604.04 651.805C1604.59 651.251 1605.28 650.87 1606.05 650.712C1606.81 650.554 1607.6 650.626 1608.33 650.917C1609.05 651.208 1609.67 651.707 1610.11 652.35C1610.55 652.993 1610.79 653.751 1610.8 654.53C1610.8 655.583 1610.38 656.593 1609.64 657.341C1608.91 658.09 1607.9 658.517 1606.85 658.53V658.53Z" fill="#2D7D9A"/>
<path d="M1599.72 668.22C1598.71 667.222 1597.5 666.463 1596.16 666C1597.11 665.343 1597.83 664.4 1598.2 663.307C1598.58 662.215 1598.6 661.03 1598.25 659.927C1597.91 658.824 1597.22 657.859 1596.29 657.174C1595.36 656.49 1594.23 656.12 1593.08 656.12C1591.92 656.12 1590.8 656.49 1589.87 657.174C1588.94 657.859 1588.25 658.824 1587.9 659.927C1587.56 661.03 1587.58 662.215 1587.96 663.307C1588.33 664.4 1589.05 665.343 1590 666C1588.66 666.469 1587.45 667.235 1586.45 668.24C1585.58 669.106 1584.88 670.138 1584.41 671.274C1583.94 672.41 1583.7 673.629 1583.7 674.86H1585.2C1585.16 673.8 1585.34 672.742 1585.72 671.752C1586.1 670.761 1586.67 669.857 1587.41 669.093C1588.15 668.329 1589.03 667.722 1590.01 667.307C1590.98 666.893 1592.03 666.679 1593.09 666.679C1594.16 666.679 1595.21 666.893 1596.18 667.307C1597.16 667.722 1598.04 668.329 1598.78 669.093C1599.52 669.857 1600.09 670.761 1600.47 671.752C1600.85 672.742 1601.03 673.8 1600.99 674.86H1602.46C1602.46 673.627 1602.22 672.405 1601.75 671.265C1601.28 670.126 1600.59 669.09 1599.72 668.22V668.22ZM1593.1 665.47C1592.32 665.48 1591.55 665.257 1590.89 664.829C1590.24 664.401 1589.72 663.787 1589.41 663.067C1589.11 662.346 1589.02 661.55 1589.17 660.78C1589.32 660.011 1589.69 659.302 1590.24 658.745C1590.79 658.188 1591.49 657.806 1592.26 657.65C1593.03 657.493 1593.82 657.569 1594.55 657.866C1595.27 658.164 1595.89 658.67 1596.33 659.32C1596.77 659.971 1597 660.737 1597 661.52C1596.99 662.555 1596.57 663.545 1595.85 664.282C1595.12 665.018 1594.13 665.444 1593.1 665.47Z" fill="#2D7D9A"/>
<path d="M1627.23 668.22C1626.23 667.221 1625.01 666.462 1623.67 666C1624.62 665.345 1625.34 664.402 1625.72 663.309C1626.1 662.216 1626.12 661.03 1625.78 659.925C1625.44 658.82 1624.75 657.853 1623.82 657.166C1622.89 656.48 1621.76 656.109 1620.61 656.109C1619.45 656.109 1618.32 656.48 1617.39 657.166C1616.46 657.853 1615.77 658.82 1615.43 659.925C1615.09 661.03 1615.11 662.216 1615.49 663.309C1615.87 664.402 1616.59 665.345 1617.54 666C1616.21 666.464 1615 667.223 1614 668.22C1613.13 669.086 1612.43 670.117 1611.96 671.254C1611.49 672.39 1611.25 673.609 1611.25 674.84H1612.72C1612.72 673.802 1612.92 672.775 1613.32 671.816C1613.72 670.858 1614.3 669.987 1615.03 669.253C1615.77 668.52 1616.64 667.938 1617.6 667.541C1618.56 667.144 1619.58 666.94 1620.62 666.94C1621.66 666.94 1622.68 667.144 1623.64 667.541C1624.6 667.938 1625.47 668.52 1626.21 669.253C1626.94 669.987 1627.52 670.858 1627.92 671.816C1628.32 672.775 1628.52 673.802 1628.52 674.84H1630C1630 673.608 1629.75 672.389 1629.28 671.252C1628.8 670.116 1628.11 669.085 1627.23 668.22V668.22ZM1620.61 665.47C1619.83 665.46 1619.07 665.22 1618.43 664.78C1617.79 664.34 1617.29 663.719 1617 662.997C1616.71 662.274 1616.63 661.482 1616.79 660.719C1616.95 659.956 1617.33 659.257 1617.88 658.709C1618.44 658.162 1619.14 657.791 1619.91 657.642C1620.67 657.494 1621.46 657.575 1622.18 657.875C1622.9 658.176 1623.52 658.682 1623.95 659.33C1624.38 659.979 1624.61 660.74 1624.61 661.52C1624.6 662.572 1624.17 663.576 1623.42 664.316C1622.67 665.055 1621.66 665.47 1620.61 665.47V665.47Z" fill="#2D7D9A"/>
<path d="M1286.47 557.585C1285.47 556.562 1284.25 555.785 1282.91 555.315C1283.86 554.662 1284.58 553.721 1284.96 552.629C1285.34 551.538 1285.36 550.355 1285.02 549.252C1284.67 548.148 1283.99 547.183 1283.06 546.498C1282.13 545.813 1281 545.443 1279.85 545.443C1278.69 545.443 1277.57 545.813 1276.64 546.498C1275.71 547.183 1275.02 548.148 1274.68 549.252C1274.34 550.355 1274.36 551.538 1274.74 552.629C1275.12 553.721 1275.84 554.662 1276.79 555.315C1274.95 555.951 1273.35 557.146 1272.22 558.732C1271.09 560.319 1270.49 562.218 1270.49 564.165H1272C1272 563.127 1272.2 562.1 1272.6 561.142C1273 560.183 1273.58 559.312 1274.31 558.579C1275.05 557.845 1275.92 557.263 1276.88 556.866C1277.83 556.469 1278.86 556.265 1279.9 556.265C1280.94 556.265 1281.96 556.469 1282.92 556.866C1283.88 557.263 1284.75 557.845 1285.48 558.579C1286.22 559.312 1286.8 560.183 1287.2 561.142C1287.59 562.1 1287.8 563.127 1287.8 564.165H1289.26C1289.25 562.938 1289 561.725 1288.52 560.596C1288.04 559.467 1287.34 558.443 1286.47 557.585V557.585ZM1279.85 554.845C1279.07 554.845 1278.31 554.614 1277.66 554.182C1277.01 553.751 1276.5 553.137 1276.2 552.418C1275.9 551.699 1275.82 550.907 1275.97 550.142C1276.12 549.378 1276.49 548.674 1277.04 548.119C1277.59 547.565 1278.28 547.185 1279.05 547.027C1279.81 546.869 1280.6 546.94 1281.33 547.231C1282.05 547.523 1282.67 548.021 1283.11 548.664C1283.55 549.307 1283.79 550.066 1283.8 550.845C1283.8 551.897 1283.38 552.907 1282.64 553.656C1281.91 554.404 1280.9 554.832 1279.85 554.845V554.845Z" fill="#2D7D9A"/>
<path d="M1272.72 564.535C1271.71 563.537 1270.5 562.778 1269.16 562.315C1270.11 561.658 1270.83 560.715 1271.2 559.622C1271.58 558.53 1271.6 557.345 1271.25 556.242C1270.91 555.139 1270.22 554.174 1269.29 553.489C1268.36 552.804 1267.23 552.435 1266.08 552.435C1264.92 552.435 1263.8 552.804 1262.87 553.489C1261.94 554.174 1261.25 555.139 1260.9 556.242C1260.56 557.345 1260.58 558.53 1260.96 559.622C1261.33 560.715 1262.05 561.658 1263 562.315C1261.66 562.784 1260.45 563.55 1259.45 564.555C1258.58 565.421 1257.88 566.453 1257.41 567.589C1256.94 568.725 1256.7 569.944 1256.7 571.175H1258.2C1258.16 570.114 1258.34 569.057 1258.72 568.066C1259.1 567.076 1259.67 566.172 1260.41 565.408C1261.15 564.644 1262.03 564.037 1263.01 563.622C1263.98 563.208 1265.03 562.994 1266.09 562.994C1267.16 562.994 1268.21 563.208 1269.18 563.622C1270.16 564.037 1271.04 564.644 1271.78 565.408C1272.52 566.172 1273.09 567.076 1273.47 568.066C1273.85 569.057 1274.03 570.114 1273.99 571.175H1275.46C1275.46 569.942 1275.22 568.72 1274.75 567.58C1274.28 566.441 1273.59 565.405 1272.72 564.535V564.535ZM1266.1 561.785C1265.32 561.795 1264.55 561.572 1263.89 561.144C1263.24 560.716 1262.72 560.102 1262.41 559.381C1262.11 558.661 1262.02 557.865 1262.17 557.095C1262.32 556.326 1262.69 555.617 1263.24 555.06C1263.79 554.503 1264.49 554.121 1265.26 553.965C1266.03 553.808 1266.82 553.884 1267.55 554.181C1268.27 554.478 1268.89 554.985 1269.33 555.635C1269.77 556.286 1270 557.052 1270 557.835C1269.99 558.87 1269.57 559.86 1268.85 560.596C1268.12 561.333 1267.13 561.759 1266.1 561.785Z" fill="#2D7D9A"/>
<path d="M1300.23 564.535C1299.23 563.537 1298.01 562.778 1296.67 562.315C1297.62 561.661 1298.34 560.718 1298.72 559.625C1299.1 558.532 1299.12 557.346 1298.78 556.24C1298.44 555.135 1297.75 554.168 1296.82 553.482C1295.89 552.795 1294.76 552.425 1293.61 552.425C1292.45 552.425 1291.32 552.795 1290.39 553.482C1289.46 554.168 1288.77 555.135 1288.43 556.24C1288.09 557.346 1288.11 558.532 1288.49 559.625C1288.87 560.718 1289.59 561.661 1290.54 562.315C1289.21 562.78 1288 563.538 1287 564.535C1286.13 565.401 1285.43 566.433 1284.96 567.569C1284.49 568.705 1284.25 569.924 1284.25 571.155H1285.72C1285.72 570.118 1285.92 569.09 1286.32 568.132C1286.72 567.173 1287.3 566.302 1288.03 565.569C1288.77 564.835 1289.64 564.253 1290.6 563.856C1291.56 563.459 1292.58 563.255 1293.62 563.255C1294.66 563.255 1295.68 563.459 1296.64 563.856C1297.6 564.253 1298.47 564.835 1299.21 565.569C1299.94 566.302 1300.52 567.173 1300.92 568.132C1301.32 569.09 1301.52 570.118 1301.52 571.155H1303C1303 569.923 1302.75 568.704 1302.28 567.568C1301.8 566.431 1301.11 565.401 1300.23 564.535V564.535ZM1293.61 561.785C1292.83 561.775 1292.07 561.535 1291.43 561.095C1290.79 560.655 1290.29 560.035 1290 559.312C1289.71 558.59 1289.63 557.797 1289.79 557.034C1289.95 556.271 1290.33 555.572 1290.88 555.025C1291.44 554.477 1292.14 554.106 1292.91 553.958C1293.67 553.809 1294.46 553.89 1295.18 554.191C1295.9 554.491 1296.52 554.997 1296.95 555.646C1297.38 556.294 1297.61 557.056 1297.61 557.835C1297.6 558.887 1297.17 559.892 1296.42 560.631C1295.67 561.37 1294.66 561.785 1293.61 561.785V561.785Z" fill="#2D7D9A"/>
<path d="M1148.47 365.27C1147.47 364.247 1146.25 363.47 1144.91 363C1145.86 362.347 1146.58 361.406 1146.96 360.315C1147.34 359.224 1147.36 358.04 1147.02 356.937C1146.67 355.833 1145.99 354.869 1145.06 354.183C1144.13 353.498 1143 353.128 1141.85 353.128C1140.69 353.128 1139.57 353.498 1138.64 354.183C1137.71 354.869 1137.02 355.833 1136.68 356.937C1136.34 358.04 1136.36 359.224 1136.74 360.315C1137.12 361.406 1137.84 362.347 1138.79 363C1136.95 363.636 1135.35 364.831 1134.22 366.417C1133.09 368.004 1132.49 369.903 1132.49 371.85H1134C1134 370.812 1134.2 369.785 1134.6 368.827C1135 367.868 1135.58 366.997 1136.31 366.264C1137.05 365.53 1137.92 364.948 1138.88 364.551C1139.83 364.154 1140.86 363.95 1141.9 363.95C1142.94 363.95 1143.96 364.154 1144.92 364.551C1145.88 364.948 1146.75 365.53 1147.48 366.264C1148.22 366.997 1148.8 367.868 1149.2 368.827C1149.59 369.785 1149.8 370.812 1149.8 371.85H1151.26C1151.25 370.623 1151 369.41 1150.52 368.281C1150.04 367.152 1149.34 366.128 1148.47 365.27V365.27ZM1141.85 362.53C1141.07 362.53 1140.31 362.299 1139.66 361.867C1139.01 361.436 1138.5 360.822 1138.2 360.103C1137.9 359.384 1137.82 358.592 1137.97 357.827C1138.12 357.063 1138.49 356.359 1139.04 355.804C1139.59 355.25 1140.28 354.87 1141.05 354.712C1141.81 354.554 1142.6 354.625 1143.33 354.916C1144.05 355.208 1144.67 355.706 1145.11 356.349C1145.55 356.992 1145.79 357.751 1145.8 358.53C1145.8 359.582 1145.38 360.592 1144.64 361.341C1143.91 362.089 1142.9 362.517 1141.85 362.53V362.53Z" fill="#2D7D9A"/>
<path d="M1134.72 372.22C1133.71 371.222 1132.5 370.463 1131.16 370C1132.11 369.343 1132.83 368.4 1133.2 367.307C1133.58 366.215 1133.6 365.03 1133.25 363.927C1132.91 362.824 1132.22 361.859 1131.29 361.174C1130.36 360.49 1129.23 360.12 1128.08 360.12C1126.92 360.12 1125.8 360.49 1124.87 361.174C1123.94 361.859 1123.25 362.824 1122.9 363.927C1122.56 365.03 1122.58 366.215 1122.96 367.307C1123.33 368.4 1124.05 369.343 1125 370C1123.66 370.469 1122.45 371.235 1121.45 372.24C1120.58 373.106 1119.88 374.138 1119.41 375.274C1118.94 376.41 1118.7 377.629 1118.7 378.86H1120.2C1120.16 377.8 1120.34 376.742 1120.72 375.752C1121.1 374.761 1121.67 373.857 1122.41 373.093C1123.15 372.329 1124.03 371.722 1125.01 371.307C1125.98 370.893 1127.03 370.679 1128.09 370.679C1129.16 370.679 1130.21 370.893 1131.18 371.307C1132.16 371.722 1133.04 372.329 1133.78 373.093C1134.52 373.857 1135.09 374.761 1135.47 375.752C1135.85 376.742 1136.03 377.8 1135.99 378.86H1137.46C1137.46 377.627 1137.22 376.405 1136.75 375.265C1136.28 374.126 1135.59 373.09 1134.72 372.22V372.22ZM1128.1 369.47C1127.32 369.48 1126.55 369.257 1125.89 368.829C1125.24 368.401 1124.72 367.787 1124.41 367.067C1124.11 366.346 1124.02 365.55 1124.17 364.78C1124.32 364.011 1124.69 363.302 1125.24 362.745C1125.79 362.188 1126.49 361.806 1127.26 361.65C1128.03 361.493 1128.82 361.569 1129.55 361.866C1130.27 362.164 1130.89 362.67 1131.33 363.32C1131.77 363.971 1132 364.737 1132 365.52C1131.99 366.555 1131.57 367.545 1130.85 368.282C1130.12 369.018 1129.13 369.444 1128.1 369.47Z" fill="#2D7D9A"/>
<path d="M1162.23 372.22C1161.23 371.222 1160.01 370.463 1158.67 370C1159.62 369.346 1160.34 368.403 1160.72 367.31C1161.1 366.217 1161.12 365.031 1160.78 363.925C1160.44 362.82 1159.75 361.853 1158.82 361.167C1157.89 360.48 1156.76 360.11 1155.61 360.11C1154.45 360.11 1153.32 360.48 1152.39 361.167C1151.46 361.853 1150.77 362.82 1150.43 363.925C1150.09 365.031 1150.11 366.217 1150.49 367.31C1150.87 368.403 1151.59 369.346 1152.54 370C1151.21 370.465 1150 371.224 1149 372.22C1148.13 373.086 1147.43 374.118 1146.96 375.254C1146.49 376.391 1146.25 377.609 1146.25 378.84H1147.72C1147.72 377.803 1147.92 376.775 1148.32 375.817C1148.72 374.858 1149.3 373.987 1150.03 373.254C1150.77 372.52 1151.64 371.938 1152.6 371.541C1153.56 371.144 1154.58 370.94 1155.62 370.94C1156.66 370.94 1157.68 371.144 1158.64 371.541C1159.6 371.938 1160.47 372.52 1161.21 373.254C1161.94 373.987 1162.52 374.858 1162.92 375.817C1163.32 376.775 1163.52 377.803 1163.52 378.84H1165C1165 377.608 1164.75 376.389 1164.28 375.253C1163.8 374.116 1163.11 373.086 1162.23 372.22V372.22ZM1155.61 369.47C1154.83 369.46 1154.07 369.22 1153.43 368.78C1152.79 368.34 1152.29 367.72 1152 366.997C1151.71 366.275 1151.63 365.482 1151.79 364.719C1151.95 363.956 1152.33 363.257 1152.88 362.71C1153.44 362.162 1154.14 361.791 1154.91 361.643C1155.67 361.494 1156.46 361.575 1157.18 361.876C1157.9 362.176 1158.52 362.682 1158.95 363.331C1159.38 363.979 1159.61 364.741 1159.61 365.52C1159.6 366.572 1159.17 367.577 1158.42 368.316C1157.67 369.056 1156.66 369.47 1155.61 369.47V369.47Z" fill="#2D7D9A"/>
<path d="M1355.47 304.27C1354.47 303.247 1353.25 302.47 1351.91 302C1352.86 301.347 1353.58 300.406 1353.96 299.315C1354.34 298.224 1354.36 297.04 1354.02 295.937C1353.67 294.833 1352.99 293.869 1352.06 293.183C1351.13 292.498 1350 292.128 1348.85 292.128C1347.69 292.128 1346.57 292.498 1345.64 293.183C1344.71 293.869 1344.02 294.833 1343.68 295.937C1343.34 297.04 1343.36 298.224 1343.74 299.315C1344.12 300.406 1344.84 301.347 1345.79 302C1343.95 302.636 1342.35 303.831 1341.22 305.417C1340.09 307.004 1339.49 308.903 1339.49 310.85H1341C1341 309.812 1341.2 308.785 1341.6 307.827C1342 306.868 1342.58 305.997 1343.31 305.264C1344.05 304.53 1344.92 303.948 1345.88 303.551C1346.83 303.154 1347.86 302.95 1348.9 302.95C1349.94 302.95 1350.96 303.154 1351.92 303.551C1352.88 303.948 1353.75 304.53 1354.48 305.264C1355.22 305.997 1355.8 306.868 1356.2 307.827C1356.59 308.785 1356.8 309.812 1356.8 310.85H1358.26C1358.25 309.623 1358 308.41 1357.52 307.281C1357.04 306.152 1356.34 305.128 1355.47 304.27V304.27ZM1348.85 301.53C1348.07 301.53 1347.31 301.299 1346.66 300.867C1346.01 300.436 1345.5 299.822 1345.2 299.103C1344.9 298.384 1344.82 297.592 1344.97 296.827C1345.12 296.063 1345.49 295.359 1346.04 294.804C1346.59 294.25 1347.28 293.87 1348.05 293.712C1348.81 293.554 1349.6 293.625 1350.33 293.916C1351.05 294.208 1351.67 294.706 1352.11 295.349C1352.55 295.992 1352.79 296.751 1352.8 297.53C1352.8 298.582 1352.38 299.592 1351.64 300.341C1350.91 301.089 1349.9 301.517 1348.85 301.53V301.53Z" fill="#2D7D9A"/>
<path d="M1341.72 311.22C1340.71 310.222 1339.5 309.463 1338.16 309C1339.11 308.343 1339.83 307.4 1340.2 306.307C1340.58 305.215 1340.6 304.03 1340.25 302.927C1339.91 301.824 1339.22 300.859 1338.29 300.174C1337.36 299.49 1336.23 299.12 1335.08 299.12C1333.92 299.12 1332.8 299.49 1331.87 300.174C1330.94 300.859 1330.25 301.824 1329.9 302.927C1329.56 304.03 1329.58 305.215 1329.96 306.307C1330.33 307.4 1331.05 308.343 1332 309C1330.66 309.469 1329.45 310.235 1328.45 311.24C1327.58 312.106 1326.88 313.138 1326.41 314.274C1325.94 315.41 1325.7 316.629 1325.7 317.86H1327.2C1327.16 316.8 1327.34 315.742 1327.72 314.752C1328.1 313.761 1328.67 312.857 1329.41 312.093C1330.15 311.329 1331.03 310.722 1332.01 310.307C1332.98 309.893 1334.03 309.679 1335.09 309.679C1336.16 309.679 1337.21 309.893 1338.18 310.307C1339.16 310.722 1340.04 311.329 1340.78 312.093C1341.52 312.857 1342.09 313.761 1342.47 314.752C1342.85 315.742 1343.03 316.8 1342.99 317.86H1344.46C1344.46 316.627 1344.22 315.405 1343.75 314.265C1343.28 313.126 1342.59 312.09 1341.72 311.22V311.22ZM1335.1 308.47C1334.32 308.48 1333.55 308.257 1332.89 307.829C1332.24 307.401 1331.72 306.787 1331.41 306.067C1331.11 305.346 1331.02 304.55 1331.17 303.78C1331.32 303.011 1331.69 302.302 1332.24 301.745C1332.79 301.188 1333.49 300.806 1334.26 300.65C1335.03 300.493 1335.82 300.569 1336.55 300.866C1337.27 301.164 1337.89 301.67 1338.33 302.32C1338.77 302.971 1339 303.737 1339 304.52C1338.99 305.555 1338.57 306.545 1337.85 307.282C1337.12 308.018 1336.13 308.444 1335.1 308.47Z" fill="#2D7D9A"/>
<path d="M1369.23 311.22C1368.23 310.222 1367.01 309.463 1365.67 309C1366.62 308.346 1367.34 307.403 1367.72 306.31C1368.1 305.217 1368.12 304.031 1367.78 302.925C1367.44 301.82 1366.75 300.853 1365.82 300.167C1364.89 299.48 1363.76 299.11 1362.61 299.11C1361.45 299.11 1360.32 299.48 1359.39 300.167C1358.46 300.853 1357.77 301.82 1357.43 302.925C1357.09 304.031 1357.11 305.217 1357.49 306.31C1357.87 307.403 1358.59 308.346 1359.54 309C1358.21 309.465 1357 310.224 1356 311.22C1355.13 312.086 1354.43 313.118 1353.96 314.254C1353.49 315.391 1353.25 316.609 1353.25 317.84H1354.72C1354.72 316.803 1354.92 315.775 1355.32 314.817C1355.72 313.858 1356.3 312.987 1357.03 312.254C1357.77 311.52 1358.64 310.938 1359.6 310.541C1360.56 310.144 1361.58 309.94 1362.62 309.94C1363.66 309.94 1364.68 310.144 1365.64 310.541C1366.6 310.938 1367.47 311.52 1368.21 312.254C1368.94 312.987 1369.52 313.858 1369.92 314.817C1370.32 315.775 1370.52 316.803 1370.52 317.84H1372C1372 316.608 1371.75 315.389 1371.28 314.253C1370.8 313.116 1370.11 312.086 1369.23 311.22V311.22ZM1362.61 308.47C1361.83 308.46 1361.07 308.22 1360.43 307.78C1359.79 307.34 1359.29 306.72 1359 305.997C1358.71 305.275 1358.63 304.482 1358.79 303.719C1358.95 302.956 1359.33 302.257 1359.88 301.71C1360.44 301.162 1361.14 300.791 1361.91 300.643C1362.67 300.494 1363.46 300.575 1364.18 300.876C1364.9 301.176 1365.52 301.682 1365.95 302.331C1366.38 302.979 1366.61 303.741 1366.61 304.52C1366.6 305.572 1366.17 306.577 1365.42 307.316C1364.67 308.056 1363.66 308.47 1362.61 308.47V308.47Z" fill="#2D7D9A"/>
<path d="M1679.47 352.27C1678.47 351.247 1677.25 350.47 1675.91 350C1676.86 349.347 1677.58 348.406 1677.96 347.315C1678.34 346.224 1678.36 345.04 1678.02 343.937C1677.67 342.833 1676.99 341.869 1676.06 341.183C1675.13 340.498 1674 340.128 1672.85 340.128C1671.69 340.128 1670.57 340.498 1669.64 341.183C1668.71 341.869 1668.02 342.833 1667.68 343.937C1667.34 345.04 1667.36 346.224 1667.74 347.315C1668.12 348.406 1668.84 349.347 1669.79 350C1667.95 350.636 1666.35 351.831 1665.22 353.417C1664.09 355.004 1663.49 356.903 1663.49 358.85H1665C1665 357.812 1665.2 356.785 1665.6 355.827C1666 354.868 1666.58 353.997 1667.31 353.264C1668.05 352.53 1668.92 351.948 1669.88 351.551C1670.83 351.154 1671.86 350.95 1672.9 350.95C1673.94 350.95 1674.96 351.154 1675.92 351.551C1676.88 351.948 1677.75 352.53 1678.48 353.264C1679.22 353.997 1679.8 354.868 1680.2 355.827C1680.59 356.785 1680.8 357.812 1680.8 358.85H1682.26C1682.25 357.623 1682 356.41 1681.52 355.281C1681.04 354.152 1680.34 353.128 1679.47 352.27V352.27ZM1672.85 349.53C1672.07 349.53 1671.31 349.299 1670.66 348.867C1670.01 348.436 1669.5 347.822 1669.2 347.103C1668.9 346.384 1668.82 345.592 1668.97 344.827C1669.12 344.063 1669.49 343.359 1670.04 342.804C1670.59 342.25 1671.28 341.87 1672.05 341.712C1672.81 341.554 1673.6 341.625 1674.33 341.916C1675.05 342.208 1675.67 342.706 1676.11 343.349C1676.55 343.992 1676.79 344.751 1676.8 345.53C1676.8 346.582 1676.38 347.592 1675.64 348.341C1674.91 349.089 1673.9 349.517 1672.85 349.53V349.53Z" fill="#2D7D9A"/>
<path d="M1665.72 359.22C1664.71 358.222 1663.5 357.463 1662.16 357C1663.11 356.343 1663.83 355.4 1664.2 354.307C1664.58 353.215 1664.6 352.03 1664.25 350.927C1663.91 349.824 1663.22 348.859 1662.29 348.174C1661.36 347.49 1660.23 347.12 1659.08 347.12C1657.92 347.12 1656.8 347.49 1655.87 348.174C1654.94 348.859 1654.25 349.824 1653.9 350.927C1653.56 352.03 1653.58 353.215 1653.96 354.307C1654.33 355.4 1655.05 356.343 1656 357C1654.66 357.469 1653.45 358.235 1652.45 359.24C1651.58 360.106 1650.88 361.138 1650.41 362.274C1649.94 363.41 1649.7 364.629 1649.7 365.86H1651.2C1651.16 364.8 1651.34 363.742 1651.72 362.752C1652.1 361.761 1652.67 360.857 1653.41 360.093C1654.15 359.329 1655.03 358.722 1656.01 358.307C1656.98 357.893 1658.03 357.679 1659.09 357.679C1660.16 357.679 1661.21 357.893 1662.18 358.307C1663.16 358.722 1664.04 359.329 1664.78 360.093C1665.52 360.857 1666.09 361.761 1666.47 362.752C1666.85 363.742 1667.03 364.8 1666.99 365.86H1668.46C1668.46 364.627 1668.22 363.405 1667.75 362.265C1667.28 361.126 1666.59 360.09 1665.72 359.22V359.22ZM1659.1 356.47C1658.32 356.48 1657.55 356.257 1656.89 355.829C1656.24 355.401 1655.72 354.787 1655.41 354.067C1655.11 353.346 1655.02 352.55 1655.17 351.78C1655.32 351.011 1655.69 350.302 1656.24 349.745C1656.79 349.188 1657.49 348.806 1658.26 348.65C1659.03 348.493 1659.82 348.569 1660.55 348.866C1661.27 349.164 1661.89 349.67 1662.33 350.32C1662.77 350.971 1663 351.737 1663 352.52C1662.99 353.555 1662.57 354.545 1661.85 355.282C1661.12 356.018 1660.13 356.444 1659.1 356.47Z" fill="#2D7D9A"/>
<path d="M1693.23 359.22C1692.23 358.222 1691.01 357.463 1689.67 357C1690.62 356.346 1691.34 355.403 1691.72 354.31C1692.1 353.217 1692.12 352.031 1691.78 350.925C1691.44 349.82 1690.75 348.853 1689.82 348.167C1688.89 347.48 1687.76 347.11 1686.61 347.11C1685.45 347.11 1684.32 347.48 1683.39 348.167C1682.46 348.853 1681.77 349.82 1681.43 350.925C1681.09 352.031 1681.11 353.217 1681.49 354.31C1681.87 355.403 1682.59 356.346 1683.54 357C1682.21 357.465 1681 358.224 1680 359.22C1679.13 360.086 1678.43 361.118 1677.96 362.254C1677.49 363.391 1677.25 364.609 1677.25 365.84H1678.72C1678.72 364.803 1678.92 363.775 1679.32 362.817C1679.72 361.858 1680.3 360.987 1681.03 360.254C1681.77 359.52 1682.64 358.938 1683.6 358.541C1684.56 358.144 1685.58 357.94 1686.62 357.94C1687.66 357.94 1688.68 358.144 1689.64 358.541C1690.6 358.938 1691.47 359.52 1692.21 360.254C1692.94 360.987 1693.52 361.858 1693.92 362.817C1694.32 363.775 1694.52 364.803 1694.52 365.84H1696C1696 364.608 1695.75 363.389 1695.28 362.253C1694.8 361.116 1694.11 360.086 1693.23 359.22V359.22ZM1686.61 356.47C1685.83 356.46 1685.07 356.22 1684.43 355.78C1683.79 355.34 1683.29 354.72 1683 353.997C1682.71 353.275 1682.63 352.482 1682.79 351.719C1682.95 350.956 1683.33 350.257 1683.88 349.71C1684.44 349.162 1685.14 348.791 1685.91 348.643C1686.67 348.494 1687.46 348.575 1688.18 348.876C1688.9 349.176 1689.52 349.682 1689.95 350.331C1690.38 350.979 1690.61 351.741 1690.61 352.52C1690.6 353.572 1690.17 354.577 1689.42 355.316C1688.67 356.056 1687.66 356.47 1686.61 356.47V356.47Z" fill="#2D7D9A"/>
<path d="M1840.47 317.27C1839.47 316.247 1838.25 315.47 1836.91 315C1837.86 314.347 1838.58 313.406 1838.96 312.315C1839.34 311.224 1839.36 310.04 1839.02 308.937C1838.67 307.833 1837.99 306.869 1837.06 306.183C1836.13 305.498 1835 305.128 1833.85 305.128C1832.69 305.128 1831.57 305.498 1830.64 306.183C1829.71 306.869 1829.02 307.833 1828.68 308.937C1828.34 310.04 1828.36 311.224 1828.74 312.315C1829.12 313.406 1829.84 314.347 1830.79 315C1828.95 315.636 1827.35 316.831 1826.22 318.417C1825.09 320.004 1824.49 321.903 1824.49 323.85H1826C1826 322.812 1826.2 321.785 1826.6 320.827C1827 319.868 1827.58 318.997 1828.31 318.264C1829.05 317.53 1829.92 316.948 1830.88 316.551C1831.83 316.154 1832.86 315.95 1833.9 315.95C1834.94 315.95 1835.96 316.154 1836.92 316.551C1837.88 316.948 1838.75 317.53 1839.48 318.264C1840.22 318.997 1840.8 319.868 1841.2 320.827C1841.59 321.785 1841.8 322.812 1841.8 323.85H1843.26C1843.25 322.623 1843 321.41 1842.52 320.281C1842.04 319.152 1841.34 318.128 1840.47 317.27V317.27ZM1833.85 314.53C1833.07 314.53 1832.31 314.299 1831.66 313.867C1831.01 313.436 1830.5 312.822 1830.2 312.103C1829.9 311.384 1829.82 310.592 1829.97 309.827C1830.12 309.063 1830.49 308.359 1831.04 307.804C1831.59 307.25 1832.28 306.87 1833.05 306.712C1833.81 306.554 1834.6 306.625 1835.33 306.916C1836.05 307.208 1836.67 307.706 1837.11 308.349C1837.55 308.992 1837.79 309.751 1837.8 310.53C1837.8 311.582 1837.38 312.592 1836.64 313.341C1835.91 314.089 1834.9 314.517 1833.85 314.53V314.53Z" fill="#2D7D9A"/>
<path d="M1826.72 324.22C1825.71 323.222 1824.5 322.463 1823.16 322C1824.11 321.343 1824.83 320.4 1825.2 319.307C1825.58 318.215 1825.6 317.03 1825.25 315.927C1824.91 314.824 1824.22 313.859 1823.29 313.174C1822.36 312.49 1821.23 312.12 1820.08 312.12C1818.92 312.12 1817.8 312.49 1816.87 313.174C1815.94 313.859 1815.25 314.824 1814.9 315.927C1814.56 317.03 1814.58 318.215 1814.96 319.307C1815.33 320.4 1816.05 321.343 1817 322C1815.66 322.469 1814.45 323.235 1813.45 324.24C1812.58 325.106 1811.88 326.138 1811.41 327.274C1810.94 328.41 1810.7 329.629 1810.7 330.86H1812.2C1812.16 329.8 1812.34 328.742 1812.72 327.752C1813.1 326.761 1813.67 325.857 1814.41 325.093C1815.15 324.329 1816.03 323.722 1817.01 323.307C1817.98 322.893 1819.03 322.679 1820.09 322.679C1821.16 322.679 1822.21 322.893 1823.18 323.307C1824.16 323.722 1825.04 324.329 1825.78 325.093C1826.52 325.857 1827.09 326.761 1827.47 327.752C1827.85 328.742 1828.03 329.8 1827.99 330.86H1829.46C1829.46 329.627 1829.22 328.405 1828.75 327.265C1828.28 326.126 1827.59 325.09 1826.72 324.22V324.22ZM1820.1 321.47C1819.32 321.48 1818.55 321.257 1817.89 320.829C1817.24 320.401 1816.72 319.787 1816.41 319.067C1816.11 318.346 1816.02 317.55 1816.17 316.78C1816.32 316.011 1816.69 315.302 1817.24 314.745C1817.79 314.188 1818.49 313.806 1819.26 313.65C1820.03 313.493 1820.82 313.569 1821.55 313.866C1822.27 314.164 1822.89 314.67 1823.33 315.32C1823.77 315.971 1824 316.737 1824 317.52C1823.99 318.555 1823.57 319.545 1822.85 320.282C1822.12 321.018 1821.13 321.444 1820.1 321.47Z" fill="#2D7D9A"/>
<path d="M1854.23 324.22C1853.23 323.222 1852.01 322.463 1850.67 322C1851.62 321.346 1852.34 320.403 1852.72 319.31C1853.1 318.217 1853.12 317.031 1852.78 315.925C1852.44 314.82 1851.75 313.853 1850.82 313.167C1849.89 312.48 1848.76 312.11 1847.61 312.11C1846.45 312.11 1845.32 312.48 1844.39 313.167C1843.46 313.853 1842.77 314.82 1842.43 315.925C1842.09 317.031 1842.11 318.217 1842.49 319.31C1842.87 320.403 1843.59 321.346 1844.54 322C1843.21 322.465 1842 323.224 1841 324.22C1840.13 325.086 1839.43 326.118 1838.96 327.254C1838.49 328.391 1838.25 329.609 1838.25 330.84H1839.72C1839.72 329.803 1839.92 328.775 1840.32 327.817C1840.72 326.858 1841.3 325.987 1842.03 325.254C1842.77 324.52 1843.64 323.938 1844.6 323.541C1845.56 323.144 1846.58 322.94 1847.62 322.94C1848.66 322.94 1849.68 323.144 1850.64 323.541C1851.6 323.938 1852.47 324.52 1853.21 325.254C1853.94 325.987 1854.52 326.858 1854.92 327.817C1855.32 328.775 1855.52 329.803 1855.52 330.84H1857C1857 329.608 1856.75 328.389 1856.28 327.253C1855.8 326.116 1855.11 325.086 1854.23 324.22V324.22ZM1847.61 321.47C1846.83 321.46 1846.07 321.22 1845.43 320.78C1844.79 320.34 1844.29 319.72 1844 318.997C1843.71 318.275 1843.63 317.482 1843.79 316.719C1843.95 315.956 1844.33 315.257 1844.88 314.71C1845.44 314.162 1846.14 313.791 1846.91 313.643C1847.67 313.494 1848.46 313.575 1849.18 313.876C1849.9 314.176 1850.52 314.682 1850.95 315.331C1851.38 315.979 1851.61 316.741 1851.61 317.52C1851.6 318.572 1851.17 319.577 1850.42 320.316C1849.67 321.056 1848.66 321.47 1847.61 321.47V321.47Z" fill="#2D7D9A"/>
<g clip-path="url(#clip1)">
<path d="M1001.73 220.745C1000.73 219.723 999.513 218.945 998.166 218.475C999.119 217.822 999.837 216.881 1000.22 215.79C1000.6 214.699 1000.62 213.515 1000.27 212.412C999.932 211.308 999.245 210.344 998.316 209.658C997.386 208.973 996.261 208.604 995.106 208.604C993.951 208.604 992.826 208.973 991.897 209.658C990.967 210.344 990.281 211.308 989.939 212.412C989.597 213.515 989.617 214.699 989.996 215.79C990.375 216.881 991.094 217.822 992.046 218.475C990.206 219.112 988.61 220.306 987.481 221.892C986.352 223.479 985.745 225.378 985.746 227.325H987.256C987.256 226.288 987.46 225.26 987.857 224.302C988.254 223.343 988.836 222.472 989.57 221.739C990.304 221.005 991.174 220.423 992.133 220.026C993.091 219.629 994.119 219.425 995.156 219.425C996.194 219.425 997.221 219.629 998.179 220.026C999.138 220.423 1000.01 221.005 1000.74 221.739C1001.48 222.472 1002.06 223.343 1002.45 224.302C1002.85 225.26 1003.06 226.288 1003.06 227.325H1004.52C1004.51 226.098 1004.26 224.886 1003.78 223.756C1003.3 222.627 1002.6 221.604 1001.73 220.745V220.745ZM995.106 218.005C994.327 218.005 993.565 217.774 992.917 217.343C992.268 216.911 991.762 216.297 991.462 215.578C991.161 214.859 991.08 214.067 991.229 213.303C991.377 212.538 991.748 211.834 992.296 211.28C992.843 210.725 993.542 210.345 994.305 210.187C995.068 210.029 995.861 210.1 996.583 210.391C997.306 210.683 997.926 211.181 998.366 211.824C998.806 212.467 999.046 213.226 999.056 214.005C999.056 215.057 998.642 216.067 997.902 216.816C997.163 217.565 996.158 217.992 995.106 218.005V218.005Z" fill="#2D7D9A"/>
<path d="M987.977 227.695C986.972 226.697 985.756 225.938 984.417 225.475C985.368 224.818 986.084 223.875 986.461 222.782C986.838 221.69 986.855 220.505 986.511 219.402C986.167 218.299 985.48 217.334 984.549 216.649C983.618 215.965 982.493 215.595 981.337 215.595C980.181 215.595 979.056 215.965 978.125 216.649C977.194 217.334 976.507 218.299 976.163 219.402C975.819 220.505 975.836 221.69 976.213 222.782C976.59 223.875 977.306 224.818 978.257 225.475C976.92 225.944 975.706 226.71 974.707 227.715C973.833 228.581 973.14 229.613 972.668 230.749C972.196 231.886 971.954 233.104 971.957 234.335H973.457C973.419 233.275 973.596 232.217 973.975 231.227C974.355 230.236 974.931 229.332 975.667 228.568C976.404 227.805 977.287 227.197 978.264 226.783C979.241 226.368 980.291 226.154 981.352 226.154C982.413 226.154 983.463 226.368 984.44 226.783C985.417 227.197 986.3 227.805 987.037 228.568C987.774 229.332 988.349 230.236 988.729 231.227C989.109 232.217 989.285 233.275 989.247 234.335H990.717C990.722 233.102 990.483 231.88 990.012 230.74C989.542 229.601 988.85 228.566 987.977 227.695V227.695ZM981.357 224.945C980.574 224.955 979.805 224.732 979.149 224.304C978.493 223.876 977.979 223.262 977.672 222.542C977.366 221.821 977.28 221.025 977.427 220.256C977.574 219.486 977.946 218.778 978.496 218.22C979.047 217.663 979.75 217.281 980.518 217.125C981.285 216.968 982.082 217.044 982.807 217.341C983.532 217.639 984.151 218.145 984.588 218.795C985.024 219.446 985.257 220.212 985.257 220.995C985.244 222.03 984.831 223.02 984.104 223.757C983.376 224.493 982.392 224.919 981.357 224.945Z" fill="#2D7D9A"/>
<path d="M1015.49 227.695C1014.48 226.697 1013.27 225.938 1011.93 225.475C1012.88 224.821 1013.6 223.878 1013.98 222.785C1014.36 221.692 1014.38 220.506 1014.04 219.401C1013.7 218.295 1013.01 217.328 1012.08 216.642C1011.15 215.955 1010.02 215.585 1008.86 215.585C1007.71 215.585 1006.58 215.955 1005.65 216.642C1004.72 217.328 1004.03 218.295 1003.69 219.401C1003.34 220.506 1003.36 221.692 1003.74 222.785C1004.12 223.878 1004.84 224.821 1005.8 225.475C1004.47 225.94 1003.26 226.699 1002.26 227.695C1001.38 228.561 1000.69 229.593 1000.22 230.729C999.747 231.866 999.505 233.085 999.508 234.315H1000.98C1000.98 233.278 1001.18 232.25 1001.58 231.292C1001.98 230.333 1002.56 229.463 1003.29 228.729C1004.03 227.995 1004.9 227.413 1005.85 227.016C1006.81 226.619 1007.84 226.415 1008.88 226.415C1009.92 226.415 1010.94 226.619 1011.9 227.016C1012.86 227.413 1013.73 227.995 1014.46 228.729C1015.2 229.463 1015.78 230.333 1016.18 231.292C1016.57 232.25 1016.78 233.278 1016.78 234.315H1018.26C1018.26 233.083 1018.01 231.864 1017.54 230.728C1017.06 229.592 1016.36 228.561 1015.49 227.695V227.695ZM1008.87 224.945C1008.09 224.935 1007.33 224.695 1006.69 224.255C1006.04 223.815 1005.55 223.195 1005.25 222.472C1004.96 221.75 1004.89 220.957 1005.05 220.194C1005.21 219.431 1005.59 218.732 1006.14 218.185C1006.7 217.637 1007.4 217.266 1008.17 217.118C1008.93 216.969 1009.72 217.05 1010.44 217.351C1011.16 217.651 1011.77 218.157 1012.21 218.806C1012.64 219.454 1012.87 220.216 1012.87 220.995C1012.85 222.047 1012.43 223.052 1011.68 223.791C1010.93 224.531 1009.92 224.945 1008.87 224.945V224.945Z" fill="#2D7D9A"/>
</g>
<g clip-path="url(#clip2)">
<path d="M996.718 650.131C995.724 649.108 994.505 648.331 993.158 647.861C994.111 647.207 994.829 646.266 995.208 645.175C995.588 644.084 995.608 642.901 995.266 641.797C994.924 640.694 994.238 639.729 993.308 639.044C992.378 638.359 991.253 637.989 990.098 637.989C988.943 637.989 987.819 638.359 986.889 639.044C985.959 639.729 985.273 640.694 984.931 641.797C984.589 642.901 984.609 644.084 984.988 645.175C985.367 646.266 986.086 647.207 987.038 647.861C985.198 648.497 983.602 649.692 982.473 651.278C981.344 652.865 980.737 654.764 980.738 656.711H982.248C982.248 655.673 982.453 654.646 982.85 653.688C983.247 652.729 983.829 651.858 984.562 651.125C985.296 650.391 986.167 649.809 987.125 649.412C988.084 649.015 989.111 648.811 990.148 648.811C991.186 648.811 992.213 649.015 993.171 649.412C994.13 649.809 995.001 650.391 995.734 651.125C996.468 651.858 997.05 652.729 997.447 653.688C997.844 654.646 998.048 655.673 998.048 656.711H999.508C999.5 655.484 999.249 654.271 998.771 653.142C998.292 652.013 997.594 650.989 996.718 650.131V650.131ZM990.098 647.391C989.319 647.391 988.558 647.16 987.909 646.728C987.261 646.296 986.754 645.682 986.454 644.964C986.154 644.245 986.073 643.453 986.221 642.688C986.369 641.923 986.741 641.22 987.288 640.665C987.835 640.111 988.535 639.731 989.297 639.573C990.06 639.415 990.853 639.486 991.576 639.777C992.298 640.069 992.918 640.567 993.358 641.21C993.798 641.853 994.038 642.612 994.048 643.391C994.048 644.443 993.634 645.453 992.894 646.202C992.155 646.95 991.15 647.378 990.098 647.391V647.391Z" fill="#2D7D9A"/>
<path d="M982.969 657.08C981.965 656.082 980.748 655.323 979.409 654.86C980.36 654.204 981.076 653.26 981.453 652.168C981.83 651.075 981.848 649.891 981.504 648.787C981.16 647.684 980.472 646.72 979.541 646.035C978.61 645.35 977.485 644.98 976.329 644.98C975.174 644.98 974.048 645.35 973.117 646.035C972.186 646.72 971.499 647.684 971.155 648.787C970.811 649.891 970.829 651.075 971.205 652.168C971.582 653.26 972.298 654.204 973.249 654.86C971.912 655.33 970.698 656.095 969.699 657.1C968.825 657.967 968.132 658.998 967.66 660.134C967.188 661.271 966.946 662.49 966.949 663.72H968.449C968.411 662.66 968.588 661.603 968.968 660.612C969.347 659.621 969.923 658.717 970.66 657.953C971.396 657.19 972.28 656.583 973.256 656.168C974.233 655.753 975.283 655.539 976.344 655.539C977.405 655.539 978.456 655.753 979.432 656.168C980.409 656.583 981.292 657.19 982.029 657.953C982.766 658.717 983.341 659.621 983.721 660.612C984.101 661.603 984.277 662.66 984.239 663.72H985.709C985.714 662.487 985.475 661.266 985.005 660.126C984.534 658.986 983.842 657.951 982.969 657.08V657.08ZM976.349 654.33C975.566 654.34 974.797 654.117 974.141 653.689C973.485 653.261 972.971 652.648 972.664 651.927C972.358 651.206 972.272 650.41 972.419 649.641C972.566 648.871 972.938 648.163 973.488 647.605C974.039 647.048 974.743 646.667 975.51 646.51C976.278 646.354 977.074 646.429 977.799 646.726C978.524 647.024 979.144 647.53 979.58 648.181C980.016 648.831 980.249 649.597 980.249 650.38C980.237 651.415 979.823 652.405 979.096 653.142C978.369 653.879 977.384 654.304 976.349 654.33Z" fill="#2D7D9A"/>
<path d="M1010.48 657.08C1009.48 656.082 1008.26 655.323 1006.92 654.86C1007.87 654.205 1008.59 653.263 1008.97 652.17C1009.35 651.077 1009.37 649.891 1009.03 648.785C1008.69 647.68 1008 646.713 1007.07 646.027C1006.14 645.34 1005.01 644.97 1003.86 644.97C1002.7 644.97 1001.57 645.34 1000.64 646.027C999.708 646.713 999.02 647.68 998.678 648.785C998.335 649.891 998.356 651.077 998.736 652.17C999.116 653.263 999.836 654.205 1000.79 654.86C999.458 655.325 998.248 656.083 997.25 657.08C996.376 657.946 995.683 658.978 995.211 660.114C994.739 661.25 994.497 662.469 994.5 663.7H995.97C995.97 662.662 996.174 661.635 996.571 660.677C996.968 659.718 997.55 658.847 998.284 658.114C999.017 657.38 999.888 656.798 1000.85 656.401C1001.81 656.004 1002.83 655.8 1003.87 655.8C1004.91 655.8 1005.93 656.004 1006.89 656.401C1007.85 656.798 1008.72 657.38 1009.46 658.114C1010.19 658.847 1010.77 659.718 1011.17 660.677C1011.57 661.635 1011.77 662.662 1011.77 663.7H1013.25C1013.25 662.468 1013 661.249 1012.53 660.113C1012.05 658.976 1011.36 657.946 1010.48 657.08V657.08ZM1003.86 654.33C1003.08 654.32 1002.32 654.08 1001.68 653.64C1001.04 653.2 1000.54 652.58 1000.25 651.857C999.955 651.135 999.884 650.342 1000.04 649.579C1000.2 648.816 1000.58 648.117 1001.13 647.57C1001.69 647.022 1002.39 646.651 1003.16 646.503C1003.92 646.354 1004.71 646.435 1005.43 646.736C1006.15 647.036 1006.77 647.542 1007.2 648.191C1007.63 648.839 1007.86 649.601 1007.86 650.38C1007.85 651.432 1007.42 652.437 1006.67 653.176C1005.92 653.915 1004.91 654.33 1003.86 654.33V654.33Z" fill="#2D7D9A"/>
</g>
<path d="M1527.47 567.27C1526.47 566.247 1525.25 565.47 1523.91 565C1524.86 564.347 1525.58 563.406 1525.96 562.315C1526.34 561.224 1526.36 560.04 1526.02 558.937C1525.67 557.833 1524.99 556.869 1524.06 556.183C1523.13 555.498 1522 555.128 1520.85 555.128C1519.69 555.128 1518.57 555.498 1517.64 556.183C1516.71 556.869 1516.02 557.833 1515.68 558.937C1515.34 560.04 1515.36 561.224 1515.74 562.315C1516.12 563.406 1516.84 564.347 1517.79 565C1515.95 565.636 1514.35 566.831 1513.22 568.417C1512.09 570.004 1511.49 571.903 1511.49 573.85H1513C1513 572.812 1513.2 571.785 1513.6 570.827C1514 569.868 1514.58 568.997 1515.31 568.264C1516.05 567.53 1516.92 566.948 1517.88 566.551C1518.83 566.154 1519.86 565.95 1520.9 565.95C1521.94 565.95 1522.96 566.154 1523.92 566.551C1524.88 566.948 1525.75 567.53 1526.48 568.264C1527.22 568.997 1527.8 569.868 1528.2 570.827C1528.59 571.785 1528.8 572.812 1528.8 573.85H1530.26C1530.25 572.623 1530 571.41 1529.52 570.281C1529.04 569.152 1528.34 568.128 1527.47 567.27V567.27ZM1520.85 564.53C1520.07 564.53 1519.31 564.299 1518.66 563.867C1518.01 563.436 1517.5 562.822 1517.2 562.103C1516.9 561.384 1516.82 560.592 1516.97 559.827C1517.12 559.063 1517.49 558.359 1518.04 557.804C1518.59 557.25 1519.28 556.87 1520.05 556.712C1520.81 556.554 1521.6 556.625 1522.33 556.916C1523.05 557.208 1523.67 557.706 1524.11 558.349C1524.55 558.992 1524.79 559.751 1524.8 560.53C1524.8 561.582 1524.38 562.592 1523.64 563.341C1522.91 564.089 1521.9 564.517 1520.85 564.53V564.53Z" fill="#2D7D9A"/>
<path d="M1513.72 574.22C1512.71 573.222 1511.5 572.463 1510.16 572C1511.11 571.343 1511.83 570.4 1512.2 569.307C1512.58 568.215 1512.6 567.03 1512.25 565.927C1511.91 564.824 1511.22 563.859 1510.29 563.174C1509.36 562.49 1508.23 562.12 1507.08 562.12C1505.92 562.12 1504.8 562.49 1503.87 563.174C1502.94 563.859 1502.25 564.824 1501.9 565.927C1501.56 567.03 1501.58 568.215 1501.96 569.307C1502.33 570.4 1503.05 571.343 1504 572C1502.66 572.469 1501.45 573.235 1500.45 574.24C1499.58 575.106 1498.88 576.138 1498.41 577.274C1497.94 578.41 1497.7 579.629 1497.7 580.86H1499.2C1499.16 579.8 1499.34 578.742 1499.72 577.752C1500.1 576.761 1500.67 575.857 1501.41 575.093C1502.15 574.329 1503.03 573.722 1504.01 573.307C1504.98 572.893 1506.03 572.679 1507.09 572.679C1508.16 572.679 1509.21 572.893 1510.18 573.307C1511.16 573.722 1512.04 574.329 1512.78 575.093C1513.52 575.857 1514.09 576.761 1514.47 577.752C1514.85 578.742 1515.03 579.8 1514.99 580.86H1516.46C1516.46 579.627 1516.22 578.405 1515.75 577.265C1515.28 576.126 1514.59 575.09 1513.72 574.22V574.22ZM1507.1 571.47C1506.32 571.48 1505.55 571.257 1504.89 570.829C1504.24 570.401 1503.72 569.787 1503.41 569.067C1503.11 568.346 1503.02 567.55 1503.17 566.78C1503.32 566.011 1503.69 565.302 1504.24 564.745C1504.79 564.188 1505.49 563.806 1506.26 563.65C1507.03 563.493 1507.82 563.569 1508.55 563.866C1509.27 564.164 1509.89 564.67 1510.33 565.32C1510.77 565.971 1511 566.737 1511 567.52C1510.99 568.555 1510.57 569.545 1509.85 570.282C1509.12 571.018 1508.13 571.444 1507.1 571.47Z" fill="#2D7D9A"/>
<path d="M1541.23 574.22C1540.23 573.222 1539.01 572.463 1537.67 572C1538.62 571.346 1539.34 570.403 1539.72 569.31C1540.1 568.217 1540.12 567.031 1539.78 565.925C1539.44 564.82 1538.75 563.853 1537.82 563.167C1536.89 562.48 1535.76 562.11 1534.61 562.11C1533.45 562.11 1532.32 562.48 1531.39 563.167C1530.46 563.853 1529.77 564.82 1529.43 565.925C1529.09 567.031 1529.11 568.217 1529.49 569.31C1529.87 570.403 1530.59 571.346 1531.54 572C1530.21 572.465 1529 573.224 1528 574.22C1527.13 575.086 1526.43 576.118 1525.96 577.254C1525.49 578.391 1525.25 579.609 1525.25 580.84H1526.72C1526.72 579.803 1526.92 578.775 1527.32 577.817C1527.72 576.858 1528.3 575.987 1529.03 575.254C1529.77 574.52 1530.64 573.938 1531.6 573.541C1532.56 573.144 1533.58 572.94 1534.62 572.94C1535.66 572.94 1536.68 573.144 1537.64 573.541C1538.6 573.938 1539.47 574.52 1540.21 575.254C1540.94 575.987 1541.52 576.858 1541.92 577.817C1542.32 578.775 1542.52 579.803 1542.52 580.84H1544C1544 579.608 1543.75 578.389 1543.28 577.253C1542.8 576.116 1542.11 575.086 1541.23 574.22V574.22ZM1534.61 571.47C1533.83 571.46 1533.07 571.22 1532.43 570.78C1531.79 570.34 1531.29 569.72 1531 568.997C1530.71 568.275 1530.63 567.482 1530.79 566.719C1530.95 565.956 1531.33 565.257 1531.88 564.71C1532.44 564.162 1533.14 563.791 1533.91 563.643C1534.67 563.494 1535.46 563.575 1536.18 563.876C1536.9 564.176 1537.52 564.682 1537.95 565.331C1538.38 565.979 1538.61 566.741 1538.61 567.52C1538.6 568.572 1538.17 569.577 1537.42 570.316C1536.67 571.056 1535.66 571.47 1534.61 571.47V571.47Z" fill="#2D7D9A"/>
<g clip-path="url(#clip3)">
<path d="M1821.72 530.11C1820.72 529.087 1819.5 528.31 1818.16 527.84C1819.11 527.186 1819.83 526.245 1820.21 525.154C1820.59 524.063 1820.61 522.88 1820.27 521.776C1819.92 520.673 1819.24 519.708 1818.31 519.023C1817.38 518.338 1816.25 517.968 1815.1 517.968C1813.94 517.968 1812.82 518.338 1811.89 519.023C1810.96 519.708 1810.27 520.673 1809.93 521.776C1809.59 522.88 1809.61 524.063 1809.99 525.154C1810.37 526.245 1811.09 527.186 1812.04 527.84C1810.2 528.476 1808.6 529.671 1807.47 531.257C1806.34 532.844 1805.74 534.743 1805.74 536.69H1807.25C1807.25 535.652 1807.45 534.625 1807.85 533.667C1808.25 532.708 1808.83 531.837 1809.56 531.104C1810.3 530.37 1811.17 529.788 1812.13 529.391C1813.08 528.994 1814.11 528.79 1815.15 528.79C1816.19 528.79 1817.21 528.994 1818.17 529.391C1819.13 529.788 1820 530.37 1820.73 531.104C1821.47 531.837 1822.05 532.708 1822.45 533.667C1822.84 534.625 1823.05 535.652 1823.05 536.69H1824.51C1824.5 535.463 1824.25 534.25 1823.77 533.121C1823.29 531.992 1822.59 530.968 1821.72 530.11V530.11ZM1815.1 527.37C1814.32 527.37 1813.56 527.139 1812.91 526.707C1812.26 526.275 1811.75 525.661 1811.45 524.943C1811.15 524.224 1811.07 523.432 1811.22 522.667C1811.37 521.902 1811.74 521.199 1812.29 520.644C1812.84 520.09 1813.53 519.71 1814.3 519.552C1815.06 519.394 1815.85 519.465 1816.58 519.756C1817.3 520.048 1817.92 520.546 1818.36 521.189C1818.8 521.832 1819.04 522.591 1819.05 523.37C1819.05 524.422 1818.63 525.432 1817.89 526.181C1817.16 526.929 1816.15 527.357 1815.1 527.37V527.37Z" fill="#2D7D9A"/>
<path d="M1807.97 537.06C1806.96 536.062 1805.75 535.303 1804.41 534.84C1805.36 534.183 1806.08 533.24 1806.45 532.147C1806.83 531.055 1806.85 529.87 1806.5 528.767C1806.16 527.664 1805.47 526.699 1804.54 526.014C1803.61 525.329 1802.48 524.96 1801.33 524.96C1800.17 524.96 1799.05 525.329 1798.12 526.014C1797.19 526.699 1796.5 527.664 1796.15 528.767C1795.81 529.87 1795.83 531.055 1796.21 532.147C1796.58 533.24 1797.3 534.183 1798.25 534.84C1796.91 535.309 1795.7 536.075 1794.7 537.08C1793.83 537.946 1793.13 538.977 1792.66 540.114C1792.19 541.25 1791.95 542.469 1791.95 543.7H1793.45C1793.41 542.639 1793.59 541.582 1793.97 540.591C1794.35 539.601 1794.92 538.696 1795.66 537.933C1796.4 537.169 1797.28 536.562 1798.26 536.147C1799.23 535.733 1800.28 535.519 1801.34 535.519C1802.41 535.519 1803.46 535.733 1804.43 536.147C1805.41 536.562 1806.29 537.169 1807.03 537.933C1807.77 538.696 1808.34 539.601 1808.72 540.591C1809.1 541.582 1809.28 542.639 1809.24 543.7H1810.71C1810.71 542.467 1810.47 541.245 1810 540.105C1809.53 538.965 1808.84 537.93 1807.97 537.06V537.06ZM1801.35 534.31C1800.57 534.32 1799.8 534.096 1799.14 533.669C1798.49 533.241 1797.97 532.627 1797.66 531.906C1797.36 531.186 1797.27 530.39 1797.42 529.62C1797.57 528.851 1797.94 528.142 1798.49 527.585C1799.04 527.027 1799.74 526.646 1800.51 526.49C1801.28 526.333 1802.07 526.408 1802.8 526.706C1803.52 527.003 1804.14 527.51 1804.58 528.16C1805.02 528.811 1805.25 529.576 1805.25 530.36C1805.24 531.395 1804.82 532.385 1804.1 533.121C1803.37 533.858 1802.38 534.284 1801.35 534.31Z" fill="#2D7D9A"/>
<path d="M1835.48 537.06C1834.48 536.062 1833.26 535.303 1831.92 534.84C1832.87 534.185 1833.59 533.243 1833.97 532.15C1834.35 531.057 1834.37 529.871 1834.03 528.765C1833.69 527.66 1833 526.693 1832.07 526.007C1831.14 525.32 1830.01 524.95 1828.86 524.95C1827.7 524.95 1826.57 525.32 1825.64 526.007C1824.71 526.693 1824.02 527.66 1823.68 528.765C1823.34 529.871 1823.36 531.057 1823.74 532.15C1824.12 533.243 1824.84 534.185 1825.79 534.84C1824.46 535.305 1823.25 536.063 1822.25 537.06C1821.38 537.926 1820.68 538.957 1820.21 540.094C1819.74 541.23 1819.5 542.449 1819.5 543.68H1820.97C1820.97 542.642 1821.17 541.615 1821.57 540.657C1821.97 539.698 1822.55 538.827 1823.28 538.094C1824.02 537.36 1824.89 536.778 1825.85 536.381C1826.81 535.984 1827.83 535.78 1828.87 535.78C1829.91 535.78 1830.93 535.984 1831.89 536.381C1832.85 536.778 1833.72 537.36 1834.46 538.094C1835.19 538.827 1835.77 539.698 1836.17 540.657C1836.57 541.615 1836.77 542.642 1836.77 543.68H1838.25C1838.25 542.448 1838 541.229 1837.53 540.093C1837.05 538.956 1836.36 537.926 1835.48 537.06V537.06ZM1828.86 534.31C1828.08 534.3 1827.32 534.06 1826.68 533.62C1826.04 533.18 1825.54 532.56 1825.25 531.837C1824.96 531.115 1824.88 530.322 1825.04 529.559C1825.2 528.796 1825.58 528.097 1826.13 527.55C1826.69 527.002 1827.39 526.631 1828.16 526.482C1828.92 526.334 1829.71 526.415 1830.43 526.716C1831.15 527.016 1831.77 527.522 1832.2 528.171C1832.63 528.819 1832.86 529.581 1832.86 530.36C1832.85 531.412 1832.42 532.417 1831.67 533.156C1830.92 533.895 1829.91 534.31 1828.86 534.31V534.31Z" fill="#2D7D9A"/>
</g>
<path d="M1177.47 447.27C1176.47 446.247 1175.25 445.47 1173.91 445C1174.86 444.347 1175.58 443.406 1175.96 442.315C1176.34 441.224 1176.36 440.04 1176.02 438.937C1175.67 437.833 1174.99 436.869 1174.06 436.183C1173.13 435.498 1172 435.128 1170.85 435.128C1169.69 435.128 1168.57 435.498 1167.64 436.183C1166.71 436.869 1166.02 437.833 1165.68 438.937C1165.34 440.04 1165.36 441.224 1165.74 442.315C1166.12 443.406 1166.84 444.347 1167.79 445C1165.95 445.636 1164.35 446.831 1163.22 448.417C1162.09 450.004 1161.49 451.903 1161.49 453.85H1163C1163 452.812 1163.2 451.785 1163.6 450.827C1164 449.868 1164.58 448.997 1165.31 448.264C1166.05 447.53 1166.92 446.948 1167.88 446.551C1168.83 446.154 1169.86 445.95 1170.9 445.95C1171.94 445.95 1172.96 446.154 1173.92 446.551C1174.88 446.948 1175.75 447.53 1176.48 448.264C1177.22 448.997 1177.8 449.868 1178.2 450.827C1178.59 451.785 1178.8 452.812 1178.8 453.85H1180.26C1180.25 452.623 1180 451.41 1179.52 450.281C1179.04 449.152 1178.34 448.128 1177.47 447.27V447.27ZM1170.85 444.53C1170.07 444.53 1169.31 444.299 1168.66 443.867C1168.01 443.436 1167.5 442.822 1167.2 442.103C1166.9 441.384 1166.82 440.592 1166.97 439.827C1167.12 439.063 1167.49 438.359 1168.04 437.804C1168.59 437.25 1169.28 436.87 1170.05 436.712C1170.81 436.554 1171.6 436.625 1172.33 436.916C1173.05 437.208 1173.67 437.706 1174.11 438.349C1174.55 438.992 1174.79 439.751 1174.8 440.53C1174.8 441.582 1174.38 442.592 1173.64 443.341C1172.91 444.089 1171.9 444.517 1170.85 444.53V444.53Z" fill="#2D7D9A"/>
<path d="M1163.72 454.22C1162.71 453.222 1161.5 452.463 1160.16 452C1161.11 451.343 1161.83 450.4 1162.2 449.307C1162.58 448.215 1162.6 447.03 1162.25 445.927C1161.91 444.824 1161.22 443.859 1160.29 443.174C1159.36 442.49 1158.23 442.12 1157.08 442.12C1155.92 442.12 1154.8 442.49 1153.87 443.174C1152.94 443.859 1152.25 444.824 1151.9 445.927C1151.56 447.03 1151.58 448.215 1151.96 449.307C1152.33 450.4 1153.05 451.343 1154 452C1152.66 452.469 1151.45 453.235 1150.45 454.24C1149.58 455.106 1148.88 456.138 1148.41 457.274C1147.94 458.41 1147.7 459.629 1147.7 460.86H1149.2C1149.16 459.8 1149.34 458.742 1149.72 457.752C1150.1 456.761 1150.67 455.857 1151.41 455.093C1152.15 454.329 1153.03 453.722 1154.01 453.307C1154.98 452.893 1156.03 452.679 1157.09 452.679C1158.16 452.679 1159.21 452.893 1160.18 453.307C1161.16 453.722 1162.04 454.329 1162.78 455.093C1163.52 455.857 1164.09 456.761 1164.47 457.752C1164.85 458.742 1165.03 459.8 1164.99 460.86H1166.46C1166.46 459.627 1166.22 458.405 1165.75 457.265C1165.28 456.126 1164.59 455.09 1163.72 454.22V454.22ZM1157.1 451.47C1156.32 451.48 1155.55 451.257 1154.89 450.829C1154.24 450.401 1153.72 449.787 1153.41 449.067C1153.11 448.346 1153.02 447.55 1153.17 446.78C1153.32 446.011 1153.69 445.302 1154.24 444.745C1154.79 444.188 1155.49 443.806 1156.26 443.65C1157.03 443.493 1157.82 443.569 1158.55 443.866C1159.27 444.164 1159.89 444.67 1160.33 445.32C1160.77 445.971 1161 446.737 1161 447.52C1160.99 448.555 1160.57 449.545 1159.85 450.282C1159.12 451.018 1158.13 451.444 1157.1 451.47Z" fill="#2D7D9A"/>
<path d="M1191.23 454.22C1190.23 453.222 1189.01 452.463 1187.67 452C1188.62 451.346 1189.34 450.403 1189.72 449.31C1190.1 448.217 1190.12 447.031 1189.78 445.925C1189.44 444.82 1188.75 443.853 1187.82 443.167C1186.89 442.48 1185.76 442.11 1184.61 442.11C1183.45 442.11 1182.32 442.48 1181.39 443.167C1180.46 443.853 1179.77 444.82 1179.43 445.925C1179.09 447.031 1179.11 448.217 1179.49 449.31C1179.87 450.403 1180.59 451.346 1181.54 452C1180.21 452.465 1179 453.224 1178 454.22C1177.13 455.086 1176.43 456.118 1175.96 457.254C1175.49 458.391 1175.25 459.609 1175.25 460.84H1176.72C1176.72 459.803 1176.92 458.775 1177.32 457.817C1177.72 456.858 1178.3 455.987 1179.03 455.254C1179.77 454.52 1180.64 453.938 1181.6 453.541C1182.56 453.144 1183.58 452.94 1184.62 452.94C1185.66 452.94 1186.68 453.144 1187.64 453.541C1188.6 453.938 1189.47 454.52 1190.21 455.254C1190.94 455.987 1191.52 456.858 1191.92 457.817C1192.32 458.775 1192.52 459.803 1192.52 460.84H1194C1194 459.608 1193.75 458.389 1193.28 457.253C1192.8 456.116 1192.11 455.086 1191.23 454.22V454.22ZM1184.61 451.47C1183.83 451.46 1183.07 451.22 1182.43 450.78C1181.79 450.34 1181.29 449.72 1181 448.997C1180.71 448.275 1180.63 447.482 1180.79 446.719C1180.95 445.956 1181.33 445.257 1181.88 444.71C1182.44 444.162 1183.14 443.791 1183.91 443.643C1184.67 443.494 1185.46 443.575 1186.18 443.876C1186.9 444.176 1187.52 444.682 1187.95 445.331C1188.38 445.979 1188.61 446.741 1188.61 447.52C1188.6 448.572 1188.17 449.577 1187.42 450.316C1186.67 451.056 1185.66 451.47 1184.61 451.47V451.47Z" fill="#2D7D9A"/>
<path d="M1441.47 419.759C1440.47 418.737 1439.25 417.96 1437.91 417.489C1438.86 416.836 1439.58 415.895 1439.96 414.804C1440.34 413.713 1440.36 412.529 1440.02 411.426C1439.67 410.323 1438.99 409.358 1438.06 408.673C1437.13 407.987 1436 407.618 1434.85 407.618C1433.69 407.618 1432.57 407.987 1431.64 408.673C1430.71 409.358 1430.02 410.323 1429.68 411.426C1429.34 412.529 1429.36 413.713 1429.74 414.804C1430.12 415.895 1430.84 416.836 1431.79 417.489C1429.95 418.126 1428.35 419.32 1427.22 420.907C1426.09 422.493 1425.49 424.392 1425.49 426.339H1427C1427 425.302 1427.2 424.274 1427.6 423.316C1428 422.357 1428.58 421.487 1429.31 420.753C1430.05 420.019 1430.92 419.437 1431.88 419.04C1432.83 418.643 1433.86 418.439 1434.9 418.439C1435.94 418.439 1436.96 418.643 1437.92 419.04C1438.88 419.437 1439.75 420.019 1440.48 420.753C1441.22 421.487 1441.8 422.357 1442.2 423.316C1442.59 424.274 1442.8 425.302 1442.8 426.339H1444.26C1444.25 425.113 1444 423.9 1443.52 422.77C1443.04 421.641 1442.34 420.618 1441.47 419.759V419.759ZM1434.85 417.019C1434.07 417.019 1433.31 416.789 1432.66 416.357C1432.01 415.925 1431.5 415.311 1431.2 414.592C1430.9 413.873 1430.82 413.082 1430.97 412.317C1431.12 411.552 1431.49 410.848 1432.04 410.294C1432.59 409.739 1433.28 409.359 1434.05 409.201C1434.81 409.043 1435.6 409.114 1436.33 409.406C1437.05 409.697 1437.67 410.195 1438.11 410.838C1438.55 411.481 1438.79 412.24 1438.8 413.019C1438.8 414.071 1438.38 415.081 1437.64 415.83C1436.91 416.579 1435.9 417.006 1434.85 417.019V417.019Z" fill="#2D7D9A"/>
<path d="M1427.72 426.709C1426.71 425.711 1425.5 424.952 1424.16 424.489C1425.11 423.832 1425.83 422.889 1426.2 421.796C1426.58 420.704 1426.6 419.52 1426.25 418.416C1425.91 417.313 1425.22 416.348 1424.29 415.664C1423.36 414.979 1422.23 414.609 1421.08 414.609C1419.92 414.609 1418.8 414.979 1417.87 415.664C1416.94 416.348 1416.25 417.313 1415.9 418.416C1415.56 419.52 1415.58 420.704 1415.96 421.796C1416.33 422.889 1417.05 423.832 1418 424.489C1416.66 424.958 1415.45 425.724 1414.45 426.729C1413.58 427.596 1412.88 428.627 1412.41 429.763C1411.94 430.9 1411.7 432.119 1411.7 433.349H1413.2C1413.16 432.289 1413.34 431.232 1413.72 430.241C1414.1 429.25 1414.67 428.346 1415.41 427.582C1416.15 426.819 1417.03 426.211 1418.01 425.797C1418.98 425.382 1420.03 425.168 1421.09 425.168C1422.16 425.168 1423.21 425.382 1424.18 425.797C1425.16 426.211 1426.04 426.819 1426.78 427.582C1427.52 428.346 1428.09 429.25 1428.47 430.241C1428.85 431.232 1429.03 432.289 1428.99 433.349H1430.46C1430.46 432.116 1430.22 430.894 1429.75 429.755C1429.28 428.615 1428.59 427.58 1427.72 426.709V426.709ZM1421.1 423.959C1420.32 423.969 1419.55 423.746 1418.89 423.318C1418.24 422.89 1417.72 422.277 1417.41 421.556C1417.11 420.835 1417.02 420.039 1417.17 419.27C1417.32 418.5 1417.69 417.792 1418.24 417.234C1418.79 416.677 1419.49 416.296 1420.26 416.139C1421.03 415.983 1421.82 416.058 1422.55 416.355C1423.27 416.653 1423.89 417.159 1424.33 417.81C1424.77 418.46 1425 419.226 1425 420.009C1424.99 421.044 1424.57 422.034 1423.85 422.771C1423.12 423.507 1422.13 423.933 1421.1 423.959Z" fill="#2D7D9A"/>
<path d="M1455.23 426.709C1454.23 425.711 1453.01 424.952 1451.67 424.489C1452.62 423.835 1453.34 422.892 1453.72 421.799C1454.1 420.706 1454.12 419.52 1453.78 418.415C1453.44 417.309 1452.75 416.343 1451.82 415.656C1450.89 414.97 1449.76 414.599 1448.61 414.599C1447.45 414.599 1446.32 414.97 1445.39 415.656C1444.46 416.343 1443.77 417.309 1443.43 418.415C1443.09 419.52 1443.11 420.706 1443.49 421.799C1443.87 422.892 1444.59 423.835 1445.54 424.489C1444.21 424.954 1443 425.713 1442 426.709C1441.13 427.576 1440.43 428.607 1439.96 429.743C1439.49 430.88 1439.25 432.099 1439.25 433.329H1440.72C1440.72 432.292 1440.92 431.265 1441.32 430.306C1441.72 429.348 1442.3 428.477 1443.03 427.743C1443.77 427.01 1444.64 426.428 1445.6 426.031C1446.56 425.634 1447.58 425.429 1448.62 425.429C1449.66 425.429 1450.68 425.634 1451.64 426.031C1452.6 426.428 1453.47 427.01 1454.21 427.743C1454.94 428.477 1455.52 429.348 1455.92 430.306C1456.32 431.265 1456.52 432.292 1456.52 433.329H1458C1458 432.098 1457.75 430.878 1457.28 429.742C1456.8 428.606 1456.11 427.575 1455.23 426.709V426.709ZM1448.61 423.959C1447.83 423.949 1447.07 423.709 1446.43 423.269C1445.79 422.829 1445.29 422.209 1445 421.487C1444.71 420.764 1444.63 419.971 1444.79 419.208C1444.95 418.446 1445.33 417.746 1445.88 417.199C1446.44 416.652 1447.14 416.28 1447.91 416.132C1448.67 415.983 1449.46 416.065 1450.18 416.365C1450.9 416.665 1451.52 417.172 1451.95 417.82C1452.38 418.468 1452.61 419.23 1452.61 420.009C1452.6 421.061 1452.17 422.066 1451.42 422.805C1450.67 423.545 1449.66 423.959 1448.61 423.959V423.959Z" fill="#2D7D9A"/>
</g>
<defs>
<clipPath id="clip0">
<rect width="1920" height="1080" fill="white"/>
</clipPath>
<clipPath id="clip1">
<rect x="970.258" y="197.475" width="48" height="48" fill="white"/>
</clipPath>
<clipPath id="clip2">
<rect x="965.25" y="626.86" width="48" height="48" fill="white"/>
</clipPath>
<clipPath id="clip3">
<rect x="1790.25" y="506.84" width="48" height="48" fill="white"/>
</clipPath>
</defs>
</svg>
