<svg width="1920" height="1080" viewBox="0 0 1920 1080" fill="none" xmlns="http://www.w3.org/2000/svg">
<g clip-path="url(#clip0)">
<path d="M1638.64 542.689L1628.52 440.022C1628.14 436.394 1628.91 432.737 1630.73 429.569C1632.54 426.402 1635.31 423.885 1638.64 422.378L1702.24 237.399C1701.43 234.869 1701.19 232.19 1701.54 229.555C1701.54 229.555 1737.05 -8.88773 1735.45 -12.2097L1677.69 -98.6166L1727.06 -231.589L1899.75 -392.676L2392.74 -656.646C2393.45 -659.461 2394.83 -662.06 2396.78 -664.213L2449.3 -723.549C2451.28 -725.724 2453.77 -727.384 2456.53 -728.388L2929.37 -893.03C2930.8 -893.463 2932.16 -894.115 2933.39 -894.962L3028.32 -957.651C3029.85 -958.384 3054.53 -1009.62 3108.27 -968.824C3201.82 -897.754 3346.27 -715.507 3340.28 -706.664L3238.95 -557.565C3237.76 -555.846 3236.89 -553.928 3236.39 -551.901L3217.68 -478.317C3217.13 -476 3217.06 -473.597 3217.46 -471.252C3217.86 -468.906 3218.73 -466.665 3220.01 -464.66C3221.29 -462.656 3222.96 -460.928 3224.92 -459.58C3226.88 -458.232 3229.1 -457.291 3231.43 -456.812L3270.37 -449.29C3273.76 -448.585 3277.28 -448.917 3280.48 -450.242C3283.67 -451.567 3286.4 -453.823 3288.3 -456.718L3397.26 -618.688C3398.27 -620.155 3399.47 -621.478 3400.83 -622.62L3520.58 -719.224C3523.58 -721.591 3527.26 -722.926 3531.08 -723.028C3534.9 -723.13 3538.64 -721.993 3541.76 -719.788C3544.88 -717.583 3547.19 -714.429 3548.36 -710.797C3549.53 -707.165 3549.49 -703.251 3548.25 -699.64L3356.89 -157.56C3355.69 -153.952 3355.65 -150.059 3356.78 -146.431L3364.04 -122.823C3364.98 -119.769 3365.07 -116.516 3364.3 -113.411C3363.54 -110.307 3361.94 -107.467 3359.69 -105.195C3357.44 -102.923 3354.61 -101.303 3351.51 -100.508C3348.41 -99.7138 3345.16 -99.7739 3342.09 -100.683L3211.8 -140.283C3207.43 -141.628 3203.76 -144.627 3201.58 -148.639C3199.39 -152.651 3198.86 -157.359 3200.11 -161.758L3261.14 -387.932C3261.88 -390.486 3262.02 -393.175 3261.55 -395.791C3261.09 -398.408 3260.03 -400.882 3258.45 -403.023C3256.88 -405.165 3254.84 -406.915 3252.48 -408.141C3250.12 -409.367 3247.51 -410.036 3244.85 -410.094L3224.1 -411.023C3220.18 -411.13 3216.34 -409.959 3213.16 -407.688C3209.97 -405.417 3207.61 -402.169 3206.43 -398.438L3173.09 -287.145L3172.66 -285.915L3116.16 -136.902C3115.29 -134.56 3113.91 -132.435 3112.14 -130.671C3110.37 -128.907 3108.24 -127.546 3105.89 -126.68L2829.05 -23.5601C2826.29 -22.6208 2823.85 -20.9177 2822.03 -18.6493L2780.01 28.4763C2777.57 31.2268 2776.04 34.6707 2775.65 38.3273C2775.25 41.9839 2776.01 45.671 2777.81 48.8748C2779.62 52.0786 2782.38 54.6392 2785.71 56.1996C2789.04 57.76 2792.78 58.2424 2796.4 57.5795L2997.22 21.3467L2999.77 20.9723L3130.76 16.6082C3133.36 16.5145 3135.94 16.993 3138.33 18.0097C3140.72 19.0264 3142.85 20.5564 3144.58 22.4909C3146.31 24.4254 3147.59 26.7171 3148.33 29.2029C3149.07 31.6886 3149.25 34.3076 3148.87 36.8736L3141.27 86.712C3140.8 89.544 3139.67 92.2248 3137.96 94.5302C3136.24 96.8356 3134.01 98.6986 3131.43 99.9635L3040.93 143.479C3039.11 144.301 3037.17 144.829 3035.19 145.042L3029.54 145.714C3027.53 145.998 3025.57 146.594 3023.74 147.482L2974.45 172.375C2970.46 174.214 2967.31 177.48 2965.62 181.528C2963.92 185.575 2963.81 190.109 2965.3 194.233C2966.79 198.357 2969.77 201.771 2973.66 203.8C2977.55 205.828 2982.06 206.324 2986.3 205.189L3171.18 163.839C3172.49 163.378 3173.75 162.774 3174.93 162.04L3302.04 99.5581C3323.43 102.052 3344.94 103.429 3366.47 103.681C3387.43 95.925 3407.61 86.2197 3426.76 74.6934C3430.52 75.1383 3434.33 74.6522 3437.85 73.2785C3402.83 96.2541 3370.99 117.697 3335.97 140.673L3334.72 141.272L3212.57 242.1C3211.39 242.841 3210.14 243.445 3208.83 243.899L3097.95 297.211C3095.75 298.281 3093.8 299.795 3092.22 301.656C3090.63 303.518 3089.45 305.687 3088.75 308.027C3088.05 310.367 3087.84 312.826 3088.13 315.25C3088.43 317.674 3089.23 320.01 3090.47 322.11L3198.77 503.336C3199.69 504.901 3200.88 506.291 3202.28 507.442L3286.96 582.777C3288.73 584.315 3352.98 638.8 3347.51 649.78C3332.94 679.451 3233.37 683.529 3233.37 683.529C3231.11 686.646 3227.88 688.919 3224.19 689.988L3079.58 733.108C3077.27 733.706 3075.11 734.747 3073.2 736.173L2904.46 908.313C2857.7 975.679 2806.14 1039.6 2750.19 1099.56C2690.34 1161.4 2620.91 1202.97 2615.51 1201.3L2479.16 1161.89C2475.38 1160.75 2472.08 1158.38 2469.79 1155.16C2467.5 1151.94 2466.35 1148.06 2466.51 1144.11L2469.6 1076C2469.73 1073.37 2469.27 1070.75 2468.26 1068.33C2467.25 1065.91 2465.71 1063.74 2463.76 1061.99C2461.8 1060.23 2459.48 1058.94 2456.96 1058.19C2454.44 1057.45 2451.79 1057.28 2449.19 1057.69L2068.6 1121.4C2064.38 1122.16 2060.03 1121.33 2056.39 1119.09C2056.39 1119.09 1599.38 1089.17 1595.16 1082.51C1595.16 1082.51 1490.51 986.954 1499.34 886.082C1511.18 739.288 1639.06 568.049 1638.64 542.689Z" fill="#293135" stroke="#2D7D9A" stroke-miterlimit="10"/>
<path d="M591.099 1009.23L489.064 1258.36C486.94 1263.44 486.22 1269 486.98 1274.45C487.74 1279.9 489.951 1285.04 493.382 1289.35L607.223 1433.48C610.895 1437.75 613.375 1442.9 614.411 1448.43L642.193 1672.29C643.057 1678.77 641.833 1685.35 638.7 1691.08C635.567 1696.82 630.686 1701.41 624.768 1704.19L450.973 1787.75C444.392 1790.77 439.086 1796.01 435.988 1802.55C432.89 1809.09 432.199 1816.51 434.036 1823.5L459.529 1923.72C461.224 1930.76 460.45 1938.17 457.337 1944.71L403.761 2057.22C400.524 2063.91 399.826 2071.56 401.798 2078.73C403.77 2085.89 408.278 2092.1 414.485 2096.2L570.644 2143.81C584.728 2172.26 597.187 2201.49 607.961 2231.36C620.207 2264.83 630.43 2299.01 638.577 2333.71L551.763 2508.04C549.973 2515.77 551.246 2523.89 555.316 2530.7C559.386 2537.51 565.937 2542.48 573.597 2544.57L705.094 2582.06C709.004 2583.14 713.088 2583.43 717.114 2582.93L901.315 2562.52C906.801 2561.84 912.371 2562.64 917.436 2564.85C922.501 2567.06 926.875 2570.59 930.098 2575.08C933.32 2579.56 935.271 2584.83 935.746 2590.34C936.221 2595.84 935.202 2601.37 932.797 2606.35L856.549 2769.29L829.809 2833.27C827.308 2840.13 827.328 2847.64 829.864 2854.48C832.401 2861.31 837.288 2867.02 843.654 2870.58L899.655 2903.3C903.937 2905.8 908.76 2907.22 913.713 2907.45C918.667 2907.68 923.604 2906.71 928.103 2904.62L990.791 2876.01C993.821 2874.58 997.065 2873.65 1000.39 2873.27L1461.71 2823.06C1468.08 2822.34 1474.51 2823.63 1480.11 2826.75C1485.7 2829.86 1490.18 2834.64 1492.92 2840.43L1512.16 2880.43C1515.16 2886.99 1520.37 2892.28 1526.88 2895.38C1533.39 2898.48 1540.79 2899.19 1547.78 2897.39L1655.56 2870.28C1657.97 2869.54 1660.26 2868.44 1662.35 2867.01L1954.12 2711.55C1959.05 2709 1964.58 2707.83 1970.12 2708.17C1975.66 2708.51 1981 2710.34 1985.58 2713.46L2278.09 2899.5C2284.68 2903.76 2292.65 2905.33 2300.37 2903.9C2308.09 2902.47 2314.97 2898.14 2319.61 2891.81L2388.05 2799.94C2391.81 2795.04 2396.87 2791.3 2402.67 2789.16L2510.19 2751.6C2517.39 2748.99 2525.29 2749.15 2532.36 2752.05C2539.44 2754.96 2545.17 2760.39 2548.45 2767.29L2688.21 3057.96C2690.42 3062.62 2693.76 3066.65 2697.92 3069.67C2702.09 3072.7 2706.96 3074.63 2712.07 3075.29L2873.2 3095.97C2879.84 3096.8 2886.57 3095.53 2892.44 3092.34L3157.72 2942.47C3162.97 2939.53 3167.25 2935.13 3170.02 2929.8C3172.8 2924.47 3173.95 2918.44 3173.33 2912.47L3158.98 2764.8C3158.76 2762.8 3158.38 2760.81 3157.83 2758.87L3041.1 2369.88C3038.78 2362.35 3039.46 2354.22 3042.97 2347.17L3095.05 2242.54C3097.91 2236.84 3098.92 2230.4 3097.95 2224.1L3079.96 2097.61C3079.42 2093.7 3078.13 2089.92 3076.15 2086.49L3039.02 2022.04C3038.18 2020.54 3037.22 2019.13 3036.13 2017.81L2939.75 1899.7C2938.17 1897.84 2936.84 1895.79 2935.79 1893.59L2867.17 1750.88C2865.04 1746.49 2863.99 1741.65 2864.1 1736.76C2864.21 1731.88 2865.49 1727.09 2867.83 1722.79L2934.51 1598.87C2935.25 1597.53 2935.9 1596.14 2936.44 1594.71L2957.52 1536C2958.98 1532.08 2959.61 1527.91 2959.4 1523.73C2959.18 1519.56 2958.11 1515.48 2956.26 1511.73L2934.5 1466.47C2932.56 1462.61 2931.46 1458.39 2931.27 1454.08C2931.08 1449.76 2931.8 1445.46 2933.38 1441.44L2946.64 1407.97C2948.21 1403.98 2948.93 1399.7 2948.75 1395.41C2948.57 1391.13 2947.5 1386.93 2945.59 1383.08L2882.7 1252.28C2881.03 1248.88 2878.75 1245.82 2875.97 1243.25L2748.93 1124.54C2743.83 1119.84 2740.48 1113.55 2739.42 1106.7C2738.35 1099.85 2739.64 1092.84 2743.07 1086.8L2758.93 1058.39C2762.08 1053.01 2763.52 1046.81 2763.06 1040.6C2762.6 1034.39 2760.26 1028.47 2756.36 1023.62C2752.45 1018.77 2747.16 1015.22 2741.19 1013.44C2735.22 1011.67 2728.85 1011.75 2722.92 1013.67L2720.43 1014.87C2715.73 1016.27 2711.44 1018.76 2707.9 1022.15C2704.37 1025.54 2701.7 1029.73 2700.1 1034.35L2662.93 1140.16C2661.52 1144.3 2659.23 1148.08 2656.24 1151.27C2653.24 1154.45 2649.6 1156.96 2645.56 1158.63C2641.52 1160.3 2637.17 1161.09 2632.8 1160.95C2628.43 1160.8 2624.14 1159.73 2620.22 1157.8L2489.41 1094.42C2483.29 1091.5 2478.31 1086.63 2475.25 1080.58C2472.19 1074.54 2471.21 1067.64 2472.48 1060.98C2473.47 1056.14 2473.28 1051.13 2471.93 1046.39C2470.57 1041.64 2468.09 1037.29 2464.69 1033.71C2461.29 1030.12 2457.08 1027.41 2452.41 1025.8C2447.74 1024.19 2442.75 1023.73 2437.86 1024.46L2213.55 1058.69C2208.75 1059.5 2203.82 1059.12 2199.2 1057.58L1895.27 957.81C1890.18 956.116 1884.73 955.787 1879.46 956.853C1874.2 957.92 1869.3 960.346 1865.26 963.889L1748.26 1065.48C1742.96 1070.17 1736.2 1072.89 1729.13 1073.19C1722.06 1073.48 1715.11 1071.33 1709.45 1067.1L1518.18 927.303C1514.51 924.678 1511.47 921.278 1509.27 917.345C1507.07 913.412 1505.76 909.042 1505.43 904.545C1505.11 900.049 1505.79 895.535 1507.4 891.325C1509.02 887.115 1511.55 883.313 1514.8 880.186L1650.75 746.652C1654.15 743.359 1656.75 739.326 1658.33 734.869C1659.92 730.411 1660.45 725.65 1659.9 720.954L1651.81 650.199C1650.86 642.586 1647.19 635.576 1641.47 630.462L1570.81 567.98C1566.33 563.994 1560.78 561.407 1554.85 560.537C1548.91 559.667 1542.85 560.552 1537.4 563.083L1188.13 723.868C1183.97 725.819 1179.43 726.814 1174.83 726.781C1170.24 726.748 1165.71 725.688 1161.59 723.677L1098.4 693.051C1094.21 690.975 1089.59 689.884 1084.91 689.861C1080.22 689.839 1075.6 690.886 1071.38 692.922L902.158 774.289C895.833 777.364 890.717 782.463 887.623 788.775L785.703 1000.53C782.677 1006.82 777.597 1011.9 771.299 1014.93C765.001 1017.96 757.862 1018.76 751.055 1017.19L626.058 990.379C618.945 988.888 611.53 989.963 605.131 993.415C598.731 996.866 593.76 1002.47 591.099 1009.23V1009.23Z" fill="#293135" stroke="#2D7D9A" stroke-opacity="0.38" stroke-miterlimit="10"/>
<path d="M605.841 1009.82C573.028 997.644 565.509 478.084 626.4 346.727C629.076 341.043 629.945 334.677 628.891 328.488C616.811 236.648 647.25 -106.379 637.087 -176.134C629.079 -231.588 620.668 -286.224 611.854 -340.041C610.633 -347.932 612.33 -356 616.626 -362.738C620.922 -369.477 627.524 -374.424 635.2 -376.658L826.325 -430.213C830.999 -431.541 835.321 -433.89 838.975 -437.092C842.63 -440.293 845.527 -444.267 847.456 -448.724L907.564 -587.032C909.149 -590.528 911.29 -593.745 913.905 -596.557L1024.69 -713.221C1029.08 -717.863 1032 -723.689 1033.11 -729.976C1034.21 -736.262 1033.44 -742.732 1030.89 -748.582C1009.86 -796.238 1000.99 -817.877 949.07 -925.496C947.615 -928.487 946.601 -931.673 946.058 -934.955C928.155 -1084.62 925.591 -1235.73 938.406 -1385.94C938.937 -1391.67 937.94 -1397.44 935.518 -1402.65C933.095 -1407.87 929.333 -1412.34 924.614 -1415.63C919.895 -1418.92 914.388 -1420.9 908.652 -1421.37C902.915 -1421.84 897.155 -1420.79 891.957 -1418.31L882.533 -1413.78C878.434 -1411.79 873.959 -1410.69 869.404 -1410.56C864.85 -1410.42 860.32 -1411.26 856.115 -1413.01L609.144 -1513.92C607.226 -1514.71 605.23 -1515.29 603.19 -1515.66C557.61 -1524.93 16.0382 -1633.48 -145.834 -1697.94C-150.483 -1699.78 -154.645 -1702.67 -157.996 -1706.38C-161.347 -1710.08 -163.798 -1714.51 -165.159 -1719.32L-176.676 -1760.31C-178.526 -1766.97 -182.452 -1772.87 -187.886 -1777.16C-193.319 -1781.44 -199.978 -1783.88 -206.896 -1784.12L-309.236 -1787.23C-315.311 -1787.37 -321.22 -1789.23 -326.278 -1792.59C-331.337 -1795.94 -335.336 -1800.67 -337.814 -1806.21C-382.434 -1905.75 -413.006 -2140.03 -379.58 -2265.34C-378.347 -2269.9 -376.151 -2274.16 -373.14 -2277.81C-370.129 -2281.46 -366.371 -2284.43 -362.12 -2286.51L-278.964 -2326.5C-275.103 -2328.35 -271.644 -2330.94 -268.785 -2334.13C-265.926 -2337.32 -263.723 -2341.04 -262.302 -2345.07L-191.134 -2547.32C-189.242 -2552.78 -188.828 -2558.64 -189.933 -2564.3C-191.038 -2569.96 -193.623 -2575.23 -197.426 -2579.57L-234.047 -2620.25C-237.396 -2624.06 -239.806 -2628.6 -241.086 -2633.51C-242.366 -2638.42 -242.48 -2643.56 -241.419 -2648.52C-240.358 -2653.49 -238.151 -2658.13 -234.974 -2662.1C-231.798 -2666.06 -227.739 -2669.22 -223.123 -2671.34C-121.712 -2717.72 47.9561 -2749.54 148.118 -2743.51C155.945 -2743.04 163.336 -2739.76 168.924 -2734.27C174.513 -2728.78 177.92 -2721.46 178.516 -2713.64C180.244 -2692.66 181.694 -2671.55 183.561 -2650.63C184.028 -2644.91 186.001 -2639.41 189.28 -2634.7C192.558 -2629.99 197.026 -2626.23 202.23 -2623.8C207.434 -2621.37 213.189 -2620.36 218.912 -2620.87C224.636 -2621.38 230.124 -2623.4 234.821 -2626.71L270.848 -2652.21C277.172 -2657.02 285.028 -2659.37 292.951 -2658.82C300.874 -2658.27 308.324 -2654.86 313.915 -2649.23C317.627 -2645.49 322.196 -2642.71 327.229 -2641.13C332.262 -2639.55 337.605 -2639.22 342.796 -2640.17C347.987 -2641.12 352.868 -2643.33 357.017 -2646.59C361.166 -2649.85 364.457 -2654.07 366.605 -2658.89L507.04 -2970.11C507.77 -2971.84 508.696 -2973.49 509.8 -2975.02L694.118 -3248.2C697.133 -3252.94 698.872 -3258.38 699.167 -3263.98C699.461 -3269.59 698.301 -3275.17 695.798 -3280.19L616.599 -3444.91C615.354 -3447.6 613.701 -3450.08 611.696 -3452.26C548.764 -3520.33 642.283 -3804.56 689.77 -3893.18C693.562 -3900.24 699.839 -3905.66 707.387 -3908.37C714.936 -3911.09 723.221 -3910.92 730.644 -3907.89L823.56 -3870.08C828.801 -3867.9 834.533 -3867.15 840.166 -3867.91C845.798 -3868.67 851.127 -3870.91 855.604 -3874.42C908.161 -3914.51 1087.1 -4049.12 1159.78 -4074.7C1166.55 -4077 1173.88 -4077.03 1180.66 -4074.78C1187.44 -4072.54 1193.3 -4068.13 1197.33 -4062.25C1233.75 -4008.52 1270.27 -3954.79 1306.92 -3901.07C1310.53 -3895.74 1315.66 -3891.62 1321.65 -3889.23C1387.52 -3862.96 1786.95 -3702.26 1873.46 -3620.99C1877.92 -3616.8 1883.47 -3613.94 1889.48 -3612.73C1895.49 -3611.53 1901.71 -3612.02 1907.46 -3614.16C1991.91 -3642.39 2078.92 -3662.3 2167.24 -3673.63C2172.97 -3674.12 2178.47 -3676.12 2183.17 -3679.43C2187.88 -3682.74 2191.62 -3687.24 2194.01 -3692.47L2212.81 -3733.21C2214.9 -3737.8 2218.03 -3741.85 2221.96 -3745.02C2225.89 -3748.19 2230.5 -3750.41 2235.43 -3751.49C2240.36 -3752.57 2245.48 -3752.48 2250.37 -3751.24C2255.26 -3750 2259.79 -3747.64 2263.6 -3744.34C2317.12 -3698.32 2389.16 -3614.87 2418.71 -3553.07C2420.55 -3549.23 2423.13 -3545.8 2426.31 -3542.97C2429.49 -3540.14 2433.19 -3537.97 2437.21 -3536.57L2625.12 -3470.48C2632.55 -3467.83 2638.77 -3462.59 2642.63 -3455.72L2720 -3318.59L2820.5 -3109.59C2822.58 -3105.43 2823.73 -3100.86 2823.86 -3096.21L2825.59 -3019.84C2825.73 -3013.56 2827.67 -3007.45 2831.2 -3002.26C2834.73 -2997.06 2839.69 -2992.99 2845.48 -2990.55L2942.62 -2950C2947.68 -2947.89 2952.12 -2944.52 2955.52 -2940.22C2958.92 -2935.92 2961.18 -2930.83 2962.07 -2925.42C2962.97 -2920.01 2962.48 -2914.47 2960.64 -2909.3C2958.81 -2904.13 2955.69 -2899.5 2951.58 -2895.86C2921.8 -2869.1 2873.11 -2843.3 2840.71 -2842.55C2834.52 -2842.44 2828.5 -2840.57 2823.34 -2837.16C2818.18 -2833.74 2814.1 -2828.92 2811.59 -2823.27L2752.57 -2692.64C2750.53 -2688.11 2747.51 -2684.09 2743.72 -2680.88C2669.37 -2620.09 2485.78 -2620.42 2398.7 -2575.83C2394.39 -2573.56 2390.65 -2570.35 2387.74 -2566.45C2384.84 -2562.54 2382.84 -2558.04 2381.91 -2553.27L2336.21 -2318.27C2335.08 -2312.36 2335.61 -2306.24 2337.75 -2300.62C2339.88 -2294.99 2343.54 -2290.06 2348.31 -2286.39C2353.09 -2282.72 2358.78 -2280.44 2364.78 -2279.81C2370.77 -2279.18 2376.82 -2280.22 2382.26 -2282.82L2626.18 -2400.1C2630.72 -2402.36 2634.67 -2405.63 2637.71 -2409.67C2640.76 -2413.71 2642.83 -2418.4 2643.75 -2423.37C2644.67 -2428.35 2644.42 -2433.46 2643.02 -2438.32C2641.61 -2443.18 2639.1 -2447.64 2635.67 -2451.36L2588.28 -2502.7C2584.94 -2506.36 2582.47 -2510.72 2581.07 -2515.47C2579.67 -2520.22 2579.37 -2525.23 2580.2 -2530.11C2581.03 -2534.99 2582.96 -2539.62 2585.85 -2543.65C2588.73 -2547.68 2592.5 -2551 2596.86 -2553.35L2636.33 -2574.54C2641.41 -2577.73 2647.28 -2579.45 2653.28 -2579.5C2659.27 -2579.56 2665.17 -2577.95 2670.3 -2574.86L2807.76 -2480.25C2811.27 -2477.86 2815.22 -2476.17 2819.37 -2475.27L2962.6 -2444.62C2968.12 -2443.41 2973.23 -2440.79 2977.44 -2437.02C2981.65 -2433.25 2984.8 -2428.45 2986.6 -2423.1C3012.99 -2344.44 2959.04 -2161.03 2907.58 -2116.87C2903.74 -2113.48 2900.74 -2109.25 2898.82 -2104.51C2896.89 -2099.77 2896.1 -2094.65 2896.49 -2089.55L2917.85 -1782.51C2918.06 -1778.66 2917.6 -1774.81 2916.5 -1771.12L2902.53 -1723.17C2901.19 -1718.59 2898.86 -1714.37 2895.7 -1710.8C2892.55 -1707.22 2888.65 -1704.38 2884.28 -1702.47C2879.91 -1700.56 2875.17 -1699.64 2870.41 -1699.76C2865.64 -1699.88 2860.96 -1701.04 2856.69 -1703.17L2798.64 -1732C2794.05 -1734.27 2790.06 -1737.58 2787 -1741.67C2783.93 -1745.76 2781.88 -1750.52 2781 -1755.56C2772.81 -1802.75 2755.19 -1905.04 2747.5 -1949.06C2746.44 -1955.29 2743.57 -1961.07 2739.26 -1965.69C2734.94 -1970.31 2729.37 -1973.56 2723.23 -1975.06L2672.13 -1987.64C2665.8 -1989.2 2659.14 -1988.85 2653 -1986.62L2630.31 -1978.09C2626.07 -1976.51 2622.21 -1974.05 2618.97 -1970.89C2615.73 -1967.73 2613.19 -1963.93 2611.5 -1959.74C2609.81 -1955.54 2609.01 -1951.04 2609.15 -1946.53C2609.3 -1942.01 2610.38 -1937.57 2612.34 -1933.49L2620.72 -1916.05C2624.34 -1908.56 2624.95 -1899.96 2622.42 -1892.02C2619.89 -1884.08 2614.41 -1877.41 2607.12 -1873.38L2433.41 -1777.93C2431.29 -1776.79 2429.33 -1775.39 2427.56 -1773.76C2382.32 -1738.95 2335.15 -1706.72 2286.29 -1677.2C2280.23 -1673.54 2275.52 -1668 2272.9 -1661.43C2270.28 -1654.85 2269.88 -1647.6 2271.76 -1640.78C2273.65 -1633.97 2277.72 -1627.95 2283.35 -1623.67C2288.97 -1619.38 2295.85 -1617.05 2302.94 -1617.04L2687.09 -1610.54L3079.89 -1594.91C3085.78 -1594.68 3091.48 -1592.86 3096.42 -1589.66C3101.35 -1586.45 3105.33 -1581.98 3107.93 -1576.7L3189.46 -1407.14C3190.55 -1404.85 3191.93 -1402.71 3193.55 -1400.76L3439.19 -1099.99C3442.22 -1096.17 3444.36 -1091.72 3445.44 -1086.98L3446.28 -1083.46C3447.78 -1077.46 3447.52 -1071.15 3445.54 -1065.28C3443.56 -1059.42 3439.95 -1054.24 3435.12 -1050.36C3430.29 -1046.48 3424.46 -1044.06 3418.3 -1043.39C3412.14 -1042.71 3405.92 -1043.82 3400.38 -1046.56C3372.74 -1060.03 3345.18 -1073.7 3317.68 -1087.24C3315.52 -1088.32 3313.47 -1089.62 3311.56 -1091.11C3276.33 -1119.67 3241.16 -1148.09 3206.07 -1176.71C3201.33 -1180.56 3195.6 -1182.99 3189.54 -1183.74C3183.48 -1184.48 3177.33 -1183.52 3171.79 -1180.94C3166.26 -1178.37 3161.55 -1174.29 3158.22 -1169.18C3154.88 -1164.06 3153.05 -1158.12 3152.93 -1152.02L3152.75 -1136.42C3152.6 -1131.66 3153.52 -1126.93 3155.44 -1122.58C3157.36 -1118.22 3160.22 -1114.35 3163.83 -1111.25L3329.25 -967.713C3332.97 -964.595 3337.32 -962.327 3342.01 -961.064L3494.61 -919.069C3499.91 -917.562 3505.51 -917.422 3510.88 -918.664C3516.25 -919.905 3521.22 -922.488 3525.33 -926.169L3570.5 -964.933C3573.89 -967.748 3577.74 -969.946 3581.88 -971.428L3870.74 -1055.95L3892.34 -1035.16C3894.14 -1036.02 3902.4 -1040.85 3917.84 -1047.42C3920.61 -1048.75 3916.84 -1066.53 3919.61 -1067.87C3933.47 -1074.53 3959.26 -1083.01 3959.26 -1083.01L3976.47 -1071.69L4017.65 -1083.65L4039.82 -1068.41C4045.63 -1067.97 4051.46 -1069.07 4056.72 -1071.59L4110.49 -1097.45C4114.67 -1099.45 4119.22 -1100.54 4123.84 -1100.64C4128.47 -1100.75 4133.06 -1099.87 4137.32 -1098.07C4141.58 -1096.26 4145.4 -1093.57 4148.54 -1090.17C4151.67 -1086.77 4154.05 -1082.75 4155.5 -1078.36L4254.16 -780.195C4255.51 -776.081 4256.03 -771.737 4255.68 -767.419C4255.33 -763.101 4254.13 -758.895 4252.13 -755.048C4250.13 -751.2 4247.39 -747.788 4244.06 -745.011C4240.73 -742.235 4236.88 -740.149 4232.74 -738.877L4128.47 -707.316C4122.86 -705.546 4117.85 -702.289 4113.95 -697.894C4110.05 -693.499 4107.42 -688.131 4106.34 -682.361L4095.26 -625.91C4093.81 -618.07 4089.53 -611.034 4083.22 -606.147C4076.92 -601.26 4069.03 -598.864 4061.07 -599.418C3982.02 -605.202 3844.7 -644.152 3773.87 -699.903C3771.35 -702.004 3769.1 -704.416 3767.18 -707.081C3734.71 -754.976 3702.21 -802.917 3669.7 -850.904C3665.08 -857.769 3658.01 -862.607 3649.93 -864.426C3641.86 -866.246 3633.39 -864.91 3626.26 -860.691L3363.6 -707.132C3359.03 -704.493 3353.88 -703.013 3348.61 -702.821L3208.59 -697.356C3200.76 -697.024 3193.07 -699.535 3186.96 -704.426C3180.84 -709.317 3176.71 -716.257 3175.32 -723.963L3149.79 -865.062C3148.71 -870.141 3146.43 -874.887 3143.14 -878.903L3088.61 -952.551C3083.52 -959.357 3075.96 -963.899 3067.55 -965.205C3059.14 -966.512 3050.55 -964.48 3043.62 -959.544L2815.45 -795.301C2811.88 -792.647 2807.83 -790.701 2803.53 -789.57L2476.16 -717.368C2471.64 -716.221 2467.4 -714.181 2463.69 -711.371L2420.46 -678.83C2416.71 -676.088 2413.58 -672.581 2411.29 -668.54C2409 -664.499 2407.59 -660.017 2407.16 -655.392L2395.28 -462.22C2395 -457.649 2393.77 -453.185 2391.66 -449.121C2389.54 -445.056 2386.6 -441.482 2383.01 -438.63C2379.42 -435.779 2375.27 -433.716 2370.83 -432.575C2366.39 -431.433 2361.76 -431.239 2357.25 -432.006C2237.92 -451.997 2029.86 -418.759 1930.9 -370.835C1926.92 -368.889 1923.39 -366.153 1920.52 -362.795C1917.64 -359.437 1915.48 -355.527 1914.17 -351.306C1912.86 -347.085 1912.43 -342.642 1912.9 -338.25C1913.37 -333.857 1914.73 -329.608 1916.91 -325.764L1920.5 -318.289C1922.86 -314.106 1924.27 -309.448 1924.61 -304.654C1924.95 -299.86 1924.21 -295.049 1922.46 -290.57C1920.71 -286.091 1917.99 -282.056 1914.49 -278.757C1910.99 -275.458 1906.79 -272.978 1902.22 -271.496L1746.96 -220.703C1742.88 -219.376 1739.11 -217.255 1735.85 -214.461C1732.6 -211.667 1729.93 -208.257 1728 -204.427C1703.55 -154.497 1716.25 -19.8412 1751.88 22.673C1755.07 26.2545 1757.42 30.5062 1758.75 35.1159C1760.08 39.7256 1760.36 44.5761 1759.57 49.31L1731.41 206.51C1730.35 212.361 1730.94 218.39 1733.12 223.919L1754.9 276.67C1756.94 282.01 1757.53 287.791 1756.62 293.434C1755.71 299.077 1753.33 304.382 1749.72 308.818L1654.18 426.328C1650.47 430.879 1648.07 436.351 1647.22 442.159C1646.38 447.967 1647.13 453.893 1649.39 459.305L1708.51 602.487C1711.68 610.057 1711.85 618.547 1709 626.245C1706.14 633.942 1700.47 640.275 1693.13 643.964L1669.99 655.093C1665.27 657.488 1660.04 658.703 1654.74 658.636C1649.45 658.569 1644.26 657.221 1639.6 654.708L1533.12 596.843C1527.94 594.037 1522.1 592.7 1516.22 592.976C1510.33 593.251 1504.64 595.129 1499.74 598.406L1322.76 717.584C1317.88 720.766 1312.26 722.645 1306.45 723.044C1264.31 726.262 1077.79 737.217 950.548 756.135C944.558 757.006 938.927 759.526 934.286 763.413C929.646 767.3 926.178 772.4 924.273 778.142L887.141 890.065C886.331 892.651 885.157 895.109 883.655 897.365L815.259 1003.53C811.454 1009.5 805.768 1014.03 799.1 1016.41L714.845 1047.72C706.959 1050.66 698.245 1050.46 690.512 1047.15L605.841 1009.82Z" fill="#293135" stroke="#2D7D9A" stroke-opacity="0.38" stroke-miterlimit="10"/>
<g clip-path="url(#clip1)">
<path d="M1169.64 386.87C1169.44 387.07 1169.24 387.27 1169.04 387.47C1162.84 389.47 1156.44 391.47 1150.24 393.27C1148.84 393.67 1147.44 394.07 1146.04 394.67C1145.84 394.67 1145.44 394.67 1145.24 394.67C1140.84 393.07 1136.64 391.67 1132.24 390.27C1131.84 390.27 1131.84 390.27 1131.64 390.47C1130.84 391.27 1130.44 392.27 1130.24 393.27C1129.84 394.27 1129.84 395.07 1129.64 396.07C1129.64 396.27 1129.64 396.47 1129.84 396.47C1131.24 397.47 1131.24 399.67 1129.84 400.67C1129.64 400.87 1129.64 400.87 1129.64 401.07C1130.04 403.27 1130.24 405.47 1130.44 407.67C1130.44 408.47 1130.64 409.07 1130.64 409.87C1130.64 410.27 1130.44 410.67 1130.04 410.67C1128.64 410.67 1127.44 410.67 1126.04 410.67C1125.64 410.67 1125.44 410.27 1125.44 409.87C1125.64 408.07 1125.84 406.27 1126.24 404.47C1126.44 403.27 1126.44 402.27 1126.64 401.07C1126.64 400.87 1126.64 400.87 1126.44 400.67C1125.04 399.67 1125.04 397.27 1126.64 396.47C1126.84 396.27 1126.84 396.27 1126.84 396.07C1126.84 394.67 1127.24 393.27 1127.64 392.07C1128.04 391.07 1128.44 390.27 1128.84 389.67C1129.04 389.47 1129.04 389.47 1128.84 389.27C1126.64 388.67 1124.44 387.87 1122.24 387.27C1122.04 387.27 1121.84 387.07 1121.64 386.67C1121.64 386.27 1121.84 386.07 1122.24 385.87C1123.84 385.27 1125.64 384.87 1127.44 384.27C1133.24 382.47 1139.24 380.67 1145.04 378.67C1145.24 378.67 1145.24 378.47 1145.44 378.47C1145.64 378.47 1145.84 378.47 1145.84 378.47C1146.44 378.47 1147.04 378.87 1147.64 378.87C1151.24 380.07 1155.04 381.27 1158.64 382.27C1161.04 383.07 1163.44 383.87 1165.84 384.47C1166.84 384.87 1167.84 385.07 1168.84 385.47C1169.04 385.47 1169.24 385.67 1169.44 386.07C1169.64 386.47 1169.64 386.67 1169.64 386.87Z" fill="#2D7D9A"/>
<path d="M1146.24 378.47C1146.24 378.67 1146.24 378.67 1146.24 378.47C1146.04 378.47 1145.84 378.47 1145.64 378.47C1145.84 378.47 1146.04 378.47 1146.24 378.47Z" fill="#2D7D9A"/>
<path d="M1158.84 393.27C1158.84 393.87 1158.84 394.47 1159.04 395.07C1159.04 396.47 1159.24 397.87 1159.24 399.27C1159.44 400.47 1158.84 401.47 1157.84 402.27C1156.64 403.07 1155.44 403.67 1154.04 404.07C1151.04 405.07 1147.84 405.27 1144.64 405.07C1142.44 405.07 1140.24 404.67 1138.04 404.07C1136.44 403.67 1135.04 403.07 1133.84 402.07C1133.24 401.47 1132.84 401.07 1132.64 400.07C1132.64 399.67 1132.64 399.47 1132.64 399.07C1132.84 397.07 1132.84 395.27 1133.04 393.27C1133.04 393.07 1133.04 393.07 1133.24 393.07C1137.24 394.27 1141.04 395.47 1145.04 396.67C1145.84 396.87 1146.44 396.87 1147.24 396.67C1151.04 395.47 1154.84 394.27 1158.84 393.07C1158.64 393.47 1158.84 393.27 1158.84 393.27Z" fill="#2D7D9A"/>
</g>
<path d="M1332 234.818C1331.8 235.018 1331.6 235.218 1331.4 235.418C1325.2 237.418 1318.8 239.418 1312.6 241.218C1311.2 241.618 1309.8 242.018 1308.4 242.618C1308.2 242.618 1307.8 242.618 1307.6 242.618C1303.2 241.018 1299 239.618 1294.6 238.218C1294.2 238.218 1294.2 238.218 1294 238.418C1293.2 239.218 1292.8 240.218 1292.6 241.218C1292.2 242.218 1292.2 243.018 1292 244.018C1292 244.218 1292 244.418 1292.2 244.418C1293.6 245.418 1293.6 247.618 1292.2 248.618C1292 248.818 1292 248.818 1292 249.018C1292.4 251.218 1292.6 253.418 1292.8 255.618C1292.8 256.418 1293 257.018 1293 257.818C1293 258.218 1292.8 258.618 1292.4 258.618C1291 258.618 1289.8 258.618 1288.4 258.618C1288 258.618 1287.8 258.218 1287.8 257.818C1288 256.018 1288.2 254.218 1288.6 252.418C1288.8 251.218 1288.8 250.218 1289 249.018C1289 248.818 1289 248.818 1288.8 248.618C1287.4 247.618 1287.4 245.218 1289 244.418C1289.2 244.218 1289.2 244.218 1289.2 244.018C1289.2 242.618 1289.6 241.218 1290 240.018C1290.4 239.018 1290.8 238.218 1291.2 237.618C1291.4 237.418 1291.4 237.418 1291.2 237.218C1289 236.618 1286.8 235.818 1284.6 235.218C1284.4 235.218 1284.2 235.018 1284 234.618C1284 234.218 1284.2 234.018 1284.6 233.818C1286.2 233.218 1288 232.818 1289.8 232.218C1295.6 230.418 1301.6 228.618 1307.4 226.618C1307.6 226.618 1307.6 226.418 1307.8 226.418C1308 226.418 1308.2 226.418 1308.2 226.418C1308.8 226.418 1309.4 226.818 1310 226.818C1313.6 228.018 1317.4 229.218 1321 230.218C1323.4 231.018 1325.8 231.818 1328.2 232.418C1329.2 232.818 1330.2 233.018 1331.2 233.418C1331.4 233.418 1331.6 233.618 1331.8 234.018C1332 234.418 1332 234.618 1332 234.818Z" fill="#2D7D9A"/>
<path d="M1308.6 226.418C1308.6 226.618 1308.6 226.618 1308.6 226.418C1308.4 226.418 1308.2 226.418 1308 226.418C1308.2 226.418 1308.4 226.418 1308.6 226.418Z" fill="#2D7D9A"/>
<path d="M1321.2 241.218C1321.2 241.818 1321.2 242.418 1321.4 243.018C1321.4 244.418 1321.6 245.818 1321.6 247.218C1321.8 248.418 1321.2 249.418 1320.2 250.218C1319 251.018 1317.8 251.618 1316.4 252.018C1313.4 253.018 1310.2 253.218 1307 253.018C1304.8 253.018 1302.6 252.618 1300.4 252.018C1298.8 251.618 1297.4 251.018 1296.2 250.018C1295.6 249.418 1295.2 249.018 1295 248.018C1295 247.618 1295 247.418 1295 247.018C1295.2 245.018 1295.2 243.218 1295.4 241.218C1295.4 241.018 1295.4 241.018 1295.6 241.018C1299.6 242.218 1303.4 243.418 1307.4 244.618C1308.2 244.818 1308.8 244.818 1309.6 244.618C1313.4 243.418 1317.2 242.218 1321.2 241.018C1321 241.418 1321.2 241.218 1321.2 241.218Z" fill="#2D7D9A"/>
<path d="M1688 274.919C1687.8 275.119 1687.6 275.319 1687.4 275.519C1681.2 277.519 1674.8 279.519 1668.6 281.319C1667.2 281.719 1665.8 282.119 1664.4 282.719C1664.2 282.719 1663.8 282.719 1663.6 282.719C1659.2 281.119 1655 279.719 1650.6 278.319C1650.2 278.319 1650.2 278.319 1650 278.519C1649.2 279.319 1648.8 280.319 1648.6 281.319C1648.2 282.319 1648.2 283.119 1648 284.119C1648 284.319 1648 284.519 1648.2 284.519C1649.6 285.519 1649.6 287.719 1648.2 288.719C1648 288.919 1648 288.919 1648 289.119C1648.4 291.319 1648.6 293.519 1648.8 295.719C1648.8 296.519 1649 297.119 1649 297.919C1649 298.319 1648.8 298.719 1648.4 298.719C1647 298.719 1645.8 298.719 1644.4 298.719C1644 298.719 1643.8 298.319 1643.8 297.919C1644 296.119 1644.2 294.319 1644.6 292.519C1644.8 291.319 1644.8 290.319 1645 289.119C1645 288.919 1645 288.919 1644.8 288.719C1643.4 287.719 1643.4 285.319 1645 284.519C1645.2 284.319 1645.2 284.319 1645.2 284.119C1645.2 282.719 1645.6 281.319 1646 280.119C1646.4 279.119 1646.8 278.319 1647.2 277.719C1647.4 277.519 1647.4 277.519 1647.2 277.319C1645 276.719 1642.8 275.919 1640.6 275.319C1640.4 275.319 1640.2 275.119 1640 274.719C1640 274.319 1640.2 274.119 1640.6 273.919C1642.2 273.319 1644 272.919 1645.8 272.319C1651.6 270.519 1657.6 268.719 1663.4 266.719C1663.6 266.719 1663.6 266.519 1663.8 266.519C1664 266.519 1664.2 266.519 1664.2 266.519C1664.8 266.519 1665.4 266.919 1666 266.919C1669.6 268.119 1673.4 269.319 1677 270.319C1679.4 271.119 1681.8 271.919 1684.2 272.519C1685.2 272.919 1686.2 273.119 1687.2 273.519C1687.4 273.519 1687.6 273.719 1687.8 274.119C1688 274.519 1688 274.719 1688 274.919Z" fill="#2D7D9A"/>
<path d="M1664.6 266.519C1664.6 266.719 1664.6 266.719 1664.6 266.519C1664.4 266.519 1664.2 266.519 1664 266.519C1664.2 266.519 1664.4 266.519 1664.6 266.519Z" fill="#2D7D9A"/>
<path d="M1677.2 281.318C1677.2 281.918 1677.2 282.518 1677.4 283.118C1677.4 284.518 1677.6 285.918 1677.6 287.318C1677.8 288.518 1677.2 289.518 1676.2 290.318C1675 291.118 1673.8 291.718 1672.4 292.118C1669.4 293.118 1666.2 293.318 1663 293.118C1660.8 293.118 1658.6 292.718 1656.4 292.118C1654.8 291.718 1653.4 291.118 1652.2 290.118C1651.6 289.518 1651.2 289.118 1651 288.118C1651 287.718 1651 287.518 1651 287.118C1651.2 285.118 1651.2 283.318 1651.4 281.318C1651.4 281.118 1651.4 281.118 1651.6 281.118C1655.6 282.318 1659.4 283.518 1663.4 284.718C1664.2 284.918 1664.8 284.918 1665.6 284.718C1669.4 283.518 1673.2 282.318 1677.2 281.118C1677 281.518 1677.2 281.318 1677.2 281.318Z" fill="#2D7D9A"/>
<g clip-path="url(#clip2)">
<path d="M1792.77 532.3C1792.57 532.5 1792.37 532.7 1792.17 532.9C1785.97 534.9 1779.57 536.9 1773.37 538.7C1771.97 539.1 1770.57 539.5 1769.17 540.1C1768.97 540.1 1768.57 540.1 1768.37 540.1C1763.97 538.5 1759.77 537.1 1755.37 535.7C1754.97 535.7 1754.97 535.7 1754.77 535.9C1753.97 536.7 1753.57 537.7 1753.37 538.7C1752.97 539.7 1752.97 540.5 1752.77 541.5C1752.77 541.7 1752.77 541.9 1752.97 541.9C1754.37 542.9 1754.37 545.1 1752.97 546.1C1752.77 546.3 1752.77 546.3 1752.77 546.5C1753.17 548.7 1753.37 550.9 1753.57 553.1C1753.57 553.9 1753.77 554.5 1753.77 555.3C1753.77 555.7 1753.57 556.1 1753.17 556.1C1751.77 556.1 1750.57 556.1 1749.17 556.1C1748.77 556.1 1748.57 555.7 1748.57 555.3C1748.77 553.5 1748.97 551.7 1749.37 549.9C1749.57 548.7 1749.57 547.7 1749.77 546.5C1749.77 546.3 1749.77 546.3 1749.57 546.1C1748.17 545.1 1748.17 542.7 1749.77 541.9C1749.97 541.7 1749.97 541.7 1749.97 541.5C1749.97 540.1 1750.37 538.7 1750.77 537.5C1751.17 536.5 1751.57 535.7 1751.97 535.1C1752.17 534.9 1752.17 534.9 1751.97 534.7C1749.77 534.1 1747.57 533.3 1745.37 532.7C1745.17 532.7 1744.97 532.5 1744.77 532.1C1744.77 531.7 1744.97 531.5 1745.37 531.3C1746.97 530.7 1748.77 530.3 1750.57 529.7C1756.37 527.9 1762.37 526.1 1768.17 524.1C1768.37 524.1 1768.37 523.9 1768.57 523.9C1768.77 523.9 1768.97 523.9 1768.97 523.9C1769.57 523.9 1770.17 524.3 1770.77 524.3C1774.37 525.5 1778.17 526.7 1781.77 527.7C1784.17 528.5 1786.57 529.3 1788.97 529.9C1789.97 530.3 1790.97 530.5 1791.97 530.9C1792.17 530.9 1792.37 531.1 1792.57 531.5C1792.77 531.9 1792.77 532.1 1792.77 532.3Z" fill="#2D7D9A"/>
<path d="M1769.37 523.9C1769.37 524.1 1769.37 524.1 1769.37 523.9C1769.17 523.9 1768.97 523.9 1768.77 523.9C1768.97 523.9 1769.17 523.9 1769.37 523.9Z" fill="#2D7D9A"/>
<path d="M1781.97 538.7C1781.97 539.3 1781.97 539.9 1782.17 540.5C1782.17 541.9 1782.37 543.3 1782.37 544.7C1782.57 545.9 1781.97 546.9 1780.97 547.7C1779.77 548.5 1778.57 549.1 1777.17 549.5C1774.17 550.5 1770.97 550.7 1767.77 550.5C1765.57 550.5 1763.37 550.1 1761.17 549.5C1759.57 549.1 1758.17 548.5 1756.97 547.5C1756.37 546.9 1755.97 546.5 1755.77 545.5C1755.77 545.1 1755.77 544.9 1755.77 544.5C1755.97 542.5 1755.97 540.7 1756.17 538.7C1756.17 538.5 1756.17 538.5 1756.37 538.5C1760.37 539.7 1764.17 540.9 1768.17 542.1C1768.97 542.3 1769.57 542.3 1770.37 542.1C1774.17 540.9 1777.97 539.7 1781.97 538.5C1781.77 538.9 1781.97 538.7 1781.97 538.7Z" fill="#2D7D9A"/>
</g>
<g clip-path="url(#clip3)">
<path d="M1558.2 518.87C1558 519.07 1557.8 519.27 1557.6 519.47C1551.4 521.47 1545 523.47 1538.8 525.27C1537.4 525.67 1536 526.07 1534.6 526.67C1534.4 526.67 1534 526.67 1533.8 526.67C1529.4 525.07 1525.2 523.67 1520.8 522.27C1520.4 522.27 1520.4 522.27 1520.2 522.47C1519.4 523.27 1519 524.27 1518.8 525.27C1518.4 526.27 1518.4 527.07 1518.2 528.07C1518.2 528.27 1518.2 528.47 1518.4 528.47C1519.8 529.47 1519.8 531.67 1518.4 532.67C1518.2 532.87 1518.2 532.87 1518.2 533.07C1518.6 535.27 1518.8 537.47 1519 539.67C1519 540.47 1519.2 541.07 1519.2 541.87C1519.2 542.27 1519 542.67 1518.6 542.67C1517.2 542.67 1516 542.67 1514.6 542.67C1514.2 542.67 1514 542.27 1514 541.87C1514.2 540.07 1514.4 538.27 1514.8 536.47C1515 535.27 1515 534.27 1515.2 533.07C1515.2 532.87 1515.2 532.87 1515 532.67C1513.6 531.67 1513.6 529.27 1515.2 528.47C1515.4 528.27 1515.4 528.27 1515.4 528.07C1515.4 526.67 1515.8 525.27 1516.2 524.07C1516.6 523.07 1517 522.27 1517.4 521.67C1517.6 521.47 1517.6 521.47 1517.4 521.27C1515.2 520.67 1513 519.87 1510.8 519.27C1510.6 519.27 1510.4 519.07 1510.2 518.67C1510.2 518.27 1510.4 518.07 1510.8 517.87C1512.4 517.27 1514.2 516.87 1516 516.27C1521.8 514.47 1527.8 512.67 1533.6 510.67C1533.8 510.67 1533.8 510.47 1534 510.47C1534.2 510.47 1534.4 510.47 1534.4 510.47C1535 510.47 1535.6 510.87 1536.2 510.87C1539.8 512.07 1543.6 513.27 1547.2 514.27C1549.6 515.07 1552 515.87 1554.4 516.47C1555.4 516.87 1556.4 517.07 1557.4 517.47C1557.6 517.47 1557.8 517.67 1558 518.07C1558.2 518.47 1558.2 518.67 1558.2 518.87Z" fill="#2D7D9A"/>
<path d="M1534.8 510.47C1534.8 510.67 1534.8 510.67 1534.8 510.47C1534.6 510.47 1534.4 510.47 1534.2 510.47C1534.4 510.47 1534.6 510.47 1534.8 510.47Z" fill="#2D7D9A"/>
<path d="M1547.4 525.27C1547.4 525.87 1547.4 526.47 1547.6 527.07C1547.6 528.47 1547.8 529.87 1547.8 531.27C1548 532.47 1547.4 533.47 1546.4 534.27C1545.2 535.07 1544 535.67 1542.6 536.07C1539.6 537.07 1536.4 537.27 1533.2 537.07C1531 537.07 1528.8 536.67 1526.6 536.07C1525 535.67 1523.6 535.07 1522.4 534.07C1521.8 533.47 1521.4 533.07 1521.2 532.07C1521.2 531.67 1521.2 531.47 1521.2 531.07C1521.4 529.07 1521.4 527.27 1521.6 525.27C1521.6 525.07 1521.6 525.07 1521.8 525.07C1525.8 526.27 1529.6 527.47 1533.6 528.67C1534.4 528.87 1535 528.87 1535.8 528.67C1539.6 527.47 1543.4 526.27 1547.4 525.07C1547.2 525.47 1547.4 525.27 1547.4 525.27Z" fill="#2D7D9A"/>
</g>
<g clip-path="url(#clip4)">
<path d="M1308.6 631.3C1308.4 631.5 1308.2 631.7 1308 631.9C1301.8 633.9 1295.4 635.9 1289.2 637.7C1287.8 638.1 1286.4 638.5 1285 639.1C1284.8 639.1 1284.4 639.1 1284.2 639.1C1279.8 637.5 1275.6 636.1 1271.2 634.7C1270.8 634.7 1270.8 634.7 1270.6 634.9C1269.8 635.7 1269.4 636.7 1269.2 637.7C1268.8 638.7 1268.8 639.5 1268.6 640.5C1268.6 640.7 1268.6 640.9 1268.8 640.9C1270.2 641.9 1270.2 644.1 1268.8 645.1C1268.6 645.3 1268.6 645.3 1268.6 645.5C1269 647.7 1269.2 649.9 1269.4 652.1C1269.4 652.9 1269.6 653.5 1269.6 654.3C1269.6 654.7 1269.4 655.1 1269 655.1C1267.6 655.1 1266.4 655.1 1265 655.1C1264.6 655.1 1264.4 654.7 1264.4 654.3C1264.6 652.5 1264.8 650.7 1265.2 648.9C1265.4 647.7 1265.4 646.7 1265.6 645.5C1265.6 645.3 1265.6 645.3 1265.4 645.1C1264 644.1 1264 641.7 1265.6 640.9C1265.8 640.7 1265.8 640.7 1265.8 640.5C1265.8 639.1 1266.2 637.7 1266.6 636.5C1267 635.5 1267.4 634.7 1267.8 634.1C1268 633.9 1268 633.9 1267.8 633.7C1265.6 633.1 1263.4 632.3 1261.2 631.7C1261 631.7 1260.8 631.5 1260.6 631.1C1260.6 630.7 1260.8 630.5 1261.2 630.3C1262.8 629.7 1264.6 629.3 1266.4 628.7C1272.2 626.9 1278.2 625.1 1284 623.1C1284.2 623.1 1284.2 622.9 1284.4 622.9C1284.6 622.9 1284.8 622.9 1284.8 622.9C1285.4 622.9 1286 623.3 1286.6 623.3C1290.2 624.5 1294 625.7 1297.6 626.7C1300 627.5 1302.4 628.3 1304.8 628.9C1305.8 629.3 1306.8 629.5 1307.8 629.9C1308 629.9 1308.2 630.1 1308.4 630.5C1308.6 630.9 1308.6 631.1 1308.6 631.3Z" fill="#2D7D9A"/>
<path d="M1285.2 622.9C1285.2 623.1 1285.2 623.1 1285.2 622.9C1285 622.9 1284.8 622.9 1284.6 622.9C1284.8 622.9 1285 622.9 1285.2 622.9Z" fill="#2D7D9A"/>
<path d="M1297.8 637.7C1297.8 638.3 1297.8 638.9 1298 639.5C1298 640.9 1298.2 642.3 1298.2 643.7C1298.4 644.9 1297.8 645.9 1296.8 646.7C1295.6 647.5 1294.4 648.1 1293 648.5C1290 649.5 1286.8 649.7 1283.6 649.5C1281.4 649.5 1279.2 649.1 1277 648.5C1275.4 648.1 1274 647.5 1272.8 646.5C1272.2 645.9 1271.8 645.5 1271.6 644.5C1271.6 644.1 1271.6 643.9 1271.6 643.5C1271.8 641.5 1271.8 639.7 1272 637.7C1272 637.5 1272 637.5 1272.2 637.5C1276.2 638.7 1280 639.9 1284 641.1C1284.8 641.3 1285.4 641.3 1286.2 641.1C1290 639.9 1293.8 638.7 1297.8 637.5C1297.6 637.9 1297.8 637.7 1297.8 637.7Z" fill="#2D7D9A"/>
</g>
<path d="M947 688.37C946.8 688.57 946.6 688.77 946.4 688.97C940.2 690.97 933.8 692.97 927.6 694.77C926.2 695.17 924.8 695.57 923.4 696.17C923.2 696.17 922.8 696.17 922.6 696.17C918.2 694.57 914 693.17 909.6 691.77C909.2 691.77 909.2 691.77 909 691.97C908.2 692.77 907.8 693.77 907.6 694.77C907.2 695.77 907.2 696.57 907 697.57C907 697.77 907 697.97 907.2 697.97C908.6 698.97 908.6 701.17 907.2 702.17C907 702.37 907 702.37 907 702.57C907.4 704.77 907.6 706.97 907.8 709.17C907.8 709.97 908 710.57 908 711.37C908 711.77 907.8 712.17 907.4 712.17C906 712.17 904.8 712.17 903.4 712.17C903 712.17 902.8 711.77 902.8 711.37C903 709.57 903.2 707.77 903.6 705.97C903.8 704.77 903.8 703.77 904 702.57C904 702.37 904 702.37 903.8 702.17C902.4 701.17 902.4 698.77 904 697.97C904.2 697.77 904.2 697.77 904.2 697.57C904.2 696.17 904.6 694.77 905 693.57C905.4 692.57 905.8 691.77 906.2 691.17C906.4 690.97 906.4 690.97 906.2 690.77C904 690.17 901.8 689.37 899.6 688.77C899.4 688.77 899.2 688.57 899 688.17C899 687.77 899.2 687.57 899.6 687.37C901.2 686.77 903 686.37 904.8 685.77C910.6 683.97 916.6 682.17 922.4 680.17C922.6 680.17 922.6 679.97 922.8 679.97C923 679.97 923.2 679.97 923.2 679.97C923.8 679.97 924.4 680.37 925 680.37C928.6 681.57 932.4 682.77 936 683.77C938.4 684.57 940.8 685.37 943.2 685.97C944.2 686.37 945.2 686.57 946.2 686.97C946.4 686.97 946.6 687.17 946.8 687.57C947 687.97 947 688.17 947 688.37Z" fill="#2D7D9A"/>
<path d="M923.6 679.97C923.6 680.17 923.6 680.17 923.6 679.97C923.4 679.97 923.2 679.97 923 679.97C923.2 679.97 923.4 679.97 923.6 679.97Z" fill="#2D7D9A"/>
<path d="M936.2 694.77C936.2 695.37 936.2 695.97 936.4 696.57C936.4 697.97 936.6 699.37 936.6 700.77C936.8 701.97 936.2 702.97 935.2 703.77C934 704.57 932.8 705.17 931.4 705.57C928.4 706.57 925.2 706.77 922 706.57C919.8 706.57 917.6 706.17 915.4 705.57C913.8 705.17 912.4 704.57 911.2 703.57C910.6 702.97 910.2 702.57 910 701.57C910 701.17 910 700.97 910 700.57C910.2 698.57 910.2 696.77 910.4 694.77C910.4 694.57 910.4 694.57 910.6 694.57C914.6 695.77 918.4 696.97 922.4 698.17C923.2 698.37 923.8 698.37 924.6 698.17C928.4 696.97 932.2 695.77 936.2 694.57C936 694.97 936.2 694.77 936.2 694.77Z" fill="#2D7D9A"/>
<path d="M1132 815.3C1131.8 815.5 1131.6 815.7 1131.4 815.9C1125.2 817.9 1118.8 819.9 1112.6 821.7C1111.2 822.1 1109.8 822.5 1108.4 823.1C1108.2 823.1 1107.8 823.1 1107.6 823.1C1103.2 821.5 1099 820.1 1094.6 818.7C1094.2 818.7 1094.2 818.7 1094 818.9C1093.2 819.7 1092.8 820.7 1092.6 821.7C1092.2 822.7 1092.2 823.5 1092 824.5C1092 824.7 1092 824.9 1092.2 824.9C1093.6 825.9 1093.6 828.1 1092.2 829.1C1092 829.3 1092 829.3 1092 829.5C1092.4 831.7 1092.6 833.9 1092.8 836.1C1092.8 836.9 1093 837.5 1093 838.3C1093 838.7 1092.8 839.1 1092.4 839.1C1091 839.1 1089.8 839.1 1088.4 839.1C1088 839.1 1087.8 838.7 1087.8 838.3C1088 836.5 1088.2 834.7 1088.6 832.9C1088.8 831.7 1088.8 830.7 1089 829.5C1089 829.3 1089 829.3 1088.8 829.1C1087.4 828.1 1087.4 825.7 1089 824.9C1089.2 824.7 1089.2 824.7 1089.2 824.5C1089.2 823.1 1089.6 821.7 1090 820.5C1090.4 819.5 1090.8 818.7 1091.2 818.1C1091.4 817.9 1091.4 817.9 1091.2 817.7C1089 817.1 1086.8 816.3 1084.6 815.7C1084.4 815.7 1084.2 815.5 1084 815.1C1084 814.7 1084.2 814.5 1084.6 814.3C1086.2 813.7 1088 813.3 1089.8 812.7C1095.6 810.9 1101.6 809.1 1107.4 807.1C1107.6 807.1 1107.6 806.9 1107.8 806.9C1108 806.9 1108.2 806.9 1108.2 806.9C1108.8 806.9 1109.4 807.3 1110 807.3C1113.6 808.5 1117.4 809.7 1121 810.7C1123.4 811.5 1125.8 812.3 1128.2 812.9C1129.2 813.3 1130.2 813.5 1131.2 813.9C1131.4 813.9 1131.6 814.1 1131.8 814.5C1132 814.9 1132 815.1 1132 815.3Z" fill="#2D7D9A"/>
<path d="M1108.6 806.9C1108.6 807.1 1108.6 807.1 1108.6 806.9C1108.4 806.9 1108.2 806.9 1108 806.9C1108.2 806.9 1108.4 806.9 1108.6 806.9Z" fill="#2D7D9A"/>
<path d="M1121.2 821.7C1121.2 822.3 1121.2 822.9 1121.4 823.5C1121.4 824.9 1121.6 826.3 1121.6 827.7C1121.8 828.9 1121.2 829.9 1120.2 830.7C1119 831.5 1117.8 832.1 1116.4 832.5C1113.4 833.5 1110.2 833.7 1107 833.5C1104.8 833.5 1102.6 833.1 1100.4 832.5C1098.8 832.1 1097.4 831.5 1096.2 830.5C1095.6 829.9 1095.2 829.5 1095 828.5C1095 828.1 1095 827.9 1095 827.5C1095.2 825.5 1095.2 823.7 1095.4 821.7C1095.4 821.5 1095.4 821.5 1095.6 821.5C1099.6 822.7 1103.4 823.9 1107.4 825.1C1108.2 825.3 1108.8 825.3 1109.6 825.1C1113.4 823.9 1117.2 822.7 1121.2 821.5C1121 821.9 1121.2 821.7 1121.2 821.7Z" fill="#2D7D9A"/>
<g clip-path="url(#clip5)">
<path d="M1558.8 689.87C1558.6 690.07 1558.4 690.27 1558.2 690.47C1552 692.47 1545.6 694.47 1539.4 696.27C1538 696.67 1536.6 697.07 1535.2 697.67C1535 697.67 1534.6 697.67 1534.4 697.67C1530 696.07 1525.8 694.67 1521.4 693.27C1521 693.27 1521 693.27 1520.8 693.47C1520 694.27 1519.6 695.27 1519.4 696.27C1519 697.27 1519 698.07 1518.8 699.07C1518.8 699.27 1518.8 699.47 1519 699.47C1520.4 700.47 1520.4 702.67 1519 703.67C1518.8 703.87 1518.8 703.87 1518.8 704.07C1519.2 706.27 1519.4 708.47 1519.6 710.67C1519.6 711.47 1519.8 712.07 1519.8 712.87C1519.8 713.27 1519.6 713.67 1519.2 713.67C1517.8 713.67 1516.6 713.67 1515.2 713.67C1514.8 713.67 1514.6 713.27 1514.6 712.87C1514.8 711.07 1515 709.27 1515.4 707.47C1515.6 706.27 1515.6 705.27 1515.8 704.07C1515.8 703.87 1515.8 703.87 1515.6 703.67C1514.2 702.67 1514.2 700.27 1515.8 699.47C1516 699.27 1516 699.27 1516 699.07C1516 697.67 1516.4 696.27 1516.8 695.07C1517.2 694.07 1517.6 693.27 1518 692.67C1518.2 692.47 1518.2 692.47 1518 692.27C1515.8 691.67 1513.6 690.87 1511.4 690.27C1511.2 690.27 1511 690.07 1510.8 689.67C1510.8 689.27 1511 689.07 1511.4 688.87C1513 688.27 1514.8 687.87 1516.6 687.27C1522.4 685.47 1528.4 683.67 1534.2 681.67C1534.4 681.67 1534.4 681.47 1534.6 681.47C1534.8 681.47 1535 681.47 1535 681.47C1535.6 681.47 1536.2 681.87 1536.8 681.87C1540.4 683.07 1544.2 684.27 1547.8 685.27C1550.2 686.07 1552.6 686.87 1555 687.47C1556 687.87 1557 688.07 1558 688.47C1558.2 688.47 1558.4 688.67 1558.6 689.07C1558.8 689.47 1558.8 689.67 1558.8 689.87Z" fill="#2D7D9A"/>
<path d="M1535.4 681.47C1535.4 681.67 1535.4 681.67 1535.4 681.47C1535.2 681.47 1535 681.47 1534.8 681.47C1535 681.47 1535.2 681.47 1535.4 681.47Z" fill="#2D7D9A"/>
<path d="M1548 696.27C1548 696.87 1548 697.47 1548.2 698.07C1548.2 699.47 1548.4 700.87 1548.4 702.27C1548.6 703.47 1548 704.47 1547 705.27C1545.8 706.07 1544.6 706.67 1543.2 707.07C1540.2 708.07 1537 708.27 1533.8 708.07C1531.6 708.07 1529.4 707.67 1527.2 707.07C1525.6 706.67 1524.2 706.07 1523 705.07C1522.4 704.47 1522 704.07 1521.8 703.07C1521.8 702.67 1521.8 702.47 1521.8 702.07C1522 700.07 1522 698.27 1522.2 696.27C1522.2 696.07 1522.2 696.07 1522.4 696.07C1526.4 697.27 1530.2 698.47 1534.2 699.67C1535 699.87 1535.6 699.87 1536.4 699.67C1540.2 698.47 1544 697.27 1548 696.07C1547.8 696.47 1548 696.27 1548 696.27Z" fill="#2D7D9A"/>
</g>
<g clip-path="url(#clip6)">
<path d="M1521.8 823.201C1521.6 823.401 1521.4 823.601 1521.2 823.801C1515 825.801 1508.6 827.801 1502.4 829.601C1501 830.001 1499.6 830.401 1498.2 831.001C1498 831.001 1497.6 831.001 1497.4 831.001C1493 829.401 1488.8 828.001 1484.4 826.601C1484 826.601 1484 826.601 1483.8 826.801C1483 827.601 1482.6 828.601 1482.4 829.601C1482 830.601 1482 831.401 1481.8 832.401C1481.8 832.601 1481.8 832.801 1482 832.801C1483.4 833.801 1483.4 836.001 1482 837.001C1481.8 837.201 1481.8 837.201 1481.8 837.401C1482.2 839.601 1482.4 841.801 1482.6 844.001C1482.6 844.801 1482.8 845.401 1482.8 846.201C1482.8 846.601 1482.6 847.001 1482.2 847.001C1480.8 847.001 1479.6 847.001 1478.2 847.001C1477.8 847.001 1477.6 846.601 1477.6 846.201C1477.8 844.401 1478 842.601 1478.4 840.801C1478.6 839.601 1478.6 838.601 1478.8 837.401C1478.8 837.201 1478.8 837.201 1478.6 837.001C1477.2 836.001 1477.2 833.601 1478.8 832.801C1479 832.601 1479 832.601 1479 832.401C1479 831.001 1479.4 829.601 1479.8 828.401C1480.2 827.401 1480.6 826.601 1481 826.001C1481.2 825.801 1481.2 825.801 1481 825.601C1478.8 825.001 1476.6 824.201 1474.4 823.601C1474.2 823.601 1474 823.401 1473.8 823.001C1473.8 822.601 1474 822.401 1474.4 822.201C1476 821.601 1477.8 821.201 1479.6 820.601C1485.4 818.801 1491.4 817.001 1497.2 815.001C1497.4 815.001 1497.4 814.801 1497.6 814.801C1497.8 814.801 1498 814.801 1498 814.801C1498.6 814.801 1499.2 815.201 1499.8 815.201C1503.4 816.401 1507.2 817.601 1510.8 818.601C1513.2 819.401 1515.6 820.201 1518 820.801C1519 821.201 1520 821.401 1521 821.801C1521.2 821.801 1521.4 822.001 1521.6 822.401C1521.8 822.801 1521.8 823.001 1521.8 823.201Z" fill="#2D7D9A"/>
<path d="M1498.4 814.801C1498.4 815.001 1498.4 815.001 1498.4 814.801C1498.2 814.801 1498 814.801 1497.8 814.801C1498 814.801 1498.2 814.801 1498.4 814.801Z" fill="#2D7D9A"/>
<path d="M1511 829.6C1511 830.2 1511 830.8 1511.2 831.4C1511.2 832.8 1511.4 834.2 1511.4 835.6C1511.6 836.8 1511 837.8 1510 838.6C1508.8 839.4 1507.6 840 1506.2 840.4C1503.2 841.4 1500 841.6 1496.8 841.4C1494.6 841.4 1492.4 841 1490.2 840.4C1488.6 840 1487.2 839.4 1486 838.4C1485.4 837.8 1485 837.4 1484.8 836.4C1484.8 836 1484.8 835.8 1484.8 835.4C1485 833.4 1485 831.6 1485.2 829.6C1485.2 829.4 1485.2 829.4 1485.4 829.4C1489.4 830.6 1493.2 831.8 1497.2 833C1498 833.2 1498.6 833.2 1499.4 833C1503.2 831.8 1507 830.6 1511 829.4C1510.8 829.8 1511 829.6 1511 829.6Z" fill="#2D7D9A"/>
</g>
<g clip-path="url(#clip7)">
<path d="M1369.64 857.771C1369.44 857.971 1369.24 858.171 1369.04 858.371C1362.84 860.371 1356.44 862.371 1350.24 864.171C1348.84 864.571 1347.44 864.971 1346.04 865.571C1345.84 865.571 1345.44 865.571 1345.24 865.571C1340.84 863.971 1336.64 862.571 1332.24 861.171C1331.84 861.171 1331.84 861.171 1331.64 861.371C1330.84 862.171 1330.44 863.171 1330.24 864.171C1329.84 865.171 1329.84 865.971 1329.64 866.971C1329.64 867.171 1329.64 867.371 1329.84 867.371C1331.24 868.371 1331.24 870.571 1329.84 871.571C1329.64 871.771 1329.64 871.771 1329.64 871.971C1330.04 874.171 1330.24 876.371 1330.44 878.571C1330.44 879.371 1330.64 879.971 1330.64 880.771C1330.64 881.171 1330.44 881.571 1330.04 881.571C1328.64 881.571 1327.44 881.571 1326.04 881.571C1325.64 881.571 1325.44 881.171 1325.44 880.771C1325.64 878.971 1325.84 877.171 1326.24 875.371C1326.44 874.171 1326.44 873.171 1326.64 871.971C1326.64 871.771 1326.64 871.771 1326.44 871.571C1325.04 870.571 1325.04 868.171 1326.64 867.371C1326.84 867.171 1326.84 867.171 1326.84 866.971C1326.84 865.571 1327.24 864.171 1327.64 862.971C1328.04 861.971 1328.44 861.171 1328.84 860.571C1329.04 860.371 1329.04 860.371 1328.84 860.171C1326.64 859.571 1324.44 858.771 1322.24 858.171C1322.04 858.171 1321.84 857.971 1321.64 857.571C1321.64 857.171 1321.84 856.971 1322.24 856.771C1323.84 856.171 1325.64 855.771 1327.44 855.171C1333.24 853.371 1339.24 851.571 1345.04 849.571C1345.24 849.571 1345.24 849.371 1345.44 849.371C1345.64 849.371 1345.84 849.371 1345.84 849.371C1346.44 849.371 1347.04 849.771 1347.64 849.771C1351.24 850.971 1355.04 852.171 1358.64 853.171C1361.04 853.971 1363.44 854.771 1365.84 855.371C1366.84 855.771 1367.84 855.971 1368.84 856.371C1369.04 856.371 1369.24 856.571 1369.44 856.971C1369.64 857.371 1369.64 857.571 1369.64 857.771Z" fill="#2D7D9A"/>
<path d="M1346.24 849.371C1346.24 849.571 1346.24 849.571 1346.24 849.371C1346.04 849.371 1345.84 849.371 1345.64 849.371C1345.84 849.371 1346.04 849.371 1346.24 849.371Z" fill="#2D7D9A"/>
<path d="M1358.84 864.17C1358.84 864.77 1358.84 865.37 1359.04 865.97C1359.04 867.37 1359.24 868.77 1359.24 870.17C1359.44 871.37 1358.84 872.37 1357.84 873.17C1356.64 873.97 1355.44 874.57 1354.04 874.97C1351.04 875.97 1347.84 876.17 1344.64 875.97C1342.44 875.97 1340.24 875.57 1338.04 874.97C1336.44 874.57 1335.04 873.97 1333.84 872.97C1333.24 872.37 1332.84 871.97 1332.64 870.97C1332.64 870.57 1332.64 870.37 1332.64 869.97C1332.84 867.97 1332.84 866.17 1333.04 864.17C1333.04 863.97 1333.04 863.97 1333.24 863.97C1337.24 865.17 1341.04 866.37 1345.04 867.57C1345.84 867.77 1346.44 867.77 1347.24 867.57C1351.04 866.37 1354.84 865.17 1358.84 863.97C1358.64 864.37 1358.84 864.17 1358.84 864.17Z" fill="#2D7D9A"/>
</g>
<g clip-path="url(#clip8)">
<path d="M1830.41 905.771C1830.21 905.971 1830.01 906.171 1829.81 906.371C1823.61 908.371 1817.21 910.371 1811.01 912.171C1809.61 912.571 1808.21 912.971 1806.81 913.571C1806.61 913.571 1806.21 913.571 1806.01 913.571C1801.61 911.971 1797.41 910.571 1793.01 909.171C1792.61 909.171 1792.61 909.171 1792.41 909.371C1791.61 910.171 1791.21 911.171 1791.01 912.171C1790.61 913.171 1790.61 913.971 1790.41 914.971C1790.41 915.171 1790.41 915.371 1790.61 915.371C1792.01 916.371 1792.01 918.571 1790.61 919.571C1790.41 919.771 1790.41 919.771 1790.41 919.971C1790.81 922.171 1791.01 924.371 1791.21 926.571C1791.21 927.371 1791.41 927.971 1791.41 928.771C1791.41 929.171 1791.21 929.571 1790.81 929.571C1789.41 929.571 1788.21 929.571 1786.81 929.571C1786.41 929.571 1786.21 929.171 1786.21 928.771C1786.41 926.971 1786.61 925.171 1787.01 923.371C1787.21 922.171 1787.21 921.171 1787.41 919.971C1787.41 919.771 1787.41 919.771 1787.21 919.571C1785.81 918.571 1785.81 916.171 1787.41 915.371C1787.61 915.171 1787.61 915.171 1787.61 914.971C1787.61 913.571 1788.01 912.171 1788.41 910.971C1788.81 909.971 1789.21 909.171 1789.61 908.571C1789.81 908.371 1789.81 908.371 1789.61 908.171C1787.41 907.571 1785.21 906.771 1783.01 906.171C1782.81 906.171 1782.61 905.971 1782.41 905.571C1782.41 905.171 1782.61 904.971 1783.01 904.771C1784.61 904.171 1786.41 903.771 1788.21 903.171C1794.01 901.371 1800.01 899.571 1805.81 897.571C1806.01 897.571 1806.01 897.371 1806.21 897.371C1806.41 897.371 1806.61 897.371 1806.61 897.371C1807.21 897.371 1807.81 897.771 1808.41 897.771C1812.01 898.971 1815.81 900.171 1819.41 901.171C1821.81 901.971 1824.21 902.771 1826.61 903.371C1827.61 903.771 1828.61 903.971 1829.61 904.371C1829.81 904.371 1830.01 904.571 1830.21 904.971C1830.41 905.371 1830.41 905.571 1830.41 905.771Z" fill="#2D7D9A"/>
<path d="M1807.01 897.371C1807.01 897.571 1807.01 897.571 1807.01 897.371C1806.81 897.371 1806.61 897.371 1806.41 897.371C1806.61 897.371 1806.81 897.371 1807.01 897.371Z" fill="#2D7D9A"/>
<path d="M1819.61 912.17C1819.61 912.77 1819.61 913.37 1819.81 913.97C1819.81 915.37 1820.01 916.77 1820.01 918.17C1820.21 919.37 1819.61 920.37 1818.61 921.17C1817.41 921.97 1816.21 922.57 1814.81 922.97C1811.81 923.97 1808.61 924.17 1805.41 923.97C1803.21 923.97 1801.01 923.57 1798.81 922.97C1797.21 922.57 1795.81 921.97 1794.61 920.97C1794.01 920.37 1793.61 919.97 1793.41 918.97C1793.41 918.57 1793.41 918.37 1793.41 917.97C1793.61 915.97 1793.61 914.17 1793.81 912.17C1793.81 911.97 1793.81 911.97 1794.01 911.97C1798.01 913.17 1801.81 914.37 1805.81 915.57C1806.61 915.77 1807.21 915.77 1808.01 915.57C1811.81 914.37 1815.61 913.17 1819.61 911.97C1819.41 912.37 1819.61 912.17 1819.61 912.17Z" fill="#2D7D9A"/>
</g>
<path d="M750 953.771C749.8 953.971 749.6 954.171 749.4 954.371C743.2 956.371 736.8 958.371 730.6 960.171C729.2 960.571 727.8 960.971 726.4 961.571C726.2 961.571 725.8 961.571 725.6 961.571C721.2 959.971 717 958.571 712.6 957.171C712.2 957.171 712.2 957.171 712 957.371C711.2 958.171 710.8 959.171 710.6 960.171C710.2 961.171 710.2 961.971 710 962.971C710 963.171 710 963.371 710.2 963.371C711.6 964.371 711.6 966.571 710.2 967.571C710 967.771 710 967.771 710 967.971C710.4 970.171 710.6 972.371 710.8 974.571C710.8 975.371 711 975.971 711 976.771C711 977.171 710.8 977.571 710.4 977.571C709 977.571 707.8 977.571 706.4 977.571C706 977.571 705.8 977.171 705.8 976.771C706 974.971 706.2 973.171 706.6 971.371C706.8 970.171 706.8 969.171 707 967.971C707 967.771 707 967.771 706.8 967.571C705.4 966.571 705.4 964.171 707 963.371C707.2 963.171 707.2 963.171 707.2 962.971C707.2 961.571 707.6 960.171 708 958.971C708.4 957.971 708.8 957.171 709.2 956.571C709.4 956.371 709.4 956.371 709.2 956.171C707 955.571 704.8 954.771 702.6 954.171C702.4 954.171 702.2 953.971 702 953.571C702 953.171 702.2 952.971 702.6 952.771C704.2 952.171 706 951.771 707.8 951.171C713.6 949.371 719.6 947.571 725.4 945.571C725.6 945.571 725.6 945.371 725.8 945.371C726 945.371 726.2 945.371 726.2 945.371C726.8 945.371 727.4 945.771 728 945.771C731.6 946.971 735.4 948.171 739 949.171C741.4 949.971 743.8 950.771 746.2 951.371C747.2 951.771 748.2 951.971 749.2 952.371C749.4 952.371 749.6 952.571 749.8 952.971C750 953.371 750 953.571 750 953.771Z" fill="#2D7D9A"/>
<path d="M726.6 945.371C726.6 945.571 726.6 945.571 726.6 945.371C726.4 945.371 726.2 945.371 726 945.371C726.2 945.371 726.4 945.371 726.6 945.371Z" fill="#2D7D9A"/>
<path d="M739.2 960.17C739.2 960.77 739.2 961.37 739.4 961.97C739.4 963.37 739.6 964.77 739.6 966.17C739.8 967.37 739.2 968.37 738.2 969.17C737 969.97 735.8 970.57 734.4 970.97C731.4 971.97 728.2 972.17 725 971.97C722.8 971.97 720.6 971.57 718.4 970.97C716.8 970.57 715.4 969.97 714.2 968.97C713.6 968.37 713.2 967.97 713 966.97C713 966.57 713 966.37 713 965.97C713.2 963.97 713.2 962.17 713.4 960.17C713.4 959.97 713.4 959.97 713.6 959.97C717.6 961.17 721.4 962.37 725.4 963.57C726.2 963.77 726.8 963.77 727.6 963.57C731.4 962.37 735.2 961.17 739.2 959.97C739 960.37 739.2 960.17 739.2 960.17Z" fill="#2D7D9A"/>
<path d="M984 958.305C983.8 958.505 983.6 958.705 983.4 958.905C977.2 960.905 970.8 962.905 964.6 964.705C963.2 965.105 961.8 965.505 960.4 966.105C960.2 966.105 959.8 966.105 959.6 966.105C955.2 964.505 951 963.105 946.6 961.705C946.2 961.705 946.2 961.705 946 961.905C945.2 962.705 944.8 963.705 944.6 964.705C944.2 965.705 944.2 966.505 944 967.505C944 967.705 944 967.905 944.2 967.905C945.6 968.905 945.6 971.105 944.2 972.105C944 972.305 944 972.305 944 972.505C944.4 974.705 944.6 976.905 944.8 979.105C944.8 979.905 945 980.505 945 981.305C945 981.705 944.8 982.105 944.4 982.105C943 982.105 941.8 982.105 940.4 982.105C940 982.105 939.8 981.705 939.8 981.305C940 979.505 940.2 977.705 940.6 975.905C940.8 974.705 940.8 973.705 941 972.505C941 972.305 941 972.305 940.8 972.105C939.4 971.105 939.4 968.705 941 967.905C941.2 967.705 941.2 967.705 941.2 967.505C941.2 966.105 941.6 964.705 942 963.505C942.4 962.505 942.8 961.705 943.2 961.105C943.4 960.905 943.4 960.905 943.2 960.705C941 960.105 938.8 959.305 936.6 958.705C936.4 958.705 936.2 958.505 936 958.105C936 957.705 936.2 957.505 936.6 957.305C938.2 956.705 940 956.305 941.8 955.705C947.6 953.905 953.6 952.105 959.4 950.105C959.6 950.105 959.6 949.905 959.8 949.905C960 949.905 960.2 949.905 960.2 949.905C960.8 949.905 961.4 950.305 962 950.305C965.6 951.505 969.4 952.705 973 953.705C975.4 954.505 977.8 955.305 980.2 955.905C981.2 956.305 982.2 956.505 983.2 956.905C983.4 956.905 983.6 957.105 983.8 957.505C984 957.905 984 958.105 984 958.305Z" fill="#2D7D9A"/>
<path d="M960.6 949.905C960.6 950.105 960.6 950.105 960.6 949.905C960.4 949.905 960.2 949.905 960 949.905C960.2 949.905 960.4 949.905 960.6 949.905Z" fill="#2D7D9A"/>
<path d="M973.2 964.705C973.2 965.305 973.2 965.905 973.4 966.505C973.4 967.905 973.6 969.305 973.6 970.705C973.8 971.905 973.2 972.905 972.2 973.705C971 974.505 969.8 975.105 968.4 975.505C965.4 976.505 962.2 976.705 959 976.505C956.8 976.505 954.6 976.105 952.4 975.505C950.8 975.105 949.4 974.505 948.2 973.505C947.6 972.905 947.2 972.505 947 971.505C947 971.105 947 970.905 947 970.505C947.2 968.505 947.2 966.705 947.4 964.705C947.4 964.505 947.4 964.505 947.6 964.505C951.6 965.705 955.4 966.905 959.4 968.105C960.2 968.305 960.8 968.305 961.6 968.105C965.4 966.905 969.2 965.705 973.2 964.505C973 964.905 973.2 964.705 973.2 964.705Z" fill="#2D7D9A"/>
<g clip-path="url(#clip9)">
<path d="M1473.8 580.3C1473.6 580.5 1473.4 580.7 1473.2 580.9C1467 582.9 1460.6 584.9 1454.4 586.7C1453 587.1 1451.6 587.5 1450.2 588.1C1450 588.1 1449.6 588.1 1449.4 588.1C1445 586.5 1440.8 585.1 1436.4 583.7C1436 583.7 1436 583.7 1435.8 583.9C1435 584.7 1434.6 585.7 1434.4 586.7C1434 587.7 1434 588.5 1433.8 589.5C1433.8 589.7 1433.8 589.9 1434 589.9C1435.4 590.9 1435.4 593.1 1434 594.1C1433.8 594.3 1433.8 594.3 1433.8 594.5C1434.2 596.7 1434.4 598.9 1434.6 601.1C1434.6 601.9 1434.8 602.5 1434.8 603.3C1434.8 603.7 1434.6 604.1 1434.2 604.1C1432.8 604.1 1431.6 604.1 1430.2 604.1C1429.8 604.1 1429.6 603.7 1429.6 603.3C1429.8 601.5 1430 599.7 1430.4 597.9C1430.6 596.7 1430.6 595.7 1430.8 594.5C1430.8 594.3 1430.8 594.3 1430.6 594.1C1429.2 593.1 1429.2 590.7 1430.8 589.9C1431 589.7 1431 589.7 1431 589.5C1431 588.1 1431.4 586.7 1431.8 585.5C1432.2 584.5 1432.6 583.7 1433 583.1C1433.2 582.9 1433.2 582.9 1433 582.7C1430.8 582.1 1428.6 581.3 1426.4 580.7C1426.2 580.7 1426 580.5 1425.8 580.1C1425.8 579.7 1426 579.5 1426.4 579.3C1428 578.7 1429.8 578.3 1431.6 577.7C1437.4 575.9 1443.4 574.1 1449.2 572.1C1449.4 572.1 1449.4 571.9 1449.6 571.9C1449.8 571.9 1450 571.9 1450 571.9C1450.6 571.9 1451.2 572.3 1451.8 572.3C1455.4 573.5 1459.2 574.7 1462.8 575.7C1465.2 576.5 1467.6 577.3 1470 577.9C1471 578.3 1472 578.5 1473 578.9C1473.2 578.9 1473.4 579.1 1473.6 579.5C1473.8 579.9 1473.8 580.1 1473.8 580.3Z" fill="#2D7D9A"/>
<path d="M1450.4 571.9C1450.4 572.1 1450.4 572.1 1450.4 571.9C1450.2 571.9 1450 571.9 1449.8 571.9C1450 571.9 1450.2 571.9 1450.4 571.9Z" fill="#2D7D9A"/>
<path d="M1463 586.7C1463 587.3 1463 587.9 1463.2 588.5C1463.2 589.9 1463.4 591.3 1463.4 592.7C1463.6 593.9 1463 594.9 1462 595.7C1460.8 596.5 1459.6 597.1 1458.2 597.5C1455.2 598.5 1452 598.7 1448.8 598.5C1446.6 598.5 1444.4 598.1 1442.2 597.5C1440.6 597.1 1439.2 596.5 1438 595.5C1437.4 594.9 1437 594.5 1436.8 593.5C1436.8 593.1 1436.8 592.9 1436.8 592.5C1437 590.5 1437 588.7 1437.2 586.7C1437.2 586.5 1437.2 586.5 1437.4 586.5C1441.4 587.7 1445.2 588.9 1449.2 590.1C1450 590.3 1450.6 590.3 1451.4 590.1C1455.2 588.9 1459 587.7 1463 586.5C1462.8 586.9 1463 586.7 1463 586.7Z" fill="#2D7D9A"/>
</g>
<g clip-path="url(#clip10)">
<path d="M1463.43 352.3C1463.23 352.5 1463.03 352.7 1462.83 352.9C1456.63 354.9 1450.23 356.9 1444.03 358.7C1442.63 359.1 1441.23 359.5 1439.83 360.1C1439.63 360.1 1439.23 360.1 1439.03 360.1C1434.63 358.5 1430.43 357.1 1426.03 355.7C1425.63 355.7 1425.63 355.7 1425.43 355.9C1424.63 356.7 1424.23 357.7 1424.03 358.7C1423.63 359.7 1423.63 360.5 1423.43 361.5C1423.43 361.7 1423.43 361.9 1423.63 361.9C1425.03 362.9 1425.03 365.1 1423.63 366.1C1423.43 366.3 1423.43 366.3 1423.43 366.5C1423.83 368.7 1424.03 370.9 1424.23 373.1C1424.23 373.9 1424.43 374.5 1424.43 375.3C1424.43 375.7 1424.23 376.1 1423.83 376.1C1422.43 376.1 1421.23 376.1 1419.83 376.1C1419.43 376.1 1419.23 375.7 1419.23 375.3C1419.43 373.5 1419.63 371.7 1420.03 369.9C1420.23 368.7 1420.23 367.7 1420.43 366.5C1420.43 366.3 1420.43 366.3 1420.23 366.1C1418.83 365.1 1418.83 362.7 1420.43 361.9C1420.63 361.7 1420.63 361.7 1420.63 361.5C1420.63 360.1 1421.03 358.7 1421.43 357.5C1421.83 356.5 1422.23 355.7 1422.63 355.1C1422.83 354.9 1422.83 354.9 1422.63 354.7C1420.43 354.1 1418.23 353.3 1416.03 352.7C1415.83 352.7 1415.63 352.5 1415.43 352.1C1415.43 351.7 1415.63 351.5 1416.03 351.3C1417.63 350.7 1419.43 350.3 1421.23 349.7C1427.03 347.9 1433.03 346.1 1438.83 344.1C1439.03 344.1 1439.03 343.9 1439.23 343.9C1439.43 343.9 1439.63 343.9 1439.63 343.9C1440.23 343.9 1440.83 344.3 1441.43 344.3C1445.03 345.5 1448.83 346.7 1452.43 347.7C1454.83 348.5 1457.23 349.3 1459.63 349.9C1460.63 350.3 1461.63 350.5 1462.63 350.9C1462.83 350.9 1463.03 351.1 1463.23 351.5C1463.43 351.9 1463.43 352.1 1463.43 352.3Z" fill="#2D7D9A"/>
<path d="M1440.03 343.9C1440.03 344.1 1440.03 344.1 1440.03 343.9C1439.83 343.9 1439.63 343.9 1439.43 343.9C1439.63 343.9 1439.83 343.9 1440.03 343.9Z" fill="#2D7D9A"/>
<path d="M1452.63 358.7C1452.63 359.3 1452.63 359.9 1452.83 360.5C1452.83 361.9 1453.03 363.3 1453.03 364.7C1453.23 365.9 1452.63 366.9 1451.63 367.7C1450.43 368.5 1449.23 369.1 1447.83 369.5C1444.83 370.5 1441.63 370.7 1438.43 370.5C1436.23 370.5 1434.03 370.1 1431.83 369.5C1430.23 369.1 1428.83 368.5 1427.63 367.5C1427.03 366.9 1426.63 366.5 1426.43 365.5C1426.43 365.1 1426.43 364.9 1426.43 364.5C1426.63 362.5 1426.63 360.7 1426.83 358.7C1426.83 358.5 1426.83 358.5 1427.03 358.5C1431.03 359.7 1434.83 360.9 1438.83 362.1C1439.63 362.3 1440.23 362.3 1441.03 362.1C1444.83 360.9 1448.63 359.7 1452.63 358.5C1452.43 358.9 1452.63 358.7 1452.63 358.7Z" fill="#2D7D9A"/>
</g>
</g>
<defs>
<clipPath id="clip0">
<rect width="1920" height="1080" fill="white"/>
</clipPath>
<clipPath id="clip1">
<rect x="1121.64" y="370.57" width="48" height="48" fill="white"/>
</clipPath>
<clipPath id="clip2">
<rect x="1744.77" y="516" width="48" height="48" fill="white"/>
</clipPath>
<clipPath id="clip3">
<rect x="1510.2" y="502.57" width="48" height="48" fill="white"/>
</clipPath>
<clipPath id="clip4">
<rect x="1260.6" y="615" width="48" height="48" fill="white"/>
</clipPath>
<clipPath id="clip5">
<rect x="1510.8" y="673.57" width="48" height="48" fill="white"/>
</clipPath>
<clipPath id="clip6">
<rect x="1473.8" y="806.9" width="48" height="48" fill="white"/>
</clipPath>
<clipPath id="clip7">
<rect x="1321.64" y="841.47" width="48" height="48" fill="white"/>
</clipPath>
<clipPath id="clip8">
<rect x="1782.41" y="889.47" width="48" height="48" fill="white"/>
</clipPath>
<clipPath id="clip9">
<rect x="1425.8" y="564" width="48" height="48" fill="white"/>
</clipPath>
<clipPath id="clip10">
<rect x="1415.43" y="336" width="48" height="48" fill="white"/>
</clipPath>
</defs>
</svg>
