<svg width="1920" height="1080" viewBox="0 0 1920 1080" fill="none" xmlns="http://www.w3.org/2000/svg">
<g clip-path="url(#clip0)">
<path d="M605.841 4249.82C573.028 4237.64 565.509 3718.08 626.4 3586.73C629.076 3581.04 629.945 3574.68 628.891 3568.49C616.811 3476.65 647.25 3133.62 637.087 3063.87C629.079 3008.41 620.668 2953.78 611.854 2899.96C610.633 2892.07 612.33 2884 616.626 2877.26C620.922 2870.52 627.524 2865.58 635.2 2863.34L826.325 2809.79C830.999 2808.46 835.321 2806.11 838.975 2802.91C842.63 2799.71 845.527 2795.73 847.456 2791.28L907.564 2652.97C909.149 2649.47 911.29 2646.25 913.905 2643.44L1024.69 2526.78C1029.08 2522.14 1032 2516.31 1033.11 2510.02C1034.21 2503.74 1033.44 2497.27 1030.89 2491.42C1009.86 2443.76 1000.99 2422.12 949.07 2314.5C947.615 2311.51 946.601 2308.33 946.058 2305.05C928.155 2155.38 925.591 2004.27 938.406 1854.06C938.937 1848.33 937.94 1842.56 935.518 1837.35C933.095 1832.13 929.333 1827.66 924.614 1824.37C919.895 1821.08 914.388 1819.1 908.652 1818.63C902.915 1818.16 897.155 1819.21 891.957 1821.69L882.533 1826.22C878.434 1828.21 873.959 1829.31 869.404 1829.44C864.85 1829.58 860.32 1828.74 856.115 1826.99L609.144 1726.08C607.226 1725.29 605.23 1724.71 603.19 1724.34C557.61 1715.07 16.0382 1606.52 -145.834 1542.06C-150.483 1540.22 -154.645 1537.33 -157.996 1533.62C-161.347 1529.92 -163.798 1525.49 -165.159 1520.68L-176.676 1479.69C-178.526 1473.03 -182.452 1467.13 -187.886 1462.84C-193.319 1458.56 -199.978 1456.12 -206.896 1455.88L-309.236 1452.77C-315.311 1452.63 -321.22 1450.77 -326.278 1447.41C-331.337 1444.06 -335.336 1439.33 -337.814 1433.79C-382.434 1334.25 -413.006 1099.97 -379.58 974.664C-378.347 970.096 -376.151 965.843 -373.14 962.191C-370.129 958.539 -366.371 955.571 -362.12 953.487L-278.964 913.503C-275.103 911.651 -271.644 909.057 -268.785 905.869C-265.926 902.681 -263.723 898.963 -262.302 894.926L-191.134 692.676C-189.242 687.221 -188.828 681.364 -189.933 675.7C-191.038 670.036 -193.623 664.766 -197.426 660.426L-234.047 619.752C-237.396 615.941 -239.806 611.4 -241.086 606.491C-242.366 601.582 -242.48 596.441 -241.419 591.478C-240.358 586.514 -238.151 581.866 -234.974 577.904C-231.798 573.942 -227.739 570.776 -223.123 568.658C-121.712 522.282 47.9561 490.462 148.118 496.493C155.945 496.956 163.336 500.236 168.924 505.725C174.513 511.215 177.92 518.544 178.516 526.355C180.244 547.338 181.694 568.453 183.561 589.369C184.028 595.091 186.001 600.586 189.28 605.297C192.558 610.008 197.026 613.769 202.23 616.197C207.434 618.626 213.189 619.636 218.912 619.126C224.636 618.615 230.124 616.602 234.821 613.29L270.848 587.787C277.172 582.981 285.028 580.633 292.951 581.181C300.874 581.729 308.324 585.136 313.915 590.767C317.627 594.511 322.196 597.293 327.229 598.872C332.262 600.451 337.605 600.779 342.796 599.827C347.987 598.876 352.868 596.674 357.017 593.413C361.166 590.151 364.457 585.928 366.605 581.11L507.04 269.891C507.77 268.156 508.696 266.51 509.8 264.985L694.118 -8.20054C697.133 -12.9394 698.872 -18.3753 699.167 -23.9809C699.461 -29.5866 698.301 -35.1716 695.798 -40.1943L616.599 -204.908C615.354 -207.598 613.701 -210.08 611.696 -212.264C548.764 -280.334 642.283 -564.564 689.77 -653.178C693.562 -660.243 699.839 -665.657 707.387 -668.374C714.936 -671.091 723.221 -670.918 730.644 -667.889L823.56 -630.085C828.801 -627.897 834.533 -627.145 840.166 -627.906C845.798 -628.668 851.127 -630.915 855.604 -634.416C908.161 -674.513 1087.1 -809.122 1159.78 -834.696C1166.55 -837 1173.88 -837.031 1180.66 -834.783C1187.44 -832.536 1193.3 -828.133 1197.33 -822.248C1233.75 -768.522 1270.27 -714.795 1306.92 -661.066C1310.53 -655.74 1315.66 -651.619 1321.65 -649.234C1387.52 -622.964 1786.95 -462.261 1873.46 -380.99C1877.92 -376.8 1883.47 -373.941 1889.48 -372.734C1895.49 -371.528 1901.71 -372.022 1907.46 -374.161C1991.91 -402.386 2078.92 -422.303 2167.24 -433.63C2172.97 -434.118 2178.47 -436.12 2183.17 -439.43C2187.88 -442.741 2191.62 -447.24 2194.01 -452.469L2212.81 -493.207C2214.9 -497.801 2218.03 -501.845 2221.96 -505.019C2225.89 -508.193 2230.5 -510.408 2235.43 -511.488C2240.36 -512.569 2245.48 -512.485 2250.37 -511.243C2255.26 -510.001 2259.79 -507.636 2263.6 -504.336C2317.12 -458.325 2389.16 -374.865 2418.71 -313.066C2420.55 -309.232 2423.13 -305.801 2426.31 -302.97C2429.49 -300.14 2433.19 -297.966 2437.21 -296.574L2625.12 -230.484C2632.55 -227.833 2638.77 -222.592 2642.63 -215.725L2720 -78.5915L2820.5 130.414C2822.58 134.574 2823.73 139.141 2823.86 143.794L2825.59 220.157C2825.73 226.439 2827.67 232.547 2831.2 237.745C2834.73 242.942 2839.69 247.008 2845.48 249.45L2942.62 289.997C2947.68 292.113 2952.12 295.478 2955.52 299.777C2958.92 304.075 2961.18 309.167 2962.07 314.576C2962.97 319.985 2962.48 325.534 2960.64 330.704C2958.81 335.874 2955.69 340.496 2951.58 344.137C2921.8 370.901 2873.11 396.696 2840.71 397.449C2834.52 397.556 2828.5 399.428 2823.34 402.845C2818.18 406.262 2814.1 411.081 2811.59 416.734L2752.57 547.362C2750.53 551.892 2747.51 555.909 2743.72 559.117C2669.37 619.914 2485.78 619.576 2398.7 664.173C2394.39 666.444 2390.65 669.649 2387.74 673.553C2384.84 677.457 2382.84 681.961 2381.91 686.734L2336.21 921.727C2335.08 927.643 2335.61 933.755 2337.75 939.384C2339.88 945.013 2343.54 949.937 2348.31 953.611C2353.09 957.285 2358.78 959.564 2364.78 960.194C2370.77 960.824 2376.82 959.781 2382.26 957.182L2626.18 839.897C2630.72 837.645 2634.67 834.37 2637.71 830.331C2640.76 826.291 2642.83 821.599 2643.75 816.626C2644.67 811.653 2644.42 806.535 2643.02 801.678C2641.61 796.821 2639.1 792.358 2635.67 788.643L2588.28 737.296C2584.94 733.645 2582.47 729.279 2581.07 724.53C2579.67 719.781 2579.37 714.775 2580.2 709.891C2581.03 705.008 2582.96 700.377 2585.85 696.349C2588.73 692.321 2592.5 689.003 2596.86 686.648L2636.33 665.456C2641.41 662.27 2647.28 660.554 2653.28 660.498C2659.27 660.442 2665.17 662.049 2670.3 665.139L2807.76 759.745C2811.27 762.141 2815.22 763.833 2819.37 764.729L2962.6 795.383C2968.12 796.594 2973.23 799.212 2977.44 802.983C2981.65 806.755 2984.8 811.551 2986.6 816.904C3012.99 895.559 2959.04 1078.97 2907.58 1123.13C2903.74 1126.52 2900.74 1130.75 2898.82 1135.49C2896.89 1140.23 2896.1 1145.35 2896.49 1150.45L2917.85 1457.49C2918.06 1461.34 2917.6 1465.19 2916.5 1468.88L2902.53 1516.83C2901.19 1521.41 2898.86 1525.63 2895.7 1529.2C2892.55 1532.78 2888.65 1535.62 2884.28 1537.53C2879.91 1539.44 2875.17 1540.36 2870.41 1540.24C2865.64 1540.12 2860.96 1538.96 2856.69 1536.83L2798.64 1508C2794.05 1505.73 2790.06 1502.42 2787 1498.33C2783.93 1494.24 2781.88 1489.48 2781 1484.44C2772.81 1437.25 2755.19 1334.96 2747.5 1290.94C2746.44 1284.71 2743.57 1278.93 2739.26 1274.31C2734.94 1269.69 2729.37 1266.44 2723.23 1264.94L2672.13 1252.36C2665.8 1250.8 2659.14 1251.15 2653 1253.38L2630.31 1261.91C2626.07 1263.49 2622.21 1265.95 2618.97 1269.11C2615.73 1272.27 2613.19 1276.07 2611.5 1280.26C2609.81 1284.46 2609.01 1288.96 2609.15 1293.47C2609.3 1297.99 2610.38 1302.43 2612.34 1306.51L2620.72 1323.95C2624.34 1331.44 2624.95 1340.04 2622.42 1347.98C2619.89 1355.92 2614.41 1362.59 2607.12 1366.62L2433.41 1462.07C2431.29 1463.21 2429.33 1464.61 2427.56 1466.24C2382.32 1501.05 2335.15 1533.28 2286.29 1562.8C2280.23 1566.46 2275.52 1572 2272.9 1578.57C2270.28 1585.15 2269.88 1592.4 2271.76 1599.22C2273.65 1606.03 2277.72 1612.05 2283.35 1616.33C2288.97 1620.62 2295.85 1622.95 2302.94 1622.96L2687.09 1629.46L3079.89 1645.09C3085.78 1645.32 3091.48 1647.14 3096.42 1650.34C3101.35 1653.55 3105.33 1658.02 3107.93 1663.3L3189.46 1832.86C3190.55 1835.15 3191.93 1837.29 3193.55 1839.24L3439.19 2140.01C3442.22 2143.83 3444.36 2148.28 3445.44 2153.02L3446.28 2156.54C3447.78 2162.54 3447.52 2168.85 3445.54 2174.72C3443.56 2180.58 3439.95 2185.76 3435.12 2189.64C3430.29 2193.52 3424.46 2195.94 3418.3 2196.61C3412.14 2197.29 3405.92 2196.18 3400.38 2193.44C3372.74 2179.97 3345.18 2166.3 3317.68 2152.76C3315.52 2151.68 3313.47 2150.38 3311.56 2148.89C3276.33 2120.33 3241.16 2091.91 3206.07 2063.29C3201.33 2059.44 3195.6 2057.01 3189.54 2056.26C3183.48 2055.52 3177.33 2056.48 3171.79 2059.06C3166.26 2061.63 3161.55 2065.71 3158.22 2070.82C3154.88 2075.94 3153.05 2081.88 3152.93 2087.98L3152.75 2103.58C3152.6 2108.34 3153.52 2113.07 3155.44 2117.42C3157.36 2121.78 3160.22 2125.65 3163.83 2128.75L3329.25 2272.29C3332.97 2275.4 3337.32 2277.67 3342.01 2278.94L3494.61 2320.93C3499.91 2322.44 3505.51 2322.58 3510.88 2321.34C3516.25 2320.09 3521.22 2317.51 3525.33 2313.83L3570.5 2275.07C3573.89 2272.25 3577.74 2270.05 3581.88 2268.57L3870.74 2184.05L3892.34 2204.84C3894.14 2203.98 3902.4 2199.15 3917.84 2192.58C3920.61 2191.25 3916.84 2173.47 3919.61 2172.13C3933.47 2165.47 3959.26 2156.99 3959.26 2156.99L3976.47 2168.31L4017.65 2156.35L4039.82 2171.59C4045.63 2172.03 4051.46 2170.93 4056.72 2168.41L4110.49 2142.55C4114.67 2140.55 4119.22 2139.46 4123.84 2139.36C4128.47 2139.25 4133.06 2140.13 4137.32 2141.93C4141.58 2143.74 4145.4 2146.43 4148.54 2149.83C4151.67 2153.23 4154.05 2157.25 4155.5 2161.64L4254.16 2459.81C4255.51 2463.92 4256.03 2468.26 4255.68 2472.58C4255.33 2476.9 4254.13 2481.1 4252.13 2484.95C4250.13 2488.8 4247.39 2492.21 4244.06 2494.99C4240.73 2497.77 4236.88 2499.85 4232.74 2501.12L4128.47 2532.68C4122.86 2534.45 4117.85 2537.71 4113.95 2542.11C4110.05 2546.5 4107.42 2551.87 4106.34 2557.64L4095.26 2614.09C4093.81 2621.93 4089.53 2628.97 4083.22 2633.85C4076.92 2638.74 4069.03 2641.14 4061.07 2640.58C3982.02 2634.8 3844.7 2595.85 3773.87 2540.1C3771.35 2538 3769.1 2535.58 3767.18 2532.92C3734.71 2485.02 3702.21 2437.08 3669.7 2389.1C3665.08 2382.23 3658.01 2377.39 3649.93 2375.57C3641.86 2373.75 3633.39 2375.09 3626.26 2379.31L3363.6 2532.87C3359.03 2535.51 3353.88 2536.99 3348.61 2537.18L3208.59 2542.64C3200.76 2542.98 3193.07 2540.46 3186.96 2535.57C3180.84 2530.68 3176.71 2523.74 3175.32 2516.04L3149.79 2374.94C3148.71 2369.86 3146.43 2365.11 3143.14 2361.1L3088.61 2287.45C3083.52 2280.64 3075.96 2276.1 3067.55 2274.79C3059.14 2273.49 3050.55 2275.52 3043.62 2280.46L2815.45 2444.7C2811.88 2447.35 2807.83 2449.3 2803.53 2450.43L2476.16 2522.63C2471.64 2523.78 2467.4 2525.82 2463.69 2528.63L2420.46 2561.17C2416.71 2563.91 2413.58 2567.42 2411.29 2571.46C2409 2575.5 2407.59 2579.98 2407.16 2584.61L2395.28 2777.78C2395 2782.35 2393.77 2786.81 2391.66 2790.88C2389.54 2794.94 2386.6 2798.52 2383.01 2801.37C2379.42 2804.22 2375.27 2806.28 2370.83 2807.43C2366.39 2808.57 2361.76 2808.76 2357.25 2807.99C2237.92 2788 2029.86 2821.24 1930.9 2869.17C1926.92 2871.11 1923.39 2873.85 1920.52 2877.2C1917.64 2880.56 1915.48 2884.47 1914.17 2888.69C1912.86 2892.91 1912.43 2897.36 1912.9 2901.75C1913.37 2906.14 1914.73 2910.39 1916.91 2914.24L1920.5 2921.71C1922.86 2925.89 1924.27 2930.55 1924.61 2935.35C1924.95 2940.14 1924.21 2944.95 1922.46 2949.43C1920.71 2953.91 1917.99 2957.94 1914.49 2961.24C1910.99 2964.54 1906.79 2967.02 1902.22 2968.5L1746.96 3019.3C1742.88 3020.62 1739.11 3022.75 1735.85 3025.54C1732.6 3028.33 1729.93 3031.74 1728 3035.57C1703.55 3085.5 1716.25 3220.16 1751.88 3262.67C1755.07 3266.25 1757.42 3270.51 1758.75 3275.12C1760.08 3279.73 1760.36 3284.58 1759.57 3289.31L1731.41 3446.51C1730.35 3452.36 1730.94 3458.39 1733.12 3463.92L1754.9 3516.67C1756.94 3522.01 1757.53 3527.79 1756.62 3533.43C1755.71 3539.08 1753.33 3544.38 1749.72 3548.82L1654.18 3666.33C1650.47 3670.88 1648.07 3676.35 1647.22 3682.16C1646.38 3687.97 1647.13 3693.89 1649.39 3699.31L1708.51 3842.49C1711.68 3850.06 1711.85 3858.55 1709 3866.24C1706.14 3873.94 1700.47 3880.27 1693.13 3883.96L1669.99 3895.09C1665.27 3897.49 1660.04 3898.7 1654.74 3898.64C1649.45 3898.57 1644.26 3897.22 1639.6 3894.71L1533.12 3836.84C1527.94 3834.04 1522.1 3832.7 1516.22 3832.98C1510.33 3833.25 1504.64 3835.13 1499.74 3838.41L1322.76 3957.58C1317.88 3960.77 1312.26 3962.65 1306.45 3963.04C1264.31 3966.26 1077.79 3977.22 950.548 3996.13C944.558 3997.01 938.927 3999.53 934.286 4003.41C929.646 4007.3 926.178 4012.4 924.273 4018.14L887.141 4130.07C886.331 4132.65 885.157 4135.11 883.655 4137.37L815.259 4243.53C811.454 4249.5 805.768 4254.03 799.1 4256.41L714.845 4287.72C706.959 4290.66 698.245 4290.46 690.512 4287.15L605.841 4249.82Z" fill="#293135" stroke="#2D7D9A" stroke-opacity="0.38" stroke-miterlimit="10"/>
<path d="M816.602 920L825 890.908L833.398 920H816.602Z" fill="#2D7D9A" stroke="#2D7D9A" stroke-width="3"/>
<line x1="825.5" y1="921.5" x2="825.5" y2="929.5" stroke="#2D7D9A" stroke-width="3"/>
<path d="M1237.6 580L1246 550.908L1254.4 580H1237.6Z" fill="#2D7D9A" stroke="#2D7D9A" stroke-width="3"/>
<line x1="1246.5" y1="581.5" x2="1246.5" y2="589.5" stroke="#2D7D9A" stroke-width="3"/>
<path d="M976.602 798L985 768.908L993.398 798H976.602Z" fill="#2D7D9A" stroke="#2D7D9A" stroke-width="3"/>
<line x1="985.5" y1="799.5" x2="985.5" y2="807.5" stroke="#2D7D9A" stroke-width="3"/>
<path d="M1512.6 594L1521 564.908L1529.4 594H1512.6Z" fill="#2D7D9A" stroke="#2D7D9A" stroke-width="3"/>
<line x1="1521.5" y1="595.5" x2="1521.5" y2="603.5" stroke="#2D7D9A" stroke-width="3"/>
<path d="M1438.6 714L1447 684.908L1455.4 714H1438.6Z" fill="#2D7D9A" stroke="#2D7D9A" stroke-width="3"/>
<line x1="1447.5" y1="715.5" x2="1447.5" y2="723.5" stroke="#2D7D9A" stroke-width="3"/>
<path d="M1275.6 337L1284 307.908L1292.4 337H1275.6Z" fill="#2D7D9A" stroke="#2D7D9A" stroke-width="3"/>
<line x1="1284.5" y1="338.5" x2="1284.5" y2="346.5" stroke="#2D7D9A" stroke-width="3"/>
<path d="M1633.6 854L1642 824.908L1650.4 854H1633.6Z" fill="#2D7D9A" stroke="#2D7D9A" stroke-width="3"/>
<line x1="1642.5" y1="855.5" x2="1642.5" y2="863.5" stroke="#2D7D9A" stroke-width="3"/>
<path d="M1500.6 181L1509 151.908L1517.4 181H1500.6Z" fill="#2D7D9A" stroke="#2D7D9A" stroke-width="3"/>
<line x1="1509.5" y1="182.5" x2="1509.5" y2="190.5" stroke="#2D7D9A" stroke-width="3"/>
<path d="M1793.6 532L1802 502.908L1810.4 532H1793.6Z" fill="#2D7D9A" stroke="#2D7D9A" stroke-width="3"/>
<line x1="1802.5" y1="533.5" x2="1802.5" y2="541.5" stroke="#2D7D9A" stroke-width="3"/>
<path d="M1476.6 429L1485 399.908L1493.4 429H1476.6Z" fill="#2D7D9A" stroke="#2D7D9A" stroke-width="3"/>
<line x1="1485.5" y1="430.5" x2="1485.5" y2="438.5" stroke="#2D7D9A" stroke-width="3"/>
<path d="M1704.6 685L1713 655.908L1721.4 685H1704.6Z" fill="#2D7D9A" stroke="#2D7D9A" stroke-width="3"/>
<line x1="1713.5" y1="686.5" x2="1713.5" y2="694.5" stroke="#2D7D9A" stroke-width="3"/>
<path d="M1049.6 642L1058 612.908L1066.4 642H1049.6Z" fill="#2D7D9A" stroke="#2D7D9A" stroke-width="3"/>
<line y1="-1.5" x2="8" y2="-0.5" transform="matrix(0 1 1 0 1060 642.5)" stroke="#2D7D9A" stroke-width="3"/>
<path d="M1559.6 297L1568 267.908L1576.4 297H1559.6Z" fill="#2D7D9A" stroke="#2D7D9A" stroke-width="3"/>
<line x1="1568.5" y1="298.5" x2="1568.5" y2="306.5" stroke="#2D7D9A" stroke-width="3"/>
<path d="M1452.6 908L1461 878.908L1469.4 908H1452.6Z" fill="#2D7D9A" stroke="#2D7D9A" stroke-width="3"/>
<line x1="1461.5" y1="909.5" x2="1461.5" y2="917.5" stroke="#2D7D9A" stroke-width="3"/>
<path d="M1263.6 766L1272 736.908L1280.4 766H1263.6Z" fill="#2D7D9A" stroke="#2D7D9A" stroke-width="3"/>
<line x1="1272.5" y1="767.5" x2="1272.5" y2="775.5" stroke="#2D7D9A" stroke-width="3"/>
</g>
<defs>
<clipPath id="clip0">
<rect width="1920" height="1080" fill="white"/>
</clipPath>
</defs>
</svg>
