<svg width="1920" height="1080" viewBox="0 0 1920 1080" fill="none" xmlns="http://www.w3.org/2000/svg">
<g clip-path="url(#clip0)">
<path d="M1638.64 -537.311L1628.52 -639.978C1628.14 -643.606 1628.91 -647.263 1630.73 -650.431C1632.54 -653.598 1635.31 -656.115 1638.64 -657.622L1702.24 -842.601C1701.43 -845.131 1701.19 -847.81 1701.54 -850.445C1701.54 -850.445 1737.05 -1088.89 1735.45 -1092.21L1677.69 -1178.62L1727.06 -1311.59L1899.75 -1472.68L2392.74 -1736.65C2393.45 -1739.46 2394.83 -1742.06 2396.78 -1744.21L2449.3 -1803.55C2451.28 -1805.72 2453.77 -1807.38 2456.53 -1808.39L2929.37 -1973.03C2930.8 -1973.46 2932.16 -1974.11 2933.39 -1974.96L3028.32 -2037.65C3029.85 -2038.38 3054.53 -2089.62 3108.27 -2048.82C3201.82 -1977.75 3346.27 -1795.51 3340.28 -1786.66L3238.95 -1637.57C3237.76 -1635.85 3236.89 -1633.93 3236.39 -1631.9L3217.68 -1558.32C3217.13 -1556 3217.06 -1553.6 3217.46 -1551.25C3217.86 -1548.91 3218.73 -1546.66 3220.01 -1544.66C3221.29 -1542.66 3222.96 -1540.93 3224.92 -1539.58C3226.88 -1538.23 3229.1 -1537.29 3231.43 -1536.81L3270.37 -1529.29C3273.76 -1528.59 3277.28 -1528.92 3280.48 -1530.24C3283.67 -1531.57 3286.4 -1533.82 3288.3 -1536.72L3397.26 -1698.69C3398.27 -1700.16 3399.47 -1701.48 3400.83 -1702.62L3520.58 -1799.22C3523.58 -1801.59 3527.26 -1802.93 3531.08 -1803.03C3534.9 -1803.13 3538.64 -1801.99 3541.76 -1799.79C3544.88 -1797.58 3547.19 -1794.43 3548.36 -1790.8C3549.53 -1787.16 3549.49 -1783.25 3548.25 -1779.64L3356.89 -1237.56C3355.69 -1233.95 3355.65 -1230.06 3356.78 -1226.43L3364.04 -1202.82C3364.98 -1199.77 3365.07 -1196.52 3364.3 -1193.41C3363.54 -1190.31 3361.94 -1187.47 3359.69 -1185.19C3357.44 -1182.92 3354.61 -1181.3 3351.51 -1180.51C3348.41 -1179.71 3345.16 -1179.77 3342.09 -1180.68L3211.8 -1220.28C3207.43 -1221.63 3203.76 -1224.63 3201.58 -1228.64C3199.39 -1232.65 3198.86 -1237.36 3200.11 -1241.76L3261.14 -1467.93C3261.88 -1470.49 3262.02 -1473.17 3261.55 -1475.79C3261.09 -1478.41 3260.03 -1480.88 3258.45 -1483.02C3256.88 -1485.16 3254.84 -1486.92 3252.48 -1488.14C3250.12 -1489.37 3247.51 -1490.04 3244.85 -1490.09L3224.1 -1491.02C3220.18 -1491.13 3216.34 -1489.96 3213.16 -1487.69C3209.97 -1485.42 3207.61 -1482.17 3206.43 -1478.44L3173.09 -1367.14L3172.66 -1365.91L3116.16 -1216.9C3115.29 -1214.56 3113.91 -1212.44 3112.14 -1210.67C3110.37 -1208.91 3108.24 -1207.55 3105.89 -1206.68L2829.05 -1103.56C2826.29 -1102.62 2823.85 -1100.92 2822.03 -1098.65L2780.01 -1051.52C2777.57 -1048.77 2776.04 -1045.33 2775.65 -1041.67C2775.25 -1038.02 2776.01 -1034.33 2777.81 -1031.13C2779.62 -1027.92 2782.38 -1025.36 2785.71 -1023.8C2789.04 -1022.24 2792.78 -1021.76 2796.4 -1022.42L2997.22 -1058.65L2999.77 -1059.03L3130.76 -1063.39C3133.36 -1063.49 3135.94 -1063.01 3138.33 -1061.99C3140.72 -1060.97 3142.85 -1059.44 3144.58 -1057.51C3146.31 -1055.57 3147.59 -1053.28 3148.33 -1050.8C3149.07 -1048.31 3149.25 -1045.69 3148.87 -1043.13L3141.27 -993.288C3140.8 -990.456 3139.67 -987.775 3137.96 -985.47C3136.24 -983.164 3134.01 -981.301 3131.43 -980.036L3040.93 -936.521C3039.11 -935.699 3037.17 -935.171 3035.19 -934.958L3029.54 -934.286C3027.53 -934.002 3025.57 -933.406 3023.74 -932.518L2974.45 -907.625C2970.46 -905.786 2967.31 -902.52 2965.62 -898.472C2963.92 -894.425 2963.81 -889.891 2965.3 -885.767C2966.79 -881.643 2969.77 -878.229 2973.66 -876.2C2977.55 -874.172 2982.06 -873.676 2986.3 -874.811L3171.18 -916.161C3172.49 -916.622 3173.75 -917.226 3174.93 -917.96L3302.04 -980.442C3323.43 -977.948 3344.94 -976.571 3366.47 -976.319C3387.43 -984.075 3407.61 -993.78 3426.76 -1005.31C3430.52 -1004.86 3434.33 -1005.35 3437.85 -1006.72C3402.83 -983.746 3370.99 -962.303 3335.97 -939.327L3334.72 -938.728L3212.57 -837.9C3211.39 -837.159 3210.14 -836.555 3208.83 -836.101L3097.95 -782.789C3095.75 -781.719 3093.8 -780.205 3092.22 -778.344C3090.63 -776.482 3089.45 -774.313 3088.75 -771.973C3088.05 -769.633 3087.84 -767.174 3088.13 -764.75C3088.43 -762.326 3089.23 -759.99 3090.47 -757.89L3198.77 -576.664C3199.69 -575.099 3200.88 -573.709 3202.28 -572.558L3286.96 -497.223C3288.73 -495.685 3352.98 -441.2 3347.51 -430.22C3332.94 -400.549 3233.37 -396.471 3233.37 -396.471C3231.11 -393.354 3227.88 -391.081 3224.19 -390.012L3079.58 -346.892C3077.27 -346.294 3075.11 -345.253 3073.2 -343.827L2904.46 -171.687C2857.7 -104.321 2806.14 -40.4045 2750.19 19.564C2690.34 81.4021 2620.91 122.965 2615.51 121.304L2479.16 81.8885C2475.38 80.7462 2472.08 78.3802 2469.79 75.1621C2467.5 71.9441 2466.35 68.0564 2466.51 64.11L2469.6 -4.00446C2469.73 -6.62732 2469.27 -9.24563 2468.26 -11.6689C2467.25 -14.0921 2465.71 -16.2595 2463.76 -18.013C2461.8 -19.7665 2459.48 -21.0622 2456.96 -21.8058C2454.44 -22.5493 2451.79 -22.7218 2449.19 -22.3112L2068.6 41.3993C2064.38 42.158 2060.03 41.3344 2056.39 39.0869C2056.39 39.0869 1599.38 9.17194 1595.16 2.51264C1595.16 2.51264 1490.51 -93.0464 1499.34 -193.918C1511.18 -340.712 1639.06 -511.951 1638.64 -537.311Z" fill="#293135" stroke="#2D7D9A" stroke-miterlimit="10"/>
<path d="M591.099 -70.7673L489.064 178.363C486.94 183.443 486.22 188.999 486.98 194.449C487.74 199.9 489.951 205.045 493.382 209.346L607.223 353.483C610.895 357.746 613.375 362.902 614.411 368.432L642.193 592.292C643.057 598.766 641.833 605.348 638.7 611.083C635.567 616.819 630.686 621.409 624.768 624.188L450.973 707.754C444.392 710.772 439.086 716.012 435.988 722.552C432.89 729.091 432.199 736.511 434.036 743.505L459.529 843.721C461.224 850.761 460.45 858.171 457.337 864.714L403.761 977.216C400.524 983.915 399.826 991.557 401.798 998.725C403.77 1005.89 408.278 1012.1 414.485 1016.2L570.644 1063.81C584.728 1092.26 597.187 1121.49 607.961 1151.36C620.207 1184.83 630.43 1219.01 638.577 1253.71L551.763 1428.04C549.973 1435.77 551.246 1443.89 555.316 1450.7C559.386 1457.51 565.937 1462.48 573.597 1464.57L705.094 1502.06C709.004 1503.14 713.088 1503.43 717.114 1502.93L901.315 1482.52C906.801 1481.84 912.371 1482.64 917.436 1484.85C922.501 1487.06 926.875 1490.59 930.098 1495.08C933.32 1499.56 935.271 1504.83 935.746 1510.34C936.221 1515.84 935.202 1521.37 932.797 1526.35L856.549 1689.29L829.809 1753.27C827.308 1760.13 827.328 1767.64 829.864 1774.48C832.401 1781.31 837.288 1787.02 843.654 1790.58L899.655 1823.3C903.937 1825.8 908.76 1827.22 913.713 1827.45C918.667 1827.68 923.604 1826.71 928.103 1824.62L990.791 1796.01C993.821 1794.58 997.065 1793.65 1000.39 1793.27L1461.71 1743.06C1468.08 1742.34 1474.51 1743.63 1480.11 1746.75C1485.7 1749.86 1490.18 1754.64 1492.92 1760.43L1512.16 1800.43C1515.16 1806.99 1520.37 1812.28 1526.88 1815.38C1533.39 1818.48 1540.79 1819.19 1547.78 1817.39L1655.56 1790.28C1657.97 1789.54 1660.26 1788.44 1662.35 1787.01L1954.12 1631.55C1959.05 1629 1964.58 1627.83 1970.12 1628.17C1975.66 1628.51 1981 1630.34 1985.58 1633.46L2278.09 1819.5C2284.68 1823.76 2292.65 1825.33 2300.37 1823.9C2308.09 1822.47 2314.97 1818.14 2319.61 1811.81L2388.05 1719.94C2391.81 1715.04 2396.87 1711.3 2402.67 1709.16L2510.19 1671.6C2517.39 1668.99 2525.29 1669.15 2532.36 1672.05C2539.44 1674.96 2545.17 1680.39 2548.45 1687.29L2688.21 1977.96C2690.42 1982.62 2693.76 1986.65 2697.92 1989.67C2702.09 1992.7 2706.96 1994.63 2712.07 1995.29L2873.2 2015.97C2879.84 2016.8 2886.57 2015.53 2892.44 2012.34L3157.72 1862.47C3162.97 1859.53 3167.25 1855.13 3170.02 1849.8C3172.8 1844.47 3173.95 1838.44 3173.33 1832.47L3158.98 1684.8C3158.76 1682.8 3158.38 1680.81 3157.83 1678.87L3041.1 1289.88C3038.78 1282.35 3039.46 1274.22 3042.97 1267.17L3095.05 1162.54C3097.91 1156.84 3098.92 1150.4 3097.95 1144.1L3079.96 1017.61C3079.42 1013.7 3078.13 1009.92 3076.15 1006.49L3039.02 942.039C3038.18 940.545 3037.22 939.128 3036.13 937.805L2939.75 819.696C2938.17 817.84 2936.84 815.787 2935.79 813.59L2867.17 670.885C2865.04 666.49 2863.99 661.648 2864.1 656.762C2864.21 651.876 2865.49 647.087 2867.83 642.792L2934.51 518.873C2935.25 517.533 2935.9 516.142 2936.44 514.711L2957.52 456.004C2958.98 452.083 2959.61 447.908 2959.4 443.735C2959.18 439.561 2958.11 435.476 2956.26 431.73L2934.5 386.469C2932.56 382.611 2931.46 378.389 2931.27 374.076C2931.08 369.764 2931.8 365.459 2933.38 361.442L2946.64 327.972C2948.21 323.979 2948.93 319.701 2948.75 315.414C2948.57 311.127 2947.5 306.927 2945.59 303.083L2882.7 172.282C2881.03 168.881 2878.75 165.819 2875.97 163.249L2748.93 44.5434C2743.83 39.8412 2740.48 33.5526 2739.42 26.7004C2738.35 19.8481 2739.64 12.8358 2743.07 6.80309L2758.93 -21.6121C2762.08 -26.9888 2763.52 -33.1932 2763.06 -39.4028C2762.6 -45.6124 2760.26 -51.5341 2756.36 -56.3834C2752.45 -61.2328 2747.16 -64.781 2741.19 -66.5574C2735.22 -68.3338 2728.85 -68.2548 2722.92 -66.3308L2720.43 -65.1313C2715.73 -63.7332 2711.44 -61.2357 2707.9 -57.8466C2704.37 -54.4575 2701.7 -50.2746 2700.1 -45.6463L2662.93 60.1614C2661.52 64.2958 2659.23 68.0819 2656.24 71.267C2653.24 74.4521 2649.6 76.9628 2645.56 78.632C2641.52 80.3013 2637.17 81.0909 2632.8 80.9474C2628.43 80.8039 2624.14 79.7307 2620.22 77.8L2489.41 14.4188C2483.29 11.4973 2478.31 6.63302 2475.25 0.584284C2472.19 -5.46446 2471.21 -12.3578 2472.48 -19.0211C2473.47 -23.8604 2473.28 -28.8658 2471.93 -33.6135C2470.57 -38.3612 2468.09 -42.711 2464.69 -46.2945C2461.29 -49.8781 2457.08 -52.5899 2452.41 -54.1997C2447.74 -55.8095 2442.75 -56.2701 2437.86 -55.5424L2213.55 -21.3095C2208.75 -20.5019 2203.82 -20.8822 2199.2 -22.4172L1895.27 -122.19C1890.18 -123.884 1884.73 -124.213 1879.46 -123.147C1874.2 -122.08 1869.3 -119.654 1865.26 -116.111L1748.26 -14.5193C1742.96 -9.82926 1736.2 -7.1072 1729.13 -6.81229C1722.06 -6.51738 1715.11 -8.66768 1709.45 -12.9004L1518.18 -152.697C1514.51 -155.322 1511.47 -158.722 1509.27 -162.655C1507.07 -166.588 1505.76 -170.958 1505.43 -175.455C1505.11 -179.951 1505.79 -184.465 1507.4 -188.675C1509.02 -192.885 1511.55 -196.687 1514.8 -199.814L1650.75 -333.348C1654.15 -336.641 1656.75 -340.674 1658.33 -345.131C1659.92 -349.589 1660.45 -354.35 1659.9 -359.046L1651.81 -429.801C1650.86 -437.414 1647.19 -444.424 1641.47 -449.538L1570.81 -512.02C1566.33 -516.006 1560.78 -518.593 1554.85 -519.463C1548.91 -520.333 1542.85 -519.448 1537.4 -516.917L1188.13 -356.132C1183.97 -354.181 1179.43 -353.186 1174.83 -353.219C1170.24 -353.252 1165.71 -354.312 1161.59 -356.323L1098.4 -386.949C1094.21 -389.025 1089.59 -390.116 1084.91 -390.139C1080.22 -390.161 1075.6 -389.114 1071.38 -387.078L902.158 -305.711C895.833 -302.636 890.717 -297.537 887.623 -291.225L785.703 -79.4716C782.677 -73.1766 777.597 -68.0969 771.299 -65.0687C765.001 -62.0405 757.862 -61.2445 751.055 -62.8117L626.058 -89.6212C618.945 -91.1123 611.53 -90.0365 605.131 -86.585C598.731 -83.1335 593.76 -77.5296 591.099 -70.7673V-70.7673Z" fill="#293135" stroke="#2D7D9A" stroke-opacity="0.38" stroke-miterlimit="10"/>
<path d="M605.841 -70.1847C573.028 -82.3557 565.509 -601.916 626.4 -733.273C629.076 -738.957 629.945 -745.323 628.891 -751.512C616.811 -843.352 647.25 -1186.38 637.087 -1256.13C629.079 -1311.59 620.668 -1366.22 611.854 -1420.04C610.633 -1427.93 612.33 -1436 616.626 -1442.74C620.922 -1449.48 627.524 -1454.42 635.2 -1456.66L826.325 -1510.21C830.999 -1511.54 835.321 -1513.89 838.975 -1517.09C842.63 -1520.29 845.527 -1524.27 847.456 -1528.72L907.564 -1667.03C909.149 -1670.53 911.29 -1673.75 913.905 -1676.56L1024.69 -1793.22C1029.08 -1797.86 1032 -1803.69 1033.11 -1809.98C1034.21 -1816.26 1033.44 -1822.73 1030.89 -1828.58C1009.86 -1876.24 1000.99 -1897.88 949.07 -2005.5C947.615 -2008.49 946.601 -2011.67 946.058 -2014.95C928.155 -2164.62 925.591 -2315.73 938.406 -2465.94C938.937 -2471.67 937.94 -2477.44 935.518 -2482.65C933.095 -2487.87 929.333 -2492.34 924.614 -2495.63C919.895 -2498.92 914.388 -2500.9 908.652 -2501.37C902.915 -2501.84 897.155 -2500.79 891.957 -2498.31L882.533 -2493.78C878.434 -2491.79 873.959 -2490.69 869.404 -2490.56C864.85 -2490.42 860.32 -2491.26 856.115 -2493.01L609.144 -2593.92C607.226 -2594.71 605.23 -2595.29 603.19 -2595.66C557.61 -2604.93 16.0382 -2713.48 -145.834 -2777.94C-150.483 -2779.78 -154.645 -2782.67 -157.996 -2786.38C-161.347 -2790.08 -163.798 -2794.51 -165.159 -2799.32L-176.676 -2840.31C-178.526 -2846.97 -182.452 -2852.87 -187.886 -2857.16C-193.319 -2861.44 -199.978 -2863.88 -206.896 -2864.12L-309.236 -2867.23C-315.311 -2867.37 -321.22 -2869.23 -326.278 -2872.59C-331.337 -2875.94 -335.336 -2880.67 -337.814 -2886.21C-382.434 -2985.75 -413.006 -3220.03 -379.58 -3345.34C-378.347 -3349.9 -376.151 -3354.16 -373.14 -3357.81C-370.129 -3361.46 -366.371 -3364.43 -362.12 -3366.51L-278.964 -3406.5C-275.103 -3408.35 -271.644 -3410.94 -268.785 -3414.13C-265.926 -3417.32 -263.723 -3421.04 -262.302 -3425.07L-191.134 -3627.32C-189.242 -3632.78 -188.828 -3638.64 -189.933 -3644.3C-191.038 -3649.96 -193.623 -3655.23 -197.426 -3659.57L-234.047 -3700.25C-237.396 -3704.06 -239.806 -3708.6 -241.086 -3713.51C-242.366 -3718.42 -242.48 -3723.56 -241.419 -3728.52C-240.358 -3733.49 -238.151 -3738.13 -234.974 -3742.1C-231.798 -3746.06 -227.739 -3749.22 -223.123 -3751.34C-121.712 -3797.72 47.9561 -3829.54 148.118 -3823.51C155.945 -3823.04 163.336 -3819.76 168.924 -3814.27C174.513 -3808.78 177.92 -3801.46 178.516 -3793.64C180.244 -3772.66 181.694 -3751.55 183.561 -3730.63C184.028 -3724.91 186.001 -3719.41 189.28 -3714.7C192.558 -3709.99 197.026 -3706.23 202.23 -3703.8C207.434 -3701.37 213.189 -3700.36 218.912 -3700.87C224.636 -3701.38 230.124 -3703.4 234.821 -3706.71L270.848 -3732.21C277.172 -3737.02 285.028 -3739.37 292.951 -3738.82C300.874 -3738.27 308.324 -3734.86 313.915 -3729.23C317.627 -3725.49 322.196 -3722.71 327.229 -3721.13C332.262 -3719.55 337.605 -3719.22 342.796 -3720.17C347.987 -3721.12 352.868 -3723.33 357.017 -3726.59C361.166 -3729.85 364.457 -3734.07 366.605 -3738.89L507.04 -4050.11C507.77 -4051.84 508.696 -4053.49 509.8 -4055.02L694.118 -4328.2C697.133 -4332.94 698.872 -4338.38 699.167 -4343.98C699.461 -4349.59 698.301 -4355.17 695.798 -4360.19L616.599 -4524.91C615.354 -4527.6 613.701 -4530.08 611.696 -4532.26C548.764 -4600.33 642.283 -4884.56 689.77 -4973.18C693.562 -4980.24 699.839 -4985.66 707.387 -4988.37C714.936 -4991.09 723.221 -4990.92 730.644 -4987.89L823.56 -4950.08C828.801 -4947.9 834.533 -4947.15 840.166 -4947.91C845.798 -4948.67 851.127 -4950.91 855.604 -4954.42C908.161 -4994.51 1087.1 -5129.12 1159.78 -5154.7C1166.55 -5157 1173.88 -5157.03 1180.66 -5154.78C1187.44 -5152.54 1193.3 -5148.13 1197.33 -5142.25C1233.75 -5088.52 1270.27 -5034.79 1306.92 -4981.07C1310.53 -4975.74 1315.66 -4971.62 1321.65 -4969.23C1387.52 -4942.96 1786.95 -4782.26 1873.46 -4700.99C1877.92 -4696.8 1883.47 -4693.94 1889.48 -4692.73C1895.49 -4691.53 1901.71 -4692.02 1907.46 -4694.16C1991.91 -4722.39 2078.92 -4742.3 2167.24 -4753.63C2172.97 -4754.12 2178.47 -4756.12 2183.17 -4759.43C2187.88 -4762.74 2191.62 -4767.24 2194.01 -4772.47L2212.81 -4813.21C2214.9 -4817.8 2218.03 -4821.85 2221.96 -4825.02C2225.89 -4828.19 2230.5 -4830.41 2235.43 -4831.49C2240.36 -4832.57 2245.48 -4832.48 2250.37 -4831.24C2255.26 -4830 2259.79 -4827.64 2263.6 -4824.34C2317.12 -4778.32 2389.16 -4694.87 2418.71 -4633.07C2420.55 -4629.23 2423.13 -4625.8 2426.31 -4622.97C2429.49 -4620.14 2433.19 -4617.97 2437.21 -4616.57L2625.12 -4550.48C2632.55 -4547.83 2638.77 -4542.59 2642.63 -4535.72L2720 -4398.59L2820.5 -4189.59C2822.58 -4185.43 2823.73 -4180.86 2823.86 -4176.21L2825.59 -4099.84C2825.73 -4093.56 2827.67 -4087.45 2831.2 -4082.26C2834.73 -4077.06 2839.69 -4072.99 2845.48 -4070.55L2942.62 -4030C2947.68 -4027.89 2952.12 -4024.52 2955.52 -4020.22C2958.92 -4015.92 2961.18 -4010.83 2962.07 -4005.42C2962.97 -4000.01 2962.48 -3994.47 2960.64 -3989.3C2958.81 -3984.13 2955.69 -3979.5 2951.58 -3975.86C2921.8 -3949.1 2873.11 -3923.3 2840.71 -3922.55C2834.52 -3922.44 2828.5 -3920.57 2823.34 -3917.16C2818.18 -3913.74 2814.1 -3908.92 2811.59 -3903.27L2752.57 -3772.64C2750.53 -3768.11 2747.51 -3764.09 2743.72 -3760.88C2669.37 -3700.09 2485.78 -3700.42 2398.7 -3655.83C2394.39 -3653.56 2390.65 -3650.35 2387.74 -3646.45C2384.84 -3642.54 2382.84 -3638.04 2381.91 -3633.27L2336.21 -3398.27C2335.08 -3392.36 2335.61 -3386.24 2337.75 -3380.62C2339.88 -3374.99 2343.54 -3370.06 2348.31 -3366.39C2353.09 -3362.72 2358.78 -3360.44 2364.78 -3359.81C2370.77 -3359.18 2376.82 -3360.22 2382.26 -3362.82L2626.18 -3480.1C2630.72 -3482.36 2634.67 -3485.63 2637.71 -3489.67C2640.76 -3493.71 2642.83 -3498.4 2643.75 -3503.37C2644.67 -3508.35 2644.42 -3513.46 2643.02 -3518.32C2641.61 -3523.18 2639.1 -3527.64 2635.67 -3531.36L2588.28 -3582.7C2584.94 -3586.36 2582.47 -3590.72 2581.07 -3595.47C2579.67 -3600.22 2579.37 -3605.23 2580.2 -3610.11C2581.03 -3614.99 2582.96 -3619.62 2585.85 -3623.65C2588.73 -3627.68 2592.5 -3631 2596.86 -3633.35L2636.33 -3654.54C2641.41 -3657.73 2647.28 -3659.45 2653.28 -3659.5C2659.27 -3659.56 2665.17 -3657.95 2670.3 -3654.86L2807.76 -3560.25C2811.27 -3557.86 2815.22 -3556.17 2819.37 -3555.27L2962.6 -3524.62C2968.12 -3523.41 2973.23 -3520.79 2977.44 -3517.02C2981.65 -3513.25 2984.8 -3508.45 2986.6 -3503.1C3012.99 -3424.44 2959.04 -3241.03 2907.58 -3196.87C2903.74 -3193.48 2900.74 -3189.25 2898.82 -3184.51C2896.89 -3179.77 2896.1 -3174.65 2896.49 -3169.55L2917.85 -2862.51C2918.06 -2858.66 2917.6 -2854.81 2916.5 -2851.12L2902.53 -2803.17C2901.19 -2798.59 2898.86 -2794.37 2895.7 -2790.8C2892.55 -2787.22 2888.65 -2784.38 2884.28 -2782.47C2879.91 -2780.56 2875.17 -2779.64 2870.41 -2779.76C2865.64 -2779.88 2860.96 -2781.04 2856.69 -2783.17L2798.64 -2812C2794.05 -2814.27 2790.06 -2817.58 2787 -2821.67C2783.93 -2825.76 2781.88 -2830.52 2781 -2835.56C2772.81 -2882.75 2755.19 -2985.04 2747.5 -3029.06C2746.44 -3035.29 2743.57 -3041.07 2739.26 -3045.69C2734.94 -3050.31 2729.37 -3053.56 2723.23 -3055.06L2672.13 -3067.64C2665.8 -3069.2 2659.14 -3068.85 2653 -3066.62L2630.31 -3058.09C2626.07 -3056.51 2622.21 -3054.05 2618.97 -3050.89C2615.73 -3047.73 2613.19 -3043.93 2611.5 -3039.74C2609.81 -3035.54 2609.01 -3031.04 2609.15 -3026.53C2609.3 -3022.01 2610.38 -3017.57 2612.34 -3013.49L2620.72 -2996.05C2624.34 -2988.56 2624.95 -2979.96 2622.42 -2972.02C2619.89 -2964.08 2614.41 -2957.41 2607.12 -2953.38L2433.41 -2857.93C2431.29 -2856.79 2429.33 -2855.39 2427.56 -2853.76C2382.32 -2818.95 2335.15 -2786.72 2286.29 -2757.2C2280.23 -2753.54 2275.52 -2748 2272.9 -2741.43C2270.28 -2734.85 2269.88 -2727.6 2271.76 -2720.78C2273.65 -2713.97 2277.72 -2707.95 2283.35 -2703.67C2288.97 -2699.38 2295.85 -2697.05 2302.94 -2697.04L2687.09 -2690.54L3079.89 -2674.91C3085.78 -2674.68 3091.48 -2672.86 3096.42 -2669.66C3101.35 -2666.45 3105.33 -2661.98 3107.93 -2656.7L3189.46 -2487.14C3190.55 -2484.85 3191.93 -2482.71 3193.55 -2480.76L3439.19 -2179.99C3442.22 -2176.17 3444.36 -2171.72 3445.44 -2166.98L3446.28 -2163.46C3447.78 -2157.46 3447.52 -2151.15 3445.54 -2145.28C3443.56 -2139.42 3439.95 -2134.24 3435.12 -2130.36C3430.29 -2126.48 3424.46 -2124.06 3418.3 -2123.39C3412.14 -2122.71 3405.92 -2123.82 3400.38 -2126.56C3372.74 -2140.03 3345.18 -2153.7 3317.68 -2167.24C3315.52 -2168.32 3313.47 -2169.62 3311.56 -2171.11C3276.33 -2199.67 3241.16 -2228.09 3206.07 -2256.71C3201.33 -2260.56 3195.6 -2262.99 3189.54 -2263.74C3183.48 -2264.48 3177.33 -2263.52 3171.79 -2260.94C3166.26 -2258.37 3161.55 -2254.29 3158.22 -2249.18C3154.88 -2244.06 3153.05 -2238.12 3152.93 -2232.02L3152.75 -2216.42C3152.6 -2211.66 3153.52 -2206.93 3155.44 -2202.58C3157.36 -2198.22 3160.22 -2194.35 3163.83 -2191.25L3329.25 -2047.71C3332.97 -2044.6 3337.32 -2042.33 3342.01 -2041.06L3494.61 -1999.07C3499.91 -1997.56 3505.51 -1997.42 3510.88 -1998.66C3516.25 -1999.91 3521.22 -2002.49 3525.33 -2006.17L3570.5 -2044.93C3573.89 -2047.75 3577.74 -2049.95 3581.88 -2051.43L3870.74 -2135.95L3892.34 -2115.16C3894.14 -2116.02 3902.4 -2120.85 3917.84 -2127.42C3920.61 -2128.75 3916.84 -2146.53 3919.61 -2147.87C3933.47 -2154.53 3959.26 -2163.01 3959.26 -2163.01L3976.47 -2151.69L4017.65 -2163.65L4039.82 -2148.41C4045.63 -2147.97 4051.46 -2149.07 4056.72 -2151.59L4110.49 -2177.45C4114.67 -2179.45 4119.22 -2180.54 4123.84 -2180.64C4128.47 -2180.75 4133.06 -2179.87 4137.32 -2178.07C4141.58 -2176.26 4145.4 -2173.57 4148.54 -2170.17C4151.67 -2166.77 4154.05 -2162.75 4155.5 -2158.36L4254.16 -1860.19C4255.51 -1856.08 4256.03 -1851.74 4255.68 -1847.42C4255.33 -1843.1 4254.13 -1838.9 4252.13 -1835.05C4250.13 -1831.2 4247.39 -1827.79 4244.06 -1825.01C4240.73 -1822.23 4236.88 -1820.15 4232.74 -1818.88L4128.47 -1787.32C4122.86 -1785.55 4117.85 -1782.29 4113.95 -1777.89C4110.05 -1773.5 4107.42 -1768.13 4106.34 -1762.36L4095.26 -1705.91C4093.81 -1698.07 4089.53 -1691.03 4083.22 -1686.15C4076.92 -1681.26 4069.03 -1678.86 4061.07 -1679.42C3982.02 -1685.2 3844.7 -1724.15 3773.87 -1779.9C3771.35 -1782 3769.1 -1784.42 3767.18 -1787.08C3734.71 -1834.98 3702.21 -1882.92 3669.7 -1930.9C3665.08 -1937.77 3658.01 -1942.61 3649.93 -1944.43C3641.86 -1946.25 3633.39 -1944.91 3626.26 -1940.69L3363.6 -1787.13C3359.03 -1784.49 3353.88 -1783.01 3348.61 -1782.82L3208.59 -1777.36C3200.76 -1777.02 3193.07 -1779.54 3186.96 -1784.43C3180.84 -1789.32 3176.71 -1796.26 3175.32 -1803.96L3149.79 -1945.06C3148.71 -1950.14 3146.43 -1954.89 3143.14 -1958.9L3088.61 -2032.55C3083.52 -2039.36 3075.96 -2043.9 3067.55 -2045.21C3059.14 -2046.51 3050.55 -2044.48 3043.62 -2039.54L2815.45 -1875.3C2811.88 -1872.65 2807.83 -1870.7 2803.53 -1869.57L2476.16 -1797.37C2471.64 -1796.22 2467.4 -1794.18 2463.69 -1791.37L2420.46 -1758.83C2416.71 -1756.09 2413.58 -1752.58 2411.29 -1748.54C2409 -1744.5 2407.59 -1740.02 2407.16 -1735.39L2395.28 -1542.22C2395 -1537.65 2393.77 -1533.19 2391.66 -1529.12C2389.54 -1525.06 2386.6 -1521.48 2383.01 -1518.63C2379.42 -1515.78 2375.27 -1513.72 2370.83 -1512.57C2366.39 -1511.43 2361.76 -1511.24 2357.25 -1512.01C2237.92 -1532 2029.86 -1498.76 1930.9 -1450.83C1926.92 -1448.89 1923.39 -1446.15 1920.52 -1442.8C1917.64 -1439.44 1915.48 -1435.53 1914.17 -1431.31C1912.86 -1427.09 1912.43 -1422.64 1912.9 -1418.25C1913.37 -1413.86 1914.73 -1409.61 1916.91 -1405.76L1920.5 -1398.29C1922.86 -1394.11 1924.27 -1389.45 1924.61 -1384.65C1924.95 -1379.86 1924.21 -1375.05 1922.46 -1370.57C1920.71 -1366.09 1917.99 -1362.06 1914.49 -1358.76C1910.99 -1355.46 1906.79 -1352.98 1902.22 -1351.5L1746.96 -1300.7C1742.88 -1299.38 1739.11 -1297.25 1735.85 -1294.46C1732.6 -1291.67 1729.93 -1288.26 1728 -1284.43C1703.55 -1234.5 1716.25 -1099.84 1751.88 -1057.33C1755.07 -1053.75 1757.42 -1049.49 1758.75 -1044.88C1760.08 -1040.27 1760.36 -1035.42 1759.57 -1030.69L1731.41 -873.49C1730.35 -867.639 1730.94 -861.61 1733.12 -856.081L1754.9 -803.33C1756.94 -797.99 1757.53 -792.209 1756.62 -786.566C1755.71 -780.923 1753.33 -775.618 1749.72 -771.182L1654.18 -653.672C1650.47 -649.121 1648.07 -643.649 1647.22 -637.841C1646.38 -632.033 1647.13 -626.107 1649.39 -620.695L1708.51 -477.513C1711.68 -469.943 1711.85 -461.453 1709 -453.755C1706.14 -446.058 1700.47 -439.725 1693.13 -436.036L1669.99 -424.907C1665.27 -422.512 1660.04 -421.297 1654.74 -421.364C1649.45 -421.431 1644.26 -422.779 1639.6 -425.292L1533.12 -483.157C1527.94 -485.963 1522.1 -487.3 1516.22 -487.024C1510.33 -486.749 1504.64 -484.871 1499.74 -481.594L1322.76 -362.416C1317.88 -359.234 1312.26 -357.355 1306.45 -356.956C1264.31 -353.738 1077.79 -342.783 950.548 -323.865C944.558 -322.994 938.927 -320.474 934.286 -316.587C929.646 -312.7 926.178 -307.6 924.273 -301.858L887.141 -189.935C886.331 -187.349 885.157 -184.891 883.655 -182.635L815.259 -76.4687C811.454 -70.4998 805.768 -65.9667 799.1 -63.5864L714.845 -32.2772C706.959 -29.3361 698.245 -29.5402 690.512 -32.847L605.841 -70.1847Z" fill="#293135" stroke="#2D7D9A" stroke-opacity="0.38" stroke-miterlimit="10"/>
<path d="M1005.36 413.01H992.079V399.72H976.089V413.01H962.809V428.99H976.089V442.28H992.079V428.99H1005.36V413.01Z" fill="#2D7D9A"/>
<path d="M1389.36 365.01H1376.08V351.72H1360.09V365.01H1346.81V380.99H1360.09V394.28H1376.08V380.99H1389.36V365.01Z" fill="#2D7D9A"/>
<path d="M1669.36 235.349H1656.08V222.059H1640.09V235.349H1626.81V251.329H1640.09V264.619H1656.08V251.329H1669.36V235.349Z" fill="#2D7D9A"/>
<path d="M1717.36 500.685H1704.08V487.395H1688.09V500.685H1674.81V516.665H1688.09V529.955H1704.08V516.665H1717.36V500.685Z" fill="#2D7D9A"/>
<path d="M1790.13 781.01H1776.85V767.72H1760.86V781.01H1747.58V796.99H1760.86V810.28H1776.85V796.99H1790.13V781.01Z" fill="#2D7D9A"/>
<path d="M662.359 907.147H649.079V893.857H633.089V907.147H619.809V923.127H633.089V936.417H649.079V923.127H662.359V907.147Z" fill="#2D7D9A"/>
<path d="M1365.36 556.01H1352.08V542.72H1336.09V556.01H1322.81V571.99H1336.09V585.28H1352.08V571.99H1365.36V556.01Z" fill="#2D7D9A"/>
<path d="M1579.55 604.01H1566.27V590.72H1550.28V604.01H1537V619.99H1550.28V633.28H1566.27V619.99H1579.55V604.01Z" fill="#2D7D9A"/>
<path d="M1317.36 829.01H1304.08V815.72H1288.09V829.01H1274.81V844.99H1288.09V858.28H1304.08V844.99H1317.36V829.01Z" fill="#2D7D9A"/>
</g>
<defs>
<clipPath id="clip0">
<rect width="1920" height="1080" fill="white"/>
</clipPath>
</defs>
</svg>
