<svg width="1920" height="1080" viewBox="0 0 1920 1080" fill="none" xmlns="http://www.w3.org/2000/svg">
<g clip-path="url(#clip0)">
<path d="M605.841 5329.82C573.028 5317.64 565.509 4798.08 626.4 4666.73C629.076 4661.04 629.945 4654.68 628.891 4648.49C616.811 4556.65 647.25 4213.62 637.087 4143.87C629.079 4088.41 620.668 4033.78 611.854 3979.96C610.633 3972.07 612.33 3964 616.626 3957.26C620.922 3950.52 627.524 3945.58 635.2 3943.34L826.325 3889.79C830.999 3888.46 835.321 3886.11 838.975 3882.91C842.63 3879.71 845.527 3875.73 847.456 3871.28L907.564 3732.97C909.149 3729.47 911.29 3726.25 913.905 3723.44L1024.69 3606.78C1029.08 3602.14 1032 3596.31 1033.11 3590.02C1034.21 3583.74 1033.44 3577.27 1030.89 3571.42C1009.86 3523.76 1000.99 3502.12 949.07 3394.5C947.615 3391.51 946.601 3388.33 946.058 3385.05C928.155 3235.38 925.591 3084.27 938.406 2934.06C938.937 2928.33 937.94 2922.56 935.518 2917.35C933.095 2912.13 929.333 2907.66 924.614 2904.37C919.895 2901.08 914.388 2899.1 908.652 2898.63C902.915 2898.16 897.155 2899.21 891.957 2901.69L882.533 2906.22C878.434 2908.21 873.959 2909.31 869.404 2909.44C864.85 2909.58 860.32 2908.74 856.115 2906.99L609.144 2806.08C607.226 2805.29 605.23 2804.71 603.19 2804.34C557.61 2795.07 16.0382 2686.52 -145.834 2622.06C-150.483 2620.22 -154.645 2617.33 -157.996 2613.62C-161.347 2609.92 -163.798 2605.49 -165.159 2600.68L-176.676 2559.69C-178.526 2553.03 -182.452 2547.13 -187.886 2542.84C-193.319 2538.56 -199.978 2536.12 -206.896 2535.88L-309.236 2532.77C-315.311 2532.63 -321.22 2530.77 -326.278 2527.41C-331.337 2524.06 -335.336 2519.33 -337.814 2513.79C-382.434 2414.25 -413.006 2179.97 -379.58 2054.66C-378.347 2050.1 -376.151 2045.84 -373.14 2042.19C-370.129 2038.54 -366.371 2035.57 -362.12 2033.49L-278.964 1993.5C-275.103 1991.65 -271.644 1989.06 -268.785 1985.87C-265.926 1982.68 -263.723 1978.96 -262.302 1974.93L-191.134 1772.68C-189.242 1767.22 -188.828 1761.36 -189.933 1755.7C-191.038 1750.04 -193.623 1744.77 -197.426 1740.43L-234.047 1699.75C-237.396 1695.94 -239.806 1691.4 -241.086 1686.49C-242.366 1681.58 -242.48 1676.44 -241.419 1671.48C-240.358 1666.51 -238.151 1661.87 -234.974 1657.9C-231.798 1653.94 -227.739 1650.78 -223.123 1648.66C-121.712 1602.28 47.9561 1570.46 148.118 1576.49C155.945 1576.96 163.336 1580.24 168.924 1585.73C174.513 1591.22 177.92 1598.54 178.516 1606.36C180.244 1627.34 181.694 1648.45 183.561 1669.37C184.028 1675.09 186.001 1680.59 189.28 1685.3C192.558 1690.01 197.026 1693.77 202.23 1696.2C207.434 1698.63 213.189 1699.64 218.912 1699.13C224.636 1698.62 230.124 1696.6 234.821 1693.29L270.848 1667.79C277.172 1662.98 285.028 1660.63 292.951 1661.18C300.874 1661.73 308.324 1665.14 313.915 1670.77C317.627 1674.51 322.196 1677.29 327.229 1678.87C332.262 1680.45 337.605 1680.78 342.796 1679.83C347.987 1678.88 352.868 1676.67 357.017 1673.41C361.166 1670.15 364.457 1665.93 366.605 1661.11L507.04 1349.89C507.77 1348.16 508.696 1346.51 509.8 1344.98L694.118 1071.8C697.133 1067.06 698.872 1061.62 699.167 1056.02C699.461 1050.41 698.301 1044.83 695.798 1039.81L616.599 875.092C615.354 872.402 613.701 869.92 611.696 867.736C548.764 799.666 642.283 515.436 689.77 426.822C693.562 419.757 699.839 414.343 707.387 411.626C714.936 408.909 723.221 409.082 730.644 412.111L823.56 449.915C828.801 452.103 834.533 452.855 840.166 452.094C845.798 451.332 851.127 449.085 855.604 445.584C908.161 405.487 1087.1 270.878 1159.78 245.304C1166.55 243 1173.88 242.969 1180.66 245.217C1187.44 247.464 1193.3 251.867 1197.33 257.752C1233.75 311.478 1270.27 365.205 1306.92 418.934C1310.53 424.26 1315.66 428.381 1321.65 430.766C1387.52 457.036 1786.95 617.739 1873.46 699.01C1877.92 703.2 1883.47 706.059 1889.48 707.266C1895.49 708.472 1901.71 707.978 1907.46 705.839C1991.91 677.614 2078.92 657.697 2167.24 646.37C2172.97 645.882 2178.47 643.88 2183.17 640.57C2187.88 637.259 2191.62 632.76 2194.01 627.531L2212.81 586.793C2214.9 582.199 2218.03 578.155 2221.96 574.981C2225.89 571.807 2230.5 569.592 2235.43 568.512C2240.36 567.431 2245.48 567.515 2250.37 568.757C2255.26 569.999 2259.79 572.364 2263.6 575.664C2317.12 621.675 2389.16 705.135 2418.71 766.934C2420.55 770.768 2423.13 774.199 2426.31 777.03C2429.49 779.86 2433.19 782.034 2437.21 783.426L2625.12 849.516C2632.55 852.167 2638.77 857.408 2642.63 864.275L2720 1001.41L2820.5 1210.41C2822.58 1214.57 2823.73 1219.14 2823.86 1223.79L2825.59 1300.16C2825.73 1306.44 2827.67 1312.55 2831.2 1317.74C2834.73 1322.94 2839.69 1327.01 2845.48 1329.45L2942.62 1370C2947.68 1372.11 2952.12 1375.48 2955.52 1379.78C2958.92 1384.08 2961.18 1389.17 2962.07 1394.58C2962.97 1399.99 2962.48 1405.53 2960.64 1410.7C2958.81 1415.87 2955.69 1420.5 2951.58 1424.14C2921.8 1450.9 2873.11 1476.7 2840.71 1477.45C2834.52 1477.56 2828.5 1479.43 2823.34 1482.84C2818.18 1486.26 2814.1 1491.08 2811.59 1496.73L2752.57 1627.36C2750.53 1631.89 2747.51 1635.91 2743.72 1639.12C2669.37 1699.91 2485.78 1699.58 2398.7 1744.17C2394.39 1746.44 2390.65 1749.65 2387.74 1753.55C2384.84 1757.46 2382.84 1761.96 2381.91 1766.73L2336.21 2001.73C2335.08 2007.64 2335.61 2013.76 2337.75 2019.38C2339.88 2025.01 2343.54 2029.94 2348.31 2033.61C2353.09 2037.28 2358.78 2039.56 2364.78 2040.19C2370.77 2040.82 2376.82 2039.78 2382.26 2037.18L2626.18 1919.9C2630.72 1917.64 2634.67 1914.37 2637.71 1910.33C2640.76 1906.29 2642.83 1901.6 2643.75 1896.63C2644.67 1891.65 2644.42 1886.54 2643.02 1881.68C2641.61 1876.82 2639.1 1872.36 2635.67 1868.64L2588.28 1817.3C2584.94 1813.64 2582.47 1809.28 2581.07 1804.53C2579.67 1799.78 2579.37 1794.77 2580.2 1789.89C2581.03 1785.01 2582.96 1780.38 2585.85 1776.35C2588.73 1772.32 2592.5 1769 2596.86 1766.65L2636.33 1745.46C2641.41 1742.27 2647.28 1740.55 2653.28 1740.5C2659.27 1740.44 2665.17 1742.05 2670.3 1745.14L2807.76 1839.75C2811.27 1842.14 2815.22 1843.83 2819.37 1844.73L2962.6 1875.38C2968.12 1876.59 2973.23 1879.21 2977.44 1882.98C2981.65 1886.75 2984.8 1891.55 2986.6 1896.9C3012.99 1975.56 2959.04 2158.97 2907.58 2203.13C2903.74 2206.52 2900.74 2210.75 2898.82 2215.49C2896.89 2220.23 2896.1 2225.35 2896.49 2230.45L2917.85 2537.49C2918.06 2541.34 2917.6 2545.19 2916.5 2548.88L2902.53 2596.83C2901.19 2601.41 2898.86 2605.63 2895.7 2609.2C2892.55 2612.78 2888.65 2615.62 2884.28 2617.53C2879.91 2619.44 2875.17 2620.36 2870.41 2620.24C2865.64 2620.12 2860.96 2618.96 2856.69 2616.83L2798.64 2588C2794.05 2585.73 2790.06 2582.42 2787 2578.33C2783.93 2574.24 2781.88 2569.48 2781 2564.44C2772.81 2517.25 2755.19 2414.96 2747.5 2370.94C2746.44 2364.71 2743.57 2358.93 2739.26 2354.31C2734.94 2349.69 2729.37 2346.44 2723.23 2344.94L2672.13 2332.36C2665.8 2330.8 2659.14 2331.15 2653 2333.38L2630.31 2341.91C2626.07 2343.49 2622.21 2345.95 2618.97 2349.11C2615.73 2352.27 2613.19 2356.07 2611.5 2360.26C2609.81 2364.46 2609.01 2368.96 2609.15 2373.47C2609.3 2377.99 2610.38 2382.43 2612.34 2386.51L2620.72 2403.95C2624.34 2411.44 2624.95 2420.04 2622.42 2427.98C2619.89 2435.92 2614.41 2442.59 2607.12 2446.62L2433.41 2542.07C2431.29 2543.21 2429.33 2544.61 2427.56 2546.24C2382.32 2581.05 2335.15 2613.28 2286.29 2642.8C2280.23 2646.46 2275.52 2652 2272.9 2658.57C2270.28 2665.15 2269.88 2672.4 2271.76 2679.22C2273.65 2686.03 2277.72 2692.05 2283.35 2696.33C2288.97 2700.62 2295.85 2702.95 2302.94 2702.96L2687.09 2709.46L3079.89 2725.09C3085.78 2725.32 3091.48 2727.14 3096.42 2730.34C3101.35 2733.55 3105.33 2738.02 3107.93 2743.3L3189.46 2912.86C3190.55 2915.15 3191.93 2917.29 3193.55 2919.24L3439.19 3220.01C3442.22 3223.83 3444.36 3228.28 3445.44 3233.02L3446.28 3236.54C3447.78 3242.54 3447.52 3248.85 3445.54 3254.72C3443.56 3260.58 3439.95 3265.76 3435.12 3269.64C3430.29 3273.52 3424.46 3275.94 3418.3 3276.61C3412.14 3277.29 3405.92 3276.18 3400.38 3273.44C3372.74 3259.97 3345.18 3246.3 3317.68 3232.76C3315.52 3231.68 3313.47 3230.38 3311.56 3228.89C3276.33 3200.33 3241.16 3171.91 3206.07 3143.29C3201.33 3139.44 3195.6 3137.01 3189.54 3136.26C3183.48 3135.52 3177.33 3136.48 3171.79 3139.06C3166.26 3141.63 3161.55 3145.71 3158.22 3150.82C3154.88 3155.94 3153.05 3161.88 3152.93 3167.98L3152.75 3183.58C3152.6 3188.34 3153.52 3193.07 3155.44 3197.42C3157.36 3201.78 3160.22 3205.65 3163.83 3208.75L3329.25 3352.29C3332.97 3355.4 3337.32 3357.67 3342.01 3358.94L3494.61 3400.93C3499.91 3402.44 3505.51 3402.58 3510.88 3401.34C3516.25 3400.09 3521.22 3397.51 3525.33 3393.83L3570.5 3355.07C3573.89 3352.25 3577.74 3350.05 3581.88 3348.57L3870.74 3264.05L3892.34 3284.84C3894.14 3283.98 3902.4 3279.15 3917.84 3272.58C3920.61 3271.25 3916.84 3253.47 3919.61 3252.13C3933.47 3245.47 3959.26 3236.99 3959.26 3236.99L3976.47 3248.31L4017.65 3236.35L4039.82 3251.59C4045.63 3252.03 4051.46 3250.93 4056.72 3248.41L4110.49 3222.55C4114.67 3220.55 4119.22 3219.46 4123.84 3219.36C4128.47 3219.25 4133.06 3220.13 4137.32 3221.93C4141.58 3223.74 4145.4 3226.43 4148.54 3229.83C4151.67 3233.23 4154.05 3237.25 4155.5 3241.64L4254.16 3539.81C4255.51 3543.92 4256.03 3548.26 4255.68 3552.58C4255.33 3556.9 4254.13 3561.1 4252.13 3564.95C4250.13 3568.8 4247.39 3572.21 4244.06 3574.99C4240.73 3577.77 4236.88 3579.85 4232.74 3581.12L4128.47 3612.68C4122.86 3614.45 4117.85 3617.71 4113.95 3622.11C4110.05 3626.5 4107.42 3631.87 4106.34 3637.64L4095.26 3694.09C4093.81 3701.93 4089.53 3708.97 4083.22 3713.85C4076.92 3718.74 4069.03 3721.14 4061.07 3720.58C3982.02 3714.8 3844.7 3675.85 3773.87 3620.1C3771.35 3618 3769.1 3615.58 3767.18 3612.92C3734.71 3565.02 3702.21 3517.08 3669.7 3469.1C3665.08 3462.23 3658.01 3457.39 3649.93 3455.57C3641.86 3453.75 3633.39 3455.09 3626.26 3459.31L3363.6 3612.87C3359.03 3615.51 3353.88 3616.99 3348.61 3617.18L3208.59 3622.64C3200.76 3622.98 3193.07 3620.46 3186.96 3615.57C3180.84 3610.68 3176.71 3603.74 3175.32 3596.04L3149.79 3454.94C3148.71 3449.86 3146.43 3445.11 3143.14 3441.1L3088.61 3367.45C3083.52 3360.64 3075.96 3356.1 3067.55 3354.79C3059.14 3353.49 3050.55 3355.52 3043.62 3360.46L2815.45 3524.7C2811.88 3527.35 2807.83 3529.3 2803.53 3530.43L2476.16 3602.63C2471.64 3603.78 2467.4 3605.82 2463.69 3608.63L2420.46 3641.17C2416.71 3643.91 2413.58 3647.42 2411.29 3651.46C2409 3655.5 2407.59 3659.98 2407.16 3664.61L2395.28 3857.78C2395 3862.35 2393.77 3866.81 2391.66 3870.88C2389.54 3874.94 2386.6 3878.52 2383.01 3881.37C2379.42 3884.22 2375.27 3886.28 2370.83 3887.43C2366.39 3888.57 2361.76 3888.76 2357.25 3887.99C2237.92 3868 2029.86 3901.24 1930.9 3949.17C1926.92 3951.11 1923.39 3953.85 1920.52 3957.2C1917.64 3960.56 1915.48 3964.47 1914.17 3968.69C1912.86 3972.91 1912.43 3977.36 1912.9 3981.75C1913.37 3986.14 1914.73 3990.39 1916.91 3994.24L1920.5 4001.71C1922.86 4005.89 1924.27 4010.55 1924.61 4015.35C1924.95 4020.14 1924.21 4024.95 1922.46 4029.43C1920.71 4033.91 1917.99 4037.94 1914.49 4041.24C1910.99 4044.54 1906.79 4047.02 1902.22 4048.5L1746.96 4099.3C1742.88 4100.62 1739.11 4102.75 1735.85 4105.54C1732.6 4108.33 1729.93 4111.74 1728 4115.57C1703.55 4165.5 1716.25 4300.16 1751.88 4342.67C1755.07 4346.25 1757.42 4350.51 1758.75 4355.12C1760.08 4359.73 1760.36 4364.58 1759.57 4369.31L1731.41 4526.51C1730.35 4532.36 1730.94 4538.39 1733.12 4543.92L1754.9 4596.67C1756.94 4602.01 1757.53 4607.79 1756.62 4613.43C1755.71 4619.08 1753.33 4624.38 1749.72 4628.82L1654.18 4746.33C1650.47 4750.88 1648.07 4756.35 1647.22 4762.16C1646.38 4767.97 1647.13 4773.89 1649.39 4779.31L1708.51 4922.49C1711.68 4930.06 1711.85 4938.55 1709 4946.24C1706.14 4953.94 1700.47 4960.27 1693.13 4963.96L1669.99 4975.09C1665.27 4977.49 1660.04 4978.7 1654.74 4978.64C1649.45 4978.57 1644.26 4977.22 1639.6 4974.71L1533.12 4916.84C1527.94 4914.04 1522.1 4912.7 1516.22 4912.98C1510.33 4913.25 1504.64 4915.13 1499.74 4918.41L1322.76 5037.58C1317.88 5040.77 1312.26 5042.65 1306.45 5043.04C1264.31 5046.26 1077.79 5057.22 950.548 5076.13C944.558 5077.01 938.927 5079.53 934.286 5083.41C929.646 5087.3 926.178 5092.4 924.273 5098.14L887.141 5210.07C886.331 5212.65 885.157 5215.11 883.655 5217.37L815.259 5323.53C811.454 5329.5 805.768 5334.03 799.1 5336.41L714.845 5367.72C706.959 5370.66 698.245 5370.46 690.512 5367.15L605.841 5329.82Z" fill="#293135" stroke="#2D7D9A" stroke-opacity="0.38" stroke-miterlimit="10"/>
<path d="M1197.22 742.74H1203.29M1186.57 760.6C1186.57 762.07 1186.14 763.506 1185.32 764.728C1184.5 765.95 1183.34 766.902 1181.98 767.464C1180.63 768.027 1179.13 768.174 1177.69 767.887C1176.25 767.601 1174.93 766.893 1173.89 765.854C1172.85 764.815 1172.14 763.491 1171.85 762.05C1171.57 760.608 1171.71 759.114 1172.28 757.757C1172.84 756.399 1173.79 755.239 1175.01 754.422C1176.23 753.606 1177.67 753.17 1179.14 753.17C1181.11 753.17 1183 753.953 1184.39 755.346C1185.79 756.74 1186.57 758.629 1186.57 760.6V760.6ZM1208.86 753.17C1207.39 753.168 1205.95 753.602 1204.73 754.417C1203.51 755.233 1202.55 756.392 1201.99 757.75C1201.43 759.107 1201.28 760.601 1201.56 762.043C1201.85 763.485 1202.55 764.81 1203.59 765.85C1204.63 766.89 1205.96 767.599 1207.4 767.886C1208.84 768.174 1210.33 768.027 1211.69 767.465C1213.05 766.903 1214.21 765.951 1215.03 764.729C1215.84 763.507 1216.28 762.07 1216.28 760.6C1216.28 758.631 1215.5 756.743 1214.11 755.35C1212.72 753.957 1210.83 753.173 1208.86 753.17ZM1179.14 760.6H1193H1179.14ZM1186.57 747.73H1201.43H1186.57ZM1179.14 760.6L1186.57 747.74L1179.14 760.6ZM1208.86 760.6L1198.64 742.88L1208.86 760.6ZM1183.74 742.75L1193.49 759.82L1183.74 742.75ZM1193 760.6L1201.45 747.74L1193 760.6ZM1180.54 742.74H1186.48H1180.54Z" stroke="#2D7D9A" stroke-width="3" stroke-linecap="round" stroke-linejoin="round"/>
<path d="M1101.22 589.48H1107.29M1090.57 607.34C1090.57 608.809 1090.14 610.246 1089.32 611.468C1088.5 612.69 1087.34 613.642 1085.98 614.204C1084.63 614.767 1083.13 614.914 1081.69 614.627C1080.25 614.341 1078.93 613.633 1077.89 612.594C1076.85 611.555 1076.14 610.231 1075.85 608.79C1075.57 607.348 1075.71 605.854 1076.28 604.497C1076.84 603.139 1077.79 601.979 1079.01 601.162C1080.23 600.346 1081.67 599.91 1083.14 599.91C1085.11 599.91 1087 600.693 1088.39 602.086C1089.79 603.48 1090.57 605.369 1090.57 607.34V607.34ZM1112.86 599.91C1111.39 599.908 1109.95 600.342 1108.73 601.157C1107.51 601.973 1106.55 603.132 1105.99 604.49C1105.43 605.847 1105.28 607.341 1105.56 608.783C1105.85 610.225 1106.55 611.55 1107.59 612.59C1108.63 613.63 1109.96 614.339 1111.4 614.626C1112.84 614.914 1114.33 614.767 1115.69 614.205C1117.05 613.643 1118.21 612.691 1119.03 611.469C1119.84 610.247 1120.28 608.81 1120.28 607.34C1120.28 605.371 1119.5 603.483 1118.11 602.09C1116.72 600.697 1114.83 599.913 1112.86 599.91ZM1083.14 607.34H1097H1083.14ZM1090.57 594.47H1105.43H1090.57ZM1083.14 607.34L1090.57 594.48L1083.14 607.34ZM1112.86 607.34L1102.64 589.62L1112.86 607.34ZM1087.74 589.49L1097.49 606.56L1087.74 589.49ZM1097 607.34L1105.45 594.48L1097 607.34ZM1084.54 589.48H1090.48H1084.54Z" stroke="#2D7D9A" stroke-width="3" stroke-linecap="round" stroke-linejoin="round"/>
<path d="M1268.22 455.74H1274.29M1257.57 473.6C1257.57 475.07 1257.14 476.506 1256.32 477.728C1255.5 478.95 1254.34 479.902 1252.98 480.464C1251.63 481.027 1250.13 481.174 1248.69 480.887C1247.25 480.601 1245.93 479.893 1244.89 478.854C1243.85 477.815 1243.14 476.491 1242.85 475.05C1242.57 473.608 1242.71 472.114 1243.28 470.757C1243.84 469.399 1244.79 468.239 1246.01 467.422C1247.23 466.606 1248.67 466.17 1250.14 466.17C1252.11 466.17 1254 466.953 1255.39 468.346C1256.79 469.74 1257.57 471.629 1257.57 473.6V473.6ZM1279.86 466.17C1278.39 466.168 1276.95 466.602 1275.73 467.417C1274.51 468.233 1273.55 469.392 1272.99 470.75C1272.43 472.107 1272.28 473.601 1272.56 475.043C1272.85 476.485 1273.55 477.81 1274.59 478.85C1275.63 479.89 1276.96 480.599 1278.4 480.886C1279.84 481.174 1281.33 481.027 1282.69 480.465C1284.05 479.903 1285.21 478.951 1286.03 477.729C1286.84 476.507 1287.28 475.07 1287.28 473.6C1287.28 471.631 1286.5 469.743 1285.11 468.35C1283.72 466.957 1281.83 466.173 1279.86 466.17ZM1250.14 473.6H1264H1250.14ZM1257.57 460.73H1272.43H1257.57ZM1250.14 473.6L1257.57 460.74L1250.14 473.6ZM1279.86 473.6L1269.64 455.88L1279.86 473.6ZM1254.74 455.75L1264.49 472.82L1254.74 455.75ZM1264 473.6L1272.45 460.74L1264 473.6ZM1251.54 455.74H1257.48H1251.54Z" stroke="#2D7D9A" stroke-width="3" stroke-linecap="round" stroke-linejoin="round"/>
<path d="M1285.22 920.74H1291.29M1274.57 938.6C1274.57 940.07 1274.14 941.506 1273.32 942.728C1272.5 943.95 1271.34 944.902 1269.98 945.464C1268.63 946.027 1267.13 946.174 1265.69 945.887C1264.25 945.601 1262.93 944.893 1261.89 943.854C1260.85 942.815 1260.14 941.491 1259.85 940.05C1259.57 938.608 1259.71 937.114 1260.28 935.757C1260.84 934.399 1261.79 933.239 1263.01 932.422C1264.23 931.606 1265.67 931.17 1267.14 931.17C1269.11 931.17 1271 931.953 1272.39 933.346C1273.79 934.74 1274.57 936.629 1274.57 938.6V938.6ZM1296.86 931.17C1295.39 931.168 1293.95 931.602 1292.73 932.417C1291.51 933.233 1290.55 934.392 1289.99 935.75C1289.43 937.107 1289.28 938.601 1289.56 940.043C1289.85 941.485 1290.55 942.81 1291.59 943.85C1292.63 944.89 1293.96 945.599 1295.4 945.886C1296.84 946.174 1298.33 946.027 1299.69 945.465C1301.05 944.903 1302.21 943.951 1303.03 942.729C1303.84 941.507 1304.28 940.07 1304.28 938.6C1304.28 936.631 1303.5 934.743 1302.11 933.35C1300.72 931.957 1298.83 931.173 1296.86 931.17ZM1267.14 938.6H1281H1267.14ZM1274.57 925.73H1289.43H1274.57ZM1267.14 938.6L1274.57 925.74L1267.14 938.6ZM1296.86 938.6L1286.64 920.88L1296.86 938.6ZM1271.74 920.75L1281.49 937.82L1271.74 920.75ZM1281 938.6L1289.45 925.74L1281 938.6ZM1268.54 920.74H1274.48H1268.54Z" stroke="#2D7D9A" stroke-width="3" stroke-linecap="round" stroke-linejoin="round"/>
<path d="M725.221 824.74H731.291M714.571 842.6C714.571 844.07 714.135 845.506 713.319 846.728C712.502 847.95 711.342 848.902 709.984 849.464C708.627 850.027 707.133 850.174 705.691 849.887C704.25 849.601 702.926 848.893 701.887 847.854C700.848 846.815 700.14 845.491 699.854 844.05C699.567 842.608 699.714 841.114 700.277 839.757C700.839 838.399 701.791 837.239 703.013 836.422C704.235 835.606 705.671 835.17 707.141 835.17C709.111 835.17 711.001 835.953 712.395 837.346C713.788 838.74 714.571 840.629 714.571 842.6V842.6ZM736.861 835.17C735.391 835.168 733.954 835.602 732.73 836.417C731.507 837.233 730.553 838.392 729.989 839.75C729.425 841.107 729.277 842.601 729.562 844.043C729.848 845.485 730.555 846.81 731.594 847.85C732.632 848.89 733.956 849.599 735.398 849.886C736.839 850.174 738.334 850.027 739.692 849.465C741.05 848.903 742.211 847.951 743.028 846.729C743.845 845.507 744.281 844.07 744.281 842.6C744.281 840.631 743.5 838.743 742.108 837.35C740.717 835.957 738.83 835.173 736.861 835.17ZM707.141 842.6H721.001H707.141ZM714.571 829.73H729.431H714.571ZM707.141 842.6L714.571 829.74L707.141 842.6ZM736.861 842.6L726.641 824.88L736.861 842.6ZM711.741 824.75L721.491 841.82L711.741 824.75ZM721.001 842.6L729.451 829.74L721.001 842.6ZM708.541 824.74H714.481H708.541Z" stroke="#2D7D9A" stroke-width="3" stroke-linecap="round" stroke-linejoin="round"/>
<path d="M879.221 602.74H885.291M868.571 620.6C868.571 622.07 868.135 623.506 867.319 624.728C866.502 625.95 865.342 626.902 863.984 627.464C862.627 628.027 861.133 628.174 859.691 627.887C858.25 627.601 856.926 626.893 855.887 625.854C854.848 624.815 854.14 623.491 853.854 622.05C853.567 620.608 853.714 619.114 854.277 617.757C854.839 616.399 855.791 615.239 857.013 614.422C858.235 613.606 859.671 613.17 861.141 613.17C863.111 613.17 865.001 613.953 866.395 615.346C867.788 616.74 868.571 618.629 868.571 620.6V620.6ZM890.861 613.17C889.391 613.168 887.954 613.602 886.73 614.417C885.507 615.233 884.553 616.392 883.989 617.75C883.425 619.107 883.277 620.601 883.562 622.043C883.848 623.485 884.555 624.81 885.594 625.85C886.632 626.89 887.956 627.599 889.398 627.886C890.839 628.174 892.334 628.027 893.692 627.465C895.05 626.903 896.211 625.951 897.028 624.729C897.845 623.507 898.281 622.07 898.281 620.6C898.281 618.631 897.5 616.743 896.108 615.35C894.717 613.957 892.83 613.173 890.861 613.17ZM861.141 620.6H875.001H861.141ZM868.571 607.73H883.431H868.571ZM861.141 620.6L868.571 607.74L861.141 620.6ZM890.861 620.6L880.641 602.88L890.861 620.6ZM865.741 602.75L875.491 619.82L865.741 602.75ZM875.001 620.6L883.451 607.74L875.001 620.6ZM862.541 602.74H868.481H862.541Z" stroke="#2D7D9A" stroke-width="3" stroke-linecap="round" stroke-linejoin="round"/>
<path d="M1523.22 602.74H1529.29M1512.57 620.6C1512.57 622.07 1512.14 623.506 1511.32 624.728C1510.5 625.95 1509.34 626.902 1507.98 627.464C1506.63 628.027 1505.13 628.174 1503.69 627.887C1502.25 627.601 1500.93 626.893 1499.89 625.854C1498.85 624.815 1498.14 623.491 1497.85 622.05C1497.57 620.608 1497.71 619.114 1498.28 617.757C1498.84 616.399 1499.79 615.239 1501.01 614.422C1502.23 613.606 1503.67 613.17 1505.14 613.17C1507.11 613.17 1509 613.953 1510.39 615.346C1511.79 616.74 1512.57 618.629 1512.57 620.6V620.6ZM1534.86 613.17C1533.39 613.168 1531.95 613.602 1530.73 614.417C1529.51 615.233 1528.55 616.392 1527.99 617.75C1527.43 619.107 1527.28 620.601 1527.56 622.043C1527.85 623.485 1528.55 624.81 1529.59 625.85C1530.63 626.89 1531.96 627.599 1533.4 627.886C1534.84 628.174 1536.33 628.027 1537.69 627.465C1539.05 626.903 1540.21 625.951 1541.03 624.729C1541.84 623.507 1542.28 622.07 1542.28 620.6C1542.28 618.631 1541.5 616.743 1540.11 615.35C1538.72 613.957 1536.83 613.173 1534.86 613.17ZM1505.14 620.6H1519H1505.14ZM1512.57 607.73H1527.43H1512.57ZM1505.14 620.6L1512.57 607.74L1505.14 620.6ZM1534.86 620.6L1524.64 602.88L1534.86 620.6ZM1509.74 602.75L1519.49 619.82L1509.74 602.75ZM1519 620.6L1527.45 607.74L1519 620.6ZM1506.54 602.74H1512.48H1506.54Z" stroke="#2D7D9A" stroke-width="3" stroke-linecap="round" stroke-linejoin="round"/>
<path d="M1472.22 872.74H1478.29M1461.57 890.6C1461.57 892.07 1461.14 893.506 1460.32 894.728C1459.5 895.95 1458.34 896.902 1456.98 897.464C1455.63 898.027 1454.13 898.174 1452.69 897.887C1451.25 897.601 1449.93 896.893 1448.89 895.854C1447.85 894.815 1447.14 893.491 1446.85 892.05C1446.57 890.608 1446.71 889.114 1447.28 887.757C1447.84 886.399 1448.79 885.239 1450.01 884.422C1451.23 883.606 1452.67 883.17 1454.14 883.17C1456.11 883.17 1458 883.953 1459.39 885.346C1460.79 886.74 1461.57 888.629 1461.57 890.6V890.6ZM1483.86 883.17C1482.39 883.168 1480.95 883.602 1479.73 884.417C1478.51 885.233 1477.55 886.392 1476.99 887.75C1476.43 889.107 1476.28 890.601 1476.56 892.043C1476.85 893.485 1477.55 894.81 1478.59 895.85C1479.63 896.89 1480.96 897.599 1482.4 897.886C1483.84 898.174 1485.33 898.027 1486.69 897.465C1488.05 896.903 1489.21 895.951 1490.03 894.729C1490.84 893.507 1491.28 892.07 1491.28 890.6C1491.28 888.631 1490.5 886.743 1489.11 885.35C1487.72 883.957 1485.83 883.173 1483.86 883.17ZM1454.14 890.6H1468H1454.14ZM1461.57 877.73H1476.43H1461.57ZM1454.14 890.6L1461.57 877.74L1454.14 890.6ZM1483.86 890.6L1473.64 872.88L1483.86 890.6ZM1458.74 872.75L1468.49 889.82L1458.74 872.75ZM1468 890.6L1476.45 877.74L1468 890.6ZM1455.54 872.74H1461.48H1455.54Z" stroke="#2D7D9A" stroke-width="3" stroke-linecap="round" stroke-linejoin="round"/>
<path d="M1740.22 860.74H1746.29M1729.57 878.6C1729.57 880.07 1729.14 881.506 1728.32 882.728C1727.5 883.95 1726.34 884.902 1724.98 885.464C1723.63 886.027 1722.13 886.174 1720.69 885.887C1719.25 885.601 1717.93 884.893 1716.89 883.854C1715.85 882.815 1715.14 881.491 1714.85 880.05C1714.57 878.608 1714.71 877.114 1715.28 875.757C1715.84 874.399 1716.79 873.239 1718.01 872.422C1719.23 871.606 1720.67 871.17 1722.14 871.17C1724.11 871.17 1726 871.953 1727.39 873.346C1728.79 874.74 1729.57 876.629 1729.57 878.6V878.6ZM1751.86 871.17C1750.39 871.168 1748.95 871.602 1747.73 872.417C1746.51 873.233 1745.55 874.392 1744.99 875.75C1744.43 877.107 1744.28 878.601 1744.56 880.043C1744.85 881.485 1745.55 882.81 1746.59 883.85C1747.63 884.89 1748.96 885.599 1750.4 885.886C1751.84 886.174 1753.33 886.027 1754.69 885.465C1756.05 884.903 1757.21 883.951 1758.03 882.729C1758.84 881.507 1759.28 880.07 1759.28 878.6C1759.28 876.631 1758.5 874.743 1757.11 873.35C1755.72 871.957 1753.83 871.173 1751.86 871.17ZM1722.14 878.6H1736H1722.14ZM1729.57 865.73H1744.43H1729.57ZM1722.14 878.6L1729.57 865.74L1722.14 878.6ZM1751.86 878.6L1741.64 860.88L1751.86 878.6ZM1726.74 860.75L1736.49 877.82L1726.74 860.75ZM1736 878.6L1744.45 865.74L1736 878.6ZM1723.54 860.74H1729.48H1723.54Z" stroke="#2D7D9A" stroke-width="3" stroke-linecap="round" stroke-linejoin="round"/>
<path d="M1420.84 738C1420.63 737.413 1420.25 736.906 1419.74 736.547C1419.23 736.189 1418.62 735.998 1418 736H1396C1395.38 735.998 1394.77 736.189 1394.26 736.547C1393.75 736.906 1393.37 737.413 1393.16 738L1389.22 749.36C1389.08 749.785 1389 750.231 1389 750.68V765C1389 765.796 1389.32 766.559 1389.88 767.121C1390.44 767.684 1391.2 768 1392 768C1392.8 768 1393.56 767.684 1394.12 767.121C1394.68 766.559 1395 765.796 1395 765V764H1419V765C1419 765.796 1419.32 766.559 1419.88 767.121C1420.44 767.684 1421.2 768 1422 768C1422.8 768 1423.56 767.684 1424.12 767.121C1424.68 766.559 1425 765.796 1425 765V750.68C1425 750.231 1424.92 749.786 1424.78 749.36L1420.84 738ZM1396 758C1395.41 758 1394.83 757.824 1394.33 757.494C1393.84 757.165 1393.46 756.696 1393.23 756.148C1393 755.6 1392.94 754.997 1393.06 754.415C1393.17 753.833 1393.46 753.298 1393.88 752.879C1394.3 752.459 1394.83 752.173 1395.41 752.058C1396 751.942 1396.6 752.001 1397.15 752.228C1397.7 752.455 1398.16 752.84 1398.49 753.333C1398.82 753.827 1399 754.407 1399 755C1399 755.796 1398.68 756.559 1398.12 757.121C1397.56 757.684 1396.8 758 1396 758ZM1418 758C1417.41 758 1416.83 757.824 1416.33 757.494C1415.84 757.165 1415.46 756.696 1415.23 756.148C1415 755.6 1414.94 754.997 1415.06 754.415C1415.17 753.833 1415.46 753.298 1415.88 752.879C1416.3 752.459 1416.83 752.173 1417.41 752.058C1418 751.942 1418.6 752.001 1419.15 752.228C1419.7 752.455 1420.16 752.84 1420.49 753.333C1420.82 753.827 1421 754.407 1421 755C1421 755.796 1420.68 756.559 1420.12 757.121C1419.56 757.684 1418.8 758 1418 758ZM1393 748L1395.54 740.36C1395.67 739.963 1395.93 739.618 1396.27 739.374C1396.61 739.13 1397.02 738.999 1397.44 739H1416.56C1416.98 738.999 1417.39 739.13 1417.73 739.374C1418.07 739.618 1418.33 739.963 1418.46 740.36L1421 748H1393Z" fill="#2D7D9A"/>
<path d="M992.84 936C992.633 935.413 992.248 934.906 991.739 934.547C991.23 934.189 990.622 933.998 990 934H968C967.378 933.998 966.77 934.189 966.261 934.547C965.752 934.906 965.367 935.413 965.16 936L961.22 947.36C961.076 947.785 961.001 948.231 961 948.68V963C961 963.796 961.316 964.559 961.879 965.121C962.441 965.684 963.204 966 964 966C964.796 966 965.559 965.684 966.121 965.121C966.684 964.559 967 963.796 967 963V962H991V963C991 963.796 991.316 964.559 991.879 965.121C992.441 965.684 993.204 966 994 966C994.796 966 995.559 965.684 996.121 965.121C996.684 964.559 997 963.796 997 963V948.68C996.997 948.231 996.923 947.786 996.78 947.36L992.84 936ZM968 956C967.407 956 966.827 955.824 966.333 955.494C965.84 955.165 965.455 954.696 965.228 954.148C965.001 953.6 964.942 952.997 965.058 952.415C965.173 951.833 965.459 951.298 965.879 950.879C966.298 950.459 966.833 950.173 967.415 950.058C967.997 949.942 968.6 950.001 969.148 950.228C969.696 950.455 970.165 950.84 970.494 951.333C970.824 951.827 971 952.407 971 953C971 953.796 970.684 954.559 970.121 955.121C969.559 955.684 968.796 956 968 956ZM990 956C989.407 956 988.827 955.824 988.333 955.494C987.84 955.165 987.455 954.696 987.228 954.148C987.001 953.6 986.942 952.997 987.058 952.415C987.173 951.833 987.459 951.298 987.879 950.879C988.298 950.459 988.833 950.173 989.415 950.058C989.997 949.942 990.6 950.001 991.148 950.228C991.696 950.455 992.165 950.84 992.494 951.333C992.824 951.827 993 952.407 993 953C993 953.796 992.684 954.559 992.121 955.121C991.559 955.684 990.796 956 990 956ZM965 946L967.54 938.36C967.674 937.963 967.93 937.618 968.271 937.374C968.612 937.13 969.021 936.999 969.44 937H988.56C988.979 936.999 989.388 937.13 989.729 937.374C990.07 937.618 990.326 937.963 990.46 938.36L993 946H965Z" fill="#2D7D9A"/>
<path d="M1069.84 447C1069.63 446.413 1069.25 445.906 1068.74 445.547C1068.23 445.189 1067.62 444.998 1067 445H1045C1044.38 444.998 1043.77 445.189 1043.26 445.547C1042.75 445.906 1042.37 446.413 1042.16 447L1038.22 458.36C1038.08 458.785 1038 459.231 1038 459.68V474C1038 474.796 1038.32 475.559 1038.88 476.121C1039.44 476.684 1040.2 477 1041 477C1041.8 477 1042.56 476.684 1043.12 476.121C1043.68 475.559 1044 474.796 1044 474V473H1068V474C1068 474.796 1068.32 475.559 1068.88 476.121C1069.44 476.684 1070.2 477 1071 477C1071.8 477 1072.56 476.684 1073.12 476.121C1073.68 475.559 1074 474.796 1074 474V459.68C1074 459.231 1073.92 458.786 1073.78 458.36L1069.84 447ZM1045 467C1044.41 467 1043.83 466.824 1043.33 466.494C1042.84 466.165 1042.46 465.696 1042.23 465.148C1042 464.6 1041.94 463.997 1042.06 463.415C1042.17 462.833 1042.46 462.298 1042.88 461.879C1043.3 461.459 1043.83 461.173 1044.41 461.058C1045 460.942 1045.6 461.001 1046.15 461.228C1046.7 461.455 1047.16 461.84 1047.49 462.333C1047.82 462.827 1048 463.407 1048 464C1048 464.796 1047.68 465.559 1047.12 466.121C1046.56 466.684 1045.8 467 1045 467ZM1067 467C1066.41 467 1065.83 466.824 1065.33 466.494C1064.84 466.165 1064.46 465.696 1064.23 465.148C1064 464.6 1063.94 463.997 1064.06 463.415C1064.17 462.833 1064.46 462.298 1064.88 461.879C1065.3 461.459 1065.83 461.173 1066.41 461.058C1067 460.942 1067.6 461.001 1068.15 461.228C1068.7 461.455 1069.16 461.84 1069.49 462.333C1069.82 462.827 1070 463.407 1070 464C1070 464.796 1069.68 465.559 1069.12 466.121C1068.56 466.684 1067.8 467 1067 467ZM1042 457L1044.54 449.36C1044.67 448.963 1044.93 448.618 1045.27 448.374C1045.61 448.13 1046.02 447.999 1046.44 448H1065.56C1065.98 447.999 1066.39 448.13 1066.73 448.374C1067.07 448.618 1067.33 448.963 1067.46 449.36L1070 457H1042Z" fill="#2D7D9A"/>
<path d="M991.84 781C991.633 780.413 991.248 779.906 990.739 779.547C990.23 779.189 989.622 778.998 989 779H967C966.378 778.998 965.77 779.189 965.261 779.547C964.752 779.906 964.367 780.413 964.16 781L960.22 792.36C960.076 792.785 960.001 793.231 960 793.68V808C960 808.796 960.316 809.559 960.879 810.121C961.441 810.684 962.204 811 963 811C963.796 811 964.559 810.684 965.121 810.121C965.684 809.559 966 808.796 966 808V807H990V808C990 808.796 990.316 809.559 990.879 810.121C991.441 810.684 992.204 811 993 811C993.796 811 994.559 810.684 995.121 810.121C995.684 809.559 996 808.796 996 808V793.68C995.997 793.231 995.923 792.786 995.78 792.36L991.84 781ZM967 801C966.407 801 965.827 800.824 965.333 800.494C964.84 800.165 964.455 799.696 964.228 799.148C964.001 798.6 963.942 797.997 964.058 797.415C964.173 796.833 964.459 796.298 964.879 795.879C965.298 795.459 965.833 795.173 966.415 795.058C966.997 794.942 967.6 795.001 968.148 795.228C968.696 795.455 969.165 795.84 969.494 796.333C969.824 796.827 970 797.407 970 798C970 798.796 969.684 799.559 969.121 800.121C968.559 800.684 967.796 801 967 801ZM989 801C988.407 801 987.827 800.824 987.333 800.494C986.84 800.165 986.455 799.696 986.228 799.148C986.001 798.6 985.942 797.997 986.058 797.415C986.173 796.833 986.459 796.298 986.879 795.879C987.298 795.459 987.833 795.173 988.415 795.058C988.997 794.942 989.6 795.001 990.148 795.228C990.696 795.455 991.165 795.84 991.494 796.333C991.824 796.827 992 797.407 992 798C992 798.796 991.684 799.559 991.121 800.121C990.559 800.684 989.796 801 989 801ZM964 791L966.54 783.36C966.674 782.963 966.93 782.618 967.271 782.374C967.612 782.13 968.021 781.999 968.44 782H987.56C987.979 781.999 988.388 782.13 988.729 782.374C989.07 782.618 989.326 782.963 989.46 783.36L992 791H964Z" fill="#2D7D9A"/>
<path d="M1605.84 1007C1605.63 1006.41 1605.25 1005.91 1604.74 1005.55C1604.23 1005.19 1603.62 1005 1603 1005H1581C1580.38 1005 1579.77 1005.19 1579.26 1005.55C1578.75 1005.91 1578.37 1006.41 1578.16 1007L1574.22 1018.36C1574.08 1018.79 1574 1019.23 1574 1019.68V1034C1574 1034.8 1574.32 1035.56 1574.88 1036.12C1575.44 1036.68 1576.2 1037 1577 1037C1577.8 1037 1578.56 1036.68 1579.12 1036.12C1579.68 1035.56 1580 1034.8 1580 1034V1033H1604V1034C1604 1034.8 1604.32 1035.56 1604.88 1036.12C1605.44 1036.68 1606.2 1037 1607 1037C1607.8 1037 1608.56 1036.68 1609.12 1036.12C1609.68 1035.56 1610 1034.8 1610 1034V1019.68C1610 1019.23 1609.92 1018.79 1609.78 1018.36L1605.84 1007ZM1581 1027C1580.41 1027 1579.83 1026.82 1579.33 1026.49C1578.84 1026.16 1578.46 1025.7 1578.23 1025.15C1578 1024.6 1577.94 1024 1578.06 1023.41C1578.17 1022.83 1578.46 1022.3 1578.88 1021.88C1579.3 1021.46 1579.83 1021.17 1580.41 1021.06C1581 1020.94 1581.6 1021 1582.15 1021.23C1582.7 1021.46 1583.16 1021.84 1583.49 1022.33C1583.82 1022.83 1584 1023.41 1584 1024C1584 1024.8 1583.68 1025.56 1583.12 1026.12C1582.56 1026.68 1581.8 1027 1581 1027ZM1603 1027C1602.41 1027 1601.83 1026.82 1601.33 1026.49C1600.84 1026.16 1600.46 1025.7 1600.23 1025.15C1600 1024.6 1599.94 1024 1600.06 1023.41C1600.17 1022.83 1600.46 1022.3 1600.88 1021.88C1601.3 1021.46 1601.83 1021.17 1602.41 1021.06C1603 1020.94 1603.6 1021 1604.15 1021.23C1604.7 1021.46 1605.16 1021.84 1605.49 1022.33C1605.82 1022.83 1606 1023.41 1606 1024C1606 1024.8 1605.68 1025.56 1605.12 1026.12C1604.56 1026.68 1603.8 1027 1603 1027ZM1578 1017L1580.54 1009.36C1580.67 1008.96 1580.93 1008.62 1581.27 1008.37C1581.61 1008.13 1582.02 1008 1582.44 1008H1601.56C1601.98 1008 1602.39 1008.13 1602.73 1008.37C1603.07 1008.62 1603.33 1008.96 1603.46 1009.36L1606 1017H1578Z" fill="#2D7D9A"/>
<path d="M1655.84 759C1655.63 758.413 1655.25 757.906 1654.74 757.547C1654.23 757.189 1653.62 756.998 1653 757H1631C1630.38 756.998 1629.77 757.189 1629.26 757.547C1628.75 757.906 1628.37 758.413 1628.16 759L1624.22 770.36C1624.08 770.785 1624 771.231 1624 771.68V786C1624 786.796 1624.32 787.559 1624.88 788.121C1625.44 788.684 1626.2 789 1627 789C1627.8 789 1628.56 788.684 1629.12 788.121C1629.68 787.559 1630 786.796 1630 786V785H1654V786C1654 786.796 1654.32 787.559 1654.88 788.121C1655.44 788.684 1656.2 789 1657 789C1657.8 789 1658.56 788.684 1659.12 788.121C1659.68 787.559 1660 786.796 1660 786V771.68C1660 771.231 1659.92 770.786 1659.78 770.36L1655.84 759ZM1631 779C1630.41 779 1629.83 778.824 1629.33 778.494C1628.84 778.165 1628.46 777.696 1628.23 777.148C1628 776.6 1627.94 775.997 1628.06 775.415C1628.17 774.833 1628.46 774.298 1628.88 773.879C1629.3 773.459 1629.83 773.173 1630.41 773.058C1631 772.942 1631.6 773.001 1632.15 773.228C1632.7 773.455 1633.16 773.84 1633.49 774.333C1633.82 774.827 1634 775.407 1634 776C1634 776.796 1633.68 777.559 1633.12 778.121C1632.56 778.684 1631.8 779 1631 779ZM1653 779C1652.41 779 1651.83 778.824 1651.33 778.494C1650.84 778.165 1650.46 777.696 1650.23 777.148C1650 776.6 1649.94 775.997 1650.06 775.415C1650.17 774.833 1650.46 774.298 1650.88 773.879C1651.3 773.459 1651.83 773.173 1652.41 773.058C1653 772.942 1653.6 773.001 1654.15 773.228C1654.7 773.455 1655.16 773.84 1655.49 774.333C1655.82 774.827 1656 775.407 1656 776C1656 776.796 1655.68 777.559 1655.12 778.121C1654.56 778.684 1653.8 779 1653 779ZM1628 769L1630.54 761.36C1630.67 760.963 1630.93 760.618 1631.27 760.374C1631.61 760.13 1632.02 759.999 1632.44 760H1651.56C1651.98 759.999 1652.39 760.13 1652.73 760.374C1653.07 760.618 1653.33 760.963 1653.46 761.36L1656 769H1628Z" fill="#2D7D9A"/>
</g>
<defs>
<clipPath id="clip0">
<rect width="1920" height="1080" fill="white"/>
</clipPath>
</defs>
</svg>
